<?xml version="1.0" encoding="UTF-8"?>
<svg width="12px" height="12px" viewBox="0 0 12 12" version="1.1" xmlns="http://www.w3.org/2000/svg" xmlns:xlink="http://www.w3.org/1999/xlink">
    <!-- Generator: Sketch 53.2 (72643) - https://sketchapp.com -->
    <title>Combined Shape</title>
    <desc>Created with Sketch.</desc>
    <g id="Page-1" stroke="none" stroke-width="1" fill="none" fill-rule="evenodd">
        <path d="M0,0 L12,0 L12,12 L0,12 L0,0 Z M0.952380952,0.952380952 L0.952380952,11.047619 L11.047619,11.047619 L11.047619,0.952380952 L0.952380952,0.952380952 Z M9.25862251,11.047619 L9.09889041,11.047619 L9.09889041,10.3381125 L8.99666186,10.2750976 L8.85496476,10.1837575 L8.66659416,10.3381125 L8.48932552,10.2750976 L8.28971703,10.3381125 L8.16773155,10.2750976 L8.06156068,10.1837575 L7.80952381,10.1837575 L7.98561429,10.0122345 L8.16773155,10.0122345 L8.23139782,9.87229746 L8.40023805,9.77577157 L8.28971703,9.64282748 L8.16773155,9.64282748 L8.16773155,9.77577157 L7.98561429,9.64282748 L8.16773155,9.52457639 L8.23139782,9.35914271 L8.40023805,9.21767355 L8.57786921,9.06720787 L8.48932552,8.89254197 L8.16773155,8.89254197 L8.28971703,8.77574446 L8.48932552,8.57668191 L8.66659416,8.57668191 L8.78219036,8.46106298 L8.85496476,8.21929646 L8.78219036,8.21929646 L8.57786921,8.34858694 L8.48932552,8.34858694 L8.40023805,8.16056377 L8.40023805,7.97493705 L8.66659416,7.85157877 L8.85496476,7.6962809 L8.85496476,7.4087461 L8.66659416,7.6962809 L8.48932552,7.6962809 L8.57786921,7.48543253 L8.78219036,7.29485576 L8.99666186,7.06114289 L8.99666186,6.9516133 L8.85496476,7.06114289 L8.78219036,6.9516133 L8.99666186,6.81096914 L8.99666186,6.6135566 L9.18711691,6.49039475 L9.18711691,6.28571429 L9.25862251,6.38286876 L9.36157608,6.49039475 L9.25862251,6.6135566 L9.36157608,6.69220733 L9.44336798,6.81096914 L9.54990137,7.06114289 L9.44336798,6.9516133 L9.36157608,7.06114289 L9.44336798,7.22810872 L9.54990137,7.4087461 L9.63867163,7.53937231 L9.70365201,7.79296394 L9.54990137,7.62619454 L9.54990137,7.79296394 L9.70365201,7.97493705 L9.54990137,7.97493705 L9.70365201,8.08093089 L9.89415237,8.16056377 L10.0610894,8.34858694 L9.96264459,8.34858694 L10.0610894,8.57668191 L9.96264459,8.46106298 L9.82831102,8.34858694 L9.70365201,8.21929646 L9.54990137,8.16056377 L9.54990137,8.34858694 L9.70365201,8.46106298 L9.89415237,8.57668191 L10.0610894,8.7042438 L9.89415237,8.7042438 L9.96264459,8.89254197 L9.82831102,8.77574446 L9.70365201,8.89254197 L9.89415237,8.96486764 L10.0610894,9.06720787 L10.1603725,9.14554431 L10.2748812,9.35914271 L10.0610894,9.35914271 L9.96264459,9.21767355 L9.70365201,9.21767355 L9.70365201,9.35914271 L10.0610894,9.52457639 L10.0610894,9.64282748 L10.0610894,9.77577157 L10.2748812,9.77577157 L10.4333445,9.87229746 L10.2748812,9.87229746 L10.0610894,9.87229746 L10.1603725,10.0122345 L10.4955154,10.0122345 L10.3443024,10.1106854 L10.4955154,10.1837575 L10.6666667,10.2750976 L10.4955154,10.2750976 L10.3443024,10.2750976 L10.1603725,10.2750976 L10.1603725,10.434424 L9.89415237,10.4067844 L9.70365201,10.3381125 L9.44336798,10.3381125 L9.25862251,10.3381125 L9.25862251,11.047619 Z M6.02052727,11.047619 L5.86079517,11.047619 L5.86079517,10.3381125 L5.75856663,10.2750976 L5.61686952,10.1837575 L5.42849893,10.3381125 L5.25123028,10.2750976 L5.05162179,10.3381125 L4.92963631,10.2750976 L4.82346544,10.1837575 L4.57142857,10.1837575 L4.74751905,10.0122345 L4.92963631,10.0122345 L4.99330258,9.87229746 L5.16214281,9.77577157 L5.05162179,9.64282748 L4.92963631,9.64282748 L4.92963631,9.77577157 L4.74751905,9.64282748 L4.92963631,9.52457639 L4.99330258,9.35914271 L5.16214281,9.21767355 L5.33977397,9.06720787 L5.25123028,8.89254197 L4.92963631,8.89254197 L5.05162179,8.77574446 L5.25123028,8.57668191 L5.42849893,8.57668191 L5.54409512,8.46106298 L5.61686952,8.21929646 L5.54409512,8.21929646 L5.33977397,8.34858694 L5.25123028,8.34858694 L5.16214281,8.16056377 L5.16214281,7.97493705 L5.42849893,7.85157877 L5.61686952,7.6962809 L5.61686952,7.4087461 L5.42849893,7.6962809 L5.25123028,7.6962809 L5.33977397,7.48543253 L5.54409512,7.29485576 L5.75856663,7.06114289 L5.75856663,6.9516133 L5.61686952,7.06114289 L5.54409512,6.9516133 L5.75856663,6.81096914 L5.75856663,6.6135566 L5.94902167,6.49039475 L5.94902167,6.28571429 L6.02052727,6.38286876 L6.12348085,6.49039475 L6.02052727,6.6135566 L6.12348085,6.69220733 L6.20527275,6.81096914 L6.31180613,7.06114289 L6.20527275,6.9516133 L6.12348085,7.06114289 L6.20527275,7.22810872 L6.31180613,7.4087461 L6.40057639,7.53937231 L6.46555677,7.79296394 L6.31180613,7.62619454 L6.31180613,7.79296394 L6.46555677,7.97493705 L6.31180613,7.97493705 L6.46555677,8.08093089 L6.65605713,8.16056377 L6.82299417,8.34858694 L6.72454935,8.34858694 L6.82299417,8.57668191 L6.72454935,8.46106298 L6.59021579,8.34858694 L6.46555677,8.21929646 L6.31180613,8.16056377 L6.31180613,8.34858694 L6.46555677,8.46106298 L6.65605713,8.57668191 L6.82299417,8.7042438 L6.65605713,8.7042438 L6.72454935,8.89254197 L6.59021579,8.77574446 L6.46555677,8.89254197 L6.65605713,8.96486764 L6.82299417,9.06720787 L6.9222773,9.14554431 L7.03678596,9.35914271 L6.82299417,9.35914271 L6.72454935,9.21767355 L6.46555677,9.21767355 L6.46555677,9.35914271 L6.82299417,9.52457639 L6.82299417,9.64282748 L6.82299417,9.77577157 L7.03678596,9.77577157 L7.19524927,9.87229746 L7.03678596,9.87229746 L6.82299417,9.87229746 L6.9222773,10.0122345 L7.25742018,10.0122345 L7.10620712,10.1106854 L7.25742018,10.1837575 L7.42857143,10.2750976 L7.25742018,10.2750976 L7.10620712,10.2750976 L6.9222773,10.2750976 L6.9222773,10.434424 L6.65605713,10.4067844 L6.46555677,10.3381125 L6.20527275,10.3381125 L6.02052727,10.3381125 L6.02052727,11.047619 Z M2.78243204,11.047619 L2.62269993,11.047619 L2.62269993,10.3381125 L2.52047139,10.2750976 L2.37877428,10.1837575 L2.19040369,10.3381125 L2.01313504,10.2750976 L1.81352655,10.3381125 L1.69154107,10.2750976 L1.5853702,10.1837575 L1.33333333,10.1837575 L1.50942382,10.0122345 L1.69154107,10.0122345 L1.75520734,9.87229746 L1.92404757,9.77577157 L1.81352655,9.64282748 L1.69154107,9.64282748 L1.69154107,9.77577157 L1.50942382,9.64282748 L1.69154107,9.52457639 L1.75520734,9.35914271 L1.92404757,9.21767355 L2.10167874,9.06720787 L2.01313504,8.89254197 L1.69154107,8.89254197 L1.81352655,8.77574446 L2.01313504,8.57668191 L2.19040369,8.57668191 L2.30599989,8.46106298 L2.37877428,8.21929646 L2.30599989,8.21929646 L2.10167874,8.34858694 L2.01313504,8.34858694 L1.92404757,8.16056377 L1.92404757,7.97493705 L2.19040369,7.85157877 L2.37877428,7.6962809 L2.37877428,7.4087461 L2.19040369,7.6962809 L2.01313504,7.6962809 L2.10167874,7.48543253 L2.30599989,7.29485576 L2.52047139,7.06114289 L2.52047139,6.9516133 L2.37877428,7.06114289 L2.30599989,6.9516133 L2.52047139,6.81096914 L2.52047139,6.6135566 L2.71092643,6.49039475 L2.71092643,6.28571429 L2.78243204,6.38286876 L2.88538561,6.49039475 L2.78243204,6.6135566 L2.88538561,6.69220733 L2.96717751,6.81096914 L3.07371089,7.06114289 L2.96717751,6.9516133 L2.88538561,7.06114289 L2.96717751,7.22810872 L3.07371089,7.4087461 L3.16248116,7.53937231 L3.22746154,7.79296394 L3.07371089,7.62619454 L3.07371089,7.79296394 L3.22746154,7.97493705 L3.07371089,7.97493705 L3.22746154,8.08093089 L3.41796189,8.16056377 L3.58489893,8.34858694 L3.48645411,8.34858694 L3.58489893,8.57668191 L3.48645411,8.46106298 L3.35212055,8.34858694 L3.22746154,8.21929646 L3.07371089,8.16056377 L3.07371089,8.34858694 L3.22746154,8.46106298 L3.41796189,8.57668191 L3.58489893,8.7042438 L3.41796189,8.7042438 L3.48645411,8.89254197 L3.35212055,8.77574446 L3.22746154,8.89254197 L3.41796189,8.96486764 L3.58489893,9.06720787 L3.68418207,9.14554431 L3.79869073,9.35914271 L3.58489893,9.35914271 L3.48645411,9.21767355 L3.22746154,9.21767355 L3.22746154,9.35914271 L3.58489893,9.52457639 L3.58489893,9.64282748 L3.58489893,9.77577157 L3.79869073,9.77577157 L3.95715403,9.87229746 L3.79869073,9.87229746 L3.58489893,9.87229746 L3.68418207,10.0122345 L4.01932494,10.0122345 L3.86811188,10.1106854 L4.01932494,10.1837575 L4.19047619,10.2750976 L4.01932494,10.2750976 L3.86811188,10.2750976 L3.68418207,10.2750976 L3.68418207,10.434424 L3.41796189,10.4067844 L3.22746154,10.3381125 L2.96717751,10.3381125 L2.78243204,10.3381125 L2.78243204,11.047619 Z" id="Combined-Shape" fill="#559649"></path>
    </g>
</svg>