<?xml version="1.0" encoding="UTF-8"?>
<!DOCTYPE svg PUBLIC "-//W3C//DTD SVG 1.1//EN" "http://www.w3.org/Graphics/SVG/1.1/DTD/svg11.dtd">
<!-- Creator: CorelDRAW 2018 (64-Bit) -->
<svg xmlns="http://www.w3.org/2000/svg" xml:space="preserve" width="8.26772in" height="11.6929in" version="1.1" style="shape-rendering:geometricPrecision; text-rendering:geometricPrecision; image-rendering:optimizeQuality; fill-rule:evenodd; clip-rule:evenodd"
viewBox="0 0 8267.72 11692.91"
 xmlns:xlink="http://www.w3.org/1999/xlink">
 <defs>
  <style type="text/css">
   <![CDATA[
    .fil0 {fill:#2B2926}
   ]]>
  </style>
 </defs>
 <g id="Layer_x0020_1">
  <metadata id="CorelCorpID_0Corel-Layer"/>
  <path class="fil0" d="M8068.81 10951.14l0 -10209.37 -7868.41 0c-0.5,12.25 -1.44,24.52 -1.44,36.76 -0.07,3370.94 -0.07,6741.89 0,10112.83 0,19.93 0.94,39.85 1.44,59.78l7868.41 0zm-414.04 -3190.12c-11.56,84.46 -27.57,168 -53.32,249.3 -6.18,19.54 -15.15,38.29 -24.11,56.79 -11.99,24.78 -14.29,51.52 -17.36,78.13 -4.81,41.9 -7.42,84.15 -14.26,125.7 -4.18,25.39 -13.93,49.96 -22.44,74.44 -3.71,10.7 -10.37,20.49 -23.24,25.78 -12.17,-8.54 -12.36,-20.69 -14.17,-31.68 -18.56,-113.56 -18.63,-227.37 -7.25,-341.74 10.11,-101.71 27.64,-202.07 49.07,-301.76 13.85,-64.5 13.17,-129.32 10.98,-194.67 -3.72,-111.21 -5.86,-222.47 -7.93,-333.72 -0.21,-11.79 3.01,-24.32 7.46,-35.33 4.04,-10.02 12.89,-16.91 26.67,-16.59 1.75,4.25 4.25,8.78 5.51,13.63 31.44,120.94 58.52,242.83 80.58,365.93 15.88,88.61 15.96,177.01 3.81,265.79zm-112.25 1026.21c-7.17,32.87 -11.17,66.56 -15.09,100.06 -2.14,18.18 -1.29,36.72 -1.64,55.11 -0.91,49.1 -1.38,98.19 -2.71,147.26 -1.04,38.87 -15.02,70.18 -52.82,86.33 -3.47,1.47 -6.51,3.93 -9.8,5.85 -13.71,7.94 -23,19.13 -28.31,34.58 -2.57,7.47 -7.74,15.37 -13.97,19.97 -14.03,10.35 -22.5,23.79 -28.04,39.19l0.06 0.26c0,0 -0.7,1.78 -1.72,4.68 -0.54,1.72 -1.09,3.44 -1.57,5.21 -3.54,13.1 -6.61,26.42 -10.43,42.02 -3.18,22.41 -1.91,45.67 13.72,55.15 34.13,20.72 -20.49,13.82 0,65.61 20.47,51.8 -20.49,41.44 -37.56,86.33 -6.86,18.06 -17.24,26.65 -26.82,34.97 -11.06,-283.69 -21.93,-528.32 -21.93,-528.32l-153.21 -126.82 -101.65 144.44 42.44 563.69c0,0 -43.11,14.1 -42.44,3.53 0.67,-10.57 -51.57,-458.01 -51.57,-458.01l-87.06 -84.56 -66.17 119.79 20.89 165.58 -268.13 -7.04 0 35.24 -612.89 28.18 0 -260 -111.09 -87.54 -48.67 43.78 -148.71 -164.14 -89.24 150.46c0,0 5.42,413.07 0,404.86 -5.4,-8.19 -102.74,-172.33 -102.74,-172.33l-208.21 292.71c0,0 -205.48,196.96 -194.67,166.86 10.81,-30.08 94.63,-637.39 94.63,-637.39l-175.75 35.57 -100.04 746.8 35.15 -10.93c0,0 -186.57,183.28 -194.68,194.22 -2.25,3.04 -37.67,25.91 -87.63,57.36l2.76 -44.85c-8.28,9.32 -33.67,38.22 -34.94,43.25 -1.6,5.89 -21.19,-45 -16,-51.92 5.21,-6.92 -29.74,16.29 -37.61,27.87 -7.89,11.67 -34.56,-3.33 -17.57,-26.52 16.99,-23.18 55.44,-24.35 46.65,-38.22 -8.69,-13.87 -32.94,-9.32 9.61,-38.22 41.15,-27.93 45.56,-43.41 45.7,-44.29 -2.28,1.2 -33.35,17.41 -32.63,-12.96 0.69,-31.54 -18.08,-56.89 -18.08,-56.89 0,0 -0.32,64.14 -30.29,84.08 -29.96,19.94 -49.56,7.81 -39.36,36.27 10.18,28.56 -2.97,48.3 -32.46,41.62 -29.57,-6.69 -69.9,-32.32 -43.41,-54.8 25.48,-21.65 45.03,-0.21 46.59,1.58 -0.96,-2.92 -24.85,-71.97 3.82,-80.82 29.31,-9.07 31.59,12.9 31.59,12.9 0,0 10.53,-3 4.5,-33.08 -6.02,-30.08 -10.81,-45.68 2.58,-53.53 13.39,-7.83 41.75,8.44 41.75,8.44 0,0 -10.21,-20.94 -12.75,-37.13 -2.64,-16.1 2.93,-36.06 25.97,-61.44 23.06,-25.39 20.42,-40.06 20.42,-40.06 0,0 -45.38,2.97 -73.97,13.51 -28.59,10.56 -6.39,10.42 -22.56,29 -15.14,17.39 -42.92,33.44 -46.31,35.38 2.98,-1.06 23.48,-7.91 17.17,18.62 -6.8,28.65 -29.14,42.46 -49.72,50.56 -20.57,8.19 -1.56,-56.64 21.03,-108.91 22.57,-52.26 75.57,-117.39 79.03,-116 3.36,1.37 19.04,-0.5 29.32,-8.08 10.37,-7.58 33.68,7.39 43.02,16.75 9.24,9.35 0.53,-28.7 25.2,-15.96 24.7,12.65 71.96,25.03 69.65,4.92 -2.22,-20 -32.67,-32.47 -21.48,-44.65 11.18,-12.18 23.89,-21.85 1.89,-30.83 -22,-8.99 -27.36,-6.47 -26.33,-23.31 1.04,-16.94 -17.67,-23.39 -26.58,-19.21 -8.92,4.08 -14.72,-5.06 -17.37,-18.1 -2.74,-13.06 -24.47,2.57 -32.25,6.74 -7.78,4.17 -16.74,-9.82 -21.28,-20.67 -4.56,-10.75 -21.11,-4.82 -25.15,4.86 -4.04,9.68 -10.41,-0.56 -21.75,-13 -11.44,-12.43 -47.47,-8.89 -38.94,3.37 8.44,12.25 16.04,29.64 -6.48,20.61 -22.61,-9.03 -41.36,3.85 -30.21,10.99 11.14,7.14 14.72,23.74 3.85,32.46 -10.97,8.61 2.32,18.21 24.28,17.89 22.04,-0.41 24.8,10.87 10.11,24 -14.7,13.11 28.37,8.85 28.37,8.85 0,0 -3.86,6.74 -3.76,23.74 -35.07,44.06 -81,132.43 -116.61,241.31 -9.79,18.18 5.07,-130.13 1.64,-167.83 15.9,-24.14 13.94,-104.43 -2.94,-140.57 -16.87,-36.12 -27.93,-43.26 -33.56,-17.94 -5.64,25.42 -29.79,88.86 11.89,154.64 3.47,47.11 -3.52,132.03 -15.53,157.67 -23.89,3.14 -39.4,-36.48 -35.17,-57.87 4.22,-21.38 19.09,-37.35 23.96,-41.79 4.87,-4.35 -10.49,-7.64 -23.22,-17.83 -12.64,-10.1 -33.62,-25.47 -23.37,-51.22 9.71,-24.25 14.96,-36.28 15.47,-37.49 -1.64,0.96 -23.5,14 -42.82,-6.9 -20.06,-21.75 -24.04,-60.57 -18.79,-81.35 5.35,-20.7 5.57,-24.26 5.57,-24.26 0,0 -45.96,24.04 -67.03,-0.1 -20.41,-23.39 -37.24,-27.31 -38.2,-27.46 2.03,2.91 33.93,49.38 31.81,83.88 -2.18,35.47 -27.15,37.47 -27.15,37.47 0,0 41.78,-2.11 58.72,22.93 16.94,25.14 37.41,59.17 19.63,84.98 -15.53,22.56 -40.35,37.82 -46.3,41.3 4.11,-2.07 18.79,-6.52 50.83,7.48 38.83,17.11 33.33,41.92 8.99,60.87 -24.33,18.96 -25.32,45.2 -25.32,45.2 0,0 38.83,-20.38 56.2,7.65 17.39,28.03 -34.36,78.54 -58.58,39.63 -24.14,-39.01 -37.69,-54.44 -45.93,-71.35 -8.17,-16.87 -41.96,-51.21 -41.96,-51.21 0,0 7.7,-43.54 16.2,-56.61 -20.69,11.5 -32.97,30.06 -32.97,30.06l-6.41 -15.08c0,0 11.96,-37.72 39.83,-59.68 -27.51,10.35 -55.14,33.85 -62.17,48.97 -30.94,-34.61 -43.98,-72.74 -97.07,-83.86 15.67,27.03 75.44,73.2 83.38,112.53 -17.39,45.52 -42.17,104.63 -52.59,149.06 -10.43,44.44 -32.35,109.1 -32.35,109.1 0,0 -3.03,-68.74 -13.9,-119.25 -10.86,-50.52 12.19,-198.49 12.19,-198.49 0,0 -43.43,73.58 -54.26,124.71 -10.83,51.04 15.36,165.96 13.17,161.25 -2.28,-4.7 -44.93,-163.96 -125.67,-182.56 43.22,82.26 98.24,218.78 101.61,227.31 -2.64,-4.56 -29.28,-50.25 -83.57,-93.57 -57.33,-45.65 -58.89,-41.9 -58.89,-41.9 0,0 106.78,116.04 118.63,193.83 -15.87,28.07 -73.72,-59.67 -62.82,-29.82 11,29.78 41.07,81.5 48.25,89.74 -11.5,10.28 -21.28,22.56 -50.8,-38.18 -29.52,-60.72 -99.38,-109.76 -99.38,-109.76 0,0 96.63,124.44 90.42,183.65 -24.06,-40.17 -48.97,-56.41 -50.76,-57.51 2.03,2.9 42.22,61.18 16.22,98.64 -26.68,38.5 -58.07,16.92 -54.39,-67.57 3.78,-84.5 5.82,-94.57 5.82,-94.57 0,0 -47.58,93.46 -54.85,141.14 -29.76,-102.63 -39.86,-244.98 -10.29,-302.97 -54.21,83.46 -66.68,175.56 -68,208.57 -7.97,-48.81 -57.17,-228.35 -155.08,-289.81 63.97,85.81 71.29,271.83 40.25,307.82 -31.14,36.07 -53.08,40.5 -43.6,-18.85 9.39,-59.26 -40.65,-203.25 -40.08,-193.9 13.92,72.98 5.13,103.75 5.13,103.75 0,0 -26.37,-94.61 -59.74,-148.97 7.93,-54.17 -2.75,-30.14 -26.31,-77.08 -23.56,-46.93 -14.82,-39.4 -36.22,-46.56 -21.32,-7.17 -18.1,-22.08 -32.85,-25.33 -14.75,-3.25 -15.75,-24.25 -45.6,-24.97 -29.85,-0.71 -32.21,-17.14 -52.39,-6.78 -20.18,10.36 -33.57,-14.9 -46.94,-2.96 -13.39,11.96 22.7,42.14 40.96,44.46 18.25,2.31 17.04,22 40.43,32.78 23.47,10.78 -4.28,32.21 26.14,42.26 30.43,10.06 8.67,27.3 38.96,39.67 30.18,12.37 -3.14,32.37 35.71,34.82 38.93,2.44 41.94,9.53 53.76,41.68 11.82,32.14 36.61,151.1 23.69,230.44 -16.35,-76.46 -57.69,-117.44 -60.29,-119.93 0.63,3 29.81,126.61 6.14,160.72 -7.92,-95.79 -31.54,-122.86 -31.54,-122.86l-25.52 78.57c0.07,-1.17 11.42,-188.7 -96.64,-275.4 -15.07,-18.11 -38.56,-34.44 -41.44,-36.42 1.29,0.61 5.67,1.43 -12.18,-30.57 -20.15,-36.15 -21.51,-57.18 -50.06,-54.6 -28.64,2.6 -14.75,-26.15 -43.17,-27.14 -28.33,-0.89 -37.15,-25.86 -61.31,-25.6 -24.15,0.18 -54.37,-26.06 -68.82,-15.69 -14.43,10.46 -50.46,8.19 -53.33,13.21 -2.87,5.1 37.06,41.6 53.1,46.9 16.03,5.41 -2.35,38.24 32.28,36.04 34.53,-2.13 35.94,18 71.59,26.33 35.65,8.32 35.25,42.3 66.33,41.65 31.08,-0.64 32.94,10.76 43.97,14.04 10.93,3.37 136.15,69.58 126.57,281.65 -25.11,-96.5 -79.88,-130.46 -79.88,-130.46 0,0 67.68,104.47 21.47,168.67 -23.37,-39.86 -42.47,-122.13 -42.47,-122.13 0,0 -14.83,73.15 -15.56,99.32 -22.39,-70.29 -13.78,-125.5 -13.78,-125.5 0,0 -37.81,81.28 -28.18,149 -36.78,-129.56 0.33,-280.21 0.33,-280.21 0,0 -63.41,123.86 -74.26,209.79 -13.37,-169.42 -131.48,-305.32 -135.21,-309.48 2.13,4.24 74.35,145.68 46.78,266.25 -12.25,-98.56 -105.97,-209.58 -109.53,-213.65 1.89,3.7 37.51,75.91 16.15,158.85 -14.83,-91.21 -102.82,-282.68 -217.36,-393.22 22,-47.11 -0.15,-66.39 -8.53,-66.93 -8.28,-0.52 20,-18.86 -5.89,-23.63 -25.79,-4.85 -18.24,-9.65 -34.5,-17.03 -16.26,-7.37 12.29,-13 -17.94,-31.82 -30.15,-18.81 -6.12,-18.36 -41.5,-22.74 -35.28,-4.28 -35.75,-13.87 -52.53,-12.79 -16.79,1.09 -35.03,-8.56 -51.01,-3.21 -16.07,5.35 -36.79,2.97 -53.06,11.43 -16.18,8.56 10.74,12.39 25.43,12.25 14.6,-0.15 0.15,14.76 24.17,15.29 24.03,0.44 18.44,6.44 42.08,13.21 23.64,6.76 19.97,31.94 43.13,29.19 23.26,-2.83 -13.98,7.53 22.47,25.75 36.57,18.14 -37.04,7.15 6.7,27.89 43.74,20.74 60.82,49.36 67,50.83 6.19,1.37 70.43,78.52 84.5,105.79 -67.8,-38.08 -137.75,-23.43 -137.75,-23.43 0,0 138.54,27.78 187.22,120.75 48.67,93.07 46.89,172.32 46.89,172.32 0,0 -9.26,31.18 -26.68,42.79 -17.43,11.61 -42.65,-71.48 -39.29,-126.29 3.38,-54.9 -22.8,47.24 -18.25,109.97 -14.82,54.1 -34.08,78.29 -47.32,20.29 -13.15,-58 -97.54,-131.04 -97.54,-131.04 0,0 69.42,112.36 59.79,166.78 -9.63,54.42 -7.83,55.43 -32.06,-2.19 -24.22,-57.63 -86.85,-188.43 -240.21,-222.78 -16.01,-61.76 -133.53,-166.94 -137.22,-170.22 3.17,4.58 104.79,152.61 102.92,165.83 -32.82,-25.7 -97.46,-2.82 -97.46,-2.82 0,0 109.64,20.4 124.64,48.28 14.92,27.86 70.88,200.93 78.91,232.85 8.03,31.91 -21.91,-40.65 -29.71,-23.17 -7.7,17.42 -42.89,12.96 -49.93,18.15 -6.94,5.21 27.94,-38.68 5.03,-81.64 -22.83,-42.94 -68.33,-43.57 -92.46,-84.36 -24.11,-40.81 -100.4,-81.57 -145.47,-87.81 -45.17,-6.15 -23.83,-45.25 -91.89,-21.43 -41.41,6.33 -44.43,0.51 -44.43,0.51 0,0 20.35,-96.35 -125.53,-124.57 14.5,-37.29 107.61,-16.86 110.86,-16.65 3.35,0.21 -0.07,1.17 -14.64,-32.32 -14.57,-33.49 -8.12,-47.67 -41.43,-65.52 -33.31,-17.75 -41.43,-29.53 -58.17,-10.36 -16.74,19.17 -15.6,55.11 -33.88,46.1 -18.37,-8.94 -51.82,-24.56 -55.28,-21.37 -3.56,3.08 22.83,-119.81 66.89,-131.61 43.97,-11.91 54.28,-16.81 104.07,-32.82 49.79,-15.93 58.96,-20.99 87.14,-9.11 28.09,11.88 33.75,27.99 33.75,27.99 0,0 -32.96,48.39 9.72,58.94 42.59,10.56 48.86,-19.39 65.53,-37.39 16.67,-18.02 69.39,7.76 68.06,-23.82 -1.42,-31.49 -63.22,-37.61 -38.24,-64.14 24.87,-26.44 35.67,-39.28 15.37,-51.74 -20.28,-12.54 -8.71,-20.76 -30.53,-45.76 -21.72,-24.89 -53.74,26.96 -70.21,5.69 -16.47,-21.25 -3.83,-28.24 17.94,-38.68 21.68,-10.44 47.35,-12.24 12.39,-39.13 -34.96,-26.89 -48.7,-1.9 -49.07,-33.33 -0.26,-31.5 -34.9,-80.83 -53.51,-67.42 -18.6,13.5 -30.92,34.01 -50.53,9.25 -19.51,-24.85 -51.04,-35.68 -67.53,-19.36 -16.57,16.3 -4.96,25.98 -48.24,26.67 -43.37,0.58 -56.72,37.94 -35.64,56.1 21.08,18.14 12.22,35.57 31.86,41.28 19.56,5.71 37.03,29.26 36.89,67.46 -0.13,38.11 -13.25,89 -26.71,109.44 -13.46,20.44 -64.41,36.39 -56.96,24.52 7.36,-11.89 38.76,-53.75 12.93,-66.57 -25.82,-12.89 -2.06,-38.33 -23.49,-50.86 -21.43,-12.63 -3.72,-83.36 -38.25,-64.14 -34.42,19.13 -69.52,30.43 -79.52,11.82 -9.92,-18.61 -55.37,-1.25 -61.01,18.61 -5.64,19.87 -27.21,9.48 -59.07,4.17 -31.86,-5.4 -39.22,6.47 -37.08,43.65 2.14,37.18 -28.58,31.93 -44.24,52.25 -15.67,20.31 30.96,19.93 -1.49,41.42 -32.37,21.58 -30.44,26.18 -25.28,50.03 5.25,23.96 -15.68,39.46 10.14,52.26 25.83,12.91 30.53,63.13 49.46,44.36 18.83,-18.68 -3.8,-65.02 33.47,-58.19 37.33,6.82 46.28,5.14 73.5,32.72 27.15,27.47 -15.06,45.04 16.85,68.43 31.82,23.29 72.17,71.82 13.86,63.68 -58.3,-8.14 -98.93,-52.22 -140.44,10.31 -41.6,62.43 -37.57,87.37 -7.94,74.65 29.61,-12.72 84.09,-31.75 81.3,-4.99 -2.79,26.75 -45.39,-19.68 -64.82,43.07 -19.33,62.76 26.75,107.26 -32.15,90.06 -58.8,-17.22 -99.04,-12.94 -89.85,-0.03 9.21,12.93 75.54,88.94 61.56,99.25 -8.39,6.28 -28.32,2.81 -42.94,1.28 -17.17,-34.21 -36.54,-72.96 -36.54,-72.96 0,0 1.4,15.83 -2.38,38.59 -2.15,12.67 -13.18,20.63 -22.32,24.21 -1.21,-10.07 -4.32,-17.51 -7.94,-17.46 6.06,-22.65 16.32,-63.22 22.99,-102.85 9.4,-56.42 6.39,-103.83 6.39,-103.83 0,0 -19.83,88.33 -72.72,148.19 1.5,-4.83 3.21,-9.96 5.2,-15.53 29.47,-82.35 50.46,-115.83 55.98,-152.53 5.61,-36.68 -16.29,-41.46 -42.39,22.03 -26.09,63.5 -36.26,66.17 -48.41,101.37 -4.6,13.31 -7.78,21.53 -10.46,25.14 4.26,-66.39 42.14,-148.88 42.14,-148.88 0,0 -60.15,50.85 -71.9,130.33 -1.01,-0.47 -2.14,-1.18 -3.36,-2.14 -12.83,-106.22 76.03,-238.37 76.03,-238.37 0,0 -73,71.97 -109.03,192.33 -7.53,-10.67 -15.03,-19.4 -22.24,-26.51 8.04,-46.92 27.38,-88.76 28.42,-91.06 -1.89,0.74 -28.19,12.37 -57.32,68.82 -3.22,-1.81 -6.14,-3.25 -8.79,-4.42 20.18,-90.06 102.85,-253.65 105.68,-259.29 -3.85,3.69 -90.93,89.48 -116.4,180.3 -9.31,-43 8.9,-144.83 8.9,-144.83 0,0 -24.86,34.76 -40.71,135.58 -13.28,-75.98 14.76,-240.19 14.76,-240.19 0,0 -67.72,127.79 -69.6,217.33 -11.09,-49.64 -30.46,-97.39 -78.93,-138.82 48.74,45.93 38,200.49 38,200.49 0,0 -23.22,-89.94 -49.99,-83.14 26.38,58.57 9.2,103.57 9.2,103.57 0,0 -10.83,-77 -62.06,-99.64 21.42,40.08 20.46,137.74 20.46,137.74 0,0 -75.3,-170.63 -93.87,-238.18 -9.18,-33.53 -39.64,-54.56 -72.79,-79.7l14.86 -484.04c-25.63,-98.74 -50.28,-197.7 -65.78,-298.71 -2.92,-18.94 -5,-38.04 -6.78,-57.14 -3.64,-39.39 0.29,-77.68 12.21,-115.82 29.02,-92.76 40.54,-188.69 47.28,-285.37 9.98,-143.32 10.96,-286.9 13.15,-430.46 1.94,-126.68 2.59,-253.39 5.76,-380.03 1.59,-63.61 7.4,-127.13 11.54,-190.67 1.53,-23.43 9.52,-45.11 20.64,-65.32 17.69,-32.18 36.08,-63.98 54.89,-95.51 20.38,-34.18 41.91,-67.64 62.29,-101.81 50.32,-84.3 70.2,-177.43 75.47,-274.35 0.99,-18.15 -0.85,-37.17 -5.26,-54.79 -12.18,-48.7 -15.51,-98.42 -20.3,-148.04 -6.11,-63.39 -11.93,-126.82 -18.67,-190.14 -3.59,-33.82 -14.04,-65.69 -28.85,-96.42 -32.57,-67.63 -64.04,-135.78 -86.9,-207.56 -16.1,-50.58 -29.04,-101.97 -28.63,-155.48 0.18,-21.28 2.29,-43.21 7.78,-63.67 53.78,-200.72 114.08,-399.4 181.29,-595.98 17.82,-52.08 46.96,-92.99 87.57,-128.35 104.11,-90.65 207.03,-182.68 310.75,-273.81 16,-14.04 33.21,-26.82 50.71,-38.94 14.26,-9.9 21.83,-24.01 25.26,-39.69 7.21,-32.91 14.78,-66 18.06,-99.42 7.94,-80.9 17.82,-161.71 15.11,-243.39 -1.15,-34.96 10.44,-66.17 34.33,-92.5 19.93,-21.97 38.25,-44.94 62.29,-63.35 32.86,-25.15 51.94,-61.53 66.67,-99.97 16.32,-42.63 24.74,-87.15 26.7,-132.54 2.72,-62.86 4.62,-125.8 4.26,-188.71 -0.17,-27.59 6.39,-48.83 28.25,-66.17 23.87,-18.9 46.18,-39.83 69.24,-59.79 4.04,-3.48 8.26,-6.81 12.7,-9.74 8.09,-5.35 15.9,-13.47 26.74,-8.22 11.44,5.54 11.74,17.04 12.03,27.86 2.57,96.71 5.04,193.42 7.48,290.14 1.71,67.51 3.33,135.03 8.6,202.91 2.86,-24.4 6.39,-48.75 8.46,-73.22 7.18,-84.87 14.63,-169.75 20.37,-254.74 2.68,-39.76 1.32,-79.79 2.54,-119.68 0.71,-22.96 1.76,-46.03 4.71,-68.78 4.64,-35.64 22.87,-63.83 53.92,-81.03 25.14,-13.92 51.65,-25.91 78.65,-35.65 38.53,-13.92 78.08,-24.92 117.14,-37.35 130.18,-41.44 236,-116.68 315.67,-229.72 45.93,-65.17 88,-132.47 123.15,-204.17 13.81,-28.2 26.72,-56.85 41.06,-84.75 9.06,-17.64 19.07,-34.96 30.35,-51.21 11.17,-16.09 20.17,-32.87 21.74,-52.4 1.75,-21.67 13.25,-35.15 31.25,-44.57 4.04,-2.11 7.97,-4.44 12,-6.59 39.28,-20.92 69.76,-51.25 93.09,-89.2 13.63,-22.15 27.1,-44.41 40.61,-66.64 24.35,-40.07 58.07,-69.46 102.04,-84.21 175.83,-58.94 344.85,-135.78 518.36,-200.79 54.87,-20.56 110.29,-38.86 168.63,-46.43 34.01,-4.42 64.03,-17.72 90.24,-40.2 54.4,-46.65 109.12,-92.94 163.44,-139.71 18.48,-15.9 36.44,-32.5 54.07,-49.39 8.11,-7.76 16.7,-12.49 27.99,-13.25 47.69,-3.21 95.37,-6.67 143.03,-10.48 9.83,-0.79 17.48,2.04 24.94,8.29 48.72,40.8 95.01,83.58 125.06,141.51 6.93,13.36 11.28,25.93 10.94,41.15 -1.36,61.74 5.36,122.57 22.43,182.06 15.56,54.21 41.65,101.58 83.94,139.67 36.83,33.17 72.07,68.15 108.25,102.07 11.68,10.94 24.35,20.81 36.2,31.6 18.35,16.72 38.37,23.8 64.17,22.01 43.03,-3 86.37,-1.47 129.58,-1.89 21.93,-0.21 41.36,7.22 60.26,18.07 85.78,49.24 171.68,98.24 257.86,146.78 46.37,26.13 93.56,50.82 140,76.85 12.5,7 24.54,15.47 35.19,25.07 16.07,14.47 34.42,24.18 55.38,23.68 121.12,-2.86 233.17,36.39 344.78,76.21 153.04,54.61 305.33,111.38 457.92,167.26 6.99,2.57 13.76,5.7 20.31,8.42 -6.08,32.18 -21.36,42.21 -50,34.35 -28.52,-7.85 -56.91,-16.15 -85.58,-23.33 -37.31,-9.36 -73.53,-3.68 -114.42,11.42 9.36,1.67 13.79,2.86 18.29,3.21 35.61,2.69 70.87,7.09 105.32,17.41 15.79,4.74 29.42,11.71 39.92,24.82 4.76,5.93 10.44,11.14 15.92,16.44 16.67,16.21 36.72,25.44 59.74,23.56 28.65,-2.35 57.28,-6.13 85.62,-11.06 21.75,-3.79 40.76,-1.68 61.06,9.03 106.32,56.03 213.21,110.92 314.25,176.54 62.37,40.53 118.79,87.96 165.14,146.82 31,39.37 56.61,81.44 64.86,132.63 2.13,13.19 9.07,26.11 15.93,37.89 30.42,52.25 69.75,96.17 119.07,131.32 14.44,10.29 27.64,24.63 36.71,39.94 19.82,33.51 37.32,68.5 54.48,103.53 17.52,35.75 33.71,72.15 50.04,108.47 17.54,39.01 42.14,72.71 73.14,101.75 3.35,3.13 6.36,6.68 9.94,9.47 56.04,43.65 91.25,101.68 114.36,168.29 13.32,38.36 26.94,76.61 41.28,114.58 8.97,23.8 9.94,47.88 6.2,72.5 -16.93,111.49 -33.63,223 -51.08,334.39 -17.61,112.36 -29.76,225.18 -30.02,339.07 -0.04,14.82 -3.21,30.6 6.53,45.28 13.28,-5.91 20.43,-14.67 21.58,-29.46 3.41,-43.61 9.32,-87.08 11.18,-130.75 4.89,-113.83 31.43,-222.94 66.9,-330.3 12.26,-37.11 24.57,-74.2 37.09,-111.21 1.9,-5.63 5.12,-10.78 10.19,-21.19 4.64,13.11 9.33,21.64 10.58,30.65 6.7,48.59 17.24,97.25 17.67,145.96 0.91,100.48 -2.48,201.07 -6.57,301.51 -2.56,62.82 -8.64,125.56 -15.1,188.11 -2.58,24.96 -9.06,49.78 -16.18,73.91 -16.92,57.35 -37.85,113.89 -43.56,173.71 -4.06,42.57 -3.28,85.76 -2.28,128.63 0.71,29.78 5.47,59.46 11.44,89.94 1.36,-3.39 3.39,-6.64 4.03,-10.15 19.9,-110.96 38.76,-222.17 67.8,-331.18 6.28,-23.56 17.02,-45.87 24.03,-69.28 5.46,-18.24 10.22,-37.07 11.99,-55.96 4.12,-44.3 8.21,-88.76 8.86,-133.22 1.86,-126.67 2.02,-253.36 2.82,-380.04 0.06,-8.32 0.01,-16.64 0.01,-24.96 59.03,-0.1 121.85,49.8 131.39,105.85 6.29,36.94 10.21,74.56 11.89,112.03 4.65,104.52 2.12,208.9 -16.64,312.08 -5.74,31.49 -14.18,63 -25.76,92.76 -48.8,125.49 -71.04,255.22 -64.35,389.83 4.02,80.64 24.96,157.48 56.36,231.28 21.89,51.41 44.64,102.59 69.96,152.36 24.47,48.1 37.35,98.41 40.75,151.96 4.96,78.22 8.01,156.39 0.85,234.67 -4.08,44.67 -15.18,87.61 -29.85,129.68 -14.13,40.5 -28.93,80.78 -44.02,120.94 -12.54,33.39 -19.46,67.56 -19.15,103.42 0.43,51.43 0.21,102.89 -0.07,154.32 -0.58,104.42 -1.44,208.83 -2.07,313.25 -0.4,65.44 -9.4,129.92 -18.75,194.56 -8.44,58.41 -13.28,117.39 -18.17,176.25 -9.86,118.68 -11.92,237.65 -10.67,356.72 0.28,26.83 -1.39,53.7 -2.4,80.53 -1.7,44.35 -16.96,83.82 -42.42,119.57 -7.53,10.58 -15.89,20.71 -22.24,31.97 -9.67,17.19 -2.82,30.1 16.28,33 37.42,5.67 37.33,5.69 45.8,43.46 2.29,10.17 5.25,20.2 8.12,31.18 15.65,-1.35 22.94,-12.03 32.15,-19.24 8.36,-6.56 15.82,-14.54 24.82,-19.93 13.15,-7.86 21.21,-5.65 28.58,7.25 17.7,30.97 31.33,62.42 23.06,100.38zm-636.93 1223.32l0 124.79c-18.37,2.75 -35.42,9.6 -50.4,24.18 -1.83,1.78 -3.61,3.06 -5.35,4.09l-181.59 -169.25 237.33 16.18zm-607.98 -172.67l-280 13.5 -24 70.14 -29.33 0 13.33 -391.2 320 307.56zm-485.33 -167.4l-10.15 337.37c0,0 -11.18,-221.24 -19.3,-229.32 -8.13,-8.09 29.46,-108.06 29.46,-108.06zm-216 -94.29l18.67 132.19 -184 0 165.33 -132.19zm1154.48 701.46c0,0 17.54,19.28 40.81,44.11l-160.9 89.11c-10.75,-5.94 -25.14,-12.22 -47.83,-17.83 -76.35,-18.86 -4.36,45.35 -45.81,27.7 -41.44,-17.65 -28.36,11.69 -65.43,22.72 -8.01,2.39 -30.96,-26.54 -42.25,-19.43l-67.78 34.5c3.65,-29.54 5.44,-45.46 0.97,-79.99 0,35.83 -22.75,32.17 -48.86,58.89l-39.28 21.1c11.67,-46.74 25.42,-104.46 5.26,-152.54 7.63,21.61 -35.94,97.37 -62.83,152.54l-30.1 0c-2.72,-24.1 -3.3,-41.74 3.5,-96.54 -47.69,17.42 -57.09,73.17 -58.89,96.54l-1.43 0c-3.08,-23.88 -10.46,-85.93 18.89,-165.31 -37.08,15.92 -85.07,143.63 -85.07,143.63l-47.97 -15.24 -21.82 -134.61c0,0 728.47,-2.2 756.82,-9.35zm-1479.8 -129.5c-8,32.38 159.98,118.71 159.98,118.71l-24 78.24c0,0 -31.98,40.47 -63.98,16.2 -32,-24.28 -77.33,8.09 -98.67,5.39 -21.33,-2.69 29.33,-26.97 37.33,-75.54 8,-48.56 -34.67,-48.56 -56,-26.97 -21.33,21.58 -37.33,-26.99 -37.33,-48.57l0 -48.56c0,-2.71 -64,59.35 -69.33,67.44 -5.33,8.1 -8,83.64 -10.67,97.13 -2.67,13.48 -77.33,62.06 -77.33,62.06l0 -329.15 242.67 -196.94 0 21.58 330.65 0 0 192.91 -26.67 12.14 -42.67 1.35c-42.65,1.35 -90.67,-6.74 -138.65,9.44 -48,16.19 -117.33,10.79 -125.33,43.17zm-962.67 -93.06c31.08,25.13 -6.75,52.26 -30.46,36.47 -23.79,-15.82 -1.22,-62.08 30.46,-36.47zm-172.1 -28.72c1.65,30.53 62.29,91.42 62.29,91.42 0,0 -43.52,4.43 -43.79,8.87 -0.26,4.46 66.71,35.51 76.36,65.56 9.57,30.04 -70.71,15.24 -70.71,15.24 0,0 -3.36,-17.21 -16.81,-73.43 -1.21,16.92 -21.69,82.56 -21.69,82.56 0,0 -14.35,-68.72 -11.31,-161.41 3.04,-92.68 19.43,-143.46 19.43,-143.46 0,0 47.09,95.83 57.61,125.93 0,0 10.65,26.63 -20.04,9.49 -30.69,-17.14 -33.02,-51.21 -31.35,-20.76zm-56.13 137.57c1.87,26.96 -30.22,2.57 -34,-6.61 -3.86,-9.09 6.4,-104.01 6.4,-104.01 0,0 -10.74,16.24 -30.69,53.36 10.25,-94.91 56.47,-200.89 76.17,-233.65 0,0 -8.03,29.92 -12.18,97.47 -4.15,67.65 -7.58,166.57 -5.69,193.44zm1510.87 113.7l0 107.92 -88 0 0 -91.72 88 -16.2zm-762.65 -45.86c0,0 5.33,99.82 0,126.8 -5.33,26.97 -21.33,43.17 -66.67,35.07 -45.33,-8.1 -98.67,37.76 -114.67,37.76 -2.13,0 -5.46,-0.25 -9.53,-0.67l5.47 -88.99c52.85,-30.72 170.65,-101.47 185.39,-109.98zm-2357.38 -3.02c1.32,24.52 -49.07,-13.19 -49.07,-13.19 0,0 -27.21,-135.74 -74.67,-221.22 88.31,46.89 125.94,198.5 125.94,198.5 0,0 -3.53,11.32 -2.21,35.92zm1765.2 -101.46c-15.33,-33.99 19.09,-27.35 33.32,14.63 0,0 19.03,5.67 4.92,35.11 -14.2,29.53 -22.92,-15.67 -38.24,-49.74zm-2463.54 -215.53c0,0 15.11,8.82 25.25,27.97 10.15,19.17 -20.88,14.53 -61.46,37.47 -40.6,23.04 -39.32,-12.14 -42.25,-49.26 -2.93,-37.24 7.06,-58.61 23.71,-46.11 16.65,12.5 15.53,1.88 54.75,29.93zm4613.04 87.97l-325.33 180.76 -74.67 0 -21.33 -196.94 421.33 16.18zm-4689.78 -438.09c0,0 -29.26,102.22 -37.04,122.13 -7.68,19.92 -12.36,-8.82 -19.24,-13.64 -6.96,-4.74 -25.83,33.36 -28.99,14.19 -3.08,-19.08 4.25,-44.83 14.65,-63.06 10.5,-18.3 14.85,-52.93 19.69,-62.82 4.94,-9.89 39.65,-12.1 50.92,3.19zm-96.15 -3.9c0,0 9.15,15.17 -3.03,49.29 -12.18,34.22 -4.54,3.39 -15.83,-22.82 -11.39,-26.22 10.9,-37.89 18.86,-26.47zm-55 -7.3c16.67,-0.65 13.97,30.24 5.02,59.46 -8.96,29.32 0,0 -18.06,-9.81 -18.14,-9.91 4.18,-49.3 13.04,-49.65zm5099.58 287.41l-136.03 0c0,0 -338.62,-312.96 -346.62,-315.65 -8,-2.7 677.32,-21.59 693.32,-18.89l32 210.44 -242.67 124.09zm-5779.18 -3129.22c6.24,11.54 8.35,26.42 8.83,39.89 1.85,51.8 -5.26,102.67 -21.24,151.92 -13.44,41.41 -40.79,74.46 -64.8,109.41 -1.58,-0.56 -3.18,-1.11 -4.76,-1.67 -4.6,-30.25 -8.7,-60.58 -13.97,-90.71 -2.78,-15.79 -5.92,-31.92 -11.79,-46.71 -18.04,-45.4 -22.71,-92.24 -15.96,-140.13 5.13,-36.33 12.56,-72.33 19.47,-111.4 43.02,23.25 81.52,47.29 104.22,89.39zm6237.85 3338.63c-7.81,9.59 -15.89,19 -24.29,28.17l-29.61 -361.67 53.91 0 0 333.5zm-1281.5 -838.02l0 191.56c0,0 -41.15,-221.24 -38.49,-229.33 2.67,-8.09 38.49,37.78 38.49,37.78zm-5036.32 -2922.97c11.65,61.57 23.35,123.14 34.48,184.82 3.67,20.29 5.82,40.88 8.53,61.35 5.15,39 -7.82,49.41 -44.9,36.07 -4.21,-1.51 -8.18,-3.65 -13.53,-6.07 0.83,-5.49 1.19,-10.59 2.4,-15.46 9.14,-36.98 2.32,-69.9 -24.47,-97.51 -12.18,-12.56 -25,-24.46 -37.48,-36.71 -22.5,-22.07 -23.35,-41.6 -0.04,-62.6 13.78,-12.42 21.81,-26.72 26.26,-44.24 3.02,-11.82 6.86,-23.51 11.32,-34.85 2.94,-7.49 7.67,-14.25 11.6,-21.35 2.25,-0.21 4.5,-0.43 6.75,-0.65 4.75,7.3 9.93,14.37 14.09,22.01 2.51,4.6 4.01,9.96 5,15.18zm531.01 -1933.72c3.06,64.32 5.79,128.65 8.78,192.98 2.24,48.35 3.56,96.65 -8.28,144.13 -2.96,11.86 -6.6,23.61 -10.9,35.04 -14.4,38.15 -40.28,64.69 -79.5,76.07 -24.72,7.17 -49.7,13.93 -74.96,18.56 -28.3,5.2 -53.5,15.7 -75.91,33.99 -47.81,38.97 -95.97,77.5 -143.97,116.21 -6.35,5.12 -12.67,10.26 -21.42,17.36 -5.17,-17.37 -3.53,-31.69 -2.4,-45.86 4.01,-50.72 14.9,-100.1 31.29,-148.04 35.76,-104.68 83.64,-203.79 137.62,-299.93 6.64,-11.81 15.93,-22.49 25.53,-32.11 22.04,-22.15 44.64,-43.8 67.78,-64.78 25.65,-23.26 47.24,-49.6 64.44,-79.78 12.13,-21.25 24.76,-42.19 37.29,-63.2 3.39,-5.67 7.26,-11.04 11.87,-18.03 17.25,17.83 25.6,38 28.64,60.1 2.61,18.93 3.2,38.17 4.1,57.31zm234.1 -385.5c-3.03,56.33 -7.43,109.64 -23.21,161.18 -3.96,12.96 -10.22,26 -18.36,36.71 -28.58,37.59 -58.42,74.22 -87.9,111.09 -1.76,2.2 -4.68,3.44 -8.37,6.08 -1.97,-7.09 -3.96,-12.78 -5.1,-18.64 -4.54,-23.28 -8.17,-46.76 -13.39,-69.89 -4.83,-21.44 0.03,-39.65 15.18,-54.74 9.67,-9.62 20.08,-18.67 31.11,-26.65 7.92,-5.74 13.83,-11.52 13.61,-21.97 -0.04,-2.24 0.9,-4.49 1.26,-6.75 3.01,-19.63 4.57,-39.48 17.83,-56.04 16.52,-20.59 51.13,-48.91 77.33,-60.39zm545.06 -962.04c-7.9,83.26 -15.52,166.56 -22.86,249.87 -0.82,9.32 -4.15,15.47 -11.83,20.63 -40.44,27.2 -80.31,55.25 -120.97,82.06 -31.61,20.83 -67.52,31.35 -104.04,38.76 -34.92,7.07 -70.03,14.24 -105.39,17.57 -34,3.19 -63.42,14.68 -88.83,36.85 -19.44,16.96 -37.92,35.06 -60.18,55.76 -1.94,-23.65 -4.14,-43.29 -5.07,-63 -8.89,-190.11 14.63,-376.89 58.74,-561.21 8.32,-34.74 22.32,-68.48 37.04,-101.14 15.59,-34.6 40.87,-60.14 79.19,-70.74 10.28,-2.85 19.56,-11.6 27.83,-19.24 17.85,-16.48 38.57,-23.76 62.3,-23.56 17.46,0.17 35.18,-1.47 52.28,1.13 19.22,2.9 35.79,-0.32 51.87,-10.72 6.75,-4.37 14.22,-10.58 22.9,-4.35 9.63,6.92 12.64,17.08 10.49,28.49 -2.13,11.29 -4.65,22.54 -7.75,33.59 -5.48,19.47 -0.7,36.6 11.44,51.7 12.44,15.44 24.97,31 39.04,44.86 5.07,4.99 15.22,8.1 22.21,6.93 10.85,-1.83 22.54,-6.06 31.04,-12.86 15.6,-12.5 30.13,-6.39 44.6,-0.5 4.26,1.74 8.63,9.17 8.76,14.1 0.24,8.97 -1.37,18.48 -4.44,26.96 -18.5,51.08 -23.3,104.6 -28.37,158.06zm352.6 -104.53c-9.43,40.35 -23.82,79.26 -43.74,115.76 -26.11,47.82 -62.24,84.79 -113.17,105.37 -42.79,17.3 -64.93,4.92 -72.15,-41.11 -2.25,-14.35 -2.36,-29.04 -3.46,-43.57 -0.83,-24.91 2.75,-49.02 11.56,-72.3 12.07,-31.93 17.65,-65.19 17.35,-99.17 -0.57,-59.85 -1.72,-119.69 -4,-179.48 -0.64,-16.74 3.78,-28.94 14.82,-41.18 35.35,-39.17 71.76,-77.08 113.32,-109.67 27.25,-21.35 50.22,-46.64 68.47,-76.32 6,-9.76 12.69,-19.09 19.14,-28.58 8.81,-12.94 19,-22.58 35.69,-25.96 10.41,-2.11 20.67,-9.64 28.88,-17.11 18.61,-16.93 38.8,-22.24 62.94,-15.3 8.7,2.5 14.04,6 18.18,14.76 18.49,39.18 21.56,78.65 9.35,120.59 -10.06,34.51 -15.5,70.39 -25.06,105.07 -13.78,49.97 -37.43,95.74 -66.79,137.86 -32.25,46.28 -58.33,94.69 -71.33,150.32zm372.39 -334.71c-28.65,33.64 -56.76,67.79 -86.43,100.5 -19.36,21.32 -40.57,41.02 -61.96,60.29 -8.71,7.85 -19.72,13.67 -31.54,14.11 11.35,-33.06 23.07,-63.67 32.28,-95.02 9.09,-31.03 0.9,-62.39 -2.32,-93.52 -3.39,-32.7 -10.91,-65.67 -2.74,-98.25 7.79,-31.04 17.98,-61.56 28.67,-91.75 5.46,-15.43 16.5,-28.26 32.21,-33.9 21.36,-7.68 39.11,-19.74 53.57,-37.21 1.8,-2.18 5.03,-3.12 9.97,-6.06 5.06,6.29 11.17,11.87 14.67,18.81 4.08,8.06 6.47,17.15 8.53,26.06 3.07,13.29 7.29,24.47 22.71,27.93 12.51,2.82 18.67,13.92 21,25.11 6.07,29.13 11.33,58.49 15.26,87.99 2.43,18.26 -5.33,34.85 -15.99,49.13 -11.85,15.86 -25.04,30.69 -37.89,45.78zm535.91 -200.21c-52.89,51.67 -118.2,79.78 -189.22,94.6 -31.12,6.48 -62.82,10.78 -94.44,14.08 -31.39,3.26 -59.62,11.17 -79.2,38.53 -1.61,2.26 -4.63,3.5 -6.92,5.15 -18.15,-21.25 -18.04,-44.69 -1,-63.68 6.04,-6.72 11.24,-14.37 15.94,-22.14 5,-8.26 5.39,-16.79 1.18,-26.26 -3.08,-6.94 -3.24,-15.21 -5.74,-28.46 14.09,4.68 23.8,6.2 31.63,10.88 16.24,9.71 31.32,9.39 47.06,-0.41 8.72,-5.4 17.93,-10.03 30.39,-16.93 -9.4,-7.67 -15.96,-12.39 -21.78,-17.92 -9.89,-9.37 -20.02,-18.67 -28.72,-29.14 -6.61,-7.94 -3.53,-15.39 5.06,-21.07 20.6,-13.59 49.02,-12.82 67.86,3.61 9.69,8.46 18.1,18.56 26.4,28.5 13.24,15.87 30.41,23.97 50.17,21.97 17.12,-1.75 34.29,-6.32 50.57,-12.17 15.72,-5.64 17.67,-16.25 5.44,-27.83 -9.26,-8.76 -20.08,-17.12 -31.72,-21.8 -34.49,-13.83 -41.15,-42 -40.94,-74.6 0.07,-10.97 5.32,-18.87 14.56,-24.35 14.39,-8.54 28.74,-17.15 43.11,-25.74 16.07,-9.6 32.26,-6.29 48.17,0.13 9.85,3.97 12.24,13 12.2,22.74 -0.04,13.04 -0.83,26.09 -0.54,39.14 0.52,22.63 9.33,28.47 30.64,21.26 24.64,-8.35 42.79,-22.19 46.08,-50.81 1.01,-8.9 4.15,-18.11 8.48,-25.94 9.49,-17.13 23.96,-18.47 36.52,-3.33 8.24,9.94 14.51,21.51 21.9,32.18 1.65,2.37 4.28,4.06 9.52,8.83 9.22,-11.86 17.12,-21.94 24.94,-32.08 15.46,-20.11 31.99,-39.19 54.75,-51.14 21.42,-11.26 35,-6 45.15,17.61 -3.65,3 -7.39,6.53 -11.57,9.44 -35.76,24.89 -68.17,53.47 -97.93,85.6 -38.38,41.42 -77.6,82.12 -117.97,121.54zm527.01 -249.76c-49.86,51.88 -103.85,98.83 -163.29,139.2 -64.56,43.83 -134.86,72.93 -212.09,83.89 -10.28,1.46 -20.75,1.44 -31.68,2.14 16.83,-78.57 90.83,-153.46 179.35,-181.79 3.19,5.22 6.01,11.43 10.22,16.43 10.25,12.17 20.21,24.86 32.07,35.25 8.96,7.85 16.19,5.3 22.47,-5.14 3.51,-5.83 5.75,-12.48 8.21,-18.9 3.82,-10.02 7.17,-20.22 11.06,-30.21 6.43,-16.5 16.75,-28.44 34.65,-33.56 15.57,-4.46 28.44,-13.26 33.19,-31.52 -15.13,-10.03 -38.58,-6.03 -43.71,-29.12 1.31,-2.13 2.06,-5.02 3.75,-5.82 24.01,-11.29 33.82,-31.15 35.48,-56.93 0.7,-10.61 3.31,-21.28 6.43,-31.47 6.17,-20.18 16.86,-25.1 36.54,-17.8 3.54,1.3 7.17,2.8 10.21,5 16.82,12.08 34.13,12.61 53.89,6.9 30.56,-8.82 61.9,-14.89 92.96,-21.96 4.25,-0.96 8.71,-0.91 15.49,-1.58 -2.21,6.76 -3.2,11.72 -5.35,16.08 -19.08,38.57 -40,75.33 -74.06,103.49 -20.43,16.87 -37.28,38.17 -55.79,57.43zm555.78 586.2c-17.11,-15 -33.87,-31.14 -47.57,-49.24 -53.3,-70.43 -97.04,-146.6 -127.25,-230.14 -13.64,-37.75 -22.46,-76.72 -16.39,-117.3 1.9,-12.7 5.83,-25.46 11.1,-37.15 5.69,-12.63 12.21,-13.48 23.57,-5.69 8.64,5.91 16.92,12.37 26.75,19.61 14.82,-17.87 21.78,-37.71 39.98,-48.58 3.14,2.03 6.39,3.04 7.89,5.28 21.36,31.76 43.56,63.39 45.47,103.7 2.81,58.96 27.18,107.58 67.13,149.46 51.96,54.47 83.61,119.69 100.12,193.26 3.64,16.25 1.52,22.42 -13.43,28.81 -41.14,17.57 -81.48,19.46 -117.37,-12zm716.93 376.32c-1.82,0.85 -3.64,1.71 -5.46,2.57 -24.74,-19.36 -49.46,-38.72 -75.81,-59.35 6.43,-5 10.13,-8.65 14.49,-11.14 27.48,-15.67 51.96,-5.9 60.47,25.22 3.76,13.76 4.3,28.43 6.3,42.7zm-165.08 -726.2c4.03,113.5 7.19,227.03 10.28,340.56 0.47,17.61 0.29,35.43 -1.85,52.86 -3.33,27.11 -14.61,34.97 -38.48,23.61 -70.79,-33.68 -144.07,-60.48 -217.75,-86.64 -39.28,-13.93 -68.86,-42.06 -88.51,-79.09 -11.42,-21.49 -21.17,-44.27 -28.52,-67.49 -18.75,-59.26 -47.17,-112.89 -85.75,-161.15 -16.7,-20.87 -33.64,-41.56 -50.24,-62.51 -15.42,-19.47 -24.32,-41.32 -29.61,-66.15 -18.43,-86.42 -54.63,-165.58 -101.76,-239.71 -13.94,-21.93 -28.59,-43.42 -43.24,-64.89 -21.39,-31.32 -18.75,-65.19 -10.67,-99.59 1.82,-7.71 5.75,-14.36 15.02,-14.99 9.46,-0.64 18.89,-0.19 23.58,9.72 4.22,8.92 7.86,18.3 10.39,27.85 4.48,17.03 7.61,34.42 11.92,51.5 3.32,13.19 9.24,15.94 21.74,11.28 12.22,-4.56 20.54,-13.56 24.36,-25.69 4.1,-13.08 6.81,-26.65 9.41,-40.15 2.59,-13.42 4.3,-27.01 7,-44.39 30.67,16.5 51.11,-6.04 76.14,-10.19 -5.56,4.68 -11.17,9.28 -16.64,14.08 -6.28,5.52 -13.1,10.63 -18.49,16.96 -10.64,12.47 -9.46,23 2.83,33.53 3.42,2.93 7.25,5.35 11.47,8.43 -0.2,18.07 -8.6,31.47 -23.67,38.86 -15.96,7.85 -21.53,20.32 -22.46,36.72 -0.86,15.18 -2.04,30.33 -3.19,47.04 25.64,6.25 48.69,-1.06 71.89,-7 23.13,-5.92 43.65,-16.52 61.26,-37.32 3.89,8.17 7.3,13.09 8.63,18.53 6.33,26.06 12.82,52.11 17.89,78.43 4.56,23.61 5.29,47.37 -6.46,69.67 -8.26,15.68 -4.63,28.53 6.62,41.83 23.1,27.35 45.15,55.61 67.07,83.97 11.11,14.37 26.19,21.51 42.86,23.47 18.79,2.21 26.37,12.69 28.57,29.82 2.63,20.53 5.02,41.1 7.96,61.57 4.57,31.64 15.93,42.8 47.94,43.65 15.64,0.42 31.97,-1.21 46.91,-5.62 19.75,-5.82 31.3,-20.79 32.65,-42.5 0.38,-6.11 0.99,-12.24 1.61,-18.33 3.86,-37.43 -6.12,-68.43 -40.2,-88.04 -22.38,-12.87 -29.64,-32.97 -28.8,-60.64 8.27,0 16,-1.76 22.52,0.32 23.74,7.61 48.02,14.49 70.25,25.49 21.64,10.69 41.14,25.87 61.32,39.5 13.76,9.29 23.28,22.54 27.12,38.59 4.26,17.81 8.42,36.07 9.07,54.26zm-90.24 582.31c-44.78,-22.26 -90.5,-43.14 -122.79,-84.03 -1.28,-1.63 -1.65,-3.97 -3.74,-9.22 8.24,0.67 14.93,-0.14 20.61,1.91 28.42,10.32 57.18,20.02 84.56,32.74 14.74,6.85 27.28,18.85 40.1,29.42 7.32,6.02 13.22,15.67 5.78,23.72 -4.46,4.82 -14.68,4.22 -22.33,5.98 -0.67,0.15 -1.53,-0.19 -2.18,-0.53zm891.82 198.24c-15.42,-5.97 -20.59,-16.44 -19.44,-31.85 0.61,-8.37 0.03,-17.07 2,-25.1 5.04,-20.57 20.41,-27.33 40.02,-19.75 14.75,5.72 29.92,10.41 45.11,14.8 3.83,1.1 8.47,-0.69 12.82,-1.17 -7.07,-41.6 -4.09,-47.61 35.08,-74.35 13.28,19.07 13.49,47.94 39.31,57.72 10.65,-3.1 12.54,-11.37 12.68,-19.94 0.14,-9.93 -2,-19.97 -1.14,-29.78 1.19,-13.47 1.53,-28.11 7.12,-39.88 13.13,-27.58 46.79,-27.04 63.61,-1.93 29.12,43.47 44.58,91.86 54.28,142.68 5.89,30.85 12.26,61.61 17.37,92.6 2.17,13.17 1.65,26.79 2.56,43.94 -12.57,-2.38 -21.3,-3.14 -29.5,-5.72 -44.06,-13.89 -88.46,-26.89 -131.82,-42.79 -50.48,-18.52 -99.89,-40.06 -150.06,-59.5zm1755.57 5341.13c36.4,67.64 0.82,149.07 -75.5,172.3 -8.85,-18.12 -8.87,-37.51 -2.07,-55.32 7.83,-20.5 18.39,-40.24 30,-58.87 13.21,-21.19 28.18,-41.42 47.57,-58.11zm-221.76 -4441.36c-28.2,-31.24 -59.64,-58.74 -93.26,-84.08 -84.06,-63.32 -163.76,-131.65 -237.36,-207.5 -65.86,-67.89 -133.9,-133.64 -201.92,-199.35 -45.21,-43.68 -95.92,-79.83 -152.42,-107.6 -120.26,-59.07 -227.32,-138.1 -329.26,-224.71 -49.44,-42.01 -87.62,-93.35 -119.11,-149.93 -57.5,-103.38 -92.4,-214.82 -114.39,-330.81 -1.83,-9.63 -3.08,-19.36 -5.24,-33.04 40.49,7.96 75.76,18.73 109.04,36.01 16.52,8.58 27.44,21.56 32.54,39.42 5.25,18.42 9.89,37 14.97,55.47 2.65,9.58 5.61,19.1 8.57,28.6 6.93,22.35 21.63,36.85 44.11,42.17 37.83,8.94 69.71,29.51 100.63,51.9 28.42,20.57 49.89,46.58 61.37,80.72 6.82,20.29 14.36,40.56 23.94,59.61 5.99,11.92 14.93,23.37 25.17,31.78 13.9,11.41 28.8,8.09 35.67,-8.41 21.9,-52.7 74.74,-66.59 141.5,-60.88 0.5,9.94 0.79,20.33 1.6,30.68 1.21,15.54 5.79,18.96 20.41,15.57 3.68,-0.85 7.41,-1.85 10.86,-3.36 18.52,-8.15 33.89,-3.87 46.83,11.42 2.94,3.47 6.32,6.67 9.85,9.54 12.42,10.15 19.43,9.71 32.44,0.41 10.85,-7.75 22.47,-14.37 37.04,-23.57 15.19,35.21 19.93,72.7 49.64,96.35 10.26,-8.17 9.85,-17.68 9.11,-26.53 -0.96,-11.4 3.63,-17.5 13.06,-23.82 23.46,-15.72 44.1,-13.22 67.29,1.81 94.75,61.36 172,140.48 235.74,233.64 23.43,34.26 40.15,71.72 53.82,111.18 11.99,34.57 26.44,68.78 44.08,100.74 44.33,80.36 91.65,159.06 136.72,239.03 47.78,84.81 89.18,172.69 118.39,265.98 12.14,38.82 22.87,78.14 20.94,119.47 -0.49,10.53 -2.25,21.53 -6.09,31.25 -5.98,15.18 -18.79,20.35 -33.46,13.4 -10.1,-4.78 -19.94,-11.5 -27.82,-19.47 -24.67,-24.93 -48.76,-50.48 -72.29,-76.51 -37.87,-41.92 -74.89,-84.63 -112.74,-126.57zm-820.58 5991.58l130.65 132.21 -373.32 10.79 242.67 -143zm-2114.29 29.83c30.08,28.47 -4.8,34.68 -25.35,25.33 -20.65,-9.26 -1.64,-51.02 25.35,-25.33zm30.54 121.8c-19.82,20.14 -30.18,-12.62 1.03,-31.25 0,0 18.7,11.03 -1.03,31.25zm8.02 -173.69c-8.47,8.42 -30.28,3.47 -39.72,-14.13 -9.54,-17.51 11.72,-48.39 50.47,-3.9 0,0 -2.36,9.61 -10.75,18.03zm-2589.06 -39.47c11.11,-38.3 45.67,-20.75 65.11,4.1 0,0 6.25,10.32 -1.42,23 -7.78,12.75 -33.78,24.26 -57.76,33.4 -24.08,9.04 -16.94,-22.28 -5.93,-60.5zm-43.44 83.97c0,0 -13.56,21.87 -30.33,40.14 -16.78,18.36 -27.14,2.76 -16.78,-24.76 10.44,-27.53 33.04,-41.14 47.11,-15.37zm-169.26 -152.65c0,0 5.85,21.49 -2.59,42.17 -8.53,20.58 -22.3,11.75 -36.15,-3.17 -13.94,-15.01 5.92,-40.17 38.74,-39zm125.18 -121.58c0,0 3.64,25.72 -13.6,36.99 -17.22,11.26 -2.06,-37.09 13.6,-36.99zm-102.41 8.5c0,0 22.43,32.28 -2.08,48.36 -24.51,16.08 -17.29,-58.35 2.08,-48.36zm6.89 200.31c0,0 8.48,17.36 6.32,25.19 -2.25,7.72 -15.76,14.83 -29.87,6.89 -14.1,-7.96 5.19,-31.35 23.56,-32.08zm71.36 34.56c7.71,8.46 4.83,29.29 -25.94,33.53 -30.68,4.25 2.08,-59.81 25.94,-33.53zm-262.28 -509.85c0,0 19.25,14.98 -1.68,27.54 -20.94,12.56 -19.64,-20.11 1.68,-27.54zm569.2 -24.76c0,0 15.7,1.87 10.36,18.28 -5.25,16.4 -10.97,14.61 -28.06,11.92 -17.08,-2.68 11.47,-34.08 17.7,-30.19zm-67.11 15.56c-8.74,12.59 -36.03,0.68 -29.72,-20.04 6.32,-20.72 24.25,-31.93 28.69,-22.26 0,0 9.67,29.78 1.03,42.31zm-12.03 -179.79c0,0 4.93,1.74 11.08,19.57 6.07,17.92 -10.58,19.74 -36.65,10.85 -26.09,-8.89 -1.96,-50.32 25.57,-30.41zm-62.56 69.61c0,0 6.78,7.67 1.72,19.33 -5.04,11.68 -29.86,29.8 -42.06,16.68 -12.11,-13.09 19.59,-38.04 40.33,-36.01zm2.25 56.86c0,0 -1.47,23.97 -11.97,43.62 -10.58,19.74 -30.18,22.17 -55.85,31.03 -25.75,8.85 3.07,-27.01 12.33,-38.06 9.35,-11.14 28.64,-20.03 55.49,-36.59zm-838.85 446.19c-2.47,5.24 -4.93,10.71 -7.4,16.63 -0.01,-6.67 0.86,-14.47 2.43,-23.13 1.56,1.97 3.22,4.18 4.97,6.5zm467.94 87.79c0,0 -0.78,25.56 -13.14,44.1 -12.47,18.63 -23.11,-6.74 -32.24,-15.18 -9.03,-8.35 20.61,-37.54 45.37,-28.92zm-421.9 -6.81c-1.29,6.54 -2.51,13.17 -3.54,19.93 -8.07,-15.32 -11.15,-33.49 -11.22,-52.31 5.47,10.21 10.5,21.11 14.76,32.37zm528.87 -481.86c14.22,14.67 5.53,27.98 -13.58,34.03 -19.13,6.14 1.94,-46.13 13.58,-34.03zm-969.92 -3071.35c17.49,8.12 27.24,20.62 30.86,36.17 8.1,34.79 14.35,70.04 21.17,105.14 0.56,2.83 -0.28,5.94 -0.81,14.25 -15.26,-2.26 -28.63,-3.11 -41.35,-6.44 -14.44,-3.79 -23.47,-14.93 -24.63,-29.74 -3.1,-39.81 2.5,-78.65 14.75,-119.37zm1459.44 -3709.91c-24.69,22.72 -51.29,22.79 -76.47,0.39 -7.36,-6.54 -11.3,-14.26 -9.15,-24.33 2.07,-9.71 3.69,-19.57 6.59,-29.03 7.97,-26.08 14.15,-30.29 40.94,-30.64 13.31,2.64 26.7,4.87 39.87,8.04 11.54,2.78 17.3,10.83 19.04,22.83 2.5,17.08 -1.79,31.78 -12.79,44.64 -2.47,2.89 -5.25,5.53 -8.04,8.09zm3010.36 162.33c-5.63,-3.65 -11.32,-8.42 -14.76,-14.06 -25.92,-42.28 -54.54,-83.43 -61.65,-134.49 -6.14,-44.17 -7.76,-88.43 -2.29,-133.42 6.35,-2.36 11.82,-4.97 17.57,-6.43 25.48,-6.47 30.17,-2.06 28.96,24.6 -0.76,16.83 -0.85,33.79 0.17,50.6 0.89,14.72 7.29,18.64 21.41,14.73 5.81,-1.61 11.18,-4.79 16.96,-6.61 11.92,-3.75 16.79,-1.71 20.63,10.56 3.18,10.17 4.93,20.86 6.56,31.44 4.9,31.79 10.79,63.53 13.56,95.53 1.48,17.2 -0.52,35.42 -4.76,52.18 -5.64,22.21 -23.33,27.75 -42.33,15.36zm1799.85 198.93c-15.42,2.92 -29.01,6.5 -42.82,7.76 -10.94,1 -18.79,-5.12 -20.19,-17.01 -1.17,-9.78 -2.82,-19.68 -2.32,-29.43 0.82,-16.33 6.44,-19.96 22.32,-14.51 23.58,8.1 34.89,26.97 43.01,53.19zm-50.25 -159.47c-10.96,-6.36 -20.11,-15.97 -29.79,-24.47 -8.33,-7.3 -16.26,-15.08 -24.31,-22.59 -17.72,19.04 -18.69,27.83 -6.93,45.75 18.92,28.79 10.24,51.25 -23.11,59.71 -11,2.79 -22.12,5.18 -33.01,8.4 -9.43,2.79 -20.21,5.61 -21.83,17.33 -1.57,11.32 7.46,17.75 15.11,24.02 5.87,4.82 12.39,8.85 18.28,13.65 3.29,2.7 5.86,6.28 11,11.92 -23.1,9.93 -44.54,15.68 -67.1,16.07 -10.89,0.18 -18.03,-7.53 -22.4,-17.06 -6.36,-13.89 -12.28,-28 -18.11,-42.14 -5.97,-14.46 -2.56,-26.96 8.44,-37.62 7.09,-6.91 14.65,-13.39 21.22,-20.76 14,-15.76 23.36,-33.83 24.7,-55.5 0.83,-13.54 -2.61,-23.41 -16.99,-28.63 -12.26,-4.46 -23.47,-11.9 -35.14,-18.02 0.43,-1.75 0.86,-3.48 1.3,-5.22 13.65,-0.69 27.31,-1.37 42.67,-2.15 -0.02,-25.97 -20.83,-36.58 -27.97,-54.4 16.21,-11.7 25.97,-13.33 38.15,-1.72 11.96,11.38 24.89,12.72 39.72,11.82 15.1,-0.91 30.29,-1.1 45.42,-0.75 14.19,0.32 26.61,5.67 36.11,16.75 12.92,15.03 25.94,29.96 38.53,45.28 10.82,13.15 13.39,29.02 12.21,45.49 -1.24,17.4 -11.14,23.61 -26.17,14.86zm187.83 56.96c9.32,63.04 -35.56,92.86 -98.2,67.87 7.86,-47.11 38.36,-72.5 77.61,-89.63 12.71,-5.54 17.09,-2.04 19.56,12.63 0.5,3.02 0.6,6.1 1.04,9.13zm-152.64 -250.57c-1.98,10 -8.46,15.61 -18.48,17.4 -14.02,2.49 -27.96,5.35 -43.5,8.33 -6.93,-30.74 11.8,-59.68 40.28,-63.15 5.14,-0.62 12.04,1.91 16.03,5.43 9.78,8.64 7.93,20.65 5.68,31.98zm-356.89 100.31c0.99,15.22 -5.47,27.09 -16.22,36.46 -10.89,9.47 -22.53,7.17 -27.06,-6.3 -5.07,-15.09 -8.76,-30.91 -10.86,-46.7 -1.81,-13.71 2.67,-18.08 15.28,-21.03 17.21,-4.01 29.03,-0.76 33.22,10.78 3.08,8.48 3.83,17.83 5.64,26.79zm-632.62 129.14c-20.89,18 -32.22,18.18 -56.94,0.22 10.51,-23.32 42.08,-61.83 63.32,-77.96 1.36,0.46 3.56,0.53 3.96,1.42 10.72,23.78 5.35,62.82 -10.33,76.32zm-66.91 -197.42c-3.15,33.49 -10.22,41.28 -40.4,45.71 -8.72,1.28 -17.52,2.19 -25.83,3.22 -11.78,-32.61 1.29,-37.22 18.96,-45.94 13.26,-6.54 25.76,-6.86 47.28,-2.99zm-139.86 210.5c-18.65,19.79 -53.15,16.61 -69.53,-4.96 -5.89,-7.75 -4.75,-14.21 2.65,-19.57 3.64,-2.63 7.91,-4.57 12.15,-6.06 15,-5.28 30.04,-10.52 45.24,-15.22 14.78,-4.57 24.03,2.64 23.32,22.93 -2.97,5.07 -6.85,15.47 -13.83,22.87zm-26.74 -169.9c-27.6,-11.07 -41.35,-38.53 -69.52,-37.96 0.4,-20.94 2.58,-23.79 17.47,-27.61 25.81,-6.59 56.33,10.83 53.76,41.78 -0.54,6.64 -0.96,13.29 -1.72,23.79zm-334.74 185.98c-19.13,-0.8 -35.35,-10.08 -50.13,-21.26 -4.1,-3.11 -5.86,-12.68 -4.86,-18.62 1.57,-9.32 6.39,-18.09 10.04,-27.59 47.11,7.24 58.25,24.82 44.94,67.47zm-40.5 -155.29c0.12,14.52 -5.85,19.03 -14.42,17.65 -22.61,-3.64 -44.36,-10.89 -60.78,-27.69 -17.29,-17.71 -12.72,-37.03 9.67,-47.46 27.8,-12.96 41.96,-7.9 53.58,20.54 5.43,13.29 8.9,27.39 11.94,36.96zm226.06 -190.72c-16.07,15.26 -31.28,29.01 -45.68,43.56 -49.85,50.31 -67.31,51.87 -127.63,10.57 7.67,-58.81 42.7,-95.81 97.92,-104.94 37.03,-6.14 71.85,-3.49 106.1,14.64 19.25,10.19 41.59,14.57 62.76,20.85 14.39,4.28 28.79,9.08 28.72,27.08 -0.07,18.24 -13,27.58 -28.6,33.53 -20.9,7.99 -38.33,-0.4 -54.47,-12.56 -12.35,-9.33 -23.82,-19.85 -39.13,-32.72zm-0.85 403.42c-14.81,5.86 -23.1,1.93 -26.31,-13.94 -2.24,-11.1 -3.35,-22.64 -3.32,-33.97 0.07,-21.25 5.1,-25.15 26.28,-22.44 3.68,0.47 7.28,1.6 13.59,3.04 1.82,14.96 3.91,28.43 4.97,42 0.92,11.72 -3.83,20.83 -15.2,25.32zm36.78 -173.56c6.85,33.82 -25.4,66.39 -70.18,69.23 3.17,-52.22 11.1,-61.75 70.18,-69.23zm1700.42 359.87c-79.18,-41.56 -106.76,-130 -79.13,-260.2 59.04,-6.22 79.49,40.44 99.94,80.46 37.43,73.25 29.68,122.69 -20.82,179.74zm-0.22 -307.33c-9.33,-1.98 -18.2,-6.17 -28.7,-9.98 5.39,-15.39 9.6,-29.26 15.24,-42.53 2.18,-5.14 6.78,-10.47 11.65,-12.99 18.53,-9.58 36.46,4.47 32.43,27 -2.17,12.17 -9.97,23.61 -16.75,34.4 -2.02,3.21 -9.57,5.03 -13.87,4.1zm-37.8 -218.07c11.32,5.64 1.7,20.72 0.46,31.54 -2.07,17.97 -6.94,34.69 -30.25,40.02 -12.96,-15 -15.07,-33.46 -18.15,-51.11 -0.78,-4.48 4.7,-10.19 7.64,-15.14 0.64,-1.08 2.57,-1.75 4,-1.93 12.29,-1.64 27,-8.02 36.3,-3.38zm116.65 60.33c-17.3,6.7 -37.8,4.43 -43.65,-6.35 -8.9,-16.46 2.61,-27.25 12.07,-37.93 6.35,-7.15 13.75,-13.33 21.06,-20.3 17.07,13.02 26.82,26.96 23.53,47.68 -1.32,8.26 -4.97,13.79 -13,16.89zm-1211.72 -217c-7.76,36.26 -25.47,50.32 -62.39,49.29 -3.78,-0.11 -7.58,-0.3 -11.33,-0.82 -37.61,-5.25 -47.28,-12.65 -53.67,-50.6 -6.47,-38.47 -11.97,-77.43 -13.61,-116.35 -3.49,-82.72 -4.24,-165.57 -5.97,-248.37 -0.11,-5.19 1.01,-10.42 1.61,-16.17 18,-1.35 30.37,6.18 37.14,21.5 6.76,15.33 12.06,31.36 17.6,47.24 5.82,16.7 6.57,17.62 24.24,17.7 8.33,0.06 16.67,-0.48 25,-0.83 14.76,-0.64 24.65,6.89 30.37,19.83 9.02,20.44 8.36,42.1 3.85,63.21 -1.32,6.2 -9.48,10.88 -14.43,16.32 -9.14,10.06 -19.48,19.3 -26.9,30.51 -6.57,9.92 -2.99,17.03 8.39,21.29 8.5,3.2 17.59,4.67 26.19,7.61 7.86,2.7 15.76,5.7 23.04,9.68 33.96,18.67 39.59,48.2 13.58,77.22 -13.54,15.11 -18.68,32.92 -22.71,51.72zm306.57 -52.1c-1.09,2.85 -2.19,5.92 -4.09,8.2 -19.61,23.47 -21.42,51.56 -20.83,80.37 0.17,8.43 1.11,17.13 -0.56,25.24 -1.96,9.54 -5.1,19.33 -10.04,27.61 -5.59,9.39 -14.85,16.63 -26.57,13.83 -11.08,-2.65 -10.26,-14.13 -11.86,-22.78 -1.37,-7.47 -0.97,-15.28 -1.35,-22.93 -1.49,-44.87 11.71,-84.67 39.69,-119.47 2.39,-2.97 4.36,-6.33 7.03,-9.01 6.24,-6.22 20.38,-7.21 27.18,-1.85 7.93,6.25 4.11,13.68 1.4,20.79zm-163.14 83.3c-17.85,27.89 -39.15,32.4 -62.21,12.94 -10.22,-8.64 -18.71,-19.4 -27.69,-28.91 11.96,-31.14 28.69,-33.07 56.35,-17.04 5.14,2.97 9.56,7.44 13.79,11.74 6.89,6.96 13.35,14.33 19.76,21.28zm-403.32 -53.24c-3.22,0.72 -6.74,2.06 -10.29,2.22 -33.61,1.63 -51.54,-22.81 -40.43,-55.37 3.14,-9.2 10.24,-9.81 18.43,-6.64 24.42,9.42 33.87,26.42 32.29,59.8zm-167.89 50.06c-19.68,-4.06 -36.43,-13.96 -48.22,-30.56 -10.24,-14.41 -7.42,-31.2 -0.85,-46.1 6.8,-15.46 17.39,-16.99 31.32,-6.99 29.22,20.97 35.59,49.17 17.75,83.64zm-286.74 -70.41c-3.35,30.31 -17.32,32.92 -42.4,33.29 -9.42,-0.97 -20.42,1.61 -25.9,-11.79 -5.26,-12.8 -1,-22.32 7.4,-30.97 8.43,-8.68 17.32,-16.93 26.24,-25.12 8.94,-8.22 18.01,-8.76 28.67,-1.89 10.21,6.6 11.85,14.85 8.89,25.44 -1.03,3.68 -2.48,7.3 -2.89,11.04zm-194.03 110.93c-25.94,3.08 -37.75,-3.82 -47.17,-27.58 -5.46,-13.81 8.48,-38.11 25.03,-39.72 12.39,-1.22 25.54,1.07 37.79,4.1 13,3.21 10.04,15.08 9.67,26.06 -0.4,4.15 -0.59,9.56 -1.5,14.82 -2.76,16.1 -7.48,20.39 -23.82,22.33zm90.86 -243.33c-9.31,35.03 -27.64,64.68 -55.87,87.31 -23.68,18.96 -39.71,18.47 -63.14,-0.39 -8.89,-7.15 -17.72,-14.4 -26.47,-21.75 -17.29,-14.54 -37.2,-19.79 -59.37,-17.74 -9.8,0.92 -19.67,1.93 -29.48,1.78 -15.6,-0.25 -22.57,-6.31 -22.83,-22.18 -0.21,-12.89 1.28,-26.17 4.31,-38.69 17.37,-71.61 39.82,-141.52 72.29,-207.74 6.36,-13 13.39,-26.18 22.68,-37.02 8.67,-10.11 19.67,-19.64 31.57,-25.15 25.92,-11.97 43.83,0.28 46.52,29.43 0.21,2.25 0.32,4.5 0.54,7.64 14.54,6.96 29.32,14.06 43.57,20.89 -1.76,43.98 -33.08,57.44 -67,72.37 10.72,8.82 20.07,15.83 28.61,23.75 8.04,7.44 19.7,13.91 14.11,28.14 -3.26,8.33 -17.22,9.13 -32.97,2.3 -7.65,-3.3 -14.78,-8.08 -22.65,-10.58 -8.11,-2.59 -16.85,-3.22 -29.81,-5.48 2.5,10.86 2.58,17.85 5.57,23.15 12.53,22.18 28.36,39.47 56.86,38.75 16.63,-0.43 33.38,0.86 49.93,2.71 31.67,3.53 41.28,17.53 33.06,48.5zm914.4 -66.18c19.76,23.83 14.5,51.37 -13.11,66.97 -12.46,-9.46 -20.97,-22.15 -17.86,-38.25 3.13,-16.09 15.36,-25.17 30.97,-28.72zm296.47 8.29c-23.11,17.76 -50.15,26.44 -79.24,34.93 -14.72,-42.29 9.2,-70.79 25.42,-105.03 7.35,6.44 14.65,11.35 20.02,17.87 8.86,10.78 18.59,16.33 33.18,15.53 14.7,-0.82 18.82,6.64 12.56,20.28 -2.8,6.09 -6.78,12.46 -11.93,16.42zm414.72 -37.18c-7.29,25 -14.83,31.61 -45.99,38.42 -0.78,-10.11 -2.11,-18.18 -1.86,-26.18 1,-33.04 10.14,-37.94 38.22,-20.71 3.69,2.28 6.64,5.81 9.63,8.47zm100.83 177.7c-9.89,29.09 -26.87,51.21 -60.46,53.94 -10.24,0.83 -20.39,2.79 -32.21,4.46 8.33,-56.03 39.08,-103.57 39,-159.03 38.68,10.99 66.43,63.04 53.67,100.63zm-155.47 -1.04c-11.48,7.99 -30.46,5.15 -49.11,-8.15 16.1,-24.24 42.06,-29.33 66.24,-39.22 4.86,21.33 -1.04,36.18 -17.13,47.37zm-316.58 -61.83c-12.78,3.36 -26.48,3.18 -40.15,4.59 -9.79,-29.43 -7.44,-35.25 15.02,-45.28 3.46,-1.54 6.96,-2.97 10.47,-4.35 20.13,-7.89 25.86,-5.98 32.04,10.53 5.1,13.62 -2.25,30.51 -17.37,34.5zm-262.48 98.46c-27.85,-15.87 -31.22,-26 -16.43,-52.24 4.7,-8.33 10.82,-15.86 17.78,-25.93 19.47,26.82 18.24,49.97 -1.35,78.17zm-812.11 -127.29c4.41,15.36 -0.41,21.61 -15.87,21.89 -1.51,0.03 -3.03,-0.06 -4.54,-0.14 -36.44,-2.21 -48.1,-27.24 -27.82,-59.69 24.4,1.82 41.29,13.65 48.23,37.94zm92.52 71.86c-0.86,16.32 -9.83,24.91 -25.47,26.48 -16.61,1.67 -27.98,-12.44 -21.18,-27.63 7.91,-17.64 17.24,-34.64 44.96,-30.04 0.64,10.36 2.22,20.82 1.69,31.18zm716.43 -211.91c-5.36,6.22 -11.86,11.44 -21.64,20.71 -7.82,-17.39 -14.86,-30.72 -19.83,-44.8 -4.58,-12.97 2.47,-24.67 16.17,-30.6 10.92,-4.72 19.35,-1.94 27.24,9 11.39,15.82 11.01,30.68 -1.93,45.69zm-437.36 46.46c-7.18,18.25 -26.18,13.47 -43.81,17.69 3.64,-21.56 6.67,-39.42 9.78,-57.89 7.71,-3.11 15.35,-6.21 23.36,-9.44 17.33,13.61 17.56,32.13 10.67,49.64zm-175.85 30.18c-8.54,5.39 -19.32,1.47 -23.79,-7.35 -14.46,-28.46 -28.61,-57.18 -40.61,-86.75 -5.28,-13 1.58,-25.49 13.68,-33.52 24.11,-16.01 47.98,-32.75 79.31,-28.04 11.47,1.74 20.44,-3.32 28.51,-11.06 6.58,-6.32 13.54,-12.26 20.4,-18.29 3.42,-3 6.76,-6.2 10.54,-8.68 12.64,-8.35 26.07,-13.04 40.4,-4.74 11.96,6.94 20.32,29.67 17.52,44.82 -2.03,10.96 -8.9,18.03 -18.74,21.1 -9.29,2.9 -19.15,4.36 -28.87,5.29 -19.59,1.87 -39.31,2.44 -58.88,4.53 -21.67,2.32 -40.19,18.46 -48.36,43 14.82,2.4 29.32,3.98 43.44,7.28 13.74,3.22 28.24,5.99 36.94,18.28 -0.24,2.82 0.2,5.14 -0.57,5.68 -23.5,16.36 -46.74,33.19 -70.93,48.44zm-98.04 -51.56c-0.85,6.89 -5.02,14.1 -9.68,19.38 -1.71,1.93 -9.56,-0.32 -13.79,-2.39 -5.75,-2.81 -10.71,-7.26 -18.07,-12.49 -6.54,26.21 -26.15,26.53 -46.35,30.11 -5.04,-12.79 -9.94,-25.26 -16.11,-40.94 30.75,-8.08 60.39,-14.02 91.25,-10.07 8.71,1.1 13.71,8.5 12.75,16.4zm1596.92 -2.19c-1.22,10.26 -7.79,13.65 -17.85,11.36 -25.72,-5.89 -33.5,-24.26 -21.02,-54.33 12.39,0.99 25.43,2.02 41.44,3.28 -0.87,14.53 -1.08,27.19 -2.58,39.69zm-5682.08 482.79c8.94,58.99 6.82,115.99 -19.68,170.76 -12.2,25.21 -16.57,52.75 -14.86,80.7 6.15,99.79 -10.72,197.25 -28.25,294.68 -2.97,16.59 -6.53,33.07 -9.94,49.57 -0.61,2.92 -1.91,5.69 -2.88,8.54 -0.78,0.11 -1.56,0.24 -2.33,0.35 -2.04,-30.56 -4.14,-61.1 -6.11,-91.65 -1.89,-29.08 -10.4,-55.46 -29.04,-78.33 -4.02,-4.91 -6.74,-12.06 -7.37,-18.44 -2.6,-25.93 -4.85,-51.93 -5.83,-77.97 -0.67,-17.74 -5.78,-32.76 -17.46,-46.07 -11.07,-12.61 -21.94,-25.52 -31.57,-39.24 -17.22,-24.54 -23.18,-49.61 -1.37,-75.61 6.76,-8.06 10.98,-18.32 16.14,-27.71 18.37,-33.53 21.96,-67.97 6.69,-103.87 -5.37,-12.65 -9.83,-25.75 -14.15,-38.83 -10.73,-32.57 -5.4,-62.28 17.44,-87.83 13.21,-14.78 26.75,-29.47 41.7,-42.37 26.82,-23.14 40.86,-52.63 47.07,-86.9 2.59,-14.32 5.49,-28.61 9.04,-42.71 1.79,-7.08 5.39,-13.68 7.82,-19.67 4.14,0 6.14,-0.64 7,0.1 23.96,20.4 40.86,45.14 41.52,77.87 0.28,13.64 -2.75,27.41 -4.86,41.03 -7.94,51.29 -6.43,102.63 1.31,153.63zm-170.52 -129.94c-9.61,4.44 -21.96,5.67 -32.6,4.35 -15.8,-1.96 -21.17,-10.22 -17.11,-25.76 4.37,-16.75 11.53,-32.76 17.32,-48.65 33.14,-5.7 53.43,6.91 68.92,31.97 -7.87,16.93 -20.06,30.48 -36.53,38.09zm-563.83 -756.19c12.96,28.43 7.28,50.21 -17.93,68.5 -6.71,4.87 -14.75,7.78 -21.86,12.13 -8.03,4.89 -14.5,1.24 -20.96,-3.04 -18.35,-12.15 -19.81,-26.94 -2.22,-40.26 16.74,-12.69 34.96,-23.4 52.74,-34.63 2.92,-1.83 6.93,-1.86 10.24,-2.69zm565.54 1508.1c-11.32,59.41 -25.52,118.29 -39.29,177.19 -3.47,14.82 -9.64,29.06 -15.35,43.24 -2.67,6.63 -7.21,12.48 -11.17,19.14 -10.21,-22.58 -20.37,-42.17 -27.87,-62.74 -4.9,-13.44 -7.98,-28.29 -8.33,-42.58 -2.15,-86.67 -3.12,-173.36 7.88,-259.63 2.11,-16.51 0.29,-31.93 -7.97,-46.64 -7.85,-14.01 -14.49,-28.71 -22.46,-42.64 -5.65,-9.85 -8.3,-19.93 -5.19,-30.78 7.13,-24.89 14.79,-49.63 22.97,-76.89 11.5,3.97 20.64,6.8 29.54,10.26 12.41,4.83 19.92,14.43 21.3,27.56 1.51,14.43 3.11,29.19 1.69,43.51 -4.28,43.1 6.03,80.89 29.83,117.43 24,36.81 32.74,79.85 24.43,123.56zm-427.6 -317.6c2.89,6.39 1.22,16.86 -2,23.67 -4.76,10.07 -12.8,18.56 -22.44,31.86 -10.94,-14 -19.3,-24.57 -27.53,-35.25 -7.92,-10.28 -14.9,-21.4 -23.69,-30.82 -13.02,-13.94 -29.08,-9.83 -36.58,7.68 -11.11,25.99 -21.93,52.17 -34.6,77.39 -10.56,21.01 -17.9,21.07 -33.08,3.42 -22.03,-25.6 -20.57,-60.43 3.21,-83.61 10.36,-10.09 20.8,-20.18 30.17,-31.2 5.28,-6.21 9.56,-13.87 12.24,-21.6 3.04,-8.8 0.71,-16.69 -9.83,-19.64 -4.36,-1.22 -8.72,-2.76 -12.75,-4.8 -24.94,-12.71 -30.04,-43.28 -10.25,-63.07 2.86,-2.86 7.82,-5.14 11.78,-5.08 14.03,0.18 36.4,18.58 40.48,32.68 1.71,5.85 2.18,12.07 3.82,17.94 4.39,15.7 11.79,27.41 30.44,28.8 44.28,3.29 64.42,35.93 80.63,71.63zm-26.97 -450.08c17.24,28.12 26.85,56.65 11.21,88.85 -9.32,19.22 -12.17,21.15 -33.01,16.24 -3.68,-0.87 -7.26,-2.57 -10.96,-2.86 -25.64,-2 -35.94,-18.82 -41.01,-43.15 15.19,-6.51 32.07,-10.3 44.4,-20 11.87,-9.36 19.06,-24.82 29.37,-39.07zm103.04 199.78c14.79,11.57 17.74,20.64 7.87,37.25 -12.08,20.36 -15.15,40.56 -9.13,63.4 2.24,8.44 1.46,18.47 -0.57,27.15 -3.57,15.3 -14.64,18.86 -27.1,9.26 -8.37,-6.46 -15.48,-14.58 -23.68,-21.31 -8.78,-7.19 -17.78,-14.25 -27.36,-20.26 -18.4,-11.57 -27.17,-27.97 -26.68,-49.69 -0.21,-27.97 7.21,-39.06 33.24,-47.21 12.22,-3.83 24.86,-6.5 37.46,-8.83 13.4,-2.48 25.44,2.02 35.94,10.24zm55.47 -673.54c-19.06,-11.65 -36.04,-8.13 -51.7,6.78 -3.25,3.1 -6.85,5.83 -14.32,12.18 0,-24.07 -1.04,-43.71 0.58,-63.13 0.54,-6.33 6.85,-13.78 12.54,-17.76 15.53,-10.87 32.06,-20.32 48.37,-30 3.13,-1.86 8.53,-4.3 10.46,-2.94 12.79,9.02 25.51,18.32 37.06,28.88 7.6,6.94 5.89,16.64 2.28,25.75 -4.79,12.08 -8.96,24.42 -13.94,36.4 -5.08,12.17 -8.56,13.42 -21.07,8.72 -3.54,-1.32 -7.04,-2.9 -10.26,-4.87zm105.67 298.24c9.47,21.47 7.37,43.59 4.06,65.61 -1.93,12.76 -7.26,15.68 -19.35,10.13 -12.26,-5.63 -25.17,-11.82 -34.69,-21.04 -12.33,-11.96 -25.02,-18.83 -44.14,-15.24 12.35,-48.68 50.78,-54.4 85.7,-66.19 3.14,10.15 4.93,18.82 8.43,26.74zm-184.3 1147.4c5.75,26.94 11.74,53.85 16.47,80.97 1.38,7.85 1.02,17.51 -2.41,24.36 -7.1,14.19 -14.97,28.89 -25.88,40.03 -14.07,14.36 -17.86,29.3 -13.24,47.98 1.6,6.49 1.94,13.31 3.03,21.08 -13.22,4.7 -21.78,-1.62 -29.43,-8.76 -14.68,-13.69 -20.58,-31.64 -22.87,-51.26 -4,-34.28 -7.63,-68.64 -12.89,-102.72 -2.74,-17.74 -5.06,-36.22 -24.87,-46.2 -4.83,-2.43 -5.64,-14.79 -6.71,-22.79 -3.64,-27.29 -4.92,-55.01 -10.17,-81.96 -7.35,-37.69 -24.79,-70.65 -53.14,-97.13 -8.36,-7.8 -15.86,-16.56 -24.35,-24.21 -19.87,-17.87 -24.1,-40.24 -11.8,-62.39 12.08,-21.78 27.79,-41.9 44.23,-60.67 11.77,-13.42 28.75,-13.07 44.2,-4.83 12.03,6.42 23.68,13.8 34.69,21.86 10.99,8.04 22.03,9.79 34.13,4.13 11.68,-5.49 23.08,-11.56 34.76,-17 7.26,-3.37 14.82,-6.07 25.42,-10.35 2.42,12.53 5.19,21.9 5.89,31.42 3.01,41.57 -1.02,82.69 -7.21,123.82 -9.78,64.9 -11.7,129.89 2.15,194.61zm527.91 -1224.72c-0.17,25.43 -11.64,35.23 -31.94,31.57 -29.94,-5.42 -50.18,-44.86 -37.86,-72.69 5.18,-11.71 14.15,-17.76 25.56,-20.2 4.61,-0.98 12.33,-0.39 14.54,2.59 14.02,18.86 25.02,39.47 29.71,58.74zm-158.3 -216.15c-2.07,26.86 -3.54,51.83 -6.25,76.68 -0.59,5.51 -4.67,11.48 -8.74,15.61 -11.21,11.33 -22.65,22.59 -35.25,32.24 -6.2,4.75 -14.97,7.32 -22.89,8.24 -15.58,1.8 -18.98,-1.21 -24.81,-16.79 -1.33,-3.57 -2.61,-7.17 -3.68,-10.82 -7.2,-24.39 -7.14,-24.31 16.06,-35.03 15.26,-7.06 24.36,-20.24 31.72,-34.67 15.53,-30.4 15.36,-30.48 53.83,-35.46zm474.17 343.82c-12.48,11.69 -22.17,26.51 -42.42,33.15 -3.07,-19 -7.09,-35.96 -8,-53.1 -0.37,-7.25 3.79,-17.54 9.38,-21.81 16.48,-12.58 35.64,-18.11 57.64,-13.72 1.96,22.01 -0.2,40.11 -16.6,55.47zm-429.47 -506.65c-5.36,9.35 -13.94,9.68 -23.53,4.5 -27.94,-15.11 -42.85,-45.11 -36.79,-75.76 0.57,-2.83 1.48,-6.43 3.52,-7.98 20.96,-16.1 43.09,-29.7 75.14,-33.82 0,27.61 2.07,51.29 -0.79,74.35 -1.68,13.47 -10.47,26.4 -17.54,38.72zm-69.43 862.4c3.17,15.93 -11.42,25.64 -23.5,33.59 -10.28,6.75 -19.57,4.82 -30.81,-5.27 -6.21,-5.56 -11.43,-12.19 -17.19,-18.25 -9.99,-10.48 -17.21,-21.76 -9.87,-36.87 7.68,-15.82 20.74,-23.7 39.08,-25.74 3.14,0.85 8.21,0.93 11.62,3.37 16.8,12.04 26.85,29.94 30.67,49.17zm301.93 -783.62c-0.57,12.71 1.6,23.98 10.24,34.03 4.36,5.04 7.04,11.71 9.79,17.96 1.46,3.35 3.35,8.76 1.83,10.83 -11.53,15.74 -13.7,37.96 -31.58,48.92 -7.14,4.36 -16.21,5.53 -27.58,9.17 -0.5,-11.25 -1.96,-18.75 -0.94,-25.89 5.01,-34.8 -10.33,-57.15 -40.79,-70.89 -3.22,-1.44 -6.11,-3.65 -13.35,-8.06 29.44,-4.5 42.52,-23.48 55.21,-43.24 4.04,-6.29 9.17,-12.39 15.1,-16.79 11.74,-8.72 20.37,-4.93 21.82,9.6 1.13,11.35 0.76,22.93 0.26,34.36zm328.36 554.89c-14.25,13.7 -30.81,24.54 -54.49,16.94 3.6,-25.61 17.14,-44.48 27.42,-64.43 6.53,-12.67 25.31,-8.46 29.39,6.36 3.76,13.61 9.96,29.32 -2.32,41.12zm-302.78 -343.72c-12.72,1.29 -24.92,-4.24 -35.58,-17.26 18.08,-18.08 40.57,-27.28 64.28,-40.11 3.87,23.78 -12.63,55.74 -28.7,57.37zm455.88 301.97c-8,-1.58 -17.06,-1.26 -23.78,-5.1 -20.96,-11.98 -23.69,-31.18 -7.9,-49.69 5.37,-6.32 11.9,-11.71 18.28,-17.06 13.36,-11.22 26.88,-6.75 40.11,0.43 12.64,6.85 15.56,17.83 12.43,31.22 -0.35,1.49 -0.43,3.03 -0.63,4.54 -3.97,31.99 -6.4,34.17 -38.51,35.65zm-95.76 -143.15c-22.33,0.49 -51.22,-20.1 -57.82,-41.4 -3.51,-11.33 -2,-21.49 8.91,-27.92 14.68,-8.68 28.46,-20.92 49.5,-14.42 1.46,6.07 2.26,12.87 4.78,18.94 3.06,7.37 5.91,16.69 11.81,20.63 12.56,8.39 8.75,19.06 5.53,28.36 -3.28,9.46 -11.65,15.59 -22.69,15.81zm-172.99 -251.44c-2.33,16.11 -3.67,27.47 -5.68,38.71 -2.01,11.24 -9.42,16.69 -20.37,18.22 -9.96,1.39 -16.5,-1.74 -22.92,-10.35 -6.51,-8.74 -16.25,-15.14 -24.98,-22.03 -8.26,-6.51 -18.09,-11.29 -25.35,-18.72 -8.58,-8.75 -7.98,-17.07 3.09,-22.29 27.94,-13.2 33.87,-36.68 33.64,-64.22 -0.07,-8.59 0.18,-17.17 10.74,-20.09 10.28,-2.86 20.06,-2.1 26.47,7.25 5.51,8.02 11.56,16.7 13.61,25.93 5.28,23.74 8.46,47.94 11.76,67.6zm22.37 103.93c25.65,-0.43 44.58,21.51 41.13,43.24 -1.07,6.72 -3.39,13.4 -6.14,19.67 -8.1,18.43 -28.79,20.97 -39.02,4.01 -8.22,-13.64 -14.59,-28.61 -20.11,-43.62 -1.47,-4 1.69,-12.39 5.36,-15.1 6.43,-4.72 14.9,-6.63 18.78,-8.19zm380.93 258.18c-7.21,9.26 -11.1,21.18 -17.42,33.86 -12.81,-18.82 -26.14,-35.35 -14.82,-57.71 15.28,-30.15 35.56,-40.71 69.65,-36.63 5.26,15.63 -1.38,26.75 -10.47,36.22 -8.36,8.72 -19.61,14.86 -26.94,24.25zm-292.2 -418.4c-20.48,10.37 -21.29,11.92 -17.76,34.22 4.25,27.03 4.25,27.03 -10.39,45.19 -32.5,-28.33 -36.83,-50.14 -15.75,-84.21 7.18,-11.63 6.81,-22.89 5.17,-35.11 -1.4,-10.39 -5.59,-21.52 5.04,-29.61 8.08,-6.14 27.22,-3.59 38.53,4.61 19.1,13.82 16.08,54.3 -4.83,64.9zm211.47 164.63c-4.17,24.26 -15.8,42.83 -44.09,52.18 -6.52,-15.85 -13.44,-30.29 -18.43,-45.41 -6.11,-18.56 9.57,-27.64 19.44,-38.28 8.17,-8.79 20.43,-8.28 31.33,-1.02 11.75,7.83 13.96,19.74 11.75,32.52zm-90.69 -135.64c-14.31,18.68 -31.26,33.43 -58.89,37.19 -3.63,-9.24 -7.26,-17.54 -10.15,-26.11 -6.98,-20.74 -4.75,-28.31 11.02,-42.57 6.76,-6.11 13.67,-12.28 19.3,-19.39 6.32,-7.97 12.96,-12.51 23.36,-9.44 11.44,3.38 21.33,8.39 24.39,21.38 3.39,14.46 -0.22,27.43 -9.03,38.94zm417.83 134.93c5.78,51.83 -31.57,64.17 -60.35,83.36 -23.79,-16.86 -25.29,-18.22 -12.37,-38.85 9.14,-14.61 20.83,-29.01 34.71,-38.62 9.22,-6.38 24.28,-4.11 38.02,-5.89zm-150.91 -87.53c9.81,6.94 17.39,14.01 13.37,28.32 -1.26,4.54 2.65,11.1 5.33,16.13 3.57,6.65 8.76,12.43 12.32,19.09 4.38,8.24 2.75,16.56 -3.09,23.47 -6.07,7.18 -14.1,9.32 -22.38,4.39 -14.64,-8.72 -27.61,-3.44 -40.5,3.87 -11.57,6.59 -23.04,13.36 -38.89,22.57 3,-21.15 5.29,-37.31 7.68,-54.25l18.91 0c2.92,-30.2 -13.5,-61.5 2.54,-93.59 5.5,2.96 10.82,5.2 15.44,8.43 9.93,6.93 19.39,14.56 29.26,21.56zm-207.59 -324.33c6.23,9.06 10.26,19.83 13.98,30.32 0.56,1.56 -5.37,6.83 -9.13,8.36 -21.65,8.9 -43.56,17.19 -66.67,26.19 -11.5,-22.43 -10.75,-29.94 5.5,-42.93 10.65,-8.51 22.15,-16.01 33.69,-23.28 7.49,-4.7 16.91,-6.94 22.61,1.33zm-335.96 713.17c1.21,7.5 0.93,15.22 1.57,27.36 -1.49,10 -2.38,24.67 -6.17,38.5 -2.51,9.13 -7.78,18.52 -14.36,25.2 -11.36,11.53 -22.32,9.76 -32.21,-3.2 -4.58,-6.01 -8.61,-12.53 -12.47,-19.07 -8.07,-13.71 -9.1,-28.25 0.72,-40.88 11.1,-14.25 22.94,-28.41 36.7,-39.9 13.68,-11.44 23.3,-6.25 26.22,11.99zm-51.54 -718.47c25.8,37.12 19.19,81.09 -15.04,105.25 -11.61,8.19 -23.65,8.75 -37.43,-0.33 0,-14.3 -0.44,-29.44 0.26,-44.53 0.22,-4.96 2.24,-10.98 5.56,-14.43 15.09,-15.69 30.96,-30.64 46.65,-45.96zm563.61 112.28c-9.72,13.43 -19.82,26.6 -30.5,40.87 -15.78,-12.69 -21.94,-28.62 -25.29,-45.64 -0.85,-4.35 1.57,-11.08 4.83,-14.17 9.72,-9.17 20.61,-17.04 32.47,-26.58 7.22,8.04 13,13.8 18,20.18 6.33,8.1 6.52,16.99 0.49,25.33zm185.75 -47.33c3.24,54.25 -34.03,85.25 -81.53,67.81 -7.18,-46.96 -6.64,-47.86 36.18,-61.64 29.54,-9.5 29.6,-9.5 45.35,-6.17zm61.08 226.24c14.46,30.92 0.85,65.31 -32.8,75.56 0,-14.43 -0.57,-28.02 0.13,-41.53 1.28,-24.86 6.51,-29.96 32.68,-34.03zm356.56 181.68c-6.46,8.91 -15.7,15.75 -23.83,23.7 -4.94,-2.82 -6.6,-3.25 -7.46,-4.32 -28.39,-35.6 -24.69,-59.04 13,-84.46 7.74,-5.21 13.39,-4.39 19,3.49 13.46,18.85 14.1,41.21 -0.7,61.59zm-53.28 -118.75c-6.04,13.46 -32.64,21.46 -53.31,17.17 -8.04,-1.67 -24.14,-20.58 -24.72,-30.6 -0.24,-3.94 1.75,-10.61 4.47,-11.75 22.17,-9.26 38.79,-25.52 56.97,-49.14 5.51,11.39 9.22,16.96 10.94,23.11 3.09,11.01 5.53,22.31 7.14,33.64 0.82,5.72 0.78,12.49 -1.5,17.57zm-196.37 -284.92c-2.17,8.1 -4.42,16.22 -7.33,24.07 -11.94,32.18 -20.64,37.53 -58.72,35.25 -3.88,-17.04 -8.47,-34.67 -11.72,-52.53 -2.44,-13.47 3.11,-23.92 15.7,-29.92 7.51,-3.58 15.18,-6.83 22.62,-10.57 11.65,-5.85 21.1,-3.28 31,5.12 9.67,8.2 11.46,17.39 8.46,28.57zm137.65 109.04c-21.92,3.47 -44.31,3.8 -68.67,5.75 -19.42,-68.01 -12.26,-89.5 33.71,-123.79 23.63,-17.63 45.1,-38.22 68.65,-55.94 21.93,-16.51 37.57,-11.48 49.04,13.35 26.8,57.97 -20.56,150.76 -82.73,160.64zm152.15 52.06c-3.33,-2.61 -6.06,-4.15 -8.01,-6.38 -9.61,-10.86 -21.29,-22.11 -16.32,-37.97 4.61,-14.75 20.26,-17.32 32.98,-21.51 12.32,-4.07 16.13,-1.42 20.39,10.69 8.26,23.43 0.89,37.99 -29.04,55.17zm172.91 126.57c-4.17,11.42 -25.56,17.68 -37.7,12.63 -11.36,-4.74 -15.42,-15.39 -11.68,-30.67 6.7,-27.33 16.94,-32.65 55.7,-27.53 3.21,16.87 -1.2,31.53 -6.32,45.57zm215.96 -45.98c-5.53,-2.5 -11.89,-4.86 -17.74,-8.14 -13.82,-7.75 -16.96,-15.17 -14.72,-29.91 2.03,-13.33 10.78,-17.03 22.35,-17.71 6.64,-0.37 13.25,-1.12 19.33,-1.65 18.41,34.87 17.63,39.72 -9.22,57.4zm-109.94 -62.53c-1.48,12.57 -5.71,21.21 -15.43,26.15 -13.42,6.83 -27.04,13.39 -41.07,18.75 -3.79,1.44 -12.43,-0.51 -13.56,-3.18 -4.94,-11.69 -11.6,-24.44 -10.89,-36.4 1.7,-29.13 44.7,-49.49 67.18,-32.15 7.17,5.53 9.32,17.7 13.76,26.83zm11.15 -56.26c-6.49,-11.72 -12.79,-20.28 -16.14,-29.89 -3.82,-10.97 -10.28,-15.93 -21.22,-17.42 -8.19,-1.13 -16.47,-3.04 -24.22,-5.96 -20.94,-7.91 -24.44,-19.94 -8,-35.68 10.58,-10.11 24.58,-17.7 38.35,-23 18.25,-7.02 37.85,-10.43 56.71,-15.92 21.5,-6.25 27.15,-2.79 30.15,19.71 0.4,3.03 0.85,6.17 0.51,9.17 -1.75,15.96 4.49,26.63 19.72,31.75 2.12,0.72 4.67,1.61 5.92,3.28 3.43,4.56 8.15,9.41 8.59,14.47 0.24,2.72 -6.9,7.18 -11.43,8.96 -5.53,2.18 -11.81,2.54 -17.79,3.42 -18.58,2.69 -35.14,9 -46.91,24.98 -2.57,3.52 -6.72,5.83 -14.25,12.13zm285.58 54.15c0.79,14.47 -22.1,36.86 -37.47,32.48 -25.39,-7.21 -49.48,0.46 -76.93,1.6 -2.81,-21.25 0.72,-39.64 9.37,-56.96 7.19,-14.37 13.24,-16.62 29.42,-15.25 11.89,1.01 23.87,1.18 35.81,1.04 18.72,-0.22 38.78,18.17 39.8,37.09zm93.78 -34.2c-5.97,4.36 -15.58,6.63 -22.94,5.54 -27.22,-3.97 -53.96,-9.72 -69.22,-37.44 -5.26,-9.56 -14.9,-10.24 -24,-5.85 -8.17,3.93 -15.82,9 -23.44,13.94 -21.09,13.68 -26.91,12.5 -43.59,-11.22 7.61,-5.11 14.08,-8.93 20,-13.5 19.5,-15.07 22.82,-31.1 9.43,-51.85 -6.97,-10.82 -16.17,-20.18 -24.46,-30.13 -4.39,-5.26 -9.26,-10.13 -13.43,-15.57 -5.75,-7.53 -4.69,-14.43 3.67,-19.14 14.94,-8.39 30.92,-12.59 48.08,-9.94 12.53,1.93 21.04,9.29 23.21,21.96 3.48,20.33 14.48,33.25 34.07,38.58 11.85,3.22 14.97,11.68 14.1,22.81 -0.18,2.29 -0.47,4.58 -0.56,6.87 -0.83,23.72 2.96,27.32 25.87,24.42 6.02,-0.75 11.96,-2.24 17.99,-2.56 12.36,-0.65 24.65,-0.44 31.01,13.39 7.11,15.52 5.18,41.65 -5.78,49.68zm69.82 -92.35c-4.43,15.35 -18.02,10.43 -26.08,10.87 -4.28,0 -5.79,0.03 -7.32,0 -9.75,-0.22 -21.1,1.72 -25.09,-10.5 -3.83,-11.72 -5.01,-23.8 3.07,-35.09 13.24,-18.47 32.82,-26.28 53.43,-18.91 4.28,1.53 9.59,8.85 9.26,13.1 -1.03,13.64 -3.48,27.39 -7.28,40.53zm-35.79 -123.07c-3.44,13.13 -7.96,25.97 -12.36,40.17 -6.21,-1.58 -8.53,-1.81 -10.52,-2.74 -37.3,-17.33 -42.3,-26.11 -38.68,-67.54 1.91,-21.93 23.4,-32.96 40.47,-19.53 15.44,12.17 26.79,27.81 21.08,49.64zm1059.82 61.63c1.08,22.43 -15.52,34.74 -30.37,46.61 -2.71,-0.58 -4.59,-0.4 -5.53,-1.26 -36.75,-33.21 -40.92,-40.01 7.64,-80 15.47,6.32 27.43,17.24 28.26,34.65zm18.4 248.28c-2.3,5.98 -5.21,18.01 -11.26,28.09 -7.63,12.71 -22.19,13.26 -32.6,2.57 -7.91,-8.14 -18.72,-19.13 -13.3,-29.21 6.69,-12.46 18.92,-23.56 31.3,-30.74 11.21,-6.51 25.35,7.75 25.86,29.28zm-58.28 -64.21c-9.83,12.97 -6.17,37.87 -30.36,40.06 -10.31,0.93 -21.19,3.35 -29.68,-8.6 17.94,-37.24 46.14,-62.15 84.82,-75.58 16.06,31.39 8.18,45.25 -24.78,44.13zm-454.65 -25.6c-21.36,-2.79 -28.65,4.78 -25.32,26.72 1.06,6.97 3.24,13.75 4.76,20.65 1.89,8.5 -0.53,15.08 -8.6,19.06 -3.65,1.79 -7.14,4 -10.89,5.54 -23.56,9.63 -30.01,5.28 -30.68,-20.48 -0.03,-0.59 -0.04,-1.18 -0.04,-1.77 -0.08,-22.3 -1.43,-29.9 -29.68,-18.37 -2.57,1.04 -4.86,2.82 -8.93,5.24 -6.76,-13.67 -5.83,-24.98 -0.09,-35.83 7.52,-14.2 19.25,-17.83 33.85,-11.28 16.89,7.6 21.32,5.82 25.39,-12.11 2.07,-9.13 2.41,-18.65 3.26,-28.03 1.89,-20.6 4.91,-24.21 23.94,-29.21 8.35,14.32 14.85,29.67 25.07,41.8 10.28,12.2 24.28,21.2 37.37,32.22 -12.97,8.22 -26.1,7.58 -39.43,5.85zm-59.53 -128.65c-4.04,23.08 -10.64,28.17 -32.06,22.97 -12.33,-2.98 -24.97,-5.32 -30.86,-19.8 -6.07,-14.91 -1.4,-29.42 14,-38.21 13.94,-7.96 25.75,-5.79 34.86,7.86 5.61,8.43 9.43,18.09 14.06,27.18zm670.17 161.47c-4.82,10.5 -9.48,21.07 -16.63,36.97 -4.59,-10.21 -7.85,-15 -8.79,-20.22 -0.96,-5.17 -0.42,-10.99 0.89,-16.15 9.79,-38.6 8.08,-76.9 1.56,-116.02 -2.72,-16.26 2.56,-34.25 6.04,-51.06 1.33,-6.44 7.83,-11.79 13.28,-19.46 24.24,31.08 26.92,73.76 63.88,96.67 9.26,-26.87 10.39,-55.46 34.61,-76.32 12.74,32 7.86,63.35 8.53,93.53 0.68,30.68 13.92,60.42 9.98,94.54 -25.97,-4.52 -40.64,-19.36 -53.33,-34.52 -27.68,-33.06 -43.18,-24.64 -60.02,12.03zm77.79 -262.97c24.36,22.46 19.78,45.61 -12.9,58.56 -27.15,-35.75 -33.83,-68.3 -16.81,-88.58 4.78,4.53 9.61,8.86 14.14,13.49 5.3,5.4 10.01,11.43 15.57,16.54zm201.56 217.44c3.85,44.81 -32.94,82.46 -79.5,83.14 0.47,-52.58 29.72,-74.25 79.5,-83.14zm-101.15 -17.57c-3.87,6.93 -9.43,8.97 -17.2,7.03 -13.41,-3.35 -21.93,-10.72 -21.78,-22.67 0.14,-11.29 2.67,-22.54 4.14,-33.8 1.85,-0.76 3.7,-1.53 5.54,-2.31 8.74,8.07 17.9,15.72 26.1,24.32 7.56,7.93 8.76,17.52 3.2,27.43zm70.2 -49.54c-20.22,-15.1 -21.56,-24.52 -4.78,-41.21 8.53,-8.48 18.02,-16.03 27.35,-23.67 2.73,-2.25 6.4,-3.33 11.07,-5.65 13.67,39.96 5.58,55.79 -33.64,70.53zm302.57 159.51c3.94,19.06 9.41,38.63 1.18,59.72 -35.39,-8.63 -48.9,-42.36 -36.96,-86.03 22.35,0.75 31.69,6.57 35.78,26.3zm-11.15 -149.87c-1.88,11.89 -15.91,21.89 -31.04,22.13 -13.63,0.22 -31.69,-20.93 -29.71,-34.83 0.21,-1.48 0.58,-3.06 1.29,-4.36 3.33,-6.06 39.43,-16.13 46.85,-13.17 6.93,2.76 14.2,20.2 12.61,30.24zm132.71 -43.96c-9.26,3.98 -16.04,1.14 -21.54,-9.02 10.63,-16.83 27.58,-26.11 46.03,-28.68 35.06,-4.86 70.53,-7.3 105.9,-9.08 14.94,-0.75 26.89,17.33 26.96,36.43 0.07,14.57 -7.25,22.39 -23.97,24.76 -23.6,3.36 -41.94,15.94 -57.76,33.01 -5.17,5.56 -8.93,12.72 -14.74,17.32 -5.86,4.63 -13.47,6.99 -23.46,11.88 0,-9.72 -0.25,-14.82 0.06,-19.88 0.68,-11.43 2.46,-22.86 2.3,-34.26 -0.35,-24.04 -10.63,-31.44 -33.5,-25.14 -2.17,0.61 -4.18,1.76 -6.28,2.65zm-55.71 -201.33c-3.88,19.74 -16.15,31.72 -29.65,42.93 -21.65,17.97 -21.06,31.7 2.43,48.04 7.44,5.19 15.72,9.15 23.54,13.83 9.64,5.76 13.63,13.94 10.15,25.21 -1.59,5.09 -2.61,10.39 -4.52,15.35 -11.97,31.13 -21.8,33.43 -46.48,11.13 -0.57,-0.52 -1.14,-1.02 -1.7,-1.54 -20.9,-19.78 -29.21,-25.26 -43.61,12.04 -1.31,3.39 -1.69,7.15 -3.06,13.2 -18.81,-5.7 -28.54,-16.68 -33.58,-31.85 -6.57,-19.82 0.48,-34.3 19.63,-42.43 22.14,-9.4 24.41,-15.22 11.28,-35.08 -6.68,-10.1 -15.29,-18.93 -23.29,-28.1 -17.57,-20.14 -18.26,-26.26 -5.97,-48.92 20.82,4.76 40.96,12.21 61.42,13.24 20.56,1.03 41.44,-4.35 63.42,-7.06zm262.39 207.07c-17.12,-2.07 -23.48,-13.56 -19.57,-33.75 1.13,-5.79 3.56,-11.3 4.76,-15.01l56.57 0c-1.59,11.14 -3.36,17.86 -3.33,24.57 0.08,22.53 -12.42,27.32 -38.43,24.2zm52.89 61.72c-16.03,1.4 -26.03,-9.86 -33.09,-27.86 5.57,-4.09 9.8,-9.12 15.06,-10.76 18.03,-5.59 36.25,-10.83 54.71,-14.62 15.54,-3.21 32.67,15.47 28.79,31.03 -1.07,4.32 -6.11,9.68 -10.29,10.78 -18.18,4.75 -36.57,9.81 -55.17,11.44zm-22.96 -137.58c-5.47,-4.06 -11.72,-7.26 -16.06,-12.21 -8.28,-9.42 -27.54,-11.15 -22.78,-29.92 7.24,-28.57 18.29,-38.17 44.78,-40.58 5.15,-0.47 10.36,-0.07 17.39,-0.07 5.19,18.33 9.69,34.41 14.32,50.43 2.82,9.82 -1.02,16.35 -9.75,20.3 -8.9,4.04 -17.96,7.76 -27.9,12.04zm444.82 292.9c-2.11,10.91 -2.13,24.71 -14.19,29.26 -11.14,4.22 -24.04,4.81 -34.43,-3.78 -3.13,-2.6 -5.54,-7.47 -6.09,-11.6 -1.93,-14.24 -2.89,-28.61 -4.42,-45.1 18.47,-4.19 32.59,0.54 46.18,6.97 9.82,4.65 15.08,13.31 12.96,24.24zm27.94 -234.89c-9.02,18.75 -59.63,29.4 -74.85,15.41 -6.63,-6.08 -12.74,-13.24 -17.26,-20.98 -2.74,-4.69 -4.38,-12.46 -2.46,-17.14 14.35,-34.82 36.47,-62.99 71.2,-79.26 1.87,-0.88 4.4,-0.33 7.56,-0.52 17.71,28.03 24.3,58.42 18.75,91.46 -0.63,3.74 -1.32,7.65 -2.93,11.03zm167.5 201.74c-25.78,-17.04 -29.06,-25.35 -21.99,-53.71 3.06,-12.26 6.14,-24.52 9.42,-37.59 21.29,5.49 33.91,17.13 36.5,36.09 3.13,22.72 -5.09,41.76 -23.93,55.21zm-40.2 -250.3c0.44,25.43 -12.96,39.72 -35.4,47.31 -4.19,1.43 -8.46,2.64 -15.8,4.9 -4.52,-14.04 -9.09,-25.4 -11.78,-37.19 -4.94,-21.61 14.92,-58.04 35.31,-66.39 18.29,-7.5 32.56,3.9 30.14,23.92 -1.11,9.13 -2.61,18.32 -2.46,27.46zm162.21 146.43c18.63,39.04 5.35,64.69 -32.75,65.72 -14.67,-27.06 -9.46,-37.86 32.75,-65.72zm111.09 -157.02c-35.5,-12.42 -61.99,-30.5 -83.42,-58.08 -7.44,7.18 -12.47,12.65 -18.13,17.36 -12.33,10.25 -21.65,9.28 -30.69,-3.6 -3.91,-5.54 -7.07,-11.93 -9.14,-18.4 -7.86,-24.56 -2.21,-31.24 22.54,-38.5 39.04,-11.43 68.61,7.57 95.31,30.18 19.28,16.33 21.29,42.58 23.53,71.04zm191.64 27.97c-25.53,35.1 -58.93,46.85 -99.54,34.37 -20.06,-6.17 -38.92,-16.33 -59.58,-25.22 16.69,-53.07 45.35,-85.28 92.83,-99.4 24.5,-7.28 58.72,7.47 76.8,34.97 10.67,16.22 7.18,30.93 -10.51,55.28zm82.8 52.93c39.18,22.89 43.25,31.61 26.17,65.04 -9.71,19.03 -22.07,36.68 -34.03,56.26 -38.88,-49.47 -36.28,-77.56 7.86,-121.3zm22.09 -82.94c8.69,17.48 -1.49,29.8 -12.22,44.06 -23.14,-15.96 -32.18,-37.37 -34.67,-63.08 22.87,-4.24 38.56,2.24 46.89,19.03zm-1007.85 20.12c-5.04,-14.37 -8.72,-29.24 -12.89,-43.9 -2.86,-10.08 -0.11,-17.97 9.21,-23.25 9.82,-5.59 16.07,0 20.68,7.51 6.11,9.93 15.43,13.58 25.64,17.32 21.86,7.99 38.26,35.97 33.48,58.07 -1.15,5.37 -7.65,11.08 -13.07,13.57 -5.85,2.69 -13.3,1.79 -16.07,2.07 -32.22,-0.89 -37.49,-4.33 -46.99,-31.39zm-255.97 254.52c-4.56,12.4 -15.93,14.47 -25.12,5.19 -7.71,-7.78 -13.91,-17.12 -21.89,-27.19 22.29,-14.06 29.47,-15.63 51.89,-12.53 4.18,12.03 -0.91,23.68 -4.88,34.53zm-155.36 -140.75c7.57,8 8.93,23.44 1.37,33.64 -6.67,8.97 -15.02,16.68 -23.98,26.44 -15.92,-10.2 -24.83,-21.68 -26.85,-37.82 -1.58,-12.65 4.29,-22.47 15.56,-27.39 10.68,-4.67 26.94,-2.21 33.91,5.12zm1725.69 88.57c-11.26,6.07 -21.35,-2.58 -31.03,-8.79 -6.26,-4.02 -13.11,-7.68 -20.21,-9.61 -9.97,-2.71 -15.87,-7.97 -17.68,-21.07 11.67,-6.03 22.06,-12.37 33.17,-16.93 20.72,-8.52 40.83,4.33 41.65,26.85 0.38,10.11 5.46,23.44 -5.9,29.56zm96.6 47.6c1.76,3.58 2.17,9.35 0.54,12.82 -3.18,6.75 -7.97,12.81 -12.59,18.75 -6.18,7.92 -13.74,9.2 -21.43,2.31 -8.3,-7.42 -16.17,-15.31 -25.91,-24.61 7.46,-7.15 12.89,-13.25 19.17,-18.25 16.08,-12.79 31.19,-9.47 40.24,8.99zm-3491 -312.13c-3.92,-0.64 -11.46,-1.44 -18.83,-3.1 -51.86,-11.57 -46.68,-19.08 -53.15,-65.46 -0.75,-5.39 3.57,-13.72 8.13,-17.22 11.4,-8.75 24.18,-15.72 36.64,-23 7.47,-4.37 14.07,-2.67 20.53,3.42 14.39,13.5 29.21,26.54 44.03,39.57 14.96,13.14 15.96,18.13 6.19,35.19 -1.9,3.32 -4.03,6.5 -5.89,9.83 -9.58,17.07 -15.53,20.72 -37.64,20.76zm476.42 -94.28c-19.29,28.22 -39.63,55.72 -59.74,83.36 -1.64,2.26 -4.76,3.44 -10.35,7.31 -10.74,-21.15 -15.71,-41.7 -18.52,-62.72 -1.24,-9.32 4.07,-15.98 13.31,-18.69 2.89,-0.85 5.87,-2.18 8.78,-2.06 27.37,1.15 38.71,-15.44 43.99,-39.57 2.28,-10.35 5.8,-20.4 9.28,-32.39 13.58,3.89 16.82,14.91 19.49,25.1 3.61,13.79 1.72,28.02 -6.24,39.67zm-212.75 -42.72c15.97,21.93 17.52,46.81 9.56,72.28 -2.25,7.18 -5.56,14.4 -9.96,20.43 -8.63,11.85 -18.75,12 -27.94,0.14 -5,-6.46 -9.76,-14.3 -11.24,-22.18 -13.22,-70.75 -4.24,-135.76 50.1,-188.22 3.19,-3.08 6.97,-5.53 12.4,-9.79 6.11,11.72 11.87,22.24 17.14,33 5.02,10.26 1.36,17.15 -8.44,22.33 -8.65,4.57 -17.76,9.25 -24.71,15.96 -22,21.25 -21.86,35.51 -6.9,56.06zm771.21 76.72c6.87,23.39 -9.48,51.06 -37.69,58.3 -1.72,-16.53 -4.52,-31.49 -4.52,-46.44 0.02,-15.28 25.37,-27.71 37.52,-19.24 2.21,1.56 3.89,4.67 4.69,7.39zm336.96 34.5c0.29,22.99 -13.47,36.77 -30.24,37.68 -11.52,0.63 -27.04,-13.03 -26.07,-26.54 1.08,-14.82 4.21,-30.36 10.42,-43.71 6.97,-15 23.97,-14.89 32.06,-0.54 6.93,12.29 11.04,26.22 13.83,33.11zm2034 25.14c-4.38,-6.22 -8.13,-15.43 -6.82,-22.28 0.81,-4.18 11.53,-6.82 18.11,-9.3 3.39,-1.28 7.46,-0.7 11.57,-0.97 4.18,0.44 8.7,0.76 13.17,1.43 18.04,2.69 27.91,19.19 21.87,36.43 -4.15,11.89 -27.5,18.54 -38.86,10.65 -6.82,-4.74 -14.4,-9.39 -19.04,-15.96zm-2540.18 -96.04c-0.63,24.63 -14.65,42.35 -36.03,45.49 -13.5,1.98 -20.33,-3.61 -19.49,-17.24 0.46,-7.5 2.22,-15.06 4.42,-22.26 5.76,-18.99 18.17,-26.42 37.68,-23.31 10.22,1.63 13.71,6.13 13.42,17.32zm-208.96 39.99c-8.29,13.72 -22.43,13.85 -36.43,11.15 -12.72,-2.46 -22.54,-8.17 -24.35,-22.9 -0.82,-6.68 -2.74,-13.24 -4.02,-19.22 27.4,-24.82 54.46,-29.99 87.6,-14.53 -7.94,16.11 -14.32,31.46 -22.81,45.5zm1478.74 -27.13c-3.18,2.94 -7.65,4.74 -11.85,6.24 -21.19,7.64 -33.06,4.67 -38.6,-9.35 -6.72,-17 2.25,-37.35 20.22,-43.99 9.56,-3.54 19.69,-5.46 32.94,-9.01 1.61,16.94 3.48,30.9 3.91,44.92 0.11,3.72 -3.53,8.32 -6.64,11.19zm-1051.14 -50.5c-26.76,-32.28 -25.21,-51.15 8.48,-74.82 7.15,8.54 14.03,16.56 20.71,24.74 11.17,13.67 10.97,24.28 -2.62,35.22 -7.94,6.39 -17.96,10.17 -26.57,14.86zm131.83 27.93c-13.17,2.85 -17.21,-10.07 -22.53,-18.71 -6.24,-10.15 -1.85,-19.15 5.76,-26.59 7.91,-7.75 19.91,-8.85 29.22,-3.02 2.54,1.6 4.5,4.1 6.96,5.83 6.85,4.85 13.82,9.51 20.94,14.39 -12.56,20.83 -26.68,25.14 -40.36,28.09zm829.08 -43.97c-11.17,5.97 -22.85,12.08 -35.04,14.64 -14.35,3.03 -28.8,-15.97 -24.53,-29.82 9.42,-30.39 30.74,-43.7 67.21,-39.54 0.26,13.64 1.21,27.8 0.42,41.87 -0.26,4.54 -4.11,10.74 -8.06,12.85zm-593.68 -16.07c-29.52,2.76 -51.78,-5.99 -65.43,-32.46 -4.54,-8.82 -9.7,-17.32 -14,-26.24 -11.72,-24.25 -11.61,-24.3 7.91,-47.44 14.54,8.52 29.99,16.46 44.26,26.14 27.83,18.87 36.06,45.5 27.25,80zm70.65 -80.08c-12.26,1.7 -20.14,-5.15 -25.88,-14.67 -9.82,-16.26 -9.43,-30.6 0.76,-42.35 3.46,-3.97 7.56,-7.52 11.78,-10.69 21.85,-16.42 26.03,-16.21 50.65,2.85 -1.44,11.75 -2.44,24.67 -4.76,37.33 -2.67,14.47 -16.06,25.22 -32.56,27.53zm429.47 33.29c-0.29,2.89 -2.03,5.74 -3.47,8.39 -4.89,8.94 -10.56,17.56 -22.32,16.04 -10.44,-1.33 -10.88,-11.29 -13.83,-18.9 -12.24,-31.59 -8.6,-61.33 12.07,-91.32 6.56,-0.33 15.3,-0.78 26.87,-1.36 5.94,31.19 3.5,59.18 0.68,87.15zm214.87 -4.15c-14.14,7.03 -40.35,-13.79 -38.72,-31.41 1.06,-11.62 6.15,-22.86 10.38,-37.53 13.79,5.13 23.17,7.92 31.93,12.04 10.22,4.79 17.43,12.47 15.99,25.11 -1.59,13.64 -7.21,25.61 -19.57,31.78zm304.56 -26.78c-0.72,10.94 -4.63,18.93 -17.94,18.57 -16.29,-0.43 -27.94,-6.28 -30.53,-18.37 -3.6,-16.92 3.14,-31.43 12.13,-45.15 8.47,-12.97 21,-12.81 39.07,-11.78 -0.94,20.5 -1.53,38.64 -2.72,56.74zm158.85 -82.13c-0.76,36.04 -31.71,71.88 -59.96,73.63 -7.33,0.44 -19.85,-5.33 -21.92,-11.18 -8.71,-24.54 -17.57,-49.85 -20.24,-75.53 -2.75,-26.46 49.75,-63.11 73.58,-52.89 8.44,3.62 16.58,13.89 19.7,22.94 5.47,15.85 6.94,33.09 8.83,43.03zm467.61 88.89c-26.44,-26.21 -23.98,-52.79 7.91,-70.37 18.5,36.67 16.96,49.25 -7.91,70.37zm-1464.79 57.71c-14.36,-4.79 -23.48,-19.39 -23.69,-37.92 -0.17,-13.98 4.68,-31.12 14.1,-48.71 36.07,4.24 46.43,17.64 40.61,51.26 -1.31,7.49 -2.65,15.04 -4.93,22.26 -4.28,13.5 -12.82,17.52 -26.09,13.1zm-4199.08 -33.43c23.78,26.48 12.29,44.71 -14.69,58.61 -5.17,2.67 -11.63,2.75 -20.61,4.71 -2.06,-17.19 -4.11,-32.19 -5.59,-47.26 -1.09,-11.15 3.46,-19.35 14.39,-22.93 10.17,-3.33 18.85,-1.64 26.5,6.87zm166.56 109.97c23.57,32.87 11.63,61.28 -27.17,67.03 -3.17,-27.02 11.47,-45.53 27.17,-67.03zm565.76 40.3c-0.71,20.99 -7.65,39.22 -25.57,51.31 -10.52,7.08 -21.78,13.04 -33.21,19.79 -18.37,-18.21 -19.58,-34.9 -8.76,-53.03 7.06,-11.82 13.48,-24.08 21.4,-35.26 8.29,-11.74 21.04,-15.61 31.89,-11.6 9.42,3.49 14.76,13.64 14.25,28.79zm-225.53 -122.07c-9.21,39.76 -21.97,47.78 -54.08,35.01 -0.37,-32.43 23.93,-48.9 54.08,-35.01zm-32.21 -112.43c21.94,21.86 19.83,52.68 -5.39,78.65 -29.06,-23.29 -21.13,-56.13 5.39,-78.65zm658.68 102.13c-4.25,3.75 -10.78,7.21 -16.08,6.94 -21.94,-1.1 -40.9,-10.33 -55.69,-26.72 -6.81,-7.53 -4.03,-16.11 3.08,-22.25 15.51,-13.4 31.3,-26.47 47.26,-39.32 8.54,-6.86 17.15,-6.54 23.01,3.56 6.79,11.68 12.67,23.92 17.39,32.97 -2.35,19.72 -6.98,34.25 -18.97,44.82zm233.15 161.83c2.02,23.04 0.71,24.15 -22.79,24.43 -1.52,0.03 -3.03,0 -6.69,0 -19.92,4 -35.47,-9.24 -50.78,-21.54 -11.13,-8.94 -10.68,-16.78 0.13,-26.78 17.3,-16.03 34.79,-31.89 52.78,-47.11 12.81,-10.86 22.65,-10.92 35.08,-2.26 16.28,11.33 17.64,19.04 4.91,35.22 -8.91,11.29 -13.91,23.28 -12.63,38.04zm331.03 -52.58c-35.19,13.72 -70.4,27.4 -105.63,41.08 -2.11,0.82 -4.28,1.54 -6.46,2.14 -36.35,10.02 -50.68,-0.17 -52.97,-37.61 -0.86,-14.04 2.98,-19.35 16.86,-22.39 4.4,-0.97 8.98,-1.35 13.5,-1.46 4.51,-0.11 9.06,0.43 13.58,0.68 20.8,1.23 40.06,-2.96 58.94,-12.78 13.09,-6.82 28.18,-10.4 42.79,-13.19 6.71,-1.3 16.04,0.74 21.26,4.96 6.46,5.21 12.53,13.79 13.96,21.79 1.67,9.33 -7.87,13.67 -15.85,16.78zm93.5 34.25c-12.01,18.56 -24.82,36.65 -38.53,53.96 -4.19,5.29 -12.22,7.46 -13.98,8.47 -20.22,1.53 -24.72,-9.19 -29.33,-20.09 -5.1,-12.03 -8.26,-25.31 3.58,-33.54 18.6,-12.94 38.65,-23.93 58.81,-34.35 7.8,-4.04 17.82,-1.07 21.78,7.08 2.31,4.75 0.79,13.64 -2.32,18.47zm170.65 -159.61c-12.1,30.39 -42.86,48.19 -78.02,43.5 -2.61,-10.79 -6.56,-22.31 -7.82,-34.11 -0.75,-7.07 0.52,-16.44 4.71,-21.56 13.97,-17.06 33.04,-26.92 54.9,-27.64 17.06,-0.57 32.36,24.38 26.22,39.81zm121.21 10.56c9.09,4.48 13.69,12.43 13.71,22.11 0.03,16.31 -3.86,31.81 -13.31,45.39 -8.48,12.22 -20.47,14.64 -36.48,10.15 0,9.15 0.83,15.25 -0.17,21.01 -2.59,14.94 -18.68,24.03 -32.98,19.56 -7.9,-2.46 -10.58,-8.37 -10.35,-15.76 0.97,-30.07 5.24,-59.51 21.07,-85.72 10.53,-17.47 40.6,-25.54 58.52,-16.74zm167.76 99.81c-4.13,13.74 -7.9,27.58 -12.49,41.15 -2.78,8.25 -9.09,10.64 -17.87,10.33 -35.56,-1.25 -52.87,-20.81 -50,-56.83 0.65,-8.29 4.81,-12.61 12.04,-14.37 12.43,-3.03 24.86,-6.6 37.5,-8.19 24.46,-3.1 28.86,1.57 30.82,27.92zm195.92 -110.82c-4.91,23.96 -9.56,48.02 -15.65,71.67 -3.58,13.85 -11.75,16.35 -23.99,9.75 -34.93,-18.83 -43.33,-58.28 -18.72,-89.3 6.58,-8.29 14.19,-15.74 22.48,-24.83 13.47,4.32 24.86,7.97 37.99,12.18 -0.72,7.4 -0.79,14.11 -2.11,20.54zm106.98 67c-13.76,17.61 -35.32,20.03 -55.08,20.99 -16.42,0.79 -25.97,-30.25 -13.5,-43.82 10.64,-11.57 23.03,-22.2 36.35,-30.37 16.64,-10.22 32.78,1.87 51.02,3.85 -1.75,20.82 -8.52,36.24 -18.78,49.36zm751.24 -0.5c-19.06,7.43 -30.67,3.49 -42.43,-13.86 -19.42,-28.65 -33.47,-59.47 -38.38,-96.02 29.82,-7.76 31.31,-6.5 44.07,16.74 5.31,9.65 13.32,18.32 21.68,25.57 13.07,11.32 22.08,25.01 27.79,41 5.03,14.14 1.31,21.07 -12.74,26.57zm-2563.33 -150.04c-9.57,13.72 -18.93,27.58 -28.2,41.5 -8.57,12.9 -11.75,14.79 -25.93,9.42 -8.26,-3.14 -16.67,-7.72 -23.07,-13.75 -24.74,-23.28 -18.97,-52.72 12.57,-64.29 11.21,-4.11 23.33,-5.67 34.85,-8.35 8,2.07 15.6,3.07 22.39,5.98 16.44,7.07 17.92,14.42 7.4,29.49zm114.47 1.36c-5.14,14.06 -12.08,27.41 -19.87,44.4 -12.28,-5.08 -21.68,-7.72 -29.74,-12.64 -10.6,-6.46 -11.33,-14.26 -2.15,-21.76 11.06,-9.04 22.94,-17.15 35.09,-24.64 3.82,-2.35 12.65,-3.46 13.91,-1.54 2.82,4.24 4.46,11.56 2.76,16.18zm609.1 -15.65c3.06,17.42 6.58,32.92 8.29,48.61 1.87,17.37 -16.56,30.03 -31.68,20.94 -15.44,-9.29 -29.24,-21.43 -34.22,-44.69 19.58,-8.24 35.33,-21.41 57.61,-24.86zm2164.43 59.03c-30.75,-17.24 -43.83,-45.99 -36.01,-71.54 4.4,-14.42 9.9,-18.54 23.29,-13.54 35.52,13.28 42.19,7.98 26,50.07 -4.26,11.06 -8.42,22.17 -13.28,35.02zm-1365.26 -97.26c32.91,44 27.59,76.36 -15.98,89.85 -14.96,-12.4 -15.14,-29.03 -16.33,-44.83 -0.35,-4.53 3.02,-10.08 6.1,-14.03 8.33,-10.65 17.43,-20.69 26.22,-30.98zm302.38 50.75c-13.61,7.53 -29.22,11.41 -44.1,16.49 -1.94,0.67 -4.56,0.01 -6.68,-0.64 -14.32,-4.42 -41.01,-42.97 -39.63,-58.68 0.41,-4.43 4.17,-10.6 7.99,-12.32 23.04,-10.41 46.48,-21.74 69.04,1.7 3.59,3.74 9.72,5.03 13.15,8.86 5.25,5.82 9.17,12.87 14.81,21.1 -5.37,9.14 -8.06,19.87 -14.58,23.48zm135 -40c10.56,15.75 8.48,25.75 -7.21,36.63 -4.24,2.94 -9.17,4.87 -18.26,9.58 -3.43,-18.01 -6.85,-32.8 -8.74,-47.79 -0.57,-4.54 2.01,-12.68 5.06,-13.76 4.68,-1.68 11.68,0.02 16.43,2.63 5.06,2.78 9.41,7.78 12.72,12.72zm272.72 47.06c-2.74,15.61 -9.54,20.13 -24.6,14.24 -22.4,-8.75 -44,-20.15 -64.78,-32.41 -10.82,-6.38 -14.57,-19.28 -15.36,-32.06 -1.64,-26.64 7.15,-49.93 23.72,-70.09 10,-12.18 18.33,-11.87 28.03,0.07 4.29,5.3 7.43,11.54 12.43,19.49 15.48,-2.26 30.18,-4.4 46.98,-6.86 1.83,9.04 5.15,16.46 4.44,23.44 -2.83,28.15 -5.97,56.35 -10.87,84.19zm105.15 -6.44c-14.52,-1.8 -32.54,-3.53 -50.42,-6.38 -14.76,-2.35 -18.37,-8.8 -11.19,-22.22 7.51,-14.03 18.9,-26.04 25.59,-40.36 14.22,-30.36 40.72,-35.42 69.15,-38.08 11.83,-1.11 19.04,4.69 21.13,15.93 5.22,28.29 -1,54.67 -16.17,78.53 -6.67,10.46 -17.64,13.24 -38.1,12.59zm432.57 -1.88c-17.47,7.26 -22.52,5.25 -34.28,-10.57 -8.32,-11.2 -8.07,-19.52 1.83,-32.86 3.57,-4.81 7.83,-9.26 12.43,-13.1 23.03,-19.24 30.4,-17.44 42,9.68 2.67,6.22 5.39,12.42 8.47,19.52 -2.5,4.57 -3.96,10.33 -7.63,13.3 -6.9,5.6 -14.67,10.63 -22.83,14.03zm258.72 -22.42c-14.28,17.09 -32.71,27.27 -54.43,30.78 -18.15,2.94 -25.47,-3.79 -20.56,-21.56 5.68,-20.52 14.51,-40.13 22.56,-61.68 6.01,0.96 8.94,1.43 11.87,1.89 23.93,3.72 27.85,1.56 38.4,-21.26 14.58,-31.52 56.47,-55.87 92.83,-52.44 -1.93,5.93 -2.82,11.92 -5.67,16.74 -5.42,9.19 -11.42,18.15 -18.13,26.43 -22.06,27.24 -44.42,54.21 -66.89,81.11zm-523.68 -92.64c6.29,23.46 -5.71,54.18 -25.32,66.22 -1.78,1.08 -4.24,1.06 -6.21,1.51 -22.67,-34.92 -22.21,-44.69 4.61,-81.13 5.67,1.02 12.54,1.25 18.57,3.68 3.57,1.43 7.32,5.89 8.35,9.71zm978.54 21.42c-4.83,26.33 -26.74,45.97 -53.25,47.68 -10.54,0.69 -19.92,-0.94 -24.48,-11.93 -4.74,-11.39 -10.82,-25.56 0.26,-34.1 22.48,-17.33 33.68,-42.06 48.4,-64.72 6.29,-9.68 16.17,-16.97 25.76,-26.72 11.52,19.65 18.46,36.15 10.78,56.39 -4.02,10.56 -5.42,22.17 -7.47,33.4zm-882.22 -19.94c-15.48,-14.96 -28.58,-32.74 -48.09,-42.69 -9.75,-4.97 -13.47,-17.52 -11.75,-29.68 1.57,-11.04 9.46,-16.4 18.67,-18.99 5.97,-1.68 12.07,-2.98 18.18,-3.86 20.46,-2.92 40.93,-5.67 61.42,-8.22 4.54,-0.57 9.19,-0.08 14.85,-0.08 0,4.43 0.54,7.46 -0.08,10.14 -4.42,19.02 -2.44,36.14 10.17,51.15 3.65,4.33 6.1,10.24 8.14,15.85 4.85,13.28 2.8,21.94 -8.18,29.46 -27.2,18.59 -40.6,18.87 -63.31,-3.07zm662.03 -4.6c-19.69,27.71 -32.26,40.33 -53.85,52.36 -10.06,-5.1 -13.53,-14.57 -10.28,-24.48 4.68,-14.28 9.04,-30.28 18.57,-40.97 17.36,-19.52 38.42,-35.68 56.81,-52.24 15.85,25.8 2.82,45.54 -11.25,65.33zm639.11 -81.47c7.7,22.9 -4.1,58.43 -27.28,80.37 -18.56,-9.82 -27.33,-27.06 -30.28,-46.92 -0.86,-5.89 4.64,-14.89 9.86,-19.13 13.68,-11.07 29.4,-18.17 47.7,-14.33zm-971.41 32.97c-23,-30.56 -52.51,-28.3 -83.87,-17.35 -2.08,0.74 -4.42,0.75 -8.57,1.41 3.49,-33.07 5.65,-35.82 33.28,-41.74 13.29,-2.83 26.64,-5.5 40.06,-7.6 10.53,-1.64 19.19,1.75 25.15,11.48 5.87,9.59 18.33,46.56 19.64,60.28 -7.61,7.13 -13.79,0.85 -20.22,-2.46 -1.99,-1.02 -4.15,-2.28 -5.46,-4.03zm112.29 -39.85c-9.28,-8.48 -17.3,-18.58 -24.75,-28.85 -5.28,-7.31 -7.81,-16.75 -13.46,-23.65 -4.46,-5.46 -11.8,-8.5 -19.36,-13.64 1.68,-18.79 2.83,-19.94 17.46,-17.86 0.75,0.1 1.49,0.33 2.22,0.46 41.76,7.37 41.75,7.37 52.5,50.12 1.68,6.65 4.32,13.2 4.91,19.93 0.42,4.85 -0.41,12.9 -3.19,14.24 -4.5,2.17 -13.04,2.26 -16.33,-0.75zm-3242.58 91.32c-6.5,5.72 -16.5,11.02 -24.61,10.61 -33.57,-1.67 -62.57,-15.79 -85.21,-40.88 -10.39,-11.5 -6.15,-24.64 4.74,-34.04 23.72,-20.5 47.87,-40.49 72.29,-60.13 13.07,-10.51 26.24,-10.03 35.21,5.42 10.39,17.87 19.37,36.61 26.61,50.46 -3.59,30.17 -10.69,52.39 -29.03,68.56zm961.94 -28.62c-7.92,5.41 -15.93,4.35 -22.71,-2.44 -3.74,-3.75 -7.63,-7.71 -10.14,-12.31 -11.6,-21.24 -29.6,-26.85 -51.94,-23.15 -3.5,0.59 -7.18,0.09 -10.61,0.09 -3.65,-28.86 -1.03,-33.59 22.59,-42.15 7,-2.54 14,-5.06 21.78,-7.86 2.74,5.11 4.57,9.22 6.98,12.96 9.03,13.93 16.82,16.71 32.68,13.47 7.04,-1.44 16.71,-4.39 21.17,-1.08 9.5,7.03 17.04,17.21 23.83,27.18 1.65,2.43 -1.32,10.58 -4.5,13.42 -9.06,8.07 -19.11,15.04 -29.14,21.89zm288.96 60.01c-11.39,39.87 -32.51,56.68 -64.75,54.68 -9.74,-0.61 -15.24,-4.86 -18.69,-13.64 -4.02,-10.17 -7.65,-20.31 -2.03,-30.82 1.2,-2.25 5.11,-4.85 7.28,-4.46 20.87,3.71 34.11,-7.72 45.17,-24.36 11.53,6.49 21.86,12.31 33.03,18.6zm254.5 3.49c-21.43,6.87 -43.65,11.19 -57.57,14.62 -28.87,0.13 -38.14,-9.8 -30,-28.65 9.53,-22.06 23.6,-42.18 36.65,-62.52 1.82,-2.82 9.82,-3.89 13.89,-2.51 26,8.75 42.94,27.65 52.56,52.96 4.32,11.35 -1.11,21.47 -15.53,26.1zm164.88 -32.52c-4.89,10.2 -11.14,19.79 -17.36,29.26 -5.44,8.29 -13.25,12.02 -27.25,8.18 -4.09,-17.43 -9.69,-34.87 -12.04,-52.74 -3.13,-23.81 5.25,-30.86 28.17,-26.86 3.7,0.64 7.46,1.17 11.04,2.28 21.46,6.65 27.29,19.33 17.44,39.87zm68.3 -56.63c-3.93,12.38 -9.36,14.33 -20.8,7.76 -14.22,-8.15 -28.54,-17.18 -40.2,-28.58 -12.07,-11.8 -10.62,-20.72 3.26,-29.92 16.91,-11.19 34.46,-21.87 52.92,-30.01 13.39,-5.9 20.74,0.67 20.78,19.98 -4.29,16.72 -9.08,39.09 -15.96,60.76zm154.22 -3.9c1.57,7.43 1.71,15.22 1.8,22.87 0.32,26.08 3.61,39.35 -38.21,53.17 -9.01,-17.78 -14.43,-36.76 -15.65,-56.71 -1.22,-20.03 26.68,-38.54 44.61,-29.74 3.43,1.68 6.61,6.5 7.44,10.4zm184.35 -32.51c-14.47,10.83 -31.17,18.61 -46.81,27.85 -8.17,4.83 -15.67,3.94 -23.19,-1.7 -7.96,-5.94 -9.97,-14.44 -6.63,-22.48 18.96,-45.53 43.72,-85.92 94.47,-101.2 3.58,-1.08 7.42,-1.54 11.17,-1.86 3.65,-0.31 7.36,-0.06 14.86,-0.06 -3.58,40.51 -12.04,75.61 -43.87,99.44zm129.71 89.79c1.86,13.14 -7.81,28.5 -21.97,33.71 -5.44,2 -11.46,2.37 -20.85,4.2 -3.21,-16.35 -6.42,-29.56 -8.25,-42.94 -1.39,-10.21 3.75,-15.91 14.5,-15.11 3,0.21 6.03,0.38 9,0.82 16.46,2.44 26.15,9.28 27.57,19.32zm420.26 -153.81c7.64,10.31 9.82,22.52 3.04,34.32 -9.48,16.5 -21.35,30.9 -40.93,41.71 -3.82,-13.69 -8.46,-25.63 -10.32,-38 -3.63,-24.21 9.82,-42.01 33.58,-44.83 4.68,-0.56 11.72,2.89 14.63,6.81zm-1379.21 -15.68c-10.72,26.14 -19.47,49.58 -44.97,66.74 -13.14,-18.1 -24.37,-33.61 -37.42,-51.58 27.17,-15.35 52.68,-15.89 82.39,-15.15zm1098.54 33.44c-22.36,35.63 -88.59,37.61 -137.21,19.11 1.06,-24.98 13.39,-44.21 31.94,-59.79 3.58,-3.01 9.85,-3.24 14.98,-3.79 6,-0.65 12.11,-0.11 18.18,-0.35 39.17,-1.58 54.17,7.72 72.1,44.82zm209.85 -35.15c-11.06,16.89 -36.03,22.64 -52.1,13.14 -16.89,-9.99 -18.76,-21.03 -4.93,-34.78 10.26,-10.21 21.19,-19.81 32.46,-28.89 8.71,-7.03 18.4,-12.8 30.33,-20.97 6.35,25.71 8.78,49.28 -5.76,71.5zm3608.51 9637.81l0 -94.68 -0.33 0 -18.85 10.16 -2.83 -11.15 23.67 -12.66 12.47 0 0 108.33 -14.13 0z"/>
 </g>
</svg>
