<?xml version="1.0" encoding="UTF-8"?>
<!DOCTYPE svg PUBLIC "-//W3C//DTD SVG 1.1//EN" "http://www.w3.org/Graphics/SVG/1.1/DTD/svg11.dtd">
<!-- Creator: CorelDRAW 2018 (64-Bit) -->
<svg xmlns="http://www.w3.org/2000/svg" xml:space="preserve" width="8.26772in" height="11.6929in" version="1.1" style="shape-rendering:geometricPrecision; text-rendering:geometricPrecision; image-rendering:optimizeQuality; fill-rule:evenodd; clip-rule:evenodd"
viewBox="0 0 8267.72 11692.91"
 xmlns:xlink="http://www.w3.org/1999/xlink">
 <defs>
  <style type="text/css">
   <![CDATA[
    .str0 {stroke:#373435;stroke-width:6.94;stroke-miterlimit:2.61313}
    .fil0 {fill:#2B2926}
   ]]>
  </style>
 </defs>
 <g id="Layer_x0020_1">
  <metadata id="CorelCorpID_0Corel-Layer"/>
  <path class="fil0 str0" d="M2759.51 9794.8c-36.71,5.93 -72.97,15.56 -109.85,19.19 -31.53,3.13 -63.65,0.5 -95.52,-0.28 -84.26,-2.06 -168.5,-4.96 -252.78,-6.46 -26.5,-0.47 -53.54,-0.21 -79.46,4.56 -28.13,5.15 -55.39,15.51 -82.78,24.41 -31.75,10.32 -62.98,22.33 -94.91,32.03 -22.67,6.89 -46.21,9.61 -69.7,3.04 -7.98,-2.22 -15.86,-5.13 -23.42,-8.57 -13.94,-6.35 -20.67,-17.53 -19.69,-33.19 1.67,-26.89 2.57,-53.94 20.13,-76.6 2.29,-2.97 3.86,-6.64 5.25,-10.19 5.65,-14.44 1.93,-22.82 -13.28,-24.43 -13.42,-1.42 -27.56,-1.42 -40.71,1.26 -48.67,9.96 -97.79,13.93 -147.21,12.53 -39.94,-1.15 -76.54,8.15 -110.97,28.44 -13.74,8.09 -28.36,14.72 -42.86,21.4 -30.13,13.86 -61.63,22.42 -94.92,19.93 -47.4,-3.54 -91.62,7.22 -135.15,25.41 -56.99,23.79 -116.07,33.98 -178.15,26.28 -92.89,-11.51 -145.72,-60.1 -162.79,-153.3 -13.49,-73.65 -10.94,-147.49 2.51,-220.56 10.86,-58.93 27.82,-116.71 38.6,-175.65 8.97,-49.07 12.68,-99.13 19.25,-148.68 1.41,-10.61 -3.04,-16.93 -9.85,-24.02 -31.24,-32.5 -61.74,-65.69 -92.79,-98.36 -11.04,-11.62 -22.37,-23.08 -34.51,-33.5 -16.22,-13.91 -32.91,-27.37 -50.17,-39.93 -36.48,-26.53 -60.17,-61.17 -74.25,-104.75 -23.28,-72.09 -57.85,-138.86 -101.28,-200.75 -11.44,-16.3 -22.19,-33.21 -34.54,-48.78 -40.28,-50.86 -60.79,-109.61 -68.25,-173.53 -7.83,-67.27 -15.04,-134.61 -22.33,-201.94 -0.82,-7.63 -0.56,-15.39 -0.56,-23.09 -0.39,-1960.11 -0.85,-3920.24 -0.89,-5880.35 0,-117.82 1.89,-235.68 5.46,-353.43 3.52,-115.47 10.9,-230.83 36.15,-343.97 7.68,-34.42 17.69,-68.56 29.71,-101.67 39.74,-109.46 115.09,-182.44 223.74,-220.74 60.58,-21.36 123.03,-33.41 186.44,-40.99 141.3,-16.93 283.3,-18.98 425.33,-18.85 911.38,0.87 1822.75,2.08 2734.11,3.18 793.67,0.96 1587.32,1.74 2380.97,3.04 129.86,0.22 259.74,1.76 389.57,4.6 91.82,2.02 183.83,4.25 274.87,17.89 34.35,5.14 68.67,13.06 101.76,23.68 48.53,15.58 74.22,51.18 76.47,103.29 0.97,22.29 2.63,44.61 2.54,66.9 -3.68,993.53 -6.96,1987.06 -11.61,2980.58 -2,426.67 -6.04,853.33 -10.74,1279.99 -3.15,286.47 -8.44,572.93 -14.1,859.37 -2.72,138.58 -7.35,277.17 -13.37,415.64 -2.89,66.03 -10.63,131.88 -17.18,197.7 -1.43,14.32 -6.32,28.54 -11.21,42.21 -9.81,27.36 -29.46,42.75 -58.47,43.19 -29.6,0.46 -59.35,1.25 -88.79,-1.17 -82.46,-6.75 -164.82,-14.88 -247.14,-23.18 -7.59,-0.76 -16.18,-5.17 -21.68,-10.61 -33.85,-33.47 -66.18,-68 -77.63,-117.13 -4.94,-21.22 -19.33,-36.46 -37.57,-47.46 -17.59,-10.62 -35.33,-21.09 -53.53,-30.59 -20.39,-10.64 -31.39,-25.78 -35.46,-49.7 -6,-35.28 -8.02,-70.03 -4.76,-105.64 1.94,-21.33 0.68,-43.07 -0.32,-64.56 -1.24,-26.64 -2.29,-52.52 21.47,-71.61 8.3,-6.67 7.56,-16.97 2.43,-25.38 -5.56,-9.08 -12,-17.96 -19.54,-25.37 -17.43,-17.14 -34.97,-34.33 -53.87,-49.75 -71.01,-57.88 -142.44,-115.25 -214.09,-172.35 -15.47,-12.33 -32.18,-23.17 -48.91,-33.74 -8.26,-5.22 -17.53,-9.72 -26.93,-12.04 -26.42,-6.5 -46.89,12.6 -43.85,39.81 0.98,8.82 7.36,19.11 -1.92,25.83 -9.56,6.93 -20.53,14.78 -31.6,16.1 -27.18,3.25 -52.63,-4.72 -74.51,-21.97 -14.39,-11.33 -28.29,-23.29 -42.31,-35.1 -55.72,-46.93 -119.81,-55.96 -188.76,-42.97 -7.24,1.36 -14.46,2.92 -21.76,4.39 -2.33,-4.47 -3.74,-7.13 -5.1,-9.79 -12.17,-23.83 -34.11,-34.08 -58.8,-24.47 -15.35,5.97 -30.1,14.76 -43.42,24.63 -50.29,37.24 -99.87,75.43 -149.75,113.24 -7.19,5.46 -14.59,10.68 -24.36,17.8 -2.22,-8.03 -4.72,-14.07 -5.53,-20.35 -17.28,-133.56 -34.8,-267.07 -51.36,-400.71 -15.15,-122.19 -29.78,-244.46 -43.67,-366.8 -13.44,-118.54 -25.94,-237.18 -38.33,-355.83 -11.92,-114.07 -23.29,-228.19 -34.68,-342.31 -11.39,-114.12 -21.28,-228.41 -34.03,-342.37 -17.42,-155.67 -17.78,-312.03 -22.25,-468.25 -2.67,-93.13 -5.85,-186.24 -9.18,-279.35 -0.68,-19.21 -2.92,-38.36 -4.82,-57.52 -1.32,-13.22 2.72,-24.02 12.02,-33.28 7.57,-7.56 14.44,-15.83 22,-23.4 13.42,-13.43 29.08,-21.24 48.54,-22.24 14.26,-0.74 28.46,-4.13 42.56,-6.96 10.97,-2.21 17.15,-9.08 17.04,-21.06 -0.53,-57.75 -0.72,-115.52 -1.58,-173.25 -0.36,-24.42 -13.72,-39.29 -35.76,-48.24 -56.61,-23.01 -115.28,-38.26 -175.22,-48.74 -94.86,-16.56 -190.53,-16.1 -286.24,-12.29 -111.74,4.46 -222.28,18.93 -331.26,44.67 -16.21,3.83 -32.1,9.15 -48,14.24 -17.04,5.46 -26.53,16.96 -26.52,35.74 0.03,30.02 -0.81,60.06 0,90.06 0.58,21.22 -0.32,40.64 -15.18,58.3 -11.44,13.59 -8.35,21.15 7.93,31.33 30.35,18.94 60.43,38.41 91.43,56.2 20,11.47 24.92,26.98 23.71,49.5 -10.2,191.46 -18.1,383.04 -29.25,574.44 -7.67,131.4 -19.35,262.57 -29.37,393.83 -8.04,105.17 -16.19,210.32 -24.53,315.46 -9.92,125.09 -20.22,250.15 -30.1,375.25 -8.29,105.15 -16.11,210.33 -24.33,315.47 -8.42,107.46 -17.18,214.89 -25.56,322.33 -6.76,86.74 -13.18,173.5 -19.76,260.24 -8.57,112.85 -17.39,225.68 -25.61,338.56 -5.48,75.25 -10.09,150.57 -15.15,225.85 -0.82,12.29 -2.28,24.54 -2.7,36.83 -1.1,30.97 -22.43,43.65 -46.91,52.48 -4.97,1.79 -13.44,-1.19 -18.18,-4.82 -27.89,-21.42 -49.9,-4.04 -55.64,23.13 -2.03,9.59 -4.48,19.11 -7.19,30.57 -11,-2.09 -18.65,-2.61 -25.65,-5.07 -22.36,-7.83 -37.67,4.76 -52.57,18.08 -7.43,6.65 -5.64,13.96 1.94,19.25 6.86,4.78 14.43,8.46 21.63,12.74 8.5,5.06 17.63,9.63 18.72,23.75 -15.76,13.72 -31.01,29.19 -56.58,24.3 -18.46,-3.53 -32.07,4.97 -41.71,22.8 6.67,8.3 13.17,16.37 20.54,25.53 -11.31,5.85 -18.15,-1.35 -25.96,-4.67 -12.44,-5.29 -24.82,-12.07 -37.89,-14.32 -21.02,-3.61 -32.79,4.7 -39.41,25.56 -5.18,16.35 -12.14,29.1 -30.46,33.72 -5.63,1.43 -10.61,9.82 -13.64,16.14 -3.18,6.63 -3.65,14.57 -6.08,25.35 -8.15,-7.79 -13.57,-13.97 -19.97,-18.82 -6.59,-4.97 -13.75,-9.68 -21.36,-12.6 -8.82,-3.39 -13.61,3.88 -18.42,10.06 -1.25,1.61 -3.93,3.04 -5.92,2.99 -19.14,-0.49 -26.26,12.44 -35.24,27.17 -14.9,24.49 -31.94,48.21 -57.69,65.57 -16.71,-27.87 -14.49,-55.21 -4.9,-82.89 2.25,-6.5 6.01,-12.44 8.65,-18.82 8.94,-21.54 8.79,-41.92 -7.86,-60.1 -2.03,-2.21 -3.49,-4.96 -5.54,-7.94 3.44,-14.83 14.31,-24.14 26.03,-30.3 36.58,-19.22 55.76,-53.46 75.81,-86.96 12.04,-20.11 18.11,-42.44 16.8,-66.17 -1.15,-20.72 -2.5,-41.5 -5.25,-62.06 -2.91,-21.78 -11.46,-42.08 -26.21,-58.03 -21.75,-23.49 -44.22,-46.57 -68.43,-67.36 -25.13,-21.6 -55.77,-30.61 -88.96,-29.48 -15.17,0.51 -30.36,0.82 -45.53,1.53 -11.76,0.56 -20.25,-4.2 -19.85,-16.57 1.51,-45.83 -25.13,-75.26 -55.35,-103.79 -18.82,-17.78 -36.65,-37.06 -52.35,-57.68 -35.29,-46.37 -77.69,-67.39 -134.94,-45.56 -21.96,8.37 -44.76,14.68 -66.15,24.31 -32.21,14.5 -50.37,40.86 -55.85,76.25 -2.22,14.44 -4.25,28.97 -7.61,43.15 -5.44,22.94 -11.82,27.22 -34.74,28.06 -26.48,0.96 -53,1.99 -79.39,4.25 -10.42,0.9 -20.42,6.09 -30.85,7.74 -18.09,2.85 -36.17,5.89 -47.9,-15.25 -5.54,-9.97 -14.13,-8.94 -24.97,-0.08 -11.57,9.44 -13.93,17.87 -6.44,27.35 11.72,14.82 28.06,20.17 46.15,21.52 9.35,0.69 18.63,2.17 28.69,3.37 -3.79,14.92 -14.14,17.67 -23.26,19.72 -18.47,4.15 -37.29,6.75 -56.03,9.58 -9.83,1.5 -19.74,2.21 -24.19,16.89 20.71,14.28 43.31,13.64 64.44,5.67 20.78,-7.83 39.74,-20.63 61.75,-29.1 -3.96,4.8 -7.36,10.22 -11.94,14.29 -23.44,20.75 -47.33,41.01 -70.78,61.76 -8.99,7.97 -17.02,17.04 -25.92,25.13 -3.82,3.46 -8.78,5.62 -13.15,8.48 -6.08,3.97 -12.11,8.04 -21.68,14.41 10.92,5.04 17.86,8.25 27.54,12.72 -6.46,7.33 -11.53,13.61 -17.13,19.36 -18.68,19.18 -37.69,38.01 -56.29,57.26 -25.78,26.68 -29.85,67.17 -9.25,97.37 4.57,6.68 11.22,12.82 18.28,16.58 10.2,5.44 18.6,-1.54 16.2,-13.06 -1.88,-8.97 -5.29,-17.69 -8.82,-26.18 -7.85,-18.87 -4.94,-36.21 6.65,-52.29 4.91,-6.81 10.24,-13.46 16.25,-19.25 22.57,-21.74 45.4,-43.2 68.35,-64.52 8.86,-8.22 18.9,-14.51 33.92,-17.86 -3.96,14.53 -12.89,21.52 -21.29,28.36 -11.82,9.64 -25.22,17.39 -36.41,27.69 -11.07,10.22 -20.9,22.1 -29.8,34.35 -2.78,3.8 -3,13.04 -0.29,16.46 2.89,3.65 10.78,5.04 16.19,4.47 13.07,-1.35 21.4,-10.64 28.39,-21.13 8.39,-12.59 16.78,-25.19 28.63,-36.04 -1.25,4.72 -1.67,9.9 -3.89,14.08 -12.65,23.67 -24.25,48.1 -39.02,70.35 -20.85,31.44 -32.62,65.26 -38.07,102.6 -9.35,64.11 -16.02,128.24 -15.18,193.15 0.47,36.17 -1.33,72.36 -1.54,108.54 -0.06,11.19 -4.83,19.15 -12.85,25.68 -13.01,10.61 -26.06,21.19 -39.4,31.36 -24.29,18.51 -48.13,37.74 -73.35,54.8 -54.43,36.85 -80.42,90.32 -91.02,153.6 -3.83,22.86 -7.36,45.57 -0.53,68.56 3.13,10.5 0.67,20.03 -8.18,26.87 -13.8,10.71 -20.03,25.47 -19.94,42.24 0.2,35.31 -1.71,71.13 3.46,105.78 6.26,41.97 29.74,73.67 72.04,87.18 2.17,0.69 4.21,1.78 6.32,2.64 21.5,8.72 22.72,10.42 19.74,34.42 -4.67,37.4 -9.89,74.75 -14.57,112.15 -5.78,46.06 -4.89,92.17 -0.82,138.32 1.3,14.86 4.79,30.37 -5.8,46.19 -9.78,-4.58 -18.9,-8.03 -27.19,-12.92 -26.78,-15.78 -55.39,-25.97 -86.37,-25.86 -85,0.35 -170.03,0.69 -254.99,3.11 -43.17,1.24 -86.33,5.92 -129.29,10.93 -30.29,3.53 -57.21,-2.08 -81.5,-20.71 -22,-16.87 -46.71,-20.46 -73.42,-16.14 -27.32,4.4 -47.37,18.18 -53.94,45.92 -6.52,27.5 -21.56,48.71 -40.39,68.28 -14.31,14.89 -28.97,29.59 -41.75,45.76 -8.83,11.2 -16.96,24 -21.48,37.43 -12.6,37.42 -18.31,76.18 -15.67,115.93 1.89,28.15 12.39,36.57 43.44,32.9 4.97,-39.36 34.14,-62.48 60.79,-87.58 32.25,-30.37 64.41,-60.86 96.09,-91.85 13.68,-13.37 29.12,-22.17 47.96,-24.04 73.39,-7.31 146.87,-11.64 220.5,-4.18 10.31,1.04 21.04,4.28 30.18,9.17 15.78,8.47 16.53,21.61 2.71,32.93 -6.43,5.26 -13.71,9.88 -21.25,13.28 -49.21,22.15 -98.37,44.46 -148.01,65.58 -28.97,12.32 -60.02,16.24 -91.24,17.83 -30.04,1.53 -58.36,9 -84.94,23.4 -13.57,7.36 -20.29,18.17 -18.06,33.92 3.43,24.33 -1.71,47.47 -9.29,70.28 -8.72,26.25 -17.72,52.41 -26.36,78.68 -9.1,27.72 -10.97,55.86 -2.24,84.02 8.42,27.07 16.86,54.17 26.67,80.74 4.56,12.32 13.31,22.24 26.61,26.92 13.87,4.86 17.44,4.24 23.41,-8.99 5.38,-11.86 9.99,-24.17 13.83,-36.61 7.94,-25.68 15.47,-51.5 22.61,-77.43 16.18,-58.81 49.1,-105.32 99.24,-138.96 48.57,-32.58 102.42,-53.65 157.63,-70.92 98.07,-30.67 197.5,-55.39 300.24,-63.19 27.24,-2.07 54.63,-1.92 81.94,-2.68 23.98,-0.67 46.72,-5 68.03,-25.64 -0.89,9.24 -0.06,15.32 -2.17,20.07 -9.35,20.94 -19.52,41.53 -29.5,62.2 -1.32,2.75 -3.02,5.4 -4.97,7.72 -45.11,53.36 -47.99,113.17 -29.49,178.03 18.32,64.28 34.32,129.26 49.75,194.33 12.75,53.83 23.94,108.08 34.18,162.48 3.2,17.03 1.51,35.11 1.12,52.7 -0.22,9.51 0.28,16.82 7.93,24.69 6.85,7.06 10.72,18.44 12.85,28.58 9.44,44.93 10.75,90.32 0.18,135.15 -5.61,23.83 -13.44,47.37 -22.93,69.91 -4.09,9.73 -13.68,18.53 -22.87,24.35 -27.53,17.4 -58.29,26.06 -90.63,27.48 -24.25,1.06 -48.58,0.13 -72.87,0.42 -20.14,0.25 -39.15,5.02 -55.87,16.89 -3.39,2.4 -5.76,6.29 -9.35,10.35 15.12,14.43 35.69,10.93 51.53,20.85 -1.92,11.44 -10.64,11.75 -18.67,12.25 -15.91,1.01 -32.04,0.21 -47.75,2.44 -59.28,8.46 -118.47,17.46 -177.58,27.01zm615.85 -489.03c-0.67,-1.83 1.47,-4.71 3.31,-9.68 3.86,4.52 6.7,6.75 7.79,9.65 0.41,1.11 -3.46,5.52 -4.97,5.31 -2.33,-0.32 -5.28,-2.94 -6.13,-5.28zm-9.5 118.57c0.5,-8.31 1.58,-16.57 2.64,-27.17 21.79,-1.62 40.25,-4.36 42.65,-28.78 13.47,-0.28 18.68,8.13 21.74,17.72 3.48,10.93 6.57,22.18 8.04,33.54 5.59,42.85 24.58,80.47 43.37,118.26 4.75,9.56 12.5,13.28 22.33,12.44 16.27,-1.41 23.52,7.71 26.54,22.17 4.25,20.29 9.61,40.43 12.28,60.93 3.76,29.13 -4.28,55.26 -26.44,75.13 -36.47,32.65 -80.65,50.29 -125.61,66.89 -9.96,-13.39 -7.35,-26.6 -6.24,-39.39 0.67,-7.63 2.59,-15.14 3.7,-22.74 1.68,-11.43 -1.2,-21.15 -10.11,-29 -19.94,-17.57 -26.01,-41.29 -25.82,-66.53 0.19,-25.35 2.68,-50.67 4.14,-76 2.25,-39.15 4.43,-78.32 6.78,-117.48zm-3167.64 -8689.96l0 10225.85c4.46,1.7 6.51,3 8.67,3.18 5.28,0.46 10.61,0.56 15.92,0.56 2614.94,-0.39 5228.43,0.36 7843.36,-0.09 0.65,0 1.35,-0.71 1.91,-1.2 0.54,-0.46 0.94,-1.07 1.42,-1.62 0.02,-3409.47 -23.63,-6820.11 -23.63,-10229.68 -3.17,-0.97 -5.25,-2.18 -7.32,-2.18 -2615,-0.18 -5204.89,-0.26 -7819.87,-0.31 -5.26,0 -10.53,0.86 -15.78,1.42 -0.67,0.07 -1.33,0.65 -1.91,1.11 -0.58,0.47 -1.06,1.11 -2.78,2.97zm4794.4 4122.67c-30.61,-16.6 -30.61,-16.6 -68.64,-19.82 18.78,-21.06 113.54,-42.3 148.33,-28.51 -11.62,2.22 -23.26,4.47 -34.9,6.65 -6.68,1.25 -13.46,2.08 -20.06,3.67 -20.54,4.93 -22.89,8.13 -22.99,29.71 -0.01,2.26 -0.19,4.53 -0.47,6.78 -0.07,0.56 -0.83,1.03 -1.28,1.53zm274.04 -634.63l-124 0c-1,-6.2 -2.47,-11.28 -2.53,-16.36 -0.23,-26.14 0.28,-52.29 -0.3,-78.42 -0.26,-11.96 2.75,-20.3 14,-26.07 16.19,-8.32 31.79,-17.88 47.37,-27.38 7.67,-4.67 13.52,-3.15 20.65,1.78 47.32,32.75 47.46,32.61 47.58,90.9 0.03,15.38 -0.11,30.75 -0.35,46.13 -0.03,2.19 -1.08,4.37 -2.43,9.42zm156.28 -229.93c-64.65,-3.43 -129.31,-6.86 -198.17,-10.51 24.9,-12.79 46.92,-20.68 71.67,-16.99 37.42,5.59 74.82,11.31 112.18,17.25 5.37,0.85 10.51,3.25 15.76,4.94 -0.48,1.76 -0.96,3.54 -1.44,5.3zm26.63 -123.7c-15.63,-0.07 -21.96,-9.91 -16.89,-21.72 8.06,-18.85 46,-40.4 66.02,-37.51 13.39,1.93 21.21,15.62 12.68,24.58 -17.58,18.5 -40.29,28.58 -61.8,34.65zm96.25 -187.81c-13.39,-1.25 -26.78,-2.5 -44.3,-4.14 18.89,-11.11 27.35,-10.67 44.3,4.14zm-1721.54 4669.85c0.8,-48.48 2.33,-97.04 0.79,-145.47 -2.44,-76.24 5.3,-150.53 30.65,-222.75 6.83,-19.49 9.68,-40.38 15.91,-60.11 5.75,-18.15 13.33,-35.75 20.72,-53.32 2.65,-6.3 6.79,-12.06 10.78,-17.65 29.61,-41.5 46.17,-88.03 52.75,-138.56 3.96,-30.35 8.28,-60.65 12.78,-93.57 6.94,-1.54 16.28,-3.6 26.64,-5.89 2.15,-13.43 4.26,-26.6 6.46,-40.19 24.64,9.75 30.36,33.26 11.91,48.76 -16.18,13.58 -16.31,30.09 -15.17,47.91 0.21,3.18 3.39,6.18 6.89,12.13 7.56,-7.58 13.58,-13.9 19.9,-19.89 8.72,-8.28 16.68,-17.93 26.68,-24.19 48.21,-30.18 58.49,-57.36 40.94,-112.51 -1.1,-3.46 -1.94,-7 -2.93,-10.64 39.39,-6.3 46.54,1.82 32.57,37.46 -17.93,45.76 -35.92,91.54 -55.69,136.5 -7.61,17.26 -19.54,32.79 -30.79,48.14 -9.04,12.31 -20.36,22.85 -30.06,34.69 -7.58,9.29 -15.7,18.61 -17.18,34.56 44.61,-7.12 88.78,-8.62 127.74,-32.76 19.5,-12.08 23.78,-11.14 36.11,8.36 2.86,4.53 5.29,9.33 7.99,13.99 10.65,18.4 17.9,22.53 37,12.94 17.39,-8.71 34.19,-20.24 48.25,-33.74 17.54,-16.85 31.89,-37.07 47.82,-55.65 7.83,-9.13 15.17,-22.1 29.06,-18.15 13.58,3.86 14.04,18.64 16.71,30.54 1.85,8.26 2.76,16.82 5.42,24.78 10.63,31.85 48.33,42.76 73.74,21.54 4.68,-3.91 8.82,-8.47 13.22,-12.7 12.81,-12.29 28.42,-13.93 44.7,-11.21 11.67,1.94 15.83,7.79 12.65,19.78 -3.33,12.56 -7.68,25.17 -13.81,36.53 -8.32,15.47 -18.19,30.18 -28.37,44.51 -23.97,33.72 -48.96,66.71 -72.71,100.6 -20.47,29.2 -45.57,53.54 -72.65,76.11 -31.18,25.99 -60.87,53.5 -83.78,87.6 -4.82,7.15 -12.24,13.86 -8.88,27.02 7.67,-3.32 14.61,-5.57 20.81,-9.14 24.42,-14.04 48.4,-28.85 72.92,-42.67 15.18,-8.56 30.65,-16.85 46.74,-23.32 8.08,-3.25 17.98,-3.65 26.82,-2.78 18.01,1.78 26.08,15.04 21.36,32.79 -0.78,2.94 -2.57,5.64 -3.26,8.6 -2.85,12.24 -0.17,17.74 12.67,18.92 32.64,3 66.01,5.25 95.03,-13.89 31.08,-20.53 62.28,-41.42 90.6,-65.57 44.98,-38.38 81.68,-84.65 113.01,-135.18 6.87,-11.07 13.13,-22.82 21.61,-32.49 6.79,-7.72 15.76,-14.8 25.17,-18.53 16.92,-6.71 32.12,1.75 37.97,19.08 6.29,18.68 3.8,36.64 -6.89,52.97 -5.85,8.96 -13.83,16.49 -19.49,25.54 -13.76,22.03 -27.17,44.3 -39.76,67.03 -3.98,7.17 -5.9,15.9 -7.14,24.17 -3.04,20.25 3.99,27.44 23.96,24.87 21.04,-2.69 41.93,-7 63.04,-8.9 23.14,-2.08 30.85,5.56 28.02,29.2 -1.6,13.37 -6.31,27.04 -12.49,39.04 -19.03,36.93 -47.61,65.31 -81.25,88.9 -18.7,13.11 -36.97,26.91 -54.68,41.36 -5.78,4.72 -9.11,12.52 -14.41,20.11 5.47,1.72 7.61,3.13 9.6,2.92 26.35,-2.75 52.74,-5.22 78.93,-8.98 7.09,-1.03 14.32,-5.15 20.26,-9.56 12.28,-9.11 24.62,-10.35 38.57,-4.7 11.25,4.56 22.82,8.44 34.47,11.83 31.78,9.25 46.28,-3.25 40.22,-35.46 -12.07,-64.23 -9.13,-54.79 28.32,-98.08 23.03,-26.62 45.69,-53.61 69.58,-79.43 12.87,-13.9 26.87,-27.36 42.42,-37.93 19.15,-13.02 32.98,-10.15 44.01,9.85 13.99,25.37 26.49,51.96 36.25,79.26 9.56,26.75 1.06,50.82 -18.06,72.08 -53.39,59.39 -91.67,128.11 -119.26,203.18 -1.79,4.89 -3.5,9.79 -4.2,15.68 39.03,-41.89 88.74,-62.83 141.68,-77.04 40.15,-10.76 80.94,-12.25 121.79,-3.48 5.9,1.26 11.83,3.06 17.28,5.61 17.4,8.18 24.74,20.87 18.83,39.13 -4.35,13.41 -11.3,27.36 -20.9,37.29 -13.1,13.54 -28.87,25.12 -45.14,34.69 -67.63,39.81 -135.52,79.1 -199.52,124.86 -44.92,32.11 -95.29,37.6 -148.08,29.64 -53.07,-8.01 -105.76,-9.13 -158.04,5.93 -19.3,5.54 -36.25,14.38 -52.53,26.41 -14.46,10.69 -30.85,20.03 -47.78,25.63 -36.75,12.12 -74.47,21.17 -111.6,32.15 -15.24,4.52 -30.18,10.31 -44.83,16.54 -7.33,3.11 -13.71,8.51 -22.06,13.86 9.35,9.97 19.36,9.24 28.63,10.67 33,5.13 66.11,9.6 98.94,15.6 48.82,8.91 95.52,24.62 139.52,48.17 8.04,4.31 16.5,7.79 24.78,11.65 35.99,16.83 72.99,24.21 112.85,16.83 47.42,-8.79 95.43,-5.37 143.17,-2.53 43.19,2.57 86.24,8.6 129.43,9.78 37.07,1.01 74.39,-1.32 111.37,-4.65 41.7,-3.75 80,4.07 115.44,26.46 13.53,8.54 26.9,17.35 40.4,25.94 15.18,9.65 31.64,15.2 49.68,13.83 21.91,-1.67 44.6,-0.9 65.47,-6.65 65.93,-18.15 132.31,-16.09 199.03,-9.09 110.53,11.61 220.99,15.65 331.92,4.35 49.02,-5 98.53,-6.33 147.83,-6.76 84.08,-0.74 166,16.42 247.42,35.5 141.9,33.25 283.43,68.17 425.47,100.82 84.32,19.39 169.46,35.11 253.96,53.74 61.67,13.58 121.57,33.13 178.4,61.56 99.18,49.61 171.54,125.47 217.29,227.56 30.36,67.71 48.92,138.99 62.67,211.74 0.83,4.44 0.86,9.04 1.44,15.64 -23.75,3.21 -46.82,6.59 -69.97,9.42 -106.24,12.99 -212.54,25.44 -318.72,38.82 -113.72,14.32 -227.39,29.07 -340.97,44.35 -103.8,13.97 -207.69,27.57 -311.18,43.69 -123.72,19.29 -247.25,40.03 -370.51,62.1 -159.13,28.5 -317.65,60.44 -476.9,88.11 -161.2,27.98 -323.83,41.53 -487.54,37.8 -89.64,-2.04 -178.85,-10.03 -267.57,-23.47 -8.72,-1.32 -18.09,-1.3 -26.76,0.33 -87.58,16.47 -172.79,40.64 -253.48,79.93 -37.67,18.35 -76.64,33.57 -118.06,41.08 -65.31,11.82 -130.53,8.61 -194.28,-7.96 -54.25,-14.11 -107.48,-32.44 -160.65,-50.47 -53.94,-18.29 -106.82,-40.64 -163.39,-49.03 -30.6,-4.53 -57.38,-19.5 -86.76,-26.75 -3.53,-0.86 -7.65,-2.79 -9.71,-5.58 -13.52,-18.44 -33.47,-19.03 -53.21,-20.82 -18.87,-1.7 -37.83,-3 -56.5,-6.06 -15.93,-2.61 -29.89,-10.39 -41.85,-22.71 11.07,-22.87 6.89,-45.44 -1.44,-67.29 -11.76,-30.85 -24.58,-61.29 -37.21,-91.8 -11.31,-27.35 -17.87,-55.42 -15.93,-85.39 1.28,-19.86 5.85,-38.28 19.97,-52.63 15.46,-15.72 16.36,-33.14 9.96,-53.14 -9.13,-28.53 -18.75,-57.08 -24.93,-86.33 -6.47,-30.71 -9.44,-62.22 -13.36,-93.44 -3.63,-29 -5.56,-58.22 -9.93,-87.08 -4.33,-28.59 -14.98,-55.08 -34.86,-76.5 -22.07,-23.79 -31.11,-52.3 -32.13,-84.11 -0.67,-20.78 -0.71,-41.58 -1.57,-62.35 -1.47,-35.39 5.07,-68.89 21.35,-100.37 16.24,-31.38 20.15,-65.94 24.44,-100.31 3.53,-28.26 6.74,-56.58 9.11,-84.96 2.15,-25.54 12.74,-46.39 27.82,-66.81 38.62,-52.29 75.92,-105.64 112.89,-159.17 22.38,-32.39 32.75,-69.31 33.41,-108.72zm712.78 -824.6c-19.03,6.07 -32,25.93 -60.04,23.43 6.53,-5.81 9.09,-8.37 11.94,-10.6 15.98,-12.46 18.11,-22.4 6.32,-38.48 -5.81,-7.92 -14.2,-13.85 -20.56,-21.42 -9.76,-11.63 -19.33,-23.49 -27.89,-36.03 -4.49,-6.57 -5.57,-15.5 2.58,-20.37 8.29,-4.94 14.24,1.19 18.79,7.79 3.04,4.4 5.37,9.29 8.28,13.79 11.72,18.11 21.08,19.53 36.32,4.79 25.39,-24.58 57.33,-33.17 90.53,-38.82 1.18,-0.2 2.61,1.11 5.74,2.54 -19.29,26.64 -54.06,24.56 -79.9,45.29 10.36,4 17.86,6.96 25.41,9.81 27,10.13 54.1,20 81,30.42 18.43,7.14 26.09,21.51 25.74,45.96 -12.11,-11.39 -21.53,-19.96 -30.62,-28.87 -21.74,-21.29 -47.92,-29.02 -77.31,-25.19 -22.36,2.91 -27.26,13.91 -16.33,35.97zm263.5 -302.25c-14.18,-0.96 -28.58,1.43 -42.89,2.24 -13.18,0.75 -26.36,1.42 -40.2,2.15 -0.65,-14.99 8.37,-18.2 15.89,-18.49 36.18,-1.39 72.43,-2.48 108.58,-1.37 8.04,0.25 19.1,8.07 23.11,15.54 14.67,27.32 15.29,56.37 5.81,85.29 -2.33,0.67 -4.65,1.33 -6.99,2 -3.46,-7.18 -7.69,-14.11 -10.18,-21.63 -2.64,-7.94 -3.29,-16.53 -5.38,-24.68 -6.8,-26.79 -20.39,-39.24 -47.76,-41.06zm161.41 -180.49c-15.24,-10.53 -17.15,-23.58 -17.32,-37.11 -0.03,-1.96 3.96,-5.86 5.52,-5.57 3.89,0.69 9.61,2.39 10.76,5.25 4.43,11.17 4.63,22.86 1.04,37.43zm-697.22 447.41c-16.78,14.89 -42.85,2.35 -56.72,25.61 -0.92,-21.29 1.06,-24.56 16.65,-25.46 13.32,-0.76 26.7,-0.15 40.07,-0.15zm1007.87 -901.83c-17.33,4.58 -177.53,5.06 -199.58,0.32l0 -30.07c8.24,-1.06 15.56,-2.02 25.52,-3.29l0 -167.26 147.3 0c3.44,55.48 -0.36,110.51 2.15,166.82 7.94,1.07 15.17,2.04 24.61,3.3l0 30.18zm265.26 -424.21c-21.37,12.99 -65.83,9.08 -93.69,-8.06 32.85,-4.25 62.37,1.28 93.69,8.06zm-711.96 1.71c-25.5,11.96 -64.93,14.61 -84.11,6.46 19.93,-18.07 58.94,-21.6 84.11,-6.46zm575.04 -1984.48c-0.17,-10.74 -0.04,-21.47 -0.03,-32.21 0.01,-36.28 0.01,-36.28 32.26,-57.24 2.01,0.54 2.82,0.58 3.44,0.94 38.5,23.14 38.5,23.15 38.5,68.01 0.02,18.29 0,36.57 0,56.82l-73.18 0c-0.35,-12.33 -0.81,-24.33 -1,-36.33zm62.47 -103.04c-40.32,-19.08 -40.32,-19.08 -71.21,-12.76 1.91,-16.21 14.98,-26.64 33.69,-26.89 19.28,-0.25 33.36,14 37.52,39.65zm-542.2 15.68c-1.08,0.92 -2.75,1.13 -6.24,2.44 9.18,-41.53 36.81,-52.56 67.6,-28.57 13.08,10.2 17.58,16.37 24.64,35.33 -6.08,-1.57 -10.98,-1.68 -14.53,-3.97 -8.22,-5.31 -15.57,-12.02 -23.68,-17.52 -16.04,-10.89 -23.57,-10.08 -37.75,3.13 -3.32,3.1 -6.58,6.25 -10.04,9.15zm9.33 138.63l0 -106.38 58.15 0 0 106.38 -58.15 0zm64.29 -232.61c-5.97,-0.7 -12,-3.25 -17.76,-2.62 -5.28,0.56 -12.58,2.82 -14.92,6.8 -8.44,14.35 -21.44,14.64 -38.53,15.47 1.69,-7.59 1.37,-14.93 4.75,-19.43 6.25,-8.32 14.2,-15.57 22.44,-21.94 2.13,-1.64 9.41,0.25 11.81,2.87 8.46,9.21 17.04,7.11 26.69,2.99 6.56,-2.79 13.63,-4.32 20.92,-6.56 1.99,21.74 0.04,24.26 -15.4,22.41zm-106.6 1927.25c-26.92,1.36 -52.63,2.65 -82.28,4.14 37.21,-33.01 199.18,-59.76 263.33,-45.71 -6.25,7.65 -15.04,7.54 -22.29,9.88 -31.69,10.22 -44.19,25.94 -46.86,59.68 -0.97,12.22 -2.46,24.41 -4.02,36.57 -0.22,1.81 -2.17,3.4 -4.02,6.11 -10.94,-7.93 -9.98,-18.74 -8.97,-29.21 1.12,-11.46 3.58,-22.8 4.37,-34.28 1.03,-14.93 -2.79,-19.08 -17.85,-20.21 -9.04,-0.68 -18.18,0.03 -27.26,-0.31 -16.09,-0.58 -27.35,5.92 -34.6,20.94 -3.32,6.89 -9.36,12.42 -14.17,18.56 -1.81,-1.06 -3.6,-2.11 -5.41,-3.17l0 -23zm594.39 -959.47c-41.61,-10.79 -80.13,-24.02 -117.65,-40.79 30.61,-4.06 60.24,-0.72 88.86,9.6 13.56,4.89 19.43,12.19 28.79,31.19zm66.13 -1192.58c-18.1,-13.35 -33.36,-25.14 -43.75,-44.14 15.97,-15.65 34.46,-18.42 56.35,-17.22 4.11,23.79 -5.41,41.02 -12.59,61.36zm-394.74 1560.98c-15.2,5.24 -110.33,6.88 -147.31,2.06 -0.78,-60.53 -0.4,-121.53 -0.21,-184.57l147.52 0 0 182.51zm102.89 -415.35c-13.11,0 -21.32,-0.21 -29.53,0.03 -47.8,1.35 -95.57,2.86 -143.36,4.15 -14.42,0.4 -28.86,0.78 -43.26,0.24 -6.68,-0.25 -13.67,-1.82 -19.75,-4.53 -3.36,-1.52 -7.26,-6.74 -7.07,-10.06 0.17,-3.08 5.07,-7.56 8.59,-8.42 8.04,-1.97 16.52,-2.4 24.83,-2.9 6.81,-0.42 13.67,0.15 20.5,0 24.06,-0.56 24.54,-1.03 28.78,-24.61 20.28,-3.85 20.28,-3.85 23.68,22.85 7.52,0.37 15.49,0.8 23.49,1.15 24.98,1.13 50.03,1.61 74.97,3.52 16.98,1.31 22.07,4.46 38.13,18.58zm64.28 -83.53l-23.65 0c-1.4,-5.54 -2.82,-11.14 -3.86,-15.31 -9.56,-9.97 -32.31,6.86 -32.44,-18.41 17.47,-5.59 80.01,-6.35 111.22,-1.43 2.79,10.7 0.25,16.14 -10.33,15.96 -11.91,-0.2 -23.83,-0.04 -36.68,-0.04 -1.54,6.93 -2.79,12.6 -4.25,19.24zm-412.15 3893.81c-7.24,9.11 -14.07,11.76 -24.42,2.06 -10.33,-9.68 -26.78,-7 -41.18,5.06 -8.56,7.15 -16.18,14.15 -26.86,8.96 -6.78,-16.64 -13.07,-32.12 -20.65,-50.75 8.93,0 14.82,-0.82 20.4,0.15 16.32,2.85 32.07,9.21 49.31,5.32 3.31,-0.75 7.9,3.3 11.61,5.64 12.03,7.58 23.67,7.39 38.87,-1.26 -9.67,-10.26 -17.65,-18.75 -28.12,-29.86 23.11,0 35.57,14.79 50.53,23.15 15.39,8.6 32.72,15.43 41.18,35.5 -6,-1.67 -12,-3.33 -18.02,-4.96 -9.37,-2.54 -18.67,-5.58 -28.18,-7.43 -9.39,-1.83 -17.94,0.24 -24.47,8.43zm328.54 -158.89c-18.94,-7.4 -36.69,-13.42 -55.44,-6.85 -1.81,0.62 -4.74,-0.28 -6.46,-1.47 -17.29,-11.94 -35.89,-14.64 -57.97,-4.86 16.93,-31.03 27.89,-36.26 54.62,-28.51 14.57,4.2 29,8.89 43.49,13.37 12.43,3.85 21.5,10.54 21.76,28.32zm-118.61 -4589.57c-18.54,0.93 -37.06,2.29 -58.31,3.64 16.57,-21.74 38.54,-36.93 55.22,-57.61 2.46,1.86 4.91,3.71 7.37,5.57 -1.21,8.67 -2.42,17.33 -3.63,25.9 20.24,3.79 28.97,8.33 65.78,-5.28 -8.2,14.37 -26.65,26.97 -41.47,27.74 -8.31,0.43 -16.67,-0.38 -24.97,0.04zm-486.32 3699.1c7.51,-19.17 6.89,-21.97 -10.1,-34.33 -5.54,-4.03 -11.86,-7.14 -16.83,-11.78 -11.68,-10.89 -23.39,-21.88 -33.86,-33.92 -6.3,-7.24 -14.29,-17.13 -6.47,-26.67 7.37,-9 18.96,-3.96 27.65,-0.22 8.1,3.5 15.74,9.4 21.93,15.86 11.62,12.08 21.83,25.57 33.04,38.08 19.52,21.76 42.02,32.19 70.99,18.97 4.04,-1.83 11.83,-2 14.37,0.6 17.21,17.68 33.48,36.3 47.6,57.53 -5.96,-2.71 -11.75,-5.91 -17.91,-8.02 -11.5,-3.94 -18.07,1.44 -15.54,13.63 1.69,8.1 4.51,16.86 9.51,23.14 15.17,19.06 31.38,37.28 47.71,55.32 6.54,7.22 14.43,13.17 20.22,22.97 -3.58,-0.75 -7.74,-0.54 -10.65,-2.36 -37.83,-23.59 -72.15,-50.49 -93.71,-91.75 -6.81,-13.06 -19.21,-23.26 -29.71,-34.13 -6.87,-7.09 -14.78,-6.25 -22.44,-0.08 -6.53,5.25 -13.3,10.22 -20.22,14.93 -6.13,4.17 -12.6,7.78 -18.92,11.64 -1.63,-1.37 -3.25,-2.74 -4.86,-4.1 2.71,-8.46 4.97,-17.08 8.2,-25.32zm706.41 -784.13c-7.04,3.43 -13.91,7.29 -21.17,10.17 -5.6,2.19 -11.6,3.53 -17.54,4.58 -28.67,5.14 -28.68,5.06 -40.25,33.46 -5.65,-6.35 -11.75,-10.82 -14.58,-16.86 -5.64,-12.04 -13.87,-17.12 -26.85,-16.58 -4.64,0.2 -9.41,-2.59 -14.32,-8.44 6,-1.08 11.96,-2.76 18.02,-3.15 31.65,-2.07 63.47,-2.11 94.29,-11.92 6.25,-1.99 13.83,0.33 20.81,0.68 0.53,2.69 1.06,5.37 1.59,8.07zm-57.75 -2812.8c-1.57,1.26 -3.14,2.54 -4.71,3.8 -6.06,-5.54 -11.67,-11.71 -18.25,-16.48 -10.97,-7.96 -22.04,-16.06 -34.01,-22.24 -15.96,-8.24 -31.93,-6.39 -47.21,3.72 -12.98,8.6 -25.81,18.03 -43.28,20.24 -1.51,-11.03 4.42,-17.33 10.61,-22.01 10.82,-8.18 22.46,-15.36 34.15,-22.24 21.43,-12.58 41.7,-10.76 59.82,6.89 15.48,15.09 30.83,30.32 42.87,48.32zm56.47 4403.41c-8.74,-11.29 -4.58,-20.07 0.96,-27.12 7.94,-10.11 16.06,-21.43 26.68,-27.74 21.85,-12.99 45.42,-22.99 70.37,-35.25 0.81,14.61 -4.72,24.06 -13.65,30.83 -22.28,16.93 -45.11,33.13 -67.85,49.43 -4.85,3.47 -10.25,6.15 -16.51,9.85zm288.68 -277.18c-1.29,-16.35 1.29,-31.81 8.65,-45.43 3.57,-6.59 11.31,-13.3 18.38,-15.11 28.65,-7.37 57.8,-11.64 87.11,-3.69 0.65,1.86 1.29,3.74 1.94,5.59 -7.18,3.18 -14.18,6.97 -21.58,9.43 -12.21,4.04 -24.68,7.28 -37.06,10.78 -22.99,6.52 -44.32,15.61 -57.44,38.43zm-493.28 56.24c24.53,-48.78 47.61,-93.04 91.42,-121.35 1.57,1.17 3.14,2.35 4.71,3.52 -3.86,7.11 -7.31,14.48 -11.67,21.26 -8.7,13.53 -18.15,26.56 -26.85,40.08 -17.25,26.86 -17.65,29.31 -12.41,60.85 -14.41,-1.39 -27.93,-2.69 -45.2,-4.36zm-220.25 -4393.35c-22.04,-5.41 -41.88,-15.44 -59.92,-30.26 34.69,-31.53 74.22,-31.12 96.74,1.89 -7.83,8.04 -15.76,16.94 -24.58,24.83 -2.94,2.63 -8.57,4.44 -12.24,3.54zm314.82 4880.71c-9.14,-4.39 -14.93,-6.08 -19.43,-9.51 -13.87,-10.58 -28.54,-20.61 -40.43,-33.24 -8.46,-8.99 -14.07,-21.36 -18.87,-33.1 -4.03,-9.83 -9.26,-15.85 -19.86,-14.85 -13.46,1.26 -26.86,3.14 -40.24,5.08 -9.19,1.35 -18.32,3.24 -31.72,5.65 20.69,-18.63 61.76,-30.93 81.21,-25.78 6.35,1.68 13.7,4.5 17.74,9.28 23.51,27.89 46.2,56.47 69.03,84.96 1.21,1.52 1.01,4.2 2.58,11.5zm-213.07 -1098.69c-2.37,-16.63 -1.51,-30.53 -6.72,-41.49 -4.94,-10.4 -16.44,-17.5 -24.64,-26.44 -7.18,-7.86 -10.07,-16.88 -2.86,-30.18 9.96,8.39 19.3,16.26 29.35,24.71 21.5,-7.36 34.86,-32.92 61.24,-30.33 6.48,0.64 12.92,1.89 20.4,3 -3.78,13.67 -14.07,16.28 -22.63,19.71 -19.32,7.75 -30.29,21.37 -34.69,41.87 -2.79,13.07 -5.85,26.64 -19.44,39.15zm54.7 288.72c-5.31,-9.96 -10.03,-21.97 -18.5,-28.14 -25.09,-18.22 -50.42,-36.94 -82.15,-42.35 -10.54,-1.79 -21.02,-4 -26.86,-18.72 4.98,-3.11 9.89,-8.12 15.61,-9.44 21.06,-4.82 36.35,-17.88 50.86,-32.88 8.98,-9.29 18.81,-17.79 28.65,-26.17 3.17,-2.71 7.59,-3.89 12.24,-6.15 4.92,18.22 -3.08,31.28 -12.02,43.68 -5.78,8.02 -13.17,14.83 -19.22,22.68 -13.11,16.96 -11.07,24.89 8.33,32.46 9.86,3.85 20.03,6.89 30.07,10.26 19.78,6.67 31.39,20.2 34.93,41.24 1.52,9.02 4.88,17.71 6.67,26.7 1.56,7.87 2.08,15.96 3.15,24.72 -14.7,1.13 -20.04,-7.11 -24.11,-16.31 -3.07,-6.97 -4.11,-14.94 -7.65,-21.58zm434.06 -351.26c-12.99,-0.9 -26.72,-4.79 -38.85,-1.85 -12.47,3.02 -23.37,12.68 -38.59,21.56 0,-13.24 0.42,-23.51 -0.13,-33.76 -0.54,-10.72 -3.1,-21.42 -2.82,-32.07 0.39,-14.56 24.5,-30.42 37.11,-24.26 4.26,2.08 8.5,9.3 8.58,14.26 0.31,17.58 8.53,28.19 23.44,36.09 11.56,6.1 10.99,7.2 11.25,20.03zm-241.6 -3750.43c-7.04,-0.21 -14,-3.76 -21.92,-6.06 3.81,-15.03 14.06,-21.49 24.54,-23.85 41.14,-9.25 82.46,-10.46 123.21,3.11 1.21,0.4 2.03,2.07 4.4,4.65 -3.15,3.51 -5.75,8.79 -9.79,10.46 -11.82,4.9 -24.06,11.14 -36.42,11.86 -27.92,1.63 -56.03,0.63 -84.03,-0.18zm8.93 4106.96c-11.54,-24.21 -35.24,-19.44 -53.44,-30.89 23.25,2.4 46.59,4.25 69.7,7.59 6.07,0.89 14.58,5.17 16.61,10.14 6.67,16.36 19.22,25.17 33.65,32.48 2.78,1.4 6.04,1.79 9.08,2.65 -1.35,2.37 -2.69,4.74 -4.04,7.11 -9.35,0 -18.76,0.68 -28.04,-0.13 -30.79,-2.71 -54.43,8.92 -72.24,34.46 -11.36,16.3 -23.43,32.15 -36,47.53 -7.56,9.24 -16.24,17.82 -29.44,20.51 -4.36,-12.37 1.86,-20.72 6.63,-29.06 12.93,-22.6 26.61,-44.74 39.3,-67.44 7.71,-13.8 15.32,-26.3 33.52,-26.86 4.48,-0.14 8.83,-4.72 14.72,-8.11zm-363.54 -4197.91c-32.94,3.2 -64.17,6.23 -98.78,9.58 0,-22.02 -0.43,-39.54 0.29,-57.03 0.2,-4.68 2.72,-11.39 6.28,-13.44 29.25,-17 58.83,-33.53 92.21,-45.56l0 106.44zm248.61 97.07c-36.32,2.11 -72.74,3.74 -109.1,3.4 -25.33,-0.25 -35.76,-10.08 -41.11,-31.91 -3.03,-12.36 -0.48,-16.75 12.54,-18.81 10.47,-1.64 21.14,-2.69 31.72,-2.86 35.67,-0.56 71.35,-0.8 107.02,-0.69 8.08,0.03 16.17,1.98 25.03,3.17 1.29,6.44 2.12,9.43 2.44,12.47 2.83,26.7 -2.03,33.71 -28.54,35.24zm201.81 2290.06c-136.96,4.18 -273.91,8.41 -410.85,12.39 -6.51,0.18 -13.07,-1.79 -20.41,-2.89 -0.27,-13 8.97,-16.71 16.18,-21.17 20.6,-12.75 44,-16.87 67.38,-18.83 27.86,-2.32 55.91,-2.15 83.89,-3.18 5.11,-0.19 10.22,-0.93 16.31,-1.5 5.47,-21.03 -0.98,-44.21 14.08,-63.32 14.61,3.86 17.25,15.38 18.74,27.75 4.74,39.37 7.44,42.96 46.49,47.28 19.51,2.15 39.36,1.53 59.06,1.46 13.67,-0.04 24.86,-5.86 32.92,-17.47 2.59,-3.74 5.56,-7.39 8.96,-10.37 10.25,-8.96 20.44,-7.03 21.52,5.8 1.61,19.32 12.44,26.18 28.43,30.54 6.76,1.83 12.83,6.29 19.21,9.56 -0.63,1.32 -1.25,2.64 -1.87,3.96zm9.26 -215.04c-16.63,0.08 -21.85,2.36 -43.2,17.47 -1.42,-33.13 -23.5,-35.26 -46.46,-36.93 -13.46,-0.96 -26.81,-3.33 -40.44,-8.72 5.5,-1.24 10.94,-3.18 16.5,-3.56 16.63,-1.14 33.32,-2.67 49.94,-2.25 65.09,1.61 130.29,2.7 194.57,14.79 18.29,3.44 36.71,8.04 53.88,24.47 -7.43,3.57 -12.11,7.02 -17.24,8.03 -10.39,2.03 -21.02,2.86 -31.57,4 -17.17,1.85 -31.92,7.29 -42.61,22.65 -7.57,10.85 -15,10.58 -20.17,-1.58 -14.33,-33.79 -42.35,-38.52 -73.2,-38.37zm435.98 1451.06c-11.81,-9.65 -24.26,-18.5 -36.51,-27.57 -3.06,-2.26 -6.47,-4 -8.2,-8.58 32.78,-5.17 58.35,16.07 89.87,21.82 9.22,-19.25 21.88,-30.53 42.39,-23.69 6.5,2.18 14.07,7.26 16.63,13.07 1.5,3.42 -4.89,11.92 -9.46,16.28 -9.36,8.94 -20.56,15.93 -29.79,24.97 -19.69,19.25 -19.35,30.22 -0.22,50.48 6.29,6.67 13.15,13 18.24,20.54 12.51,18.56 8.32,30.68 -16,42.47 -2.94,-8.47 -5.13,-16.97 -8.89,-24.71 -2.4,-4.96 -7.13,-8.78 -10.8,-13.1 -3.93,3.93 -9.22,7.18 -11.53,11.93 -4.23,8.69 -4.69,19.71 -16.19,22.98 -29.97,-26.1 -34.71,-47.15 -18.24,-80.64 2.03,-4.13 4.33,-8.13 6.22,-12.33 7.43,-16.6 6.41,-22.54 -7.52,-33.93zm-551.76 -77.43c-25.89,0.64 -43.13,-18.04 -65.07,-20.18 3.86,-33.36 18.33,-58.42 42.93,-77.57 1.79,-1.4 3.57,-2.96 4.9,-4.79 33.35,-45.57 82.74,-49.64 132.44,-52.32 9.53,-0.52 20.65,-1.18 25.6,10.22 3.29,7.6 -5.72,20.14 -19.33,25.13 -9.83,3.6 -20.74,4.08 -31.02,6.57 -7.57,1.83 -14.91,4.67 -22.35,7.04 -0.37,1.87 -0.75,3.75 -1.13,5.61 6.91,4.93 13.49,10.43 20.81,14.65 12.49,7.21 25.82,12.99 38.07,20.58 7.42,4.61 13.47,11.5 23.69,20.49 -19.56,0.69 -32.24,-4.39 -45.14,-10.06 -18.72,-8.21 -37.52,-16.7 -57.02,-22.47 -24.32,-7.22 -44.75,2.24 -60.92,21.09 -11.5,13.39 -11,18.56 1.32,31.04 10,10.15 10,10.15 12.19,24.96zm148.02 1499.35c-21.06,-15.07 -42.67,-29.88 -50.97,-56.93 -6.61,-21.51 -22.36,-29.35 -43.47,-29.93 -13.22,-0.36 -26.39,-2.37 -44.67,-4.14 15.67,-15.28 30.1,-21.67 44.2,-28.46 8.89,-4.28 18.32,-7.42 27.12,-11.87 15.97,-8.06 17.35,-12.64 10.11,-28.89 -1.78,-4 -3.46,-8.03 -6.31,-14.63 16.97,5.93 31.35,11.17 45.86,15.92 4.97,1.64 10.29,2.44 15.51,3 11.92,1.25 20.26,-3.57 25.38,-14.96 4.62,-10.28 10.29,-20.07 15.67,-30.4 21.96,17 22.28,30.01 3.67,45.78 -3.65,3.08 -8.65,9.83 -7.53,12.26 2.21,4.71 7.93,9.99 12.85,10.75 22.39,3.47 39.57,16.93 61,28.58 -11.53,7.54 -20.85,3.64 -29.97,2.3 -10.46,-1.54 -21.06,-4.9 -31.35,-4.11 -15.47,1.18 -30.09,1.75 -43.5,-7.72 -1.74,-1.22 -4.32,-1.42 -6.57,-1.68 -8.41,-1 -17.56,-2.22 -21.93,7.24 -4.06,8.76 -0.04,16.58 6.56,22.68 3.89,3.61 9.32,5.78 12.5,9.85 3.96,5.08 9.18,11.61 8.86,17.22 -1.11,19.74 4.4,36.18 18.78,48.81 -9.5,16.22 -10.72,17.25 -21.79,9.33zm140.46 -854.96c2.9,-6.08 5.1,-12.5 8.89,-21.93 10.01,24.87 8.97,49.29 24.93,69.48 11.64,-14 5.52,-30.86 10.96,-45.35 11.85,0.89 22.98,2.39 34.14,2.42 37.42,0.1 53.01,-14.76 55.13,-52.02 0.61,-10.75 1.12,-21.56 0.94,-32.32 -0.29,-15.87 -5.32,-21.89 -20.57,-25.75 -16.71,-4.24 -33.14,-2.7 -49.32,2.79 -4.83,1.63 -9.61,3.43 -17.26,6.17 12.74,-20.13 28.86,-27.8 48,-27.13 59.33,2.09 52.74,-3.2 88.35,-38.79 12.75,-12.74 28.74,-22.25 43.74,-32.48 3.83,-2.61 9.56,-2.37 15.78,-1.63 -33.75,23.56 -58.62,53.74 -72.85,92.07 -12.78,34.42 -0.97,84.97 26.71,110.36 -6.43,0 -10.65,0.86 -14.4,-0.14 -19.94,-5.33 -33.25,0.37 -41.22,20.85 -3.62,9.3 -12,16.65 -17.53,23.97 -4.67,-1.61 -6.54,-1.65 -7.33,-2.61 -17.43,-21.39 -27.6,-21.33 -44.41,0.06 -8.51,10.83 -16.71,22.06 -26.35,31.78 -10.07,10.14 -21.26,19.3 -32.79,27.74 -16.61,12.17 -33.83,23.47 -51.06,34.74 -8.86,5.78 -18.22,11.44 -31.22,1.07 4.39,-4.62 7.7,-9.18 11.96,-12.46 13.29,-10.19 27.48,-19.26 40.32,-29.98 13.46,-11.24 19.75,-27.17 12.82,-43.5 -8.75,-20.61 -5.22,-38.74 3.65,-57.41zm476.94 19.7c-11.14,-8.99 -18.07,-20.36 -16.1,-35.11 2.56,-19.09 -1.51,-34.67 -16.57,-47.36 -11.5,-9.71 -11.52,-23.07 -6.71,-36 3.71,-9.99 9.22,-19.31 14.18,-28.78 5.97,-11.4 8.81,-22.89 2.53,-35.15 -8.71,-17 -4.24,-33.22 4.3,-48.3 21.14,-37.32 49.57,-65.85 92.82,-75.47 18.88,-4.21 37.71,-8.63 56.56,-12.94 1.02,1.69 2.04,3.39 3.07,5.08 -3.32,4.15 -5.92,9.4 -10.1,12.25 -11.93,8.14 -24.43,15.43 -36.85,22.79 -14.42,8.54 -20.67,20.14 -20.06,37.93 0.48,14.11 -2.39,29.18 -7.29,42.5 -22,59.85 -42.67,119.96 -51.79,183.5 -0.54,3.75 -2.07,7.39 -3.47,10.94 -0.47,1.18 -2.03,1.92 -4.53,4.13zm-789.28 -4226.43c-3.18,-28.67 -1.61,-58.11 -0.01,-88.67 23.28,-8.4 208.42,-0.14 236.33,10.17l0 76.94c-16.11,5.63 -200.48,7.31 -236.32,1.56zm-139 6.56c-18.09,1.39 -36.39,0.28 -54.58,0.28 0,0.04 0,0.1 0,0.14 -23.51,0 -47.07,0.89 -70.51,-0.28 -17.71,-0.89 -20.61,-4.75 -22.7,-22.33 -1.9,-16.02 -4.15,-32.07 -4.63,-48.17 -0.51,-17.31 5.83,-25.31 22.18,-30.26 7.94,-2.41 16.29,-4.36 24.54,-4.72 56.08,-2.53 112.19,-4.63 168.31,-6.69 5.28,-0.2 10.59,0.58 15.89,1.06 9.86,0.89 15.93,6.74 15.54,16.43 -0.99,24.56 -2.74,49.1 -4.82,73.58 -0.83,9.82 -9.47,11.21 -16.97,12.22 -24.04,3.25 -48.08,6.89 -72.25,8.75zm516.22 4919.54c-0.42,-12.02 24.79,-60.17 38.01,-72.39 6.6,7.21 12.08,13.2 17.89,19.54 12.96,-3.03 19.07,-12.86 25.72,-22.08 14.28,-19.8 28.59,-39.56 42.91,-59.32 2.25,-3.09 4.78,-6 6.89,-9.18 9.7,-14.64 9.5,-18.35 -1.17,-32.7 -2.22,-2.98 -4.09,-6.26 -5.98,-9.48 -0.28,-0.47 0.21,-1.42 0.85,-4.78 6.17,-0.76 13.26,-1.79 20.4,-2.51 39.46,-3.96 59.65,-23.82 65.61,-63.82 1.24,-8.25 4.43,-16.19 6.56,-24.32 1.93,-7.39 4.93,-14.79 5.17,-22.26 0.4,-13.12 -6,-17.76 -18.67,-15.17 -6.68,1.36 -13.25,3.94 -19.96,4.37 -9.76,0.63 -14.85,-7.21 -9.06,-14.97 9.57,-12.82 20.13,-25.15 31.81,-35.98 8.03,-7.46 24.08,-3.18 30.22,6.24 2.04,3.14 3.89,7 4.17,10.65 2.52,33.82 22.1,56.09 47.89,74.51 6.17,4.42 11.32,10.26 17.22,15.1 23.14,19.04 30.85,44.54 31.33,77.54 -5.91,-5.33 -10.14,-7.9 -12.67,-11.64 -9.04,-13.3 -17.35,-27.14 -26.24,-40.54 -7.13,-10.76 -16.51,-18 -30.13,-17.6 -15.64,0.48 -24.3,6.98 -25.79,23.01 -2.15,23.2 -12.63,40.24 -30.78,54.03 -14.71,11.18 -14.24,14.63 -1.07,29.18 12.83,14.18 26.63,27.6 38.19,42.76 5.56,7.29 9.6,17.83 9.65,26.94 0.1,15.02 -10.86,20.54 -23.17,12 -10.49,-7.26 -21.44,-15.85 -28.07,-26.48 -19.83,-31.91 -43.68,-24.41 -66.68,-4.43 -9.19,7.99 -17.06,17.53 -25.93,25.93 -6.63,6.26 -13.18,13.19 -21.03,17.39 -11.79,6.32 -21.69,13.75 -28.13,25.85 -4.63,8.72 -12.44,12.94 -20.59,6.11 -12.17,-10.19 -20.85,-4.11 -29.86,3.96 -5.03,4.5 -9.86,9.21 -15.53,14.54z"/>
 </g>
</svg>
