<?xml version="1.0" encoding="UTF-8"?>
<!DOCTYPE svg PUBLIC "-//W3C//DTD SVG 1.1//EN" "http://www.w3.org/Graphics/SVG/1.1/DTD/svg11.dtd">
<!-- Creator: CorelDRAW 2018 (64-Bit) -->
<svg xmlns="http://www.w3.org/2000/svg" xml:space="preserve" width="8.26772in" height="11.6929in" version="1.1" style="shape-rendering:geometricPrecision; text-rendering:geometricPrecision; image-rendering:optimizeQuality; fill-rule:evenodd; clip-rule:evenodd"
viewBox="0 0 8267.72 11692.91"
 xmlns:xlink="http://www.w3.org/1999/xlink">
 <defs>
  <style type="text/css">
   <![CDATA[
    .fil0 {fill:#2B2926}
   ]]>
  </style>
 </defs>
 <g id="Layer_x0020_1">
  <metadata id="CorelCorpID_0Corel-Layer"/>
  <path class="fil0" d="M197.17 741.96l0 10204.76c6.61,1.33 13.17,3.21 19.83,3.87 6.76,0.67 13.65,0.15 20.49,0.15l7795.3 0 35.18 0c0.94,-6.28 2.13,-11.28 2.38,-16.32 0.37,-7.67 0.11,-15.36 0.11,-23.03 0,-3379.09 0,-6758.15 0,-10137.22l0 -32.22 -7873.29 0zm2489.01 9075.43c-9.65,-9.36 -18.36,-23 -25.65,-36.87 0.52,-1.72 1.04,-3.44 1.6,-5.14 3.5,-10.94 10.87,-18.22 22.71,-19.96 21.31,-3.13 39.21,-11.28 48.96,-32.54 4.46,-9.75 14.2,-11.4 23.31,-11.51 16.97,-0.21 29.83,-5.1 40.25,-20.47 5.83,-8.61 17.79,-14.39 28.17,-18.18 38.8,-14.21 54.69,-48.93 72.61,-81.51 6.47,-11.76 6.89,-25.67 -5.17,-35.74 -11.76,-9.83 -24.86,-14.43 -40.04,-7.54 -14.87,6.75 -27.48,16.02 -36.4,30.15 -5.72,9.1 -11.79,18.14 -24.52,18.39 -1.69,-1.29 -3.78,-2.39 -5.24,-4.06 -13.51,-15.56 -16.89,-16.06 -28.44,-0.14 -5.72,7.87 -12.08,10.72 -21.14,10.21 -15.37,-0.87 -27.5,5.03 -38.06,16.74 -25.31,28.06 -40.86,32.33 -82.15,24.4 -0.61,-10.26 -0.46,-20.94 -2.04,-31.36 -3.57,-23.47 -11.11,-28.78 -34.33,-27.67 -17.4,0.85 -34.96,-0.51 -52.28,1.06 -13.43,1.2 -27.26,3.7 -39.76,8.6 -34.65,13.58 -45.32,47 -25,78.14 6.94,10.63 7.76,19.94 0.99,29.57 -11.85,16.82 -24.08,33.42 -36.92,49.47 -11.17,13.96 -26.46,16.86 -43.29,13.46 -1.48,-0.3 -3.03,-0.46 -4.43,-1 -62.46,-24.17 -127.94,92.88 -193.2,91.39 -50.78,-1.14 -101.51,-4.63 -152.29,-6.11 -14.22,-0.42 -28.64,1.82 -42.76,4.08 -34.36,5.53 -57.65,-17.22 -51.92,-52.14 1.72,-10.52 5.7,-20.67 8.74,-30.94 6.79,-23 3.04,-34.15 -18.12,-45.54 -13.99,-7.53 -29.1,-12.94 -43.77,-19.17 -22.36,-9.46 -45.46,-17.43 -66.98,-28.53 -29.03,-14.97 -95.36,-1.53 -67.94,-19.14 23.7,-15.22 50.85,-19.35 77.67,-24.42 5.96,-1.13 12,-1.82 17.99,-2.78 14.47,-2.33 26.13,-8.24 29.33,-27.11 7.93,1.83 15.14,2.71 21.71,5.24 6.3,2.43 11.73,7.08 17.93,9.89 18.89,8.54 27.36,4.98 35.39,-14.24 9.36,-22.42 20.22,-27.39 42.74,-18 12.57,5.25 24.26,12.6 36.62,18.44 24.71,11.65 35.52,8.82 48.5,-14.53 7.41,-13.29 17.79,-20.1 32.04,-22.94 19.32,-3.85 38.76,-7.44 57.68,-12.86 23.14,-6.61 24.1,-9.86 17.1,-32.47 -2.42,-7.79 -3.94,-15.87 -6.72,-27.3 13.35,-2.17 24.14,-4.5 35.04,-5.59 24.37,-2.44 26.08,-4.01 25.46,-27.47 -1.04,-39.85 -1.03,-39.54 37.75,-41.25 21.2,-0.94 42.43,-2.52 63.53,-4.86 26.08,-2.9 41.71,-15.22 43.9,-33.01 1.96,-15.75 -10.04,-31.53 -34.54,-40.43 -22.01,-8 -45.01,-13.21 -69.54,-20.19 -1.18,-3.13 -2.78,-8.08 -4.87,-12.81 -12.41,-27.93 -44.22,-31.12 -63.6,-7.67 -8.97,10.86 -20.13,20.94 -32.25,27.82 -14.29,8.13 -23.68,3.9 -32.82,-9.78 -2.96,-4.44 -5.18,-9.39 -8.13,-13.86 -7.94,-12.1 -19.17,-16.68 -33.33,-14.65 -13.39,1.92 -18.56,11.1 -22.13,23.02 -6.79,22.65 -7.15,22.54 -24.6,33.15 -3.21,-7.75 -6.03,-15.25 -9.37,-22.51 -5.42,-11.74 -9.65,-24.43 -17.08,-34.72 -18.87,-26.12 -48.97,-30.11 -73.52,-9.44 -13.89,11.68 -25.76,25.9 -37.94,39.53 -6.58,7.36 -11.79,15.98 -17.83,23.87 -17.97,23.42 -41.75,29.72 -69,21.8 -7.26,-2.11 -15.21,-7.72 -19.21,-14.07 -8.32,-13.17 -17.47,-20.89 -33.93,-23.06 -31.49,-4.11 -45.81,-27.97 -39.2,-59.88 2.33,-11.25 5.14,-22.54 6.06,-33.94 1.79,-22.33 13.83,-35.88 34.46,-40.14 26.65,-5.53 53.69,-9.25 80.67,-13.03 15.76,-2.19 31.74,-2.79 47.58,-4.43 31.99,-3.32 53.35,-22.81 60.47,-55.03 0.99,-4.49 1.42,-9.11 1.89,-13.68 1.14,-11.06 4.81,-20.24 13.93,-27.68 11.96,-9.75 16.74,-23.72 15.72,-39.03 -0.88,-12.94 -6.36,-25.33 -18.81,-29.26 -15.36,-4.85 -32.06,-4.86 -45.15,7.18 -7.18,6.61 -13.29,14.78 -18.47,23.14 -6.83,11 -15.22,15.54 -28.32,14.04 -31.39,-3.61 -59.65,5.15 -86.36,22.26 -17.83,11.43 -37,21.17 -56.5,29.4 -19.87,8.4 -26.91,1.96 -24.76,-19.08 3.32,-32.49 15.26,-60.07 39.3,-83.08 29.68,-28.43 29.24,-32.94 6.2,-68.07 -3.78,-5.75 -7.44,-11.58 -11.43,-17.19 -10.4,-14.65 -15.26,-28.61 -3.97,-46.31 8.15,-12.76 2.02,-28.74 -10.56,-38.51 -14.25,-11.1 -35.61,-12.79 -48.93,-2.53 -6.49,4.98 -12.22,11.72 -16.41,18.8 -5.57,9.42 -12.32,14.04 -23.39,15.28 -22.29,2.5 -24.94,6.29 -26.03,29.3 -0.3,6.14 -0.25,12.29 -0.32,18.43 -0.11,9.75 -2.56,18.12 -12.06,22.94 -14.72,7.46 -17.25,19.67 -13.96,34.96 1.92,8.9 2.29,18.26 2.36,27.43 0.08,11.03 -3.44,20.21 -11.91,28.57 -17.14,16.92 -15.19,44.11 2.85,61.03 13.5,12.65 14.89,17.04 5.86,32.86 -13.57,23.76 -32.54,42.35 -57.09,54.46 -5.31,2.63 -11.49,4.06 -17.42,4.68 -16.97,1.79 -26.5,-3.21 -31.97,-15.79 -8.56,-19.64 -7.06,-31.37 5.64,-43.71 3.28,-3.18 6.92,-6.06 9.86,-9.54 9.06,-10.75 10.29,-18.33 0.39,-28.28 -13.53,-13.57 -17.85,-29.57 -19.09,-47.71 -1.41,-20.67 -3.86,-41.25 -5.57,-61.89 -1.75,-21.35 4.79,-39.13 21.98,-52.64 7.76,-6.1 15.08,-12.96 21.68,-20.32 5.53,-6.18 10.78,-13.08 14.29,-20.56 11.18,-23.74 3.03,-37.44 -22.51,-37.94 -14.39,-0.28 -28.82,0.71 -43.21,1.59 -15.28,0.94 -27.49,-2.17 -37.15,-16.41 -9.17,-13.5 -22.03,-14.29 -36.25,-6.25 -12.46,7.06 -15.15,14.93 -9.72,28.79 0.83,2.14 1.87,4.22 3.08,6.17 11.25,18.08 10.32,33.85 -6.33,48.89 -13.06,11.79 -18.47,27.72 -17.22,45.76 0.37,5.31 0.22,10.85 -0.82,16.04 -4.64,23.37 -28.53,35.81 -48.75,23.64 -10.59,-6.39 -19.03,-17.06 -27.12,-26.89 -4.17,-5.06 -5.74,-12.43 -7.99,-18.93 -12.82,-37 -16,-39.4 -53.8,-37.25 -10.57,0.59 -21.09,2.39 -31.65,3.47 -17.39,1.79 -19.17,0.47 -22.54,-16.85 -2.93,-15.09 -4.96,-30.69 -23.53,-37.11 -7.14,10.46 -13.78,21.2 -21.44,31.13 -7.44,9.64 -16.76,17.86 -23.8,27.76 -15.42,21.64 -15.15,46.32 -9.22,70.67 1.74,7.18 9.22,13.54 15.28,18.86 7.98,7 17.72,11.96 25.71,18.96 16.29,14.29 16.96,29.89 1.91,45.63 -5.7,5.96 -12.94,10.56 -19.91,15.13 -8.26,5.42 -17.02,10.08 -25.49,15.17 -17.35,10.39 -28.47,25.67 -31.4,45.72 -3.86,26.53 -6.46,53.26 -9.31,79.93 -1.71,16 -2.54,32.11 -4.33,48.1 -1.67,14.82 -8.96,24.87 -23.36,30.97 -35.67,15.08 -9.78,4.47 -45.31,19.89 -11.79,5.11 -18.67,7.52 -31.08,10.88 -29.39,7.93 -43.87,1.46 -50.76,-28.75 -7.82,-34.21 -11.13,-69.5 -15.81,-104.42 -1.41,-10.59 -1.54,-21.48 -1.08,-32.19 1.47,-34.28 -10.78,-63.22 -33.26,-87.9 -20.56,-22.57 -41.89,-111.61 -62.96,-133.7 -27.41,-28.71 -55.58,-56.69 -82.15,-86.17 -27.93,-30.99 19.24,-287.67 6.87,-328.24 -22.83,-74.94 -45.22,-150.08 -50.07,-228.65 -4.07,-65.8 -6.43,-132.01 -4.25,-197.86 3.87,-116.83 1.07,-233.36 -6.01,-349.89 -6.42,-105.74 -13.11,-211.46 -20.41,-317.13 -3.86,-55.89 -10.42,-111.61 -13.65,-167.52 -5.15,-88.89 -11.22,-177.85 -12.15,-266.83 -2.02,-195.02 -1.89,-390.06 -0.96,-585.08 0.52,-106.04 11.75,-211.52 25.35,-316.57 12.42,-95.85 28.22,-191.26 39.8,-287.21 9.19,-76.15 14.64,-152.78 21.04,-229.25 9.1,-108.61 17.39,-217.28 26.31,-325.9 7.85,-95.61 16.04,-191.21 24.17,-286.79 15.71,-185.19 38.11,-369.36 81.32,-550.42 13.57,-56.87 36.76,-109 73.37,-154.28 43.71,-54.07 88.39,-107.35 133.06,-160.63 36.87,-43.97 70.69,-89.92 100.56,-139.26 39.44,-65.21 90.29,-121.08 146.32,-172.42 25.22,-23.1 52.98,-27.78 84.4,-20.64 13.32,3.01 26.57,6.32 39.72,10 11.36,3.18 17.37,-1.29 19.74,-12.37 1.76,-8.25 3.47,-16.53 5.57,-24.7 5.57,-21.76 11.97,-28.42 34.24,-30.28 45.79,-3.85 90.96,-0.89 134.21,16.91 8.43,3.46 16.81,7.32 25.58,9.54 11.22,2.85 19.85,-1.61 22.6,-10 3.64,-11.15 -1.03,-21.07 -12.6,-25.4 -5.65,-2.13 -11.75,-2.99 -17.56,-4.71 -5.82,-1.7 -11.6,-3.56 -17.25,-5.74 -2.03,-0.78 -3.65,-2.67 -6.56,-4.89 3.24,-3.6 5.07,-7.13 7.94,-8.58 68.21,-34.67 126.92,-83.68 189.33,-127.18 61.67,-43 103.97,-100.57 131.85,-169.36 22.42,-55.32 41.5,-112.01 62.57,-167.92 11.06,-29.35 22.86,-58.43 35.11,-87.29 4.14,-9.78 10.36,-18.72 16.14,-27.74 12.56,-19.58 30.26,-27.69 53.64,-28.61 58.32,-2.29 114.79,8.33 171.09,21.22 16.26,3.72 32.38,8.21 48.72,11.51 32.29,6.53 62.3,16.49 87.58,40.06 19.42,18.08 45.82,23.39 71.26,28.08 20.13,3.71 40.53,5.96 60.87,8.25 6.68,0.75 13.7,0.33 20.33,-0.86 15.79,-2.82 20.6,-8.33 22.67,-24.04 5.41,-41.21 24.81,-54.5 63.67,-41.09 31.83,11 60.07,28.56 84.78,52.36 15.81,15.22 33.65,28.43 51.5,41.25 6.43,4.61 15.46,7.17 23.39,7.4 5.67,0.17 14.28,-3.75 16.44,-8.32 2.19,-4.63 -0.76,-12.94 -3.64,-18.47 -2.28,-4.37 -7.75,-7.11 -11.97,-10.37 -24.85,-19.2 -47.67,-40.38 -65.76,-66.47 -8.93,-12.89 -20.61,-22.94 -36.14,-26.38 -44.12,-9.72 -88.32,-15.59 -132.11,1.91 -22.69,9.06 -44.28,19.74 -62.04,37.46 -12.62,12.61 -18.4,11.2 -27.96,-4.51 -1.58,-2.61 -3.29,-5.26 -4.22,-8.14 -8.43,-26.26 -28.35,-38.65 -53.06,-45.43 -19.75,-5.4 -39.44,-10.97 -59.19,-16.37 -40.69,-11.15 -70.63,-37.5 -96.29,-69.82 -2.36,-2.96 -4.22,-6.41 -5.81,-9.86 -1.22,-2.69 -1.64,-5.76 -2.51,-9.06 8.03,-12.33 21.46,-11.96 32.69,-12.87 52.92,-4.33 105.91,-9.52 158.93,-10.26 87.69,-1.26 168.65,25.89 238.53,77.86 59.03,43.92 121.59,76.92 191.5,97.74 24.57,7.32 47.72,19.49 71.42,29.71 13.7,5.9 20.01,15.72 21.28,31.82 9.24,116.49 10.76,233.2 8.37,349.88 -1.76,85.91 -7.67,171.75 -10.96,257.65 -0.94,24.49 0.39,49.1 1.44,73.61 0.36,8.3 2.01,16.94 5.08,24.61 1.98,4.98 7.82,12.09 11.51,11.86 5.72,-0.38 13.5,-4.97 16.07,-10.03 4.35,-8.61 6.64,-18.85 7.47,-28.59 3.52,-41.28 6.72,-82.61 8.94,-123.97 1.69,-31.43 2.01,-62.93 2.37,-94.42 0.13,-10.89 2.78,-18.14 13.39,-23.79 17.48,-9.32 25.04,-26.14 25.6,-45.83 0.24,-8.4 0.04,-16.98 -1.43,-25.24 -6.72,-37.57 -1.47,-73.61 14.39,-107.78 13.19,-28.44 26.15,-57.33 42.79,-83.72 26.06,-41.32 39.89,-86.3 43.72,-134.17 3.22,-40.25 26.3,-65.87 55.32,-88.13 12.67,-9.71 28.24,-12.35 43.25,-5.57 16.56,7.46 32.18,16.96 48.57,24.79 20.44,9.75 41.24,18.76 61.94,27.93 2.74,1.21 5.86,1.79 8.85,2.07 10.72,0.96 21.92,2.08 27.72,-10.03 4.89,-10.18 -1.48,-27.32 -13.25,-33.52 -8.63,-4.54 -18.32,-7.17 -27.74,-9.93 -10.92,-3.2 -22.15,-5.24 -33.03,-8.53 -5.36,-1.63 -10.22,-4.91 -16.58,-8.07 7.93,-11.57 18.35,-14.6 28.39,-16.65 38.59,-7.93 77.32,-15.19 116.04,-22.4 11.93,-2.22 24.1,-3.06 36.03,-5.25 29.56,-5.4 54.39,-19.15 71.82,-44.47 22.72,-33 48.7,-62.68 81.14,-86.37 7.29,-5.33 13.36,-12.48 19.62,-19.17 19.1,-20.36 26.17,-44.03 20.56,-71.99 -4.96,-24.67 -1.43,-31.9 23.21,-37.75 30.18,-7.17 61.09,-11.2 91.71,-16.39 9.72,-1.65 19.7,-2.01 29.26,-4.25 12.21,-2.85 14.85,-10.42 5.91,-19.71 -17.72,-18.41 -38.1,-34.14 -64.59,-35.07 -48.25,-1.69 -94.07,7.71 -131.46,41.15 -42.6,38.08 -84.85,76.67 -125.68,116.67 -15.58,15.26 -28.65,34.02 -39.51,53.13 -13.1,23.04 -30.93,31.76 -56.24,30.24 -28.75,-1.74 -57.79,-4.63 -86.33,-2.32 -38.43,3.09 -76.44,11.21 -114.78,16.11 -19.48,2.5 -39.25,3.37 -58.9,3.67 -17.3,0.25 -29.75,-8.51 -38.74,-23.85 -9.25,-15.82 -20.26,-30.56 -30.28,-45.93 -23.74,-36.41 -23.99,-63.13 2.83,-97.08 66.53,-84.25 141.22,-160.29 224.64,-227.78 44.53,-36.01 91.12,-45.71 144.17,-23.29 13.21,5.58 27.47,8.69 41.37,12.47 34.43,9.33 65.25,2.13 89.64,-24.29 19.63,-21.25 38.6,-43.46 55.18,-67.17 30.25,-43.19 57.82,-88.32 87.91,-131.64 15.15,-21.85 32.43,-42.4 50.44,-61.93 23.38,-25.35 31.76,-56.04 31.8,-88.74 0.04,-33.64 -4.07,-67.28 -6.25,-100.94 -1.22,-19.1 -3.63,-38.26 -2.89,-57.31 0.74,-18.85 7.42,-23.69 25.89,-24.91 16.61,-1.11 33.26,-1.81 49.81,-3.64 16.08,-1.79 28.25,4.56 37.57,16.91 9.64,12.8 18.1,26.54 27.82,39.28 10.64,13.94 21.65,27.68 33.6,40.46 3.4,3.64 11.08,5.67 15.94,4.56 3.03,-0.7 6.26,-8.65 6.25,-13.35 -0.03,-16.83 -0.07,-33.86 -2.53,-50.46 -6.75,-45.51 -13.06,-91.22 -22.78,-136.14 -7.25,-33.44 4.97,-58.36 25.04,-81.87 9.56,-11.18 22.71,-15.36 36.71,-15.59 18.2,-0.29 36.41,0.83 54.61,0.93 10.58,0.06 21.33,0.28 31.74,-1.32 14.33,-2.21 23.93,-12.7 25.37,-25.8 1.51,-13.62 -6.25,-22.43 -17.33,-26.78 -16.18,-6.35 -33.15,-10.61 -49.79,-15.75 -24.61,-7.58 -49.54,-14.32 -73.74,-23.09 -11.15,-4.06 -21.46,-11.35 -31.11,-18.57 -8.86,-6.63 -13.69,-16.32 -12.53,-28.14 1.67,-16.75 11.29,-23.07 26.8,-16.72 7.68,3.15 14.75,7.86 22.03,11.99 13.96,7.93 28.3,13.24 44.68,15.43 14.6,1.94 28.91,8.74 42.49,15.21 24.8,11.82 49.63,23.56 77.15,26.49 19.35,2.06 38.91,2.01 61.65,3.06 1.41,2.3 5,8.01 8.38,13.85 4.97,8.61 9.94,17.24 14.65,26 46.86,87.25 105.73,164.6 182.2,227.64 14.7,12.11 28.54,25.29 42.49,38.29 18.9,17.65 38.14,34.71 51.86,57.57 7.72,12.87 19.58,23.42 30.47,34.07 76.91,75.25 152.83,151.64 231.74,224.72 34.24,31.69 50.67,67.89 57.33,113.17 6.79,46.1 18.99,91.47 30.31,136.76 11.82,47.26 40.37,83.57 77.44,113.61 38.24,30.98 81.59,52.93 125.96,73.12 14.52,6.63 29.37,12.6 43.4,20.11 17.96,9.62 19.1,17.7 3.74,31.01 -16.29,14.14 -30.71,29.14 -40.9,48.69 -10.83,20.82 -9.44,41.49 -3.18,62.53 3.43,11.51 12.64,17.03 24.29,17.44 7.56,0.26 15.15,-0.93 22.72,-0.83 6.36,0.08 12.71,1.09 19.82,1.78 -1.89,12.79 -10.85,12.25 -17.14,15.43 -13.44,6.8 -28.07,12.22 -39.78,21.39 -17.36,13.6 -16.64,27.14 -0.64,42.28 4.42,4.19 9.15,8.1 14.04,11.71 15.15,11.22 26.46,25.4 32.09,43.6 15.59,50.5 47.59,88.47 88.72,119.46 46.85,35.31 93.81,70.47 140.85,105.53 39.71,29.6 79.7,58.81 119.35,88.47 33.83,25.31 69.59,38.53 112.78,27.46 32.78,-8.39 62.53,2.03 89.46,22.92 40.93,31.75 82.41,62.82 124.31,93.25 46.76,33.96 97.9,58.36 155.17,68.21 2.97,0.51 5.81,1.79 8.78,2.42 41.85,8.65 67.98,34.57 74.54,76.64 6.6,42.32 9.85,85.25 13.09,128.01 3.82,50.5 5.51,101.15 9.14,151.67 2.33,32.36 10.26,63.43 25.24,92.56 17.79,34.64 24.9,71.57 26.35,110.79 2.31,62.07 7.64,124.04 12.9,185.96 1.14,13.35 5.07,27.68 11.82,39.08 15.36,25.94 21.59,54.03 23.44,83.28 6.7,104.96 12.59,209.94 19.18,314.9 1.87,29.85 4.75,59.64 7.94,89.38 0.83,7.79 4.57,15.26 7.42,24.3 12.87,-5.67 13.08,-15.87 14.4,-24.1 2.68,-16.62 4.41,-33.5 5.25,-50.35 6.42,-127.43 1.4,-254.85 -1.22,-382.28 -2.69,-131.25 -6,-262.5 -6.96,-393.76 -0.46,-63.67 3.32,-127.46 17.68,-189.89 3.22,-14.06 8,-28.17 14.56,-40.93 11.08,-21.53 24.75,-23.21 40.94,-4.74 10.46,11.91 19.28,25.7 26.83,39.75 29.33,54.52 46.26,112.97 54.81,174.46 26.57,191.47 55.58,382.63 80.67,574.31 21.1,161.25 37.39,323.15 56.96,484.63 25.11,207.18 49.44,414.47 77.89,621.18 16.08,116.93 36.85,233.4 60.72,348.97 27.82,134.69 73.24,264.48 122.36,392.54 57.06,148.75 117.74,296.07 176.85,444.02 2.81,7.01 5.63,14.01 8.06,20.08 -24.71,15.42 -48.64,29.67 -71.74,45.18 -7.82,5.24 -14.68,12.92 -19.94,20.85 -10.13,15.22 -36.61,27.72 -53.35,22.5 -4.42,-1.37 -9.67,-5.81 -11.13,-10.03 -4.97,-14.35 -11.64,-29.18 -11.9,-43.93 -1.49,-81.35 -1.28,-162.74 -1.57,-244.11 0,-1.43 0.89,-2.86 1.83,-5.72 4.85,-1.26 10.48,-2.71 16.78,-4.33 -0.22,-3.22 0.65,-6.97 -0.81,-9.01 -6.6,-9.28 -12.78,-19.28 -21.06,-26.81 -39.52,-35.92 -79.2,-71.64 -119.68,-106.4 -47.44,-40.74 -96.06,-80.07 -143.53,-120.76 -15.35,-13.17 -31.81,-20.02 -51.78,-19.46 -15.76,0.44 -31.54,0.09 -49.61,0.09l0 71.57c-13.83,0.97 -25.58,2.32 -37.36,2.54 -60.18,1.11 -60.18,1.01 -109.72,-31.82 -23.49,-15.57 -47.37,-30.53 -70.33,-46.86 -16.22,-11.53 -33.17,-16.79 -53.11,-16.24 -37.15,1.03 -74.36,0.36 -111.54,0.36 -0.72,0 -1.46,-0.39 -4.11,-1.17 -4.92,-8.68 -5.83,-23.12 -20.54,-25.48 -15.46,-2.49 -30.32,-1.18 -43.93,7.25 -5.82,3.61 -11.42,7.6 -16.87,11.74 -125.13,94.7 -250.25,189.41 -375.31,284.21 -11.29,8.57 -22.14,17.76 -35.44,28.49 20.4,14.12 39.9,5.22 59.53,11.98 0.74,5.36 2.41,11.9 2.43,18.44 0.28,120.54 0.37,241.1 0.4,361.65 0,5.26 -1.17,10.53 -1.72,15.28 -20.15,14.46 -49.56,0.64 -63.56,25.07 -14.54,-1.6 -23.56,-8.58 -27.26,-20.21 -3.94,-12.3 -11.21,-16.25 -23.36,-17.04 -35.79,-2.33 -59.19,18.01 -61.25,54.48 -0.35,6.08 -0.8,12.18 -1.57,18.24 -0.17,1.21 -1.94,2.22 -4.28,4.69 -2.46,-0.44 -7.06,0.15 -9.19,-1.89 -19.35,-18.53 -42.99,-18 -66.4,-14.33 -15.42,2.42 -29.5,2.68 -44.14,-3.56 -8.19,-3.49 -17.67,-4.37 -26.67,-5.4 -8.99,-1.04 -18.36,-1.6 -25.72,9.58 4.03,6.12 8.61,12.79 12.87,19.67 9.78,15.75 13.78,32.26 6.29,50.31 -7.44,17.91 -17.26,22.67 -35.82,17.78 -16.82,-4.44 -33.64,-9.08 -50.71,-12.33 -13.86,-2.64 -26.96,-1.17 -36.28,12.43 -5.29,7.71 -13.53,8.65 -22.53,5.94 -9.42,-2.83 -19.01,-5.65 -28.71,-6.71 -17.36,-1.87 -32.44,4.54 -46.76,14.47 -24.54,17 -32.01,15.72 -52.04,-6.26 -15.31,-16.82 -23.94,-16.94 -39.26,-0.42 -5.18,5.6 -9.65,11.98 -15.36,16.94 -13.03,11.33 -24.21,8.86 -29.72,-7.47 -5.14,-15.18 -9.2,-30.94 -11.74,-46.76 -2.89,-18.04 -12.64,-26.93 -28.86,-34.4 -23.89,-11.03 -47.2,-20.44 -74.03,-17.71 -4.94,0.51 -10.17,-1.93 -17.29,-3.43 1.79,-5.82 2.56,-10.9 4.83,-15.14 3.24,-6.03 8.15,-11.14 11.38,-17.18 11.91,-22.26 4.74,-35.18 -19.92,-36.07 -8.33,-0.29 -16.7,0.13 -25.03,0.44 -15.14,0.57 -27.35,6.26 -37.46,18.47 -14.56,17.56 -19.97,17.42 -36.71,3 -13.19,-11.36 -32.36,-12.98 -42.65,0.74 -18.31,24.42 -44.06,30.76 -70.77,37.14 -13.01,3.11 -27.19,4.4 -36.51,17.53 6.35,22.3 38.26,19.93 42.93,46.59 -22.65,14.03 -33.93,-11.79 -53.35,-15.74 -5.5,5.89 -12.06,12.91 -16.26,17.39 -18.89,-0.26 -35.26,-1.71 -51.35,-0.11 -5.96,0.58 -11.22,8.31 -16.81,12.76 4.63,5.47 8.58,11.76 14.03,16.19 6.18,5.03 13.7,8.41 25.5,15.38 -30.12,12.44 -52.18,28.93 -83.32,20.97 -29.61,-7.59 -59.19,15.93 -66.18,49.08 -2.76,13.11 -5.32,25.44 -20.06,32.71 -2.94,-3.39 -5.39,-7.03 -8.61,-9.67 -3.35,-2.74 -8.32,-7.18 -11.08,-6.26 -12.79,4.26 -25.43,9.39 -37.43,15.6 -13.17,6.81 -16.03,18.75 -14.58,33.25 0.57,5.74 -2.87,12.82 -6.44,17.89 -10.85,15.42 -10.76,23.2 3.15,35.29 14.71,12.81 32.15,20.13 51.07,23.88 53.56,10.62 107.04,21.69 160.76,31.43 20.64,3.74 36.74,11.47 48.04,30.43 10.3,17.24 18.85,19.39 36.03,9.29 20.94,-12.3 40.65,-26.79 60.89,-40.32 27.88,-18.65 34.21,-18.5 60.42,2.33 13.13,10.43 25.9,21.3 38.9,31.9 20.57,16.78 43.68,22.47 70.17,20.02 30.13,-2.79 60.5,-3.42 90.78,-3.7 23.5,-0.22 44.53,8.91 63.38,22.65 18.44,13.47 36.48,27.53 54.53,41.57 16.09,12.51 33.76,20.04 54.41,20.46 19.42,0.4 37.38,6.87 53.46,17.52 14.36,9.51 29.5,11.53 45.71,8.24 19.3,-3.93 38.78,-7.46 57.75,-12.71 34.17,-9.44 67.57,-5.97 101.02,3.29 15.89,4.42 29.47,12.46 39.53,25.64 21.89,28.67 50.93,39.71 85.96,37.39 15.91,-1.06 31.85,-1.26 47.76,-1.93 55.04,-2.28 108.97,5.2 162.17,18.98 20.96,5.42 39.19,15.14 54.62,31.24 26.75,27.94 61.53,32.82 95.59,14.87 5.37,-2.82 10.35,-6.4 15.43,-9.75 15.58,-10.28 14.98,-9.39 30.65,0.9 7.78,5.11 18.01,7.5 27.44,8.75 18.78,2.47 37.85,2.7 56.64,5.04 11.85,1.49 24.01,4.04 30.92,17.42 -2.04,3.15 -3.72,6.57 -6.15,9.29 -7.75,8.6 -5.85,17.08 0.69,24.76 6.43,7.53 13.5,14.57 20.85,21.18 30.93,27.86 52.17,61.51 61.68,102.56 2.42,10.44 5.78,20.68 9.15,30.86 6.42,19.39 17.47,35.67 33.04,48.74 4.08,3.43 8.37,6.59 12.57,9.89 66.06,51.98 137.5,54.47 212.5,23.54 15.68,-6.46 29.82,-15.21 39.93,-29.44 12.58,-17.72 15.83,-36.09 4.39,-55.89 -4.5,-7.8 -8.15,-16.11 -12.43,-24.65 10.21,-7.89 18.49,-2.78 26.64,0.09 24.43,8.58 48.86,16.96 75.33,14.99 16.21,-1.21 31.89,-3.47 41.78,-18.96 4.87,-7.64 11.98,-9.26 19.89,-6.33 39.82,14.78 79.72,29.33 119.22,44.94 13.97,5.51 21.22,16.85 18.39,33.09 -0.78,4.52 -0.85,9.2 -0.76,13.79 0.3,15.88 7.29,26.42 19.68,30.15 14.8,4.47 25.86,0.87 34.28,-13.53 5.39,-9.24 12.28,-13.92 22.19,-12.08 33.28,6.19 63.91,18.9 90.63,40.28 2.1,1.67 2.92,4.96 5.83,10.22 -8.68,3.24 -16.14,5.89 -23.52,8.79 -19.69,7.78 -40.12,14.13 -58.8,23.9 -19.49,10.21 -19.06,18.54 -1.81,31.64 7.03,5.32 16.7,8.62 15.74,23.12 -5.18,1.76 -11.26,3.76 -17.3,5.92 -17.46,6.18 -20.41,16.46 -8.61,31.2 3.31,4.12 7.49,7.61 11.57,11 3.47,2.87 7.4,5.19 10.14,7.08 -3.67,16.19 -10.33,23.59 -24.39,22.4 -5.28,-0.44 -11.03,-1.14 -15.82,0.5 -5.18,1.76 -9.51,6.13 -14.22,9.35 3.15,4.7 5.4,10.63 9.67,13.78 7.13,5.26 15.54,8.76 23.56,13.08 -3.08,12.69 -12.97,14.21 -20.82,17.52 -21.79,9.2 -21.53,8.87 -17.74,31.22 0.9,5.32 0.33,13.08 -2.89,16.54 -12.29,13.17 -13.43,27.65 -11.24,44.72 2.67,20.85 -8.68,32.25 -28.67,32.33 -19.75,0.07 -31.17,-19.17 -21.87,-37.06 1.75,-3.38 4.46,-6.24 6.3,-9.57 8.99,-16.28 7.61,-27.47 -4.85,-41.31 -13.46,-14.93 -13.4,-19.12 0.17,-34.56 4.03,-4.58 8.12,-9.17 11.71,-14.1 21.47,-29.65 15.29,-41.78 -2.33,-58.3 -13.72,-12.85 -10.26,-29.28 -11.18,-44.18 1.54,-2.07 2.21,-3.58 3.36,-4.4 6.53,-4.7 16.68,-6.65 15.61,-17.49 -1.03,-10.33 -8.69,-15.59 -17.72,-18.97 -3.56,-1.32 -7.14,-2.56 -10.61,-4.07 -7.46,-3.22 -13.28,-7.81 -11.82,-17.25 1.46,-9.37 3.74,-18.3 14.74,-20.8 2.21,-0.5 4.57,-0.43 6.74,-1.09 13.24,-4.06 15.71,-9.87 9.56,-21.86 -4.54,-8.85 -16.63,-14.18 -12.08,-27.74 0.43,-1.26 -8.78,-7.88 -13.92,-8.44 -5.43,-0.61 -13.43,1.24 -16.64,5.13 -13.92,16.82 -28.92,33.51 -38.76,52.74 -7.67,14.98 -12.17,31.12 -26.49,41.68 -3.56,2.63 -6.48,6.54 -8.82,10.39 -4.37,7.21 -2.79,13.56 5.02,16.94 6.89,2.99 14.22,4.9 22.44,7.65 -0.58,17.25 2.85,33.71 -14.1,47.54 -15.32,12.52 -11.61,23.64 6.92,31.75 2.74,1.19 5.48,2.35 12.04,5.15 -7.85,4.57 -13.18,7.57 -18.41,10.72 -7.64,4.63 -13.68,11.2 -11.72,20.46 2.17,10.17 11.37,11.08 20.04,11.18 8.06,0.09 16.09,0.03 25.32,0.03 -1.02,14.56 -9.36,18.17 -17.86,21.19 -13.57,4.83 -27.25,9.4 -40.98,13.72 -10.33,3.25 -27.89,-3.18 -31.46,-11.89 -4.61,-11.25 1.31,-19.09 9.85,-25.47 9.83,-7.35 14.61,-17.33 15.38,-29.5 1.29,-20.65 4.39,-41.36 3.56,-61.92 -1.2,-29.47 -20.85,-42.43 -48.67,-33.39 -17.7,5.76 -31.98,17.08 -43.17,32.42 -7.61,10.44 -15.92,20.37 -23.92,30.53 -3.32,4.19 -7.01,8.14 -9.92,12.6 -15.48,23.79 -13.74,34.78 8.02,52.89 12.15,10.11 25.13,19.54 32.57,37.76 -8.74,4.68 -16.72,8.44 -24.2,13.04 -13.79,8.48 -13.5,22.79 1.17,29.89 7.32,3.54 16.09,3.94 24.12,6.11 20.5,5.57 25.53,13.58 23.33,38.46 -15.24,4.97 -29.15,12.07 -36.87,29.26 -5.18,11.54 -16.67,11.59 -23.32,0.74 -5.41,-8.79 -7.94,-19.65 -10.39,-29.91 -1.75,-7.36 -0.46,-15.43 -2.02,-22.86 -1,-4.81 -3.78,-11.86 -7.32,-13.02 -14.42,-4.65 -16.3,-17 -19.63,-28.64 -3.65,-12.79 -5.65,-26.85 -23.54,-23.63 -3.57,-21.22 5.25,-40.42 -3.13,-61.17 -6.69,1.36 -13.03,2.94 -19.47,3.86 -12.47,1.78 -18.63,-1.94 -17.32,-14.13 1.89,-17.82 -4.47,-29.49 -19.08,-38.06 -2.5,-1.46 -5.11,-4.08 -6,-6.75 -6.96,-20.57 -22.39,-24.11 -41.58,-24.04 -10.09,0.04 -20.21,-5.03 -30.29,-7.92 -8.99,-2.58 -17.92,-5.35 -26.88,-8.04 -1.36,1.42 -2.71,2.83 -4.07,4.24 1.97,5.83 2.97,12.29 6.15,17.33 4.88,7.71 12.24,13.89 16.68,21.78 3.02,5.36 5.26,13.28 3.67,18.8 -4.46,15.4 1.37,25.2 13.36,33.06 3.81,2.5 7.92,4.56 11.65,7.17 13.49,9.5 14.43,12.44 10.54,28.62 -1.25,5.18 -2.5,10.49 -2.71,15.78 -0.64,15.72 3,20.69 17.5,25.1 2.9,0.87 6.06,0.86 8.93,1.79 7.81,2.5 18.76,3.74 18.25,14 -0.41,8.26 -5,17.5 -10.43,23.98 -4.28,5.08 -12.67,6.64 -19.9,10.08 -4.07,-6.29 -6.65,-10.86 -9.78,-15 -8.67,-11.51 -18.38,-11.71 -27.97,-0.54 -4.42,5.14 -7.63,11.67 -12.78,15.76 -7.14,5.68 -13.89,4 -18.71,-4.63 -9.17,-16.36 -6.6,-31.14 10.49,-40.67 22.72,-12.65 30.53,-22.32 1.83,-45.63 -9.43,-7.68 -20.08,-13.83 -29.64,-21.37 -15.56,-12.29 -29.5,-26.17 -38.64,-45.13 4.3,-1.63 8,-2.57 11.28,-4.31 14.79,-7.86 19.21,-22.57 7.15,-33.44 -15.74,-14.19 -17.86,-30.5 -16.32,-49.68 0.82,-10.3 1.79,-21.74 -10.61,-30.18 -19.75,12.67 -41.72,19.65 -66.02,13.8 -2,6.38 -4.26,10.61 -4.54,14.99 -0.92,14.67 -6.47,26.53 -18.03,35.68 -3.52,2.78 -6.52,6.51 -8.93,10.35 -7.65,12.15 -5.58,18.98 7.44,25.69 2.68,1.39 5.57,2.53 8.5,3.24 11.58,2.81 15.04,10.33 15.33,21.97 0.57,23.78 2.14,47.54 4.14,71.24 1.92,22.68 3.54,23.9 26.46,29.19 15.15,3.5 20.33,25.6 8.76,38.91 -3.43,3.96 -8.47,6.44 -12.33,10.08 -8.79,8.28 -9.04,9.56 -8.31,27.19 8.36,2.42 17.22,4.35 25.6,7.56 10.08,3.88 15.98,11.28 15.26,22.97 -0.79,12.61 -11.21,29.67 -22.53,37.78 -10.67,-9.69 -21.83,-18.31 -30.9,-28.79 -4.35,-5.03 -6.18,-13.49 -6.61,-20.56 -1.33,-21.65 -1.06,-22.87 -22.64,-26.87 -14.76,-2.74 -30,-2.92 -46.87,-4.41 -3.08,-19.43 -17.08,-24.06 -35.68,-22.69 -11.02,0.8 -19.68,-3.68 -26.92,-13.68 -4.74,-6.53 -14.07,-11.74 -22.13,-13.21 -13.25,-2.43 -27.22,-2.51 -40.72,-1.43 -15.15,1.22 -20.58,6.87 -20.64,22.09 -0.06,17.57 1.74,35.22 3.71,52.72 1.5,13.3 8.89,22.74 22.22,26.17 13.5,3.47 25.61,2.6 32.98,-11.86 0.57,-1.12 2.53,-1.53 4,-2.36 9.5,0.8 9.67,8.54 9.83,15.18 0.31,12.8 3.87,21.69 17.81,25.54 5.03,1.37 9.15,9 12,14.64 2.32,4.57 2,10.46 3.07,15.72 5.09,25.06 10.78,30.5 35.49,34.18 8.74,1.3 17.48,2.58 26.69,3.94 1.14,20.39 -9.29,30.57 -23.57,37.62 -11.36,5.64 -16.89,2.57 -19.57,-9.78 -0.81,-3.72 -0.43,-7.72 -1.29,-11.42 -3.11,-13.47 -9.52,-18.07 -23.13,-14.53 -12.13,3.17 -23.76,8.26 -34.71,12.18 -2.14,-17.08 -1.98,-33.36 -6.75,-48 -3.54,-10.87 -12.08,-21.25 -20.91,-28.89 -10.03,-8.67 -26.09,-7.22 -30.09,2.89 -8.35,21.03 -25.47,30.82 -44.36,41.9 -9.47,-11.06 -11.43,-25.42 -14.53,-39.28 -1.52,-6.72 -2.17,-13.7 -4.15,-20.26 -3.04,-10.14 -10.85,-14.85 -20.85,-14.31 -10.96,0.58 -12.39,9.03 -12.93,18.15 -0.53,8.69 -2.03,17.32 -3.15,26.36 -15.64,-1.04 -18.71,-10.8 -20.72,-20.47 -2.03,-9.72 -2.62,-19.76 -3.72,-29.68 -1.17,-10.54 -4.33,-20 -15.74,-22.79 -10.85,-2.64 -21.68,-2.35 -27.74,9.41 -5.25,10.2 -14.1,10.25 -23.37,10.11 -14.14,-0.22 -27.13,2.96 -37.54,13.39 -11.14,11.14 -13.07,21.26 -1.63,31.91 13.17,12.22 28.68,22.17 44.18,31.37 9.02,5.36 19.02,7.14 22.04,20.24 2.24,9.61 11.58,8.76 18.79,4.56 5.03,-2.92 9.06,-7.63 14.36,-12.26 13.17,20.72 -3.38,41.56 3.97,64.04 6.8,0.5 14.78,1.2 22.75,1.61 20.26,1.03 20.26,0.97 24.72,21.87 4.5,21.14 16.53,29.43 35.49,24.39 11.69,-3.13 16.51,-12 19.74,-22.96 5.22,-17.67 9.44,-20.01 25.81,-14.28 7.04,2.47 13.98,6.14 19.98,10.63 11.03,8.26 11.53,12.78 4.98,25.01 -1.79,3.36 -4.28,6.46 -5.43,10.02 -6.86,20.96 5.47,35.57 26.79,31.86 14.29,-2.48 25.53,-9.32 30.08,-24.04 18,8.39 21.25,15.17 13,29.35 -5.33,9.18 -12.47,17.33 -19.21,25.63 -6.74,8.29 -15.24,15.37 -20.7,24.4 -8.65,14.24 -20.77,19.39 -36.28,18.93 -18.71,-0.54 -33.63,6.86 -46.08,20.92 -6.92,7.81 -14.1,16.49 -29.5,14.92 -1.26,-6.33 -3.22,-13.29 -3.94,-20.39 -2.11,-20.68 -5.99,-24.44 -27.08,-25.43 -6.75,-0.32 -13.93,0.18 -20.14,-1.99 -12.46,-4.35 -13.82,-15.78 -3.65,-24.4 1.72,-1.47 3.93,-2.36 5.68,-3.82 11.67,-9.79 11.39,-15.21 -1.32,-24.46 -2.44,-1.76 -5.19,-3.13 -6.9,-4.14 -2.44,-12.8 -4.4,-24.75 -7.06,-36.54 -3.61,-15.97 -17.81,-13.63 -29.02,-15.29 -2.65,-7.39 -4.4,-14.07 -7.37,-20.14 -6.21,-12.68 -15.18,-15.14 -25.25,-4.97 -13.78,13.92 -25.81,29.61 -39.83,46.03 14.78,9.89 26.68,18.94 14.83,37.02 -12.11,2.93 -22.91,-2.74 -32.86,-9.4 -20.22,-13.53 -25.6,-4.33 -29.28,13.62 -1.97,9.65 -3.24,19.99 -1.89,29.6 0.91,6.58 5.51,15.11 10.94,17.99 7.82,4.12 19.14,4.36 24.9,-4.39 8.48,-12.87 19.51,-10.74 30.08,-6.71 5.26,2 10.79,8.47 12.07,13.92 0.74,3.11 -6.2,9.19 -10.78,12.18 -4.97,3.24 -11.51,3.89 -16.89,6.62 -8.69,4.42 -17.35,9.32 -19.68,22.06 27.53,7.59 26.32,29.91 25.71,51.6 -0.36,13.32 -3.09,25.72 -21.17,31.5 -1.81,-7.58 -3.85,-13.74 -4.64,-20.04 -1.53,-12.06 -4.32,-22.74 -17.97,-26.18 -13.93,-3.52 -23.58,1.37 -29.47,14.51 -0.56,1.26 -2.18,2.03 -4.25,3.86 -11.48,-6.52 -11.11,-16.5 -6.62,-26.75 2.71,-6.2 7.79,-11.3 11.24,-17.23 13.06,-22.46 1.06,-46.36 -24.31,-48.57 -3.78,-0.33 -7.6,-0.26 -11.39,-0.08 -17.18,0.82 -18.47,1.98 -21.97,19.68 -1.03,5.18 -1.89,10.39 -2.96,16.37 -13.65,2.8 -25.72,1.29 -38.03,-6.65 1.43,-4.6 2.33,-9.02 4.14,-13.02 3.54,-7.83 7.72,-15.5 0,-23.15 -6.83,-6.78 -21.37,-9.46 -29.74,-3.61 -6.58,4.59 -13.97,11.04 -16.29,18.24 -7.63,23.54 -23.32,38.82 -43.64,50.75 -4.41,2.58 -7.86,6.83 -13.43,11.83 3.6,6.86 7.04,13.39 10.46,19.93 6.64,12.71 9.4,25.98 4.67,39.96 -6.01,17.81 -26.54,23.46 -40.33,11 -4.48,-4.06 -8.3,-9 -11.83,-13.96 -22.99,-32.39 -45.78,-64.92 -68.72,-97.35 -3.51,-4.97 -6.98,-10.14 -11.3,-14.36 -20.72,-20.21 -39.85,-19.26 -58.58,2.68 -3.47,4.04 -6.22,8.72 -9.63,12.83 -10.82,13.11 -18.25,13.58 -29.5,0.62 -6.47,-7.44 -11.15,-16.43 -17.1,-24.37 -13.22,-17.68 -19.13,-17.78 -36,-3.48 -3.92,3.32 -11.46,6 -15.81,4.48 -62.93,-21.96 -105.59,14.28 -147.4,52.22 -8.75,7.94 -15.11,18.57 -24.9,30.87 17,1.71 30.22,2.69 43.36,4.43 16.74,2.18 17.74,3.64 17.61,20 -0.06,6.07 -0.02,12.13 -0.02,21.44 10.33,0.26 19.82,0.52 29.29,0.76 27.93,0.71 33.89,9.15 21.41,33.47 -13.53,26.33 -10.24,35.61 20.32,30.9 3.74,-0.57 7.58,-0.48 11.33,-0.98 57.44,-7.47 78.81,35.5 83.72,75.35 0.92,7.46 1.22,15.02 2.06,25.4 10.08,-3.35 17.99,-5.97 29.69,-9.85 0,0 -54.26,101.76 -102.57,97.85 -48.31,-3.9 -15.46,25.42 -36.71,52.78 -21.26,27.37 -28.99,48.87 -48.31,60.61 -19.32,11.72 -47.28,-11.04 -27.06,37.14 20.24,48.18 -15.46,41.06 -42.5,64.52 -27.06,23.46 -30.92,66.46 -85.03,50.82 -54.1,-15.64 -86.94,99.69 -96.6,130.97 -9.67,31.28 -34.78,107.53 -50.24,130.98 -15.46,23.46 -57.97,162.25 -146.85,181.8 -88.89,19.56 -148.78,74.29 -183.56,138.8 -34.78,64.5 -54.11,60.6 -204.82,82.1 -150.71,21.5 -388.36,27.37 -423.15,-27.36 -34.78,-54.74 -21.85,-54.74 -83.37,-52.79 -61.53,1.96 -59.6,-41.04 -134.96,-84.06 -75.35,-43 -63.77,-37.14 -179.7,-70.37 -115.93,-33.24 -261.56,101.67 -373.63,78.21 -112.06,-23.44 -148.78,30.06 -164.24,-30.56 -15.46,-60.59 -15.46,-62.06 -25.11,-73.06 -9.67,-11 28.07,-62 0,-89.19zm2707.31 -785.52c-0.52,-15.47 -8.43,-23.18 -22.57,-27.48 -32.96,-10 -33.33,-11.26 -24.64,-44.74 1.15,-4.44 2.19,-8.92 3.51,-13.32 5.68,-18.89 9.13,-22.54 23.49,-23.08 15.18,-0.57 29.57,2.36 35.82,18.43 5.57,14.36 10.25,28.72 22.64,39.04 2.52,2.09 4.72,7.11 4.1,10.15 -5.03,24.2 -14.89,45.67 -37.24,64.02 -2.33,-10.08 -4.89,-16.5 -5.11,-23.02zm541.67 -187.89c-0.3,-8.42 -0.21,-16.86 0.24,-25.28 1.11,-21.44 2.24,-42.89 3.96,-64.28 0.58,-7.31 2.93,-14.47 5.78,-27.82 13.78,9.04 24.37,13.74 31.96,21.46 14.36,14.61 27.7,30.42 40.15,46.74 10.68,14 23.17,24.24 40.44,27.44 18.18,3.37 34.36,1.28 46.24,-15.96 11.29,-16.4 27.81,-25.94 47.07,-29.72 16.21,-3.2 23.51,1.97 24.35,18.33 0.58,11.29 -1.5,22.83 -3.28,34.11 -1.54,9.93 -8.01,16.07 -17.4,19.37 -6.4,2.26 -13.14,4.25 -18.76,7.89 -13.21,8.54 -14.56,21.17 -3.87,32.82 4.61,5.03 10.5,8.85 15.24,13.78 9.82,10.22 9.15,17.59 -1.86,26.85 -13.26,11.18 -27.58,13.08 -41.42,1.39 -17.35,-14.67 -35.18,-29.98 -48.19,-48.37 -17.68,-24.98 -39.33,-31.03 -67.11,-25.93 -11.88,2.17 -24.07,2.79 -36.14,3.6 -11.21,0.75 -16.98,-5.36 -17.37,-16.42zm292.44 -97.29c-7.36,6.64 -14.96,-2.75 -21.25,-7.72 -4.72,-3.72 -8.96,-8.26 -12.74,-13 -14.5,-18.14 -31.28,-33.1 -53.11,-41.64 -2.62,-1.03 -4.69,-3.52 -10.53,-8.07 10.03,-7.01 17.5,-11.83 24.52,-17.26 8.87,-6.86 17.92,-13.67 25.9,-21.51 10.4,-10.22 30.03,-12.43 41.15,-3.5 9.85,7.92 11.36,18.82 3.67,30.47 -2.9,4.4 -7.04,7.96 -10.29,12.17 -2.69,3.48 -4.89,7.36 -8.69,13.18 6.37,4.98 12.79,8.78 17.59,14.08 4.83,5.32 10.97,11.98 11.3,18.33 0.4,8.24 -1.97,19.47 -7.52,24.47zm-165.03 -145.18c3.51,-4 8.18,-7.53 10.19,-12.21 8.75,-20.46 27.68,-21.42 43.75,-25.26 13.1,-0.46 20.06,7 17.82,18.43 -0.83,4.32 -2.83,9.07 -5.78,12.2 -11.48,12.24 -16.98,26 -17.48,43.26 -0.49,16.48 -11.39,27.32 -24.32,29.03 -12.18,1.61 -21.89,-4.97 -29.82,-20.24 -10.52,-20.25 -9.54,-27.94 5.64,-45.21zm-596.99 953.54c-17.51,0.11 -29.87,-9.29 -35.65,-26.83 -3.82,-11.63 -8.57,-22.96 -12.79,-34.46 -7.92,-21.58 -23.03,-35.65 -44.17,-43.43 -13.53,-4.99 -27.18,-9.64 -40.61,-14.87 -11.93,-4.65 -20.93,-12.25 -23.21,-25.99 -3.89,-23.37 -15.94,-42.76 -29.19,-61.72 -5.93,-8.47 -13.74,-16.89 -9.21,-32.04 9.61,0.61 19.78,1.33 29.94,1.87 14.32,0.78 28.76,2.85 42.94,1.75 16.03,-1.24 18.64,-5.63 20.39,-21.92 0.85,-7.93 2.28,-15.79 4.04,-27.68 8.22,5.75 13.08,8.7 17.46,12.26 21.64,17.71 34.56,14.06 43.36,-12.4 0.93,-2.81 2.1,-5.53 3.02,-7.93 9.85,-3.06 12.79,4.5 16.53,9.72 7.65,10.69 17.62,16.07 30.64,17.24 13.58,1.19 27.1,3.44 40.57,5.6 13.17,2.09 23.04,-1.96 32.01,-12.46 18.9,-22.14 27.21,-23.17 53.29,-10.15 4.08,2.03 8.14,4.13 12.22,6.15 19.28,9.58 38.01,9.32 55.93,-3.43 49.36,-35.06 102.43,-25.94 155.33,-12.29 16.86,4.36 18.98,12.51 15.51,30.03 -3.42,17.19 -7.5,34.58 -7.92,51.96 -0.39,16.63 -3.64,28.42 -21.36,32.21 -2.57,0.56 -4.64,3.5 -7.32,5.64 5.2,22.63 32.04,23 40.78,42.24 -7.96,19.1 -25.42,24.85 -42.85,29.61 -10.15,2.78 -21.02,4.04 -31.54,3.97 -26.59,-0.17 -50.57,8.64 -74.14,19.68 -18.56,8.7 -32.69,21.67 -41.86,40.49 -4.19,8.6 -10.39,16.21 -16.39,25.33 -17.77,-10.54 -15.89,-32.44 -34.65,-39.07 -3.28,5.82 -6.65,10.65 -8.91,15.97 -7.89,18.68 -21.69,29.92 -41.5,31.29 -30.18,2.1 -60.46,3.46 -90.71,3.67zm-4152.12 -281.68c-12.42,-22.43 -28.5,-24.06 -45.38,-18.14 -7.11,2.5 -14.53,8.46 -18.46,14.93 -11.01,18.09 -15.76,22.48 -28.31,20.15 -17.28,-3.21 -30.28,-17.24 -30.61,-35 -0.33,-17.93 3.24,-35.54 14.43,-49.85 9.35,-11.93 20.03,-23.01 31.32,-33.11 10.69,-9.54 15.92,-9.56 25.12,1.1 11.77,13.58 25.77,16.74 42.61,16.56 31.39,-0.33 44.65,22.28 30.17,50.85 -5.08,10.03 -12.14,19.03 -20.9,32.51zm-371.1 -5831.5c-14.54,-6.29 -28.94,-13.7 -41.82,-22.9 -17.94,-12.82 -23.54,-31.08 -16.71,-52.86 10.74,-34.25 31.17,-61.2 59.98,-81.64 27.96,-19.79 59.13,-32.08 93.33,-32.44 38.65,-0.4 77.35,1.44 116,2.88 25.78,0.96 51.52,3.98 77.26,3.93 12.5,-0.03 25.71,-3.25 37.32,-8.13 27.29,-11.46 54.08,-24.24 80.58,-37.48 65.09,-32.53 132.65,-56.42 205.22,-64.71 54.26,-6.21 108.39,-14.14 163.26,-11.18 4.48,0.24 8.97,0.63 13.47,0.94 1.21,2.57 2.79,4.5 2.97,6.54 4.89,55.93 6.67,111.82 -0.81,167.71 -3.09,23.11 -13.97,40.93 -34.53,50.83 -20.35,9.82 -26.61,26.01 -25.43,46.82 0.65,11.47 2.28,22.89 3.36,34.35 1.37,14.6 -1.72,27.35 -14.06,36.74 -38.85,29.57 -78.14,58.42 -122.98,78.28 -22.36,9.9 -45.36,18.42 -70.22,16.24 -11.04,-0.97 -23.08,-3.18 -32.41,-8.72 -29.14,-17.33 -53.5,-40.36 -70.09,-70.71 -18.14,-33.19 -18.79,-65.94 4.64,-97.07 12.78,-16.96 26.42,-33.26 41.5,-52.15 -23.61,-4.28 -44.96,-6.72 -67.08,-3.13 -22.99,3.74 -37.44,16.2 -43.36,38.26 -4.56,17 -7.76,34.39 -10.89,51.72 -8.28,45.96 -15.07,54.76 -60.08,61.4 -70.87,10.43 -140.72,5.79 -208.08,-21.43 -26.74,-10.82 -53.89,-20.65 -80.36,-32.09zm2088.22 88.31c-14,-1.87 -14.86,-8.93 -15.67,-15.65 -2.72,-22.82 -6.18,-45.59 -7.68,-68.5 -4.93,-75.56 4.67,-150.06 18.2,-224.06 6.44,-35.25 31.94,-50.64 62.72,-40.06 18.76,6.46 29.11,19.6 28.04,39.61 -0.68,12.82 -3.13,26.06 -7.58,38.04 -10.64,28.65 -22.64,56.82 -34.68,84.93 -9.04,21.08 -19.04,41.74 -28.54,62.64 -11.6,25.53 -17.22,52.1 -14.98,80.41 1.06,13.51 0.18,27.18 0.18,42.64zm-1397.69 -746.81c-55.01,5.61 -96.33,-40.06 -91.56,-96.5 1.52,-17.86 7.02,-24.15 24.04,-28.5 8.03,-2.06 16.43,-3.78 23.67,-7.59 20.46,-10.79 27.18,-27.31 20.97,-49.99 -2.42,-8.83 -6.28,-17.25 -9.17,-25.97 -2.6,-7.78 -4.74,-15.71 -6.72,-22.35 7.96,-10.61 16.4,-7.65 24.36,-5.86 24.4,5.52 48.65,11.74 73.15,16.76 9.54,1.96 19.67,2.65 29.35,1.81 14.97,-1.33 19.67,-8.68 15.97,-23.54 -2.41,-9.64 -6.61,-18.79 -9.26,-28.37 -7.82,-28.09 -1.71,-44.57 24.68,-56.01 22.26,-9.65 33.03,-24.52 34.82,-48.68 0.94,-12.78 5.43,-25.44 9.4,-37.81 10.15,-31.59 32.11,-49.59 64.48,-53.76 17.25,-2.22 34.8,-4.44 52.06,-3.64 53,2.43 106.12,4.67 157.93,17.92 14.14,3.61 25.64,-0.13 34.28,-11.61 26.11,-34.67 42.53,-74.11 54.87,-115.49 2.75,-9.21 -0.58,-16.63 -7.41,-22.58 -9.18,-8.04 -19.09,-15.29 -27.72,-23.89 -16.71,-16.65 -34.18,-32.83 -48.72,-51.32 -25.17,-32.02 -38.89,-68.71 -39.6,-110.46 -0.46,-26.02 -4.11,-51.97 -6.37,-77.94 -0.28,-3.06 -0.93,-6.08 -1.2,-9.14 -4.64,-53.21 9.06,-76.12 68.39,-93.62 19.65,-5.81 30.5,0.71 36.11,20.85 4.29,15.39 7.04,31.51 8.14,47.47 2.61,38.26 19.75,66.43 52,86.61 35,21.9 71.47,40.21 110.29,54.02 15.22,5.41 29.71,5.14 44.11,-1.92 21.14,-10.38 42.97,-19.57 63.15,-31.6 38.32,-22.85 79.15,-26.42 120.96,-16.82 41.71,9.58 83.93,12.51 126.24,15.57 34.82,2.51 66.94,12.4 95.97,32.2 2.51,1.71 5.13,3.26 7.68,4.92 32.43,20.81 51.1,19.53 73.1,-12.9 13.09,-19.33 27.22,-19.74 46.11,-17.69 101.8,10.94 203.67,21.35 305.53,31.8 27.9,2.86 55.92,4.89 83.79,8.06 19.39,2.21 36.1,-3.3 50.68,-15.59 11.64,-9.81 22.58,-20.46 33.85,-30.72 4.33,-3.94 8.71,-7.85 13.6,-12.28 5.29,16.89 9.97,32.18 14.89,47.39 7.41,22.94 21.43,41.5 42.56,51.86 41.53,20.37 83.19,41.07 126.46,57.06 33.47,12.37 69.15,4.89 103.37,-2.8 24.24,-5.44 48.1,-12.67 74.81,-19.82 0,17.7 -0.21,33.64 0.06,49.59 0.28,16.11 -0.46,32.43 1.93,48.25 2.97,19.56 -1.17,36.81 -11.71,52.5 -37.07,55.2 -74.56,110.1 -111.9,165.11 -0.86,1.26 -1.9,2.39 -2.76,3.65 -20.25,30.31 -48.07,40.46 -84.13,38.58 -60.56,-3.15 -121.3,-3.67 -181.96,-2.9 -24.75,0.32 -49.72,5.5 -74.06,10.97 -36.42,8.22 -67.21,26.36 -91.61,56.14 -22.36,27.28 -48.54,50.82 -80.06,67.26 -12.67,6.61 -25.33,14.1 -41.59,11.67 -0.61,-4.56 -1.32,-6.83 -1.17,-9.04 4.41,-63.93 -2.57,-127.24 -10.53,-190.42 -5.57,-44.24 4.17,-83.79 32.38,-118.32 17.87,-21.89 35.9,-43.64 53.91,-65.4 4.71,-5.7 9.61,-11.24 11.97,-20.28 -10.98,7.25 -22.25,14.11 -32.89,21.85 -14.17,10.29 -27.56,21.68 -41.78,31.89 -36.65,26.29 -57.18,63.1 -66.72,106.36 -22.31,101.08 -30.47,203.15 -18.33,306.4 0.18,1.52 0.08,3.17 0.64,4.54 12.63,31.33 -2.44,53.14 -24.5,72.32 -8.61,7.48 -17.22,15.28 -26.85,21.25 -28.75,17.82 -45.65,44.21 -56.14,75.68 -4.79,14.39 -9.58,28.78 -14.29,42.89 -17.07,0.46 -30.22,-5.36 -40.46,-15.89 -23.36,-24.01 -48.15,-47.14 -68.01,-73.93 -18.64,-25.13 -41.18,-39.93 -70.61,-45.9 -43.09,-8.74 -86.12,-17.92 -129.36,-25.89 -83.5,-15.43 -167.15,-29.96 -250.68,-45.25 -35.07,-6.4 -69.74,-2.21 -104.08,3.91 -128.41,22.79 -256.56,47.03 -385.03,69.41 -58.97,10.26 -118.26,19.43 -177.78,25.5zm2797.56 -844.33c-35.01,-45.31 -70.78,-90.32 -101.75,-138.41 -21.31,-33.07 -35.42,-70.96 -52.04,-107.01 -3.28,-7.13 -3.33,-15.76 -5.6,-27.44 13.43,1.47 23.81,1.74 33.78,3.87 33.33,7.15 66.47,15.22 99.79,22.43 11.02,2.39 24.19,5.62 31.04,-6.25 6.51,-11.29 -1.17,-22.26 -7.86,-31.65 -9.76,-13.68 -20.64,-26.54 -30.22,-40.33 -17.12,-24.6 -12.8,-39.22 13.49,-53.2 6.93,-3.68 14.04,-9.72 17.65,-16.53 7.01,-13.26 17.4,-20.58 30.8,-25.22 18.63,-6.44 29.99,-2.08 34.35,17.19 2.57,11.36 1.53,24.36 -1.02,35.92 -2.76,12.54 -8.74,24.47 -14.07,36.31 -5.8,12.94 -3.83,24.09 6.46,33.28 12.48,11.14 24.4,23.54 38.51,32.11 45.49,27.64 63.04,70.88 68.28,120.97 3.89,37.35 5.86,74.91 8.79,112.35 0.36,4.57 1.6,9.08 1.98,13.65 3.75,44.25 23.14,78.91 56.31,108.78 24.63,22.18 44.52,50.1 64.54,76.96 9.35,12.54 15.8,28.09 20.47,43.25 8.08,26.32 -3.1,48.48 -30.13,62.97 -5.53,-5.29 -11.56,-10.92 -17.42,-16.7 -51.07,-50.35 -101.71,-101.12 -153.33,-150.86 -20.8,-20.06 -44.35,-37.2 -65.56,-56.85 -16.72,-15.5 -33.36,-31.58 -47.26,-49.59zm578.42 308.32c-68.43,-81.4 -106.83,-177.42 -130.68,-280.22 -3.04,-13.08 -5.08,-26.41 -7.6,-39.62 1.39,-0.76 2.77,-1.52 4.15,-2.28 14.17,16.58 28.38,33.15 42.52,49.78 21.75,25.58 43.26,51.37 65.25,76.75 19.18,22.15 43.39,35.36 72.2,40.24 33.61,5.68 67.21,11.53 100.74,17.81 11.12,2.08 22.03,5.5 32.9,8.74 13.75,4.08 22.86,13.32 30.78,25.51 9.86,15.17 21.06,29.89 33.8,42.61 23.71,23.67 23.31,41.87 -3.83,61.94 -4.26,3.15 -8.64,7.22 -13.51,8.31 -19.56,4.39 -24.43,20.79 -31.39,36.18 -6.93,15.35 -4.53,29.64 1.65,44.35 26.92,64.06 36.18,131.14 32.53,200.28 -0.54,10.24 -2.65,20.37 -4.65,35.06 -7.4,-8.1 -12.01,-11.94 -15.17,-16.76 -13.81,-21.08 -28.08,-41.92 -40.57,-63.79 -49.4,-86.59 -105.01,-168.65 -169.11,-244.86zm73.76 491.48c-111.85,-20.69 -161.98,-128.98 -137.92,-215.87 6.15,5.36 12.11,9.79 17.18,15.11 35.76,37.49 70.54,75.99 107.26,112.5 26.6,26.43 23.5,55.36 13.47,88.26zm167.75 434.68c-32.74,-15.96 -55.33,-40.97 -66.74,-75.32 -5.07,-15.26 -0.79,-20.97 15.54,-28.93 10.43,18.79 19.4,36.24 29.57,52.93 9.74,16 19.07,31.93 21.63,51.32zm46.75 42.75c-0.33,-11.68 -6.44,-23.29 -10.51,-34.74 -2.46,-6.92 -6.03,-13.44 -9.1,-20.14 1.56,-1.59 3.1,-3.15 4.65,-4.74 16.96,11.29 34.3,22.06 50.76,34.04 14.5,10.57 28.12,15.82 45.92,6.49 6.9,-3.61 17.86,-2.28 25.97,0.17 12.96,3.9 25.36,10.06 37.5,16.26 16.85,8.63 21.32,18.43 18.5,37.6 -1.2,8.17 -2.83,16.26 -4.62,26.37 9.9,3.03 18.3,5.98 26.89,8.15 22.89,5.76 40.83,17.85 55.68,36.97 9.99,12.86 23.2,24.33 37.18,32.56 19.94,11.72 34.63,26.72 43.54,47.86 -29.07,23.61 -70.21,25.41 -97.86,2.92 -15.29,-12.43 -29.48,-26.5 -42.82,-41.08 -35.6,-38.92 -77.58,-68.18 -125.85,-88.5 -6.28,-2.65 -12.25,-6.11 -18.63,-8.48 -23.86,-8.89 -36.44,-24.92 -37.21,-51.71zm69.85 -155.85c-4.33,-1.03 -8.72,-2.8 -12.43,-5.25 -19.94,-13.22 -35,-59.85 -26.58,-82.63 4.42,-11.94 9.67,-23.57 16.46,-40 4.07,9.26 6.87,13.47 7.74,18.07 2.28,12.03 3.31,24.28 5.56,36.31 2.81,14.97 10.81,24.87 26.97,26.48 8.26,0.83 16.52,2.39 24.56,4.46 6.97,1.81 13.63,4.82 20.61,7.38 -13.82,29.56 -36.18,41.57 -62.88,35.18zm167.41 -290.13c-12.63,-39.49 -37.99,-67.49 -74.35,-85.85 -6.09,-3.07 -12.19,-6.2 -18.29,-9.26 -50.53,-25.5 -74.03,-69.43 -65.04,-126.28 3.8,-24.08 11.51,-47.57 18.24,-71.1 3.15,-11 7.75,-21.67 12.46,-32.12 21.44,-47.65 31.93,-97.26 28.44,-149.86 -1.18,-17.96 -1.81,-36.36 5.08,-56.58 9.83,3.67 18.2,5.15 24.7,9.5 23.39,15.68 41.93,36.07 47.89,64.54 2.67,12.78 8.89,18.5 20.24,21.1 14.04,3.21 28.1,6.42 42.06,9.97 7.33,1.87 14.71,3.96 21.65,6.92 22.87,9.75 25.49,20 11.78,40.64 -4.32,6.5 -9.06,9.39 -16.83,8.83 -9.81,-0.72 -19.74,-0.94 -29.54,-0.28 -4.75,0.33 -9.33,3.2 -14.57,5.11 3.71,15.71 14.18,21.24 26.37,23.89 8.08,1.75 16.52,2.06 24.82,2.58 11.38,0.72 21.22,5.25 26.81,15 10.72,18.7 25.63,31.79 48.58,39.2 -5.29,10.11 -8.9,19.15 -14.31,26.94 -13.87,19.98 -19.11,20.87 -41.47,10.4 -8.23,-3.86 -16.57,-8.94 -25.26,-9.93 -7.41,-0.83 -16.79,1.58 -22.56,6.14 -3,2.36 -1.82,13.17 0.53,18.87 5.22,12.69 11.94,24.82 18.82,36.72 8.8,15.23 17.82,30.39 27.68,44.93 13.94,20.57 21.33,41.25 13.15,66.93 -4.08,12.81 -6.28,28.61 7.63,40.56 22.64,-13.58 27.86,-42.93 52.4,-55.3 4.68,10.39 8.96,19.87 12.5,27.74 21.15,-4.26 38.71,-8.17 56.43,-11.13 4.91,-0.83 10.78,0 15.39,2 16.65,7.21 17.81,20.11 3.31,31.37 -10.75,8.35 -23.07,10.53 -36.37,10.79 -19.25,0.39 -23.83,4.81 -25.33,24.43 -1.63,21.4 0.42,41.54 21.72,54.01 6.24,3.65 11.17,9.57 19.62,17.04 1.93,-11.08 2.76,-18.99 4.79,-26.57 2.14,-7.94 5.44,-15.58 8.36,-23.71 13.42,5.2 25.32,9.39 36.89,14.41 14.8,6.4 18.36,29.08 6.8,43.3 -3.32,4.08 -7.64,7.5 -11.94,10.56 -10.91,7.74 -13.96,18.5 -9.88,30.37 7.72,22.42 16.57,44.43 25.2,66.52 0.71,1.81 3.29,2.85 7.44,6.22 3,-6.8 6.22,-12.41 7.97,-18.46 3.59,-12.51 5.76,-25.47 9.74,-37.83 3.25,-10.15 7.22,-20.36 12.72,-29.39 10.52,-17.22 19.89,-16.15 29.11,1.3 10.36,19.58 21.75,38.63 32.44,58.03 4.67,8.46 8.74,17.24 14.02,27.76 -24.97,6.02 -48.86,-3.35 -71.21,5.91 3.96,15.37 16.07,16.07 25.58,18.18 25.15,5.59 50.67,9.47 76.03,14.18 4.85,0.91 9.58,2.41 14.25,5.82 -27.56,19.5 -58.24,-4.01 -86.2,6.17 -5.03,12.87 3.3,20.93 10.09,28.69 5.43,6.21 12.5,11.1 19.35,15.83 9.35,6.46 16.06,14.17 15.41,26.32 -0.61,11.4 3.96,19.43 14.68,23.15 11,3.8 16.72,-3.76 22.39,-11.32 1.32,-1.78 3.41,-2.97 6.85,-5.86 3.29,5.26 7.51,9.75 9.11,15.04 2.87,9.46 4.25,19.39 6.08,29.15 1.67,8.83 0.47,19.79 10.9,23.42 11.65,4.07 22.53,-0.06 31.5,-8.28 9.17,-8.41 13.24,-19.43 9.76,-31.28 -4.69,-15.98 -11.68,-31.28 -16.79,-47.15 -2.19,-6.8 -5.04,-15.58 -2.6,-21.3 6.21,-14.54 13.78,-28.96 27.72,-39.2 15.65,6.82 21.65,20.22 21.39,34.89 -0.28,15 -2.91,30.57 -7.79,44.72 -6.36,18.42 -6.21,33.03 7.72,48.5 9.26,10.28 13.99,24.75 21.71,39.14 -12.65,4.98 -22.48,8.25 -31.79,12.65 -22.33,10.56 -25.35,19.87 -11.33,40.28 7.99,11.61 7.18,21.61 -1.18,31.24 -18.01,20.74 -35.59,42.03 -55.28,61.06 -18.92,18.29 -33.54,18.28 -55.06,2.53 -12.85,-9.4 -24.31,-20.75 -36.26,-31.37 -17.1,-15.18 -33.78,-30.86 -51.21,-45.65 -18.86,-16.01 -41,-25.8 -64.49,-33.01 -37.65,-11.53 -70.22,-45.1 -81.53,-82.52 -16.43,-54.39 -35.24,-107.97 -62.43,-157.85 -15.7,-28.76 -33.44,-56.69 -52.94,-82.97 -25.28,-34.06 -47.46,-69.4 -60.46,-110.08zm646.11 1536.83c-2.08,-10.89 -3.74,-17.15 -4.43,-23.53 -4.87,-44.97 -8.97,-90.03 -14.61,-134.89 -1.89,-15.04 -6.85,-29.82 -11.57,-44.32 -24.53,-75.14 -44.03,-151.46 -53.68,-230.13 -4.15,-33.92 -1.72,-67.57 7.62,-100.26 3.91,-13.71 10.7,-27.04 18.47,-39.02 6.83,-10.54 13.78,-9.97 22.56,-1.42 2.7,2.64 5.32,5.61 7.14,8.92 18.75,34.17 35.9,67.89 35.8,109.47 -0.33,135.78 1.83,271.54 2.81,407.32 0.1,14.7 2.32,30.15 -10.11,47.85zm313.19 314.82c-10.07,-8.21 -11.26,-18.65 -12.57,-28.64 -7.72,-58.56 -15.39,-117.12 -22.35,-175.78 -7.41,-62.47 -14.87,-124.96 -20.75,-187.58 -7.61,-81.03 -13.1,-162.22 -7.57,-243.72 0.42,-6.11 1.1,-12.22 2.1,-18.25 0.35,-2.08 2.01,-3.96 4.08,-7.81 4.24,3.65 8.93,6.11 11.31,10.03 11.51,18.93 22.82,38.03 33.24,57.58 3.06,5.75 4,13.21 4.12,19.92 3.46,181.9 6.71,363.82 9.86,545.74 0.17,9.49 -0.96,19.02 -1.47,28.52zm-172.3 3222.93c-4.24,-2.46 -9.11,-11.24 -7.71,-14.47 2.21,-5.1 9.25,-10.81 14.65,-11.25 29.85,-2.49 32.28,-6.25 36.39,21.89 2.58,17.6 6.67,31.97 27.94,40.15 -9.86,7.57 -16.1,14.5 -23.86,17.89 -17.24,7.54 -35.5,-4.58 -34.29,-23.42 0.86,-13.53 -0.48,-23.44 -13.12,-30.79zm319.8 -94.93c-1.47,-40.46 -2.46,-80.94 -2.89,-121.42 -0.12,-12.78 1.2,-26 18.91,-33.15 2.48,8 5.53,14.64 6.57,21.6 6.61,44.21 3.07,88.46 -0.93,132.58 -0.74,7.98 -6.35,15.53 -9.71,23.26 -2.04,-0.1 -4.08,-0.2 -6.13,-0.29 -2.01,-7.53 -5.56,-15 -5.82,-22.58zm640.44 -310.02c-37.18,-63.69 -65.64,-131.64 -89.67,-201.15 -45.28,-131.03 -82.32,-201.22 -126.6,-332.59 -33.76,-100.15 -115.92,-255.18 -148.21,-355.81 -77.98,-243.02 -106.35,-339.57 -162.69,-588.76 -33.67,-148.85 -63.58,-453.53 -87.03,-604.36 -20.14,-129.57 -39.86,-259.26 -56.96,-389.28 -16.09,-122.43 -30.92,-244.99 -30.71,-369.07 0.14,-79.75 -7.07,-159.48 -9.4,-239.28 -2.14,-72.87 -2.4,-145.8 -2.83,-218.7 -0.08,-13.7 1.99,-27.61 4.76,-41.06 4.17,-20.19 18.76,-25.4 35.35,-12.94 6.59,4.97 12.79,11.12 17.5,17.93 9.53,13.78 18.82,27.9 26.64,42.72 40.15,76.03 69.82,156.49 98.18,237.54 8.46,24.18 12.8,47.58 10.51,73.82 -6.14,70.37 -8.5,141.14 -0.74,211.57 4.11,37.24 10.04,74.53 18.74,110.92 5.25,21.94 14.49,44.19 26.97,62.86 34.14,51.02 51.93,107.39 58.54,167.56 4.85,44.18 8.54,88.71 8.87,133.11 0.42,56.71 14.25,107.79 50.33,151.59 27.09,32.91 40.21,71.72 48.86,112.61 9.21,43.5 18.43,87 26.96,130.64 5.4,27.69 0.15,55.07 -5.03,82.24 -4.87,25.59 -10.41,51.07 -15.57,76.63 -8.46,41.96 -5.98,83.67 0.06,125.86 4.26,29.82 12.6,56.32 32.54,79.18 8.85,10.15 17.15,21.36 16.83,36.7 -0.11,4.85 3.39,10.12 6.17,14.62 17.08,27.52 22.37,58.35 25.18,89.91 4.8,54.26 8.86,108.61 14.46,162.8 3.56,34.29 8.53,68.5 14.33,102.49 6.44,37.78 22.08,72.3 46.51,101.24 24.54,29.04 51.43,56.26 79.07,82.35 10.63,10.03 14.85,18.87 14.19,33.29 -3.32,75.15 -5.3,150.36 -8.39,225.51 -3.26,79.81 16.59,153.44 55.98,222.15 13.32,23.24 27.14,46.22 39.26,70.08 7.92,15.59 14.29,32.22 19.24,49.02 2.42,8.21 2.4,18.83 -0.67,26.71 -13.39,34.22 -13.04,69.68 -7.58,104.5 7.94,50.67 18.93,100.89 30.04,150.98 3.61,16.22 10.71,31.91 17.9,47.02 18.17,38.18 24.22,79.08 26.86,120.5 1.78,28 0.33,56.19 0.33,84.3 -1.92,0.81 -3.82,1.61 -5.74,2.42 -4.42,-6.76 -9.1,-13.37 -13.21,-20.32 -33.47,-56.64 -67.03,-113.21 -100.18,-170.03zm-2094.51 218.35c-8,10.14 -12.97,9.08 -18.14,4.97 -0.03,-1.97 -0.06,-3.93 -0.08,-5.89 4.93,0.25 9.85,0.5 18.22,0.92zm175.96 -126.9c0.35,-4.31 2.83,-8.44 5.31,-15.43 7.79,18.43 8.64,77.12 2.22,101.69 -8.46,-13.21 -10.89,-44.58 -7.53,-86.26zm377.5 -304.83c-0.24,38.53 -27.21,55.83 -55.65,67.96 -28.28,12.03 -59.36,17.33 -89.29,25.32 -3.43,0.92 -7.32,0.13 -11,0.13 -0.67,-1.6 -1.35,-3.18 -2.01,-4.78 14.8,-18 37.17,-24 56.78,-34.37 19.9,-10.52 41.36,-18.63 57.65,-36.4 -6.81,-10 -16.03,-10.17 -24.87,-10.42 -17.44,-0.46 -34.92,0.04 -52.33,-0.83 -9.4,-0.47 -18.72,-2.96 -28.07,-4.53 -0.07,-1.57 -0.14,-3.13 -0.21,-4.69 4.53,-1.49 8.96,-3.54 13.61,-4.36 22.4,-3.92 44.89,-7.26 67.25,-11.39 6.61,-1.21 13.92,-2.9 19.02,-6.86 5.48,-4.26 11.42,-11.04 12.32,-17.43 1.25,-8.85 -5.53,-14.97 -14.44,-18.15 -6.54,-2.33 -12.56,-6.22 -22.75,-11.42 8.85,-4.72 13.21,-9.08 17.46,-8.97 22.97,0.57 43.21,-6.08 59.82,-21.89 15.68,7 20.07,18.22 16.64,32.46 -3.22,13.37 -7.96,26.39 -11.82,39.63 -3,10.28 -8.01,20.65 -8.08,31.01zm116.97 -25.5c-11.54,-1.87 -22.97,-7.93 -33.13,-14.28 -23.75,-14.87 -30.04,-35.94 -19.48,-71.11 1.61,23.04 13.69,34.91 22.68,48.79 9.17,14.15 21.24,20.64 37.14,23.03 26.19,3.92 52.26,8.58 78.29,13.46 8.72,1.63 17.15,4.81 25.1,7.1 8.33,33.08 -8.2,58.15 -9.32,85.87 -1.82,0.63 -3.64,1.25 -5.46,1.86 -5.53,-5.47 -12.53,-10.07 -16.31,-16.58 -9.57,-16.53 -24,-22.1 -41.68,-23.06 -19.65,-1.07 -39.31,-2.4 -58.89,-4.32 -10.26,-1 -20.37,-3.5 -30.56,-5.32 -0.03,-1.79 -0.06,-3.58 -0.1,-5.37 8.43,-1.08 16.82,-2.71 25.28,-3.14 33.98,-1.72 67.98,-2.79 101.94,-4.78 7.38,-0.43 15.03,-2.72 21.74,-5.9 3.76,-1.79 5.88,-7.14 11.74,-14.82 -13.83,-1.46 -23.15,-2.49 -32.47,-3.42 -25.53,-2.53 -51.25,-3.87 -76.51,-8.02zm54.01 -49.15c-12.47,-15.04 -20.3,-27.92 -20.26,-45.09 0.15,-73.47 -0.15,-146.94 -0.17,-220.41 0,-3.71 1.25,-7.42 2.15,-12.46l18.28 0 0 277.96zm43.17 -10.57c0.46,-86.49 0.18,-172.97 0.18,-262.7 22.33,-1.4 46.06,-0.96 69.28,-0.09 6.54,18.82 8.42,253.64 2.64,283.14 -13.28,7.35 -38.12,-5.6 -39.41,25.04 -17.79,-12.6 -32.79,-22.49 -32.68,-45.39zm113.15 -2.4c-0.49,-85.99 -0.68,-171.97 -0.89,-257.96 -0.02,-1.43 0.72,-2.87 1.97,-7.5l78.83 0c0.53,8.08 1,15.33 1.56,23.64 -8.09,2.22 -15.03,4.14 -23.81,6.56 -1.02,84.28 0.98,168.44 -0.83,254.3l-53.72 0c-1.03,-6 -3.08,-12.53 -3.11,-19.04zm168.29 -213.03l0 -161.2 102.62 0c1.83,53.11 0.49,105.39 0.92,160.85 -35.3,1.2 -68.71,0.71 -103.54,0.35zm249.43 -163.31l-112.18 0c-1.25,-9.53 -2.5,-19.03 -3.67,-27.87 -1.9,-1.47 -3.17,-3.26 -4.21,-3.14 -22.25,2.7 -38.74,-9.14 -55.58,-21.28 -74.79,-53.86 -149.79,-107.42 -224.86,-160.89 -9.06,-6.44 -18.94,-11.69 -32.44,-19.94 -5.43,38.71 0.07,73.87 -3.83,109.21l-76.58 0c-1.09,-29.82 -2.17,-58.39 -3.21,-86.71 -18.46,-5.14 -30.64,1.74 -42.33,10.83 -46.33,36.03 -92.7,72 -139.11,107.9 -32.54,25.18 -65.15,50.29 -97.85,75.28 -8.29,6.35 -17,12.12 -27.4,19.48 -5.11,-18.75 0.35,-29.71 13.02,-39.61 63.06,-49.28 125.58,-99.25 188.54,-148.67 44.96,-35.29 90.19,-70.22 135.49,-105.07 19.15,-14.74 19.98,-15.22 39.59,-0.71 60.02,44.42 119.6,89.44 179.29,134.31 52.39,39.36 105.09,78.32 156.85,118.5 19.61,15.21 39.7,24.29 64.83,21.48 11.99,-1.35 24.26,-0.28 36.41,-0.06 10.91,0.19 12.26,6.71 9.25,16.94zm-417.21 59.76c-7.64,-0.18 -16.79,-3.85 -22.47,-9.02 -45.01,-41.01 -89.35,-82.76 -133.82,-124.39 -0.89,-0.83 -0.82,-2.74 -1.71,-5.97 5.19,-0.58 10.07,-1.63 14.94,-1.57 33.32,0.31 66.64,0.93 99.96,1.25 12.56,0.12 23.61,3.08 33.02,12.39 39.01,38.53 78.36,76.72 117.47,115.15 2.47,2.42 4.06,5.74 8.75,12.57 -42.03,0 -79.09,0.51 -116.14,-0.42zm-1607.65 690.47c-22.61,-4.85 -44.53,-12.94 -70.21,-20.65 6.63,-9.5 10.32,-15.87 15.04,-21.37 12.31,-14.35 18.21,-14.79 30.98,-0.46 6.64,7.46 13.82,10.86 23.33,12.17 24.69,3.43 49.04,10.5 74.39,5.03 7.39,-1.58 15.98,-2.7 19.69,6.48 3.81,9.44 0.78,18.33 -6.11,25.29 -7.29,7.35 -15.33,13.94 -24.6,22.28 -13.94,-22.63 -38.76,-23.67 -62.53,-28.76zm541.46 -22.33c-10.26,-12.35 8.78,-33.63 -12.5,-40.67 9.06,-11.21 16.58,-20.52 24.39,-30.15 14.8,7.37 28.44,15.18 42.86,21.13 15,6.18 14.85,18.64 14.89,31.71 -3.48,-5.68 -6.97,-11.35 -11.5,-18.72 -23.15,6.38 -32.04,35.47 -58.14,36.71zm718 -552.63l-33.99 0c0,-12.51 0.02,-23.89 0,-35.26 -0.04,-33.01 0.24,-66.03 -0.33,-99.03 -0.18,-11.26 3.85,-17.58 13.44,-23.8 25.91,-16.85 52.8,-26.18 86.89,-18.25 5.6,34.02 -0.03,70.03 3.92,107.36 25.87,0.94 50.36,1.83 76.21,2.78 -1,16.32 -9.08,20.75 -21,20.8 -17.35,0.1 -34.71,0.03 -55.65,0.03l0 46.54c-9.67,0.54 -17.53,0.97 -26.28,1.46 -1.99,-6.93 -3.61,-12.57 -5.47,-19.03l-30.75 0c-2.13,5 -4.43,10.39 -6.98,16.4zm115.72 -102.47c-1.72,-1.85 -3.43,-3.7 -5.15,-5.54 14.25,-42.1 49.96,-66.76 79.76,-100.29 42.99,29.21 70.82,70.72 108.2,107.65 -14.85,2.51 -22.13,-4.1 -28.75,-10.52 -15.9,-15.37 -31.07,-31.53 -46.85,-47.03 -28.71,-28.21 -30.51,-28.01 -55.75,2.96 -9.64,11.85 -18.81,24.17 -29.22,35.28 -6.39,6.81 -14.76,11.72 -22.24,17.49zm240.92 1079.08c-19.94,16.28 -52.04,15.22 -79.79,-3.54 29.42,-8.58 54,-9.42 79.79,3.54zm-4771.53 -5173.13c-0.89,0.82 -2.85,0.44 -6.24,0.89 -5.79,-40.78 -11.93,-81.39 -4.87,-122.74 2.92,-17.07 13.09,-29.7 27.12,-37.94 15.14,-8.9 22.32,-21.68 26.21,-38.1 3.5,-14.69 8.54,-29.01 14.28,-48.1 25.85,25.18 36.08,52.15 32.08,82.32 -8.69,65.64 -40.65,119.32 -88.58,163.67zm3128.15 4667.31c-11.28,-5.43 -13.15,-15.39 -7.81,-29.5 9.5,5.36 18.24,10.28 27.87,15.72 2.57,-3.5 4.11,-7.69 6.96,-9.03 5.53,-2.6 12.47,-5.94 17.54,-4.47 3.85,1.13 7.97,9.29 7.83,14.19 -0.14,4.74 -4.57,11.5 -8.89,13.57 -14.19,6.75 -29.4,6.29 -43.51,-0.48zm-2671.13 -4185.75c-7.04,-21.31 -4.96,-42.07 9.5,-59.36 14.04,-16.8 32.15,-29.29 52.42,-39.24 2.47,47.14 -24.7,100.15 -61.92,98.6zm119.6 39.69c-13.82,47.09 -42.1,82.65 -85.08,105.82 -6.41,3.46 -13.42,5.8 -22.03,9.47 -6.82,-40.46 0.63,-75.18 21.94,-106.77 10.24,-15.18 22.72,-28.89 32.2,-44.51 8.57,-14.15 16.06,-29.44 21.14,-45.19 9.37,-29.06 26.44,-52.49 48.44,-78.74 1.1,9.4 2.18,14.28 2.17,19.14 -0.14,47.75 -5.29,94.87 -18.78,140.78zm1427.68 -1386.37c4.65,50.68 -13.33,82.17 -47.93,83.17 -4.18,-32.42 9.92,-60.39 21.06,-92.49 10.49,3.64 18.86,6.54 26.88,9.32zm63.47 -109.46c-18.78,-15.22 -47.85,-60.93 -51.69,-79.33 -3.94,-18.93 4.35,-32.43 29.69,-47.04 20.6,11.25 35.91,28.73 48.75,48.79 6.39,9.96 5.96,20.96 0.87,30.67 -8.33,15.97 -18.22,31.13 -27.63,46.92zm81.71 118.75c-11.44,7.28 -26.4,10.57 -40.22,11.83 -11.49,1.06 -18.33,-7.83 -16.15,-19.79 2.99,-16.39 7.43,-32.78 13.53,-48.24 5.54,-14.06 15.25,-17.29 29.61,-13.68 14.61,3.68 20.22,10.36 20.93,25.33 0.25,5.35 0.04,10.71 0.04,16.06 0.96,0.33 1.93,0.67 2.89,1 -3.35,9.48 -4.01,23.28 -10.63,27.48zm147.41 -94.08c-37.21,11.81 -46.28,8.71 -71.65,-24.03 -10.64,-13.74 2.26,-44.98 19.19,-48.24 3.76,-0.72 9.74,0.97 12.11,3.79 16.28,19.28 35.89,26.93 60.56,20.47 1.65,-0.43 3.97,1.78 5.85,2.69 2.67,28.54 -1.9,37.65 -26.06,45.31zm118.08 -202.15c-22.1,13.94 -45.43,26.35 -74.21,32.31 -2.29,-23.36 5.47,-40.02 18.07,-54.78 4.9,-5.74 11.64,-9.98 16.03,-16.03 10.08,-13.9 21.51,-13.43 35.54,-6.71 17.79,8.52 21.76,34.35 4.57,45.21zm79.24 322.44c15.37,53.53 -10.54,83.29 -57.53,86.76 -18.44,-57 -1.47,-81.32 57.53,-86.76zm74.94 -39.61c-40.47,-10.94 -78.7,-21.26 -117,-31.61 9.22,-30.42 28.06,-44.41 54.87,-45.2 13.35,-0.39 26.78,-2.65 39.87,-5.48 14.75,-3.18 19.37,-1.87 23.78,12.3 6.96,22.46 5.87,44.97 -1.53,69.99zm14.21 -281.36c4.62,-21.69 10.01,-43.28 16.69,-64.4 1.93,-6.13 9.06,-14.18 14.37,-14.64 5.82,-0.52 15.21,5.32 17.91,10.91 6.17,12.77 9.18,27.09 13.96,42.31 4.86,1.26 11.79,2.02 17.74,4.86 9.46,4.53 19.63,8.97 27.07,16.07 21.48,20.5 18.04,43.11 -7.64,57.53 -3.24,1.82 -6.89,2.85 -12,4.9 -16.59,-29.2 -40.5,-39.81 -71.3,-37.74 -17.54,1.18 -20.54,-2.29 -16.79,-19.81zm317.39 60.31c-43.33,6.01 -72.2,-7.63 -90.44,-42.18 -7.43,-14.1 -14.53,-28.57 -19.85,-43.56 -5.47,-15.42 1.36,-23.49 16.35,-18.18 22.59,7.97 44.4,18.46 65.94,29.14 5.43,2.7 10.59,9.47 12.44,15.47 6.02,19.42 10.44,39.33 15.56,59.31zm40.3 -103.33c-36.09,10.33 -72.15,12.83 -91.85,-34.72 17.11,-22.36 22.52,-23.72 46.14,-12.31 20.67,10 21.06,10.13 35.5,-8.58 10.57,-13.65 23.72,-22.76 40.17,-28.28 7.74,41.83 -4.08,76.49 -29.96,83.89zm96.17 78.33c-19.07,-9.29 -38.14,-18.6 -58.67,-28.61 14.17,-26.2 29.14,-28.89 43.2,-10.22 7.89,10.46 13.2,22.92 19.67,34.47 -1.41,1.46 -2.81,2.92 -4.21,4.36zm196.32 5780.06c1,-14.6 7.79,-23.31 21.24,-26.49 7.37,-1.73 15.26,-1.91 22.19,-4.68 11.07,-4.39 22.81,-8.7 31.97,-15.97 19.2,-15.22 20.49,-15.63 32.21,6.58 12.46,2.9 24.96,5.64 37.35,8.86 1.64,0.43 2.65,3.28 7.54,9.69 -13.42,3.22 -23.25,6.22 -33.29,7.83 -14.46,2.35 -28.57,4.64 -35.4,22.87 -8.06,-9.15 -14.38,-16.35 -21.1,-23.99 -21.24,2.74 -38.22,23.49 -62.71,15.28zm-43.07 -59.4c16.33,-20.61 17.56,-21.18 39.61,-18.52 -14.33,6.71 -24.72,11.56 -39.61,18.52zm250.5 92.79c-2.43,5.19 -9.08,10.04 -14.74,11.5 -5.09,1.32 -11.86,-1.25 -17.08,-3.81 -6.43,-3.13 -15.72,-6.04 -13.68,-15.61 2.18,-10.22 11.72,-10.19 22.11,-10.54 3.25,0.85 8.51,1.65 13.33,3.61 6.44,2.62 13.78,6.89 10.06,14.85zm-6.22 -88.03c-0.92,-5.29 -1.29,-10.7 -2.5,-15.89 -3.6,-15.4 -11.1,-20.32 -26.35,-17.26 -7.81,1.56 -15.5,3.67 -23.25,5.53 -1.01,-1.52 -2.01,-3.04 -3.01,-4.56 4.35,-5.63 9.01,-11.06 13,-16.94 10.58,-15.67 21.46,-31.19 31.03,-47.49 5.11,-8.68 10.08,-15.5 21.01,-13.26 10.85,2.24 14.39,10.7 14.57,20.49 0.14,7.58 -1.9,15.21 -1.9,22.82 -0.02,12.36 6.76,16.86 17.64,12.22 9.26,-3.94 16.04,-15.79 28.39,-9.76 15.24,7.46 27.9,17.85 35.26,33.5 -17.33,21.59 -33.49,25.56 -53.74,12.92 -8.61,-5.39 -16.86,-5.87 -28,-0.9 -0.99,9.69 -1.89,18.57 -2.81,27.6 -10.54,3.69 -17.37,2.4 -19.35,-9zm142.68 205.86c-10.76,-9.46 -8.25,-16.26 -3.07,-25.43 9.64,8.15 7.99,15 3.07,25.43zm35.26 -65.35c-12.28,-7.07 -12.42,-7.07 -11.14,-51.06 0.2,-7.08 -3.54,-17.33 11.14,-18.74l0 69.79zm74.48 -5523.61c-7.37,-24.93 -21.32,-43.5 -42.75,-57.29 -4.78,-3.07 -8.03,-8.56 -12.02,-12.96 8.58,-17.8 23.06,-25.98 38.76,-31.79 11.79,-4.37 23.31,-1.06 30.42,9.43 7.63,11.22 14.97,23.22 19.35,35.97 4.65,13.57 13.03,20.24 25.91,22.39 10.47,1.77 21.04,3.14 31.62,3.85 35.7,2.42 68.1,14.8 98.1,33.68 53.22,33.47 98.94,75.78 141.19,122.46 29.04,32.1 29.63,65.08 7.61,103.63 -6.22,-7.57 -12.17,-13.97 -17.18,-21.04 -12.83,-18.08 -24.75,-36.82 -37.94,-54.61 -22.5,-30.33 -51.33,-52.21 -88,-61.87 -26.36,-6.93 -53.26,-11.79 -79.57,-18.93 -23.32,-6.33 -46.57,-13.4 -69.06,-22.19 -23.07,-9.03 -39.37,-26.76 -46.44,-50.71zm-1.28 5618.17c1.97,0.58 5.11,-2.92 9.75,-5.9 -4.37,-3.11 -6.72,-5.87 -9.43,-6.29 -1.7,-0.26 -5.83,3.48 -5.56,4.58 0.75,2.93 2.85,6.92 5.24,7.61zm139.79 -97.86c-12.56,-37.17 -10.33,-56.93 6.83,-70.06 7.53,15.41 5.04,43.64 -6.83,70.06zm-46.22 -103.17c-12.18,7.78 -23.83,11.58 -38,2.58 -13.09,-8.33 -27.46,-6.04 -41.19,1.15 -6.79,3.57 -14.29,5.75 -21.47,8.56 -1.31,-2.53 -2.64,-5.07 -3.96,-7.59 10.53,-8.13 20.3,-17.68 31.8,-23.99 11.67,-6.4 25.2,-6.79 36.68,1.9 19.82,15.03 38.37,10.91 56.08,-3.2 14.57,-11.6 31.25,-14.93 49,-14.65 3.35,0.06 6.67,2.58 13.99,5.61 -8.13,3.18 -12.42,5.92 -16.97,6.46 -23.71,2.89 -45.75,10.26 -65.96,23.18zm143.17 134.11c-5.96,-2.04 -11.76,-4.57 -20.97,-8.18 11.24,-7.41 19.98,-11.68 26.78,-18.09 6.79,-6.4 8.33,-18.4 19.71,-19.33 10.54,7.53 20.68,14.76 31.04,22.15 -5.81,41.15 -25.53,70.85 -50.68,71.48 2.56,-6.97 4.4,-13.1 7,-18.86 8.76,-19.53 7.65,-22.12 -12.87,-29.18zm129.21 -177.47c-14.89,3.46 -30.88,5.54 -47.03,-8.74 18.78,-13.82 35.94,-16.83 58.54,-10.35 -4.51,7.89 -6.98,18.04 -11.51,19.09zm54.35 357.75c-4.78,3.39 -7.78,7.22 -11.11,7.56 -7.85,0.79 -8.43,-6.04 -6.94,-11.01 0.92,-3.06 6.11,-7.09 8.82,-6.7 2.94,0.43 5.25,5.47 9.24,10.15zm-56.2 -424.82c8.14,-16.87 24.07,-18.03 36.83,-17.29 15.19,0.9 16.86,17.9 25,31.25 -23.25,-0.09 -44.24,4.52 -61.83,-13.96zm98.78 -7.25c-6.78,2.81 -12.21,0.81 -15.04,-5.67 -3.25,-7.44 1.25,-11.67 7.83,-13.51 7.07,-1.97 14.35,-3.2 23.07,-5.09 -2.32,11.42 -5.63,20.04 -15.86,24.26zm4.11 341.89l0 -84.43 19.63 0 0 82.22c-5.39,0.6 -11.56,1.29 -19.63,2.21zm195.53 85.63c-6.04,15.71 -15.08,17.08 -28.94,12.94 6.63,-11.7 14.39,-15.81 28.94,-12.94zm-134.04 -104.46c-10.42,-2.59 -11.38,-6.82 -14.5,-25.7 10.25,-1.22 20.47,-3.89 30.5,-3.29 14.62,0.86 26.76,-1.07 34.17,-15.56 0.78,-1.53 3.76,-1.9 7.64,-3.71 1.47,5.4 3.31,9.98 3.91,14.74 2.56,20.15 2.43,19.97 23.48,21.21 6.26,0.36 12.43,2.13 22.04,3.85 -14.13,30.47 -37.32,42.03 -64.47,52.29 -5.13,-25.64 -20.07,-38.22 -42.76,-43.83zm30.33 -351.68c-9.94,15.69 -11.54,15.83 -27.29,0l27.29 0zm-25.42 51.14c2.31,7.54 -7.18,16.03 -15.64,15.61 -7.97,-0.37 -12.46,-5.1 -12.59,-13.21 -0.13,-8.72 3.3,-14.78 17.25,-15.51 2.63,2.94 9.21,7.28 10.98,13.11zm99 -4191.81c0.43,-5.03 0.56,-6.56 0.7,-8.08 1.93,-20.92 7.65,-24.37 26.04,-14.51 8.64,4.64 17.25,10.06 24.36,16.75 10.18,9.61 8,25.4 -3.92,30.86 -12.9,5.92 -25.29,1.06 -36.97,-4.81 -9.67,-4.85 -10.8,-14 -10.21,-20.21zm-28.58 -57.53c-2.8,-3.56 -5.28,-7.43 -7.69,-11.29 -22.02,-35.46 -29.08,-75.79 -40.63,-119.75 43.32,14.12 71.47,35.18 79.53,76.93 2.6,13.43 6.47,26.61 8.64,40.1 1.33,8.37 0.56,16.67 -9.78,20.47 -13.03,4.8 -22.32,3.32 -30.07,-6.46zm-315.74 -20.57c-36.91,10.22 -50.14,1.14 -47.83,-32.89 17.9,-12.61 32.5,-4.02 49.11,4.74 -0.43,9.24 -0.86,18.87 -1.28,28.15zm-55.44 -197.24c-41.58,2.53 -80.68,-37.85 -80.97,-85.09 26.03,3.96 46.68,16.7 66.8,30 4.99,3.3 9.03,10.57 10.24,16.67 2.47,12.57 2.75,25.58 3.93,38.42zm49.17 135.28c-61.61,6.72 -88.91,-32.03 -78.78,-72.09 57.14,-0.56 76.57,27.2 78.78,72.09zm647.42 -169.67c-10.43,21.03 -28.79,22.69 -47.02,23.03 -5.25,0.08 -12.21,-3.35 -15.63,-7.49 -24.15,-29.26 -37.57,-42.07 -39.51,-86.67 26.83,-6.71 41.29,1.82 43.67,28.44 1.28,14.39 8.08,19.5 20.42,22.65 21.82,5.56 23.13,6.78 38.07,20.03zm-78.68 4898.18l-33.11 0 0 -122.43 33.11 0 0 122.43zm85.35 -2.76l0 -72.7c-13.79,-1.14 -26.29,-2.18 -40.18,-3.33 -0.6,-6.44 -1.13,-12.07 -1.89,-20.26 15.11,-1.71 29.07,-3.26 45.52,-5.11 2.04,-14.76 4.1,-29.51 6.51,-47 12.96,-0.64 25.88,-1.26 41.06,-2.01 -4.62,51.86 -8.94,100.32 -13.4,150.42l-37.61 0zm139.33 -102.17c-21.32,5 -38.61,3.04 -58.24,-2.8 24.44,-11.42 37.9,-10.96 58.24,2.8zm-0.42 252.7c-21.91,9.68 -45.02,-4.1 -46.54,-27.79 -0.42,-6.43 -0.07,-12.93 -0.07,-23.39 18.03,5.96 32.18,10.54 46.25,15.33 7.08,2.41 15.39,4.15 14.82,14.33 -0.54,9.87 -5.28,17.46 -14.46,21.52zm-181.78 -72.94c-8.71,1.93 -20.61,-5.17 -19.43,-10.83 1.01,-4.87 5.4,-9.03 7.01,-11.53 12.46,-0.65 23.26,6.31 22.17,12.96 -0.61,3.7 -5.85,8.54 -9.75,9.4zm-218.29 -105.44l0 -90.76 28.93 0 0 89.18c-8.72,0.48 -17.33,0.94 -28.93,1.58zm24 55.65c6.68,-9.85 9.85,-16.83 15.02,-21.63 8.8,-8.19 21.48,-6.14 26.24,4.71 2.72,6.21 3.67,15.35 1,21.06 -1.68,3.63 -11.63,4.99 -17.6,4.43 -6.93,-0.65 -13.56,-4.51 -24.65,-8.57zm45.5 -98.82c0.04,-2.31 0.08,-4.61 0.11,-6.91 5.43,0.35 10.85,0.71 16.26,1.07 -5.29,10.47 -10.65,11.68 -16.37,5.83zm57.43 144.79c-7.99,2.15 -15.94,4.3 -24.99,6.75 2.06,-19.36 6.69,-20.94 24.99,-6.75zm160.69 -7.07c-21.76,5 -23.52,4.21 -31.17,-13.65 14.41,-4.62 23.37,1.65 31.17,13.65zm130.28 -451.51c-1.69,-1.7 -3.39,-3.39 -5.09,-5.09 6.04,-8.18 11.74,-16.65 18.22,-24.44 6.33,-7.61 14.37,-13.89 19.94,-21.96 3.39,-4.92 5.65,-12.5 4.65,-18.21 -1.74,-9.78 -10.94,-12.78 -19.5,-11.98 -20.35,1.87 -37.72,9.72 -49.99,27.59 -10.35,15.07 -21.65,29.49 -32.97,43.85 -2.51,3.19 -6.85,4.91 -9.75,6.9 -2.06,-1.13 -3.14,-1.35 -3.32,-1.89 -7.83,-23.5 4.14,-58.78 24.54,-69.37 18.83,-9.78 38.09,-18.85 57.65,-26.99 13.08,-5.46 26.6,-5.14 38.89,3.88 4.26,3.11 8.86,6 13.72,7.96 19.74,7.92 25.74,5.25 35.39,-16.87 7.97,3.47 16.43,6.24 23.93,10.64 19.62,11.5 38.82,23.74 58.21,35.65 12.26,7.56 20.89,17.25 19.48,37.63 -11.65,-9.47 -21.37,-16.88 -30.53,-24.94 -17.06,-15.03 -36.75,-22.26 -58.76,-17.02 -12.83,3.07 -25.61,8.94 -36.71,16.22 -17.74,11.64 -33.94,25.62 -51.03,38.3 -5.28,3.92 -11.31,6.79 -16.99,10.14zm30.61 368.9c-10.49,-7.36 -13.97,-18.94 -15.06,-29.76 -2.56,-25.85 -3.04,-51.92 -4.07,-77.92 -0.15,-3.71 0.24,-8.43 2.36,-11.02 3.58,-4.36 8.58,-9.94 13.29,-10.25 4.48,-0.28 11.28,4.4 13.75,8.81 11.44,20.3 11.03,20.54 27.74,32.14 -16.58,9.08 -18.78,22.63 -19.4,37.83 -0.75,18.17 -1.4,37.11 -18.61,50.17zm46.46 221c-10.01,-2.94 -19.92,-6.82 -25.92,-20.44 7.41,-7.64 15.43,-15.93 26.56,-27.4 6.89,13.4 12.43,21.57 15.42,30.59 4.43,13.43 -2.98,21.1 -16.06,17.25zm-46.17 -118.25c10.63,-12.3 20.75,-6.58 30.11,-2.53 20.89,9.07 35.67,25.25 40.39,45.24 -28.35,-8.39 -55.93,-13.64 -70.5,-42.71zm387.06 -68.15c-2.44,-0.06 -4.9,-0.1 -7.35,-0.15 -1.46,-10.2 -4.36,-20.42 -4.13,-30.56 0.71,-29.13 2.71,-58.22 4.13,-87.32 0.46,-9.5 4.3,-16.74 14.08,-18.03 9.51,-1.25 16.28,3.78 18.47,13.25 10.5,45.19 1.19,85.97 -25.21,122.81zm-161.35 -1.81c-10.93,-44.96 -12.28,-89.52 10.07,-131.75 4.1,-7.74 10.76,-15.15 18.06,-19.83 11.93,-7.67 22.11,-2.65 21.86,11.28 -0.68,37.43 -1.57,75.02 -5.54,112.18 -2.02,18.89 -12.74,35.63 -34.18,47.54 -4.15,-7.67 -8.74,-13.15 -10.26,-19.42zm117.47 -82.79c-6.86,-5.52 -10.36,-8.32 -13.88,-11.15 2.03,-2.46 2.85,-4.37 3.79,-4.44 7.06,-0.53 10.57,2.63 10.09,15.6zm-241.18 37.48c-0.21,-30.56 -0.14,-61.11 0.29,-91.65 0.18,-12.81 5.04,-17.59 15.57,-17.25 10.35,0.35 16.31,5.78 16.68,17.28 0.57,17.53 0.15,35.08 0.15,52.64 -1.35,0 -2.71,0 -4.06,0 0,12.96 0.08,25.93 -0.04,38.89 -0.04,5.33 0.86,11.26 -1.12,15.83 -2.14,4.91 -7.02,11.65 -10.97,11.86 -4.31,0.22 -10.39,-5.32 -13.03,-9.93 -2.83,-4.93 -3.43,-11.7 -3.47,-17.67zm116.63 -131.62c-14.65,-11.6 -5.8,-30.22 -14.53,-42.52 -9.85,-13.87 0.81,-28.29 -3.39,-46.71 32.35,-6.04 61.76,-13.94 91.61,-16.53 41.08,-3.56 61.06,-27.67 71.46,-64.37 0.41,-1.4 1.43,-2.68 2.35,-3.85 0.37,-0.47 1.28,-0.52 1.94,-0.75 9.06,34.56 1.06,56.79 -30.18,70.6 -19.03,8.42 -40.35,12.37 -61.06,15.76 -15.56,2.54 -31.78,0.61 -47.65,1.44 -7.04,0.36 -13.97,2.65 -21.26,4.13 0.83,13.65 9.04,16.54 17.11,17.61 22.48,2.97 45.04,5.61 67.65,7.21 17.36,1.21 34.85,0.41 52.26,0.93 6.32,0.18 12.59,1.53 19.33,6 -3.71,1.58 -7.3,4.18 -11.12,4.57 -19.57,2.03 -39.18,3.86 -58.82,5.01 -26.28,1.57 -51.85,3.71 -65.43,32.02 -1.79,3.72 -6.46,6.04 -10.28,9.44zm190.36 -238.64c-24.71,4.1 -49.01,5.53 -69.13,-13.93 -11.58,-11.22 -18.01,-11.89 -32.14,-3.43 -28.97,17.35 -60.25,8.58 -81.87,-27.31 20.96,7.04 37,12.42 53.15,17.83 10.9,-14.6 15.15,-33.22 34.53,-35.89 19.17,20.39 24.92,20.5 46.46,1.24 14.6,-13.04 19.65,-12.93 36.52,0.1 4.69,3.62 9.9,6.58 16.59,10.97 -11.17,15.27 -12.06,30.46 1.02,43.99 -2.42,3.15 -3.56,6.17 -5.13,6.43zm-221.11 -191.14c-7.5,2.56 -15.43,3.82 -23.86,5.86 -5.62,-15.74 0.08,-26.06 10,-31.96 13.5,-8.04 28.49,-13.68 43.17,-19.44 6.25,-2.46 13.3,-3.03 20.07,-3.82 13.99,-1.65 23.2,-8.79 29.83,-21.58 12.04,-23.18 19.98,-25.13 39.85,-7.33 24.35,21.81 52.06,36.88 82.25,47.71 12.04,4.32 24.71,6.82 37.08,10.14 6.92,1.85 13.82,3.69 24.65,6.59 -23.56,21.11 -54.76,4.82 -73.18,24.83 1.32,14.9 13.24,19.11 21.46,26.53 4.9,4.43 12.46,8.24 7.74,16.64 -4.19,7.49 -11.4,6.22 -18.19,3.92 -15.76,-5.36 -31.88,-9.92 -47.11,-16.53 -13.74,-5.97 -26.54,-6.28 -39.09,1.35 -11.65,7.06 -23.04,14.67 -33.93,22.88 -10.92,8.21 -21.82,15.86 -39.39,19.24 3.65,-7.28 4.74,-12.82 8.06,-15.46 15.97,-12.69 31.81,-25.87 49.14,-36.44 17.44,-10.64 36.76,-18.06 54.93,-27.54 9.19,-4.81 19.01,-9.67 23.44,-24.32 -11.43,-0.88 -21.56,-2.13 -31.71,-2.28 -11.37,-0.18 -19.82,-3.69 -26.79,-13.78 -13.92,-20.15 -23.87,-22.01 -43.06,-6.94 -23.04,18.11 -47.83,32.36 -75.36,41.75zm-16.76 478.25c7.81,-10.72 16.64,-5.11 25.4,1.82 -2.25,10.46 -6.78,17.62 -18.06,14.15 -6.97,-2.15 -12.13,-9.41 -7.35,-15.97zm17.65 -419.72c-20.85,10.33 -40.21,6.74 -60.49,5.93 16.56,-17.14 33.1,-19 60.49,-5.93zm-70.61 649.72c-3.68,-4.82 -11.61,-6.33 -20.68,-10.92 0.42,-8.06 0.83,-15.86 1.44,-27.88 25.22,12.21 51.8,13.53 65.8,41.89 -17.86,4.81 -32.43,15.37 -46.57,-3.09zm-33.7 127.85c7.22,-18.38 20.96,-31.44 37.31,-45.65 10.78,13.4 11.09,26.43 10.94,39.18 -0.11,10.65 -7.14,16.57 -17.03,18.18 -11.65,1.89 -22.44,0.04 -31.22,-11.71zm288.47 -944.46c-14.82,-11.82 -13.9,-17.82 1.99,-34.61 2.91,5.76 6.09,10.67 7.98,16.03 5.43,15.33 16.44,23.52 31.78,25.99 13.43,2.17 26.97,3.58 40.46,5.36 6.33,0.83 12.65,1.74 18.97,2.61 0.08,1.54 0.17,3.08 0.25,4.62 -14.35,2.67 -29.11,4 -42.9,8.42 -13.25,4.24 -25.5,11.68 -43.29,20.14 7,-24.14 -0.78,-37.01 -15.24,-48.56zm12.35 910.38c-12.59,-21.43 -7.48,-35.32 16.29,-44.91 0.91,17.57 -3.67,32.31 -16.29,44.91zm-19.35 -86.06c-14.03,12.13 -30.13,6.18 -35.98,-10.91 -4.59,-13.42 -1.54,-20.94 12.41,-23.24 19.11,-3.13 34.49,-9.68 43.03,-28.85 2.09,-4.74 8.64,-7.44 13.7,-11.54 11.75,13.69 14.02,29.03 16.8,43.68 2.09,11.03 -3.26,17.44 -15.53,17.46 -13.76,0 -23.89,4.29 -34.43,13.4zm450.9 -238.64c-5.59,-1.37 -9.51,-9.74 -14.4,-15.17 18.61,-13.61 37.4,-10.96 57.42,7.75 -14.86,9.39 -29.15,10.85 -43.02,7.42zm-44.17 381.44c7.97,-39.6 32.21,-51.68 58.42,-29.58 -16.58,18.61 -34.93,27.24 -58.42,29.58zm-4.15 102.15c-13.58,4.61 -29.08,9.76 -41.07,-1.03 -11.14,-10.03 -8.5,-25.44 -6.24,-39.15 0.69,-4.15 3.57,-7.92 6.97,-15.1 9.64,9.86 17.71,18.11 27.61,28.25 4.03,-7.36 6.17,-14.07 10.56,-18.47 3.68,-3.71 10.22,-6.82 15.06,-6.26 3.33,0.37 7.49,7.1 8.56,11.64 4.43,18.61 -3.67,34.08 -21.44,40.13zm-260.24 -108.42c-10.37,-6.71 -8.87,-19.01 2.72,-22.28 12.09,-3.41 25,-4.61 37.63,-5.15 11.3,-0.49 15.26,8.96 16.46,18.19 1.43,11.08 -7.02,13.78 -15.74,14.89 -5.21,0.67 -10.46,0.8 -20.29,1.51 -4.32,-1.4 -13.64,-2.56 -20.78,-7.17zm146.72 -51.15c-28.86,-14.75 -32.97,-42.61 -36.03,-70.89 -4.61,-42.65 6.09,-78.54 44.4,-102.12 28.37,28.53 23.46,141.78 -8.37,173.01zm59.89 -38.72c10.47,-16.36 28.86,-24.13 48.87,-18.39 -6.7,12.37 -12.15,22.96 -18.15,33.22 -1.83,3.13 -4.83,5.96 -7.94,7.83 -8.17,4.9 -17.42,7.08 -24.87,-0.07 -7.7,-7.37 -2.36,-15.62 2.1,-22.59zm-51.56 -323.54c-8.46,2.42 -17.01,-5.22 -17.28,-13.76 -0.31,-10.06 7.28,-14.4 14.71,-13.5 5.85,0.71 11.03,7.07 20.04,13.43 -8.07,6.62 -12.18,12.32 -17.47,13.83zm54.13 -37.58c-8,-0.71 -10.65,-6.07 -16.6,-25.1 8.86,2.49 16,4.6 23.2,6.47 6.8,1.76 11.89,6.07 7.83,12.64 -2.31,3.74 -9.65,6.4 -14.43,5.98zm-160.74 48.13c-17.35,-5.06 -34.56,-11.06 -52.24,-14.46 -27.83,-5.36 -47.28,-22.98 -65.69,-42.51 -2.9,-3.08 -4.43,-7.94 -5.56,-12.25 -6.92,-26.57 -13.74,-53.15 -20.15,-79.85 -2.83,-11.83 -6.42,-24.14 2.6,-35.1 2.3,-2.79 5.56,-4.78 10.8,-9.18 16.94,16.21 35.28,23.32 56.91,22.06 5.19,-0.31 10.64,4.09 15.56,6.17 -0.46,12.17 -9.07,13.49 -15.79,15.25 -10.33,2.72 -17.54,9.19 -15.57,19 1.39,6.87 8.42,15.93 14.74,17.83 20.9,6.28 42.6,9.93 64.06,14.22 10.97,2.18 22.08,3.57 33.22,7.58 -15.79,11.25 -33.91,8.57 -51.29,9.5 -17.56,0.96 -35.59,-1.53 -57.32,7.69 9.37,7.99 14.7,14.15 21.35,17.87 19.2,10.7 39.04,20.18 58.41,30.6 13.07,7.03 25.74,14.85 43.03,24.89 -16.25,6.78 -26.57,3.74 -37.04,0.68zm63.42 -69.47c9.46,-13.93 18.49,-10.71 30,-4 -9.43,11.96 -18.29,10.14 -30,4zm-118.75 383.5c-6.72,23.67 -20.02,32.18 -52.03,32.19 7.91,-25.32 19.52,-32.22 52.03,-32.19zm102.59 -135.06c-0.18,6.57 -6.04,11.35 -10.21,7.32 -6.09,-5.89 -10.43,-14.6 -12.92,-22.9 -1.11,-3.74 4.07,-9.41 7.75,-16.96 11.78,11.93 15.65,21.49 15.37,32.54zm211.64 -219.18c-16.57,17.64 -37.83,14.01 -63.74,15.61 8.59,-14.08 14.36,-23.5 19.74,-32.29 26.58,-0.61 31.4,1.14 44,16.68zm-139.71 -3025.36c0.18,-6.13 0.69,-12.24 1.29,-18.32 0.14,-1.31 1.35,-2.52 3.14,-5.67 4.93,2.08 10.76,3.37 15.22,6.61 32.36,23.43 56.42,52.25 64,93.72 15.64,85.6 23.6,171.44 12.38,258.24 -1.91,14.79 -5.74,29.33 -8.68,43.99 -2.36,0.18 -4.71,0.37 -7.06,0.56 -29.64,-28.96 -54.04,-61.87 -60.18,-104.47 -13.13,-91.02 -22.67,-182.42 -20.11,-274.65zm108.89 58.18c-13.03,-55.06 -43.43,-99.1 -90.35,-130.74 -15.68,-10.57 -25.68,-25.07 -32.68,-44.82 15.46,-6.32 28.67,-4.78 39.32,2.86 37.72,26.98 74.63,55.12 111.88,82.79 8.83,6.57 7.25,16.37 7.5,25.3 1.76,63.64 4.08,127.28 4.46,190.93 0.18,30.03 5.99,57.71 20.44,83.74 4.46,8.01 8.48,16.26 12.78,24.37 12.58,23.71 16.2,48.82 14.35,75.63 -3.39,48.54 -0.44,96.67 17.9,142.44 13.86,34.58 20.78,70.64 22.02,107.56 2.46,73.57 3.74,147.19 5.08,220.79 0.18,9.53 -2.06,19.11 -3.31,29.85 -17.39,-4.67 -24.53,-16.79 -30.96,-28.5 -9.54,-17.4 -17.47,-35.69 -26.21,-53.56 -10.07,-20.57 -20.96,-40.76 -30.1,-61.74 -4.5,-10.32 -8.04,-21.97 -8.29,-33.1 -1.35,-58.75 -16.57,-115.21 -26.5,-172.51 -9.01,-51.96 -11.07,-102.99 4.69,-154.57 18.93,-61.89 18.14,-125.76 9.33,-189.29 -5.46,-39.39 -12.21,-78.78 -21.36,-117.44zm-99.26 2584.63c-1.12,-28.13 -3.8,-29 -30.56,-20.65 -21.5,6.72 -43.76,11.44 -66.01,14.98 -16,2.54 -30.25,5.78 -43.25,17.09 -19.4,16.87 -41.9,12.12 -56.04,-9.67 -1,-1.54 -0.35,-4.21 -0.65,-9.9 5.33,1.9 8.63,2.17 10.58,3.94 9.6,8.75 17.29,4.96 25.92,-2.13 12.28,-10.1 24.86,-20.13 38.46,-28.17 6.41,-3.78 16.25,-5.49 23.25,-3.5 12.68,3.58 23.83,1.51 35.36,-2.81 9.2,-3.44 18.21,-8.04 27.72,-9.75 7.78,-1.41 16.69,-0.88 24.22,1.58 20.78,6.83 41,15.42 61.63,22.75 21.26,7.56 38.53,20.26 54.26,40.18 -13.8,3.21 -23.33,-3.03 -33.01,-7.03 -6.25,-2.58 -11.74,-7.01 -17.93,-9.76 -9.36,-4.17 -18.89,-6.03 -27.51,2.14 -8.67,8.21 -17.53,7.24 -26.43,0.7zm481.88 -219.93c-16.5,-40.62 -26.39,-82.89 -30.02,-126.67 -2.37,-28.74 3.39,-56.48 10.79,-83.76 2.39,-8.78 10.02,-16.11 15.25,-24.11 1.59,0.42 3.21,0.83 4.82,1.26 1.85,11.67 4.32,23.28 5.46,35.03 2.87,29.65 4.2,59.48 8.03,89 2.13,16.43 7.91,32.39 12.22,48.51 5.71,21.28 11.79,42.44 17.26,63.8 1.08,4.25 1.78,10.01 -0.2,13.36 -4.04,6.83 -9.03,15.15 -15.56,17.64 -3.8,1.44 -12.64,-6.21 -16.9,-11.63 -5.04,-6.42 -8.02,-14.68 -11.17,-22.43zm118.75 390.03c-19.64,-50.65 -28.04,-103.44 -31.96,-157.14 -4.96,-68.1 -8.35,-136.3 -13.52,-204.39 -2.13,-28.22 -8.44,-56.14 -10.43,-84.37 -3.71,-52.79 -5.67,-105.71 -8.24,-158.57 -0.18,-3.71 0.61,-7.46 0.86,-10.33 13.46,1.42 26.24,1.63 38.41,4.43 9.26,2.11 18.96,6.02 26.32,11.87 10.01,7.97 18.18,18.38 26.76,28.07 27.79,31.4 54.72,63.63 83.35,94.24 19.43,20.78 33.15,43 36.04,72.24 2.57,26.07 10.29,51.19 23.21,74.13 16.07,28.54 17.1,58.44 8.68,89.08 -4.46,16.19 -8.81,32.87 -16.37,47.68 -27.17,53.14 -41.07,110.29 -52.76,168.28 -2.86,14.17 -6.21,28.22 -9.54,43.21 25.57,-15.04 38.24,-39.89 33.13,-66.56 -2.25,-11.74 -0.31,-21.21 7.56,-29.64 12.6,-13.53 21.58,-12.6 34.81,4.18 -24.63,12.3 -30.26,35.37 -29.64,59.72 0.89,35.22 4.54,70.37 6.53,105.58 0.96,17.26 5.72,34.99 -3.19,51.31 -43.37,9.1 -53.46,-0.02 -50.51,-42.76 1.29,-18.72 0.22,-37.61 0.22,-56.43 -1.64,-0.25 -3.28,-0.5 -4.92,-0.75 -2.28,12.65 -4.54,25.32 -7.4,41.22 -40.68,-19.76 -71.54,-43.46 -87.39,-84.3zm0.31 126.78c-6.63,-15.1 -9.38,-31.93 -13.93,-48.57 12.68,-5.51 23.36,-3.26 29.18,6.83 10.26,17.82 18.89,36.68 26.91,55.68 1.79,4.25 -0.07,13.48 -3.32,15.63 -3.75,2.44 -12.87,1.69 -16.21,-1.44 -8.74,-8.2 -17.91,-17.39 -22.62,-28.13zm-2124.29 -5487.22c-10.7,-15.76 -8.94,-33.35 -5.14,-50.82 1.83,-8.41 7.17,-12.62 16,-13.32 14.94,-1.18 28.18,2.31 40.56,11.04 12.96,9.14 27.03,16.72 39.71,26.22 7.02,5.25 13.97,12.13 17.76,19.86 6.25,12.74 9.92,26.76 15.07,41.4 -24.18,15.83 -47.19,19 -70.64,14.74 -9.68,-1.76 -19.87,-7.83 -27.03,-14.86 -10.17,-9.99 -18.2,-22.33 -26.29,-34.26zm1254.72 5036.87c-5.1,-18.35 -5.63,-147.35 -0.68,-170.4l190.91 0 0 170.4 -190.22 0zm170.25 67.48c-10.63,-8.53 -18.43,-19.06 -28.11,-21.3 -9.41,-2.18 -20.76,4.12 -30.62,6.54 3.54,-23.9 9.91,-29.53 32.56,-23.92 26.28,6.5 49.24,-1.28 71.53,-14 7.11,-4.06 14.22,-8.08 24.24,-13.76 8.25,26.09 10.19,50.1 10.79,75.71 -14.64,-0.08 -15.54,-9.3 -19.31,-15.33 -16.36,-26.13 -29.8,-27.74 -52.28,-5.65 -3.18,3.13 -5.44,7.21 -8.79,11.72zm-165.54 -272.92c4.06,-6.98 5.32,-12.28 8.21,-13.41 4.65,-1.88 10.37,-1.26 15.65,-1.26 64.3,-0.07 128.61,-0.28 192.92,0.26 7.57,0.07 21.54,-5.92 21.2,8.58 -0.28,12 -13.07,6.97 -20.29,7.01 -64.29,0.41 -128.59,0.26 -192.9,0.18 -6.65,0 -13.31,-0.71 -24.79,-1.36zm486.85 -1874.08c3.78,-73.67 -4.24,-145.03 -24.53,-215.86 -8.78,-30.67 -11.26,-63.31 -15.24,-95.22 -1.6,-12.72 -0.76,-26.17 1.5,-38.82 1.14,-6.35 6.85,-14.54 12.49,-16.78 9.01,-3.58 17.82,1.44 22.71,10.56 4.32,8.07 9.28,16.14 11.7,24.83 4.47,16 13.78,27.37 28.49,33.56 45.54,19.18 63.82,61.35 83.9,101.68 6.37,12.78 4.83,27.03 -3.54,39.44 -5.99,8.86 -11.82,17.92 -18.65,26.1 -17.2,20.59 -25.72,44.57 -30.25,70.82 -6.9,40.03 -14.78,79.87 -22.72,119.71 -2.25,11.22 -5.42,22.42 -9.61,33.03 -2.57,6.47 -7.92,11.8 -12.03,17.67 -2.17,-0.42 -4.33,-0.83 -6.52,-1.24 -2.75,-6.86 -7.03,-13.5 -8,-20.61 -4.04,-29.56 -11.21,-59.47 -9.71,-88.86zm418.4 2687.96c0.44,-19.1 0.42,-38.33 2.8,-57.22 3.03,-24 14.65,-34.65 38.18,-38.06 15.53,-2.24 31.26,-6.17 48.2,2.6 -1.13,16.68 -9.78,27.63 -20.25,36.26 -8.71,7.19 -13.61,15.71 -17.56,25.86 -8.47,21.8 -25.39,36.82 -47.65,42.65 -1.28,-3.97 -3.79,-8.07 -3.71,-12.09zm-48.94 301.28c0.4,-33.74 1.69,-67.46 2.61,-101.19 0.44,-16.85 7.14,-28.36 23.32,-35.75 11.44,-5.24 21.11,-14.67 31.15,-22.76 15.96,-12.86 17.5,-13.25 33.18,-1.35 6.01,4.57 11.48,9.86 19.76,17.04 -21.22,11.53 -27.32,29.68 -28.36,49.35 -1.25,23.67 -0.44,47.43 -0.47,71.15 -0.02,12.92 3.22,27.78 -9.32,36.06 -15.7,10.35 -31.94,21.76 -51.86,20.79 -5.39,-0.26 -12.33,-6.04 -15.21,-11.19 -3.51,-6.33 -4.9,-14.68 -4.8,-22.14zm-2220.78 -5979.42c-7.4,-5.08 -7.42,-12.86 -2.18,-20.2 2.21,-3.1 4.63,-6.06 7.17,-8.88 25.25,-28.01 40.62,-25.85 56.69,8.32 5.07,10.79 11.79,21.43 8.57,37.13 -25.64,3.33 -49.03,-1.79 -70.25,-16.36zm2251.44 4235.32c-62.92,-59.38 -105.35,-130.5 -116.82,-217.83 -5.08,-38.79 4.03,-76.33 18.48,-112.36 14.41,-35.87 35.04,-67.96 59.64,-97.43 22.91,-27.44 48.87,-50.43 87.86,-55.75 2.26,-14.21 3.13,-26.59 6.38,-38.3 4.47,-16.07 9.54,-32.24 16.8,-47.14 3.7,-7.61 11.94,-14.01 19.58,-18.36 16.33,-9.29 29.39,-4.14 36.72,13.32 2.33,5.56 3.39,11.71 4.62,17.68 1.24,5.92 1.97,11.93 3.06,18.69 25.47,3.1 52.21,-4.24 76.59,13.79 -4.82,7.94 -9.18,14.83 -13.24,21.92 -4.15,7.26 -9.22,14.31 -11.74,22.14 -5.74,17.94 0.06,28.54 18.42,31.25 16.68,2.46 24.31,14.82 32.06,26.56 2.89,4.37 1.78,13.65 -0.85,19.04 -3.92,8.04 -10.21,15.2 -16.51,21.71 -12.74,13.14 -26.09,25.7 -39.33,38.32 -12.07,11.48 -19.4,25.44 -21.56,42.01 -1.79,13.68 -3.25,27.4 -4.5,41.14 -3.56,38.97 -16.49,73.39 -48.26,97.83 -16.52,12.69 -26.53,29.08 -32.11,48.78 -8.14,28.74 -16.15,57.51 -24.41,86.22 -2.96,10.31 -6.26,20.52 -9.71,30.67 -3.39,10.03 -10.98,12.78 -19.92,8.97 -7.57,-3.22 -15.35,-7.26 -21.28,-12.86zm-198.74 -346.99c-1.39,-9.03 -1.42,-18.35 -1.43,-27.54 -0.09,-95.17 -0.04,-190.33 -0.04,-285.49l0.32 0c0,-95.17 -0.47,-190.33 0.39,-285.5 0.18,-18.85 3.61,-38.22 8.93,-56.32 6.7,-22.78 22.56,-39.5 42.85,-51.79 7.5,-4.54 13.85,-4.49 20.78,1.1 11.52,9.26 21.07,19.4 24.44,34.79 3.13,14.18 7.65,28.08 12,41.96 10.69,34.11 27.82,64.58 51.29,91.39 7.54,8.63 14.97,17.35 22.72,25.76 21.25,23.1 24.02,49.64 10.42,76.54 -7.14,14.14 -6.69,25.92 -0.87,39.11 1.24,2.79 1.9,5.86 3.33,8.54 21.62,40.67 5.03,76.06 -23.39,101.18 -36.17,31.99 -49.06,72.29 -59.06,115.92 -0.68,2.98 -1.49,6.03 -1.57,9.06 -0.64,22.02 -10.56,38.15 -26.19,53.68 -12.56,12.47 -20.47,30.1 -29,46.22 -7.5,14.14 -12.63,29.56 -19.54,44.04 -3.93,8.24 -8.54,16.44 -14.43,23.26 -3.42,3.96 -10,6.94 -15.07,6.82 -2.48,-0.06 -6.14,-7.98 -6.87,-12.74zm162.64 -590.01c-31.06,-46.17 -54.96,-95.3 -57.26,-152.63 -0.48,-12.02 2.64,-22.72 10.64,-31.78 1.52,-1.71 3.04,-3.44 4.68,-5.01 29.93,-28.6 32.44,-33.31 60.54,-0.78 4.44,5.14 9.79,9.64 15.24,13.72 24.97,18.68 28.01,38.74 5.87,60.47 -11.22,11.01 -13.4,23.19 -14.58,36.96 -0.92,10.83 3.03,17.9 14.63,18.86 0.75,0.06 1.51,0.15 2.25,0.33 37.1,8.85 47.6,25.03 40.83,62.92 -2.39,13.43 -13.81,20.44 -37.6,20.67 -16.06,-0.15 -33.71,-6.6 -45.24,-23.74zm-167.06 -223.68c7.14,-25.68 17.92,-50.32 27.02,-75.44 4.12,-11.39 11.82,-15.04 23.24,-11.96 23.68,6.43 45.83,15.79 64,33.07 11.19,10.67 13.01,19.06 4.4,32.37 -6.14,9.5 -13.72,18.47 -22.19,25.88 -24.04,21.04 -49.04,40.94 -73.28,61.75 -8.32,7.14 -16.83,9.44 -29.36,5.65 -4.82,-25.22 -0.08,-48.75 6.18,-71.32zm186.97 627.57c-9.58,-29.14 10.31,-68.56 37.56,-75.87 9.06,-2.43 14.93,0.92 15.52,10.85 1.29,21.88 -4.42,42.94 -16.22,60.6 -8.87,13.26 -24.14,7.76 -36.85,4.43zm-6346.93 -2851.07c-9.75,-1.61 -16.63,-7.83 -16.68,-18.6 -0.11,-18.76 0.44,-37.53 0.78,-59.69 9.57,2.83 13.82,3.98 18.02,5.35 49.14,16.1 49.22,16.22 48.37,71.22 -16.48,5.67 -33.56,4.52 -50.48,1.72zm162.15 -21.31c-2.7,20.85 -22.09,22.5 -37.61,31.49 -10.79,-24.24 -16.83,-48.38 -19.56,-73.31 -2.07,-19.04 -2.36,-38.28 -4.03,-57.39 -1.35,-15.28 2.64,-28.65 11.99,-42.11 38.78,6.89 56.17,24.17 56.64,61.43 0.33,26.6 -4,53.36 -7.43,79.89zm2560.12 -1278.11c-34.8,-37.81 -28.86,-79.9 -21.53,-122.4 23.35,-0.5 40.5,11.37 47.26,31.58 5.56,16.61 10.97,33.28 17.2,49.62 3.69,9.68 1.37,16.46 -7.09,21.32 -11.15,6.41 -22.5,12.5 -35.85,19.87zm539.02 -194.04c-42.72,1.38 -66.87,-44.29 -51.61,-94.83 39.91,10.67 63.98,53.94 51.61,94.83zm12 285.96c-13.83,-21.75 -17.47,-45.04 -10.07,-69.83 4.4,-14.72 13.29,-22.32 25.08,-22.82 11.88,-0.52 17.44,3.79 20.52,15.92 0.74,2.94 1.33,5.94 1.93,8.93 6.92,33.94 -3.8,53.58 -37.46,67.81zm55.74 -289.5c-7.85,-4.43 -14.83,-13.74 -18.13,-22.43 -7.22,-19.04 -11.83,-39.09 -18.63,-62.58 8.14,2.53 13.42,2.85 17.02,5.5 18.87,13.9 38.35,27.25 55.61,43.03 15.56,14.21 19.26,33.74 14.65,58.18 -17.89,-7.44 -35.1,-12.96 -50.53,-21.69zm68.65 115.29c-49.41,-5.11 -62.38,-24.65 -73.85,-71.5 30.56,-6.56 54.32,6.14 74.54,27.19 4,4.18 5.81,12.37 5.44,18.53 -0.54,8.79 -4,17.41 -6.14,25.78zm295.35 63.97c-20.04,-26.46 -25.21,-55.5 -16.44,-87.39 30.01,1.87 41,12.5 46.39,43.47 3.83,22.06 -2.21,30.98 -29.94,43.92zm78.4 297.08c-2.15,32.68 -3.01,33.97 -23.96,34.79 -0.03,-14.93 -10.26,-29.29 -0.24,-48.35 9.42,5.28 17.04,9.56 24.19,13.56zm-24.35 -259.39c-9.15,-37.65 -9.15,-37.65 5.01,-53.48 3.26,1.3 6.83,2.47 10.18,4.11 34.42,16.9 35.46,20.24 16.13,57.15 -9.89,-2.46 -20.46,-5.08 -31.32,-7.78zm61.89 327.13c4.44,-17.49 11.94,-34.17 18.01,-50.9 19.13,5.4 49.03,33.54 59.1,53.53 -9.89,14.33 -19.22,29.11 -29.82,42.89 -9.11,11.85 -28.31,10.49 -37.2,-1.96 -9.32,-13.02 -14.01,-28.15 -10.09,-43.56zm160.58 -158.87c-14.11,-26.82 -25.25,-47.26 -5.94,-74.7 2.63,-3.72 4.51,-7.97 6.75,-11.96 13.13,-23.42 13.41,-23.53 39.31,-16.39 19.04,5.25 20.03,6.49 21.32,26.26 0.31,4.58 0.81,9.15 1.13,12.81 3.22,22.98 -4.25,41.56 -18.57,57.74 -8.69,9.83 -19.78,14.14 -32.62,12.18 -4.09,-0.63 -9.7,-2.75 -11.36,-5.94zm97.4 59.25c-7.17,7.07 -15.74,12.74 -26.4,7.08 -7.83,-4.17 -14.86,-22.75 -12.5,-32.58 1.24,-5.15 3.43,-10.07 5.25,-15.07 8.07,-22.07 13.24,-24.07 32.57,-11.7 8.75,5.58 16.94,12.07 29.35,21 -11.24,12.54 -19.28,22.4 -28.26,31.28zm199.14 737.82c-1.59,-13.96 -3.57,-25.06 -4.01,-36.21 -1.15,-29.03 -2.56,-58.11 -2.07,-87.14 0.36,-20.83 8.44,-38.76 27.92,-49.29 17.56,-9.48 25.13,-7.42 35.28,9.52 21.96,36.62 18.04,76.33 13.28,116.06 -0.43,3.61 -2.28,7.58 -4.68,10.32 -16.97,19.4 -38.87,29.54 -65.71,36.75zm127.43 -299.83c7.13,13.56 6.14,18.89 -6.17,26.8 -12.04,7.75 -24.87,14.26 -37,21.11 -9.24,-8.58 -40.39,-76.48 -45.01,-98.12 10.5,0 22.28,-3.38 30.48,0.65 23.07,11.32 44.99,25.42 57.7,49.56zm-5.97 -64.17c-12.31,-8.28 -13.92,-16.67 -6.49,-29.46 5.75,-9.9 12.38,-19.33 19.31,-28.44 10.97,-14.47 18.97,-17.82 35.43,-10.71 39.35,16.99 77.21,36.1 95.53,79.67 4.02,9.54 12.33,17.35 19.18,25.52 14.18,16.9 19.7,36.11 15.43,57.82 -3.76,19.24 -8.2,38.33 -12.97,60.5 -20.96,-18.51 -35.7,-36.74 -40.97,-60.46 -4.7,-21.14 -16.31,-36.42 -33.86,-46.79 -19.57,-11.56 -40.22,-21.26 -60.42,-31.76 -10.1,-5.24 -20.79,-9.56 -30.17,-15.88zm131.29 -307.29c-5.9,-9.39 -9.25,-21.03 -11.29,-32.13 -2.1,-11.39 5.47,-18.43 16.3,-14.91 9.72,3.15 20.35,8.17 26.88,15.65 13.46,15.43 24.89,32.79 36.35,49.91 8.67,12.93 9.93,27.92 3.44,41.78 -9.53,20.36 -11.04,41.1 -7.81,62.81 0.9,6.04 1.26,12.25 1.08,18.36 -0.35,10.94 3.28,23.22 -12.75,27.86 -21.06,6.1 -31.92,4.24 -41.96,-10.5 -10.18,-14.92 -15.56,-31.43 -16.72,-50.06 4.21,-20.97 7.63,-42.14 12.87,-62.83 4.24,-16.65 2.94,-31.04 -6.4,-45.93zm150.89 849.21c-18.63,-20.94 -36.33,-42.72 -53.79,-64.68 -2.26,-2.85 -0.96,-8.61 -1.67,-17.64 10.74,2.97 17.94,4.54 24.83,7.01 7,2.5 13.68,5.89 21.47,9.33 4.18,-6.93 7.64,-13.61 11.97,-19.65 9.74,-13.57 16.44,-14.08 26.53,-1.48 5.68,7.08 10.58,14.97 14.74,23.07 6.53,12.67 6.32,24.43 -4.9,35.44 -7.52,7.39 -12.96,16.89 -19.65,25.18 -5.41,6.72 -13.28,10.43 -19.53,3.42zm64.92 -16.39c-2.09,-7.71 -5.85,-16.57 3.83,-22.56 8.32,-5.14 15.7,-3.03 22.83,2.85 21.75,17.89 43.72,35.59 56.94,61.46 2.93,5.75 4.74,12.1 7.58,19.5 -6.02,1.63 -9.54,3.6 -12.89,3.33 -33.14,-2.59 -69.72,-32.67 -78.3,-64.58zm35.91 -828.9c5.13,-15.75 10.64,-31.37 16.99,-49.82 21.03,10.56 39.53,23.11 54.53,39.87 3.82,4.26 3.54,14.79 1.61,21.37 -6.13,20.86 -20.63,36.47 -35,54.57 -20.4,-15.58 -32.08,-34.31 -38.13,-56.97 -0.76,-2.82 -0.89,-6.29 0,-9.03zm126.11 385.9c-9.52,25.18 -12.63,28.04 -39.39,28.44 -14.2,0.21 -19.22,-4.17 -19.29,-18.97 -0.04,-8.3 1.14,-16.85 3.26,-24.87 4.17,-15.74 1.42,-27.83 -12.26,-38.17 -17.33,-13.07 -22.06,-32.26 -19.97,-53.29 1.39,-14.13 7.35,-19.26 21.04,-16.52 7.89,1.58 16.17,4.97 22.52,9.87 18.1,14.02 31.51,31.07 42.14,52.63 10.79,21.86 9.85,39.99 1.96,60.87zm-0.6 751.1c0.25,-9.79 -1.61,-19.63 -1.71,-29.44 -0.1,-11.36 -0.14,-22.86 1.5,-34.04 0.58,-4.03 6.14,-7.31 9.43,-10.93 3.26,3.49 8.14,6.42 9.5,10.56 5.24,15.86 8.54,32.42 14.14,48.14 4.4,12.36 5.83,25.79 18.48,35.24 7.52,5.59 4.37,18.22 -0.03,28.08 -3.21,0.17 -6.19,0.68 -9.11,0.43 -38.82,-3.39 -43.22,-8.67 -42.21,-48.03zm82.46 -513.9c0.43,-17.97 0.11,-35.96 0.11,-53.93 2.17,-0.96 4.35,-1.91 6.53,-2.87 5.83,4.39 12,8.43 17.44,13.28 8.49,7.57 16.91,15.3 24.61,23.65 13.48,14.6 28.51,20.39 48.69,15.59 20.81,-4.96 27.58,-1.21 31.82,11.48 7.53,22.53 3.14,37.86 -13.83,47.03 -20.91,11.31 -41.5,12.14 -62.02,-1.57 -11.32,-7.57 -23.17,-14.35 -35.02,-21.06 -12.32,-7 -18.68,-16.96 -18.35,-31.59zm30.08 -384.25c-2.48,-3.51 0,-13.89 3.64,-17.85 5.74,-6.22 15.29,-4.93 19.9,1.89 6.02,8.89 9.44,19.58 15.53,32.86 7.19,0 17.58,-0.3 27.94,0.08 9.86,0.36 20.13,0.93 24.82,11.98 3.17,7.46 -3.51,27.97 -10.32,33.61 -8.17,6.75 -24.63,9.44 -31.5,1.63 -17.87,-20.35 -34.33,-42.07 -50.02,-64.21zm137.35 1372.35c-23.6,1.13 -46.79,3.47 -69.93,2.99 -22.42,-0.46 -39.86,-13.64 -54.35,-29.7 -11.83,-13.12 -7.28,-42.29 7.57,-50.94 4.53,-2.64 12.21,-3.18 17,-1.17 7.42,3.11 15.64,7.86 19.9,14.35 11.31,17.17 27.85,21.93 46.17,25.17 23.6,4.19 28.14,9.68 33.64,39.3zm27.89 57.67c-1.22,-6.75 -2.56,-13.49 -3.85,-20.24 -0.09,-11.99 4.87,-18.99 16.92,-20.78 5.96,-0.89 11.69,-3.25 17.64,-4.3 10.22,-1.81 18.94,-5.22 22.64,-16.33 0.93,-2.83 2.94,-5.35 4.68,-7.85 15.41,-22.1 29.96,-21.44 42.85,1.9 11.09,20.1 8.07,43.61 -11.81,54.44 -21.68,11.82 -45.9,19.19 -69.51,26.93 -9.91,3.25 -17.53,-2.56 -19.56,-13.78zm115.22 -1073.14c1.33,-5.93 1.87,-12.24 4.3,-17.67 1.67,-3.74 5.47,-7.69 9.21,-9.1 20.59,-7.68 52.13,17.46 48.53,39.59 -6.82,42.04 -15.14,83.82 -23.53,129.48 -15.33,-18.14 -27.9,-33.61 -31.44,-56.42 -4.43,-28.58 -13.64,-56.46 -7.07,-85.89zm189.69 883.18c-17.25,6.61 -27.8,-0.97 -37.89,-9.21 -19.23,-15.74 -33.03,-36.24 -42.9,-58.51 -8.39,-18.92 -20.85,-28.64 -40.29,-32.36 -9.5,-1.82 -18.65,-6.24 -27.5,-10.46 -7.36,-3.52 -12.4,-9.83 -9.03,-18.6 2.93,-7.63 5.71,-17.06 16.21,-16.78 24.14,0.63 46.79,2.02 67.71,19.82 33.01,28.11 57.75,60.22 68.51,102.71 1.85,7.33 3.28,14.76 5.18,23.39zm-62.86 -601.43c2.64,-8.06 6.07,-15.87 18.89,-14.22 -0.72,13.86 -2.98,27.59 -1.69,40.97 1.31,13.44 6.14,26.53 9.71,40.86 -8.42,3.25 -16.33,0.44 -19.9,-7.61 -8.44,-19.03 -13.88,-39 -7,-60zm72.07 -263.96c5.71,-20.46 4.42,-38.06 -14.07,-53.36 -8.32,-6.9 -12.94,-20.28 -15.75,-31.6 -2.97,-11.97 3.5,-16.71 15.67,-14.75 36.63,5.91 67.1,41.56 66.13,78.98 -0.19,7.74 -3.75,16.47 -8.39,22.76 -10.44,14.18 -24.69,24.08 -41.5,31.81 -5.93,-11.68 -5.22,-22.56 -2.08,-33.85zm38.22 -156.92c8.56,-14.38 18.17,-28.14 27.85,-41.79 4.69,-6.63 10.58,-10.93 19.04,-4.52 32.63,24.75 63.86,50.85 86.28,86.52 -31.86,1.32 -62.42,2.94 -93,3.72 -18.15,0.46 -36.02,-1.81 -54.32,-13.43 4.75,-10.42 8.51,-21.03 14.15,-30.5zm12.51 1080.37c-4.01,-6.52 -4.58,-16.22 -4.11,-24.31 0.69,-11.71 10.56,-18.69 22.14,-17.9 25.63,1.72 50.39,20.28 56.83,45.79 12.24,48.49 5.58,95.76 -12.76,141.65 -1.33,3.33 -4.42,5.96 -8.39,11.14 -22.22,-18.3 -37.96,-38.53 -47.48,-63.3 -5.29,-13.75 -7.91,-28.38 -2.54,-42.75 6.54,-17.57 6.58,-33.67 -3.68,-50.32zm119.74 -696.29c-12.3,20.3 -28.83,34.82 -56.36,38.1 -2.39,-8.7 -4.26,-15.21 -5.97,-21.76 -3,-11.52 -0.37,-20.02 9.93,-27.67 20.75,-15.37 20.57,-24.09 1.24,-40.79 -5.74,-4.96 -12.25,-8.98 -18.1,-13.83 -10.64,-8.82 -12.54,-16 -6.14,-27.87 9.44,-17.5 24.4,-29 42.57,-36.07 11.56,-4.52 21.15,0.5 28.07,9.44 12.56,16.25 24.92,32.75 35.78,50.15 2.67,4.28 1.01,13.36 -1.7,18.65 -9,17.63 -19.06,34.72 -29.32,51.65zm44.29 214.92c-10.04,8.29 -19.9,3.75 -25,-8.58 -0.87,-2.1 -1.63,-4.35 -1.89,-6.59 -3.9,-32.11 -11.89,-62.79 -28.72,-90.82 -3.13,-5.19 -2.81,-12.51 -4.08,-18.9 34.42,-6.07 58.98,5.48 71.44,33.44 9.14,20.48 15.11,42.42 7.47,64.48 -3.5,10.13 -10.94,20.14 -19.22,26.96zm194.56 -419.08c-7.19,-17.15 -3.85,-26.78 9.71,-35.32 13.18,-8.3 24.97,-7.35 36.6,4.64 21.75,22.42 34.48,49.58 39.06,77.71 0.33,17.69 -4.81,25.29 -18.85,26.33 -18.75,1.38 -33.67,-1.33 -41.32,-19.72 -7.57,-18.22 -17.56,-35.43 -25.2,-53.64zm6.18 -446.17c3.31,-17.29 14.49,-30.17 30.46,-37.8 12.22,-5.83 18.85,-3.21 21.86,10.15 5.83,25.81 2.11,51.03 -13.79,72 -10.74,14.14 -25.59,25.1 -38.61,37.47 -1.89,-1.04 -3.79,-2.07 -5.68,-3.11 -0.89,-4.26 -2.9,-8.67 -2.47,-12.8 2.29,-22.03 4.1,-44.2 8.24,-65.91zm121.58 803.37c-4.57,-15.29 -8.83,-30.76 -11.79,-46.44 -2.96,-15.61 0.86,-20.49 16.72,-23.57 8.09,-1.57 16.46,-1.68 27.28,-2.69 9.49,1.58 21.41,3.18 33.14,5.64 11.68,2.46 17.3,11.04 13.91,22.01 -6.5,21.02 -14.29,41.68 -22.97,61.85 -1.51,3.53 -10.44,6.2 -15.26,5.35 -11.01,-1.96 -21.93,-5.61 -32.19,-10.15 -3.98,-1.76 -7.46,-7.39 -8.83,-11.99zm158.52 1238.28c-32.02,9.57 -61.58,0.74 -77.85,-26.1 -14.96,-24.69 -27.02,-51.19 -40.35,-76.89 -11.93,-22.97 -23.9,-45.92 -35.78,-68.91 -9.07,-17.54 -7.97,-29.46 3.67,-41.86 10.03,-10.67 18.02,-10.91 25.36,1.69 8.78,15.08 17.28,30.79 22.72,47.31 13.71,41.61 37.07,75.07 74.59,97.57 25.26,15.15 35.39,36.46 27.64,67.18zm299.97 1480.78c-1.78,0.56 -3.54,1.11 -5.31,1.67 -32.82,-29.92 -67.08,-59 -60.92,-111.37 1.85,-0.91 3.13,-2 4.49,-2.13 41.3,-4.02 59.65,8.82 64.39,59.47 1.61,17.21 -1.64,34.89 -2.65,52.36zm-63.43 -203.86c-5.76,-7.97 -5.18,-27.56 2.74,-34.18 12.68,-10.63 25.94,-21.42 40.7,-28.39 17.29,-8.15 33.86,-3.24 49.39,16.25 -17.92,16.07 -34.41,31.3 -51.47,45.82 -3.82,3.25 -9.61,4.28 -14.64,5.87 -9.8,3.13 -19.61,4.47 -26.71,-5.37zm448.99 5559.36l14.67 -2c1.7,8.33 4.53,14.33 8.56,18 4.03,3.67 8.97,5.5 14.83,5.5 6.94,0 12.81,-2.39 17.53,-7.17 4.72,-4.78 7.08,-10.69 7.08,-17.75 0,-6.72 -2.19,-12.28 -6.61,-16.67 -4.39,-4.36 -9.97,-6.56 -16.78,-6.56 -2.78,0 -6.22,0.56 -10.36,1.64l1.64 -12.83c0.97,0.11 1.78,0.17 2.36,0.17 6.28,0 11.89,-1.64 16.92,-4.89 5,-3.25 7.5,-8.25 7.5,-15 0,-5.36 -1.83,-9.81 -5.47,-13.33 -3.64,-3.53 -8.33,-5.28 -14.09,-5.28 -5.72,0 -10.47,1.8 -14.28,5.41 -3.81,3.61 -6.25,9.03 -7.33,16.25l-14.67 -2.67c1.81,-9.83 5.86,-17.47 12.22,-22.89 6.33,-5.42 14.25,-8.11 23.7,-8.11 6.5,0 12.5,1.39 17.97,4.19 5.5,2.78 9.69,6.58 12.58,11.39 2.92,4.83 4.36,9.94 4.36,15.36 0,5.14 -1.39,9.81 -4.14,14.03 -2.78,4.22 -6.89,7.59 -12.3,10.09 7.06,1.61 12.53,5 16.44,10.14 3.89,5.11 5.83,11.56 5.83,19.25 0,10.42 -3.8,19.28 -11.39,26.53 -7.61,7.25 -17.22,10.86 -28.83,10.86 -10.47,0 -19.17,-3.14 -26.08,-9.39 -6.94,-6.25 -10.89,-14.33 -11.86,-24.28z"/>
 </g>
</svg>
