<?xml version="1.0" encoding="UTF-8"?>
<!DOCTYPE svg PUBLIC "-//W3C//DTD SVG 1.1//EN" "http://www.w3.org/Graphics/SVG/1.1/DTD/svg11.dtd">
<!-- Creator: CorelDRAW 2018 (64-Bit) -->
<svg xmlns="http://www.w3.org/2000/svg" xml:space="preserve" width="8.26772in" height="11.6929in" version="1.1" style="shape-rendering:geometricPrecision; text-rendering:geometricPrecision; image-rendering:optimizeQuality; fill-rule:evenodd; clip-rule:evenodd"
viewBox="0 0 8267.72 11692.91"
 xmlns:xlink="http://www.w3.org/1999/xlink">
 <defs>
  <style type="text/css">
   <![CDATA[
    .fil0 {fill:#2B2926}
   ]]>
  </style>
 </defs>
 <g id="Layer_x0020_1">
  <metadata id="CorelCorpID_0Corel-Layer"/>
  <path class="fil0" d="M4253.23 7880.67c-17.4,13.62 -34.48,19.87 -56.32,16.74 -23.04,-3.31 -45.31,0.28 -64.83,15.78 15.81,-27.37 37.42,-48.58 69.33,-48.47 40.52,0.15 65.25,-23.96 90.1,-50.01 23.78,-24.93 52.98,-42.36 79.19,-62.99 13.07,12.58 23.5,23.4 34.78,33.22 11.07,9.64 26.53,14.01 34.36,27.57 -0.65,1.99 -1.32,3.99 -1.97,5.97 -11.83,-0.94 -23.75,-1.32 -35.48,-2.94 -20.02,-2.78 -39.4,-1.51 -57.79,7.36 -18.96,9.14 -22.54,19.37 -14.37,38.98 4.09,9.86 8.46,19.63 12,29.7 1.18,3.32 0.19,7.43 0.19,12.35 -11,-1.94 -15.24,-10.72 -21.28,-16.79 -24,-24.07 -41.48,-27.14 -67.9,-6.46zm551.47 898.54c16.03,6.99 18.04,14.96 5.65,27.6 -24.74,25.24 -55.13,34.64 -87.1,47.63 -27.43,11.15 -55.01,21.9 -82.46,33.01 -6.83,2.76 -13.33,6.32 -24.02,11.44 8.71,3.02 13.15,5.56 17.78,5.97 21.89,1.96 43.82,4.58 65.75,4.64 52.53,0.14 102.35,10.7 149.2,35.11 84.26,43.91 170.89,83.72 252.44,132.26 289.46,172.3 600.9,291.86 917.97,398.39 312.5,104.99 497.24,134.24 812.41,175.83 210.77,27.81 421.82,48.82 633.54,67.71 21.6,1.93 43.67,-1.74 67.44,-2.92 1.32,11.6 3.19,25.03 4.32,38.53 8.31,100.19 15.58,200.5 24.9,300.6 13.72,147.46 28.91,294.79 43.38,442.18 4.14,42.03 6.78,75.45 -38.67,94.59 -34.04,14.36 -70.14,19.39 -106.4,22.78 -154.37,14.43 -309.24,14.4 -464.03,14.06l-5425.67 -14.17c-129.79,-0.41 -259.57,-3.06 -388.94,-14.24 -86.99,-7.52 -173.29,-19.5 -256.35,-49.24 -106.4,-38.1 -178.3,-110.28 -215.48,-218.21 -47.13,-136.74 -56.05,-342.2 -56.79,-485.14l-24.75 -5974.57c-0.04,-9.82 -0.01,-19.64 -0.01,-31.63 14.44,2.22 26.22,5.17 38.08,5.64 37.86,1.49 75.81,3.72 113.63,2.65 97.87,-2.75 195.39,-10.72 292.47,-24.08 79.1,-10.89 116.52,19.48 183.04,27.54 54,6.54 102.6,-5.91 140,-49.28 2.49,-2.89 5.49,-5.36 7.83,-8.35 29.26,-37.4 68.03,-50.78 114.28,-50.02 75.39,1.24 149.68,11 223.63,24.82 24.07,4.5 48.14,5.64 71.75,1.63 129.01,40.83 240.3,-13.74 259.87,-64.4 19.57,-50.68 140.93,71.29 171.13,3.39 30.21,-67.91 33.56,-101.85 80.53,-101.85 46.98,0 63.76,20.38 63.76,-44.12 0,-64.5 96.1,-2.72 110.72,-47.53 14.63,-44.82 90.6,3.39 120.79,23.76 30.21,20.36 97.32,13.57 140.93,-16.99 43.62,-30.54 91.19,67.91 137.87,20.37 46.68,-47.53 113.79,-47.53 100.36,-105.23 -13.42,-57.71 107.37,-37.35 100.67,-84.88 -6.71,-47.53 83.03,1.36 77.18,-50.92 -5.85,-52.28 46.67,55.18 177.68,-43.7 0,0 44.87,39.47 97.89,5.98 53.01,-33.48 113.11,-4.87 114.87,-42.42 1.76,-37.56 84.83,-33.97 70.69,-85.83 -14.14,-51.85 68.92,-23.23 79.53,-17.87 7.86,3.99 32.61,-17.68 56,-7.01 5.46,5.47 17.97,20.09 34.97,52.26l14.42 25.59c24.86,34.09 63.15,47.13 109.14,48.85 82.02,3.07 117.95,-39.46 241.61,-37.72 25.97,0.37 80.5,-1.85 106.09,-10.03 19.64,-6.26 32.68,-19.13 35.22,-40.72 1.43,-12.18 3.43,-24.42 3.32,-36.61 -0.47,-50.49 35.99,-58.96 75.47,-89.3 56.18,-43.18 87.53,-100.1 93.63,-171.7 2.86,-33.51 7.11,-67.09 13.68,-100.04 5.57,-28.03 19.67,-53 36.96,-75.82 9.22,-12.2 20.67,-19.86 36.28,-20.89 33.3,-2.17 66.61,129.9 99.87,127.17 34,-2.79 68.02,-44.08 101.94,-47.76 38.29,-4.17 67.08,-22.3 82.57,-59.53 23,-55.32 64.03,-88.05 124.79,-92.44 63.23,-4.57 131.7,6.46 194.4,17.86 0.4,6.96 1.1,12.24 0.94,17.49 -3.53,117.43 -7.13,234.85 -10.74,352.26 -0.7,22.44 0.2,39 -19,50.82 -12.31,7.58 -24.13,15.97 -36.43,23.56l-245.76 151.75c20.15,9.44 38.65,5.56 57.5,10.13 0.86,7.31 2.32,14.63 2.49,21.99 0.92,39.15 0.81,78.33 2.57,117.43 0.72,15.85 -5.46,24.47 -19.04,29.76 -12.02,4.68 -24.02,9.47 -35.83,14.63 -51.4,22.44 -12.22,54.7 -35.48,70.8 -8.13,5.63 -8.35,13.96 -5.54,22.7 0.47,1.46 0.54,3.11 1.25,4.41 22.93,42.2 23.04,88.3 23.09,134.56 0.03,21.48 1.65,42.97 2.97,64.41 4.76,77.8 -5.08,154.89 -10.8,232.15l-51.08 628.82c-10.33,132.36 -20.29,264.76 -29.46,397.22 -9.13,131.69 -16.69,263.51 -25.64,395.24 -7.58,111.8 -16.33,223.53 -24.25,335.32l-49.78 728.29c-6.44,93.42 -13.54,186.79 -20,280.22 -4.18,60.49 -7.17,121.09 -11.79,181.54 -3.64,47.42 -8.91,94.69 -13.61,142.03 -0.44,4.4 -2.07,8.68 -3.2,13.22 -9.9,0.97 -13.33,-3.78 -16.82,-11.88 -9.33,-21.76 -23.68,-23.48 -39.4,-6.09 -3.49,3.85 -7.5,7.22 -13.47,12.9 -12.83,-16.22 -22.76,-34.49 -39.36,-27.36 -26.2,11.25 12.01,37.43 -19.17,62.6 -7.96,-17.89 -10.11,-26.99 -38.58,-22.14 -9.82,1.67 -9.5,10.18 -9.24,18.21 0.35,10.18 0.08,20.39 0.08,32.01 -34.67,-17.89 -35.78,-17.92 -58.97,-0.98l29.43 22.59c-50.46,80.52 -76.73,32.78 -104.83,76.52 -12.99,20.21 -30.33,35.65 -52.89,45.5 -6.43,-26.82 -9.75,-30.36 -35.11,-36.74 -2.31,5.74 -4.07,12.22 -7.32,17.8 -5.98,10.32 -11.3,21.86 -19.82,29.63 -13.19,12.02 -9.68,22.57 -8.46,43.81 -12.29,0 -23.4,0.07 -34.52,-0.03 -32.01,-0.29 -5.71,17.5 -37.26,22.69 -11.98,1.96 -24.03,3.78 -36.11,4.71 -13.53,1.03 -21.97,8.36 -22.78,21.22 -1.58,25.63 -17.29,31.63 -38.98,35.67 -76.61,14.26 -138.61,52.1 -179.24,121.14 -15.96,27.13 -37.93,45.46 -67.97,53.9 -2.18,0.61 -4.19,2 -6.39,2.39 -43.5,7.54 -70.96,34.74 -90.12,73.31l-61.88 112.68c-20.65,34.43 -51.03,53.61 -90.33,59.03 -66.63,9.18 -130.18,28.78 -190.89,58.04 -20.53,9.89 -41.24,19.5 -62.33,28.07 -33.01,13.44 -65.97,15.97 -98.71,-2.26 -21.08,-11.75 -44.28,-15 -68.22,-14.75 -64.26,0.7 -57.71,-6.75 -116.43,38.86 -33.04,25.66 -56.95,43.34 -101.5,46.78 -51.36,3.96 -102.79,8.67 -153.72,16.3 -63.43,9.52 -120.67,35.21 -170.32,76.97 -4.68,3.93 -9.78,7.36 -14.22,11.52 -44.17,41.29 -97.85,56.96 -156.35,58.61 -28,0.78 -53.87,6.65 -77.35,22.9 -28.11,19.47 -56.78,38.15 -86.04,57.72 -1.22,-15.24 -10.5,-15.39 -22.43,-12.64 -37.65,8.69 -67.99,59.61 -21.43,76.32 27.56,9.89 56.56,12.97 85.28,9.07 24.61,-3.32 50,-7.61 72.71,-17.18 77.91,-32.85 159.42,-34.79 241.61,-33.9 49.87,0.52 13.34,48.88 93.71,87.37 42.06,20.14 85.86,34.74 131.59,43.15 45.85,8.45 77.46,-14.06 123.36,-12.94 51.53,1.25 103.02,5.11 154.5,7.96 15.15,0.85 30.41,0.9 45.43,2.8 25.51,3.24 51.32,5.83 76.19,12.03 30.25,7.53 54.37,1.32 71.69,-25.01 46.41,-70.5 113.54,-73.68 185.91,-58.83 18.83,3.86 37.22,10.54 57.62,24.47l-122.06 1.53c-10.56,0.13 -21.28,0.93 -31.59,3.04 -14.52,2.97 -19.59,9.29 -21.38,23.03 -3.81,29.46 24.46,29.72 59.11,46.32 18.44,8.83 36.74,18.15 54.32,28.61 7.25,4.31 12.48,12.1 19.43,19.11 -13.36,9.86 -25.67,7.63 -37.4,6.54 -31.74,-2.9 -63.4,-6.36 -95.07,-9.86 -7.76,-0.87 -14.96,-1.92 -20.48,5.7 -5.92,8.12 -4.29,15.76 0.15,23.58 33.71,59.31 65.14,12.51 118.83,43.58 17.56,10.17 79,-0.26 103.37,-1.65 15.14,-0.87 28.02,4.67 38.11,21.92 -8.17,2.46 -14.65,5.31 -21.39,6.28 -21,3.04 -42.14,5.11 -63.15,8.08 -15.21,2.15 -27.71,7.93 -30.35,25.86 -3.29,22.38 -34.67,0.5 -71.29,38 -2.96,3.03 -4.81,7.17 -9.28,14.07 10.43,1.87 18.07,4.08 25.81,4.49 15.9,0.8 32.24,-1.49 47.71,1.36 26.28,4.82 48.19,-8.4 71.8,-14.39 4.94,-1.25 8.61,-7.65 14.14,-12.87 -6.83,-9.72 -12.79,-18.21 -18.76,-26.72 22.64,-12.68 42.17,-6.42 52.76,16.17 9.04,19.26 13.75,22.19 32.57,16.19 18.04,-5.75 35.75,-12.72 53.29,-19.94 5.86,-2.42 10.74,-7.28 16.07,-11.02 -7.34,-22.02 -36.02,-18.76 -49.82,-25.9 -1.04,-0.54 -14.14,-14.57 4.22,-19.64 3.36,-0.93 7.7,0.06 11.11,1.43 27.65,11.14 55.01,23.6 73.62,48.03 9.31,12.21 19.44,13.93 31.7,10.13 20.06,-6.22 37.29,-16.65 47.26,-39.79 -19.39,-14.11 -43.39,-16.53 -64.11,-26.17 -20.25,-9.43 -42.91,-13.53 -64.53,-19.96 0.09,-1.53 0.17,-3.06 0.25,-4.58 30.83,-3.2 61.72,-5.92 92.47,-9.72 30.6,-3.79 61.07,-8.68 93,-13.28 -2.99,-22.06 -10.65,-39.42 -29.52,-47.71 -45.41,-19.96 -92.21,-35.52 -142.57,-34.92 -14.17,0.18 -28.74,0.94 -39.81,13.11 5.28,22.97 33.61,24.49 40.1,46.75 -11.86,11.44 -25.44,11.46 -36.75,2.18 -28.04,-23.01 -61.54,-32.32 -94.89,-42.65 -11.31,-3.5 -23.7,-5.76 -32.09,-18.02 3.04,-4.24 5.14,-9.85 9.13,-12.29 24.72,-15.11 49.64,-30.13 80.44,-27.1 6.79,0.67 13.69,0.17 20.47,0.92 45.02,5.02 25.9,-17.41 62.07,-24.11 74.3,-13.78 106.01,44.68 161,37 14.41,-2.02 24.94,3.08 33.03,15.07 13.08,19.39 33.08,28.33 53.79,36.71 28.12,11.39 44.82,-4.05 60.36,-23.1 11.46,-14.04 26.39,-21.21 44.07,-19.33l67.15 11.32c35.71,8.35 48.98,12.76 65.21,-30.09 7.06,-18.6 21.39,-27.35 40.78,-27.33 22.76,0 45.54,1.15 68.29,0.61l74.68 -3.93c46.52,12.64 86.74,36.18 119.03,72.61 10.32,11.63 10.92,23.21 -0.29,29.58 -23.37,13.29 -36.9,33.25 -44.01,58.58 -45.66,5.78 -25.87,-49.12 -100.64,-47.18 -90.46,2.35 -90.36,51.09 -183.37,42.89 -27.03,-2.37 -54.65,-2.98 -81.58,-0.17 -36.85,3.85 -67.51,23.6 -97.18,44.08 0.26,2 0.53,4 0.79,5.99 10.75,1.22 21.49,3.08 32.26,3.54 46.24,1.94 92.49,3.25 138.72,5.22 24.42,1.04 47.65,5.43 69.36,18.93 21.81,13.57 39.25,9.52 55.25,-12.43 14.29,-19.63 33.11,-22.79 54.31,-20.82 12.74,1.2 17.03,6.72 17.8,19.53 1.24,20.58 -10.35,37.61 -33.01,47.18 -54.56,23.04 -109.26,45.71 -163.82,68.72 -10.91,4.6 -22.99,7.56 -31.41,18.97 9.41,11.67 22.04,11.09 33.49,11.59 93.97,4.11 187.85,10.65 282.04,3.49 29.32,-2.22 59.17,0.36 88.61,2.74 30.59,2.47 59.75,11.97 85.61,28.79 49.12,31.94 102.94,51.87 158.87,67.07 12.4,3.37 24.78,7.36 36.56,12.48zm-4605.29 -8033.15l0 10200.79 7866.15 0c4.94,-54.33 2.59,-10184.04 -2.24,-10200.79l-7863.92 0zm7382.32 4596.11c-81.98,-15.8 -164.04,-32.61 -248.17,-25.46 -27,2.29 -54.5,6.56 -80.22,14.86 -63.64,20.54 -85.87,91.6 -47.8,147.11 5.61,8.19 11.64,16.14 17.92,23.82 11.54,14.1 12.75,29.37 4.44,44.99 -7.51,14.17 -15.69,28.07 -24.7,41.3 -18.5,27.18 -37.15,54.29 -56.83,80.6 -30.24,40.44 -37.93,84.26 -22.87,132.54 7.54,24.12 14.39,48.46 21.5,72.72 2.58,8.81 5.51,17.56 7.43,26.53 3.63,17.08 -1.94,30.58 -17.79,38.19 -12.96,6.24 -26.29,11.92 -39.9,16.5 -16.52,5.57 -33.38,10.24 -50.31,14.41 -51.89,12.78 -97.75,36.83 -137.61,72.9 -11.29,10.21 -23.25,19.86 -35.79,28.4 -26.07,17.78 -43.83,17.28 -68.46,-2.46 -12.43,-9.96 -23.54,-21.68 -34.68,-33.17 -12.21,-12.61 -23.06,-26.64 -35.83,-38.59 -9.89,-9.24 -21,-18.03 -33.07,-23.83 -21.86,-10.52 -38.37,-5.33 -49.54,16.47 -17.77,34.68 -48.6,48.98 -82.83,59.04 -22.37,6.57 -43.58,3.08 -63.43,-8.97 -12.35,-7.48 -24.41,-15.48 -36.8,-22.91 -16.71,-10 -34.72,-15.89 -54.28,-13.54 -28.19,3.36 -51.14,16.21 -62.15,43.69 -7.59,18.96 -17.07,18.49 -32.52,15.14 -10.32,-2.25 -20.15,-6.72 -30.37,-9.56 -6.79,-1.88 -13.91,-2.63 -21.89,-4.07 -1.54,29.98 29.39,43.57 28.06,71.04 -9.97,5 -16.78,-1.12 -23.48,-5.18 -15.64,-9.42 -30.47,-20.29 -46.46,-28.99 -11.87,-6.44 -24.69,-12.1 -37.76,-15.07 -20.11,-4.57 -32.61,5.11 -34.67,25.7 -1.29,12.92 -0.46,26.07 -0.18,39.1 0.21,9.32 -2.85,16.14 -11.33,20.68 -15.5,8.28 -27.3,3.3 -25.64,-14.17 2.56,-26.82 -7.33,-39.94 -32.96,-44.36 -5.11,-0.87 -9.38,-8.82 -13.29,-14.06 -2.68,-3.59 -3.11,-9.46 -6.32,-11.94 -3.71,-2.86 -10.17,-5.29 -13.96,-3.87 -3.17,1.18 -6.18,8.37 -5.79,12.58 0.96,10.26 3.93,20.33 6.29,31.47 -16.79,5.63 -26.22,-0.68 -35.08,-8.29 -5.2,-4.47 -10,-9.4 -14.81,-14.32 -8.25,-8.42 -17.26,-8.85 -26.71,-2.56 -8.24,5.47 -16.22,11.33 -24.29,17.07 -15.63,11.09 -32.14,20.17 -52.64,23.41 -4.35,-5.69 -8.46,-11.96 -13.44,-17.41 -9.86,-10.82 -18.19,-12.59 -30.08,-4.11 -8.47,6.03 -14.83,15.03 -22.54,22.25 -4.4,4.14 -9.62,7.36 -15.86,12.04 -6.36,-14.33 -10.35,-25.93 -16.36,-36.32 -12.44,-21.47 -25.75,-23.64 -44.06,-7 -8.33,7.57 -14.72,17.33 -21.99,26.1 -2.06,-0.72 -4.11,-1.46 -6.17,-2.19 -2.25,-7.5 -5.19,-14.88 -6.63,-22.53 -13.65,-73.91 -28.1,-147.67 -40.3,-221.81 -18.67,-113.52 -36.83,-227.14 -53.13,-341.02 -12.93,-90.35 -22.74,-181.15 -33.91,-271.76 -6.09,-49.5 -13.73,-98.86 -17.8,-148.53 -5.37,-65.75 -7.93,-131.74 -11.72,-197.62 -4.09,-71.24 -8.93,-142.43 -12.17,-213.71 -3.57,-78.99 -4.93,-158.09 -8.63,-237.07 -6.48,-138.78 -13.96,-277.5 -21.12,-416.25 -7.13,-138.17 -28.26,-274.7 -47.57,-411.41 -3.32,-23.5 1.97,-43.11 16.94,-59.41 12.04,-13.09 15.64,-27.37 14.94,-44.11 -1.65,-39.89 -3.15,-79.78 -4.67,-119.67 -0.79,-20.5 -10.69,-35.49 -28.98,-43.08 -14.6,-6.07 -30.26,-9.57 -45.58,-13.72 -8.75,-2.37 -17.74,-3.79 -26.22,-5.56 -5.25,-20.1 -3.06,-108 3.46,-138.82l46.58 0 45.98 0c2.07,-10.64 -6.57,-14.75 -12.06,-20.04 -34.58,-33.37 -69.68,-66.24 -104.18,-99.72 -14.76,-14.33 -28.65,-29.61 -42.68,-44.71 -9.2,-9.89 -12.5,-21.31 -12.5,-35.47 0.03,-118.24 -0.86,-236.47 -1.46,-354.71 -0.06,-8.28 -0.01,-16.53 -0.01,-26.01 5.91,0.51 9.68,0.29 13.12,1.24 100.32,27.32 194.2,67.7 266.02,146.8 70.29,77.42 156.78,123.43 256.5,148.75 94.1,23.9 187.3,51.79 283.57,65.67 67.54,9.74 135.33,18.44 203.29,24.18 175.53,14.82 351.43,21.57 527.58,18.21 164.76,-3.14 328.96,-14.79 491.78,-41.04 61.31,-9.89 121.83,-24.69 182.72,-37.24 5.03,-1.03 10.07,-1.92 17.57,-3.35 24.14,799.44 48.21,1597.22 72.36,2397.32 -19.33,-4.43 -36.06,-8.8 -53,-12.07zm-1527.13 1217.19c-18.82,-0.93 -37.56,-3.58 -56.3,-5.69 -6,-0.68 -12.04,-2.96 -17.87,-2.43 -4.39,0.4 -9.54,3.17 -12.54,6.53 -13.53,15.21 -24.43,15.97 -33.11,-1.11 -8.26,-16.29 -18.99,-19.26 -35.21,-15.43 -18.26,4.3 -36.96,6.78 -55.46,10.06 -0.87,-2.02 -1.74,-4.03 -2.61,-6.04 8.35,-6.04 16.13,-13.22 25.17,-17.87 17.57,-9.03 29.93,-22.94 40.59,-39.04 4.21,-6.36 8.36,-12.87 13.47,-18.46 11.69,-12.79 25.25,-12.57 33.29,2.68 12.72,24.15 33.46,34.06 57.9,39.69 11.78,2.71 23.46,5.9 35.04,9.36 5.03,1.5 10.87,3.06 14.25,6.61 5.39,5.67 12.54,13 12.6,19.68 0.08,10.25 -11.33,11.86 -19.2,11.47zm116.68 70.74c-8.06,-11.9 -8.53,-24.04 -8.5,-35.69 0.03,-22.15 -8.36,-36.25 -31.18,-40.25 -6.25,-1.1 -11.91,-5.53 -18.35,-8.68 4.29,-14.85 12.28,-22.47 25.97,-23.53 41.6,-3.18 82.87,-3.43 124.03,6.22 30.92,7.24 52.82,25.17 69.08,51.53 7.41,12 8.88,21.32 6.76,44.65 -11.19,-8.56 -19.47,-14.65 -27.47,-21.09 -5.32,-4.29 -11.09,-8.42 -15.18,-13.76 -24.57,-32.25 -56.8,-29.14 -90.6,-21.47 -13.28,3 -19.35,9.97 -19.37,23.71 -0.03,13.8 -2.36,27.12 -15.2,38.37zm-38.97 -166.28c-13.71,-11.3 -27.62,-10.74 -42.12,-2.06 -3.92,2.33 -7.91,4.56 -11.81,6.92 -19.42,11.75 -23.07,12.06 -38.75,-4.65 -11.97,-12.74 -22.22,-27.15 -32.76,-41.19 -6.39,-8.52 -7.68,-18.22 -3.17,-28.26 14.53,-32.26 35.83,-58.63 66.29,-76.74 7.26,-4.32 15.54,-8.56 22.54,0.06 7.04,8.65 4.3,17.4 -2.61,24.79 -7.3,7.79 -15.21,14.99 -22.7,22.6 -6.75,6.86 -12.76,15.78 -7.35,24.44 3.79,6.06 12.71,10.65 20.07,12.14 10.98,2.22 22.64,1.57 34,1.35 17.58,-0.32 29.5,-8.56 36.91,-25.42 12.11,-27.57 23.26,-31.85 52.1,-22.33 21.22,7.01 40.58,17.53 55.5,34.64 14.03,16.08 19.53,34.11 8.36,55.94 -15.02,0.07 -22.64,-9.46 -31.6,-15.99 -28.01,-20.42 -34.83,-18.28 -46.47,14.99 -3.04,8.65 -5.94,17.48 -10.19,25.54 -7.06,13.41 -12.67,14.91 -25.6,7.5 -7.22,-4.15 -14.21,-8.96 -20.65,-14.26zm-73.35 -226.28c-10.46,8.9 -17.82,21.54 -28.78,35.36 -2.63,-10.38 -5.14,-17.38 -6.07,-24.6 -1.92,-14.74 -10.96,-21.4 -24.32,-22.94 -11.25,-1.31 -22.63,-1.5 -34.61,-2.22 -0.97,-12.06 8.03,-16.17 15.19,-20.79 13.29,-8.58 27.14,-16.29 40.74,-24.39 11.44,-6.81 17.29,-6.59 24.81,4.71 6.32,9.51 14.12,13.11 24.68,13.2 11.82,0.1 19.92,6.03 26.17,19.65 -13.52,7.63 -27.2,12.99 -37.81,22.02zm382.87 545.13c-24.18,-10.36 -52.47,-17.25 -61.41,-46.65 -6.96,-22.86 -5.83,-47.43 9.54,-71.83 5.33,5.75 8.93,9.07 11.78,12.96 1.72,2.35 2.69,5.5 3.25,8.44 3.28,17.18 3.54,35.63 10.26,51.26 6.6,15.38 19.68,27.91 29.92,41.68 -1.11,1.39 -2.22,2.76 -3.33,4.14zm-144.64 -517.22c-6.6,8.78 -11.37,17.37 -18.21,23.74 -12.1,11.22 -30.46,8.42 -35.43,-6.87 -6.53,-20 -9.29,-41.31 -13.04,-62.15 -0.56,-3.08 2.29,-6.81 3.57,-10.24 1.96,-0.61 3.9,-1.22 5.86,-1.85 5.85,8.37 13.91,15.97 17.04,25.26 5.22,15.51 14.07,24.42 29.9,26.83 2.64,0.4 5.03,2.5 10.31,5.28zm487.56 915.5c-12.92,-14.1 -29.28,-21.4 -47.6,-24.9 -12.26,-2.33 -23.75,-1.18 -35.01,5.42 -10.81,6.33 -21.44,14.47 -34.97,12.89 -11.11,-30.4 -5.48,-51.89 17.58,-69.8 11,-8.54 24.54,-15.07 26.21,-33.56 -19.37,-1.53 -34.56,6.46 -49.74,14.82 -9.94,5.48 -19.8,11.44 -30.36,15.35 -11.58,4.29 -18.3,-0.85 -16.51,-13.03 1.28,-8.64 5.57,-17.25 10.14,-24.87 5.87,-9.76 14.29,-17.97 20.02,-27.82 11.18,-19.22 8.43,-25.97 -12,-34.28 -2.82,-1.14 -5.67,-2.21 -8.43,-3.44 -0.61,-0.28 -0.97,-1.11 -3.09,-3.65 11.36,-2.92 21.8,-5.24 32.03,-8.3 21.07,-6.33 23.06,-14.13 7.96,-29.82 -8.25,-8.59 -16.56,-17.13 -25.68,-26.56 9.26,-9.24 16.1,-6.54 23.7,-2.06 10.43,6.17 21.09,12.03 32.11,16.97 6.64,2.97 14.14,3.94 24.14,6.58 1.31,-9.69 2.33,-16.89 3.24,-24.11 1.06,-8.47 4.79,-15.07 13.93,-15.17 8.63,-0.08 11.28,7.25 12.17,14.19 2.36,18.32 8.07,33.97 25.48,43.43 25.97,14.09 42.92,8.21 53.1,-19.36 0.26,-0.72 0.37,-1.5 0.68,-2.19 3.87,-8.82 4.42,-22.02 16.18,-22.67 12.18,-0.68 17.3,11.08 21.47,20.96 9.33,22.15 15.17,45.14 10.35,69.39 -14.76,74.26 -10.15,147.89 6.22,221.22 0.49,2.21 0.57,4.53 0.61,6.8 0.02,0.64 -0.75,1.3 -2.57,4.14 -24.32,-8.96 -47.49,-20.44 -66.32,-39.83 -8.49,-8.75 -16.76,-17.74 -25.02,-26.74zm-31.97 -481.92c-17.36,23.26 -34.68,46.67 -53.61,68.63 -29.36,34.03 -65.58,58.11 -113.54,73.54 5.57,-9.61 8.07,-15.68 12.1,-20.42 4.9,-5.76 10.87,-10.67 16.74,-15.5 22.76,-18.81 23.71,-19.43 6.75,-44.78 -17.14,-25.63 -20.52,-52.17 -11.21,-81 0.46,-1.44 1.07,-2.92 1.94,-4.13 0.85,-1.19 2.12,-2.08 4.25,-4.09 19.36,11.03 11.64,36.07 24.67,51.78 17.75,-16.04 5.41,-38.3 13.57,-57.03 8.31,8.65 8.37,18.75 9.96,28.17 1.47,8.74 2.44,17.58 4.35,31.58 11.07,-8.68 18.28,-14.6 25.76,-20.15 14.56,-10.79 28.69,-22.35 44.18,-31.57 6.86,-4.08 16.57,-3.26 30.69,-5.62 -7.37,13.83 -10.93,23.01 -16.6,30.59zm-59.9 -133.72c1.76,11.79 -5.72,15.94 -13.47,18.74 -9.96,3.58 -20.22,6.51 -30.57,8.67 -19.65,4.08 -34.96,13.75 -45.32,31.54 -14.92,25.64 -30.36,50.97 -46.32,77.69 -1.79,-20.61 -3.63,-40.39 -5.18,-60.19 -2,-25.58 -13,-47.03 -29.43,-65.94 -14.03,-16.14 -28.47,-31.92 -42.29,-48.24 -6.17,-7.28 -11.26,-15.49 -18.89,-26.1 22.04,0.28 36.85,16.49 56.26,11.71 6.4,-20.97 -13.19,-35.85 -11.68,-54.85 39.63,-2.53 63.32,16.87 67.04,54.58 1.82,18.32 2.37,36.78 4.28,55.08 2.29,22.07 10.14,26.02 27.44,11.87 15.24,-12.44 28.43,-27.5 42.14,-41.78 3.09,-3.21 4.54,-8.02 6.75,-12.08 2.13,1.42 4.25,2.82 6.37,4.22 -2.25,9.68 -4.48,19.35 -7.33,31.6 13.62,1.18 26.72,2.3 40.19,3.47zm-232.43 -175.89c-10.21,6.28 -20.25,12.83 -30.47,19.33 -14.28,-10.29 -9.15,-21.33 -7.52,-32.68 -3.15,-1.96 -5.97,-4.79 -9.28,-5.57 -19.86,-4.67 -33.52,-17.65 -43.94,-34.15 -9.99,-15.8 -22.53,-24.18 -41.6,-20.58 -3.33,0.64 -7.04,-0.8 -11.35,-1.4 -0.35,-11.69 8.22,-14.83 14.59,-19.49 21.38,-15.59 22.1,-19.25 10.7,-43.65 -3.85,-8.21 -7.97,-17.07 -8.58,-25.89 -1.15,-16.37 -9.54,-24.7 -23.91,-29.65 -6.03,-2.08 -11.29,-6.42 -16.3,-9.39 2.57,-13.35 11,-17.62 20.04,-18.86 14.13,-1.93 28.61,-3.38 42.76,-2.43 15.68,1.03 18.97,6.83 17.52,23.08 -2.4,26.63 3.94,35.94 29.54,41 11.1,2.2 22.53,2.78 33.85,3.6 9.51,0.68 18.5,2.65 23.12,11.87 6.02,12.04 16.42,14.53 28.17,15.92 26.68,3.15 26.25,3.46 32.32,31.29 1.92,8.79 7.43,16.72 9.94,25.46 5.86,20.44 13.06,40.85 15.65,61.79 2.5,20.22 -6.39,24.51 -24.71,15.11 -2.7,-1.39 -5.49,-2.76 -7.83,-4.65 -17.6,-14.17 -35.18,-10.85 -52.72,-0.06zm-276.96 -95.43c-12.47,4.89 -25.57,7.5 -44.44,4.21 9.6,-11.57 16.32,-19.59 22.92,-27.7 3.81,-4.68 8.29,-9.07 10.94,-14.37 5.54,-11.07 1.19,-19.54 -10.82,-21.92 -4.36,-0.86 -9.02,-0.17 -13.53,-0.33 -3.6,-0.12 -7.2,-0.46 -11.32,-0.74 -1.99,-9.83 1.46,-13.47 9.91,-14.23 37.67,-3.41 61.6,28.98 46.86,64.2 -1.85,4.43 -6.21,9.18 -10.53,10.88zm-281.57 -27.76c9,5.43 19.83,9.83 15.08,24.24 -4.28,12.98 -20.53,27.94 -30.79,27.71 -9.25,-0.21 -12.53,-6.47 -14.82,-14.59 -2.14,-7.61 -5.87,-21.06 -8.69,-21 -8.9,0.17 -19.69,3.28 -26.14,9.25 -13.79,12.78 -26.22,27.37 -37.53,42.51 -10.52,14.09 -16.17,17.78 -29.07,6.89 -20.63,-17.4 -42.4,-34.6 -41.44,-66.94 0.75,-25.22 -1.57,-50.51 -2.22,-75.79 -0.36,-13.4 2.35,-25.75 16.04,-36.03 7.47,17.22 13.79,32.72 20.92,47.83 3.24,6.85 7.46,13.43 12.28,19.24 9.08,10.89 15.85,11.25 27.09,2.08 12.36,-10.08 23.96,-21.19 36.8,-30.63 18.73,-13.78 31.39,-12.63 48.83,2.54 11.44,9.96 11.42,18.93 -0.44,28.11 -4.12,3.18 -8.82,5.61 -13.87,8.76 4.97,14.24 17.14,19.25 27.99,25.81zm-872.09 1859.94c-15.61,1.68 -31.21,3.7 -48.8,-8.8 22.25,-10.51 35.54,-1.06 48.8,8.8zm-49.19 -105.17c0.1,11.44 -8.5,21.68 -18.67,22.07 -7.71,0.3 -13.63,-7.22 -13.78,-17.56 -0.18,-10.88 7.17,-18.17 21.71,-18.54 6.22,-0.08 10.67,4.7 10.74,14.03zm-4.97 218.13c-2.71,7.61 -6.94,14.68 -12.83,26.58 -5.17,-8.85 -8.59,-12.36 -9.32,-16.36 -2.72,-15.36 -9.43,-26.9 -24.68,-32.61 -8.4,-3.13 -10.98,-10.74 -8.68,-18.79 2.59,-9.03 6.81,-17.57 10.67,-27.17 14.42,5.3 19.98,15.48 26.15,24.71 6.58,9.9 12.89,20.07 18.32,30.64 1.8,3.53 1.76,9.14 0.37,13zm195.28 99.51c0.91,15.71 -5.91,24.75 -15.17,29.65 -15.25,8.06 -31.46,14.75 -47.92,19.83 -10.96,3.37 -18.07,-6.04 -12,-16.39 5.52,-9.4 13.89,-18.29 23.07,-24.01 15.33,-9.57 32.47,-15.28 52.02,-9.09zm-375.92 -57.5c-16.97,23.07 -42.61,19.25 -66.28,21.56 18.7,-17.74 41.65,-22.24 66.28,-21.56zm146.87 38.22c9.6,17.5 2.69,33.47 -2.98,48.79 -4.22,11.39 -11.53,21.57 -16.78,32.63 -10.11,21.32 -6.1,30.29 15.98,38.21 9.94,3.56 22.36,3.18 28.94,17.18 -20.64,6 -38.69,2.48 -56.72,-3.03 -10.85,-3.32 -21.61,-7.18 -32.68,-9.4 -12.57,-2.53 -24.03,0.02 -32.33,11.47 -3.09,4.28 -7.24,7.86 -11.28,11.33 -8.04,6.92 -15.86,7.29 -24.36,-0.15 -6.79,-5.97 -14.1,-11.96 -22.19,-15.67 -14.52,-6.65 -23.81,-3.64 -34.18,8.51 -4.83,5.67 -9.65,11.33 -16.83,19.76 -5.08,-7.67 -8.93,-12.74 -12.01,-18.24 -10.41,-18.58 -23.93,-25.82 -43.31,-19.3 -22.85,7.69 -41.76,22.04 -54.5,43.09 -8.69,14.39 -5.74,21.41 10.24,28.22 7.68,3.28 15.78,5.53 23.43,8.83 6.71,2.91 13.06,6.61 21.68,11.07 -10.24,11.69 -21.22,9.75 -30.56,7.39 -12.37,-3.13 -24.31,-8.5 -35.98,-13.89 -21.46,-9.89 -43.52,-12.85 -66.57,-8.06 -4.43,0.93 -9.43,1.31 -12.98,3.71 -4.65,3.15 -10.46,7.53 -11.61,12.39 -1.96,8.22 5.61,11.47 12.22,13.9 9.25,3.39 18.82,6.04 27.72,10.17 15.18,7.04 18.02,11.25 24.92,32.72 -5.48,-0.36 -10.64,0.47 -14.82,-1.18 -18.96,-7.56 -38.61,-14.08 -56.21,-24.2 -25,-14.36 -50.9,-23.35 -79.58,-24.65 -7.26,-0.32 -14.47,-2.22 -21.7,-3.41 -0.19,-1.56 -0.37,-3.09 -0.57,-4.64 10.19,-4.37 20.71,-8.11 30.5,-13.28 15.29,-8.07 30.07,-17.17 45.11,-25.72 11.13,-6.32 21.98,-13.26 33.6,-18.53 15.19,-6.87 31.19,-11.92 46.47,-18.63 7.43,-3.26 14,-8.54 22.14,-13.64 -4.07,-7.07 -7.24,-12.58 -10.25,-17.82 1.75,-1.86 2.63,-3.64 3.71,-3.79 11.22,-1.6 22.44,-3.33 33.72,-4.22 10.58,-0.82 21.28,-0.18 31.85,-1.01 24.92,-1.97 29.24,-8.71 21.57,-32.11 -1.64,-4.99 -2.79,-10.13 -5.29,-19.32 10.19,2.03 18.91,1.59 24.97,5.42 12.68,8.06 24.65,17.63 35.64,27.96 11.43,10.74 16.07,12.87 29.8,6.87 13.63,-5.96 24.33,-15.4 31.81,-28.53 3.5,-6.14 8.22,-13.37 15.69,-9.47 5.06,2.64 9.17,9.78 10.89,15.72 2.67,9.21 2.92,19.13 4.52,31.14 18.21,-5.99 22.04,-18.28 24.91,-31.2 5.96,-26.83 6.06,-26.17 32.46,-32.25 8.29,-1.92 15.92,-7.97 23.18,-13.11 11.59,-8.21 21.83,-19.06 38.61,-18.07zm-243.1 -27.1c-2.42,2.6 -6.21,5.26 -9.48,5.43 -17.02,0.8 -34.25,2.28 -51.36,-5.32 5.11,-10.74 12.83,-17.08 22.69,-18.59 19.57,-3 38.28,-7.63 55.13,-18.78 2.5,-1.65 6.99,-0.24 16.57,-0.24 -13.56,15.25 -23.33,26.58 -33.54,37.5zm-129.33 -147.69c7.94,5.93 16.12,12.04 27.11,20.25 -29.35,7.44 -55.86,14.14 -83.47,15.31 -3.68,0.15 -8.15,-0.32 -11.02,-2.32 -19.17,-13.46 -40.74,-8.75 -61.71,-9.39 -11.28,-0.35 -22.74,-1.11 -33.72,-3.56 -7.71,-1.71 -14.74,-6.57 -25.94,-11.83 16.78,-12.53 31.5,-15.58 46.44,-17.44 14.29,-1.78 28.67,-3.15 43.06,-3.8 20.97,-0.96 39.17,-9.13 58.11,-17.7 26.07,-11.79 53.83,-20.01 81.38,-28.04 7.83,-2.29 17.37,1.4 28.78,2.64 -9.68,16.28 -23.54,21 -35.85,27.63 -12.36,6.65 -27.67,9.44 -33.17,28.26zm-463.18 -353.76c3.48,8.98 0.76,16.44 -6.25,21.9 -14.28,11.14 -29.03,21.64 -45.75,34.02 -4.52,-28.2 15,-48.24 52,-55.92zm223.78 379.32c11.86,9.43 24.17,18.44 35.04,28.94 13.48,13.04 18.58,29.17 11.4,49.86 -4.17,-2.6 -8.21,-4.13 -10.8,-6.99 -4.04,-4.47 -7.32,-9.72 -10.56,-14.87 -24.78,-39.44 -61.12,-52.26 -105.37,-47.14 -13.22,1.54 -26.46,2.93 -41.69,4.61 0.8,-16.74 9.47,-22.17 18.68,-25.18 35.83,-11.68 71.17,-14.78 103.3,10.76zm-351.24 -49.85c-8.26,11.19 -5.25,20.61 8.44,23.97 8.65,2.11 18.03,2.24 27.02,1.83 43.64,-1.91 83.89,10.35 122.3,29.78 6.74,3.42 11.97,9.87 17.92,14.93 -0.78,1.82 -1.54,3.63 -2.3,5.44 -6.17,-0.53 -12.81,0.25 -18.41,-1.83 -14.18,-5.27 -28.44,-10.8 -41.65,-18.11 -23.12,-12.79 -47.06,-16.44 -72.44,-10.24 -20.49,5 -38.67,5.57 -57.65,-8.83 -17,-12.89 -38.63,-12.7 -58.2,-1.43 -4.44,2.56 -8.75,6.41 -11.5,10.71 -6.11,9.54 -3.4,17.31 7,21.83 8.32,3.63 17.28,5.93 25.28,10.14 20.33,10.68 23.04,22.04 10.76,47.06 -6.52,-3.12 -13.32,-5.87 -19.64,-9.5 -25.02,-14.39 -50.39,-28.25 -74.65,-43.87 -21.25,-13.68 -39.99,-11.03 -58.24,4.47 -11.02,9.37 -21.44,19.46 -32.57,28.71 -7.47,6.21 -15.68,11.5 -24.83,18.11 -3.97,-11.57 1.67,-18.71 6.25,-24.76 23.72,-31.31 52.94,-53.93 93,-60.32 10.6,-1.68 22.08,-6.58 30.21,-13.53 19.07,-16.29 35.72,-35.44 54.6,-52 10.04,-8.81 22.26,-15.39 34.24,-21.53 11.39,-5.85 23.42,-4.4 35.14,0.92 16.54,7.5 31.75,7.87 45.65,-6.99 4.8,-5.15 12.92,-9.14 19.92,-9.89 27.03,-2.89 54.19,-4.33 81.33,-6.07 1.86,-0.13 3.85,1.8 5.67,2.72 -3.5,17.39 -6.53,20.39 -24.72,23.63 -20.14,3.58 -40.43,6.33 -60.46,10.47 -19.26,3.97 -38.76,8.04 -54.52,21.37 -4.61,3.92 -9.36,7.97 -12.94,12.81zm-183.03 -20.93c-22.74,1.82 -40,3.18 -57.26,4.59 -23.48,1.91 -45.9,4.51 -64.24,23.48 -13.56,14.03 -20.24,12.54 -36.62,-0.36 -12.5,-9.86 -26.3,-10.59 -40.93,-8.4 -8,1.19 -16,2.46 -24.78,3.81 6.46,-30.97 40.43,-50.57 65.85,-40.04 8.37,3.47 16.44,8.49 25.14,10.17 12.86,2.49 24.89,0.04 36.17,-8.83 17.6,-13.85 66.67,-13.46 84.5,-0.35 3.81,2.8 6.06,7.78 12.18,15.94zm209.2 -476.01c-11.11,30.48 -33.99,51.14 -58.93,69.48 -1.5,-0.78 -3.01,-1.54 -4.51,-2.32 1.85,-6.82 2.65,-14.19 5.75,-20.39 16.88,-33.69 26.49,-69.47 33.56,-106.43 5.49,-28.68 18.7,-31.37 42.93,-9.18 -3.03,3.63 -4.49,6.64 -6.87,8.06 -12.04,7.08 -16.7,14.81 -10.36,29.93 3.61,8.62 1.87,21.44 -1.56,30.85zm-104.2 -38.53c8.14,8.82 1.52,15.85 -3.62,21.93 -30.22,35.68 -62.76,68.76 -104.17,91.49 -13.97,7.68 -28.21,15.01 -41.46,23.86 -13.96,9.32 -25.18,21.35 -26.74,40.86 23.85,5.07 38.39,-18.25 63.3,-17.86 -11.44,21.75 -23.11,39.26 -45.25,47 -7.14,2.5 -14.44,4.6 -21.78,6.46 -16.9,4.26 -27.54,15.33 -33.8,31.25 -1.96,4.99 -4.11,9.99 -5.25,15.18 -4.08,18.58 -14.3,30.58 -32.14,38.35 -15.11,6.57 -28.48,17.28 -42.52,26.36 -12.09,7.85 -12.03,7.97 -29.98,8.13 6.39,-7.92 11.33,-14.26 16.52,-20.4 14.73,-17.52 29.93,-34.64 44.25,-52.49 15.52,-19.35 26.35,-41.04 30.06,-66.1 1,-6.71 2.68,-14 6.31,-19.5 21.93,-33.21 43.79,-66.62 80.78,-85.33 14.92,-7.54 29.56,-15.61 44.5,-23.07 23.97,-11.97 45.97,-26.4 64.28,-46.6 13.86,-15.3 18.67,-16.85 36.72,-19.51zm97.21 -149.18c-47.61,59.47 -81.39,88.03 -147.47,124.32 1.54,-6.47 1.5,-11.67 3.89,-15.18 5.5,-8.17 11.89,-15.79 18.44,-23.15 18.21,-20.46 36.39,-40.94 55.17,-60.87 10.41,-11.06 21.31,-21.82 33.15,-31.21 12.6,-9.98 27.08,-15.76 46.31,-10.24 -3.68,6.43 -5.94,11.91 -9.49,16.33zm46.54 512.21c-5.75,23.8 -18.02,44.74 -35.64,60.42 -19.97,17.78 -45.17,16.97 -71.28,12.25 6.42,-26.5 34.85,-33.74 43.4,-61.54 -13.07,4.61 -23.25,6.9 -32.18,11.61 -23.5,12.39 -46.09,26.54 -69.75,38.58 -14.74,7.48 -30.52,13.24 -46.29,18.17 -10.25,3.21 -20.96,2.25 -28.54,-8.54 6.99,-14.13 21.17,-17.32 33,-23.11 21.78,-10.7 40.1,-24.83 51.11,-47.04 3.33,-6.74 6.28,-14.17 7.13,-21.56 3.29,-29.02 -16.19,-46.75 -43.35,-37.79 -43.36,14.32 -85.56,31.54 -117.64,66.63 -3.6,3.93 -7.2,8.01 -11.39,11.22 -7.71,5.92 -15.97,2.78 -15.82,-6.79 0.13,-8.06 2.33,-16.86 6.17,-23.92 15.29,-28.17 37.89,-47.71 69.67,-54.25 14.52,-2.97 26.93,-7.82 36.97,-19.93 11.74,-14.18 28.63,-21.78 46.43,-20.6 31.54,2.09 57.32,-11.08 83.17,-26.07 11.76,-6.82 24.06,-12.92 36.6,-18.1 9.04,-3.74 18.85,-4.79 33.4,4.75 -14.33,9.07 -24.57,16.54 -35.68,22.35 -13.42,7.01 -27.53,12.68 -41.42,18.8 -25.25,11.11 -28.04,30.15 -7.11,49.2 2.22,2.03 4.72,3.74 8.25,6.5 -5.32,11.46 -10.6,22.86 -18.07,38.97 11.76,-1.97 19.32,-3.44 26.93,-4.49 24.7,-3.36 49.33,-7.69 74.15,-9.48 18.97,-1.36 22.43,4.5 17.78,23.76zm-546.47 141.07c-8.61,5.2 -18.13,8.89 -28.2,13.73 -3.89,-13.12 2.31,-19.57 8.02,-25.08 9.26,-8.97 18.94,-17.86 29.65,-24.9 29.83,-19.61 60.13,-38.53 90.61,-57.1 8.74,-5.32 18.17,-11.35 30.24,-6.5 3.14,9.47 -0.42,16.64 -6.85,22.61 -3.87,3.58 -8.35,6.58 -12.85,9.37 -36.82,22.72 -73.6,45.5 -110.63,67.86zm4.21 84.19c-20.02,3.14 -38.04,9.58 -50.92,26.89 -6.64,8.93 -15.85,14.3 -27.44,13.74 -11.71,-0.56 -17,-7.74 -11.92,-18.38 3.85,-8.03 9.94,-15.26 16.15,-21.74 8.92,-9.28 18.31,-18.33 28.63,-25.9 4.79,-3.51 12.98,-5.86 18.37,-4.29 17.87,5.21 35.18,12.43 52.69,18.87 -0.43,1.99 -0.85,3.97 -1.28,5.96 -8.08,1.64 -16.14,3.57 -24.29,4.85zm-267.44 33.1c-16.49,13.5 -34.13,25.56 -50.61,39.06 -9.11,7.46 -17.94,9.08 -29.42,6.79 -18.53,-3.72 -37.42,-6.42 -56.26,-7.47 -23.56,-1.32 -44.18,4.43 -59.93,25.48 -17.8,23.81 -45.25,25.54 -71.75,6.15 10.39,-30.68 39.33,-43.04 58.79,-65.94 -4.07,-5.15 -8.24,-9.4 -11.14,-14.39 -2.83,-4.89 -7.6,-12.51 -5.83,-15.43 3.52,-5.81 10.47,-10.13 16.87,-13.26 3.6,-1.75 8.91,0.07 13.44,0.31 4.54,0.24 10,2.3 13.46,0.48 16.21,-8.57 30.9,-8.93 45.61,3.49 2.18,1.83 8.97,-0.24 12.68,-2.28 9.26,-5.11 19.29,-9.89 26.67,-17.22 15.43,-15.33 32.03,-16.86 49.75,-6.85 22.26,12.59 46,14.24 70.56,12.85 18.56,-1.06 35.83,-4.79 50.51,-17.67 11.89,-10.43 26.46,-14.97 42.15,-14.44 13.48,0.46 17.98,8.15 11.17,19.71 -7.5,12.72 -17.39,23.36 -32.21,27.54 -5.83,1.65 -11.91,3.9 -17.78,3.63 -29.94,-1.43 -54.24,11.04 -76.74,29.47zm-265.2 -54.99c0.93,2.35 1.85,4.7 2.78,7.04 -4.14,5.06 -7.5,11.12 -12.54,14.96 -18.78,14.29 -37.86,28.21 -57.35,41.5 -6.76,4.61 -14.76,7.97 -22.68,10 -4.44,1.14 -11.75,0 -14.28,-3.06 -2.37,-2.9 -1.97,-10.78 0.32,-14.48 5.57,-8.93 11.43,-19.33 19.93,-24.41 20.09,-11.98 41.53,-21.82 62.99,-31.17 5.9,-2.57 13.83,-0.39 20.83,-0.39zm121.96 -55.79c-34.81,-1.48 -69.61,-2.97 -104.39,-4.44 1.89,-16.82 6.53,-21.96 23.42,-24.51 27.37,-4.13 56.78,4.98 80.97,28.96zm-139.99 -28.6c4.32,12.38 3.17,22.06 -7.41,27.94 -12.93,7.21 -26.75,12.81 -40.2,19.1 -1.28,-1.82 -2.57,-3.65 -3.85,-5.47 11.74,-19.18 30.04,-30.39 51.46,-41.57zm389.93 -23.71c-18.49,2.07 -34.96,8.09 -49.85,19.99 -6.04,4.82 -14.91,7.04 -22.82,8.26 -14.19,2.21 -28.62,3.1 -42.98,3.92 -16.94,0.96 -33.1,3.67 -45.85,17.78 -18.72,-15.56 -35.18,-29.22 -53.42,-44.36 14.11,-2.88 27.15,-5.52 40.18,-8.2 10.54,-2.17 20.56,-4.29 24.53,-17.15 1.13,-3.65 7.92,-7.69 12.19,-7.78 16.49,-0.37 33.53,-1.79 44.96,15.1 7.33,10.83 18.25,7.98 28.96,5.43 34.72,-8.25 41.08,-8.02 76.61,1.31 -5.61,2.65 -8.94,5.3 -12.51,5.7zm153.08 -103.51c-19.32,32.63 -34.13,66.81 -69.78,92.22 4.79,-15.08 9.22,-24.86 10.67,-35.07 0.94,-6.71 -0.47,-15.89 -4.61,-20.43 -2.53,-2.78 -12.6,0.13 -18.61,2.33 -7.03,2.57 -13.14,7.6 -20.01,10.71 -5.08,2.31 -10.75,3.25 -17.28,5.13 -6.56,-23.49 16.96,-30.85 20.81,-48.94 -37.94,-8.28 -69.07,18.83 -107.44,20.21 9.63,-17.65 17.93,-31.88 34.72,-35.57 19.43,-4.28 28.26,-15.97 30.13,-34.9 0.21,-2.2 1.36,-4.31 2.28,-7.07 10.47,-3.93 22.97,-5.14 27.5,-19.07 0.93,-2.85 7.59,-4.72 11.85,-5.33 6.68,-0.94 13.78,-1.57 20.33,-0.33 23.56,4.49 42.8,-3.37 60.78,-18.29 10.25,-8.5 20.04,-19.11 37.97,-19.01 0.24,15.43 -8.6,23.91 -16.11,33.2 -9.54,11.82 -19.53,23.41 -27.81,36.1 -8.63,13.22 -6.9,19.18 5.36,29.36 5.74,4.75 11.81,9.07 19.26,14.76zm-283.37 44.13c-21.7,3.25 -44.64,2.85 -64.88,10.18 -26.62,9.65 -54.33,11.97 -81.08,19.3 -11.94,3.26 -22.61,11.35 -35.86,18.31 -12.54,-6.91 -25.06,-15.71 -38.91,-20.86 -13.61,-5.07 -28.57,-6.42 -45.75,-9.97 8.8,-11 18.21,-11.06 26.68,-12.07 29.33,-3.47 58.71,-6.56 88.11,-9.37 18.28,-1.75 35.71,-4.79 51.42,-15.89 6.37,-4.5 15.8,-7.76 23.29,-6.86 27.71,3.33 55.21,8.46 82.68,13.44 3.94,0.72 7.37,4.39 14.87,9.11 -9.54,2.19 -15,3.83 -20.58,4.68zm2044.04 -1405.94l-30.3 0c0,-9.04 0,-16.56 0,-24.06 0,-14.43 0,-28.86 0,-44.96l30.59 0c1.5,22.53 1.44,44.93 -0.29,69.02zm-63.59 -68.94l0 69.76 -28.22 0 0 -69.76 28.22 0zm-0.03 -108.26l0 70.75 -28.89 0c-2.1,-23.08 -1.58,-46.15 -0.06,-70.75l28.94 0zm-52.54 -1191.68c3.64,25 1.32,50.53 1.51,78.64l-36.62 0c-2.86,-25.53 -1,-51.09 -1.11,-78.64l36.22 0zm117.96 1262.35l-28.07 0c-3.02,-23.06 -1.04,-46.06 -1.28,-71.21l29.35 0 0 71.21zm-276.71 -3115.13c-4.06,-2.54 -6.78,-10.19 -6.98,-15.61 -0.81,-20.63 -0.32,-41.29 -0.32,-61.96 -0.65,-0.02 -1.29,-0.04 -1.94,-0.07 2.17,-24.37 3.87,-48.8 6.74,-73.1 1.13,-9.59 2.69,-20.78 15.5,-22.41 13.21,-1.68 26.67,-1.33 33.82,12.46 5.14,9.9 10.94,20.86 11.42,31.57 1.46,32.86 1.5,65.86 0.18,98.74 -1.17,28.9 -33.94,45.65 -58.41,30.39zm278.54 -165.97c0.97,50.65 0.58,101.2 -9.61,151.11 -0.29,1.39 -1.54,2.58 -2.9,4.75 -2.93,0.63 -6.57,2.18 -10.17,2.06 -42.39,-1.4 -84.78,-2.78 -127.13,-4.92 -7.26,-0.36 -14.36,-4.19 -22.56,-6.73 -0.85,-4.61 -2.3,-8.93 -2.33,-13.28 -0.28,-39.87 -0.68,-79.76 -0.24,-119.64 0.24,-21.56 3.25,-25.89 24.98,-27.26 33.24,-2.11 66.63,-1.7 99.96,-2.17 11.36,-0.15 22.75,-0.03 34.09,0.47 9.58,0.42 15.68,5.14 15.89,15.61zm94.04 29.25c6.56,43.52 2.67,86.89 -4.46,130.04 -0.33,2.01 -2.25,3.76 -3.87,6.36 -9.56,1.14 -15.79,-3.69 -19.02,-12.12 -2.41,-6.32 -4.3,-13.24 -4.5,-19.96 -1.28,-45.07 -2.07,-90.17 -2.89,-135.25 -0.04,-2.82 1,-5.65 2.21,-12.02 18.65,11.43 29.78,24.74 32.53,42.94zm-300.79 474.68c3.32,19.28 3.32,19.28 -23.61,17.65 -0.25,-5.49 -0.46,-9.83 -0.76,-16.54 8.74,-0.4 16.64,-0.76 24.38,-1.11zm244.15 -36.39l0 50.64 -24.4 0 0 -50.64 24.4 0zm-2266.79 -694.15c-45.57,-3.54 -83.85,-24.82 -118.54,-53.57 -2.92,-2.42 -5.58,-5.22 -7.94,-8.2 -1.35,-1.69 -1.85,-4.08 -3.92,-8.96 10.06,-0.33 18.9,-1.79 27.43,-0.7 42.11,5.46 84.07,12.02 126.18,17.41 68.52,8.79 137.14,16.94 206.39,12.03 49.75,-3.54 95.48,-19.28 132.39,-54.17 29.11,-27.53 63.26,-34.96 100.83,-31.86 24.15,1.98 48.18,5.78 72.18,9.35 38.35,5.72 51.7,-9.53 39.82,-46.83 -3.94,-12.37 -9.01,-24.46 -14.46,-36.25 -7.02,-15.14 -4.4,-28.29 6.19,-40.35 4.03,-4.59 8.1,-9.2 12.6,-13.28 17.32,-15.69 23.96,-16.26 44.63,-5.13 13.36,7.21 26.76,14.38 40.37,21.1 24.65,12.15 46.85,8.48 66.76,-10.86 9.29,-9.03 18.83,-17.98 29.29,-25.5 8.53,-6.14 18.15,-11.42 28.07,-14.69 14.86,-4.89 25.19,-0.75 32.51,13.36 5.93,11.4 9.71,24.06 13.53,36.44 2.92,9.49 3.99,19.54 6.63,29.14 7.81,28.32 24.74,40.09 54.02,37.82 12.86,-1 25.67,-2.71 38.53,-3.5 8.3,-0.52 16.72,-0.58 24.98,0.24 20.7,2.06 30.28,10.35 28.86,30.6 -1.19,16.89 6.19,25.64 18.32,33.56 19.76,12.89 39.76,25.46 58.87,39.29 9.72,7.04 18.85,15.65 26.18,25.17 7.79,10.13 4.87,19.42 -6.9,23.72 -9.1,3.32 -19.18,5.26 -28.83,5.32 -24.25,0.14 -48.58,-0.29 -72.76,-2.04 -91.8,-6.64 -182.13,-1.39 -268.22,35.03 -55.33,23.4 -111.78,20.26 -167.67,6.93 -89.47,-21.36 -179.74,-26.67 -271.14,-22.68 -62.92,2.75 -125.89,4.14 -188.85,5.07 -28.76,0.42 -57.65,-0.78 -86.33,-3zm4894.77 7861.57l54.5 -77.33 12 0 0 77.33 16.17 0 0 13.5 -16.17 0 0 28.5 -14.67 0 0 -28.5 -51.83 0 0 -13.5z"/>
 </g>
</svg>
