<?xml version="1.0" encoding="UTF-8"?>
<!DOCTYPE svg PUBLIC "-//W3C//DTD SVG 1.1//EN" "http://www.w3.org/Graphics/SVG/1.1/DTD/svg11.dtd">
<!-- Creator: CorelDRAW 2018 (64-Bit) -->
<svg xmlns="http://www.w3.org/2000/svg" xml:space="preserve" width="8.26772in" height="11.6929in" version="1.1" style="shape-rendering:geometricPrecision; text-rendering:geometricPrecision; image-rendering:optimizeQuality; fill-rule:evenodd; clip-rule:evenodd"
viewBox="0 0 8267.72 11692.91"
 xmlns:xlink="http://www.w3.org/1999/xlink">
 <defs>
  <style type="text/css">
   <![CDATA[
    .fil0 {fill:#2B2926}
   ]]>
  </style>
 </defs>
 <g id="Layer_x0020_1">
  <metadata id="CorelCorpID_0Corel-Layer"/>
  <path class="fil0" d="M2395.98 7959.33c-76.02,20.36 -151.79,41.74 -228.25,60.21 -18.32,4.42 -39.47,1.79 -58.33,-2.26 -23.72,-5.11 -46.2,-5.92 -69.29,1.52 -12.96,4.17 -26.28,7.32 -39.59,10.19 -7.92,1.71 -16.14,1.98 -26.15,3.11 1.08,-5.53 0.86,-7.68 1.71,-8.29 23.09,-16.64 42.42,-39.07 71.59,-46.36 33.78,-8.43 67.21,-18.3 101.07,-26.35 43.49,-10.32 87.28,-19.25 130.85,-29.15 22.64,-5.14 42.82,-2.03 62.7,11.33 12.28,8.26 27.56,11.99 41.54,17.63 4.47,1.79 9.1,3.19 13.78,4.82 -1.07,2.46 -1.22,3.5 -1.61,3.61zm-2195.2 -7200.56c-0.13,3390.04 -0.18,6780.08 -0.18,10170.14 0,4.54 0.97,9.1 1.6,13.64 0.1,0.65 0.87,1.24 1.36,1.8 0.48,0.58 1.01,1.11 2.56,2.76l7861 0 0 -10201.33c-8.4,0 -15.15,-0.02 -21.89,0 -2612.98,0.46 -5225.96,0.91 -7838.93,1.41 -0.64,0 -1.35,0.6 -1.91,1.06 -0.58,0.48 -1.01,1.15 -2.24,2.58 -0.36,2 -1.37,4.97 -1.37,7.93zm7267.91 3989.65c-80.85,-7.21 -161.61,-15.74 -242.57,-20.78 -62.79,-3.9 -125.86,-4.46 -188.79,-4.36 -42.52,0.06 -84.61,6.46 -125.81,17.97 -52.44,14.67 -95.04,43.68 -126.15,88.96 -14.28,20.76 -27.85,42.11 -40.48,63.93 -53.68,92.7 -121.56,174.15 -193.63,252.33 -3.1,3.37 -6.6,6.36 -9.74,9.69 -11.09,11.79 -23.54,12.64 -37.09,4.81 -6.57,-3.81 -13.27,-7.43 -19.7,-11.49 -13.5,-8.54 -27.08,-17 -40.25,-26.06 -54.54,-37.56 -114.39,-47.18 -178.25,-34.41 -31.94,6.39 -64,12.76 -95.3,21.69 -21,6 -36.31,1.44 -51.24,-13.72 -21.42,-21.72 -43.32,-43.09 -66.39,-62.98 -63.71,-54.94 -137.87,-88.42 -219.26,-106.32 -5.17,-1.14 -10.5,-1.52 -15.74,-2.35 -48.65,-7.78 -84.94,7.92 -104.76,55.79 -3.21,7.74 -7.68,15.04 -12.29,22.04 -35.68,54.17 -42.04,114.17 -33.81,176.75 1.89,14.32 2.14,27.19 -6.5,39.47 -8.83,12.56 -6.1,24.5 3.25,35.71 12.75,15.28 28.87,24.58 48.19,28.29 5.21,0.98 10.58,1.09 15.79,2.09 17.08,3.25 17.9,4.7 19.08,22.43 0.76,11.42 1.37,23.06 4.07,34.1 8.64,35.53 28.87,51.61 65.17,51.91 11.99,0.1 23.97,-2.07 37.67,-3.36 2.33,13.09 4.53,25.72 6.86,38.32 10.02,54.09 35.44,81.03 89.35,89.82 26.02,4.22 52.79,3.79 79.24,4.89 8.35,0.35 15.65,0.35 23.35,5.85 25.96,18.54 52.86,35.71 79.29,53.57 14.46,9.79 29.82,18.62 42.74,30.24 18.21,16.33 19.28,34.37 2.87,52.41 -10.58,11.65 -24.28,20.56 -37.1,29.94 -14.86,10.89 -15.56,17.07 -0.33,27.26 9.41,6.31 20.08,10.68 30.12,16.06 7.08,3.79 14.06,7.81 24.24,13.5 -17.01,16.44 -35.64,14.15 -52.71,16.41 -21.93,2.87 -27.78,-18.03 -42.57,-31.36 -15.26,17.72 -25.79,36.79 -24.13,59.65 2.51,34.32 7.28,68.48 11.75,102.64 1.78,13.65 5.92,26.97 7.89,40.6 2.2,15.04 -1.13,19.75 -14.98,17.76 -20.18,-2.87 -40.25,-7.39 -59.88,-12.97 -11.97,-3.39 -15.2,-11.56 -13.23,-25.64 1.25,-8.92 3.37,-17.71 5.68,-29.47 -19.39,-4.42 -37.18,-8.47 -58.35,-13.29 8.85,-12.75 15.56,-22.39 24.02,-34.56 -10.75,-6.76 -20.56,-12.91 -33.53,-21.08 8.36,-5.44 15.37,-10.14 22.53,-14.63 6.79,-4.26 13.72,-8.32 24.57,-14.86 -11.44,-6.47 -18.94,-10.91 -26.64,-15 -10.04,-5.35 -20.9,-9.42 -30.22,-15.82 -18.15,-12.46 -17.25,-29 2.41,-39.09 9.89,-5.07 21.43,-6.83 33.28,-10.41 -2.72,-8.7 -10.9,-9.63 -17.17,-12.1 -24.44,-9.67 -35.18,-27.43 -33.6,-53.78 0.69,-11.46 0.22,-23.04 -0.47,-34.53 -0.4,-6.8 -1.51,-13.79 -3.65,-20.24 -4.07,-12.28 -13.54,-19.68 -23.15,-18.41 -11.26,1.5 -17.61,9.15 -19,19.94 -1.26,9.75 -1.32,19.76 -0.8,29.61 0.79,15.3 2.89,30.54 3.75,45.86 1.18,20.88 -7.32,37.2 -24.3,49.06 -1.86,1.31 -3.64,2.76 -5.43,4.17 -21.86,17.13 -21.83,17.3 -8.86,40.92 3.58,6.54 6.53,13.43 9.71,20.06 -8.49,10.25 -18.8,8.47 -28.28,9.5 -17.75,1.94 -22.64,11.74 -12.33,26.15 4.81,6.75 11.7,11.94 17.5,17.98 12.68,13.19 12.41,24.24 -2.9,33.79 -10.82,6.76 -23.48,10.46 -35.24,15.72 -9.5,4.24 -20.4,6.65 -26.29,21.11 13.11,8.64 26.33,17.36 42.6,28.08 -8.29,2.78 -12.99,4.33 -17.65,5.93 -15.75,5.38 -18.07,9.53 -11.5,25.56 3.71,9.06 9.47,17.25 14.96,26.99 -6,2.63 -12.01,5.51 -18.19,7.93 -22.07,8.64 -37.06,24.42 -42.86,47.36 -5.26,20.72 -10.3,41.89 -11.67,63.11 -2.71,42.1 -3.36,84.35 -3.87,126.56 -0.82,66.02 -0.07,132.07 -1.43,198.07 -1,48.39 -6.21,96.48 -18.03,143.6 -11.53,45.96 -29.6,89.21 -60.1,125.36 -82.06,97.28 -182.08,169.28 -303.57,206.38 -43.11,13.15 -89.14,18.4 -134.26,22.61 -173.72,16.18 -343.57,49.56 -507.52,110.96 -8.46,3.17 -16.61,7.49 -24.36,12.2 -83.93,51.06 -169.6,98.35 -261.88,132.89 -54.36,20.35 -102.24,53.59 -150.08,86.17 -39.74,27.06 -80.69,51.62 -125.15,70.12 -68.21,28.39 -139.26,43.07 -212.71,43.7 -68.5,0.57 -136.17,9.33 -204.03,16.6 -78.51,8.4 -157.01,16.26 -236.14,9.47 -6.68,-0.57 -13.78,-0.28 -20.19,1.46 -3.57,0.97 -9.03,6.25 -8.63,8.78 2.87,18.31 -9.61,25.99 -21.32,34.68 -2.2,1.63 -3.32,4.76 -7.17,10.57 10.43,2.03 18.67,4.71 26.99,5 19.71,0.69 39.46,0.18 59.19,0.31 6.06,0.04 12.22,-0.03 18.17,1.01 14.75,2.57 19.21,10.39 13.98,24.78 -5.76,15.85 -17.3,24.97 -33.97,26.57 -14.35,1.36 -28.75,2.25 -43.14,2.88 -11.72,0.51 -20.49,4.98 -25.67,18.57 3.75,3.25 7.94,7.24 12.51,10.74 4.82,3.7 10.89,6.13 14.81,10.56 4.78,5.42 11.58,12.97 10.65,18.41 -0.88,5.19 -10.14,11.68 -16.46,12.65 -23.92,3.64 -48.11,6.91 -72.24,7.29 -42.47,0.65 -84.97,-1.07 -127.47,-1.41 -11.93,-0.1 -23.87,1.12 -35.87,1.74 -2.11,14.12 6.98,18.76 14.11,23.21 20.02,12.44 40.7,23.76 61.03,35.68 11,6.44 21.82,13.17 37.57,22.71 -10.43,4.64 -15.83,7.83 -21.67,9.5 -56.97,16.15 -114.35,22.26 -173.09,9.52 -19.89,-4.32 -40.53,-5.63 -60.91,-6.64 -9.15,-0.46 -18.52,3.17 -27.11,4.82 -3.36,19.37 14.92,24.82 18.49,41.01 -10.28,1.58 -19.58,4.07 -28.93,4.29 -68.28,1.61 -136.58,4.39 -204.85,3.61 -74.53,-0.83 -148.57,3.98 -222.56,11.82 -12.06,1.28 -24.21,2.36 -36.32,2.44 -20.89,0.15 -40.32,4.93 -59.14,14.25 -26.14,12.94 -54,19.33 -87.46,19.28 16.46,-23.29 32.31,-41.68 58.17,-47.67 11.04,-2.57 22.54,-3.12 33.68,-5.32 8.57,-1.69 16.91,-4.54 25.35,-6.86 0.37,-1.79 0.75,-3.58 1.12,-5.37 -5.59,-4.07 -11.21,-8.11 -16.78,-12.21 -10.26,-7.56 -21.42,-14.17 -30.6,-22.9 -32.74,-31.13 -54.26,-69.86 -70.4,-111.71 -24.79,-64.32 -49.07,-128.86 -73.15,-193.46 -43.68,-117.18 -94.86,-231.07 -151.35,-342.31 -130.9,-257.78 -230.31,-527.43 -303.42,-807.32 -5.79,-22.15 -12.46,-44.06 -20.22,-71.33 -43.35,75.83 -83.21,146.29 -123.86,216.29 -13.4,23.06 -27.68,45.81 -43.65,67.08 -23.63,31.49 -41.81,65.85 -57.28,101.78 -50.94,118.37 -90.72,240.81 -128.17,364.04 -38.82,127.72 -72.03,256.83 -92.9,388.91 -12.47,78.93 -22.46,158.26 -16.08,238.38 9.57,120.12 66.93,207.89 176.24,258.94 13.68,6.39 27.71,12.03 46.8,20.28 -10.19,2.96 -15.85,5.63 -21.68,6.14 -56.68,4.97 -113.35,10.13 -170.09,14.17 -58.26,4.15 -116.61,6.98 -174.92,10.69 -9.54,0.61 -19,2.75 -28.6,4.21 -1.18,14.76 8.26,20.08 16.43,24.52 19.33,10.51 39.61,19.25 59.11,29.47 11.8,6.19 22.87,13.83 34.19,20.78 -4.07,14.5 -14.37,17.17 -23.18,20.14 -41.94,14.15 -85.17,19.09 -127.43,4.64 -63.22,-21.63 -128.71,-28.76 -194.29,-35.31 -88.31,-8.82 -176.81,-15.74 -265.2,-23.65 -26.9,-2.42 -37.96,-11.21 -44.48,-38.03 -4.15,-17.03 -7.02,-34.71 -7.67,-52.21 -2.17,-57.51 -4.54,-115.09 -4.21,-172.64 2.92,-487.54 5.54,-975.1 10.18,-1462.61 1.8,-189.61 7.56,-379.21 13.57,-568.74 2.85,-89.71 11.96,-179.21 15.5,-268.92 1.72,-43.53 -2.26,-87.35 -4.72,-130.97 -5.25,-93.48 -12.29,-186.89 -16.54,-280.42 -4.47,-98.15 -6.67,-196.42 -9.67,-294.64 -4.65,-151.93 -9.15,-303.86 -13.71,-455.79 -3.5,-116.65 -8.89,-233.26 -9.9,-349.93 -0.79,-91.26 2.69,-182.62 6.67,-273.83 1.32,-30.35 8.46,-60.76 15.71,-90.44 14.07,-57.56 50.72,-95.24 106.24,-113.07 89.3,-28.69 177.9,-27.78 264.18,11.75 59.71,27.35 115.3,349.69 164.36,394.07 26.78,24.22 57.25,31.24 90.76,19.41 12.47,-4.42 24.64,-12.33 34.44,-21.41 24.04,-22.25 40.82,-49.87 46.63,-82.57 5.02,-28.26 12.37,-36.76 45.22,-36.03 28.68,0.65 57.28,5.67 85.9,8.87 6.78,0.75 13.51,1.9 20.24,3.01 14.9,2.46 27.01,-2.91 36.37,-14.25 8.74,-10.58 17.87,-21.13 24.75,-32.92 17.37,-29.86 45.32,-20.33 56.8,2.85 3.41,6.85 6.93,13.65 10.42,20.46 23.63,46.11 54.39,86.75 91.63,122.43 44.22,42.36 98.26,62.99 157.42,70.86 67.83,9.03 135.87,12.98 204.3,6.03 35.83,-3.64 70.17,-12.13 103.14,-26.52 9.73,-4.26 19.54,-8.44 28.96,-13.36 18.44,-9.65 36.28,-9.15 54.19,1.39 13.11,7.71 26.6,14.74 39.76,22.35 13.36,7.69 27.22,9.51 41.52,3.64 23.01,-9.46 46.8,-11.58 71.4,-10.26 26.78,1.44 52.9,-3.52 78.42,-11.61 27.67,-8.76 47.36,-24.32 46.69,-56.99 -0.04,-2.15 1.25,-4.33 2.67,-8.82 5.21,0 11.3,-1.31 16.57,0.25 18.13,5.35 37.59,8.86 53.61,18.2 51.07,29.75 103.94,30.26 158.56,15 85.03,-23.75 154.69,-72.83 215.96,-135.46 16.03,-16.39 23.42,-36.94 25.67,-62.71 9.39,4.89 16.65,8.36 23.63,12.36 21.11,12.1 41.86,24.86 63.2,36.5 36.79,20.08 70.14,13.57 100,-14.97 6.62,-6.32 13.54,-12.43 19.4,-19.43 12.03,-14.35 26.75,-17.03 43.04,-10.27 18.17,7.56 36.31,15.49 53.61,24.83 27.78,14.97 78.01,8.53 99.14,-14.76 4.89,-5.4 7.1,-13.29 10.56,-20.03 7.65,-14.89 17.83,-16.72 27.85,-3.54 6.83,9 12.33,19.44 16.52,30.02 16.43,41.5 46.1,64.83 109.93,51.43 16.57,-3.47 32.07,-13.32 47.37,-21.57 21.67,-11.67 35.44,-10.96 45,11.26 21.32,49.57 63.81,64.83 109.85,75.35 38.74,8.85 78.28,10.46 117.74,6.72 30.69,-2.9 59.29,-13.24 83.67,-32.96 9.98,-8.07 19.93,-9.52 31.78,-5.93 38.68,11.67 76.81,24.43 108.25,51.54 30.44,26.25 67.11,25.78 101.82,18.07 37.32,1.71 42.42,-91.11 124.08,-97.03 156.53,42.42 130.92,-75.99 146.32,-94.93 15.83,-19.46 80.56,-9.41 98.68,-26.67 34.03,-38.43 17.14,-86.35 10,-102.79 -6.72,-15.43 -13.92,-30.67 -20.3,-46.25 -3.64,-8.92 -6.08,-18.35 -9.02,-27.42 13.07,-8.67 24.15,-3.58 34.96,-1.86 26.17,4.14 52.15,9.83 78.44,12.76 23.57,2.63 46.75,-1.93 69.35,-9.69 21.67,-7.43 37.46,-19.88 49.68,-40.63 29.36,-49.83 96.37,-250.43 156.35,-251.04 73.67,-0.76 122.59,-116.44 195.86,-107.86 27.65,3.24 53.72,11.14 76.09,28.04 54.82,41.43 114.76,44.33 177.37,24.52 41.21,-13.04 81.96,-27.64 122.67,-42.25 39.83,-14.29 76.32,-35.46 105.78,-65.93 49.72,-51.47 111.9,-74.2 179.57,-86.68 80.11,-14.79 161.1,-20.56 242.26,-22.39 207.18,-4.68 414.32,-0.96 621.38,7.33 129.65,5.21 259.35,9.54 388.93,16.06 82.56,4.17 165.04,10.58 247.36,18.17 26.86,2.47 53.64,10.11 79.5,18.42 32.42,10.42 54.47,34.03 63.62,67.03 6.93,24.94 12,50.89 13.83,76.7 3.37,47.43 5.04,95.07 5.14,142.64 0.33,160.46 -0.58,320.93 -0.36,481.4 0.04,26.75 3.37,53.49 5.33,80.21 0.41,5.35 1.75,10.63 2.24,15.96 5.88,65.59 12.35,131.11 17.18,196.78 2.37,32.1 2.29,64.44 2.21,96.68 -0.65,244.93 -1.58,489.86 -2.48,734.78 -0.03,6.74 -0.83,13.46 -1.44,22.75 -32.79,-3.21 -64.18,-6.49 -95.61,-9.29zm-5310.68 3147.22c-108.38,25.75 -216.76,51.41 -325.21,76.85 -8.81,2.07 -17.97,2.56 -26.99,3.65 -28.53,3.47 -57.18,6.18 -85.58,10.52 -30.11,4.6 -58.76,-1.18 -87.22,-9.74 -3.26,-0.99 -5.94,-3.99 -13.99,-9.6 12.36,-3.3 19.53,-5.15 26.67,-7.14 44.56,-12.31 89.24,-24.18 133.58,-37.25 13.4,-3.94 27.67,-8.47 36.53,-25.69 -30.78,-16.93 -65.17,-7.25 -99.85,-16.74 16.8,-10.97 32.07,-17.86 48.53,-16.92 49.67,2.85 95.75,-12.14 142.19,-26.28 14.48,-4.42 29.39,-7.42 44.14,-10.88 4.42,-1.04 9.46,-3.04 13.35,-1.82 5.83,1.83 10.91,6.13 16.3,9.36 -3.75,4.25 -6.76,9.94 -11.43,12.43 -7.94,4.25 -17.22,5.91 -25.43,9.74 -7.18,3.36 -13.68,8.21 -20.02,12.11 3.74,14.41 13.74,17.7 23.25,18.37 27.86,1.96 55.92,4.29 83.75,3.07 40.08,-1.76 80.02,-6.87 120.07,-9.78 8.97,-0.65 18.17,1.89 27.25,2.94 0.13,1.94 0.25,3.89 0.38,5.83 -6.75,2.35 -13.35,5.31 -20.26,6.94zm-514.28 -30.93c-23.44,18.74 -233.42,78.87 -260.29,75.58 -1.98,-12.56 5.6,-19.67 14.87,-25.15 5.13,-3.03 11.13,-4.74 16.91,-6.48 47.79,-14.53 95.37,-29.96 143.61,-42.86 20.14,-5.37 41.68,-5.9 62.68,-7.26 6.59,-0.43 13.48,3.61 22.22,6.18zm473.83 -46.46c-6.04,1.57 -10.99,4.03 -15.86,3.91 -21.11,-0.5 -42.24,-1.33 -63.28,-2.98 -5.6,-0.44 -12.81,-2.68 -16.07,-6.74 -11.74,-14.53 -22.11,-30.18 -33.13,-45.6 16.54,-15.07 31.2,-7.69 44.53,-2.11 21.53,9.03 42.29,19.94 63.29,30.24 8.82,4.32 17.68,8.85 20.52,23.28zm819.14 211.91c13.11,10.82 30.14,16.88 40.74,33.75 -120,18.51 -235.43,43.87 -350.83,69.54 -50.64,11.26 -102.15,13.85 -153.87,12.53 -5.26,-0.12 -10.56,-0.97 -15.72,-2.08 -2.02,-0.43 -3.68,-2.5 -8.25,-5.8 7.17,-5.5 12.82,-11.54 19.75,-14.79 15.78,-7.39 31.72,-15.18 48.43,-19.71 111.99,-30.32 224.22,-59.72 336.32,-89.67 30.58,-8.17 58.37,-4.44 83.44,16.24zm-474.04 28.64c-10.07,5.11 -20.7,9.39 -31.51,12.59 -47.96,14.25 -96.11,27.79 -144.1,41.97 -24.22,7.17 -45.68,19.56 -66.32,34.5 -14.53,10.52 -31.5,18.52 -48.51,24.22 -10.78,3.62 -24.43,3.78 -35.35,0.53 -18.28,-5.43 -35.98,-5.43 -53.86,-1.57 -29.61,6.39 -58.94,14.04 -88.47,20.82 -18.46,4.24 -36.93,8.58 -55.6,11.53 -16.72,2.63 -33.48,2.32 -46.71,-11.3 -6.51,-6.74 -14.17,-5.33 -21.01,-1.75 -16.75,8.78 -34.28,16.71 -49.31,27.97 -22.19,16.61 -45.67,30.04 -71.37,39.82 -46.15,17.54 -92.6,34.25 -141.63,41.39 -64.5,9.37 -126.89,-1.89 -187.78,-22.81 -11.06,-3.8 -21.56,-11.57 -30.22,-19.75 -16.5,-15.57 -15.47,-30.4 1.86,-44.6 6.4,-5.25 13.83,-9.42 21.28,-13.11 8.82,-4.37 17.94,-8.35 27.29,-11.39 83.64,-27.24 167.14,-54.94 251.14,-81.03 58.78,-18.26 119.12,-21.79 180,-12.48 9.33,1.43 18.32,5.25 32.68,9.51 -9.01,5 -12.89,7.89 -17.23,9.39 -4.97,1.72 -10.33,2.93 -15.57,3.14 -74.2,2.92 -140.36,36.6 -210.18,56.24 -10,2.81 -19.85,7.96 -28.32,14.08 -11.4,8.24 -10.42,18.5 1.61,25.41 13.93,8 28.89,8.44 44.06,3.82 29.74,-9.1 59.32,-18.68 89.18,-27.31 38.58,-11.15 77.29,-21.94 116.15,-32.07 12.21,-3.18 25.08,-3.68 39.14,-5.61 1.87,9.39 3.29,16.46 5.21,26.09 8.63,-1.06 16.78,-1.03 24.32,-3.15 40.26,-11.37 78.65,-26.39 114.43,-49.43 49.41,-31.86 105.76,-45.18 163.22,-52.98 17.94,-2.44 36.36,-1.21 54.4,-3.08 18.78,-1.96 37.57,-4.7 55.97,-8.83 24.39,-5.5 48.21,-13.63 72.64,-18.83 18.93,-4.04 38.43,-5.36 56.87,-7.78 5.37,13.9 0.37,21.4 -8.41,25.86zm700.11 -207.74c-5.64,1.59 -11.18,4.03 -16.92,4.69 -52.67,6.11 -105.24,14.94 -158.08,17.04 -69.61,2.79 -139.39,-0.91 -208.39,-12.44 -22.39,-3.74 -25.06,-5.64 -39.87,-16.91 24.83,-11.24 50.18,-18.8 76.3,-20.75 54.38,-4.04 108.88,-6.89 163.36,-8.49 28.67,-0.83 57.81,-0.41 86.07,3.86 33.44,5.08 66.08,15.21 97.58,28.06 -0.03,1.64 -0.04,3.29 -0.06,4.93zm-938.46 427.68c-34.62,2.08 -65.24,12.76 -92.14,34.5 -17.76,14.36 -35.76,28.53 -52.57,43.97 -21.26,19.52 -44.98,25.43 -71.36,14.63 -31.61,-12.96 -62.33,-9.59 -93.03,2 -31.22,11.81 -62.32,23.91 -93.38,36.14 -25.06,9.86 -49.68,15.86 -77.39,8.6 -19.49,-5.1 -40.81,-2.54 -60.99,-5.56 -17.85,-2.67 -35.71,-7 -52.71,-13.06 -14.39,-5.13 -15.06,-14.49 -2.24,-22.97 10.02,-6.63 21.25,-11.92 32.6,-15.89 69.4,-24.36 138.42,-50.15 208.74,-71.46 44.06,-13.36 89.98,-20.89 135.44,-28.87 44.17,-7.75 87.56,-16.54 128.97,-35.18 30.33,-13.64 62.08,-26.49 96.56,-21.33 46.44,6.96 92.69,15.22 138.96,23.37 7.81,1.38 15.22,5.04 26.22,8.82 -11.58,14.21 -23.85,16.32 -35.14,19.92 -44.43,14.1 -90.4,19.61 -136.56,22.38zm1284.89 -506.54c-11.1,12.24 -23.13,14.33 -34.9,14.67 -21.92,0.61 -44.08,1.6 -65.76,-0.9 -59.92,-6.9 -119.43,-1.75 -179.1,2.56 -13.28,0.97 -26.74,-0.64 -40.11,-1.06 -0.53,-1.93 -1.06,-3.86 -1.6,-5.78 8.08,-4.44 15.68,-10.91 24.31,-12.93 25.74,-6.01 51.71,-13.26 77.87,-14.6 50.61,-2.57 101.43,-2.14 152.14,-1.4 15.6,0.24 31.26,4.87 46.58,8.74 6.75,1.71 12.72,6.5 20.57,10.71zm-2041.75 335.74c11.75,1.87 23.83,3.32 37.01,16.5 -12.1,3.43 -19.72,6.68 -27.6,7.57 -11.25,1.25 -22.86,2.25 -34,0.78 -63.57,-8.33 -123.54,5.79 -182.19,28.61 -55.35,21.54 -108.37,47.65 -156.52,83.1 -15.61,11.48 -32.15,20.39 -52.01,20.54 -20.07,0.14 -37.69,-6.79 -50.17,-22.7 -23.06,-29.39 -45.75,-59.14 -67.24,-89.71 -11.46,-16.32 -9.93,-24.19 6.71,-34.06 16.12,-9.56 33.51,-18.94 51.53,-22.86 78.61,-17.07 155.83,-38.78 232,-64.62 7.67,-2.6 15.61,-4.35 25.32,-7 0.14,12.62 -7.18,17.29 -13.68,21.18 -21.47,12.85 -42.58,26.86 -65.37,36.82 -38.2,16.68 -77.63,30.43 -116.41,45.76 -10.12,4.01 -19.74,9.36 -32.94,15.71 15.54,8.47 27.61,5.54 39.17,4.41 47.04,-4.57 92.43,-16.15 136.47,-33.47 33.29,-13.09 67.28,-24 103.28,-25.63 17.32,-0.78 34.94,-0.81 52.1,1.43 38.29,4.99 76.39,11.53 114.54,17.63zm5029.47 -2448.26c12.26,19.69 12.87,37.65 -1.47,55.4 -34.86,43.14 -38.33,38.92 -76.63,16.14 -39.31,-23.39 -76.57,-49.36 -102.7,-88.91 -9.59,-14.53 -23,-26.44 -34.18,-39.96 -5.56,-6.71 -10,-14.36 -17.65,-25.56 15.92,-2.76 27.48,-4.86 39.08,-6.78 37.53,-6.24 73.79,-16.74 108.64,-32.24 27.41,-12.2 49,-30.28 60.29,-59.22 1.39,-3.54 3.11,-7.01 5.07,-10.26 7.03,-11.63 13.51,-15.58 24.15,-8.78 21.61,13.82 42.17,29.51 62.14,45.69 6.93,5.61 10.65,15.01 4.29,27.87 -35.19,3.15 -73.25,3.86 -109.75,27.86 9.59,6.46 16.18,10.83 22.71,15.31 10.62,7.28 22.07,13.65 31.61,22.2 10.28,9.2 8.87,18.96 -2.74,26.35 -7.54,4.79 -16.04,8.06 -26.67,13.26 5.11,8 9.52,14.76 13.8,21.61zm-176.89 -325.08c-6.31,8.15 -15.85,3.56 -23.25,0.44 -13.25,-5.59 -25.76,-12.96 -38.9,-18.86 -32.5,-14.6 -64.85,-29.63 -97.89,-42.86 -24.61,-9.86 -50.03,-12.78 -74.37,2.52 -1.75,1.09 -4.36,0.79 -8.67,1.47 -4.06,-5.26 -8.02,-11.76 -13.24,-17 -22.02,-22.06 -43.26,-45.14 -67,-65.15 -21.18,-17.86 -47,-24.22 -74.86,-17.47 -21.35,5.18 -42.58,11.03 -64.17,14.93 -34.61,6.26 -55.85,-12.28 -57.75,-49.47 9.5,-5.92 19.07,-2.5 28.02,1.22 26.79,11.17 51.28,6.94 75.9,-7.56 14.22,-8.36 30.26,-13.83 45.94,-19.25 15.65,-5.42 29.87,-0.96 42.04,10.28 12.32,11.37 24.46,22.96 37.07,34 12.61,11.01 25.35,21.96 38.69,32.03 15.67,11.82 33.6,17.36 53.33,16.25 6.81,-0.37 13.68,-0.13 20.44,-0.93 24.86,-2.96 45.56,4.15 64.5,21.48 13.85,12.68 30.58,22.46 46.9,32 22.49,13.15 43.94,27.38 60.63,47.79 5.61,6.85 13.94,14.64 6.63,24.14zm-4521.1 1799.98c0.67,54.11 15.15,106.06 25.37,158.65 0.25,1.28 1.88,2.28 3.42,4.04 10.87,-0.7 15.04,-11.2 22.35,-17.1 12.85,-10.39 20.49,-10.53 30.99,2.14 7.25,8.76 13.48,18.56 19.01,28.56 17.42,31.46 34.46,63.13 51.31,94.91 36.5,68.82 81.75,130.89 137.5,185.11 14.21,13.8 27.98,28.19 40.68,43.42 9.56,11.47 17.04,24.69 28,40.93 -10.24,1.39 -16.35,4.07 -21.11,2.52 -17.17,-5.63 -35.35,-10.25 -50.43,-19.7 -28.3,-17.71 -55.01,-38.11 -81.82,-58.18 -17.36,-13.01 -29.43,-30.62 -38.54,-50.5 -17.85,-38.94 -36.12,-77.68 -54.36,-116.44 -1.24,-2.62 -3.52,-4.76 -7.06,-9.43 -3.5,6.75 -7.06,11.52 -8.54,16.87 -7.32,26.49 -7.14,52.83 1.36,79.29 5.98,18.65 10.35,37.85 16.57,61.04 -9.26,-2.71 -14.7,-2.89 -18.2,-5.63 -8.35,-6.48 -17.67,-12.93 -23.28,-21.58 -39.96,-61.67 -80.19,-123.61 -92.92,-198.08 -8.76,-51.33 -16.36,-103.02 -21.44,-154.85 -11.37,-116.25 -11.43,-232.97 -8.83,-349.64 2.7,-122.32 16.35,-243.3 49.56,-361.44 3.72,-13.25 8.18,-26.33 12.92,-39.25 1.94,-5.33 5.51,-10.04 11.01,-19.74 11.14,31.11 10.22,56.98 6.36,82.78 -6.81,45.48 -15.6,90.69 -21.33,136.32 -5.54,44.08 -11.44,88.51 -11.67,132.82 -0.57,117.37 1.71,234.78 3.14,352.17zm2251.14 -4495.67c-45.19,2.6 -89.96,12.9 -134.9,19.79 -3.61,0.54 -7.11,1.83 -10.98,2.87 -2.81,23.54 4.8,42.81 17.68,60.75 11.91,16.62 23.25,33.65 36.83,53.4 -31.57,-1.28 -59.71,-2.37 -87.26,-10.28 -11.33,-3.26 -15.87,-10.26 -15.17,-22.04 0.79,-13.02 0.36,-26.1 0.97,-39.14 0.97,-20.83 -6.53,-35.76 -27.13,-42.46 -2.78,-0.9 -5.21,-2.97 -10.82,-6.28 8.47,-5.07 15.09,-9.24 21.92,-13.09 31.22,-17.61 62.22,-35.83 86.14,-63.25 9.85,-11.28 19.14,-24.37 24.13,-38.32 6.75,-18.82 5.98,-38.22 -15.02,-49.93 -1.25,-0.7 -2.18,-2.12 -3.03,-3.37 -0.31,-0.46 0.07,-1.39 0.43,-5.22 7.47,0 15.42,0.15 23.36,-0.03 54.58,-1.2 109.24,-1.25 163.74,-4.08 42.04,-2.2 81.61,-16.1 119.93,-33.49 19.46,-8.82 31.26,-23.04 35.47,-44.53 2.94,-14.98 7.04,-29.9 12.29,-44.22 7.94,-21.67 20.94,-31.09 43.63,-28.99 18.7,1.72 37.39,6.19 55.46,11.58 79.97,23.81 159.41,49.44 239.62,72.41 97.82,28.01 198.1,37.28 299.53,34.93 36.92,-0.85 72.25,-9.03 105.09,-26.33 22.18,-11.68 43.64,-24.76 65.67,-36.76 8.36,-4.54 17.4,-7.82 30.71,-13.71 -0.81,14.35 -1.04,22.64 -1.79,30.89 -1.11,12.22 -2.41,24.43 -3.93,36.6 -5.74,45.5 9.18,83.06 42.63,113.4 11.85,10.75 24.14,21.02 36.2,31.53 25.96,22.61 56.12,29.15 89.33,24 40.47,-6.26 80.81,-13.57 121.42,-18.68 85.75,-10.8 171.47,-22.71 257.54,-29.89 62.62,-5.22 125.87,-6.32 188.71,-4.47 119.06,3.51 231.98,34.79 339.61,85.9 9.3,4.42 17.74,10.74 27.18,16.54 -8,13.53 -20.13,14.72 -30.63,17.3 -52.31,12.76 -104.53,26.07 -157.26,36.73 -114.43,23.15 -228.9,46.33 -343.85,66.68 -108.52,19.21 -218.17,28.44 -328.49,25.42 -87.25,-2.4 -170.92,-22.78 -253.01,-51.98 -68.58,-24.39 -137.11,-49.64 -207.17,-68.93 -94.53,-26.01 -191.3,-31.87 -288.71,-16.85 -56.82,8.76 -107.76,30.58 -150.89,69.75 -16.38,14.87 -32.44,30.15 -49.56,44.09 -18.83,15.36 -27.43,14.5 -41.57,-4.57 -81.65,-110.18 -195.78,-141.06 -324.04,-133.68zm-1845.43 5096.33c17.6,0.28 36.11,0.12 50.46,15.73 -7.28,9.68 -16.87,6.86 -25.15,6.82 -52.6,-0.24 -69.24,-3.04 -89.57,-16.56 23.22,-12.15 44.22,-6.31 64.26,-6zm-261.92 -8.99c-17.67,16.25 -70.79,13.87 -95.72,-5.79 35.19,-8.56 64.82,-7.08 95.72,5.79zm-271.68 -419.56c4.46,-0.08 12.06,5.32 12.96,9.5 2.21,10.28 2.21,21.29 1.61,31.92 -1.76,31.5 -2.4,62.78 4.13,93.97 8.44,40.33 22.65,77.86 47.5,110.96 8.25,10.97 16.21,22.33 22.72,34.39 4.44,8.22 6.18,17.96 9.11,27.01 -1.65,1.21 -3.3,2.41 -4.96,3.61 -4.79,-1.88 -10.08,-2.97 -14.28,-5.75 -34.56,-22.82 -63.25,-51.42 -74.28,-92.68 -8.26,-30.92 -14.15,-62.82 -17.37,-94.67 -3.02,-29.64 -1.21,-59.79 -1.3,-89.72 -0.01,-6.11 -0.4,-12.89 2.02,-18.11 2.14,-4.64 7.89,-10.36 12.14,-10.43zm2556.33 -3737.43c-28.61,18.4 -57.71,36.11 -87.26,52.91 -5.74,3.26 -14.24,1.56 -24.06,2.35 2.44,-23.97 12.28,-38.81 26.68,-50.85 8.15,-6.8 17.28,-12.43 25.35,-19.35 5.37,-4.59 9.67,-10.51 14.58,-15.98 -14.03,-17.24 -32.29,-6.04 -46,-12.14 -1.06,-20.35 3.57,-29.47 20.17,-36.64 21.78,-9.39 43.39,-7.19 62.65,6.28 19.53,13.67 18.17,35.79 17.67,56.32 -0.15,5.9 -4.79,13.89 -9.78,17.1zm2765.42 5318.97c77.76,-7.65 155.51,-15.53 233.11,-24.65 62.52,-7.35 124.78,-16.72 187.18,-25.1 11.26,-1.52 22.57,-3.35 33.89,-3.71 23.24,-0.75 36.06,6.64 43.67,29.02 6.61,19.41 11.83,39.9 13.75,60.29 4.44,47.33 8.03,94.87 9.3,142.4 6.62,248.75 4.76,497.52 1.44,746.29 -2.07,155.86 -3.58,311.72 -6.28,467.57 -0.54,31.33 -3.75,62.85 -8.43,93.86 -7.93,52.61 -37.74,89.33 -85.46,111.3 -37.61,17.3 -77.53,26.39 -118.04,32.9 -97.64,15.71 -196.2,21.1 -294.8,22.64 -192.74,3.03 -385.5,5.52 -578.25,5.04 -623.08,-1.49 -1246.18,-4.07 -1869.26,-6.92 -469.78,-2.15 -939.56,-5.15 -1409.32,-8.15 -481.15,-3.07 -962.32,-6.56 -1443.47,-9.93 -108.53,-0.75 -217.06,-0.99 -325.57,-2.86 -142.64,-2.46 -285.3,-5.07 -427.87,-9.98 -81.06,-2.81 -162.21,-8.36 -241.69,-26.8 -18.38,-4.26 -36.46,-10.41 -54.15,-17.11 -51.14,-19.39 -77.39,-57.87 -78.91,-112.44 -1.09,-39.08 -0.09,-78.3 1.44,-117.4 3.31,-83.61 7.68,-167.18 11.42,-250.78 7.37,-164.89 14.74,-329.78 21.87,-494.68 3.85,-88.97 6.76,-177.99 10.94,-266.94 1.15,-24.53 2.52,-49.06 3.83,-73.58 99.08,-30.96 192.13,-68.74 364.08,-64.21 172.02,4.54 173.07,-86.15 34.13,-154.17 -138.93,-68.01 179.64,-44.12 361.76,-58.94 362.22,-29.47 35.31,-148.59 200.54,-189.4 165.24,-40.82 178.17,40.79 314.99,3.5 213.92,-58.32 366.61,-13.13 218.92,22.67 -112.79,27.33 -29.18,82.92 376.19,-26.17 270.24,-72.72 199.26,-50.92 284.42,-59.97 85.15,-9.07 94.13,-22.68 125.48,-113.36 31.38,-90.69 259.94,-36.28 398.88,-34.67 45.08,0.53 78.8,-5.22 105.83,-14.78 27.72,3.68 55.65,5.96 83.54,7.96 101.42,7.26 202.96,12.6 304.42,19.22 31.13,2.03 61.86,6.79 90.22,21.31 17.1,8.75 20.33,11.65 31.97,31.25 -10.08,4.83 -18.29,9.97 -27.21,12.76 -15.18,4.72 -30.86,7.82 -46.24,11.91 -6.57,1.75 -13.32,3.52 -19.3,6.63 -11.03,5.71 -12.89,14.17 -3.06,21.43 10.76,7.96 23.26,15.97 36.01,18.28 34.97,6.32 70.36,11.93 105.79,13.61 47.7,2.26 95.58,0.6 143.41,0.61 7.32,0.02 14.64,0 23,3.91 -4.15,2.4 -8.13,5.28 -12.5,7.17 -59.22,25.56 -120.68,40.81 -185.42,40.78 -18.97,0 -37.96,-0.21 -56.92,0.42 -10.56,0.35 -21.24,1.4 -31.57,3.58 -25.42,5.33 -34.3,19.92 -27.97,45.29 4.85,19.39 16.96,34.07 31.64,46.74 20.59,17.76 44.93,28.32 70.35,36.62 55.18,18.03 112.26,26.17 169.65,31.93 114.17,11.44 228.65,14.51 343.33,12.36 19.7,-0.38 39.52,0.24 59.11,2.12 14.75,1.42 30.06,3.72 40.88,17.53 -4.06,9.83 -12.75,10.92 -20.67,11.78 -26.37,2.87 -52.76,6.42 -79.24,7.32 -141.11,4.79 -281.71,16.31 -422.01,31.93 -16.58,1.85 -33.2,3.49 -49.74,5.64 -6.56,0.86 -12.96,2.89 -20.5,4.64 4.22,11.08 13.1,12.22 20.42,15.02 48.4,18.47 98.36,31.15 149.42,39.3 73.57,11.75 147.83,15.6 222.14,18.54 162.28,6.42 324.63,11.21 486.79,19.64 88.72,4.61 177.36,10.72 266.15,7.22 107.65,-4.25 215.26,-10.01 322.82,-16.35 98.46,-5.8 196.86,-12.9 295.24,-20.04 91.56,-6.64 183.07,-14.06 274.6,-21.2 85.47,-6.68 170.96,-13.25 256.4,-20.24 83.18,-6.8 166.32,-14.01 249.47,-21.15 76.35,-6.54 152.71,-12.98 229.03,-19.9 93.68,-8.5 187.36,-17.11 280.97,-26.33zm-4386.74 -5383.93c-8.79,3.18 -17.33,7.71 -26.39,9.32 -47.29,8.43 -93.56,1.26 -139.33,-11 -8.04,-2.15 -15.94,-4.87 -23.83,-7.57 -18.43,-6.29 -35.72,-3.24 -52.64,5.61 -12.75,6.67 -25.32,14.32 -38.86,18.67 -27.2,8.75 -53.03,6.41 -71.71,-18.65 -15.21,-20.4 -33.54,-23.03 -56.26,-15.25 -19.29,6.61 -39.1,12.19 -59.08,15.98 -28.07,5.35 -55.97,0.93 -83.07,-7.14 -8.46,-2.53 -17.37,-7.03 -23.4,-13.28 -5.1,-5.31 -10,-15.52 -8.25,-21.54 1.78,-6.08 11.24,-11.42 18.42,-14.02 11.53,-4.17 23.78,-0.41 31.57,8.14 20.57,22.58 40.19,17.97 61.9,2.17 12.22,-8.9 26.15,-15.42 39.4,-22.85 29.37,-16.47 58.36,-13.39 86.47,2.96 11.78,6.85 22.82,15.13 33.76,23.32 15.25,11.42 29.85,13.18 45.49,0.42 6.98,-5.69 15,-11.33 23.44,-13.64 8.94,-2.43 21.15,-4.58 28.11,-0.37 29.14,17.59 61.72,19.89 93.64,25.78 32.79,6.06 65.54,12.32 98.19,19 7.68,1.58 14.92,5.25 22.36,7.96 0.03,1.98 0.04,3.98 0.07,5.98zm726.37 -269.96c0.57,4.35 -4.54,11.94 -9.03,14.06 -13.65,6.4 -28.1,11.15 -42.42,16 -36.61,12.37 -73.39,24.22 -109.93,36.82 -9.25,3.19 -17.89,8.29 -26.74,12.67 -20.56,10.2 -36.54,24.54 -42.85,47.92 -0.94,3.53 -3.54,6.6 -6.31,11.54 -8.74,-1.32 -17.53,-3.49 -26.37,-3.82 -33.26,-1.28 -66.65,-3.92 -99.81,-2.26 -30.89,1.53 -56.33,17.04 -74.48,43.14 -8.29,11.92 -16.21,24.11 -24.21,36.22 -5.49,8.29 -11.2,16.44 -16.2,25.04 -17.22,29.63 -58.21,30.65 -86.72,-0.79 10.42,-6.64 18.46,-13.99 27.89,-17.39 29.17,-10.5 45.08,-31.6 53.9,-60.64 4.86,-16.02 11.92,-31.52 19.44,-46.5 9.65,-19.21 25.37,-29.89 47.47,-30.02 27.3,-0.17 54.61,-1.3 81.92,-1.11 37.94,0.28 69.69,-12.32 93.9,-42.75 18.15,-22.83 41.15,-34.04 70.97,-34.61 21.68,-0.4 43.36,-6.12 64.85,-10.43 26.1,-5.24 52.06,-10.79 78.87,-6.78 4.52,0.67 9.56,0.41 13.35,2.47 4.96,2.72 11.91,6.92 12.48,11.22zm572.67 195.56c-5.74,23.04 -17.14,33.46 -31.18,41.54 -24,13.81 -49.88,21.91 -77.24,25.43 -51.17,6.61 -102.26,11.36 -153.86,3.19 -35.99,-5.69 -58.89,-26.15 -70.71,-59.92 -2.22,-6.39 -2.86,-16.12 0.47,-21.08 5.43,-8.07 15.43,-4.94 22.74,-0.76 13.82,7.89 28.1,15.54 40.28,25.65 31.21,25.9 66.49,32.47 104.68,24.18 43.58,-9.46 86.81,-20.64 130.21,-30.94 9.94,-2.36 19.99,-4.22 34.61,-7.29zm3147.15 -1259.92l-6318.6 0 0 -875.37 6317.83 0c4.31,17.03 5.44,845.32 0.76,875.37zm877.06 8665.75l15.33 -1.17c1.14,7.47 3.78,13.08 7.89,16.86 4.11,3.75 9.14,5.64 15.06,5.64 7.14,0 13.11,-2.67 17.97,-7.97 4.83,-5.33 7.25,-12.39 7.25,-21.17 0,-8.36 -2.31,-14.94 -6.94,-19.78 -4.64,-4.83 -10.78,-7.25 -18.42,-7.25 -4.75,0 -9,1.08 -12.78,3.25 -3.75,2.17 -6.7,4.97 -8.86,8.42l-13.83 -2 11.5 -61.33 59.17 0 0 14 -47.47 0 -6.36 32.19c7.14,-5.03 14.64,-7.53 22.47,-7.53 10.39,0 19.17,3.61 26.3,10.83 7.14,7.22 10.72,16.5 10.72,27.83 0,10.81 -3.14,20.14 -9.42,28 -7.64,9.67 -18.08,14.5 -31.31,14.5 -10.83,0 -19.67,-3.06 -26.53,-9.14 -6.86,-6.08 -10.78,-14.14 -11.75,-24.2z"/>
 </g>
</svg>
