<?xml version="1.0" encoding="UTF-8"?>
<!DOCTYPE svg PUBLIC "-//W3C//DTD SVG 1.1//EN" "http://www.w3.org/Graphics/SVG/1.1/DTD/svg11.dtd">
<!-- Creator: CorelDRAW 2018 (64-Bit) -->
<svg xmlns="http://www.w3.org/2000/svg" xml:space="preserve" width="8.26772in" height="11.6929in" version="1.1" style="shape-rendering:geometricPrecision; text-rendering:geometricPrecision; image-rendering:optimizeQuality; fill-rule:evenodd; clip-rule:evenodd"
viewBox="0 0 8267.72 11692.91"
 xmlns:xlink="http://www.w3.org/1999/xlink">
 <defs>
  <style type="text/css">
   <![CDATA[
    .fil0 {fill:#2B2926}
   ]]>
  </style>
 </defs>
 <g id="Layer_x0020_1">
  <metadata id="CorelCorpID_0Corel-Layer"/>
  <path class="fil0" d="M3105.63 7702.16c-17.94,0.29 -32.9,1.99 -39.62,22.46 -3.89,11.82 -15.38,14.21 -26.32,14.26 -17.41,0.08 -34.89,-0.18 -52.28,-1.37 -42.36,-2.92 -84.65,-7.15 -127.06,-9.41 -16.5,-0.87 -33.83,-0.37 -49.68,3.82 -67,17.68 -135.22,26.39 -203.86,34.15 -54.9,6.21 -109.15,18.02 -163.83,26.46 -30.68,4.72 -61.6,7.91 -92.47,11.21 -7.06,0.76 -14.35,-0.86 -21.53,-1.39 -0.35,-2.21 -0.7,-4.42 -1.04,-6.63 11,-4.48 21.76,-9.81 33.07,-13.31 80.59,-25.04 162.53,-43.46 246.51,-52.74 37.61,-4.15 74.86,-11.64 112.21,-18.04 6.36,-1.1 12.35,-4.32 21.21,-7.54 -4.87,-9.22 -8.5,-16.09 -13.02,-24.67 14.81,-1.4 28.91,-3.04 43.04,-4 92.29,-6.31 184.54,-13.89 276.92,-18.14 63.58,-2.93 127.39,-1.75 191.08,-1.22 29.26,0.25 56.33,11.14 82.57,23.57 3.09,1.47 5.56,4.36 13.09,10.48 -25.93,2.91 -46.65,6.44 -67.48,7.32 -53.81,2.3 -107.65,3.86 -161.52,4.71zm-1403.96 8.75c12.89,34.35 43.15,48.93 63,75.64 -7.6,1.6 -12.49,3.7 -17.26,3.47 -102.6,-4.87 -205.17,-10.01 -312.15,-15.33 14.78,-13.96 29.22,-16.83 43.94,-17.79 26.5,-1.74 53.07,-2.15 79.56,-3.91 22.32,-1.5 30.43,-5.2 45.52,-19.35 -9.31,-1.61 -16.17,-3.71 -23.07,-3.85 -30.33,-0.58 -60.69,-0.54 -91.03,-0.87 -11,-0.11 -22.28,0.64 -36.54,-8.08 11.83,-6.76 20.29,-12.33 29.35,-16.64 13.14,-6.24 26.24,-11.2 30.06,-28.46 1.03,-4.65 9.89,-9.79 15.78,-10.72 23.13,-3.61 46.47,-5.82 69.78,-8.18 9.03,-0.92 18.22,-0.31 27.18,-1.58 2.94,-0.42 7.59,-4.65 7.53,-7.02 -0.13,-3.79 -2.65,-8.86 -5.76,-10.86 -4.21,-2.72 -9.86,-3.94 -14.99,-4.24 -18.17,-1.07 -36.37,-1.48 -54.57,-2.09 -120.54,-4.04 -241.1,-7.91 -361.63,-12.26 -17.78,-0.65 -35.47,-3.63 -53.2,-5.52 -0.08,-2.36 -0.18,-4.71 -0.26,-7.06 12.52,-1.67 24.99,-4.31 37.54,-4.85 140.22,-5.97 280.47,-11.72 420.72,-17.25 25,-0.97 50.07,-0.92 75.1,-0.87 25.68,0.03 45.93,8.81 62,31.35 12.15,17.06 30.06,29.97 45.76,44.35 11.22,10.28 23.75,19.21 34.37,30.06 8.42,8.62 6.89,15.9 -2.85,23.03 -11.79,8.62 -25.17,10.18 -39.09,7.43 -16.36,-3.24 -32.57,-7.44 -49.03,-9.99 -7.41,-1.14 -15.29,0.75 -25.75,1.46zm-520.54 19.57c7.42,2.72 15.32,4.58 22.11,8.41 6.22,3.52 13.98,8.17 16.15,14.14 3.22,8.9 -6.21,12.36 -12.75,16.18 -3.82,2.23 -7.36,4.93 -14.15,9.53 8.82,6.11 15.67,11.24 22.87,15.76 14.94,9.4 17.92,21.19 8.88,36.72 -6.92,11.9 -19.36,13.71 -33.36,3.5 -6.63,-4.85 -13.15,-11.01 -17.18,-18.07 -19.86,-34.91 -49,-60.07 -81.14,-82.54 -8.65,-6.06 -16.47,-13.56 -23.64,-21.36 -3.22,-3.51 -3.87,-9.42 -6.9,-17.43 10.02,-2.39 18.32,-6.04 26.65,-6.1 64.48,-0.48 128.98,-0.53 193.47,-0.1 13.58,0.1 27.31,1.91 40.69,4.39 8.33,1.56 16.17,5.89 24.22,8.97 0.09,1.81 0.19,3.61 0.28,5.4 -6.35,3.03 -12.44,7.52 -19.12,8.78 -12.61,2.39 -25.53,3.65 -38.36,4.11 -27.31,0.96 -54.64,0.86 -81.93,1.7 -8.68,0.26 -17.32,2.08 -25.97,3.18 -0.28,1.61 -0.54,3.22 -0.82,4.82zm-981.08 -6969.78c-0.06,3390.07 -0.07,6780.14 -0.01,10170.21 0,3.76 0.93,7.54 1.51,11.31 0.11,0.72 0.54,1.46 1.02,2.04 0.46,0.57 1.15,0.94 3.18,2.54l7861.98 0 0 -10200.7 -7863.56 0c-1.65,2.91 -2.76,4.11 -3.04,5.5 -0.59,2.99 -1.08,6.06 -1.08,9.1zm7030.67 8525.24c143.83,67.22 288.39,132.87 432.61,199.25 7.58,3.49 15.11,7.1 23.3,10.96 0.7,3.57 2.13,7.25 2.03,10.89 -4.48,164.22 -8.93,328.47 -33.82,491.22 -11.61,75.96 -29.11,150.44 -58.19,221.89 -45.17,110.93 -122.78,188.11 -232.36,233.32 -72.13,29.76 -147.42,46.94 -223.96,58.89 -122.36,19.1 -245.72,27.46 -369.29,32.97 -401.22,17.89 -802.65,14.35 -1204.07,11.46 -368.03,-2.65 -736.06,-5.71 -1104.08,-8.76 -1055.54,-8.8 -2111.1,-12.07 -3166.67,-7.24 -159.36,0.72 -318.71,2.74 -478.07,3.32 -46.22,0.17 -92.43,-1.94 -138.1,-11.3 -59.18,-12.14 -94.58,-48.36 -110.03,-106.36 -12.32,-46.28 -16.11,-93.76 -17.96,-141.29 -2.08,-53.68 -3.41,-107.47 -2.63,-161.18 4.28,-297.85 8.94,-595.68 14.25,-893.52 2.43,-136.62 6.32,-273.23 10.07,-409.83 5.4,-197.22 11.26,-394.44 16.93,-591.67 1.7,-59.08 3.41,-118.17 5.15,-177.26 0.22,-7.54 0.74,-15.08 1.25,-25.01 8.8,2.42 15.89,4.42 23,6.31 44.69,11.86 89.11,25 134.18,35.08 31.41,7.03 64.18,7.03 93.94,-6.97 53.86,-25.33 110.98,-29.43 168.79,-31.21 43.22,-1.32 86.44,-2.89 129.68,-3.75 92.47,-1.86 182.25,-20.28 270.85,-45.25 97.32,-27.43 196.29,-40.42 297.07,-33.67 62.76,4.2 125.52,10.68 187.79,19.5 159.85,22.62 320,33.32 481.02,17.17 110.92,-11.13 221.69,-23.65 332.44,-36.4 110.03,-12.65 219.87,-27.17 330.61,-32.09 126.83,-5.62 249.61,11.53 365.86,66.31 45.35,21.36 91.39,41.21 137.13,61.75 77.72,34.92 159.28,44.32 242.73,33.28 116.5,-15.4 232.59,-34.1 349.07,-49.79 81.9,-11.04 163.97,-21.65 246.29,-28.48 111.87,-9.31 220.83,7.89 326.43,46.61 83.37,30.56 166.46,61.96 250.32,91.07 110.69,38.43 224.79,56.92 342.06,54.68 55.37,-1.07 110.78,-1.09 166.18,-1.28 196.26,-0.61 365.04,69.54 505.58,206.71 67.1,65.48 131.35,134.28 193.22,204.87 150.82,172.1 328.41,308.67 527.38,418.48 173.85,95.97 352.33,182.36 532,266.33zm-4003.49 -1787.65c10.47,3.17 19.94,7.97 20.13,23.11 -22.02,8.14 -45.18,10.1 -68.52,10.17 -96.32,0.25 -192.64,0.01 -288.96,0.57 -18.86,0.1 -37.81,2.18 -56.53,4.75 -7.6,1.04 -14.7,5.79 -22.02,8.85 -0.08,1.82 -0.17,3.64 -0.25,5.46 7.09,3.03 14,7.92 21.35,8.78 42.11,4.94 84.26,10.21 126.54,12.93 46.9,3.02 94,2.74 140.94,5.25 19.54,1.04 39.04,4.87 58.3,8.83 8.37,1.72 16.06,6.98 24.04,10.64 0.14,1.69 0.28,3.4 0.42,5.1 -5.6,2.64 -10.97,6.72 -16.82,7.61 -14.94,2.26 -30.13,4.47 -45.18,4.29 -119.04,-1.35 -238.08,-3.06 -357.13,-5.18 -25.03,-0.44 -48.63,-6.35 -72.44,-16.33 -22.53,-9.43 -48.42,-11.43 -73.09,-14.62 -54.1,-6.99 -108.41,-12.39 -162.56,-19.04 -12.24,-1.5 -24.18,-5.4 -36.25,-8.21 0.24,-1.85 0.47,-3.69 0.72,-5.56 35.91,-0.25 71.83,-0.1 107.74,-0.87 35.88,-0.78 72.24,3.35 109.68,-7.91 -13.26,-22.78 -38.29,-19.9 -53.28,-35.85 18.89,0 37.79,-0.33 56.67,0.07 24.5,0.53 48.28,-0.9 70.54,-13.43 15.93,-8.96 33.91,-5.98 51.33,-5.89 28.75,0.15 57.53,0.08 86.26,-0.76 10.52,-0.31 21.03,-2.71 31.41,-4.83 15.68,-3.21 28.54,-10.56 33.78,-27.15 3.42,-10.86 11.31,-16.1 21.68,-17.76 84.6,-13.56 169.11,-27.92 255.19,-27.64 38.3,0.14 75.22,5.87 111.13,20.24 28.13,11.26 57.29,19.9 85.94,29.83 6.13,2.11 12.1,4.72 19.13,7.5 -7.24,11.33 -16.39,13.59 -26.54,11.82 -21.62,-3.76 -43.25,-7.7 -64.69,-12.38 -41.29,-9.03 -82.65,-10.43 -124.15,-2.4 -9.29,1.81 -22.19,2.07 -22.25,14.97 -0.06,11.14 12.15,12.29 20.47,14.96 12.25,3.93 24.96,6.35 37.28,10.1zm-1682.08 -41.54c46.01,0.4 90.69,5.86 133.06,24.72 12.87,5.74 26.93,10.61 34.83,27.87 -9.07,3.14 -17.11,7.61 -25.56,8.6 -68.67,7.97 -137.63,9.11 -206.54,4.9 -12.89,-0.79 -26.14,-7.3 -37.82,-13.76 -15.71,-8.69 -31.63,-14.48 -49.56,-14.4 -91.71,0.42 -183.43,0.11 -275.11,1.58 -33.24,0.53 -66.38,5.68 -99.63,7.76 -8.25,0.52 -16.72,-2.71 -25.1,-4.21 -0.36,-1.92 -0.74,-3.83 -1.1,-5.74 6.61,-4.09 12.75,-9.94 19.92,-11.92 16.02,-4.4 32.54,-6.89 48.87,-10.09 1.47,-0.29 3.03,-0.31 4.54,-0.29 159.93,2.26 319.24,-16.43 479.18,-15.03zm4749.26 -3099.93c0,0.02 -0.02,0.03 0,0zm-3836.18 2776.33c-39.93,10.17 -80.18,15.36 -121.61,11.1 -130.79,-13.48 -263.74,-20.63 -395.1,-26.24 -67.46,-2.88 -135,-4.1 -202.51,-5.96 -35.74,-0.98 -64.57,-20.17 -76.03,-54.68 -9.14,-27.56 -16.06,-56.01 -21.83,-84.51 -17.06,-84.17 -33.22,-168.5 -49.28,-252.86 -3,-15.78 -4.39,-31.93 -5.51,-47.98 -3.58,-51.18 19.08,-72.56 39.19,-112.94 15.1,-30.32 8.29,-42.5 -25.63,-43.54 -35.11,-1.07 -69.69,3.13 -102.06,18.61 -101.72,48.68 -147.09,160.03 -169.91,264.38 -13.68,62.51 -21.5,125.48 -12.14,189.61 5.03,34.46 13.74,67.57 31.26,97.92 2.57,4.41 3.99,9.53 6.81,16.48 -10.31,2.14 -18.9,4.85 -27.67,5.56 -17.39,1.39 -34.86,1.61 -52.28,2.43 -82.61,3.93 -165.26,6.98 -247.79,12.14 -64.47,4.01 -126.93,-4.24 -188.68,-22.71 -65.25,-19.52 -130.97,-37.49 -198.96,-56.83 -29.26,-245.64 -54.26,-486.75 -74.29,-733.83 -19.97,-246.31 -24.06,-446.59 28.96,-694.17 35.08,-163.72 45.42,-329.8 41.61,-496.75 -2.21,-96.64 -9.5,-193.15 -14.37,-289.74 -0.46,-9.04 -0.06,-18.14 -0.06,-29.03 6.68,1.01 12.48,1.42 18.04,2.82 90.13,22.64 181.67,35.15 274.38,39.01 124.99,5.22 163.82,105.31 336.96,61.93 79.28,-19.87 182.2,-59.91 246.58,-113.52 25.49,-21.21 33.31,-48.65 22.18,-80.64l-33.54 -93.25c7.37,0.59 13.06,0.44 18.5,1.54 70.28,14.2 144.93,19.15 213.17,-6.32 23.71,-8.83 41.63,-25.21 51.8,-48.94 7.83,-18.26 14.97,-36.85 21.74,-55.53 8.04,-22.19 13.23,-19.59 39.91,-17.5 11.53,0.89 19.87,-3.79 27.42,-12.92 28.32,-34.31 32.66,-60.67 42.96,-100.96 17.69,5.39 33.61,10.03 49.37,15.11 26.82,8.64 52.28,5.65 76.86,-7.99 26.86,-14.91 52.13,-31.62 68.35,-59.07 1.56,-2.65 2.64,-5.6 5.72,-12.21 4.15,12.79 6.71,19.06 8.24,25.57 26.31,112.59 154.28,97.93 240.56,82.57 30.89,-5.5 54.94,-16.65 77.97,4.61 58.94,54.41 68.91,41.83 125.64,46.68 12.83,1.1 25.79,1.17 38.68,0.85 51.73,-1.29 34.27,-26.85 69.59,-31.48 46.89,-6.15 100.33,-0.68 137.91,-22.82 50.54,-29.78 53.54,-59.39 71.94,-102.24 7.91,-18.4 12.35,-19.63 31.74,-16.86 13.96,1.97 28.85,3.79 42.36,0.97 23.14,-4.82 26.36,-12.63 20.61,-35.71 -12.41,-49.82 41.91,-12.3 88.11,-19.93 38.06,-6.28 73.98,-16.71 103.76,-42.96 2.13,-1.86 4.93,-2.91 11.44,-6.65 -2.29,16.61 -2.39,30.22 -6.18,42.67 -19.85,65.06 12.75,114.33 47.06,163.01 4.63,6.57 12.1,12.33 19.48,15.47 35.57,15.1 71.3,29.91 107.52,43.3 18.36,6.78 37.31,6.06 54.32,-8.89 2.44,5.25 4.67,9.17 6.15,13.35 13.67,38.46 39.79,65.01 76.82,80.07 47.56,19.35 97.04,24.07 147.46,15.25 71.87,-12.56 52.19,-55.93 120.93,-55.28 40.39,0.4 46.58,-5.42 52.14,-46.06 2.58,-18.98 5.33,-37.96 8.17,-56.9 0.18,-1.15 1.75,-2.1 4.44,-5.15 5.76,5.63 11.81,11.02 17.28,16.93 79.18,85.54 173.36,95.98 277.15,56.14 42.59,-16.35 77.28,-45.15 110.69,-75.54 6.76,-6.15 13.67,-12.32 19.44,-19.36 8.71,-10.6 18.89,-14.14 32.19,-11.31 27.35,5.83 57.77,10.02 85.72,9.19 24.56,-0.72 45.58,-10.47 62.47,-28.82 30.02,-32.62 38.16,-55.23 53.56,-92.74 7.19,-17.48 20.17,-26.58 38.9,-26.24 15.17,0.29 30.4,0.49 45.43,2.25 48.73,5.69 96.58,4.37 144,-10.86 13.44,-4.32 57.84,-4.39 76.7,-5.07 0.85,-18.65 -9.67,-26.86 -21.58,-31.15 -13.33,-4.81 -27.89,-8.25 -41.96,-8.42 -24.96,-0.32 -50.02,1.68 -74.92,3.87 -19.04,1.69 -33.42,-3.83 -45.44,-19.54 -19.11,-25 -46.1,-39.37 -74.36,-51.32l-19.5 -2.4c-9.36,22.09 -13.77,41.95 -35.85,29.6 -39.98,-22.38 -81.8,-17.26 -124.35,-12.33 -34.74,4.02 -54.63,21.67 -62.81,56.02 -7.25,30.46 -12.09,32.69 -42.71,25.28 -16.93,-4.1 -33.51,-9.71 -50.09,-15.08 -19.11,-6.18 -35.2,-3.4 -49.54,12.21 -11.74,12.78 -44.1,44.06 -60.04,52.54 -12.11,6.43 -17.93,4.27 -23.88,-7.5 -0.68,-1.36 -1.19,-2.85 -1.56,-4.32 -7.68,-31.94 -31.87,-44.61 -59.9,-53.44 -50.29,-15.85 -64.82,25.24 -92.07,17.71 -1.67,-11.62 -3.93,-23.5 -4.97,-35.48 -1.64,-19.03 -10.8,-32.36 -25.91,-43.67 -22.34,-16.69 -40.3,-43.51 -65.75,-49.44 -18.42,-4.29 -37.48,-5.64 -56.03,-9.49 -9.81,-2.04 -19.06,-6.8 -28.56,-10.33 0.17,-2.02 0.33,-4.04 0.5,-6.06 6.93,-1.25 13.82,-3.09 20.82,-3.65 33.22,-2.64 57.11,-19.15 71.42,-49.36 10.24,-21.63 27.44,-35.37 47.98,-44.24 26.18,19.54 52.88,32.29 88.56,-2.18 51.83,-50.08 112.38,-22.74 155.28,-24.81 42.92,-2.07 53.79,-17.76 79.69,-51.69 25.91,-33.92 87.86,-51.68 177.76,-47.54 89.91,4.14 75.6,10.33 114.43,-16.54 38.82,-26.87 124.64,-68.22 153.24,-14.47 28.61,53.75 75.61,66.15 96.04,43.42 20.43,-22.74 42.92,84.76 185.94,55.82 0,0 46.99,53.75 153.24,20.67 36.79,0 51.08,84.76 83.78,76.5 32.69,-8.28 83.78,-34.01 120.56,0.57 36.78,34.57 81.74,-48.13 63.35,-77.07 -18.39,-28.93 63.33,70.29 87.86,45.49 24.51,-24.81 -0.22,38.96 46.87,56.68 4.55,14.98 15.13,57.29 14.9,73.94 -0.8,55.86 33.94,93.67 66.36,132.14 56.5,67.05 134.41,93.36 219.13,70.74 89.43,-23.88 172.46,-62.83 250.18,-113.18 26.53,-17.18 34.94,-37.93 57.04,-53.9 8.25,22.08 24.49,30.68 56.61,21.39 29.18,93.11 116.72,93.11 159.36,72.67 42.64,-20.43 -69.51,89.53 14.1,139.06 -0.9,0.01 -68.25,1.68 -128.57,46 0,0 -0.13,0.01 -0.19,0.01 -37.74,-36.72 -152.97,-22.72 -153.39,-22.67 -10.83,-2.93 -21.63,-6.02 -32.26,-9.52 -46.6,-15.32 -91.71,-12.26 -138.11,3.52 -42.22,14.36 -85.96,24.71 -129.61,34.08 -55.11,11.85 -111.36,13.86 -167.6,13.2 -162.76,-1.93 -226.31,18.44 -379.67,39.25 -70.63,9.58 -141.54,17.13 -212.25,26.17 -55.64,7.13 -111.13,15.56 -166.78,22.67 -24.65,3.14 -37.93,15.75 -40.96,40.92 -1.74,14.4 -5.44,28.64 -9.17,42.7 -9.26,35.14 -25.29,48.86 -61.57,49.56 -20.33,0.39 -41.36,-0.44 -60.98,-5.25 -52.17,-12.79 -95.67,3.71 -135.2,36.36 -27.51,22.72 -47.32,51.76 -63.12,83.57 -9.02,18.13 -5.41,25.43 14.4,28.35 92.51,13.61 230.74,-6.94 320.69,-25.78 135.82,-28.44 271.33,-58.39 406.99,-87.68 120.14,-25.93 241.94,-32.24 364.33,-31.5 126.78,0.75 253.24,8.31 379.53,19.35 130.74,11.44 261.46,22.97 392.21,34.2 136.81,11.75 273.56,24.24 410.47,34.42 93.81,6.98 187.89,10.22 281.81,15.79 96.92,5.76 193.89,11.09 290.67,18.97 64.32,5.25 127.33,19.59 189.35,37.89 2.86,0.83 5.5,2.42 10.75,4.8 -3.99,5.44 -6.49,9.2 -9.35,12.68 -140,169.76 -279.58,339.88 -420.36,508.97 -35.64,42.81 -74.81,82.64 -112.86,123.36 -81.72,87.49 -179.11,150.87 -290.74,192.17 -99.64,36.88 -199.65,72.81 -298.79,111.02 -286.56,110.43 -553.67,257.32 -800.68,441.28 -137.35,102.29 -258.87,228.77 -379.25,350.96 -60.93,61.85 -129.39,113.6 -204.35,156.72 -196.81,113.22 -404.52,199.35 -623.82,256.58 -80.21,20.93 -157.1,51.52 -234.11,81.77 -23.53,9.23 -33.26,6.08 -46.08,-16.5 -4.87,-8.59 -9.08,-17.83 -11.92,-27.3 -24.89,-82.91 -49.25,-166 -74.08,-248.94 -11.33,-37.86 -9.68,-74.1 10.42,-108.85 3.79,-6.54 6.57,-13.9 8.6,-21.24 5.14,-18.56 -0.28,-26.54 -19.35,-26.47 -129.44,0.46 -183.44,116.98 -200.67,228.59 -11.96,77.52 -13.48,177.62 33.67,244.98 2.1,2.99 3.59,6.42 5.24,9.44 -18.58,12.51 -35.93,24.48 -53.62,35.93 -4.31,2.78 -9.58,4.99 -14.61,5.52 -80.06,8.43 -160.25,13.21 -240.82,11.86 -40.76,-0.68 -79.42,-11.68 -118.28,-21.74 -123.43,-31.93 -248.68,-36.83 -375.04,-27.61 -53.92,3.94 -106.58,14.72 -158.93,27.67 -13.02,3.21 -25.68,7.4 -39.52,-0.17 -19.33,-10.58 -40.71,-18.04 -51.69,-39.36 -5.24,-10.17 -10.33,-20.65 -13.6,-31.59 -28.08,-93.96 -55.71,-188.07 -83.54,-282.11 -12.78,-43.15 -11.17,-84.75 12.04,-124.4 3.82,-6.53 6.39,-13.92 8.83,-21.17 7.97,-23.57 1.07,-33.99 -23.81,-32.92 -40.83,1.75 -79.37,11.65 -113,36.87 -63.41,47.55 -92.59,120.98 -107.44,196.78 -18.68,95.33 -24.62,223.87 35.2,307.32 1.72,2.4 2.68,5.36 4.97,10.11 -5.99,2.46 -11.1,5.32 -16.57,6.71zm-993.65 -70.94c26.35,-4.33 52.7,-6.1 78.28,4.52 13.36,5.56 16.46,8.01 25.39,20.5 -16.83,9.72 -81.7,13.72 -127.97,7.64 1.29,-24.92 4.44,-29.39 24.3,-32.65zm1108.94 54.52c29.96,-7.81 59.7,-9.13 87.18,8.93 2.9,1.9 4.89,5.22 7.54,8.14 -17.5,8.99 -68.06,11.72 -106.42,5.99 -1,-10.2 0.09,-20.04 11.69,-23.06zm1402.13 -58.59c-31.89,14.96 -65.37,12 -99.65,17.56 -0.29,-22.89 -0.07,-23.67 14.9,-28.35 19.85,-6.21 40.22,-8.64 60.5,-3.33 8.71,2.28 16.57,7.87 24.25,14.12zm-2562.25 -174.78c22.25,15.29 40.36,61.01 38.85,97.53 -31.22,-27.39 -28.63,-63.57 -38.85,-97.53zm1129.38 85.13c18.59,21.04 27.09,45.58 30.36,76.69 -28.04,-21.37 -24.64,-51.11 -30.36,-76.69zm1294.76 -58.42c20.68,11.15 36.92,43.54 35.98,68.92 -24.96,-16.09 -22.87,-44.94 -35.98,-68.92zm-1993.14 -2656.83c-3.17,30.82 -13.9,53.31 -43.06,65.4 -41.07,17.03 -84.01,24.33 -127.56,30.07 -24.86,3.28 -49.58,5.86 -74.37,0.08 -7.89,-1.85 -15.74,-3.83 -23.61,-8.92 5.57,-1.82 11.06,-4 16.72,-5.42 44.03,-10.96 88.14,-20.96 133.71,-23.46 22.52,-1.24 42.07,-11.26 58.21,-27.74 7.96,-8.11 16.15,-16.17 25.18,-22.98 10.42,-7.86 15.68,-8.33 34.78,-7.04zm1742.81 191.08c-9.21,-3.42 -17.86,-8.37 -26.75,-12.67 -13,-6.29 -25.88,-8.44 -38.83,0.4 -3.04,2.08 -6.86,3.92 -10.42,4.13 -25.06,1.4 -49.32,-2.99 -73.31,-12.52 9.14,-2.04 18.59,-3.22 27.35,-6.35 12.68,-4.53 25.58,-9.24 37.08,-16.09 13.09,-7.8 26.04,-11.77 41.04,-8.74 13.38,2.7 26.78,5.43 40.26,7.39 23.92,3.46 26.96,0.88 31.07,-23.86 0.48,-2.94 1.31,-5.82 2.96,-12.97 11.38,3.24 20.91,5 29.68,8.61 24.57,10.14 49.03,14.85 75.31,6.18 8.61,-2.85 18.63,-1.33 31.57,-1.99 -9.61,18.44 -22.63,22.61 -37.33,23.58 -21.2,1.42 -42.42,2.35 -63.61,3.83 -21.63,1.53 -40.39,7.04 -46.03,32.53 -2.39,10.79 -11.46,11.71 -20.04,8.53zm-947.56 -312.8c-0.72,1.59 -1.44,3.21 -2.17,4.82 -20.43,-7.26 -41.42,-13.22 -61.14,-22.1 -28.26,-12.72 -55.96,-15.08 -85.93,-6.19 -40.26,11.93 -79.33,-0.32 -118.06,-10.78 -4.99,-1.35 -9.07,-6.14 -13.58,-9.33 1.09,-1.14 2.19,-2.28 3.29,-3.41 25.74,5.58 51.36,11.69 77.22,16.64 29.39,5.63 57.37,3.35 80.61,-18.93 5.91,-5.65 12.13,-7.89 20.46,-3.44 22.64,12.08 45.78,23.22 68.54,35.09 10.47,5.44 20.52,11.72 30.75,17.64zm795.9 15.54c-15.89,-5.28 -30.06,-5.15 -44.85,5.82 -8.33,6.18 -20.93,8.46 -31.71,8.75 -13.36,0.35 -24.97,-4.74 -27.75,-21.37 -2.63,-15.63 -14.85,-20.42 -28.72,-20.82 -18.18,-0.51 -36.39,-0.01 -54.6,-0.22 -27.3,-0.31 -54.61,-0.54 -81.9,-1.4 -15.37,-0.5 -30.72,-3.1 -40.8,-16.46 -3.04,-4.03 -5.11,-12.26 -3.06,-16.01 3.81,-6.92 10.93,-3.42 15.57,0.76 28.54,25.68 61.89,21.26 94.96,14.87 21.5,-4.17 42.59,-10.75 63.71,-16.76 13.46,-3.85 23.71,0.29 32.13,10.9 7.13,8.97 13.9,18.26 21.57,26.74 13.21,14.6 32.57,13.89 42.03,-2.86 8.36,-14.83 17.13,-27.57 35.4,-28.33 21.83,-0.9 42.28,3.43 58.7,19.57 3.26,3.19 6.44,6.5 9.47,9.94 16.18,18.43 35.49,22 57.61,12.57 14.09,-6 28.35,-9.69 48.56,-1.72 -16.61,24.94 -36.44,39 -61.99,37.06 -28.47,-2.15 -56.54,-9.63 -84.74,-15.11 -6.65,-1.29 -13.11,-3.75 -19.58,-5.9zm3482.61 -1004.07l-6033.96 0 0 -1445.04c18.28,-5.33 6015.03,-5.5 6033.96,-0.21l0 1445.25zm1076.52 7612.17c6,5.25 9.61,12.5 10.8,21.78l-14.5 1.17c-1.3,-5.75 -3.17,-9.94 -5.58,-12.56 -3.97,-4.19 -8.89,-6.28 -14.72,-6.28 -4.7,0 -8.86,1.3 -12.44,3.91 -4.61,3.36 -8.22,8.25 -10.92,14.7 -2.67,6.47 -4.06,15.67 -4.17,27.58 3.53,-5.36 7.86,-9.36 12.97,-11.94 5.11,-2.61 10.44,-3.92 16.06,-3.92 9.78,0 18.11,3.61 25,10.81 6.86,7.19 10.3,16.47 10.3,27.89 0,7.5 -1.61,14.44 -4.83,20.89 -3.25,6.44 -7.67,11.36 -13.33,14.78 -5.64,3.42 -12.06,5.14 -19.22,5.14 -12.19,0 -22.17,-4.5 -29.89,-13.47 -7.7,-8.97 -11.56,-23.78 -11.56,-44.39 0,-23.06 4.28,-39.83 12.8,-50.3 7.44,-9.11 17.47,-13.67 30.11,-13.67 9.39,0 17.11,2.64 23.11,7.89z"/>
 </g>
</svg>
