<?xml version="1.0" encoding="UTF-8"?>
<!DOCTYPE svg PUBLIC "-//W3C//DTD SVG 1.1//EN" "http://www.w3.org/Graphics/SVG/1.1/DTD/svg11.dtd">
<!-- Creator: CorelDRAW 2018 (64-Bit) -->
<svg xmlns="http://www.w3.org/2000/svg" xml:space="preserve" width="8.26772in" height="11.6929in" version="1.1" style="shape-rendering:geometricPrecision; text-rendering:geometricPrecision; image-rendering:optimizeQuality; fill-rule:evenodd; clip-rule:evenodd"
viewBox="0 0 8267.72 11692.91"
 xmlns:xlink="http://www.w3.org/1999/xlink">
 <defs>
  <style type="text/css">
   <![CDATA[
    .fil0 {fill:#2B2926}
   ]]>
  </style>
 </defs>
 <g id="Layer_x0020_1">
  <metadata id="CorelCorpID_0Corel-Layer"/>
  <path class="fil0" d="M4819.81 5807.82c75.51,6.72 151.03,13.92 226.64,20.93 73.24,6.91 146.48,13.82 219.72,20.54 77.88,7.19 155.68,14.39 233.57,21.01 83.86,7.11 167.82,14.21 251.78,20.25 103.68,7.58 207.37,14.79 311.17,20.83 82.53,4.79 165.17,8.15 247.79,11.51 284.42,11.71 569.11,9.03 853.63,13.92 74.37,1.35 148.75,3.94 221.98,18.63 22.86,4.61 45.64,11.61 67.46,19.96 41.56,15.75 70.58,45.4 82.72,88.79 9.49,33.78 18.7,68.33 22.02,103.18 9.29,97.71 17.83,195.71 22.29,293.79 10.33,224.7 19.17,449.39 26.56,674.28 5.42,163.36 9.3,326.92 10.92,490.46 2.46,240.25 4.17,480.58 2.65,720.92 -1.24,175.75 -6.83,351.48 -13.09,527.24 -5.6,159.51 -13.85,319.04 -22.76,478.46 -7.68,138.7 -16.89,277.29 -27.22,415.89 -10.92,146.96 -22.96,293.81 -36.25,440.56 -4.54,50.31 -13.85,100.21 -21.72,150.13 -1.89,12 -6.35,23.71 -10.62,35.13 -15.09,40.5 -42.97,67.76 -83.57,81.97 -37.67,13.24 -76.75,19.19 -116.03,21.87 -127.89,8.93 -255.76,18.43 -383.83,24 -247.14,10.75 -494.26,20.74 -741.58,27.93 -590.18,17.18 -1180.64,18.04 -1771.1,15.26 -271.61,-1.35 -543.3,-3.07 -815.01,-3.94 -623.76,-2.19 -1247.61,-4.89 -1871.36,-5.46 -258.04,-0.19 -516.08,4.42 -774.04,6.72 -42.5,0.38 -85,0.57 -127.03,-7.4 -47.62,-8.92 -78.93,-36.67 -96.09,-81.78 -17.56,-46.35 -23.53,-95.11 -27.79,-144.15 -12.15,-141.68 -11.11,-283.82 -11.86,-425.78 -3.04,-568.89 -4.75,-1137.86 -7.11,-1706.85 -2.76,-648.74 -5.79,-1297.47 -8.17,-1946.31 -0.37,-98.19 2.47,-196.48 4.18,-294.76 0.18,-12.96 1.99,-26.01 4.46,-38.78 3.5,-18.24 7.39,-20.35 25.04,-15.74 35.2,9.11 70.02,20.63 105.58,27.44 47.63,9.11 95.82,15.07 143.92,21.69 29.99,4.13 60.63,4.99 90.22,10.94 33.96,6.81 65.36,2.11 94.3,-15.17 41.07,-24.67 81.11,-51.07 121.52,-76.89 7.6,-4.79 14.9,-10.26 22.3,-15.35 106.92,104.14 216.39,104.8 330.14,10.65 10.43,9.2 21.06,18.8 31.97,28.2 7.48,6.53 15.36,12.49 22.76,19.11 32.64,29.18 68.21,30.33 105.4,10.46 14.03,-7.58 27.99,-15.65 40.6,-25.25 11.76,-8.92 23.9,-11.22 38.14,-11.32 31.03,-0.29 62.14,-1.15 93.07,-3.85 29.59,-2.48 55.3,-15.83 77.03,-36.18 47.72,-44.91 80.54,-97.61 84.15,-165.57 0.18,-2.11 1.04,-4.32 2.28,-9.31 4.17,5.28 7.58,8.74 9.96,12.76 8.15,13.92 15.46,28.22 23.91,41.85 11.39,18.24 27.98,24.96 48.96,20.74 12.42,-2.5 25.04,-4.8 39.65,-7.58 1.14,7.87 2.37,14.39 3.13,20.92 1.9,16.71 2.85,33.6 5.5,50.31 3.51,21.78 12.43,30.32 33.68,34.74 7.5,1.54 14.9,3.17 22.48,3.93 21.44,2.13 38.9,11.92 53.79,27.17 3.79,3.75 7.78,7.31 11.29,11.43 34.35,40.4 79.03,55.18 130.15,53.26 41.85,-1.63 83.02,-8.35 122.67,-22.36 40.79,-14.4 77.32,-36.18 107.11,-67.76 27.12,-28.89 52.74,-59.42 78.74,-89.36 12.8,-14.68 18.3,-32.15 13.67,-51.35 -4.28,-17.67 -8.83,-35.71 -16.14,-52.22 -5.21,-11.61 -4.07,-18.61 5.89,-25.14 1.91,-1.25 3.7,-2.78 5.6,-4.03 14.89,-9.79 19.07,-23.61 12.9,-39.93 -4.56,-12.1 -10.43,-23.71 -16.12,-35.32 -3.52,-7.31 -7.7,-14.21 -11.58,-21.32 1.06,-1.43 2,-2.78 3.04,-4.22 7.68,1.74 15.46,3.56 23.24,5 16.32,2.97 32.64,7.39 49.06,8.15 37.47,1.83 65.56,-14.78 84.81,-47.5 18.13,-30.63 18.79,-30.72 47.72,-11.04 13.2,9.02 27.22,13.92 42.79,12.28 14.32,-1.53 28.36,-4.99 42.6,-6.71 0,0 64.4,-24.58 51.22,-65.47 -0.37,-1.24 -0.85,-2.58 -1.41,-3.83 -0.86,-2.4 -1.63,-4.7 -2.38,-7 -1.71,-5.29 -3.32,-14.79 -0.86,-16.41 5.5,-3.85 13.47,-5.28 20.5,-5.38 3.79,-0.09 7.58,4.61 11.29,7.1 15.93,10.75 29.4,6.72 35.47,-11.42 2.37,-7.11 3.04,-14.87 4.85,-24.19 5.3,1.06 10.53,1.06 14.69,3.17 6.83,3.26 13.38,7.4 19.36,12 12.61,9.5 23.53,22.08 42.02,18.72 22.11,-4.04 43.93,-9.89 58.17,-28.32 16.3,-21.01 36.8,-30.9 62.22,-33.11 5.99,-0.48 11.96,-2.21 17.65,-4.32 25.14,-9.11 30.26,-26.01 14.81,-47.61 -15,-21.02 -15.28,-30.24 3.4,-47.6 18.6,-17.28 34.44,-36.1 41.75,-61.06 23.14,2.89 40.12,13.06 54.36,26.87 24,23.43 51.79,29.28 83.76,24.76 22.49,-3.07 45.35,-4.69 68.03,-5.56 18.41,-0.78 34.06,-6.63 47.81,-18.53 8.74,-7.48 17.83,-14.3 26.47,-21.89 33.39,-29.18 72,-45.58 116.01,-46.56 30.18,-0.67 53.22,-12.86 74.29,-34.17 14.8,-14.87 33.39,-26.19 50.94,-38.1 12.52,-8.64 26.65,-8.93 41.56,-6.06 40.22,7.68 79.78,7.97 117.82,-11.13 8.64,-4.32 18.79,-5.67 28.26,-8.36 10.15,-2.88 20.69,-4.89 30.56,-8.72 19.25,-7.68 26.28,-21.32 20.48,-37.53 -6.07,-17.18 -30.17,-31.19 -44.11,-21.42 -21.53,15.09 -34.9,3.85 -49.98,-8.54 -11.2,-9.21 -22.21,-18.71 -34.25,-26.68 -33.21,-21.78 -67.93,-24.28 -103.5,-5.47 -10.72,5.76 -21.07,12.29 -32.07,17.47 -15.85,7.58 -20.97,6.72 -30.74,-7.58 -11.76,-17.18 -27.24,-29.18 -46.11,-35.99 -24.86,-9.12 -50.08,-17.67 -75.71,-24.09 -21.82,-5.47 -44.21,-3.46 -63.93,8.54 -20.03,12.2 -38.81,13.54 -59.96,2.21 -10.25,-5.47 -23.15,-7.87 -34.92,-8.35 -33.29,-1.25 -66.6,-2.21 -99.24,8.54 -11.1,3.64 -24,1.63 -36.14,2.02 -25.7,0.76 -51.61,-0.1 -77.22,2.5 -44.5,4.61 -60.53,32.53 -56.54,68.14 0.38,3.75 0,7.58 0,11.53 -9.96,8.54 -21.54,7.86 -32.64,8.54 -14.32,0.96 -28.93,0.47 -43.07,2.87 -21.35,3.64 -28.26,13.82 -25.7,35.52 1.33,10.65 5.03,20.92 6.17,31.57 0.86,8.64 -0.57,17.57 -1.04,29.18 -7.78,-2.87 -13.19,-3.54 -16.79,-6.53 -5.89,-4.69 -11.57,-10.26 -15.65,-16.5 -14.61,-22.08 -33.68,-32.83 -61.57,-24.96 -2.08,-6.43 -4.46,-11.91 -5.79,-17.57 -10.24,-45.97 -33.49,-66.32 -80.25,-70.15 -11.86,-0.97 -23.72,-2.01 -37,-3.26 2.18,-14.01 10.91,-18.63 19.92,-21.89 12.81,-4.61 26.1,-7.97 39.18,-11.8 8.64,-2.6 17.56,-4.61 26.1,-7.78 19.82,-7.48 31.11,-22.17 31.3,-43.57 0.1,-21.41 -1.43,-42.91 -2.28,-64.41 -0.39,-8.17 -1.14,-16.32 -1.81,-26.21 5.22,1.35 8.44,1.35 10.72,2.97 21.35,15.26 43.92,13.54 67.44,6.15 19.54,-6.06 39.18,-11.9 59.21,-16.22 13.94,-2.97 28.46,-4.04 42.78,-4.52 26.08,-0.86 47.53,9.7 62.8,31.1 11.3,15.74 26.09,25.06 43.92,30.81 62.43,20.25 125.52,30.14 190.22,12.19 12.24,-3.36 24.85,-8.15 35.09,-15.46 14.04,-9.97 28.93,-16.2 45.35,-20.06 35.67,-8.44 47.53,-21.87 53.4,-59.12 1.63,-9.89 2.37,-19.96 5.13,-29.47 4.08,-13.63 11.58,-16.79 24.39,-10.56 6.74,3.26 13.09,7.78 18.97,12.57 7.02,5.86 13.85,12 19.82,19.02 37.67,44.44 87,60.65 142.68,56.35 35.39,-2.69 70.49,-9.79 105.21,-17.29 12.82,-2.78 25.63,-10.36 35.78,-18.9 34.53,-28.89 68.39,-58.54 101.32,-89.17 12.61,-11.8 25.14,-15.44 41.26,-11.13 40.13,10.65 79.6,5.75 119.06,-4.7 28.08,-7.39 46.86,-23.42 54.56,-52.5 3.89,-14.78 9.49,-29.18 15.46,-43.3 17.08,-40.12 41.08,-54.9 83.11,-45.87 57.19,12.37 114.5,12 172.08,7.49 11.39,-0.86 22.68,-2.41 33.78,-4.91 6.83,-1.53 13.18,-5.28 20.11,-8.15 -5.22,-13.92 -15.37,-16.89 -24.57,-18.43 -30.65,-4.79 -61.39,-8.83 -92.21,-12.19 -15,-1.53 -30.36,-1.06 -45.44,-1.24 -18.89,-0.2 -33.01,-7.21 -43.46,-24.2 -7.4,-12.29 -17.44,-23.22 -27.79,-33.2 -13.37,-12.76 -29.32,-15.17 -46.11,-5.67 -4.54,2.7 -9.39,5 -13.85,7.87 -11.47,7.3 -20.97,7.97 -35.2,1.63 -41.46,-18.51 -85.86,-24.85 -131.29,-19.47 -20.31,2.39 -35.39,12.94 -42.32,33.39 -5.87,17.37 -11.76,34.85 -17.64,52.22 -6.64,19.86 -12.72,22.85 -32.26,14.97 -16.13,-6.43 -31.59,-15.26 -48.18,-19.39 -31.97,-8.07 -57.97,4.22 -78.18,29.65 -3.89,4.81 -6.93,10.18 -10.82,14.78 -12.89,15.56 -23.91,15.85 -37.85,0.87 -4.09,-4.42 -7.78,-9.59 -10.35,-15.07 -11,-23.91 -31.11,-32.74 -55.21,-33.89 -33.11,-1.72 -65.26,1.64 -92.5,24.1 -2.56,2.2 -6.72,2.58 -13.18,4.89 -1.61,-10.17 -4.75,-18.9 -3.99,-27.35 2.75,-31.97 -13.37,-51.74 -40.69,-61.63 -23.53,-8.44 -39.18,-22.46 -46.02,-46.46 -3.61,-12.86 -13.85,-15.44 -24.57,-16.6 -14.04,-1.44 -28.28,-1.92 -46.21,-3.07 10.44,-11.81 21.54,-16.52 31.32,-22.85 16.22,-10.46 31.68,-19.96 29.69,-44.35 -0.67,-7.78 7.86,-18.51 15.08,-24.18 19.15,-14.87 39.08,-29.18 60.14,-40.98 50,-27.93 103.87,-46.75 158.24,-63.64 131.97,-41.18 265.54,-75.74 401.48,-100.78 82.25,-15.17 161.47,-6.43 238.69,25.14 24.57,9.99 46.1,23.24 59.38,47.42 10.82,19.87 29.42,26.7 49.9,26.21 28.75,-0.76 57.87,-1.44 86.06,-6.63 118.58,-21.97 236.97,-44.82 355.08,-69.01 118.97,-24.37 238.6,-44.63 359.56,-56.06 14.22,-1.43 28.83,-1.72 43.17,-0.76 26.93,1.74 38.71,14.21 37.57,41.28 -0.76,16.7 -3.04,33.87 -8.17,49.72 -17.17,53.17 -35.96,105.86 -54.07,158.75 -12.06,34.74 -24.67,69.29 -35.76,104.33 -13.09,41.17 -12.8,83.03 -3.71,125.06 6.74,31.01 24.49,53.56 53.89,63.35 28.56,9.52 58.25,17.37 88.04,21.79 62.61,9.41 125.42,8.83 188.03,-2.5 38.14,-6.8 71.06,-23.32 94.48,-54.71 18.21,-24.37 35.29,-50 49.81,-76.78 11.96,-22.18 26.18,-38.31 51.32,-44.54 23.25,-5.75 42.89,-19.29 60.06,-35.98 19.17,-18.63 38.52,-37.06 56.74,-56.63 44.39,-47.61 99.52,-70.36 162.97,-77.56 71.25,-8.07 142.31,-6.33 213.65,-1.54 166.48,11.04 332.89,24.96 499.94,25.92 133.01,0.76 263.26,-15.56 390.86,-53.26 18.97,-5.57 38.14,-10.47 57.41,-14.5 47.33,-9.98 73.51,4.32 90.69,50.29 15.74,42.04 20.76,86.49 23.91,130.83 11.29,162.68 7.4,325.37 1.61,488.06 -0.47,13.51 -1.07,27.03 -1.57,40.56 -16.39,2.06 -35.15,-0.53 -56.72,-9.11 -188.06,-74.96 -91.18,207.56 -176.67,147.19 -85.47,-60.36 -148.17,152.61 -165.26,0 -17.09,-152.61 -125.37,-147.19 -262.14,-170.26 -136.78,-23.07 -182.36,276.75 -324.83,170.26 -142.47,-106.48 -148.17,25.78 -233.65,89.2 -85.49,63.41 -176.67,-184.5 -478.71,-128.14 -302.03,56.38 -210.85,318.41 -302.03,302.39 -91.18,-16.01 -17.1,96.74 -182.36,16.02 -165.13,-80.64 -317.74,169.91 -410.58,160.71 -49.85,-5.31 -99.64,-10.99 -149.15,-18.35 -36.43,-5.37 -72.2,-17.94 -106.82,-31 -77.99,-29.26 -155.88,-26.87 -234.91,-6.43 -24.37,6.43 -43.17,17.47 -50.65,43.78 -4.65,16.3 -17.17,24.85 -33.59,26.86 -12.06,1.44 -24.19,2.31 -36.24,2.89 -9.87,0.49 -19.73,-0.29 -29.59,0.1 -31.22,1.35 -53.42,16.89 -65.18,45.68 -5.69,13.91 -7.87,29.47 -11.39,44.25 -1.89,7.78 -3.4,15.74 -5.4,25.35 -6.64,-3.08 -11.1,-4.24 -14.42,-6.82 -5.42,-4.22 -9.96,-9.4 -14.9,-14.21 -35.67,-35.32 -58.43,-37.53 -100.56,-9.3 -10.63,7.09 -21.15,14.48 -30.46,20.91 -3.69,-1.15 -5.58,-1.15 -6.44,-2.11 -34.82,-41.85 -83.48,-50.19 -132.92,-55.08 -25.7,-2.5 -47.8,5.56 -60.61,31.37 0,0 7.02,27.36 -37.19,26.41 -44.11,-1.06 -55.21,-24.39 -88.32,0 -33.11,24.37 -59.02,-12.39 -134.61,0 -75.53,12.37 38.22,29.46 86.42,29.46 47.25,0 46.11,23.61 120.76,35.42 1.53,0.29 3.04,0.58 4.65,0.78 16.89,3.07 30.36,10.85 38.04,28.5 8.44,19.59 24.57,30.81 43.74,37.92 25.71,9.6 52.28,15.54 79.97,15.64 17.36,0.09 34.82,0.68 52.18,2.01 21.92,1.83 38.32,13.06 50.09,31.87 19.54,31.39 20.58,35.52 65.56,25.04 39.85,-9.21 79.5,-19.67 119.54,-28.02 15.36,-3.17 31.68,-1.93 47.53,-2.5 23.43,-0.96 47.15,0.1 70.2,-3.07 31.5,-4.22 61.96,-2.99 92.4,5.65 40.79,11.61 81.4,24.48 124.18,27.56 44.6,3.26 89.28,6.33 133.86,10.17zm-4620.26 -5062.07l0 10198.25c28.08,4.5 7847.78,3.83 7865.71,0.18 4.46,-24.57 3.51,-10182.02 -0.96,-10198.43l-7864.75 0zm2434.22 4901.97c3.79,-11.9 10.81,-13.53 20.49,-5.85 14.41,11.32 20.58,27.74 13.47,44.82 -7.41,17.47 -16.8,34.36 -27.04,50.29 -9.19,14.11 -23.81,21.31 -40.79,21.5 -17.44,0.2 -34.9,-0.09 -52.26,-1.24 -17.46,-1.17 -31.78,-9.41 -43.46,-22.47 -16.5,-18.43 -35.19,-28.3 -61.37,-28.69 -22.96,-0.39 -46.19,-8.07 -68.4,-15.26 -17.64,-5.67 -34.82,-9.31 -53.4,-7.58 -14.24,1.35 -29.03,2.4 -43.07,0.29 -10.54,-1.64 -21.07,-7.49 -30.08,-13.72 -3.32,-2.2 -4.26,-11.24 -2.93,-16.12 0.75,-2.6 9.1,-4.61 13.65,-4.13 9.78,1.15 19.17,4.5 28.85,6.33 9.67,1.82 19.35,3.44 29.13,4.32 14.52,1.15 24.57,-5.76 30.92,-18.92 4.56,-9.31 9.68,-18.33 16.42,-31.1 8.25,9.5 14.8,15.46 19.36,22.75 5.3,8.35 8.91,17.76 12.98,26.78 14.61,32.74 50.37,37.15 72.29,8.44 6.46,-8.44 11.1,-18.24 16.79,-27.25 3.22,-5.1 6.93,-9.89 13.94,-19.78 6.64,22.46 11.76,39.83 16.99,57.21 10.43,34.46 20.3,42.42 52.56,42.22 31.97,-0.08 49.33,-12.86 58.35,-43.76 2.85,-9.5 3.69,-19.58 6.64,-29.08zm-611.04 -9.79c-0.67,2.21 -1.33,4.42 -2.2,6.53 -24.57,63.25 -71.14,84.57 -135.08,60.76 -10.15,-3.85 -19.74,-11.61 -27.52,-19.58 -16.03,-16.61 -33.2,-26.21 -57.48,-27.54 -24.49,-1.35 -49.24,-8.17 -72.76,-15.94 -20.11,-6.61 -39.37,-9.02 -60.25,-6.91 -14.04,1.44 -28.56,0.1 -42.78,-1.15 -5.79,-0.49 -11.76,-3.26 -16.7,-6.53 -7.03,-4.8 -13.76,-11.51 -9.78,-20.93 3.89,-9.11 12.9,-6.24 20.11,-4.89 14.9,2.88 29.5,7.49 44.4,9.41 23.71,3.17 31.02,-1.63 41.56,-22.83 3.59,-7.31 7.58,-14.4 14.03,-26.6 8.74,10.18 14.9,15.65 19.07,22.46 5.22,8.36 9.02,17.67 13.1,26.69 14.89,33.49 51.71,37.63 73.53,7.96 5.4,-7.3 9.39,-15.74 14.32,-23.42 3.99,-6.14 8.25,-12 15.37,-22.17 6.72,22.26 11.85,39.44 16.97,56.63 10.06,33.78 21.54,43.28 52.18,43.28 31.03,0.11 50.1,-13.91 58.92,-43.94 2.94,-10.18 3.99,-21.13 7.11,-31.29 3.04,-9.6 9.39,-11.24 17.64,-6.06 15.09,9.69 21.74,28.51 16.24,46.07zm263.35 -409.07c0,19.19 -0.47,38.39 -2.08,57.5 -2.65,31.29 -13.47,37.24 -41.83,23.22 -13.57,-6.72 -27.04,-14.21 -39.57,-22.75 -22.09,-15.07 -44.96,-16.6 -69.25,-7.1 -11.96,4.69 -24,9.5 -35.86,14.48 -24.86,10.46 -43.74,27.26 -53.89,53.08 -1.42,3.56 -3.22,6.91 -5.03,10.36 -12.61,23.81 -24.28,26.31 -44.48,9.32 -1.24,-0.97 -2.38,-1.93 -3.42,-3.08 -22.29,-24.57 -48.49,-41.56 -82.54,-43.37 -45.53,-2.4 -89.26,3.46 -128.35,29.85 -21.74,14.68 -40.22,33.11 -54.08,55.29 -14.99,24.08 -34.25,29.75 -60.24,21.4 -19.54,-6.25 -39.56,-10.47 -60.43,-5.57 -33.49,7.68 -47.06,24.96 -48,59.5 -0.76,26.01 -2.47,52.03 -4.65,77.94 -0.67,7.96 -4.56,15.56 -7.87,26.21 -9.59,-5.2 -16.7,-9.13 -23.91,-12.78 -29.79,-15.17 -59.86,-29.94 -94.11,-31.67 -34.06,-1.82 -63.28,6.63 -81.78,38.48 -3.04,5.28 -6.46,10.36 -10.35,16.61 -10.53,-8.93 -17.17,-13.83 -22.96,-19.58 -24.18,-24 -51.52,-30.24 -82.33,-15.74 -12.06,5.65 -23.82,14.1 -32.83,23.99 -16.42,17.94 -31.02,37.63 -45.72,57.11 -16.61,21.79 -17.26,22.75 -40.42,10.18 -27.51,-14.89 -56.64,-15.94 -86.42,-13.06 -13.96,1.24 -24.01,9.01 -29.89,21.78 -5.89,12.86 -12.91,23.52 -27.04,29.18 -12.43,5 -15.26,18.14 -18.4,30.14 -5.22,20.25 -7.31,21.7 -28.08,20.44 -33.11,-2.11 -50.28,-14.3 -58.82,-47.41 -8.62,-33.31 -12.8,-67.77 -21.43,-101.07 -11.11,-43 -22.11,-86.28 -37.76,-127.65 -25.71,-67.57 -39.46,-136.58 -38.61,-208.94 0.47,-32.15 -0.85,-64.4 -1.33,-96.65 -0.08,-5.29 0.57,-10.57 1.06,-19.39 9.1,2.97 16.41,5.57 23.81,7.96 46.96,14.87 93.54,30.92 140.97,44.15 43.64,12.1 88.8,11.71 133.39,6.33 50.37,-6.14 100.46,-14.87 150.36,-23.7 17.93,-3.26 33.58,0.78 47.72,9.98 50.18,33.21 103.69,29.18 157.96,15.46 41.56,-10.47 66.31,-37.62 75.04,-80.25 7.78,-37.33 6.26,-74.76 3.51,-112.39 -0.48,-5.86 -0.67,-11.71 -1.15,-19.97 8.44,2.5 14.91,3.94 21.17,6.25 46.48,17.28 93.44,17.46 140.78,3.93 35.29,-10.18 68.11,-25.72 98,-47.42 40.52,-29.65 66.89,-68.43 73.43,-119.5 0.67,-5.28 1.9,-10.46 3.12,-16.89 4.28,0.86 8.54,0.49 11.11,2.41 20.48,15.54 45.25,21.01 68.48,30.24 19.26,7.58 37,4.69 53.6,-7.58 10.82,-7.88 22.01,-15.26 36.63,-25.35 2.75,14.11 4.26,23.61 6.44,33.03 5.41,23.03 10.54,46.26 16.98,69 8.92,30.92 30.46,46.75 61.76,48.96 11.37,0.76 22.76,0.47 34.15,1.06 17.26,0.86 21.25,3.46 24.37,20.92 5.89,32.35 18.31,61.63 36.63,88.5 31.58,46.07 79.11,54.04 124.08,21.21 10.53,-7.58 20.97,-15.35 32.25,-21.41 6.07,-3.26 16.14,-6.43 20.41,-3.64 8.82,5.85 2.47,15.64 -0.94,22.74 -5.32,10.94 -12.06,21.31 -18.97,31.29 -10.44,15.17 -21.44,29.76 -32.36,44.54 -13.08,17.75 -19.92,37.53 -20.01,59.89zm504.42 -81.02c-18.88,9.99 -37.86,9.69 -56.44,-0.86 -7.31,-4.12 -14.24,-8.92 -21.64,-12.67 -11.57,-5.76 -23.04,-6.63 -34.43,1.44 -23.72,16.69 -47.82,12.57 -70.11,-2.11 -18.21,-12.1 -33.78,-27.65 -37.67,-51.93 17.28,-7.39 29.32,1.44 41.93,7.68 12.82,6.43 25.43,13.33 38.8,18.43 15.18,5.85 29.22,1.25 43.36,-6.53 23.63,-13.06 28.46,-11.51 46.86,8.44 20.96,22.65 56.74,22.07 78.26,-1.35 3.04,-3.26 5.97,-7 7.97,-11.13 12.43,-25.15 15.36,-25.64 47.8,-20.93 3.81,0.58 7.41,1.82 11.11,2.5 30.54,5.75 32.72,5.28 44.11,-24.1 5.13,-13.15 13.57,-19.29 27.42,-21.59 7.58,-33.21 -9.31,-65.36 -3.32,-102.41 16.69,13.72 28.08,26.96 35.09,42.99 7.11,16.22 6.64,32.93 -3.59,48.37 -2.94,4.42 -5.6,9.13 -8.83,13.35 -16.4,21.99 -32.72,44.06 -49.71,65.65 -6.07,7.78 -13.94,14.02 -21.06,20.92 -11.86,11.63 -23.92,17 -40.52,7.21 -15.56,-9.22 -32.35,-6.06 -47.82,2.48 -9.39,5.2 -18.21,11.24 -27.59,16.13zm-35.3 265.31c-25.9,57.97 -41.83,70.15 -101.98,65.46 -26.65,-2.11 -48.29,-9.79 -66.03,-30.14 -13,-15.07 -29.5,-21.21 -50.08,-22.46 -23.82,-1.54 -48.02,-7.11 -70.87,-14.5 -19.17,-6.33 -37.75,-9.89 -57.78,-8.44 -15.08,1.06 -30.35,1.35 -45.43,-0.09 -15.94,-1.54 -28.56,-8.93 -31.88,-27.25 9.76,-10.47 20.29,-5.86 30.26,-4.04 13.38,2.5 26.65,5.86 40.03,7.87 18.21,2.78 30.54,-4.9 37.67,-22.26 3.32,-8.17 8.35,-15.65 12.9,-24.1 14.04,5.18 18.97,15.74 24.37,25.53 3.7,6.72 6.46,13.82 9.58,20.83 14.52,32.63 50.38,37.14 72.1,8.64 7.4,-9.69 12.63,-20.93 19.26,-31.19 2.75,-4.22 6.64,-7.68 12.33,-14.11 5.87,20.54 10.8,38.01 16.03,55.47 10.15,33.98 20.48,42.14 52.85,42.04 31.96,-0.1 49.81,-13.24 58.43,-43.76 2.75,-9.5 3.42,-19.68 6.27,-29.18 3.41,-11.71 11,-13.44 20.58,-5.76 15.37,12.39 19.74,27.93 13.09,47.24 -0.47,1.43 -1.04,2.87 -1.71,4.22zm1034.35 -372.79c-28.56,-22.85 -61.76,-21.32 -86.61,5.46 -4.08,4.42 -7.2,9.89 -11.67,14.02 -9.78,9.22 -19.17,7.78 -26.37,-3.54 -1.24,-1.83 -2.67,-3.94 -3.04,-6.15 -4.08,-24.08 -20.58,-26.1 -40.59,-25.63 -18.8,0.49 -37.57,-2.01 -56.36,-3.54 -2.46,-0.2 -4.74,-2.41 -7.11,-3.65 0.09,-1.06 0.19,-2.11 0.37,-3.26 10.92,-0.86 21.72,-1.92 32.64,-2.69 11.57,-0.86 21.15,-3.93 29.89,-13.53 14.22,-15.64 38.32,-11.91 50.56,5.96 0.86,1.24 1.53,2.68 2.37,3.93 14.04,21.99 15.18,21.5 36.33,7.2 14.33,-9.6 30.26,-16.7 45.72,-24.47 3.14,-1.54 7.6,-1.82 11.02,-0.96 20.39,4.61 38.61,13.63 52.36,30.04 3.71,4.42 6.26,10.65 7.4,16.42 1.81,8.92 -3.79,16.03 -12.53,14.58 -8.53,-1.44 -17.74,-4.79 -24.37,-10.17zm-1364.21 -261.94c-10.91,37.15 -37.47,44.54 -71.15,40.03 -18.02,-2.41 -36.04,-4.42 -54.17,-6.33 -17.83,-2.01 -34.72,-0.86 -48.57,13.15 -3.04,3.07 -7.6,5.57 -11.76,6.53 -45.44,10.46 -88.99,9.21 -127.22,-22.18 -4.07,-3.36 -8.62,-7.1 -10.72,-11.71 -2.18,-4.89 -4.26,-12.86 -1.89,-16.13 2.75,-3.74 11.38,-6.24 15.83,-4.69 8.26,2.87 16.71,7.86 22.78,14.19 15.75,16.42 34.33,22.56 55.78,17.76 22.86,-5.08 46.11,-9.69 67.64,-18.43 26.47,-10.65 52.18,-13.92 79.79,-6.63 25.89,6.82 28.93,4.81 40.5,-19.29 1.06,-2.11 1.91,-4.22 2.94,-6.24 13.76,-27.36 31.88,-34.46 59.86,-23.51 10.35,4.03 19.54,11.8 32.17,5.85 17.17,-8.06 36.33,-13.92 45.43,-32.25 5.69,-11.41 14.33,-16.89 24.58,-22.26 12.14,-6.33 23.43,-14.01 35,-21.4 7.01,-4.42 13.47,-9.98 20.78,-13.82 14.71,-7.78 21.25,-6.15 31.5,6.72 3.8,4.7 6.54,10.46 10.71,14.78 12.15,12.47 23.92,25.82 37.57,36.47 25.81,20.15 55.13,24.76 85.86,13.15 15.56,-5.76 30.93,-12.58 45.62,-20.44 35.49,-18.92 58.07,-48.28 67.46,-88.02 4.56,-19.21 9.86,-38.11 14.89,-57.11 2.18,-0.1 4.46,-0.1 6.74,-0.1 9.58,20.82 12.15,42.91 8.74,65.93 -13.94,94.17 -90.89,152.71 -187.65,143.79 -31.21,-2.89 -58.06,-12.76 -81.5,-35.43 -32.92,-31.86 -78.74,-28.97 -108.24,6.53 -13.85,16.61 -29.03,22.94 -49.24,21.69 -10.63,-0.57 -21.25,0 -31.87,0.29 -13.38,0.29 -24.2,5.67 -28.18,19.1zm-556.21 -77.17c0.47,3.85 1.33,7.59 1.71,11.33 4.08,38.68 -21.72,68.14 -63,69.1 -2.08,-0.29 -6.72,-0.29 -10.91,-1.72 -9.01,-3.26 -10.91,-9.89 -5.5,-17.96 1.61,-2.49 3.89,-4.6 6.07,-6.71 19.25,-17.85 29.79,-40.42 32.35,-66.42 2.75,-27.83 16.7,-46.56 41.75,-57.69 23.51,-10.46 46.57,-21.88 70.19,-32.06 15.75,-6.72 23.33,-4.99 28.08,3.85 5.03,9.4 3.04,21.78 -8.54,30.22 -13.28,9.79 -28.26,17.37 -42.97,24.86 -10.82,5.47 -22.58,8.74 -33.49,14.01 -14.51,7.02 -17.46,13.25 -15.75,29.18zm1925.92 -124.39c-22.67,-0.1 -45.44,-1.15 -68.11,-3.07 -18.59,-1.64 -37.57,-3.94 -53.89,-19.1 8.25,-11.53 18.79,-11.33 28.08,-10.57 12.71,0.97 25.51,3.26 37.85,6.72 35.19,9.89 70.58,12 105.11,-0.67 31.41,-11.53 59.39,-5.28 86.81,10.85 3.33,1.92 6.74,3.54 9.87,5.75 19.44,14.21 38.99,15.17 58.72,0.49 3.69,-2.7 7.78,-4.71 11.94,-6.72 29.42,-13.91 59.49,-9.69 80.46,15.56 18.4,22.17 38.42,29.46 66.03,22.26 13.57,-3.56 28.65,-2.31 42.97,-1.54 11.1,0.48 22.29,3.17 31.4,15.85 -6.46,4.32 -11.29,9.02 -17.17,11.13 -37.47,13.25 -74.57,17.94 -112.14,-1.82 -32.25,-17.08 -66.13,-21.03 -100.56,-4.32 -7.4,3.65 -15.75,5.47 -23.53,8.35 -16.89,6.14 -32.54,4.32 -47.35,-6.43 -40.69,-29.85 -86.61,-42.51 -136.51,-42.7zm-246.56 -77.65c-6.74,7.39 -9.49,11.61 -13.3,14.3 -27.22,19.49 -58.25,28.6 -90.97,33.02 -20.21,2.69 -40.42,4.61 -57.31,19.1 -5.4,4.61 -15.75,4.32 -23.81,4.51 -15.08,0.29 -30.26,-1.06 -45.44,-1.25 -18.5,-0.2 -35.57,4.32 -52.28,13.15 -27.7,14.49 -57.02,14.11 -85.94,3.46 -10.72,-3.94 -20.4,-10.18 -22.02,-22.18 20.21,-6.43 39.47,-12.47 58.72,-18.61 13.76,-4.32 27.42,-8.64 41.18,-13.06 20.58,-6.72 40.32,-4.61 59.09,6.33 2.65,1.54 5.41,2.7 8.25,3.83 23.72,10.08 33.97,6.92 47.54,-14.87 4.46,-7.1 7.78,-15.07 13.18,-21.41 6.07,-7.19 13.75,-12.96 22.76,-21.11 9.31,21.02 23.63,22.65 40.71,20.54 24.08,-2.99 48.38,-4.04 72.57,-5.67 7.31,-0.48 14.61,-0.09 27.04,-0.09zm3461.64 -1129.13c-18.7,4.71 -5604.06,5.28 -5626.63,0.47l0 -1905.52 5626.63 0 0 1905.04zm920.01 7393.19l0 -14 77.17 0 0 11.33c-7.58,8.08 -15.14,18.83 -22.58,32.25 -7.47,13.41 -13.22,27.22 -17.31,41.41 -2.92,9.97 -4.8,20.94 -5.61,32.83l-15 0c0.17,-9.39 2,-20.75 5.53,-34.06 3.53,-13.33 8.56,-26.17 15.14,-38.53 6.58,-12.36 13.58,-22.78 21,-31.25l-58.33 0z"/>
 </g>
</svg>
