<?xml version="1.0" encoding="UTF-8"?>
<!DOCTYPE svg PUBLIC "-//W3C//DTD SVG 1.1//EN" "http://www.w3.org/Graphics/SVG/1.1/DTD/svg11.dtd">
<!-- Creator: CorelDRAW 2018 (64-Bit) -->
<svg xmlns="http://www.w3.org/2000/svg" xml:space="preserve" width="8.26772in" height="11.6929in" version="1.1" style="shape-rendering:geometricPrecision; text-rendering:geometricPrecision; image-rendering:optimizeQuality; fill-rule:evenodd; clip-rule:evenodd"
viewBox="0 0 8267.72 11692.91"
 xmlns:xlink="http://www.w3.org/1999/xlink">
 <defs>
  <style type="text/css">
   <![CDATA[
    .fil0 {fill:#2B2926}
   ]]>
  </style>
 </defs>
 <g id="Layer_x0020_1">
  <metadata id="CorelCorpID_0Corel-Layer"/>
  <path class="fil0" d="M4042.56 6485.06c-41.78,39.57 -44.56,40.02 -95.14,15.79 -41.53,-19.87 -84.1,-35.24 -131.31,-27.68 -7.47,1.19 -15.1,2.06 -22.26,4.3 -18.87,5.93 -36.5,2.79 -51.74,-8.82 -30.06,-22.9 -63.46,-29.72 -100.51,-28.26 -27.04,1.06 -54.5,-1.21 -81.35,-5.08 -20.91,-3.03 -27.48,-10.17 -39.09,-28.26 3.11,-13.03 15.26,-14.65 24.75,-16.29 26.79,-4.61 53.94,-9.76 80.96,-9.83 45.35,-0.1 90.71,3.72 136.07,5.6 15.91,0.67 31.85,0.76 47.76,0.57 46.22,-0.57 92.52,0 138.64,-2.51 59.64,-3.24 119.22,-8.31 178.68,-14.24 14.63,-1.44 28.88,-8.64 42.81,-14.4 5.74,-2.36 10.18,-7.93 19.13,-15.24 -63.13,-20.02 -120.42,-42.17 -177.96,-63.61 -0.06,-1.93 -0.09,-3.85 -0.15,-5.76 7.26,-2.15 14.4,-5.19 21.82,-6.3 32.17,-4.86 64.44,-8.99 96.64,-13.75 10.46,-1.54 21,-3.39 31.06,-6.54 13.21,-4.13 15.61,-10.63 8.02,-22.29 -7.49,-11.49 -16.61,-21.88 -24.67,-33 -4.32,-5.97 -7.92,-12.49 -13.72,-21.76 9.79,-3.46 17.01,-7.61 24.57,-8.39 28.59,-2.94 57.24,-5.86 85.92,-6.79 35.54,-1.13 71.13,-0.26 108.64,-0.26 1.91,10.12 3.93,18.83 5.15,27.64 2.31,16.53 4.92,19.68 20.93,20.54 6.72,0.36 13.54,-1.02 20.32,-1.59 107.04,-8.87 213.35,-5.03 318.18,20.39 17.51,4.24 34.25,11.82 51.28,18.03 3.56,1.29 6.86,3.31 9.02,6.87 -18.52,9.09 -35.74,5.94 -52.58,5.54 -35.54,-0.83 -71.24,-5.08 -106.56,-2.92 -22.81,1.41 -46.21,9.2 -67.18,18.92 -14.74,6.82 -28.63,12.32 -44.68,13.83 -18.47,1.72 -32.52,10.62 -39.28,30.18 13.96,11.89 30.61,8.3 45.78,10.74 20.87,3.36 41.98,5.56 62.57,10.22 21.72,4.94 40.78,15.42 56.36,32.54 24.47,26.91 57.92,26.68 90.53,28.74 16.54,1.04 33.11,2.75 49.46,5.39 7.62,1.24 14.76,5.39 22.12,8.21 -0.48,1.81 -0.98,3.61 -1.47,5.41 -15.87,6.64 -32.25,5.85 -48.97,3.83 -32.25,-3.9 -64.52,-8.71 -96.91,-9.96 -14.35,-0.56 -30.08,4.33 -43.18,10.86 -14.75,7.35 -28.71,8.97 -43.8,5.11 -8.79,-2.25 -17.7,-4.86 -25.79,-8.87 -33.93,-16.78 -68.71,-20.28 -105.97,-13.11 -45.33,8.72 -91.54,13.2 -132.93,36.33 -2.64,1.48 -5.58,2.51 -8.04,4.26 -27.47,19.52 -54.42,21.26 -87.28,9.07 -57.51,-21.33 -110.06,-5.59 -154.61,36.62zm-773.4 -63.11c79.86,-0.03 149.29,29.21 210.32,80.02 11.82,9.85 25.3,13.35 39.46,16.25 11.11,2.29 22.46,3.78 33.35,6.87 7.43,2.1 14.26,6.38 21.35,9.68 -0.28,1.96 -0.57,3.92 -0.85,5.88 -8.48,1.5 -16.93,3.85 -25.47,4.33 -37.8,2.11 -73.72,-5.18 -107.85,-22.19 -40.97,-20.4 -84.09,-35.61 -128.74,-44.39 -69.76,-13.74 -138.51,-9.35 -204.71,19.87 -15.9,7.02 -32.72,11.97 -49.17,17.74 -36.37,12.75 -72.76,9.41 -109.54,1.22 -19.81,-4.41 -40.14,-7.04 -60.38,-8.67 -20.47,-1.62 -20.54,-0.65 -27.58,-20.15 -7.07,-19.6 -7.08,-20.04 -27.03,-19.7 -17.37,0.29 -34.72,2.33 -52.08,2.44 -7.67,0.06 -15.35,-2.76 -24.06,-4.5 4.82,-18.06 15.96,-25.37 29.35,-29.48 55.54,-17.1 111.35,-21.89 167.5,-2.56 14.32,4.93 28.56,10.33 43.21,14 8.58,2.15 18.19,2.96 26.79,1.36 11.35,-2.11 9.08,-14.4 12.54,-22.42 0.85,-1.97 2.93,-3.39 6.32,-7.11 13.96,7.9 28.29,15.99 42.59,24.15 7.15,4.1 14.31,10.63 22.09,1.68 6.68,-7.68 4.74,-16.4 -0.8,-23.18 -10.57,-12.94 -22.3,-24.89 -33.47,-37.33 -7,-7.79 -16.14,-14.32 -16.06,-27.78 19.53,-10.41 38.38,-2.5 56.11,4.43 14.67,5.74 28.39,14.61 41.41,23.74 34.83,24.4 73.07,35.81 115.38,35.79zm-654.99 7.97c6.26,14.04 -5.97,23.06 -15.5,29.82 -65.28,46.36 -135.14,80.6 -216.46,87.72 -33.11,2.9 -64.63,-1.43 -96.57,-7.67 -11.8,-2.3 -24,-3.71 -36.01,-3.67 -48.49,0.13 -96.96,1.26 -145.44,1.35 -13.18,0.02 -26.36,-2.37 -42.53,-3.94 11.57,-19.71 27.39,-27.22 42.92,-34.44 47.5,-22.07 95.7,-16.68 144.37,-3.65 22.5,6.01 45.54,11.29 68.65,13.47 43.36,4.06 83.89,-10.26 123.3,-26.09 30.87,-12.39 60.28,-28.47 90.61,-42.32 16.46,-7.51 33.07,-15.26 50.39,-20.04 11.21,-3.08 26.28,-3.99 32.26,9.46zm-871.43 -22.94c42.35,11.81 84.86,22.15 129.14,24.68 31.07,1.78 61.61,8.76 88.08,27.03 8.42,5.82 21.2,11.4 16.92,24.08 -3.85,11.35 -16.57,12.42 -27.36,11.56 -46.7,-3.74 -93.46,-7.15 -140.04,-12.17 -63.9,-6.89 -127.74,-14.53 -191.44,-23.06 -25.43,-3.4 -50.29,-10.99 -75.67,-14.97 -26.83,-4.22 -53.91,-8.32 -80.96,-9.14 -48.51,-1.46 -97.08,0 -145.63,-0.61 -20.37,-0.25 -40.76,-2.31 -61.07,-4.27 -7.79,-0.75 -15.39,-3.48 -23.07,-5.32 -0.32,-1.8 -0.64,-3.61 -0.96,-5.41 7.26,-4.68 14.14,-10.14 21.83,-13.89 56.5,-27.53 116.22,-45.1 178.26,-52.18 50.3,-5.74 101.09,-7.35 151.7,-9.67 49.92,-2.31 99.92,-2.75 149.83,-5.04 11.79,-0.54 23.78,-4.15 35.03,-8.21 46.51,-16.81 93.91,-30.24 142.97,-35.94 32.28,-3.75 65.07,-2.86 97.33,-6.61 44.72,-5.21 87.22,1.69 129.43,16.24 28.03,9.67 57.2,13.43 87.17,12.14 17.63,-0.76 33.92,-5.06 45.69,-17.21 32.47,-33.5 71.47,-35.85 111.58,-23.17 66.46,21 132.1,44.71 197.75,68.24 10.6,3.79 22.89,8.56 27.61,25.47 -7.56,0.97 -12.69,2.57 -17.65,2.11 -26.5,-2.48 -51.06,5.24 -75.21,14.42 -49.56,18.83 -101.09,26.54 -153.59,26.97 -58.36,0.47 -116.75,-0.58 -175.11,-1.74 -15.03,-0.31 -30.35,-2 -44.92,-5.58 -44.94,-11.07 -90.14,-19.18 -136.41,-22.65 -23.91,-1.81 -48.06,-7.53 -70.91,-15.11 -43.28,-14.39 -86.46,-13.13 -130.1,-4.61 -19.29,3.76 -38.53,8.17 -57.43,13.56 -9.76,2.79 -18.75,8.4 -28.08,12.72 -0.07,1.83 -0.12,3.65 -0.19,5.48 8.47,4.03 16.58,9.38 25.47,11.86zm-1545.89 -5665.53l0 10209.36c9.1,0.22 18.19,0.63 27.29,0.63 2604.68,0.03 5209.36,0.03 7814.06,0.03l30.6 0c0.78,-7.46 1.68,-13.31 1.92,-19.17 0.3,-7.67 0.08,-15.36 0.08,-23.04 0,-3376.99 0,-6753.99 -0.03,-10130.99 0,-12.28 -0.4,-24.56 -0.63,-36.82l-7873.29 0zm4269.63 5815.47c1.89,0.94 3.15,3.18 6.89,7.19 -6.14,6.1 -11.68,12.77 -18.35,17.96 -16.2,12.6 -33.4,23.94 -49.29,36.94 -7.44,6.09 -13.97,14.13 -18.79,22.53 -6.62,11.6 -3.28,18.61 10,21.64 13.99,3.2 28.38,4.56 42.56,6.9 47.06,7.83 94.15,15.43 141.13,23.83 10.72,1.92 20.94,6.68 31.39,10.13 0.31,1.85 0.6,3.71 0.9,5.56 -5.85,3.79 -11.28,8.63 -17.61,11.21 -43.89,17.9 -88.85,29.11 -136.94,27.39 -63.6,-2.31 -127.28,-2.72 -190.93,-2.85 -14.88,-0.03 -30.25,2.8 -44.43,7.41 -7.41,2.4 -15.76,10.48 -18.19,17.86 -3.22,9.78 6.44,16.1 14.21,21.13 23.1,14.97 49.61,17.83 75.85,21.57 27.71,3.96 55.39,8.29 83.19,11.43 39.07,4.41 78.24,7.94 117.39,11.64 17.94,1.69 35.93,2.9 56.44,4.54 -13.67,8.76 -14.61,9.28 -32.51,9.94 -70.35,2.61 -140.74,4.33 -211.04,7.83 -47.97,2.39 -94.75,11.44 -136.86,36.86 -23,13.89 -48.76,16.35 -74.32,17.82 -45.33,2.59 -90.78,4.51 -136.18,4.57 -33.07,0.06 -64.71,5.49 -95.86,15.9 -20.91,6.99 -41.53,13.75 -64.17,4.53 -6.68,-2.72 -16.37,0.57 -24.26,2.7 -32.14,8.71 -63.98,18.6 -96.25,26.82 -9.61,2.44 -20.74,6.67 -32.06,-3.75 5.82,-8.93 11.75,-18.07 19.53,-30 -9.56,-4.04 -17.18,-8.85 -25.41,-10.4 -19.29,-3.63 -38.91,-5.52 -58.35,-8.46 -15.26,-2.32 -31.21,-2.46 -46.39,-12.15 10.25,-11.25 22.43,-12.25 34.15,-13.64 54.08,-6.44 108.15,-13.19 162.33,-18.62 44.64,-4.49 84.82,-22.24 124.86,-40.42 17.22,-7.82 33.59,-17.67 49.93,-27.31 5.56,-3.26 9.83,-8.74 14.69,-13.19 -0.61,-1.93 -1.24,-3.85 -1.85,-5.76 -45.33,-8.5 -91.35,-6.46 -137.22,-7.06 -45.24,-0.59 -90.47,-1.76 -137.07,-6.35 4.56,-2.61 8.85,-6.06 13.72,-7.72 68.3,-23.43 137.32,-43.9 210.29,-44.13 40.8,-0.13 81.61,1.21 122.4,1.9 34.81,0.6 69.96,3.92 102.58,-12.97 4.71,-2.44 9.61,-4.67 13.85,-7.81 8.13,-6.04 9.64,-13.29 2.43,-21.43 -7.59,-8.54 -15.99,-16.54 -22.31,-25.96 -17.61,-26.24 -10.79,-50.35 18.67,-59.58 74.5,-23.37 149.59,-45.33 227.54,-53.21 39.43,-3.98 78.6,2.32 117.04,12.06 4.37,1.1 8.62,2.94 12.67,4.97zm-1643.57 -11.24c35.64,42.86 78.37,65.99 132.26,67.39 32.2,0.83 63,-5.24 94.03,-13.26 33.64,-8.7 68.04,-14.43 102.24,-20.79 8.02,-1.49 16.52,-0.22 26.08,-0.22 -0.36,4.78 -1.37,8.54 -0.74,12 1.52,8.33 6.06,12.47 14.26,7.15 5.07,-3.29 9.97,-7.06 14.3,-11.28 27.47,-26.82 70.78,-19.28 93.48,-7.07 5,2.69 8.81,7.64 16.63,14.65 -13.56,4.9 -23.96,8.01 -33.75,12.5 -5.71,2.61 -13.51,6.54 -14.93,11.47 -2.53,8.85 6.18,12.89 13.18,15.97 9.69,4.28 19.65,7.91 29.44,12 9.15,3.83 17.85,8.24 19.96,22.21 -5.58,0.68 -10.26,1.75 -14.92,1.61 -2.86,-0.1 -5.93,-1.61 -8.44,-3.22 -52.06,-33.4 -111.29,-30.83 -169.18,-33.51 -12.88,-0.6 -27.53,3.32 -38.85,9.71 -26.43,14.92 -54.79,16.93 -83.5,16.92 -22.62,0 -45.24,-3.15 -67.87,-4.03 -36.31,-1.41 -72.65,-1.78 -108.96,-3.18 -12.03,-0.47 -24.28,-1.57 -35.88,-4.59 -7.61,-1.97 -15.85,-6.41 -20.97,-12.28 -29.37,-33.58 -67.79,-50.49 -109.06,-62.21 -22.28,-6.33 -45.98,-8.02 -66.08,-24.35 72.99,-1.21 145.96,-2.42 217.26,-3.6zm115.47 -255.43c4.71,6.57 9.6,12.09 12.93,18.44 2.64,5.04 6.37,13.32 4.29,16.18 -3.28,4.51 -11.15,8.04 -16.88,7.76 -11.17,-0.57 -22.36,-3.44 -33.21,-6.53 -9.43,-2.68 -18.87,-6.07 -27.5,-10.69 -40.19,-21.5 -82.54,-21.94 -126.17,-15.58 -22.21,3.24 -45.11,7.32 -67.36,-5.9 1.26,-18.5 18.56,-24.65 27.99,-38.13 -3.13,-13.17 -11.72,-17.65 -25.89,-17.9 -38.6,-0.7 -77.19,-2.31 -115.72,-4.7 -17.99,-1.11 -35.2,-6.83 -51.92,-18.48 11.14,-3.35 22.26,-6.7 33.36,-10.03 -9.28,-33.63 -27.5,-48.41 -59.92,-49.42 -6.07,-0.2 -12.14,-0.96 -18.17,-0.72 -17.74,0.71 -31.67,-5.44 -43.96,-19.08 -14.99,-16.65 -34.68,-23.26 -57.46,-21.98 -30.78,1.72 -59.61,5.56 -83.35,29.47 -17.57,17.69 -32.59,16 -48.14,-4.29 -21.6,-28.21 -48.71,-39.18 -83.35,-36.09 -17.92,1.61 -32.32,6.81 -41.57,23.21 -1.79,3.17 -4.75,5.65 -8.13,9.56 -29.94,-57.44 -74.35,-61.26 -127.15,-34.36 -0.59,-1.61 -1.18,-3.21 -1.76,-4.81 6.96,-8.3 13.57,-16.93 20.93,-24.83 22.06,-23.67 22.97,-48.54 -0.94,-70.3 -39.5,-35.93 -85.21,-60.89 -137.82,-71.52 -30.99,-6.25 -58.61,0.13 -81.86,22.86 -5.37,5.25 -11.65,9.58 -17.35,14.21 -26.57,-27.83 -57.32,-46.76 -92.78,-57.08 -27.64,-8.03 -55.15,-8.08 -81.86,5.74 -11.39,5.9 -23.78,10.29 -36.15,13.68 -16.57,4.54 -30.53,11.76 -42.02,25.39 -12.75,15.13 -21.41,13.31 -31.04,-3.59 -4.13,-7.26 -8.13,-14.83 -13.54,-21.07 -15.15,-17.47 -30.79,-19.98 -50.58,-8.11 -7.74,4.64 -15.6,10.14 -21.26,17.04 -17.15,20.89 -38.54,22.09 -61.89,15.5 -13.11,-3.69 -26.22,-7.67 -38.86,-12.72 -44.06,-17.64 -89.11,-17.57 -134.03,-6.18 -44.46,11.26 -89.47,15.17 -134.97,15.56 -47.04,0.41 -94.1,0.46 -141.15,0 -56.07,-0.57 -112.15,-1.48 -168.21,-2.94 -35.11,-0.9 -40.43,-5.35 -44.42,-40.78 -3.85,-34.13 -7.54,-68.52 -7.6,-102.79 -0.97,-547.42 -1.71,-1094.83 -1.74,-1642.25 -0.03,-480.59 0.65,-961.18 1.5,-1441.76 0.52,-293.96 1.64,-587.93 3.2,-881.89 0.32,-59.72 2.01,-119.56 6.39,-179.09 4.53,-61.75 12.07,-123.24 30.4,-182.96 29.18,-95.11 91.17,-156.65 183.15,-189.46 67.71,-24.14 137.89,-36.81 208.86,-42.7 86.72,-7.19 173.76,-12.11 260.75,-14.07 147.83,-3.32 295.74,-4 443.61,-4.99 185.11,-1.24 370.24,-1.68 555.35,-2.46 185.11,-0.76 370.22,-1.49 555.35,-2.26 184.36,-0.76 368.72,-1.57 553.09,-2.33 185.11,-0.78 370.24,-1.5 555.36,-2.26 184.35,-0.78 368.71,-1.58 553.07,-2.35 185.11,-0.76 370.24,-1.5 555.35,-2.26 185.87,-0.78 371.75,-1.56 557.64,-2.35 174.49,-0.75 348.97,-1.54 523.46,-2.25 201.06,-0.82 402.13,-3 603.17,-1.83 125.65,0.74 251.47,3.65 376.36,20.5 60.93,8.22 120.76,21 178.14,44.79 85.61,35.48 137.61,100.08 163.29,188.15 13.32,45.64 20.25,92.56 24.56,139.91 10.43,114.7 9.11,229.7 9,344.67 -0.04,42.96 -1.07,85.93 -1.4,128.9 -1.08,141.17 -2.06,282.33 -3.07,423.5 -0.51,72.14 -0.91,144.28 -1.53,216.42 -0.94,111.98 -2,223.97 -3.03,335.96 -0.48,52.96 -1.07,105.91 -1.5,158.86 -1.04,130.43 -2.03,260.85 -3.06,391.28 -0.47,59.08 -1.01,118.17 -1.5,177.26 -1.03,125.04 -2.04,250.07 -3.04,375.11 -0.53,65.24 -0.99,130.46 -1.53,195.69 -0.99,118.14 -2.09,236.28 -3.02,354.43 -0.61,79.06 -0.89,158.11 -1.56,237.17 -0.89,105.08 -1.97,210.15 -3.04,315.24 -0.4,39.89 -0.98,79.78 -1.48,119.67 -1.53,121.18 -1.35,242.42 -5.18,363.52 -2.4,76.35 -10.04,152.56 -16.94,228.68 -2.13,23.43 -8.48,46.65 -14.76,69.44 -14.97,54.35 -49.29,88.14 -106.29,91.11 -45.31,2.36 -90.85,0.61 -136.29,-0.03 -22.68,-0.31 -45.32,-2.47 -68,-3.32 -48.44,-1.8 -96.89,-3.03 -145.32,-5 -52.17,-2.11 -104.32,-4.9 -156.47,-7.19 -19.68,-0.86 -39.39,-1.14 -59.08,-1.76 -49.21,-1.57 -98.43,-2.86 -147.63,-4.89 -49.89,-2.04 -99.75,-4.94 -149.63,-7.24 -19.69,-0.9 -39.4,-1.11 -59.09,-1.74 -48.44,-1.56 -96.91,-2.86 -145.33,-4.83 -65.03,-2.65 -130.04,-5.92 -195.06,-8.78 -40.85,-1.79 -81.72,-3.11 -122.57,-5 -49.13,-2.26 -98.24,-5 -147.36,-7.32 -48.4,-2.29 -96.87,-3.48 -145.21,-6.67 -67.91,-4.47 -135.86,-9.15 -203.58,-15.93 -82.04,-8.24 -163.86,-18.76 -245.79,-28.26 -63.87,-7.42 -127.65,-15.93 -191.67,-21.83 -59.52,-5.49 -119.26,-8.17 -178.9,-12.09 -13.59,-0.9 -27.15,-2.36 -40.74,-2.54 -55.31,-0.74 -110.71,-0.22 -164.93,12.18 -56.3,12.86 -77.32,39.04 -82.14,97.11 -1.32,15.9 -3.4,31.75 -5.49,50.89 -17.19,-8.91 -19.51,-23.24 -20.09,-34.91 -1.56,-30.86 -20.11,-45.5 -44.49,-58.11 -35.29,-18.24 -72.39,-22.24 -110.53,-16.64 -13.71,2.01 -26.57,9.96 -40.9,15.63 0.25,0.14 -1.56,-0.25 -2.29,-1.35 -27.25,-41.03 -69.11,-49.01 -113.4,-51.2 -11.33,-0.56 -22.75,-0.09 -34.11,0.5 -30.17,1.57 -55.21,14.3 -76.37,35.9 -12.81,13.06 -27.14,24.64 -39.43,38.14 -16.74,18.4 -34.92,25.1 -58.78,14.87 -14,-6.01 -29.08,-7.09 -44.36,-2.9 -11.85,3.25 -18.26,9.96 -18.47,22.64 -0.14,8.42 -0.65,16.85 -1.41,25.24 -0.82,9.32 -5.92,13.06 -15.35,12.53 -14.35,-0.8 -28.79,-1.37 -43.14,-0.69 -15.56,0.72 -27.17,7.82 -32.6,23.92 -2.57,7.63 -7.37,14.46 -12.1,23.43 -17.68,-17.33 -37.11,-24.56 -58.28,-27.92 -14.32,-2.26 -26.78,0.5 -37.82,10.67 -9.44,8.68 -19.81,16.36 -30.96,25.46 -5.78,-7.28 -10.22,-14.1 -15.86,-19.68 -9.59,-9.53 -16.24,-9.96 -25.75,-3.19 -27.89,19.8 -56.24,12.13 -70.1,-19.03 -1.24,-2.79 -2.42,-5.7 -3.08,-8.67 -10.33,-45.69 -44.18,-66.79 -84.4,-77.89 -46,-12.7 -91.64,-7.46 -135.24,12.85 -11.68,5.43 -23.11,11.54 -35.07,16.26 -16.43,6.5 -21.46,4.81 -28.44,-11.49 -9.68,-22.57 -24.62,-40.18 -44.37,-54.06 -24.51,-17.24 -50.21,-19.98 -77.29,-6.72 -3.42,1.67 -7.13,2.94 -10.13,5.19 -13.59,10.2 -25.09,6.68 -36.08,-4.58 -18.19,-18.68 -40.68,-29.67 -66,-33.31 -11.54,-1.67 -24.28,-1.15 -35.43,2.07 -15.88,4.58 -31.11,11.9 -45.99,19.35 -8,3.99 -16.74,9.24 -21.57,16.39 -16.76,24.82 -39.52,41.5 -65.31,55.11 -11.93,6.29 -16.75,15.91 -12.89,30.41 7.33,27.56 -1.14,49.22 -25.29,65.28 -8.82,5.86 -20.64,11.49 -18.79,28.52 7.56,0.37 15.46,0.85 23.36,1.14 17.92,0.67 32.5,6.33 39.85,24.79 2.53,6.32 6.53,12.17 10.58,17.68 9.61,13.03 22.02,20.36 38.83,19.83 11.6,-0.36 23.9,-2.14 35.36,6.62 -6.22,10.72 -15.44,13.5 -25.39,12.74 -19.58,-1.48 -39.1,-3.98 -58.64,-6.11 -10.3,-1.11 -20.76,-3.65 -32.67,4.83zm-1480.28 -175.14c79.68,-0.43 146.86,31.03 208.53,79 9.72,7.57 22.54,11.74 34.54,15.49 15.13,4.71 30.96,7.04 46.29,11.14 4.58,1.22 8.54,4.89 12.6,11.87 -9.86,1.86 -19.67,4.89 -29.6,5.36 -37.04,1.72 -72.12,-6.69 -105.5,-22.86 -48.76,-23.62 -99.68,-42.15 -153.21,-48.44 -55.82,-6.57 -111.9,-4.13 -165.22,18.67 -18.76,8.01 -38.31,14.13 -57.36,21.46 -39.19,15.11 -78.46,11.81 -118.28,2.28 -19.72,-4.71 -40.07,-8 -60.28,-8.92 -13.87,-0.64 -20.43,-5.76 -24.71,-18.33 -7.28,-21.37 -8.56,-21.07 -30.94,-19.68 -18.89,1.17 -37.89,0.9 -56.85,0.75 -4.21,-0.03 -8.4,-2.22 -13.08,-3.54 -1.67,-14.39 7.43,-21.29 17.04,-24.48 20.7,-6.87 41.87,-13.21 63.33,-16.76 44.2,-7.33 87.53,-1.96 129.63,13.74 11.33,4.24 22.89,8.07 34.61,11.04 20.53,5.2 24.74,2.41 31.02,-18.15 0.65,-2.14 1.68,-4.18 3.58,-8.83 24.5,1.24 39.37,20.44 59.36,28.36 15.67,-10.85 17.87,-15.14 8.5,-28.65 -8.61,-12.42 -20.18,-22.69 -30.18,-34.17 -7.83,-8.99 -15.24,-18.35 -23.82,-28.72 17.89,-10.93 33.94,-7.1 48.12,-1.74 18.24,6.91 36.39,15.72 52.24,27.07 36.15,25.9 76.32,37.29 119.64,37.07zm2487.61 929.14c38.01,-14.07 77.93,-18.93 117.87,-23.63 51.1,-6.02 102.64,-9.31 152.54,-23.36 10.94,-3.07 22.24,-5.59 32.47,-10.36 20.18,-9.42 40.43,-15.38 63.19,-15.64 11.93,-0.14 24.81,-6.94 35.46,-13.65 44.26,-27.9 91.78,-34 142.03,-24.23 7.36,1.41 15.1,3.33 21.43,7.12 41.51,24.81 87.57,27.33 133.9,29.64 55.15,2.75 110.64,2.09 165.04,13.82 12.69,2.72 26.36,3.68 38.93,14.26 -14.58,8.53 -27.79,9.48 -41.24,9.37 -69.78,-0.58 -139.6,-2.79 -209.33,-1.25 -61.98,1.36 -124.15,4.38 -185.75,11.25 -56.31,6.29 -111.96,18.74 -167.89,28.48 -65.72,11.47 -131.89,18.56 -198.5,21.44 -32.53,1.41 -65.01,3.52 -97.54,4.31 -10.97,0.26 -22.02,-2.57 -33.03,-4 -0.38,-2.6 -0.75,-5.21 -1.13,-7.82 10.48,-5.32 20.58,-11.71 31.53,-15.76zm-2171.44 -453.47c45.53,12.78 92.13,18.32 138.92,21.51 20.13,1.38 40.67,-2.69 60.96,-4.94 16.33,-1.79 32.53,-6.44 51.02,-1 -8.03,16.91 -20.02,27.71 -35.57,33.68 -14.1,5.41 -29.1,8.38 -43.46,13.15 -8.02,2.67 -18.38,2.39 -22.7,16.08 7.47,2.11 14.17,5.53 20.93,5.65 32.5,0.54 65.06,0.85 97.53,-0.22 10.26,-0.35 21.26,-3.52 30.36,-8.39 18.46,-9.89 37.21,-10.29 57.29,-8.28 35.39,3.54 70.92,6 106.46,7.46 8.19,0.33 18.01,-3.29 24.69,-8.35 23.06,-17.47 39.91,-18.64 63.79,-3.03 11.38,7.43 23.04,14.86 35.49,20.09 19.04,7.98 38.68,6.37 57.51,-1.85 15.31,-6.68 30.56,-13.56 45.42,-21.15 34.08,-17.43 70.04,-17.53 106.6,-12.68 3.63,0.48 7.42,1.97 10.47,3.98 9.85,6.52 9.3,16.15 -1.87,20.25 -29.91,10.93 -60.03,21.32 -90.29,31.21 -13.65,4.46 -28,6.75 -41.75,10.94 -5.81,1.76 -10.92,5.89 -16.33,8.93 0.32,1.98 0.64,3.97 0.96,5.94 6.9,1.24 13.82,3.68 20.69,3.51 41.64,-1 83.25,-3.06 124.9,-3.83 38.68,-0.72 77.41,-0.71 116.09,-0.17 17.79,0.25 33.8,6.26 47.69,18.59 38.47,34.09 84.25,53.48 133.08,66.98 15.36,4.24 33,6.56 42.6,27.06 -8.26,1.36 -14.63,3.42 -20.96,3.28 -24.19,-0.54 -48.46,-0.97 -72.54,-3.15 -10.28,-0.93 -20.02,-6.72 -30.26,-9.17 -20.46,-4.88 -40.93,-10.11 -61.7,-13.04 -18.41,-2.6 -34.61,2.58 -50.62,14.78 -11.08,8.43 -28.2,11.35 -42.81,11.99 -50.71,2.25 -101.5,2.58 -152.26,3.26 -8.83,0.13 -17.69,-1.56 -26.42,-2.4 0.11,-19.04 20.02,-29.71 14.64,-48.85 -14.07,-6.82 -28.8,-5.22 -42.42,-1.83 -29.04,7.25 -53.42,-1.31 -76.96,-17.61 -17.56,-12.17 -36.67,-20.96 -57.92,-25.52 -30.07,-6.46 -58.65,-2.87 -86.82,8.28 -11.28,4.46 -22.44,9.28 -33.92,13.14 -12.53,4.22 -24.54,2.5 -37.64,-1.03 -20.22,-5.44 -41.48,-8.76 -62.42,-9.43 -49.97,-1.58 -100.09,-2.4 -148.62,13.72 -5.02,1.67 -10.88,0.72 -19.38,1.14 13.32,-25.92 43,-28.53 55.33,-53.75 -11.61,-2.57 -21.54,-5.83 -31.67,-6.82 -38.41,-3.72 -76.82,-8.43 -115.32,-9.49 -37.02,-1.01 -74.04,0.82 -107.8,21.17 -10.54,6.36 -24.41,8.92 -36.98,9.67 -52.06,3.11 -98.47,22.85 -143.54,47.15 -24.06,12.97 -47.62,26.94 -72.11,39.03 -12.78,6.3 -26.79,10.85 -40.75,13.72 -13.54,2.78 -19.38,-3.24 -20.46,-17.48 -0.47,-6.1 -0.69,-12.38 0.15,-18.41 6.29,-44.93 16.89,-88.64 36.57,-129.78 10.17,-21.25 25.54,-35.86 48.59,-41.5 13.25,-3.24 26.38,-7.11 39.76,-9.65 38.97,-7.36 77.33,-16.18 111.06,-43.64 11.11,10.53 21.59,13.15 34.65,11.32 37.25,-5.24 74.11,-0.32 110.04,9.76zm1465.4 703.32c-13.98,9 -16.11,23.9 -3.19,34.35 10.35,8.39 23.4,13.74 35.86,18.97 20.22,8.53 41.09,15.47 61.36,23.92 6.42,2.68 11.75,8.01 20.04,13.86 -20.04,9.86 -37.33,9.19 -54.14,6.41 -39.56,-6.54 -79.07,-13.62 -118.33,-21.79 -50.21,-10.44 -100.86,-10.46 -151.64,-8.37 -60.49,2.49 -120.93,5.93 -181.43,8.22 -31.09,1.17 -59.61,-9.65 -86.74,-23.71 -17.74,-9.18 -19.3,-15.07 -13.93,-34.76 3.24,-11.86 0,-22.96 -11.26,-25.89 -16.96,-4.4 -25.06,-12 -21.25,-30.54 1.96,-9.57 -5.56,-14.83 -12.11,-20.44 -6.51,-5.56 -11.98,-12.35 -18.47,-19.19 18.67,-17.71 39.96,-17.85 59.72,-18.76 30.86,-1.44 62.08,-3.46 92.19,8.17 14.33,5.53 28.35,0.13 41.44,-6.57 20.43,-10.46 41.44,-18.67 64.67,-19.93 16.2,-0.89 30.57,1.88 45.17,10.91 13.08,8.08 29.07,13.44 44.35,15.4 32.22,4.11 64.85,5.11 97.29,7.58 8.29,0.63 16.71,1.22 24.76,3.11 11.19,2.64 21.71,6.93 27.26,18.54 6.58,13.75 18.69,19.43 32.61,22.28 14.85,3.04 29.75,5.78 44.53,9.14 7.83,1.78 15.44,4.57 23.56,11.09 -6.56,2.47 -13.19,4.75 -19.64,7.49 -7.68,3.25 -15.72,6.06 -22.68,10.53zm-573.64 152.67c40.32,-29.18 436.33,-37.33 504.29,-6.15 -9.26,4.3 -18.14,10.41 -27.87,12.54 -26.56,5.83 -53.36,10.72 -80.29,14.42 -9.38,1.28 -19.99,-0.36 -28.97,-3.64 -26.96,-9.81 -54.81,-11.02 -82.85,-11.13 -54.59,-0.21 -109.18,0.29 -163.76,-0.2 -33.3,-0.29 -66.56,-1.76 -99.82,-2.98 -6.68,-0.25 -13.3,-1.79 -20.72,-2.86zm747.26 -543.06c11.19,0.54 24.42,0.32 31.58,16.49 -7.26,0.97 -13.15,3.22 -18.48,2.25 -39.15,-7.06 -76.93,-0.63 -113.72,12.25 -20.37,7.11 -39.3,7.39 -59.43,-0.92 -32.54,-13.42 -65.61,-16.56 -99.15,-1.72 -8,3.54 -17.74,4.79 -26.57,4.42 -46.01,-1.97 -92,-4.59 -137.96,-7.54 -8.18,-0.53 -16.57,-2.71 -24.14,-5.89 -4.08,-1.72 -9.04,-7.06 -9.2,-10.94 -0.17,-3.92 4.46,-10.65 8.17,-11.65 14.46,-3.87 29.29,-7.07 44.17,-8.46 20.29,-1.92 40.76,-1.83 61.15,-2.81 14.29,-0.69 25.58,-5.33 33.53,-19.22 13.64,-23.81 37.76,-29.13 62.48,-30.94 10.44,-0.76 21.09,1.93 31.61,1.8 21.8,-0.26 43.64,-0.83 65.4,-2.3 14.61,-0.99 25.18,2.19 28.94,18.35 1.19,5.08 4.43,9.69 6.75,14.52 12.81,26.7 33.53,37.57 62.82,34.11 17.2,-2.03 34.75,-2.6 52.04,-1.78zm276.93 186.35c10.75,-0.82 22.74,-2.83 35.13,12.54 -13.68,4.29 -23.97,8.68 -34.71,10.68 -65.57,12.25 -131.33,9.18 -196.36,-2.64 -49.79,-9.04 -99.06,-21.56 -148.03,-34.57 -66.98,-17.82 -133.86,-23.25 -201.96,-7.17 -14.29,3.37 -29.57,2.48 -43.98,3.54 -5.85,-16.01 3.2,-23.28 10.47,-30.4 13.99,-13.72 31.6,-21.13 50.32,-25.11 49.5,-10.56 99.24,-9.78 149.01,-1.89 2.25,0.36 4.79,0.37 6.63,1.5 38.3,23.53 82.94,21.04 124.57,30.71 31.7,7.36 63.98,10.18 96.9,4.29 11.86,-2.13 25.4,2.29 37.57,5.9 12.25,3.63 23.83,9.71 35.52,15.14 25.07,11.68 50.74,19.63 78.93,17.47zm-998.97 -140.67c21.44,6.31 42.85,12.69 64.7,19.18 -13.75,13.54 -38.32,9.82 -50.64,32.1 7.08,3.17 12.69,7.67 18.46,7.89 29.44,1.1 58.97,2.26 88.39,1.21 44.39,-1.58 87.76,1.88 128.86,20.14 25.47,11.32 47.53,26.56 55.78,58.15 -6.29,0 -11.31,0.92 -15.82,-0.21 -7.31,-1.82 -14.61,-4.32 -21.33,-7.7 -50.86,-25.65 -101.61,-19.75 -151.18,2.47 -18.36,8.24 -33.03,8.91 -51.26,-0.3 -15.83,-7.97 -34.35,-12.72 -52.07,-14.18 -27.81,-2.31 -56.02,-1.85 -83.91,-0.04 -10.44,0.68 -22,6.46 -30.29,13.32 -16.56,13.68 -24,16.12 -41.06,3.15 -12.72,-9.68 -25.86,-17.46 -41.65,-13.69 -12.15,2.9 -24.15,8.26 -34.97,14.68 -16.14,9.57 -31.17,21.01 -46.64,31.65 -4.87,-3.99 -8.5,-5.83 -10.56,-8.79 -12.36,-17.86 -29.61,-21.1 -49.82,-19.88 -30.17,1.83 -58.31,9.11 -83.61,26.02 -12.57,8.4 -25.2,14 -40.35,7.37 -31.04,-13.56 -63.43,-18.87 -97.28,-18.56 -35.36,0.33 -65.31,-16.78 -95.02,-33.58 0.04,-2.02 0.09,-4.03 0.13,-6.04 19.22,-2.06 38.39,-5.26 57.65,-5.9 30.31,-1 60.68,0.03 91.01,-0.43 10.53,-0.15 21.07,-1.89 31.53,-3.41 12.76,-1.85 23.2,-6.94 26.59,-21.17 2.08,-8.79 8.7,-12.1 16.82,-12.87 14.31,-1.39 28.63,-3.64 42.94,-3.68 71.21,-0.24 142.46,-2 213.43,6.39 11.24,1.33 22.79,0.83 34.11,0 7.75,-0.57 15.36,-3.2 23.04,-4.91 0.41,-1.93 0.81,-3.86 1.21,-5.79 -6.96,-4.83 -13.33,-11.19 -21,-14.25 -49.43,-19.79 -100.36,-34.04 -153.21,-41.18 -42.08,-5.67 -84.15,-9.56 -126.71,-9.33 -13.97,0.08 -28.41,-4.18 -41.78,-8.94 -5.76,-2.07 -9.32,-10.47 -13.87,-16 5.44,-3.62 10.53,-9.47 16.4,-10.43 18.61,-3.06 37.54,-6 56.33,-5.92 62.11,0.28 124.35,-3.89 186.28,4.28 2.25,0.3 4.6,0.26 6.74,0.91 55.36,16.82 113.21,19.92 169.5,31.57 8.15,1.68 16.11,4.35 24.11,6.71zm2310.56 241.13c11.4,4.17 24.25,8.64 28.78,25.04 -4.82,0.89 -8.33,2.24 -11.78,2.06 -28.59,-1.54 -55.63,5.07 -82.06,15.31 -52.37,20.32 -107.29,26.63 -162.68,27.72 -53.04,1.04 -106.15,-0.11 -159.18,-1.8 -21.04,-0.67 -42.72,-2.75 -62.76,-8.79 -42.5,-12.82 -86.31,-15.28 -129.67,-21.5 -21.67,-3.09 -43.62,-6.62 -64.35,-13.41 -45.51,-14.94 -91.01,-13.31 -136.86,-4.15 -19.29,3.83 -38.47,8.48 -57.35,14.04 -8.09,2.39 -15.29,7.99 -22.89,12.13 0.04,1.85 0.09,3.68 0.13,5.52 7.14,3.17 14.08,6.94 21.44,9.37 44.1,14.53 89.24,23.6 135.58,26.83 29.72,2.07 58.46,8.53 83.74,25.89 1.87,1.29 4.6,1.85 5.78,3.54 4.51,6.57 8.56,13.46 12.78,20.24 -6.71,4.21 -13.33,11.8 -20.15,12.01 -22.57,0.67 -45.35,-0.14 -67.81,-2.57 -54.15,-5.83 -108.17,-12.88 -162.24,-19.5 -42.76,-5.25 -85.53,-10.53 -128.28,-16.02 -7.47,-0.96 -14.93,-2.54 -22.19,-4.59 -48.65,-13.74 -98.24,-16.7 -148.56,-15.96 -49.96,0.72 -99.99,-1.08 -149.93,-2.82 -15.46,-0.54 -31.78,0.01 -49.21,-11.46 9.48,-6.32 16.68,-12.43 24.9,-16.39 46.1,-22.17 94.69,-36.68 144.75,-46.22 49.97,-9.51 100.42,-13.58 151.31,-14.08 59.07,-0.57 118.15,-2.33 177.17,-4.78 14.09,-0.59 28.49,-4.47 41.86,-9.31 63.89,-23.04 128.79,-39.54 197.31,-39.03 24.9,0.19 49.85,-2.68 74.76,-4.32 27.68,-1.82 54.21,3.64 80.3,12.44 31.03,10.47 62.7,17.25 95.65,17.72 21.56,0.32 41.42,-5.28 56.28,-20.39 27.94,-28.4 60.9,-31 96.61,-23.33 14.06,3.03 28.1,6.57 41.68,11.28 55.83,19.39 111.61,38.99 167.13,59.28zm-2394.68 88.61c21.01,5.98 42.12,11.61 63.04,17.92 4.94,1.48 9.58,4.67 13.78,7.86 12.04,9.17 11.65,18.26 -2.39,23.33 -14.1,5.1 -29.15,8.86 -44.04,10.18 -46.68,4.14 -93.46,7.1 -140.22,10.03 -31.69,1.99 -63.44,3.21 -95.17,4.65 -11.52,0.51 -22.44,-1.26 -34.14,-10.94 25.68,-34.48 64.57,-17.75 96.56,-28.71 -8.3,-18.89 -21.41,-30.29 -37.41,-36.9 -42.29,-17.46 -86.28,-28.17 -132.22,-29.37 -21.96,-0.59 -43.92,-1 -65.86,-1.88 -5.79,-0.22 -11.51,-1.86 -18.5,-3.07 6.89,-15.92 19.82,-15.7 31.31,-16.22 19.67,-0.92 39.42,-0.64 59.13,-0.24 22.3,0.47 43.6,-3.04 63.92,-12.86 8.14,-3.94 16.89,-6.92 25.64,-9.17 8.58,-2.21 15.29,0.07 21.39,8.35 15.01,20.39 36.35,22.75 53.94,4.38 12.98,-13.57 27.54,-15.07 43.57,-13.24 6.28,0.72 13.61,3.72 17.92,8.19 9.22,9.58 20.36,12.65 32.56,14.26 17.25,2.28 34.52,4.5 51.72,7.11 4.15,0.63 8.09,2.72 16.4,5.64 -14.78,11.59 -26.79,21.04 -42.79,33.61 10.17,3.3 15.97,5.39 21.89,7.08zm676.89 308.4c83.93,-8.64 165.6,-28.14 246,-53.89 73.99,-23.7 150.39,-35.7 227.43,-42.74 71.58,-6.54 143.32,-11.56 215.07,-16.03 45.35,-2.82 90.81,-3.71 136.24,-4.96 90.89,-2.5 181.78,-4.53 272.67,-7 45.43,-1.24 90.85,-3.64 136.28,-4.39 78.11,-1.29 156.22,-1.64 234.33,-2.51 56.1,-0.64 112.21,-1.46 168.31,-2.25 51.56,-0.74 103.09,-1.61 154.65,-2.33 59.13,-0.81 118.26,-1.47 177.39,-2.28 54.6,-0.74 109.18,-1.61 163.76,-2.32 63.68,-0.82 127.37,-1.5 191.06,-2.29 60.65,-0.75 121.31,-1.61 181.97,-2.32 72.03,-0.82 144.07,-1.53 216.1,-2.28 75.83,-0.78 151.67,-1.68 227.5,-2.3 104.67,-0.88 209.33,-1.61 314.01,-2.28 134.26,-0.85 268.54,-1.48 402.81,-2.4 84.94,-0.57 169.89,-1.41 254.82,-2.24 69.02,-0.68 138.03,-2.79 207.02,-1.76 30.78,0.47 61.93,4.96 92.11,11.42 45.31,9.69 76.15,38.43 94.35,81.76 17.67,42.12 25.39,86.54 29.92,131.44 5,49.43 8.74,99.07 10.71,148.71 3.96,99.52 6.74,199.09 9.25,298.64 2.1,83.53 3.47,167.07 4.6,250.62 1.79,133.44 3.56,266.91 4.52,400.38 1.43,198.74 2.78,397.48 2.86,596.24 0.06,98.9 -2.03,197.82 -4.54,296.71 -1.7,66.54 -4.44,133.12 -9.2,199.51 -6.9,96.15 -16.78,192.04 -40.21,285.86 -20.01,80.13 -48.97,156.15 -99.06,222.72 -38.32,50.92 -86.03,90.13 -141.33,120.54 -78.75,43.3 -163.86,67.51 -250.96,85.29 -79.46,16.21 -159.87,26 -240.65,32.1 -59.59,4.5 -119.32,7.93 -179.04,10.03 -109.78,3.85 -219.58,6.58 -329.37,9.37 -75,1.9 -150.02,3.39 -225.03,4.61 -109.92,1.76 -219.83,3.25 -329.74,4.63 -91.75,1.14 -183.49,2.64 -275.22,2.79 -507.65,0.82 -1015.32,1.64 -1522.97,1.72 -355.13,0.07 -710.25,-0.83 -1065.37,-1.71 -135.75,-0.35 -271.52,-2.68 -407.26,-2.57 -197.99,0.17 -395.97,1.68 -593.94,2.68 -100.14,0.51 -200.28,1.07 -300.42,1.75 -131.21,0.87 -262.4,2.6 -393.59,2.57 -75.78,-0.03 -151.61,-1.26 -227.3,-4.76 -85.36,-3.94 -170.96,-8.03 -254.94,-25.86 -29.49,-6.26 -58.74,-14.87 -87.09,-25.26 -68.68,-25.17 -111.93,-75.5 -136.11,-144.5 -19.58,-55.89 -31.19,-113.61 -39.42,-171.93 -13.24,-93.85 -25.14,-187.92 -36.07,-282.07 -5.47,-47.08 -7.6,-94.57 -11.15,-141.87 -4.06,-54.11 -8.85,-108.18 -11.79,-162.35 -3.08,-56.6 -4.96,-113.28 -6.28,-169.96 -2.57,-110.39 -4.37,-220.79 -6.5,-331.19 1.11,-0.02 2.22,-0.02 3.33,-0.03 0,-90.58 -0.53,-181.15 0.21,-271.72 0.43,-53.61 2.69,-107.22 4.44,-160.82 1.22,-37.51 2.59,-75.01 4.54,-112.48 3.72,-71.79 8.06,-143.54 11.86,-215.32 2.35,-44.35 3.69,-88.75 6.4,-133.07 3.31,-54.18 7.64,-108.29 11.38,-162.44 2.39,-34.36 3.9,-68.81 6.82,-103.11 6.56,-76.93 13.08,-153.87 20.93,-230.67 5.06,-49.44 10.49,-99.03 19.53,-147.83 6.21,-33.56 16.58,-66.85 29.26,-98.56 20.74,-51.86 60.67,-83.18 114.32,-96.06 48.96,-11.76 98.53,-13.63 148.85,-11.76 78.82,2.93 157.11,10.57 235.17,21.15 93.06,12.61 186.06,25.65 278.97,39.31 139.39,20.48 278.54,42.81 418.07,62.24 128.93,17.97 258.1,34.4 387.42,49.13 73.65,8.39 147.82,12.19 221.79,17.72 137.72,10.29 275.74,10.89 413.68,8.76 89.29,-1.39 178.61,-5.47 267.74,-11.35 81.53,-5.37 162.85,-14.19 244.14,-22.57zm-1190.03 -615.79c-7.8,11.39 -16.4,12.26 -25.57,12.94 -14.29,1.06 -28.83,1.67 -42.7,4.97 -8.96,2.13 -18.41,7.19 -24.83,13.76 -6.44,6.6 -13.1,8.21 -20.35,6.56 -15.4,-3.51 -30.85,-7.47 -45.62,-13.06 -11.46,-4.33 -20.28,-3.44 -30.14,7.76 3.86,5.22 7.15,10.92 11.63,15.43 6.42,6.47 14.08,11.67 20.49,18.15 7.46,7.56 14.22,15.63 14.4,27.53 0.26,17.35 -5.11,23.75 -22.32,24.7 -22.9,1.25 -41.31,-9.64 -57.33,-24.1 -29.06,-26.22 -62.44,-42.85 -100.26,-51.1 -8.85,-1.94 -17.46,-5.06 -26.35,-6.76 -89.22,-17.12 -178.35,-34.86 -267.82,-50.58 -27.4,-4.8 -55.79,-4.03 -83.74,-5.57 -8.03,-0.44 -16.1,-0.07 -25.92,-0.07 4.87,-19.04 17.4,-26.61 31.18,-30.17 25.61,-6.63 51.56,-13.15 77.75,-16.06 45.86,-5.06 91.99,-7.89 138.06,-10.48 15.71,-0.89 32.03,-0.17 47.28,3.35 12.81,2.93 25.72,9.25 36.32,17.18 14.72,11.03 30.07,16.9 48.17,17.11 50.79,0.56 101.57,2.14 152.36,2.02 57.36,-0.15 112.71,12.71 168.21,24.75 8.94,1.93 17.15,7.32 27.11,11.74zm-516.3 206.36c35.39,25.68 74.18,41.13 118.04,42.43 12.11,0.36 24.24,0.74 36.33,1.41 53.75,2.94 101.03,24.61 146.28,52.04 6.48,3.93 13.97,7.07 18.98,12.49 21.02,22.78 47.93,30.4 77.17,34.19 11.39,1.49 23.85,3.5 34.24,17.29 -11.36,2.28 -20.41,5.43 -29.57,5.71 -36.08,1.1 -70.64,-5.5 -103.52,-21.51 -48.63,-23.71 -99.32,-42.13 -153.01,-48.99 -60,-7.68 -119.22,-4.11 -175.96,20.71 -19.37,8.47 -39.69,14.85 -59.82,21.47 -27.13,8.93 -54.82,10.15 -82.89,4.74 -34.01,-6.57 -68.09,-12.81 -104.87,-19.69 -1.04,-2.47 -3.63,-7.96 -5.71,-13.63 -7.54,-20.52 -8.3,-20.41 -29.19,-19.13 -19.64,1.19 -39.39,0.93 -59.08,0.85 -4.18,-0.01 -8.36,-1.97 -12.1,-2.92 -2.65,-11.54 3.04,-17.79 10.69,-21.59 10.82,-5.36 21.96,-10.81 33.57,-13.65 53.28,-13.02 106.36,-13.89 158.78,5.11 12.83,4.65 25.85,8.92 38.96,12.68 22.01,6.32 25.75,4.08 33.14,-17.63 0.94,-2.76 2.64,-5.26 4.44,-8.79 24.25,1.56 39.83,21.35 60.57,28.64 13.72,-14.65 14.98,-17.97 5.37,-31.35 -7.49,-10.4 -17.33,-19.07 -26.14,-28.5 -9.17,-9.82 -20.24,-18.29 -24.06,-36.08 10.54,-0.63 19.96,-2.39 29.12,-1.5 22.43,2.18 42.21,12.13 60.22,25.21zm6360.69 3614.78c-2.92,-4.14 -4.39,-9.08 -4.39,-14.83 0,-8.69 3.11,-15.97 9.33,-21.89 6.25,-5.91 14.53,-8.89 24.89,-8.89 10.39,0 18.78,3.03 25.11,9.08 6.33,6.06 9.5,13.42 9.5,22.11 0,5.53 -1.44,10.36 -4.33,14.44 -2.89,4.11 -7.28,7.28 -13.19,9.5 7.3,2.39 12.83,6.22 16.64,11.56 3.81,5.3 5.72,11.64 5.72,19.03 0,10.19 -3.61,18.75 -10.8,25.69 -7.22,6.94 -16.69,10.42 -28.44,10.42 -11.75,0 -21.22,-3.47 -28.44,-10.44 -7.19,-6.97 -10.8,-15.67 -10.8,-26.08 0,-7.75 1.97,-14.25 5.91,-19.47 3.94,-5.25 9.56,-8.8 16.83,-10.69 -6.08,-2.22 -10.58,-5.42 -13.53,-9.53z"/>
 </g>
</svg>
