<?xml version="1.0" encoding="UTF-8"?>
<!DOCTYPE svg PUBLIC "-//W3C//DTD SVG 1.1//EN" "http://www.w3.org/Graphics/SVG/1.1/DTD/svg11.dtd">
<!-- Creator: CorelDRAW 2018 (64-Bit) -->
<svg xmlns="http://www.w3.org/2000/svg" xml:space="preserve" width="8.26772in" height="11.6929in" version="1.1" style="shape-rendering:geometricPrecision; text-rendering:geometricPrecision; image-rendering:optimizeQuality; fill-rule:evenodd; clip-rule:evenodd"
viewBox="0 0 8267.72 11692.91"
 xmlns:xlink="http://www.w3.org/1999/xlink">
 <defs>
  <style type="text/css">
   <![CDATA[
    .fil0 {fill:#2B2926}
   ]]>
  </style>
 </defs>
 <g id="Layer_x0020_1">
  <metadata id="CorelCorpID_0Corel-Layer"/>
  <path class="fil0" d="M199.3 744.07l0 10204.76c10.57,-0.28 21.15,-0.79 31.72,-0.79 2602.15,-0.03 5204.31,-0.03 7806.44,-0.03 9.03,0 18.04,0 28.35,0 0.97,-6.36 2.11,-11.36 2.39,-16.42 0.39,-6.89 0.11,-13.81 0.11,-20.72 0,-3376.65 0,-6753.32 -0.01,-10129.98 0,-12.28 -0.17,-24.54 -0.26,-36.82l-7868.74 0zm1056.33 5076.29c-8.18,2.03 -17.04,1.21 -24.91,1.63 -4.54,-13.35 2.6,-19.44 9.24,-23.67 21.07,-13.42 42.52,-26.35 64.53,-38.07 6.92,-3.68 16.1,-3.71 24.29,-4.11 15.14,-0.74 30.35,0.1 45.47,-0.83 17.97,-1.11 20.6,-4.25 22.13,-21.99 0.26,-3.04 0.21,-6.14 0.52,-9.18 2.35,-23.04 9.09,-31.36 31.46,-35.15 22.79,-3.86 43.37,-11.96 63.15,-24.28 11.86,-7.37 26.26,-11.25 40.03,-14.54 9.11,-2.17 18.44,1.03 21.53,12.13 3.14,11.26 -1.47,19.57 -11.17,24.89 -7.31,4.02 -15.43,6.58 -22.53,10.9 -19.42,11.81 -39.11,23.31 -57.47,36.65 -13.63,9.89 -23.07,23.79 -28.96,40.33 -7.18,20.17 -14.42,24.36 -36.17,23.71 -9.08,-0.26 -18.28,-0.63 -27.18,-2.25 -28.76,-5.26 -55.64,0.97 -81.97,12.14 -10.46,4.43 -21.03,8.97 -31.98,11.7zm1570.46 900.75c-6.76,0 -12.68,1.17 -17.93,-0.24 -13.14,-3.48 -26.44,-7.07 -38.83,-12.57 -27.08,-12.03 -54.83,-17.06 -84.24,-12.92 -10.5,1.48 -21.14,2.43 -31.74,2.6 -13.13,0.22 -24.56,-4.67 -28.81,-18.09 -11.89,-37.65 -41.64,-57.17 -73.01,-75 -11.86,-6.74 -24.79,-11.54 -36.78,-18.08 -12.11,-6.61 -16.14,-15.94 -12.68,-26.14 4.13,-12.21 14.5,-13.78 24.18,-11.54 12.33,2.86 25.14,6.76 35.72,13.49 20.32,12.87 41.67,21.29 65.22,25.4 22.35,3.91 30.42,12.08 30.61,35.41 0.21,25.2 2.14,31.67 34.65,31.22 2.28,-0.04 4.6,0.31 6.82,0 43.33,-6.17 77.97,13.6 110.92,38.19 7.85,5.86 16.5,11.47 15.89,28.26zm1314.89 -1565.96c-7.03,19.58 -16.68,25.24 -37.94,24.15 -2.04,-0.36 -5.75,-1.11 -9.5,-1.67 -35.99,-5.26 -70.85,-3.07 -104.33,13.38 -11.42,5.61 -24.26,8.64 -36.76,11.42 -4.22,0.93 -11.64,-1.24 -13.53,-4.44 -1.81,-3.09 0.02,-11.32 3.04,-13.88 28.69,-24.11 58.29,-47.03 97.8,-48.96 15.14,-0.75 30.35,0.04 45.5,-0.68 14.96,-0.72 18.08,-4.19 19.68,-19.39 0.63,-6.09 0.18,-12.35 1.25,-18.33 2.67,-14.86 9.97,-25.02 26.29,-27.17 25.11,-3.32 48.25,-11.98 69.54,-26.47 9.21,-6.25 20.44,-10.11 31.29,-13.07 13.07,-3.58 23.72,1.22 27.49,10.04 4.42,10.28 -0.21,21.17 -12.83,28.26 -7.25,4.1 -15.5,6.44 -22.58,10.78 -18.72,11.47 -37.67,22.76 -55.36,35.74 -13.61,9.96 -23.09,23.76 -29.04,40.29zm-1080.03 514.5c-10.18,-6.35 -14.08,-16.19 -10.42,-25.21 4.08,-10.03 12.75,-12.19 27.37,-12.26 7.53,3.24 20.28,6.69 30.76,13.64 21.39,14.17 44.44,22.54 69.36,27.1 19.03,3.47 26.56,10.42 27.61,30.32 2.18,41.18 10.21,36.61 40.22,34.37 42.29,-3.17 76.82,12.64 109.32,36.82 3.04,2.26 6.72,4.25 8.68,7.3 3.82,5.99 10.43,13.7 9.04,18.76 -2.53,9.26 -12.4,6.07 -19.6,4.18 -9.48,-2.5 -19.44,-4.48 -28.04,-8.96 -34.57,-18.04 -70.97,-19.81 -108.49,-14.79 -30.36,4.06 -34.72,0.11 -48.74,-27.81 -6.96,-13.89 -17.15,-27.54 -29.15,-37.1 -17.65,-14.07 -38.14,-24.56 -57.61,-36.22 -6.48,-3.89 -13.91,-6.17 -20.33,-10.15zm2593.92 -249.86c3.87,-6.28 11.64,-10.11 18.41,-15.64 15.35,6.43 29.64,10.17 41.41,17.86 20.89,13.65 43.21,21.64 67.43,25.79 18.65,3.19 25.4,11.25 27.97,30.65 4.58,34.54 4.78,37.07 39.61,34.26 43.46,-3.5 78.07,14.04 111.29,38.21 3.08,2.23 6.76,4.26 8.67,7.35 3.37,5.43 5.58,11.59 8.28,17.46 -6.04,1.64 -12.56,5.58 -18.04,4.44 -12.52,-2.58 -25.13,-6.4 -36.63,-11.98 -32.13,-15.61 -65.52,-17.15 -99.99,-12.43 -8.86,1.21 -18.82,2.85 -26.75,-0.01 -7.63,-2.76 -16.68,-9.89 -19.24,-17.2 -13.64,-38.89 -44.86,-58.57 -77.79,-76.71 -11.29,-6.21 -23.57,-10.61 -34.76,-16.97 -10.1,-5.75 -14.91,-16.91 -9.87,-25.08zm2276.6 5419.65l14 -1.17c1.2,6.61 3.47,11.39 6.83,14.36 3.36,2.97 7.67,4.47 12.94,4.47 4.5,0 8.44,-1.03 11.86,-3.11 3.41,-2.06 6.19,-4.81 8.33,-8.28 2.14,-3.44 3.94,-8.11 5.42,-13.97 1.47,-5.86 2.19,-11.83 2.19,-17.91 0,-0.64 -0.03,-1.64 -0.08,-2.94 -2.92,4.67 -6.92,8.47 -11.97,11.36 -5.06,2.92 -10.56,4.36 -16.44,4.36 -9.86,0 -18.19,-3.58 -25.03,-10.75 -6.8,-7.14 -10.22,-16.59 -10.22,-28.31 0,-12.11 3.56,-21.83 10.69,-29.22 7.11,-7.36 16.03,-11.06 26.78,-11.06 7.72,0 14.8,2.08 21.25,6.28 6.42,4.17 11.28,10.11 14.61,17.86 3.33,7.72 5,18.92 5,33.56 0,15.25 -1.64,27.39 -4.94,36.42 -3.31,9.06 -8.25,15.91 -14.78,20.64 -6.53,4.72 -14.17,7.08 -22.94,7.08 -9.33,0 -16.94,-2.58 -22.86,-7.78 -5.89,-5.19 -9.44,-12.5 -10.64,-21.89z"/>
 </g>
</svg>
