<?xml version="1.0" encoding="UTF-8"?>
<svg width="12px" height="12px" viewBox="0 0 12 12" version="1.1" xmlns="http://www.w3.org/2000/svg" xmlns:xlink="http://www.w3.org/1999/xlink">
    <!-- Generator: Sketch 53.2 (72643) - https://sketchapp.com -->
    <title>Combined Shape</title>
    <desc>Created with Sketch.</desc>
    <g id="Page-1" stroke="none" stroke-width="1" fill="none" fill-rule="evenodd">
        <path d="M11.1029021,1.94557171 L11.0895114,1.79549284 C11.1125041,1.44383722 11.1125041,1.17448976 11.0895114,0.987450452 C11.0678339,0.811109447 11.0400724,0.704805689 11.0062272,0.668539179 L11.0067172,0.674126355 C11.0005344,0.672072261 10.9940606,0.670210408 10.9872962,0.66854392 C10.9367413,0.656092697 10.8843072,0.646807039 10.8318273,0.640780741 C10.6927364,0.624788774 10.5521635,0.622174252 10.4118809,0.61980594 C10.2135266,0.616476235 10.015096,0.61467069 9.81669584,0.614412755 C8.60415734,0.612888594 7.39161884,0.611974097 6.17904977,0.610848563 C4.78667393,0.609558888 3.3942828,0.608140246 2.0018764,0.607120231 C1.78488296,0.606967815 1.56793535,0.609371299 1.3520572,0.629220566 C1.2551794,0.638107597 1.15976829,0.652235397 1.06721416,0.677278535 C0.933938476,0.713331497 0.833458731,0.775594999 0.767601525,0.865161295 L0.767601525,11.9998614 C0.524269864,11.99988 0.280930982,11.9999029 0.0375838811,11.9999307 C0.0294712628,11.9999307 0.0213280886,11.9998135 0.0132613044,11.9992742 C0.00996125628,11.9990631 0.0068292662,11.997539 1.52780004e-05,11.9955458 L1.52780004e-05,0.00643664922 L0,0.00644837354 C0.00262781608,0.00426765085 0.0033611601,0.00351729466 0.00424728412,0.00296625183 C0.00513340815,0.00242693331 0.00614175618,0.00174692301 0.0071653822,0.0016648528 C0.0151863324,0.00100829114 0.0232378387,0 0.0312740669,0 C3.66212089,5.32758686e-05 7.26130754,0.000135602319 10.8864031,0.000308582745 L11.9795298,0 L12,12 C8.25514276,12.0003179 4.51222723,11.9995759 0.767601525,11.9998614 L0.767601525,9.2451529 C0.782210654,9.26033625 0.795658053,9.27626176 0.809795135,9.29171937 C0.876147491,9.36428115 0.928963539,9.44256441 0.964530724,9.527085 C0.986042148,9.57817957 1.02223573,9.6187926 1.07796988,9.64989721 C1.10433971,9.66462295 1.12983869,9.68040387 1.15461961,9.6967124 C1.1731671,9.70892913 1.19047707,9.7223652 1.20734398,9.73598885 C1.25478218,9.77429219 1.30138008,9.8132052 1.34910855,9.85130922 C1.35951287,9.85962176 1.36631158,9.86703153 1.36415738,9.87947103 C1.35411973,9.93756501 1.3484516,9.99625693 1.33474723,10.0537882 C1.31827755,10.1228913 1.29236606,10.1906344 1.27577415,10.2597258 C1.25522524,10.3453953 1.25132935,10.4319677 1.27193937,10.5183173 C1.29801892,10.6275879 1.37873259,10.6845563 1.52064994,10.698051 C1.61549577,10.7070787 1.70575819,10.6951317 1.79282752,10.6672395 C1.85933265,10.645913 1.92689197,10.6332976 1.99930969,10.637448 C2.05017016,10.6403674 2.09829586,10.6303314 2.14432847,10.6140815 C2.16648157,10.6062496 2.18881801,10.5984764 2.20980998,10.5889914 C2.26241214,10.5652028 2.31832962,10.5542992 2.37934995,10.5556475 C2.45485383,10.5572889 2.52989937,10.5526343 2.6042574,10.5409569 C2.62434797,10.5378148 2.64595106,10.5378148 2.66645414,10.5394796 C2.68969198,10.5413673 2.69537539,10.5511922 2.68674332,10.5681221 C2.68461968,10.5722843 2.68222103,10.5765871 2.67872237,10.5800692 C2.6518942,10.6066365 2.65051918,10.6383508 2.64796776,10.6698775 C2.64647051,10.6882378 2.65675261,10.7013455 2.67805014,10.7087905 C2.68960031,10.7128237 2.70163937,10.7162354 2.71383122,10.7188382 C2.74971924,10.7265411 2.78568365,10.7233521 2.82031888,10.715274 C2.86910154,10.7039014 2.91681473,10.6898205 2.96532238,10.6777211 C3.00716883,10.6672864 3.04881666,10.65514 3.09179367,10.649102 C3.13139425,10.6435095 3.17270596,10.6432047 3.21319266,10.6437557 C3.34195565,10.6455144 3.47065753,10.6489144 3.59938996,10.6513296 C3.64808094,10.6522441 3.69715388,10.6553276 3.74532542,10.6516579 C3.80167068,10.647402 3.85706871,10.6361115 3.91315425,10.6291589 L3.9131237,10.6291238 C4.00343196,10.617927 4.09386244,10.6073752 4.18443043,10.5974564 C4.20843217,10.5948419 4.23307558,10.5957798 4.25738288,10.5945957 C4.26965111,10.5940094 4.28297353,10.593646 4.28590691,10.5802334 C4.26170655,10.5686028 4.23027971,10.5727064 4.20717937,10.5557882 C4.21266417,10.5510281 4.21628506,10.5464673 4.2214643,10.5436535 C4.24700912,10.5297367 4.2760526,10.5241442 4.30682249,10.5238511 C4.34393275,10.5235111 4.38110413,10.5246015 4.41815328,10.5233587 C4.46756233,10.5216939 4.51455746,10.5115406 4.5566178,10.4911403 C4.57065828,10.4843167 4.58530988,10.4739993 4.59155858,10.4625916 C4.60605741,10.436165 4.61802008,10.4085659 4.62659104,10.3806269 C4.64273988,10.3280668 4.64073847,10.2748501 4.62631603,10.2221728 C4.62306182,10.2102843 4.61714923,10.196942 4.6066838,10.1886647 C4.59499613,10.1794376 4.59423223,10.1708672 4.59456835,10.1597173 C4.59516419,10.1390943 4.59774617,10.1178967 4.59285721,10.0979302 C4.57721254,10.0341499 4.56011646,9.97054551 4.54063701,9.90743352 C4.51706305,9.8311434 4.49261825,9.7549588 4.46462896,9.6795949 C4.43636465,9.60355099 4.44076472,9.53342785 4.50968378,9.47086691 C4.51266299,9.46814687 4.51526025,9.46503992 4.51727695,9.46181574 C4.53252439,9.43758158 4.54806212,9.41344121 4.56234705,9.38889049 C4.5655707,9.38332144 4.56430263,9.37619306 4.56566237,9.36535979 C4.53310495,9.38955878 4.49836278,9.39463541 4.46172614,9.39542094 C4.42000192,9.39631198 4.37815547,9.39613612 4.3365382,9.39856305 C4.17957202,9.40770802 4.02766287,9.43669053 3.87783151,9.472649 C3.79348167,9.4928969 3.71120964,9.51760003 3.63700439,9.55579785 C3.5604005,9.59523845 3.51010532,9.64976824 3.48538552,9.71871894 C3.47447703,9.74912009 3.46297269,9.77939227 3.45084196,9.80950031 C3.44497521,9.82408536 3.43793205,9.83851799 3.42971248,9.85242303 C3.42059152,9.8679343 3.41513727,9.86866121 3.39394669,9.86296319 C3.37362694,9.85747621 3.36025869,9.84584569 3.35329193,9.83140133 C3.33830421,9.80024983 3.32540958,9.76847693 3.3125455,9.73673921 C3.2992078,9.70372354 3.30206479,9.67073131 3.31596777,9.63823151 C3.32916796,9.60743173 3.34291816,9.57676093 3.35624058,9.5459846 C3.3678213,9.51924143 3.3756742,9.49211137 3.37043384,9.46358611 C3.36702685,9.44512031 3.37729366,9.43244633 3.39802591,9.42381723 C3.43863484,9.40693421 3.48190213,9.39817615 3.52779725,9.39638233 C3.57549516,9.39451816 3.62293336,9.38992223 3.66719372,9.37547788 C3.74303372,9.35071612 3.81814037,9.32455917 3.89332341,9.29858981 C3.90484302,9.29460355 3.9159654,9.28918691 3.92578916,9.28301992 C3.94690335,9.269748 3.9457575,9.25434225 3.92164882,9.24441175 C3.90768473,9.23867856 3.89129143,9.23487988 3.87553981,9.23366056 C3.7630479,9.22491422 3.65078515,9.22999084 3.53865991,9.23856132 C3.50987615,9.24075377 3.48628692,9.25107116 3.46538662,9.26674657 C3.41698591,9.30308023 3.36785186,9.33882767 3.31858031,9.37443441 C3.27786444,9.40386244 3.23329851,9.43096906 3.22570534,9.47711597 C3.17826715,9.48141879 3.16222525,9.47154692 3.15933771,9.43854297 C3.15530432,9.39193882 3.16402806,9.34649537 3.18327834,9.30262298 C3.19018399,9.28687722 3.20260501,9.2718701 3.21609548,9.25873887 C3.23562077,9.23978065 3.25801832,9.2225459 3.27988113,9.2050884 C3.30864961,9.18214391 3.33162772,9.15727664 3.34158898,9.12503477 C3.35162662,9.09251152 3.38225901,9.07635541 3.42399851,9.07119672 C3.46480605,9.06613181 3.50255799,9.07034084 3.53616959,9.09011976 C3.57327985,9.11196216 3.61440823,9.1185395 3.66068529,9.11440082 C3.72631958,9.10852694 3.79225943,9.10303996 3.85821456,9.10158614 C3.98801645,9.09874886 4.11792529,9.09835023 4.2477883,9.09793988 C4.29511954,9.09781091 4.3388299,9.10975799 4.37974439,9.12825896 C4.39240985,9.13399215 4.40634338,9.13803704 4.42128527,9.14340677 C4.43746467,9.12485891 4.43213265,9.10667449 4.43014651,9.08925216 C4.42392836,9.03514445 4.42256862,8.98108363 4.4313993,8.92708143 C4.43854941,8.88323249 4.44652453,8.83944217 4.45365935,8.79559323 C4.4582122,8.76745487 4.45634828,8.76546174 4.42350058,8.75523814 C4.42027692,8.75422985 4.41716021,8.75295189 4.41384488,8.75214292 C4.34921894,8.73630337 4.3133462,8.69913729 4.30378217,8.64993033 C4.29588344,8.60930558 4.29880154,8.56730908 4.29849598,8.52591052 C4.29835848,8.50624885 4.30787667,8.48894376 4.32896031,8.47638702 C4.34248134,8.46836758 4.34623973,8.45719431 4.34145772,8.44488378 C4.33102284,8.41792958 4.33641598,8.39130366 4.34226745,8.36450187 C4.35846213,8.2903104 4.39816965,8.22762049 4.48132781,8.18441639 C4.51985893,8.1644147 4.55628168,8.14186885 4.59339194,8.12016714 C4.6137728,8.10824351 4.63371059,8.09583918 4.65358727,8.08339968 C4.66584022,8.07574371 4.67312783,8.06641115 4.6732195,8.05329164 C4.67354033,8.01087307 4.67629037,7.96844277 4.67557231,7.92603592 C4.67428896,7.84993339 4.68447938,7.77474535 4.69876431,7.69958077 C4.70709082,7.65580217 4.72507303,7.61615054 4.75692766,7.57928929 C4.77949327,7.55320269 4.79721575,7.52456018 4.81654242,7.49680873 C4.81993413,7.49190797 4.82057581,7.48583477 4.82248556,7.48030089 C4.80438113,7.49302178 4.79156289,7.50779441 4.77874464,7.52255533 C4.76806532,7.53485413 4.75533875,7.54574602 4.7353704,7.54732881 C4.727105,7.54799709 4.71505066,7.54636741 4.71063532,7.54208804 C4.70649498,7.53807832 4.7068311,7.52724505 4.71107838,7.52278981 C4.7246758,7.50842753 4.73969408,7.49449904 4.75660682,7.48251679 C4.7737029,7.47044074 4.79417543,7.4613544 4.81223402,7.45005216 C4.82506754,7.44203273 4.8387108,7.43383743 4.84476088,7.416802 C4.82181333,7.42072965 4.80647422,7.42810424 4.79293791,7.43774163 C4.7578749,7.46273787 4.72299522,7.48789825 4.68851277,7.51338691 C4.6793307,7.52017529 4.67118752,7.52797196 4.66368602,7.53595622 C4.64597882,7.55480892 4.64153292,7.57513888 4.65352615,7.59726266 C4.65891929,7.60721661 4.66412909,7.61744021 4.66700135,7.62795692 C4.67066807,7.64146333 4.65783455,7.64964691 4.64225099,7.64326888 C4.63146472,7.63886054 4.62130485,7.63166181 4.6143228,7.62382996 C4.58285012,7.58842253 4.58906827,7.54095078 4.62845495,7.5096703 C4.65687204,7.487101 4.68591551,7.46502411 4.71445482,7.44253687 C4.7230105,7.43579539 4.73075645,7.42843252 4.74062603,7.4198386 C4.72583693,7.41459783 4.715234,7.41083432 4.69855042,7.40492527 C4.71317147,7.39745688 4.7223841,7.39268508 4.73167313,7.38803053 C4.73834961,7.38467738 4.7459275,7.38214492 4.7517637,7.37808831 C4.76536112,7.36860334 4.77762935,7.35796939 4.79136427,7.34862511 C4.82719118,7.32429715 4.86369033,7.30054369 4.89950196,7.27621573 C4.90649928,7.27144394 4.9116938,7.26508936 4.91774389,7.25946169 C4.88411701,7.26939218 4.85514992,7.28439931 4.82340224,7.29357944 C4.79111982,7.30292372 4.75659154,7.30367408 4.72495081,7.28693176 C4.73174952,7.26972046 4.74689001,7.26888804 4.76190829,7.26712939 C4.79053926,7.26381141 4.81929246,7.26076309 4.84751092,7.25589749 C4.86144446,7.25349401 4.87725719,7.25026982 4.88304755,7.23277714 C4.86767789,7.23137023 4.8534999,7.22963503 4.83921497,7.22882605 C4.81157707,7.22724327 4.78661281,7.22097076 4.768707,7.20359532 C4.75726378,7.19248067 4.76086938,7.18259707 4.77854603,7.17152932 C4.79510738,7.16114158 4.80823119,7.15993397 4.8166952,7.17162311 C4.83461629,7.19640832 4.86223892,7.19284413 4.88987682,7.1895027 C4.90581177,7.18756818 4.92108977,7.18148326 4.93700945,7.18042808 C4.97732809,7.17777838 5.01784535,7.17657078 5.0583015,7.17544524 C5.09331867,7.1744604 5.10306604,7.16944239 5.11137727,7.14254681 C5.11651068,7.12592173 5.11961211,7.1088863 5.12300383,7.09195639 C5.13137617,7.05046404 5.15912102,7.01955874 5.20833146,7.00255848 C5.2410111,6.99126797 5.27584494,6.98386993 5.30939543,6.97405667 C5.39686199,6.94846249 5.46164071,6.973107 5.51555677,7.02747265 C5.53954323,7.05164819 5.56678391,7.07425267 5.5955371,7.09509851 C5.64170722,7.12854798 5.68240781,7.16305264 5.68010084,7.21678518 C5.67948972,7.23128816 5.69246074,7.23686893 5.71042767,7.23621237 C5.73360439,7.23537994 5.75681168,7.23501649 5.7799884,7.23441855 C5.83069609,7.2330937 5.87750788,7.24365731 5.9159015,7.26898183 C5.95288953,7.29335668 5.9872192,7.3204164 6.02044885,7.34795682 C6.0429839,7.3666571 6.05604659,7.39045746 6.06049249,7.41599302 C6.06469394,7.44009822 6.06675647,7.46446134 6.06851344,7.48875412 C6.07051486,7.51657593 6.06124111,7.54275632 6.0428464,7.56633392 C6.01221401,7.60561038 5.98291081,7.64575443 5.92702388,7.66828857 C5.90911806,7.67551075 5.89251088,7.68642608 5.88725524,7.70381324 C5.89038723,7.70730709 5.89261782,7.71053128 5.89571926,7.71312235 C5.92115713,7.73443716 5.9213863,7.75833131 5.90772776,7.78358549 C5.90369437,7.7910656 5.89794984,7.79802984 5.89451229,7.80565065 C5.87986069,7.83810355 5.87646898,7.87015783 5.90199851,7.9028335 C5.94133937,7.88248009 5.96737308,7.85467001 5.9901373,7.82595716 C6.00385694,7.80868725 6.01473488,7.79352771 6.04397697,7.7941022 C6.04701729,7.79416082 6.0511118,7.79248424 6.05302155,7.79059663 C6.06037027,7.783351 6.06768843,7.77482742 6.08116363,7.77880197 C6.09279018,7.78222547 6.10372923,7.78774762 6.11379743,7.7935746 C6.12357536,7.7992609 6.13185603,7.80650652 6.1443076,7.81563977 C6.14802016,7.80300095 6.14873822,7.79369185 6.15359663,7.78591863 C6.15822586,7.77850886 6.1658343,7.76867216 6.17443582,7.76699558 C6.20242512,7.76157895 6.2130586,7.74663044 6.22097261,7.72746119 C6.23108664,7.70300427 6.24906885,7.69326136 6.28118321,7.69749384 C6.30115155,7.70013181 6.32006572,7.7080809 6.33907155,7.71428306 C6.35100367,7.71817553 6.36145382,7.72661704 6.37873324,7.71975831 C6.36747335,7.70901884 6.35754265,7.69955732 6.34735223,7.68982614 C6.36208022,7.66892168 6.38287358,7.65895601 6.41107677,7.6630947 C6.45014261,7.66882789 6.47344157,7.65069037 6.49751969,7.63460461 C6.49585439,7.61804988 6.48190558,7.61269186 6.46891928,7.60675936 C6.45791912,7.60174135 6.44635367,7.59742681 6.43587296,7.59182258 C6.42429224,7.58562042 6.42155748,7.57704994 6.43290903,7.56925328 C6.45567325,7.55363649 6.47906387,7.53887557 6.51322548,7.54805571 C6.52392008,7.55093989 6.53560775,7.55154956 6.55241355,7.55399994 C6.55655389,7.54056388 6.560297,7.52940233 6.56339843,7.51815871 C6.572168,7.48630374 6.60579488,7.46592688 6.64840523,7.49104037 C6.655647,7.49529629 6.66858746,7.49879014 6.67618063,7.49669149 C6.71358118,7.48633892 6.74616915,7.47147248 6.74784973,7.43516228 C6.74849141,7.42075309 6.75072199,7.40639081 6.75197479,7.39198162 C6.75970546,7.30372098 6.76674862,7.21541343 6.77512096,7.12718796 C6.78767948,6.99484388 6.80115467,6.86255843 6.81424792,6.73024953 C6.82430085,6.62855282 6.83410932,6.52683266 6.84443725,6.42513594 C6.85724021,6.2991699 6.87062374,6.17321558 6.88348782,6.04722608 C6.89604634,5.92395663 6.90799373,5.80064028 6.92065919,5.6773591 C6.93575386,5.53068791 6.9514902,5.38406362 6.96664598,5.23740416 C6.97938783,5.11413471 6.9918394,4.99085353 7.00412291,4.8675489 C7.01943147,4.71365554 7.03727617,4.55986769 7.0489944,4.40581018 C7.06602937,4.18140679 7.07809899,3.95679235 7.09368255,3.7323186 C7.09553119,3.70591545 7.08801441,3.68773103 7.05745841,3.67428324 C7.01009661,3.65342568 6.96414038,3.63059844 6.91777165,3.60839259 C6.89289907,3.59645724 6.88817816,3.58759365 6.9056562,3.57166031 C6.92835931,3.55095517 6.92973433,3.52818655 6.9288482,3.50330755 C6.92761068,3.4681346 6.92889404,3.43291476 6.9288482,3.39771836 C6.92883292,3.3757001 6.94333175,3.36221714 6.96936546,3.35581566 C6.99365748,3.34984798 7.01793422,3.34361065 7.04269986,3.33912023 C7.20919951,3.30894185 7.37808253,3.29197676 7.5487989,3.28674772 C7.69502465,3.28228075 7.84118928,3.28174143 7.98611639,3.3011569 C8.07769272,3.31344398 8.16732875,3.33132356 8.25381751,3.35830121 C8.28749022,3.36879448 8.30790163,3.38622853 8.30845164,3.41485931 C8.30976555,3.48254379 8.31005583,3.55027516 8.31086557,3.61798308 C8.31103362,3.63202881 8.30159182,3.64008341 8.28483185,3.64267449 C8.26328987,3.64599247 8.24159511,3.64996701 8.21980868,3.65083461 C8.19007769,3.65200704 8.16615235,3.66116373 8.14564927,3.67690949 C8.1340991,3.6857848 8.12360311,3.6954808 8.11203767,3.70434439 C8.09782913,3.7152011 8.09165682,3.72786336 8.09367351,3.74336291 C8.09657633,3.7658267 8.0999986,3.78827876 8.10103751,3.81080117 C8.10612508,3.91996627 8.11098349,4.02913138 8.11506271,4.13831993 C8.12189198,4.32147718 8.12244199,4.50479858 8.14905626,4.687311 C8.16853571,4.8209213 8.18364566,4.9549185 8.2010473,5.08871639 C8.21844894,5.22251428 8.23582003,5.35631217 8.2540314,5.49005144 C8.27296085,5.62916044 8.29205835,5.76825772 8.31259198,5.90723776 C8.33381312,6.05067303 8.35616484,6.19402624 8.37931101,6.33728565 C8.40461138,6.4939694 8.43137843,6.65050074 8.45777882,6.8070907 C8.45901634,6.81445357 8.46283584,6.82153505 8.46622755,6.83094968 C8.48115416,6.82260197 8.49245988,6.81648187 8.50344476,6.8100804 C8.57965143,6.76575076 8.65539975,6.7209756 8.73223282,6.67731425 C8.75258311,6.66574235 8.77511816,6.65543667 8.7985699,6.64843726 C8.83629128,6.63717019 8.86981121,6.64918761 8.88840454,6.67712666 C8.89048235,6.68024533 8.89263654,6.68336399 8.89619632,6.68860476 C8.90734926,6.68688129 8.91837997,6.6850523 8.92944125,6.68345779 C9.03478306,6.6682279 9.13269977,6.67881496 9.21782878,6.73383717 C9.23924854,6.74768359 9.26048496,6.76170587 9.28247,6.77498952 C9.31589827,6.79521396 9.35478078,6.80455824 9.39630638,6.80074784 C9.41321913,6.79920023 9.4299791,6.78999664 9.44458487,6.78187169 C9.45876285,6.77399295 9.44901549,6.76192863 9.44751824,6.75158779 C9.44287373,6.71968592 9.4741478,6.69729248 9.51451227,6.70491329 C9.52887359,6.70763333 9.5430363,6.71290927 9.55565593,6.71902936 C9.58121602,6.73142196 9.60674556,6.74413112 9.63038063,6.7585872 C9.7398475,6.82553304 9.84897826,6.89279544 9.95746734,6.96065578 C9.98634276,6.97873468 10.0131404,6.99888877 10.0397699,7.01898425 C10.0512895,7.02767197 10.0611286,7.03808316 10.0696231,7.04872884 C10.0774608,7.05858899 10.0785913,7.07066503 10.0659106,7.07848515 C10.0296101,7.10086687 10.0312142,7.1312094 10.0331087,7.16244298 C10.0346365,7.18763853 10.0365615,7.21312719 10.0335976,7.23813516 C10.028617,7.27988544 10.0317031,7.32062744 10.0408699,7.36199083 C10.0470881,7.39003539 10.0638939,7.407786 10.0950457,7.42026067 C10.1228517,7.43139877 10.1499549,7.44367413 10.1768289,7.45612535 C10.2046959,7.4690221 10.226681,7.48688996 10.2342283,7.51176896 C10.2517216,7.56937052 10.3011154,7.60985458 10.3528314,7.64909586 C10.3612343,7.65547389 10.3743581,7.66064431 10.3859541,7.66153536 C10.5117226,7.67126654 10.6375523,7.68079841 10.7635346,7.68871233 C10.8085131,7.69154961 10.8539651,7.69062339 10.899188,7.69008407 C10.9435095,7.6895682 10.9735308,7.67152448 10.9885185,7.63944675 C10.9959894,7.62341961 11.0034604,7.60674764 11.0056451,7.58995842 C11.0156522,7.51278897 11.0274774,7.43558435 11.0318927,7.3581687 C11.0410901,7.1958221 11.0481638,7.03333481 11.0523194,6.87085925 C11.0609668,6.53502795 11.0690488,6.19917321 11.0738614,5.86330674 C11.081042,5.3630771 11.0872144,4.86284745 11.09027,4.36260608 C11.0951837,3.55693228 11.0990962,2.75125286 11.1029021,1.94557171 Z M4.85556386,10.120282 C4.86710117,10.138612 4.90714242,10.1591353 4.93876823,10.1616419 C4.95926392,10.1632869 5.01179262,10.128742 5.00622756,10.120047 C4.99143266,10.0973304 4.95288447,10.0798622 4.9004915,10.0444556 C4.87551662,10.0833871 4.84646974,10.1059471 4.85556386,10.120282 Z M4.83953581,10.1948199 L4.83952053,10.1948082 C4.8359302,10.2407206 4.8325996,10.2866448 4.82916205,10.3325455 C4.82693146,10.3622432 4.82312724,10.3919291 4.82283695,10.4216503 C4.82254667,10.4512424 4.83182042,10.4790525 4.86228475,10.4996521 C4.87589745,10.5088557 4.88029751,10.5202518 4.87773081,10.5336527 C4.87603495,10.5425631 4.87310158,10.5513681 4.87207795,10.5603138 C4.87038209,10.5753092 4.86639453,10.590797 4.88161142,10.6064958 C4.95030131,10.5870335 5.01779952,10.5663518 5.07351839,10.5280719 C5.10737443,10.5047757 5.11965795,10.47414 5.11391342,10.4399871 C5.10983419,10.4159523 5.10164518,10.3923395 5.09515203,10.3685508 C5.09053808,10.3515975 5.07946153,10.3409049 5.05460422,10.342558 C5.03958595,10.3435429 5.0277455,10.3391814 5.02048845,10.327973 C4.99178108,10.2836668 4.96276816,10.2395599 4.95422776,10.1893212 C4.95198189,10.1760024 4.94726099,10.1628126 4.94194425,10.1499979 C4.93726918,10.1387543 4.92930934,10.1288941 4.90872987,10.1292224 C4.90506315,10.1578532 4.87685996,10.1610656 4.8435692,10.162965 C4.84194973,10.1753928 4.84029971,10.185077 4.83953581,10.1948199 Z M7.32489981,4.8953952 L7.32488453,4.89541744 C7.32557204,4.89430571 7.32673317,4.89326068 7.32684011,4.89201555 C7.3272679,4.88701277 7.3275429,4.88196553 7.32755818,4.87694052 C7.32771096,4.82895833 7.33130129,4.82184327 7.3626823,4.81088163 C7.37276578,4.80734634 7.38312427,4.80550087 7.39332997,4.80272155 C7.41111356,4.79787441 7.42889716,4.79287164 7.44665019,4.78793557 C7.39349803,4.75727411 7.2487237,4.80450031 7.22003161,4.8513263 C7.27813385,4.85848583 7.27813385,4.85848583 7.32489981,4.8953952 Z M7.74357813,4.0959248 L7.74356285,4.0959248 C7.74562538,4.09000402 7.74722957,4.08744812 7.74727541,4.0848805 C7.74764208,4.0668485 7.74785597,4.04882823 7.74781014,4.03079623 C7.7476268,3.96245519 7.74741291,3.96261933 7.67511741,3.9242222 C7.6642242,3.91844211 7.65528657,3.91666002 7.64356834,3.92213527 C7.61976522,3.93327337 7.59593154,3.94448182 7.57119645,3.95423645 C7.5540087,3.96100138 7.54941002,3.97077946 7.54980725,3.98480174 C7.55069338,4.01543738 7.5499142,4.04609646 7.55026559,4.07674382 C7.55035726,4.08269977 7.55260313,4.08865573 7.55413093,4.0959248 L7.74357813,4.0959248 Z M7.98234272,3.91028088 L7.98234272,3.91023962 C7.98307607,3.90297664 7.98380941,3.89563113 7.98454275,3.88836816 C7.9765218,3.88139405 7.96866891,3.87149 7.96046463,3.86798231 C7.90338602,3.84346977 7.84624629,3.81986511 7.78907602,3.79679691 C7.75126297,3.78156942 7.71762081,3.81412901 7.67957859,3.86690937 C7.7847829,3.88197179 7.88357045,3.89612634 7.98234272,3.91028088 Z M8.02845274,3.72881044 L8.02847093,3.72881044 C8.06760565,3.7168481 8.10892362,3.69698313 8.1409082,3.66052461 C8.15642746,3.64286685 8.14219996,3.61588754 8.11783855,3.61208403 C8.0814147,3.60638862 8.01238767,3.64885788 7.99772353,3.68600616 C7.9884993,3.7092805 8.00001594,3.72867249 8.02845274,3.72881044 Z M8.25517725,3.56445441 C8.20899838,3.55210378 8.1628195,3.53975316 8.10239725,3.52354914 C8.1675443,3.41377677 8.1967208,3.41812419 8.25517725,3.56445441 Z M5.5399099,8.93620295 L5.53994046,8.93623812 C5.53893211,8.98244365 5.52308883,9.02572982 5.48889666,9.06370488 C5.43241389,9.12646514 5.37542695,9.18901436 5.31642331,9.25032081 C5.29338409,9.27426186 5.27720469,9.29870706 5.27391992,9.32865096 C5.27029903,9.36192457 5.26539479,9.39512783 5.26000166,9.42826074 C5.2534474,9.46855722 5.2474737,9.50907645 5.22266223,9.54586735 C5.19778964,9.5827755 5.18779783,9.62205196 5.19004369,9.66354431 C5.1913576,9.68789571 5.19141871,9.71228229 5.19244234,9.73664542 C5.1940007,9.77394046 5.20781201,9.80736649 5.24153056,9.83525863 C5.27190322,9.86037212 5.28817429,9.89142983 5.29478967,9.92494965 C5.30146615,9.95878602 5.30441481,9.99304447 5.30996072,10.027045 C5.3159497,10.0636483 5.32048726,10.1005916 5.33037213,10.136597 C5.33981393,10.1708906 5.35451137,10.2043635 5.36846018,10.237813 C5.3782381,10.2612616 5.37686308,10.2816854 5.3532433,10.300116 C5.33167076,10.3169404 5.32468871,10.3385366 5.32273313,10.3618211 C5.3197692,10.3969589 5.32979156,10.429869 5.34707098,10.461935 C5.3663671,10.4977059 5.38595349,10.5333947 5.40392042,10.5695642 C5.416647,10.5951819 5.4230332,10.6216436 5.40612045,10.6484572 C5.42439294,10.6629015 5.44572103,10.672023 5.47005889,10.6750831 C5.49858291,10.6786707 5.52755,10.6801949 5.55637959,10.682188 C5.58653836,10.6842867 5.61701797,10.6849784 5.63767383,10.706598 C5.6408211,10.7098691 5.64711563,10.7121319 5.65250877,10.7131402 C5.69739553,10.7216403 5.73831002,10.7391916 5.7850607,10.7445028 C5.87148835,10.7543395 5.95227841,10.7805433 6.03468795,10.8019871 C6.11592108,10.823126 6.19724587,10.8446167 6.28012903,10.8611597 C6.37752628,10.8805869 6.4771694,10.8843504 6.57695002,10.8704922 C6.6402315,10.8616873 6.69976986,10.8438429 6.75732209,10.8223288 C6.88060028,10.7762639 7.01078412,10.7479263 7.14458885,10.7286163 C7.15783487,10.7267052 7.17215036,10.7266818 7.18547278,10.7282294 C7.3210192,10.7439869 7.45731424,10.7533546 7.59426623,10.7557464 C7.84438238,10.7601195 8.0928485,10.7442331 8.33912987,10.7114285 C8.58243202,10.6789873 8.82461889,10.6415398 9.06773771,10.6081255 C9.25605434,10.5822499 9.44478348,10.5579337 9.6338029,10.5353175 C9.79191493,10.5164179 9.95063807,10.5004728 10.1092237,10.484094 C10.2827512,10.4661792 10.4564163,10.4488859 10.6301577,10.4320966 C10.7923795,10.4164095 10.9547847,10.4018127 11.1170981,10.3865828 C11.1524667,10.3832649 11.187713,10.379302 11.2239983,10.3755385 C11.2231122,10.3678005 11.2230663,10.3624073 11.2217983,10.3572017 C11.200791,10.2719073 11.172435,10.1883364 11.126051,10.1089511 C11.0561542,9.98925752 10.9456026,9.90031686 10.7940754,9.84215253 C10.7072505,9.8088203 10.6157353,9.78589927 10.5215158,9.76997764 C10.3924167,9.74813525 10.2623398,9.72970462 10.1335157,9.70697117 C9.91650702,9.66869128 9.70027748,9.62774997 9.48348266,9.58876662 C9.35908918,9.56639663 9.2339318,9.5462777 9.10547437,9.5471453 C9.03015383,9.54764945 8.95451245,9.54920878 8.87961969,9.55507094 C8.71014083,9.56831942 8.54138004,9.56358279 8.3725123,9.54997086 C8.27057748,9.54176384 8.16916211,9.53934863 8.06843425,9.56062827 C8.03654907,9.56736975 8.00188328,9.56646698 7.96840919,9.56842494 C7.94084767,9.57003117 7.91570008,9.56352417 7.89250808,9.55221021 C7.87188278,9.54213902 7.85145609,9.5318099 7.83078496,9.52179733 C7.77663972,9.49554659 7.71812498,9.48637818 7.65441572,9.4907748 C7.59791768,9.49467899 7.54090018,9.49741076 7.48426463,9.4962266 C7.41827895,9.49484313 7.35250715,9.48777337 7.28652147,9.48476022 C7.2135843,9.48143052 7.14023462,9.4774208 7.06778634,9.48772647 C7.00688823,9.49637902 6.95035963,9.48772647 6.8953741,9.46799445 C6.88272392,9.46346886 6.86979873,9.4593888 6.85751522,9.45433562 C6.79029202,9.42672486 6.71894375,9.40830596 6.64435656,9.39785959 C6.59419888,9.39082501 6.54361342,9.38558424 6.49319602,9.37956966 C6.47903331,9.37789309 6.46374003,9.37874896 6.4494551,9.36705982 C6.46221223,9.36078731 6.4719596,9.35445618 6.48315837,9.35080992 C6.50554064,9.34350567 6.52836598,9.33671729 6.55164965,9.3314179 C6.60837686,9.3185446 6.66600548,9.30793409 6.72215213,9.29372422 C6.74801779,9.28715861 6.77305843,9.2762081 6.79515042,9.2636748 C6.820023,9.24957045 6.84591922,9.23920616 6.87540576,9.23271089 C6.95527914,9.21505407 7.03577893,9.21636719 7.11685928,9.22575837 C7.19751184,9.23509092 7.27446713,9.22865427 7.34309591,9.1910075 C7.44087511,9.13735703 7.54459745,9.09129219 7.64792257,9.04461769 C7.67277988,9.03339752 7.69687328,9.01982076 7.71688746,9.00394604 C7.73155435,8.9923038 7.74217256,8.97594838 7.74881849,8.96022607 C7.75784778,8.93881747 7.74663373,8.92393931 7.72005001,8.91434882 C7.7117235,8.91135912 7.70266365,8.90924875 7.69364963,8.90777148 C7.63123899,8.89748926 7.56892003,8.89923618 7.50757886,8.91185154 C7.42669712,8.9285118 7.35075018,8.95306251 7.29112015,9.00217567 C7.29218961,8.99527005 7.29480215,8.98952513 7.29753691,8.98379194 C7.33968891,8.89577751 7.3981731,8.81520801 7.47974234,8.7455773 C7.50895388,8.72065141 7.52194018,8.69243098 7.50733441,8.66106843 C7.49242308,8.62906105 7.47332558,8.5978861 7.45195166,8.56814151 C7.43510002,8.54469288 7.41397055,8.541328 7.38471318,8.55659306 C7.36095589,8.56898566 7.33956669,8.58476659 7.3199039,8.60106339 C7.28340476,8.63133557 7.24878481,8.6629795 7.21359957,8.69418963 C7.15638346,8.74494419 7.15189173,8.73387643 7.17033228,8.80918171 C7.17959075,8.84694573 7.15743764,8.86160113 7.10888416,8.85075613 C7.09108529,8.84678159 7.07340864,8.84223256 7.05622089,8.83688627 C7.03490808,8.83026203 7.01605503,8.83171585 6.99729364,8.8423967 C6.98821851,8.84756712 6.97717252,8.85239754 6.96634042,8.85360514 C6.92632733,8.85801349 6.88600869,8.86090939 6.84575116,8.86413358 C6.84271084,8.86437979 6.83944134,8.86272666 6.83108428,8.86071008 C6.83918162,8.85181132 6.84426919,8.84266636 6.85309988,8.83713248 C6.88015721,8.82019084 6.90807012,8.80401129 6.93663998,8.78864071 C6.98803518,8.76098305 7.0316997,8.72770944 7.06077374,8.68441155 C7.07021554,8.67034237 7.07741148,8.65431523 7.07985596,8.63863982 C7.08417963,8.61092354 7.07240029,8.60196616 7.037047,8.60440482 C7.00479514,8.60663244 6.9728794,8.61168562 6.94073449,8.61483946 C6.91022432,8.61785261 6.89948389,8.60942282 6.9041284,8.58568109 C6.90602287,8.57598508 6.90895625,8.56574975 6.91503689,8.55734341 C6.93427189,8.53069405 6.95475969,8.50458399 6.97578222,8.47875533 C6.98442957,8.46814482 6.99662141,8.45931641 7.00555904,8.44881143 C7.02189122,8.42966562 7.02569545,8.40860875 7.01608558,8.38670773 C7.00714795,8.36638949 6.98392539,8.35647072 6.95807502,8.36433773 C6.94369842,8.3687109 6.92999405,8.37701172 6.91962029,8.38606289 C6.90666455,8.3974003 6.89710052,8.41117637 6.88660453,8.42415519 C6.83873856,8.48339816 6.78266829,8.53764656 6.71394785,8.58264449 C6.67068055,8.61095871 6.62301319,8.6354508 6.57552916,8.65952082 C6.53119241,8.68196116 6.48020972,8.67932319 6.43034233,8.6758059 C6.41072537,8.67442243 6.40663087,8.66797406 6.4109851,8.65362349 C6.41203928,8.6501531 6.41477404,8.64698753 6.41596573,8.64354058 C6.42317694,8.62272992 6.4108476,8.60718348 6.38333192,8.60509655 C6.36982617,8.60407654 6.35470095,8.60454551 6.34235632,8.60835591 C6.31777402,8.61594154 6.29413895,8.625661 6.27094695,8.63569702 C6.23348529,8.65190002 6.19684865,8.66926373 6.15953977,8.68572467 C6.15006741,8.68991025 6.13946448,8.69254822 6.12774625,8.69644069 C6.12261284,8.68101149 6.13394912,8.67314448 6.14131311,8.66476159 C6.17631501,8.62478168 6.2216754,8.59252809 6.2693122,8.56205659 C6.31068503,8.53559481 6.34903281,8.50705783 6.38030687,8.47282282 C6.41659213,8.43308912 6.45477185,8.3944106 6.49139322,8.35487621 C6.50694622,8.33807527 6.52202561,8.3208288 6.5347369,8.30269128 C6.54410232,8.28937246 6.55074825,8.2745881 6.55583582,8.25986236 C6.56069423,8.2458049 6.55433858,8.23894618 6.53650915,8.23667166 C6.51163657,8.23348265 6.48778761,8.23540543 6.46821649,8.24981462 C6.46149417,8.254774 6.45516908,8.26012029 6.44801897,8.2647045 C6.40919757,8.2895835 6.35159951,8.27679227 6.335359,8.23945032 C6.33129505,8.23011777 6.32990475,8.22008175 6.32707832,8.21039747 C6.32299909,8.19644553 6.32229631,8.179117 6.30154878,8.17459141 C6.28032764,8.16996031 6.26911359,8.18516674 6.25715091,8.19587104 C6.23281306,8.21765482 6.21088913,8.24136139 6.18409151,8.26111686 C6.16261065,8.27694468 6.13694361,8.29046282 6.11037516,8.3006747 C6.08119418,8.31191832 6.07011763,8.30707618 6.05384656,8.28550343 C6.0497215,8.2800399 6.04600895,8.27441223 6.04163944,8.26910112 C6.02280166,8.2462387 6.01626268,8.24513662 5.98647058,8.25929959 C5.92694749,8.28760209 5.85946456,8.28936073 5.7913094,8.29770845 C5.79357055,8.27900816 5.80597628,8.2680811 5.81755701,8.25718921 C5.83237667,8.24330762 5.84967136,8.23095019 5.86348268,8.21651756 C5.88067043,8.19852074 5.89889708,8.18031288 5.91052364,8.16007671 C5.94072825,8.10736418 5.96821337,8.05369027 5.99560682,8.0000398 C6.01695019,7.95825434 6.00602642,7.9487342 5.94584638,7.95612051 C5.9473589,7.96038817 5.94864225,7.96453857 5.95032283,7.96859519 C5.97713572,8.03325479 5.96142994,8.06512148 5.8877747,8.10050546 C5.8724967,8.10784488 5.86033541,8.11915885 5.84701299,8.12886658 C5.83735729,8.13588944 5.82815994,8.14329921 5.81660977,8.15218624 C5.81126247,8.14521028 5.80640407,8.14169298 5.80608323,8.13796465 C5.80434154,8.11707192 5.80454015,8.09771507 5.82925995,8.08179345 C5.85744787,8.06362076 5.84870885,8.0360569 5.81106386,8.02462569 C5.8077027,8.04055903 5.80447904,8.05599996 5.80119427,8.07174571 C5.78536626,8.07443058 5.77109661,8.07684579 5.76049367,8.07865134 C5.75361857,8.11724778 5.74701848,8.15277246 5.74096839,8.18835576 C5.73091547,8.24759872 5.7056151,8.30215196 5.66037694,8.35080787 C5.65428102,8.35736176 5.64795592,8.36411497 5.64390725,8.37150129 C5.63261681,8.39210091 5.62103609,8.41273571 5.61225124,8.43401534 C5.60273304,8.45714741 5.59837881,8.48163951 5.58794394,8.5044902 C5.54921421,8.58916321 5.53738903,8.67626315 5.54111687,8.76564933 C5.54346968,8.82243019 5.54113214,8.87936346 5.5399099,8.93620295 Z M6.62889522,7.96941589 L6.62889522,7.96942761 C6.61219637,7.94356377 6.61968259,7.93066703 6.65384419,7.92725525 C6.69874624,7.92276484 6.73874404,7.93182773 6.77195842,7.9567888 C6.78584612,7.96723517 6.80023799,7.9772829 6.81873965,7.9906369 C6.81927438,7.96197095 6.80757143,7.94512311 6.77941408,7.93675195 C6.73831626,7.92453521 6.69691288,7.91296331 6.65566228,7.90108658 C6.64412739,7.89774515 6.63266889,7.89427475 6.61684088,7.88958502 C6.65631923,7.86528052 6.70944084,7.86771918 6.7389121,7.8364856 C6.73413009,7.83480902 6.73194533,7.83327314 6.73014253,7.83350762 C6.67941957,7.84013186 6.63062163,7.85020305 6.59183079,7.87902142 C6.56854712,7.89630306 6.55424691,7.8946382 6.53634109,7.87340547 C6.53189519,7.86812953 6.52833542,7.86239634 6.52369091,7.85723764 C6.51673942,7.84949959 6.50764901,7.84231258 6.49498355,7.8481044 C6.48253198,7.85381414 6.484182,7.86428395 6.49104182,7.87198683 C6.50411979,7.88668912 6.51874084,7.90059416 6.53365216,7.91422954 C6.54336897,7.92310484 6.55618722,7.93005736 6.56506373,7.93934302 C6.5830765,7.95819572 6.57982228,7.96984969 6.55540804,7.98445819 C6.55105381,7.98707271 6.54714264,7.99007413 6.5371661,7.99688596 C6.58000562,7.99981704 6.59982118,7.97653255 6.62889522,7.96941589 Z M7.03147053,7.61504845 L7.03145525,7.61503673 C7.07327114,7.61717055 7.09403394,7.63176733 7.10442298,7.66317677 C7.10761609,7.67273208 7.10860916,7.68280327 7.11264255,7.69211238 C7.11644677,7.70092906 7.12290936,7.70905401 7.12819555,7.71747207 C7.1317706,7.71668654 7.1353151,7.71591274 7.13887487,7.71512721 C7.15335842,7.68122049 7.15241118,7.64716135 7.12999836,7.61513052 C7.12387188,7.60637246 7.10697441,7.59720404 7.0946909,7.59691094 C7.03946093,7.59560954 6.98407817,7.59688749 6.92880237,7.59851717 C6.91731331,7.59885717 6.90353256,7.60262068 6.90452563,7.62019543 C6.92567038,7.61933955 6.94580678,7.61855402 6.96594319,7.6176747 C6.98780601,7.61672503 7.00980633,7.61392292 7.03147053,7.61504845 Z M7.38508318,7.4706221 C7.41274834,7.43061226 7.4112071,7.39851102 7.37706876,7.36783773 C7.36820666,7.35998405 7.32412736,7.35531578 7.29415035,7.35342101 C7.28212872,7.35262465 7.25138109,7.36333422 7.25161228,7.36871646 C7.25292233,7.40587042 7.26764112,7.44170627 7.38508318,7.4706221 Z M6.27869552,7.92877308 C6.24280147,7.92877308 6.20688057,7.92600551 6.17112076,7.92945363 C6.12926674,7.93353692 6.12395109,7.9483729 6.12642099,8.04496551 C6.16365737,7.93943502 6.23364674,7.99632893 6.27869552,7.92877308 Z M7.75268382,6.87065993 L7.75268382,6.83527595 C7.73826139,6.83379869 7.72721539,6.83266143 7.71508466,6.83140693 C7.71124988,6.76538731 7.71705552,6.7008684 7.71179989,6.63582189 L7.48675494,6.63582189 L7.48675494,6.8319228 C7.47153806,6.83341178 7.46035456,6.83453732 7.44776549,6.8357801 L7.44776549,6.87103511 C7.48145348,6.87659244 7.72620704,6.87602967 7.75268382,6.87065993 Z M8.16758848,6.42696959 C8.13274048,6.51521179 8.06023969,6.48865082 8.01480847,6.37221732 C8.06837687,6.3433467 8.11651505,6.38091247 8.16758848,6.42696959 Z M7.09449228,6.41809843 C7.04817329,6.48597087 6.97655142,6.5010095 6.94171228,6.45475863 C6.97791375,6.35221223 7.04877272,6.33217964 7.09449228,6.41809843 Z M7.9488077,4.04864064 L7.94878712,4.04862891 C7.94917799,4.06269809 7.95012431,4.07676727 7.95084433,4.09122335 L8.10139059,4.09122335 C8.10139059,4.06748161 8.10143174,4.04604956 8.10139059,4.02460579 C8.10139059,3.97201051 8.10139059,3.97199879 8.0221882,3.94486872 C8.02091273,3.94444664 8.0192464,3.94439975 8.01511141,3.94376663 C7.94876655,3.9683408 7.94876655,3.9683408 7.94874598,4.01087662 C7.94872541,4.02346853 7.94845797,4.03604872 7.9488077,4.04864064 Z M8.08818871,3.99858574 C8.07926349,3.9227461 8.04905506,3.88061297 8.0076901,3.88135215 C7.96754807,3.88209133 7.93950658,3.91292982 7.9354087,3.96085811 C8.00168274,3.9421717 8.00168274,3.9421717 8.08818871,3.99858574 Z M7.2166322,3.99560823 L7.2166322,3.99558372 C7.2223631,3.9884771 7.22776274,3.98075785 7.23326176,3.97316112 C7.25674854,3.94078926 7.26922072,3.93880431 7.29578827,3.96549088 C7.30922112,3.97896894 7.32139516,3.99541218 7.3350102,4.00842464 C7.34089018,4.01403642 7.3490062,4.01430598 7.35907669,4.01815335 C7.34738299,3.97169079 7.3399295,3.95657085 7.31826469,3.93157516 C7.26726625,3.87278629 7.22150181,3.89981594 7.20629669,4.00158759 C7.21207729,3.99837736 7.21484336,3.99786274 7.2166322,3.99560823 Z M7.23008454,4.1087512 L7.38286454,4.1087512 L7.38286454,3.98402793 L7.23008454,3.98402793 L7.23008454,4.1087512 Z M7.34419811,3.87222736 L7.34419811,3.87219949 C7.37123295,3.87735518 7.37464733,3.8703323 7.37116292,3.80974598 C7.35839841,3.81598855 7.34601911,3.82025244 7.33453281,3.82802778 C7.31763603,3.83950964 7.30261278,3.84536204 7.28779965,3.81969507 C7.28359734,3.8123935 7.27085034,3.80712634 7.2671208,3.81169678 C7.25269288,3.82944908 7.23877273,3.8496538 7.22782923,3.87284047 C7.22191098,3.88538133 7.22247128,3.90583688 7.21951216,3.92698914 C7.24943609,3.92467605 7.27219858,3.92386786 7.2869767,3.88387643 C7.29107395,3.87278473 7.30385596,3.86648643 7.31310104,3.86492579 C7.32318658,3.86317007 7.33374487,3.87027656 7.34419811,3.87222736 Z M7.16544332,6.09560061 L7.16539748,6.09558888 L7.16539748,6.12255481 C7.1681628,6.12379759 7.17089756,6.12502864 7.17366288,6.12627142 C7.1810116,6.11907269 7.19023951,6.11258914 7.19531181,6.10451109 C7.20638836,6.08690117 7.22359139,6.07928036 7.24817369,6.07996037 C7.26204611,6.080359 7.27601021,6.07952657 7.28982152,6.08032383 C7.31283019,6.08164867 7.31866638,6.08651426 7.31709275,6.10401867 C7.31588579,6.11747818 7.3121274,6.13077355 7.31041626,6.14420962 C7.30887318,6.15648498 7.3074065,6.16915896 7.32412063,6.17845635 C7.32694706,6.17527906 7.32992627,6.17341489 7.33026239,6.17129279 C7.33264575,6.15703602 7.33492218,6.14274408 7.33640414,6.12841697 C7.34048337,6.08885913 7.35958087,6.0704285 7.40799685,6.05844625 C7.4190734,6.05570276 7.43250276,6.05583173 7.44205151,6.04686263 C7.34404314,6.03038997 7.09658537,6.06175251 7.03973593,6.10045447 C7.0850352,6.09870755 7.12431494,6.09719512 7.16544332,6.09560061 Z M8.07355238,5.03813839 C8.05925218,4.98568605 8.05028399,4.9655333 8.02956702,4.95203373 C7.98584138,4.92354382 7.94057267,4.91432325 7.89380671,4.92553149 C7.95112977,4.97182758 8.00998062,5.00835098 8.07355238,5.03813839 Z M8.22430825,3.61748223 L8.2243349,3.61748223 C8.24346467,3.57877367 8.26882893,3.54598367 8.2578786,3.50070949 C8.19955678,3.4984258 8.15029363,3.50369732 8.10774455,3.53348046 C8.13542676,3.5696389 8.17608418,3.59207617 8.22430825,3.61748223 Z M7.57150201,5.40261149 L7.57150201,5.18863101 L7.34612095,5.18863101 C7.34583067,5.26254109 7.3452501,5.33405942 7.34644179,5.4050267 C7.40293983,5.41067782 7.54827945,5.40875503 7.57150201,5.40261149 Z M7.72869736,4.96624808 C7.70416089,4.93478424 7.69638439,4.92776505 7.67044234,4.92484595 C7.63233901,4.92058986 7.59406762,4.91952027 7.55590317,4.91700227 C7.54368077,4.91622236 7.53150421,4.91526419 7.52001515,4.91443971 C7.51482063,4.85494364 7.51482063,4.85494364 7.48383685,4.86352266 C7.47735897,4.91606638 7.47662563,4.91711369 7.43986676,4.91836155 C7.42943189,4.91869579 7.41895118,4.91742565 7.40854686,4.91836155 C7.39585084,4.91947571 7.3828951,4.92043388 7.37061158,4.92482367 C7.36523373,4.92674002 7.35774751,4.93672288 7.35748778,4.9435861 C7.3571975,4.95098411 7.36315592,4.96261593 7.36828933,4.96600297 C7.37757835,4.97204171 7.38825768,4.97554017 7.39846338,4.97609725 C7.4204637,4.97730054 7.44252513,4.97645378 7.46455601,4.97556245 C7.53756957,4.97268792 7.61055258,4.96932316 7.68358142,4.96631493 C7.69612466,4.96578014 7.7086679,4.96624808 7.72869736,4.96624808 Z M7.82690435,4.88987794 L7.82691962,4.88990845 C7.82915021,4.86965041 7.83105996,4.85235175 7.83341277,4.83120894 C7.853045,4.83120894 7.87125638,4.83072079 7.88945248,4.83133097 C7.9056166,4.83188014 7.90949722,4.81528319 7.90523465,4.78263845 C7.85755201,4.76762797 7.7620034,4.76994666 7.73531273,4.78700125 C7.73551135,4.86409775 7.7702688,4.81275093 7.78487457,4.84316851 C7.78646348,4.8558908 7.78863295,4.8729759 7.79077187,4.88987794 L7.82690435,4.88987794 Z M7.19722156,9.40718224 L7.19722156,9.4071984 C7.20719809,9.39396435 7.22026078,9.39061948 7.23460682,9.39357654 C7.2491362,9.39656592 7.26334474,9.40147819 7.27766023,9.40558252 C7.28685759,9.40821641 7.29602439,9.41089877 7.30519119,9.41359728 C7.292266,9.38116659 7.26578922,9.37013014 7.24227638,9.35623358 C7.21942049,9.34272483 7.2003841,9.31882598 7.16507664,9.31882598 C7.18107271,9.3367784 7.19326456,9.35049721 7.20803838,9.36707613 C7.18481582,9.38105348 7.16703223,9.3813605 7.14865279,9.36911214 C7.14298466,9.36533098 7.13597205,9.35878667 7.13091504,9.35999858 C7.10457576,9.36628435 7.08051291,9.35600736 7.05557922,9.3514021 C7.04705409,9.3498347 7.03805535,9.35115972 7.02441209,9.35115972 C7.03599282,9.38126355 7.04560268,9.40627735 7.05596117,9.43316558 C7.07227807,9.44155199 7.08391991,9.43024084 7.09699787,9.4186873 C7.1189982,9.3991998 7.14413051,9.39486925 7.15991268,9.41051095 C7.17572541,9.42618498 7.18616029,9.4219029 7.19722156,9.40718224 Z M7.69916498,9.26127348 C7.69876776,9.21482364 7.68491061,9.19734617 7.66592006,9.18728813 C7.64378223,9.17558423 7.62173608,9.16333171 7.59947603,9.15235931 C7.55863794,9.13211261 7.54189325,9.14577586 7.51602759,9.22684103 C7.54976142,9.20129101 7.5781785,9.20834469 7.60459416,9.23953767 C7.60722198,9.24264652 7.61169843,9.24499775 7.61446375,9.24337801 C7.64311,9.22621404 7.67022845,9.24194115 7.69916498,9.26127348 Z M7.51795262,3.86224941 L7.51793734,3.86224941 C7.53061808,3.86139466 7.54339049,3.8630431 7.55608651,3.862168 C7.57872851,3.86060096 7.60691642,3.83495847 7.61944438,3.80571382 C7.56320606,3.83341178 7.54986836,3.82417235 7.51894569,3.81645925 C7.52079433,3.79901829 7.52264297,3.78139416 7.52449161,3.76374969 C7.52073322,3.75996437 7.51699011,3.7561994 7.51323172,3.75241408 C7.48774801,3.79450032 7.45418225,3.82541377 7.4288666,3.86965724 C7.46133235,3.86690983 7.48962721,3.86414207 7.51795262,3.86224941 Z M6.7749529,8.15263177 L6.7749529,8.15262004 C6.77001811,8.16228088 6.76656528,8.17238724 6.76242494,8.18230601 C6.7648847,8.18390052 6.76735974,8.18550675 6.76985005,8.18711298 C6.77950575,8.18258739 6.78939061,8.17835492 6.79875603,8.17346588 C6.8093284,8.16794372 6.81967161,8.16211674 6.82964815,8.15596147 C6.84135109,8.14872757 6.85343599,8.14774273 6.86393198,8.15605527 C6.87997388,8.1687996 6.8989186,8.1807584 6.90932292,8.19607036 C6.94226229,8.24444488 6.99469638,8.27598329 7.05249306,8.30364095 C7.05693896,8.30577478 7.06329461,8.30552857 7.06876413,8.30640789 C7.05991817,8.29491806 7.04786383,8.28794209 7.03787201,8.27947714 C7.01292304,8.25832647 6.9881574,8.23696477 6.96498067,8.21461822 C6.95734167,8.20725535 6.95303328,8.19698485 6.95045129,8.18748816 C6.94658596,8.17319622 6.95662361,8.16688853 6.97419331,8.17150792 C6.98360456,8.17398175 6.99245052,8.17773353 7.00155621,8.18091082 C6.97998367,8.15602009 6.95512636,8.13418942 6.92883292,8.11346083 C6.92495231,8.11041251 6.91305075,8.11061182 6.90687844,8.11275737 C6.86261807,8.12825692 6.82824257,8.11602845 6.79841991,8.09051634 C6.78129327,8.07584922 6.76569444,8.06003312 6.7479414,8.04587015 C6.73848432,8.03829624 6.72681192,8.0313789 6.71443674,8.02727539 C6.70116016,8.02289049 6.68345296,8.01698144 6.67219307,8.02753332 C6.66024568,8.03871832 6.6724528,8.05031367 6.68207794,8.05880207 C6.69807401,8.07291815 6.71596454,8.08580317 6.73380925,8.09857095 C6.74140241,8.10401103 6.75105811,8.10765729 6.75952212,8.11238219 C6.78547945,8.12687345 6.78642668,8.13015625 6.7749529,8.15263177 Z M7.85420613,7.24147449 L7.85420613,7.24149479 C7.8533964,7.23601302 7.85258666,7.23057186 7.85177693,7.22511039 C7.84111289,7.2243998 7.82953216,7.21968953 7.81998341,7.2237298 C7.77289661,7.24364689 7.72428202,7.2437281 7.67592715,7.24793079 C7.66666868,7.24872261 7.65756299,7.25213348 7.64839619,7.25432619 C7.65589769,7.26620336 7.66318529,7.27186785 7.67027429,7.27146179 C7.69010513,7.27036544 7.70267892,7.28067929 7.71129572,7.30512391 C7.71561939,7.31738683 7.72493897,7.3264622 7.73357104,7.33935451 C7.75124769,7.28169443 7.75126297,7.28185685 7.79506499,7.27142119 C7.80414013,7.26928939 7.81330693,7.26656881 7.82186261,7.26212248 C7.83295443,7.25627526 7.84345042,7.24843837 7.85420613,7.24147449 Z M7.76597568,3.9718263 L7.7659604,3.9718263 C7.74756569,3.94039244 7.72411396,3.9137959 7.70046361,3.88744385 C7.67277988,3.8566212 7.64181137,3.85344289 7.60907062,3.87541167 C7.59121063,3.88742639 7.57342704,3.899965 7.55689624,3.91424995 C7.54743916,3.92242275 7.53837931,3.9334246 7.54068629,3.95268657 C7.56737695,3.94882719 7.58697863,3.93235934 7.60680947,3.91734094 C7.63015426,3.89968559 7.65455322,3.89645489 7.67893691,3.91084461 C7.69722468,3.9216369 7.71413742,3.93578214 7.73089739,3.94968289 C7.74095032,3.95801286 7.74952127,3.96878769 7.75877974,3.97846233 C7.76117839,3.97626196 7.76357703,3.97402667 7.76597568,3.9718263 Z M7.85225055,9.10976971 C7.86181458,9.1049556 7.8700647,9.10146862 7.87747453,9.09695377 C7.9122167,9.07574565 7.94709638,9.05466764 7.98113576,9.03263983 C7.99477901,9.0238313 8.00322775,9.0115358 8.00199023,8.99252656 C7.96387162,9.00847818 7.92786137,9.0214893 7.89447894,9.03839074 C7.87825371,9.04660075 7.86584797,9.06132933 7.85371724,9.07448357 C7.84525322,9.08365641 7.83889758,9.09508016 7.85225055,9.10976971 Z M8.29329587,8.81013166 C8.3133406,8.77107329 8.34592858,8.75551499 8.3810527,8.74435545 C8.39996686,8.73836491 8.41901853,8.73281937 8.43767297,8.72590457 C8.44897869,8.72169407 8.45967329,8.71520716 8.47064289,8.70976433 C8.46964982,8.70659789 8.46867203,8.70338011 8.46767896,8.70019657 C8.42289914,8.68658947 8.37836377,8.69389793 8.3345923,8.70651231 C8.32379075,8.70961028 8.31196558,8.72109502 8.30651134,8.73237436 C8.29526673,8.75568615 8.291325,8.78214725 8.29329587,8.81013166 Z M7.53966266,8.83913734 C7.56710998,8.8410953 7.5885974,8.84261946 7.6114993,8.84424914 C7.60317134,8.80727065 7.60380706,8.80439819 7.63122259,8.77290668 C7.64504955,8.75705541 7.6600685,8.74177862 7.67389546,8.72591562 C7.68082484,8.71796654 7.68630794,8.70932572 7.69244266,8.70098973 C7.68994745,8.69961798 7.68745224,8.69823451 7.68495703,8.69686277 C7.61532953,8.73005431 7.57864834,8.78194613 7.53966266,8.83913734 Z M7.20624966,3.74221409 C7.21204564,3.74417691 7.22093701,3.74022947 7.22558011,3.73449368 C7.2395094,3.71728631 7.25203313,3.69787622 7.26439893,3.68034172 C7.22883343,3.60834993 7.16640431,3.60745576 7.11161892,3.6762198 C7.14010922,3.70854086 7.17144223,3.73041538 7.20624966,3.74221409 Z M7.68414671,9.41053358 L7.68416199,9.41052186 C7.68176334,9.4019631 7.6820689,9.39882099 7.68022026,9.39703889 C7.64534059,9.36363632 7.61067481,9.33012822 7.57475623,9.29742911 C7.56858391,9.29182488 7.55735458,9.28851863 7.54765305,9.28654894 C7.51793734,9.28051092 7.4551906,9.29493183 7.42358041,9.31677423 C7.44405293,9.31394867 7.45800175,9.31173277 7.47204223,9.31014999 C7.49248419,9.30787547 7.51295671,9.3056713 7.5335209,9.30419404 C7.54971558,9.30302161 7.55770598,9.31007964 7.56386301,9.32160465 C7.57119645,9.33536899 7.57976741,9.34987197 7.5926926,9.36041213 C7.61085814,9.37521994 7.63327097,9.38697943 7.65446155,9.39938376 C7.66133665,9.4034052 7.67018262,9.40538661 7.68414671,9.41053358 Z M7.35861835,8.12239476 L7.35863363,8.12239476 C7.37939643,8.10772764 7.3840715,8.09181774 7.38833407,8.07649406 C7.39505639,8.05245922 7.41181635,8.0364907 7.44133345,8.02740435 C7.45441142,8.02338291 7.47013248,8.02032287 7.47590756,8.00429573 C7.46447962,8.00299433 7.45464059,8.00152879 7.44474044,8.00077843 C7.40443708,7.99774183 7.38402567,8.02770919 7.35117797,8.03633828 C7.33582358,8.02643123 7.32155393,8.0172042 7.30633704,8.0073675 C7.2953216,8.02296084 7.29973694,8.03353617 7.31070654,8.04275148 C7.32323451,8.05323302 7.34080421,8.06155728 7.34835154,8.07375057 C7.35631138,8.08660042 7.35499747,8.10289722 7.35861835,8.12239476 Z M7.44218902,8.4608992 C7.44759743,8.46868414 7.44918634,8.47802842 7.45387669,8.48620027 C7.46009483,8.49698664 7.46825329,8.50664747 7.49071195,8.50532263 C7.4890772,8.49505213 7.48828274,8.48556715 7.48589938,8.47634012 C7.48316461,8.46579996 7.47803121,8.45561153 7.47570895,8.4450362 C7.47030054,8.42036824 7.45256278,8.40450524 7.42234289,8.39668512 C7.40700378,8.39273402 7.39146606,8.38916983 7.37640195,8.38465597 C7.34676263,8.37578066 7.34364591,8.36648328 7.36367537,8.34659884 C7.37291856,8.33739526 7.38420901,8.329411 7.39303969,8.3200081 C7.40669822,8.30546994 7.41892062,8.29015799 7.41140385,8.26879629 C7.40429958,8.27144598 7.3975467,8.27282945 7.39270357,8.27600674 C7.37767002,8.28583172 7.36265175,8.29579738 7.3489321,8.30668927 C7.32676372,8.32427575 7.30340366,8.3395877 7.27122819,8.34523882 C7.26248918,8.34678643 7.25498768,8.35266031 7.24737923,8.35630658 C7.25630159,8.37356477 7.27231293,8.37615584 7.28841594,8.37825449 C7.33689304,8.38459735 7.37559221,8.40654527 7.41392472,8.42790697 C7.42686518,8.43514087 7.4340764,8.44922178 7.44218902,8.4608992 Z M8.13527348,8.05693054 L8.13525448,8.05693054 C8.13476048,8.04048271 8.13584347,8.03907253 8.11387969,8.03125244 C8.08555097,8.02112478 8.06993313,8.00752295 8.06934413,7.98498571 C8.06919214,7.97862708 8.06113622,7.96937117 8.0530423,7.96670465 C8.02908353,7.95880764 7.98327499,7.97913987 7.982534,7.99780553 C7.982002,8.01145864 7.98686595,8.02517585 7.98789194,8.03891869 C7.98893693,8.05205901 7.98813894,8.06522496 7.98813894,8.0821984 C8.01705665,8.0708144 8.03776645,8.05843046 8.06145921,8.05455887 C8.08450598,8.05078985 8.11059272,8.05577676 8.13527348,8.05693054 Z M7.73622941,3.72267219 L7.73621414,3.72264132 C7.77899254,3.72514231 7.821939,3.72822995 7.86459517,3.72319709 C7.88347878,3.72097399 7.90217905,3.7017071 7.92023765,3.68657764 C7.92640996,3.68142128 7.93038224,3.66511852 7.93519481,3.6542809 C7.93157393,3.64631478 7.93032113,3.64115841 7.92847249,3.63992335 C7.86621464,3.59802404 7.80308594,3.60176008 7.74023225,3.63032078 C7.7242209,3.63760762 7.70856095,3.6575538 7.70274004,3.70396107 C7.71484021,3.71106265 7.7254737,3.72202379 7.73622941,3.72267219 Z M7.74987267,8.46707791 L7.74988795,8.46705446 C7.7408892,8.471029 7.73424327,8.47639874 7.72739873,8.47656288 C7.69959277,8.47721944 7.68796621,8.49187484 7.67618687,8.50805439 C7.65679909,8.53466859 7.63589878,8.56062622 7.61614433,8.58712318 C7.60885672,8.59690126 7.59935381,8.60669106 7.60601502,8.62119404 C7.62618198,8.6180402 7.63944328,8.60798073 7.65099345,8.59714747 C7.6701979,8.57911547 7.68863844,8.56053243 7.70599425,8.54142179 C7.73320437,8.51147789 7.76932156,8.49784251 7.81636253,8.5010198 C7.83054051,8.50196947 7.84491711,8.50117222 7.85920204,8.50117222 C7.86126457,8.49839356 7.86331182,8.49561489 7.86537435,8.49283623 C7.86072984,8.49182794 7.85574921,8.49137069 7.85150193,8.48972929 C7.82945577,8.48115881 7.81028188,8.47082969 7.80009145,8.45164871 C7.79699002,8.44582173 7.78398844,8.44080372 7.7747147,8.43976025 C7.73940724,8.43584433 7.70374838,8.43367533 7.66822703,8.4308615 C7.69603299,8.44428584 7.73224186,8.43869334 7.74987267,8.46707791 Z M7.19612552,3.54531577 L7.19612552,3.54530405 L7.19612552,3.42051043 C7.14456419,3.43461478 7.09887264,3.45399508 7.05369083,3.47392641 C7.04819178,3.4763299 7.04429919,3.48419691 7.04399026,3.48968389 C7.04287809,3.51018972 7.0435423,3.53073072 7.0435423,3.55654767 C7.09700358,3.55262002 7.14524385,3.54906755 7.19612552,3.54531577 Z M7.57428261,3.70926195 L7.57428261,3.70928353 C7.61478459,3.70598249 7.6222097,3.69085812 7.61788602,3.63325173 C7.61739713,3.6266928 7.61612905,3.62024175 7.61415819,3.60634718 C7.60062188,3.6037797 7.58826198,3.59957249 7.57591735,3.59950777 C7.52142073,3.59927044 7.46690882,3.59978825 7.41241219,3.60099647 C7.39624807,3.60136325 7.37994644,3.60362867 7.36395038,3.60716704 C7.34405842,3.61161158 7.34016253,3.62108319 7.34479176,3.64775042 C7.35296549,3.69484957 7.36890045,3.71605821 7.40759962,3.7165976 C7.46315043,3.71733116 7.51879291,3.71381437 7.57428261,3.70926195 Z M7.88260794,6.3440623 L7.88266905,6.34407403 C7.88361628,6.34252642 7.88456352,6.34097881 7.88552603,6.3394312 C7.87577867,6.33559735 7.86650492,6.3303683 7.85617699,6.32822275 C7.83174747,6.32311095 7.8152014,6.31506807 7.81274164,6.29241669 C7.81109162,6.2773744 7.79552333,6.2751116 7.77986338,6.28561659 C7.77466886,6.28911044 7.7701313,6.29338981 7.76617429,6.29777471 C7.75386023,6.31138664 7.73676414,6.31821019 7.71587912,6.31825708 C7.68578146,6.31833915 7.65545462,6.31906606 7.62564725,6.31654533 C7.56598665,6.31148043 7.56186159,6.3072714 7.55461982,6.26111277 C7.5523434,6.24660979 7.54831001,6.23310338 7.52598885,6.2285778 C7.50298018,6.25098296 7.51283449,6.27815993 7.50447742,6.30281616 C7.49517312,6.30348445 7.48736606,6.30435205 7.47955901,6.30457481 C7.43681116,6.30578241 7.39395637,6.3055831 7.35139186,6.30830314 C7.3156719,6.31060111 7.27992137,6.31543152 7.24844869,6.33038003 C7.23743325,6.33560907 7.22331638,6.33995879 7.22372889,6.3552004 C7.23494294,6.35649008 7.24496531,6.35879977 7.25491129,6.35858873 C7.46412823,6.35392245 7.67336044,6.34896307 7.88260794,6.3440623 Z M7.89675536,6.10078972 C7.943888,6.10057489 7.98669695,6.10734907 8.00859033,6.15574221 C8.01648905,6.17315744 8.02784061,6.17354413 8.03940605,6.15800504 C8.05573824,6.13600686 8.07827329,6.12821584 8.10450561,6.12556632 C8.1206239,6.12393364 8.13686442,6.12274493 8.15273826,6.11983762 C8.16057588,6.11839113 8.16772598,6.11345013 8.17907753,6.10833727 C8.15284521,6.08480666 8.12470313,6.07821866 8.09675967,6.07329199 C7.99855268,6.05597701 7.89894012,6.05441594 7.79949561,6.05211014 C7.77410358,6.05150863 7.74860459,6.05369985 7.72319728,6.05533253 C7.71470271,6.05587676 7.70639148,6.05865517 7.69798858,6.06043107 C7.71881249,6.06815048 7.73920862,6.07154473 7.75977281,6.07291962 C7.7948511,6.07531135 7.82858493,6.07836188 7.8307544,6.12580979 C7.86337293,6.10416964 7.87134805,6.10090429 7.89675536,6.10078972 Z M8.56284563,7.79321115 L8.56284563,7.79319943 C8.58412788,7.80655342 8.58568624,7.81351766 8.57433468,7.83298003 C8.57144714,7.83790424 8.5679332,7.84259397 8.56483177,7.84743611 C8.5396689,7.88670084 8.54691067,7.91138053 8.59269884,7.94198099 C8.61026854,7.93814714 8.61097133,7.92522694 8.61743392,7.91503851 C8.62096314,7.90946946 8.6290452,7.90565906 8.63504946,7.9010514 C8.64065648,7.90611631 8.64788298,7.910595 8.6515497,7.91641026 C8.65729423,7.92548488 8.66064011,7.93545055 8.66513184,7.94538104 C8.70228794,7.93155807 8.70868942,7.9173482 8.68957664,7.89558787 C8.68180014,7.88674774 8.67131943,7.87932625 8.66170957,7.87150613 C8.63248275,7.84775267 8.6319633,7.83489109 8.66204568,7.81232178 C8.67614728,7.801723 8.69325864,7.79352771 8.70755885,7.78304617 C8.71454089,7.77793437 8.72430354,7.7679687 8.72201184,7.76395898 C8.71810067,7.75714716 8.70653522,7.7511912 8.69660452,7.7486353 C8.66526934,7.74061587 8.64592739,7.7538409 8.63184108,7.77641021 C8.58368482,7.76966872 8.54461897,7.74476628 8.49453769,7.75082775 C8.49718078,7.75619749 8.50239058,7.75823752 8.50706565,7.76088721 C8.5257812,7.77152117 8.54480231,7.78189719 8.56284563,7.79321115 Z M7.71986667,7.70242978 L7.71982084,7.70241805 C7.71647496,7.68505434 7.71647496,7.68505434 7.70119696,7.67315416 C7.68237446,7.65852221 7.68161056,7.65246074 7.69918026,7.63676188 C7.72388479,7.61466155 7.75509774,7.60357035 7.79225384,7.6120353 C7.82204594,7.61880023 7.85076858,7.62875418 7.879369,7.63837984 C7.89907762,7.64502753 7.91845012,7.65098348 7.94833389,7.6501745 C7.93271978,7.63963434 7.92347659,7.63155629 7.91214031,7.62615138 C7.89342476,7.61725262 7.87305919,7.61047597 7.85397696,7.60202274 C7.84279347,7.59707508 7.83274054,7.5906267 7.82218344,7.58484661 C7.82276401,7.58266589 7.82334457,7.58046172 7.82390986,7.57826927 C7.83527669,7.57549061 7.84649074,7.57216091 7.85805619,7.57001536 C7.87376197,7.567096 7.89043027,7.56653323 7.90544855,7.56231248 C7.9262419,7.55646205 7.94000738,7.54175976 7.93498092,7.53284928 C7.92741831,7.51948356 7.91042917,7.52025736 7.89586924,7.52086703 C7.81993758,7.52400914 7.74447953,7.52878094 7.6935274,7.58220864 C7.69149543,7.58435419 7.68877594,7.58618319 7.68604118,7.58782459 C7.6484573,7.61027666 7.62635003,7.63965779 7.62045273,7.67877011 C7.65397266,7.68127911 7.68031193,7.70318013 7.71986667,7.70242978 Z M7.94601164,9.46031502 L7.94602692,9.46031502 C7.96293966,9.46960068 7.96480358,9.46839308 7.97931768,9.44937624 C7.95734791,9.43456843 7.94892974,9.41529365 7.95062559,9.39214985 C7.95111449,9.38557251 7.94313937,9.37791653 7.93708928,9.37196058 C7.93223088,9.36718879 7.92393493,9.36464461 7.91799178,9.36041213 C7.9079083,9.3532603 7.90176655,9.34409188 7.90796942,9.33382138 C7.9146459,9.32273018 7.92862527,9.32416055 7.94147407,9.32533298 C7.94491162,9.32563781 7.94885335,9.3258723 7.95151172,9.32730266 C7.97199952,9.33840559 7.99433595,9.3377373 8.01797102,9.33635384 C8.03369208,9.33542761 8.04988676,9.33936698 8.06586755,9.34117253 C8.07980109,9.34274359 8.09404018,9.34731607 8.11165572,9.33847594 C8.07891496,9.32481711 8.05266736,9.30903618 8.01845992,9.30496784 C8.01094314,9.30407679 8.00220412,9.29788636 7.99882768,9.2923642 C7.99711655,9.28951519 8.00475555,9.28160128 8.01033202,9.27799019 C8.03876438,9.25950095 8.03827548,9.24424761 8.00472499,9.22431628 C7.99650543,9.23642749 7.9878428,9.2479056 7.98078437,9.2599582 C7.97296203,9.27331219 7.96022018,9.27896331 7.9420088,9.27749777 C7.93403368,9.27684121 7.92590579,9.27590326 7.91831262,9.27398048 C7.89614424,9.26841143 7.87417448,9.26226789 7.84824771,9.25531537 C7.85260194,9.26305341 7.85516865,9.26777831 7.85788813,9.27246804 C7.8689494,9.29152005 7.86684104,9.29688979 7.84244207,9.30633959 C7.82899743,9.31155691 7.81459028,9.31523834 7.80100813,9.32025635 C7.77946615,9.32821716 7.75742,9.335709 7.73347937,9.35362375 C7.76140756,9.35569896 7.78152868,9.35805554 7.8017262,9.35847762 C7.83397806,9.35915763 7.85804091,9.36834949 7.86813967,9.3935685 C7.88082041,9.42528277 7.91383617,9.44264648 7.94601164,9.46031502 Z M8.16060643,8.45793294 L8.16062171,8.45793294 C8.14707012,8.47982224 8.14167699,8.50107842 8.15504524,8.52524224 C8.16563289,8.54438805 8.15602303,8.56306488 8.13545884,8.57624301 C8.11584189,8.58881148 8.09416241,8.59944543 8.07385794,8.61139251 C8.06734952,8.61523808 8.0622925,8.62058437 8.05558546,8.62600101 C8.07544686,8.63815912 8.08974707,8.63152316 8.10328337,8.6247465 C8.12960737,8.6115332 8.15591609,8.59828472 8.18129284,8.58401623 C8.19890838,8.57412091 8.21600446,8.56338144 8.23138941,8.55149298 C8.2461174,8.54009695 8.25864536,8.52693054 8.27164694,8.51423311 C8.29732926,8.4891548 8.31286698,8.48908445 8.33949654,8.51416276 C8.3407035,8.51528829 8.34356049,8.51533519 8.35069531,8.51722281 C8.35914405,8.50864061 8.37194701,8.50002324 8.37747765,8.48911962 C8.38965421,8.46510822 8.40998923,8.45842536 8.44045357,8.46467442 C8.44618282,8.46584686 8.45263013,8.46483857 8.46245389,8.46483857 C8.42016438,8.43507053 8.40212106,8.37580411 8.42164635,8.33544902 C8.44338694,8.29050972 8.48138333,8.25512573 8.53294658,8.22750325 C8.52344366,8.22663565 8.51468937,8.22635426 8.5088379,8.22941431 C8.48592089,8.24140828 8.46149137,8.25255811 8.44201192,8.26749489 C8.38760696,8.30922173 8.39767516,8.31542389 8.30703079,8.31297351 C8.27778869,8.31218798 8.25316056,8.32118053 8.23369639,8.34478157 C8.24538406,8.34156911 8.25268694,8.33945873 8.26006621,8.33754767 C8.28478602,8.33111102 8.30988777,8.32930548 8.33541731,8.33427659 C8.35871626,8.33880217 8.3664011,8.34586021 8.36684416,8.3644667 C8.36711916,8.37708206 8.36633999,8.38975605 8.36540803,8.40235969 C8.36216909,8.44604449 8.33835069,8.46346682 8.28118041,8.46334958 C8.26413016,8.4633144 8.24712575,8.46155576 8.22902132,8.46051229 C8.22071008,8.47750083 8.23006022,8.49726802 8.21227663,8.51368206 C8.18789294,8.49001067 8.18948185,8.46137989 8.17418857,8.43222152 C8.16839821,8.44327755 8.16503705,8.45080456 8.16060643,8.45793294 Z M8.88927538,8.48102984 L8.88926011,8.48104157 C8.89307961,8.4784505 8.89546297,8.4775829 8.89618104,8.47619943 C8.89831996,8.47203729 8.90065749,8.46776964 8.90148251,8.46337303 C8.91541604,8.38887672 8.94699567,8.31840186 8.98060727,8.24823184 C8.98809349,8.23261505 8.99247828,8.2149465 8.99174493,8.19840349 C8.99081298,8.17754594 9.00036173,8.16394573 9.0223926,8.15393317 C9.04136788,8.14530407 9.06046538,8.13675704 9.07869203,8.12721345 C9.08507824,8.12387202 9.08905052,8.11771676 9.09412281,8.11285116 C9.09254918,8.11086976 9.09099082,8.10887662 9.08943247,8.10689521 C9.06063344,8.11194839 9.03186496,8.11713054 9.0030201,8.12206648 C8.93694275,8.13334527 8.89350739,8.16679474 8.8612097,8.21054989 C8.84816228,8.22823015 8.84133302,8.24724699 8.85464016,8.26717833 C8.86423474,8.28155234 8.85989579,8.29502358 8.85077482,8.3083893 C8.84319693,8.31949223 8.83477876,8.33041929 8.82911062,8.34213188 C8.8217619,8.35729142 8.82179246,8.3729551 8.83936216,8.38433941 C8.86237083,8.39921757 8.86858897,8.41748405 8.8646778,8.43986577 C8.86166804,8.45715914 8.87225569,8.47048969 8.88927538,8.48102984 Z M7.68341337,3.53067887 C7.73816972,3.53772298 8.01985021,3.53566488 8.04446307,3.52876778 L8.04446307,3.43451149 C8.00182217,3.4218811 7.71896527,3.41176209 7.68339809,3.42205261 C7.68095361,3.45949051 7.67855496,3.49555634 7.68341337,3.53067887 Z M7.47104916,3.53352111 L7.47104916,3.53353283 C7.50797609,3.53135211 7.5447044,3.52708446 7.58143271,3.52327406 C7.59289121,3.5220899 7.60609141,3.52046022 7.60735948,3.50894694 C7.6105373,3.48024582 7.61321095,3.45147435 7.61472348,3.42267943 C7.61531932,3.41131857 7.60604557,3.40445984 7.59098146,3.40341638 C7.58288412,3.40285361 7.5747715,3.40193912 7.56670472,3.4021736 C7.48096458,3.40458881 7.39523972,3.40705092 7.30956069,3.41001717 C7.29695634,3.41043925 7.28419921,3.41272549 7.27206848,3.41555105 C7.24708895,3.42135458 7.2374027,3.43073404 7.23818188,3.45102883 C7.23891522,3.46990497 7.24235277,3.4887225 7.24525559,3.50750485 C7.24844869,3.5281162 7.25287931,3.53264179 7.27993665,3.53368525 C7.31574829,3.535057 7.35174325,3.53401353 7.38766183,3.53401353 C7.38766183,3.53396663 7.38766183,3.53389629 7.38766183,3.53384939 C7.41545252,3.53384939 7.44341126,3.53515079 7.47104916,3.53352111 Z M8.2597301,9.30134503 L8.25969954,9.30134503 C8.26836217,9.29509597 8.27574144,9.28957382 8.28342628,9.28429787 C8.29719176,9.27483635 8.31045306,9.26770797 8.32904639,9.27965505 C8.34149796,9.28766275 8.35343007,9.28271509 8.36050379,9.27249149 C8.37034282,9.25830507 8.38546804,9.2495939 8.4034808,9.24218413 C8.41547403,9.23725992 8.42548112,9.22913497 8.43561044,9.22179555 C8.44916203,9.21194712 8.46118581,9.20076213 8.47522629,9.1913944 C8.5103657,9.16796922 8.54680373,9.15917598 8.5771,9.19658827 C8.58722932,9.20905122 8.60395873,9.2191224 8.61998535,9.22763426 C8.63879257,9.23764682 8.65553726,9.231175 8.65538448,9.21356508 C8.65530809,9.20288423 8.64913577,9.1905268 8.6406412,9.18197977 C8.62297984,9.16420571 8.6018962,9.14847168 8.58229452,9.1318466 C8.56217339,9.11478772 8.56145533,9.11074283 8.58392927,9.09763505 C8.61165884,9.08146722 8.62767018,9.06148898 8.63095495,9.03428857 C8.63323137,9.01549449 8.64646212,9.00787369 8.67035692,9.00731092 C8.69116555,9.00684195 8.70549632,9.01533035 8.71638953,9.02794572 C8.72997167,9.0436563 8.74266769,9.05988275 8.756479,9.07547609 C8.76034434,9.07986098 8.76680693,9.08287413 8.77583623,9.08912319 C8.77510289,9.05043295 8.76332355,9.02053595 8.72797026,8.99821285 C8.71895624,8.99253828 8.71108807,8.98569128 8.70166154,8.98050913 C8.66225958,8.95891295 8.63234525,8.93280289 8.62849519,8.89315126 C8.62806741,8.88887188 8.62524098,8.8843463 8.62212427,8.88066486 C8.61274358,8.86962056 8.58822239,8.86460255 8.57595415,8.87334889 C8.55810945,8.88604632 8.54197588,8.90050241 8.52735483,8.91553298 C8.51850887,8.92463105 8.52628537,8.93382291 8.5411967,8.93308428 C8.55144824,8.93258013 8.56148588,8.92955526 8.57169159,8.92796075 C8.59104882,8.92492415 8.60082674,8.93036424 8.60021562,8.94574654 C8.59984894,8.9545046 8.59526554,8.9631806 8.59231689,8.97184487 C8.58906268,8.98137673 8.58418899,8.99068584 8.58229452,9.0003584 C8.57318883,9.04725566 8.54234255,9.07054015 8.48205556,9.07518298 C8.47114707,9.07602713 8.46031497,9.07723474 8.45088844,9.07812579 C8.44991065,9.08206516 8.44916203,9.08317897 8.44958981,9.08373001 C8.45247735,9.08750524 8.45533434,9.09135081 8.45872605,9.09484466 C8.47502768,9.11166905 8.47533324,9.11601877 8.46051358,9.13318317 C8.45728992,9.1369115 8.45342459,9.14032328 8.44998704,9.14394609 C8.42810894,9.16711334 8.40624612,9.19028059 8.38442914,9.21349473 C8.37426927,9.22430455 8.36493441,9.23582955 8.34513412,9.23938202 C8.3362576,9.23194881 8.32788526,9.22492594 8.31780178,9.21647271 C8.29760426,9.23079982 8.25908842,9.2872524 8.2597301,9.30134503 Z" id="Combined-Shape" fill="#2B2926"></path>
    </g>
</svg>