<?xml version="1.0" encoding="UTF-8"?>
<svg width="12px" height="12px" viewBox="0 0 12 12" version="1.1" xmlns="http://www.w3.org/2000/svg" xmlns:xlink="http://www.w3.org/1999/xlink">
    <!-- Generator: Sketch 53.2 (72643) - https://sketchapp.com -->
    <title>Combined Shape</title>
    <desc>Created with Sketch.</desc>
    <g id="Page-1" stroke="none" stroke-width="1" fill="none" fill-rule="evenodd">
        <path d="M11.9924075,0 C11.9997732,0.0197043562 12.0033569,11.9360873 11.9958235,12 L0,12 L0,0 L11.9924075,0 Z M6.1820544,8.39300878 L6.18206965,8.39302054 C6.22235991,8.36869301 6.24901676,8.3723045 6.28561654,8.40061995 C6.29482749,8.40776058 6.30129345,8.41808919 6.31806835,8.42037136 C6.31806835,8.41458358 6.31957809,8.40974866 6.3177786,8.40584308 C6.31238013,8.39399694 6.30571592,8.38250371 6.29947871,8.37090461 C6.28701953,8.3478358 6.292479,8.33580144 6.32139283,8.32504933 C6.34943742,8.31461485 6.37899174,8.31312085 6.40952206,8.31639118 C6.42741021,8.31829692 6.4455881,8.31874394 6.46362874,8.31984974 C6.46461999,8.31752051 6.46564173,8.31516775 6.46663298,8.31282675 C6.4546923,8.29687505 6.43111594,8.29173427 6.41423429,8.28039397 C6.39703239,8.26884192 6.38112673,8.2561135 6.3611951,8.24131464 C6.32122508,8.26558335 6.27669534,8.28608765 6.24043106,8.31541479 C6.20253503,8.34605947 6.164822,8.37442198 6.10302936,8.37424552 C6.0543669,8.37411612 6.02141184,8.39906713 5.99730174,8.43126464 C6.02706956,8.41303076 6.06103111,8.40880755 6.09616691,8.41270137 C6.12947271,8.41638344 6.15551956,8.40903107 6.1820544,8.39300878 Z M7.02304121,9.45003279 L7.02296496,9.45000926 C7.00500056,9.4439862 6.98612117,9.43929245 6.96721128,9.43532805 C6.88191854,9.41744708 6.79984352,9.39400184 6.72493596,9.35642828 C6.68549969,9.33664157 6.64103095,9.32546597 6.59438148,9.32256031 C6.54948574,9.31976053 6.50396476,9.31672547 6.45925202,9.31933703 C6.31561311,9.32775991 6.17244696,9.32006639 6.02914355,9.31523147 C6.0116824,9.31464328 5.99242177,9.31532558 5.9780716,9.30159723 C5.99091202,9.28817474 6.00933392,9.28469266 6.02597157,9.27928131 C6.10917508,9.25221282 6.19259209,9.2255443 6.2757956,9.19844051 C6.3103519,9.18718256 6.32802654,9.16714882 6.32613555,9.14293893 C6.32496131,9.12786951 6.3184191,9.12137589 6.29899071,9.11996424 C6.2666609,9.11764677 6.23796057,9.12136413 6.21616845,9.14445646 C6.19176859,9.17027799 6.16517275,9.17504233 6.1319127,9.15907886 C6.09880514,9.14319773 6.0633796,9.13803343 6.02613932,9.13680999 C5.95563898,9.13449252 5.88510815,9.13295147 5.81459256,9.13066929 C5.79816841,9.13012816 5.78179,9.12794009 5.76539635,9.12650491 C5.76499985,9.12416391 5.7645881,9.12181115 5.76419161,9.11945839 C5.80943809,9.09536614 5.85619432,9.07213265 5.91239024,9.06760359 C5.95345824,9.06429796 5.9955785,9.06501555 6.036799,9.06780357 C6.17863842,9.07744988 6.17848592,9.02011315 6.31643661,9.01734866 C6.43046019,9.01506648 6.40028062,9.07964971 6.46991171,9.07285024 C6.48075439,9.04305255 6.50138752,9.01957201 6.53702656,9.00393793 C6.55412171,8.99644439 6.55320672,8.98282192 6.53746881,8.96914063 C6.48822685,8.92628512 6.42689171,8.89859315 6.35594913,8.88372371 L6.2420628,8.88834688 C6.20736925,8.88898213 6.17262996,8.88762929 6.13792116,8.88762929 C6.10835158,8.88760576 6.08649846,8.89789908 6.07573203,8.91977974 C6.05098142,8.9701876 6.03074479,8.96499977 5.97628736,8.955177 L5.87388421,8.94186039 C5.84692237,8.93964879 5.82415425,8.94808343 5.80667786,8.9645998 C5.7829795,8.98700983 5.75751215,9.00517313 5.7146294,8.99177417 C5.68304683,8.98191611 5.65254701,8.97139927 5.63260013,8.94858928 C5.62026295,8.93448449 5.6042048,8.92848495 5.58222968,8.93086124 C5.49837042,8.93989583 5.45001295,8.87112469 5.33670612,8.8873352 C5.2815472,8.89521694 5.31070502,8.92160313 5.24204993,8.91569771 C5.23171049,8.91481542 5.22118805,8.91540361 5.21083336,8.91461544 C5.16386364,8.91105101 5.12586086,8.92872023 5.08816308,8.94649532 C5.08207837,8.94936569 5.07887589,8.95596518 5.07423991,8.96095302 C5.08703459,8.97537544 5.10592923,8.97803405 5.12317688,8.98215138 C5.17403533,8.99430338 5.22512253,9.00525548 5.26788328,9.03232397 C5.28513092,9.04324077 5.3058403,9.04321724 5.3239267,9.02975946 C5.3140295,9.00357325 5.27082651,9.00178516 5.26277456,8.97476372 C5.27965621,8.96044718 5.30187533,8.95955313 5.32348445,8.95934138 C5.400283,8.95863556 5.47165258,8.97694002 5.54090242,9.00042056 C5.569679,9.01017274 5.58136043,9.03059469 5.58592016,9.05654562 C5.53722719,9.06195697 5.49076072,9.06770946 5.44409599,9.07216794 C5.39720252,9.07663818 5.35009554,9.07983793 5.30308007,9.08360235 C5.30295807,9.08539045 5.30283607,9.08719031 5.30269882,9.08899017 C5.33566913,9.09655429 5.37022542,9.10137744 5.40110649,9.1124707 C5.43270431,9.123811 5.46930409,9.12665784 5.49887367,9.14325655 C5.48366951,9.17047797 5.45739391,9.18274761 5.42680259,9.19006469 C5.4081062,9.19453493 5.39265804,9.19251156 5.37846038,9.17814797 C5.35008029,9.14940902 5.30835654,9.13475133 5.26619054,9.12164646 C5.26099032,9.12003482 5.25437185,9.11887021 5.24924789,9.11996424 C5.22124905,9.12592848 5.24122643,9.14243309 5.24281242,9.14306833 C5.2638573,9.15146768 5.30759404,9.14763268 5.31878748,9.17353656 C5.31065927,9.17793622 5.30321732,9.18365342 5.29428087,9.18650026 C5.26753253,9.19499372 5.24052494,9.20319309 5.2130141,9.20995727 C5.18431377,9.21701554 5.17713106,9.21356875 5.16334514,9.19091168 C5.14719549,9.16433727 5.11741241,9.15697314 5.08288661,9.17188963 C5.09199081,9.18190062 5.10107976,9.19188808 5.11149545,9.20332249 C5.10306224,9.20946319 5.09746553,9.21699202 5.08993207,9.21846249 C5.05392703,9.225509 5.02051448,9.24106074 4.98043772,9.23539059 C4.9568461,9.23203791 4.93192775,9.23473182 4.90768039,9.23379072 C4.89587696,9.2333084 4.88422603,9.2307086 4.86832037,9.22850877 C4.87513708,9.22039175 4.87795832,9.21552154 4.88247229,9.21195711 C4.93831746,9.16784288 4.98617168,9.19358207 4.9911889,9.16725469 C4.99521488,9.14616221 5.01427727,9.13936274 5.03747238,9.13683352 C5.06951244,9.13333967 5.10175075,9.13090457 5.13377556,9.12732837 C5.144054,9.12618729 5.15393595,9.1228346 5.16639512,9.11994071 C5.15100796,9.09964816 5.13136608,9.09313102 5.10827771,9.09415447 C5.07111368,9.09578964 4.97741823,9.10805928 4.95063939,9.0960955 C4.86876262,9.05954539 4.82083215,9.11459995 4.76942471,9.04482888 C4.76265375,9.03562959 4.76016801,9.02664205 4.76919596,9.01708985 C4.77761391,9.00812584 4.78859384,9.00936104 4.80042777,9.01038449 C4.84872424,9.01450182 4.89700546,9.01857209 4.94540867,9.02198359 C4.96329682,9.02326585 4.98206946,9.02588917 5.00244334,9.01429007 C4.99184465,9.00604365 4.98386895,8.99687965 4.97281276,8.99180946 C4.94600342,8.97950453 4.91809608,8.96854067 4.88997525,8.95815324 C4.83713431,8.93862534 4.79402281,8.93831948 4.79983303,8.90366334 C4.80256276,8.88749989 4.81029447,8.88006517 4.83243734,8.87657132 C4.84815999,8.87408916 4.8645079,8.87314806 4.8806118,8.87299513 L5.06675221,8.87119527 C5.03564239,8.8548083 5.00759781,8.84695009 4.97888222,8.84240926 C4.86851862,8.82494003 4.76614598,8.82868092 4.69537114,8.91161567 C4.6689583,8.94258974 4.63217551,8.94989506 4.58604453,8.94103692 C4.54811801,8.93374337 4.50875799,8.93069654 4.46985547,8.92688507 C4.4469501,8.92464995 4.42367874,8.92459113 4.40057513,8.92359121 C4.32206859,8.92023853 4.2435468,8.91569771 4.16496401,8.91422723 C4.09496692,8.91290969 4.04676196,8.93938999 3.97684112,8.92944958 C3.90710328,8.91955623 3.84030867,8.90238109 3.77616755,8.87868881 C3.65360402,8.83340996 3.70931194,8.77652025 3.63326064,8.77590853 C3.50792162,8.77486155 3.3836196,8.77714373 3.26480755,8.8157878 C3.23017501,8.82704575 3.19145548,8.83209242 3.15392546,8.835998 C3.11012771,8.84058588 3.06590297,8.83696263 3.02387422,8.82532823 C2.95287064,8.80567093 2.99913887,8.74576969 3.05655478,8.73554695 C3.07474792,8.73231191 3.08889984,8.73248837 3.09076033,8.75041639 C3.13538156,8.72739464 3.17910306,8.70541987 3.22197056,8.68251577 C3.25777734,8.6633996 3.29722886,8.65649425 3.33992861,8.65557668 C3.42914059,8.65363565 3.51100211,8.63520178 3.57836096,8.58662907 C3.58513192,8.58173534 3.59290937,8.57770035 3.60004633,8.57307718 C3.67576214,8.52395158 3.76305262,8.49373039 3.8597828,8.48253125 C3.9374506,8.47355548 4.01588089,8.46801473 4.09420443,8.46335627 C4.16214278,8.45930952 4.19860531,8.43851113 4.24899102,8.40832524 C4.33853849,8.35467057 4.3285498,8.3634346 4.42654572,8.36261113 C4.46305401,8.36231704 4.4984338,8.36614027 4.53058061,8.37996273 C4.58050882,8.40140813 4.63077252,8.39843189 4.68111248,8.38262135 C4.71327454,8.37253977 4.7448571,8.36123477 4.77616517,8.34960037 C4.86874737,8.31517951 4.96566055,8.29212247 5.06727071,8.28132331 C5.12720285,8.27494733 5.17353208,8.25238437 5.20502315,8.21188163 L5.29938959,8.07932719 C5.32860842,8.03395423 5.37048467,8.00195671 5.43682178,7.99308681 C5.44017676,7.99262802 5.44324199,7.99099285 5.44656647,7.99027526 C5.49237721,7.98034662 5.52588126,7.95878358 5.55022012,7.92686841 C5.6121805,7.84565117 5.70672995,7.80113697 5.82355951,7.7843618 C5.85663656,7.77960923 5.88059417,7.77255095 5.88300366,7.74240034 C5.8842389,7.7272721 5.89710983,7.71864924 5.91774295,7.71743757 C5.93616485,7.71634354 5.95454099,7.71420253 5.97281038,7.71189682 C6.02092385,7.70579141 5.98081658,7.68486362 6.02963155,7.68520477 C6.04658945,7.68532241 6.0635321,7.68524006 6.08227424,7.68524006 C6.08041375,7.66025376 6.07506103,7.64784296 6.09517566,7.63370288 C6.10816858,7.62456241 6.11628154,7.61098699 6.12540098,7.59884676 C6.1303572,7.59228256 6.13304119,7.58465962 6.13656392,7.5779072 C6.17523769,7.5854125 6.18030066,7.58957689 6.19010635,7.62112738 C6.22451015,7.60954005 6.2509535,7.59137675 6.27076313,7.56760212 C6.31361538,7.51614728 6.35367689,7.57230763 6.43062794,7.47758556 L6.38574745,7.45101115 C6.42111199,7.43108328 6.42280473,7.43111857 6.47567617,7.452164 C6.47567617,7.43849447 6.47608792,7.42648364 6.47555417,7.41450809 C6.47515768,7.40506176 6.47466968,7.39505078 6.48964509,7.39308622 C6.53306159,7.38738078 6.53634032,7.39808583 6.54847925,7.41913126 C6.59602847,7.38952179 6.53775856,7.35872418 6.57771332,7.34548991 C6.60302818,7.33710232 6.61817134,7.35859478 6.63773697,7.37767565 C6.64684117,7.37099382 6.65295638,7.36702942 6.6582786,7.36250036 C6.68225146,7.34204312 6.70413508,7.34406649 6.71836325,7.36966451 C6.72368547,7.37919318 6.72891618,7.38478098 6.7440136,7.38363989 C6.74573684,7.37829913 6.74822257,7.37326423 6.74889357,7.36808816 C6.75606103,7.31239835 6.76409773,7.2567909 6.7696487,7.20100698 C6.77669415,7.12989484 6.78125388,7.05860625 6.78762834,6.98744705 C6.79747978,6.87753792 6.80830722,6.76769936 6.81812816,6.65780199 L6.89404221,5.80105658 C6.90612014,5.66954912 6.91946381,5.53811224 6.93102325,5.40659302 C6.94467192,5.25162855 6.95620085,5.09655821 6.97012402,4.94164079 C6.98410818,4.78581757 6.99929709,4.63006493 7.01505025,4.47435934 L7.09294679,3.7346284 C7.10166974,3.64374132 7.11667565,3.55305422 7.1094167,3.4615319 C7.10740371,3.43631032 7.10493322,3.41102993 7.10488747,3.3857613 C7.10481122,3.33134198 7.10464348,3.27711089 7.06967543,3.22746768 C7.06859269,3.22593838 7.06848594,3.22399736 7.06776919,3.22227984 C7.06348397,3.21199829 7.06381947,3.20219905 7.07621764,3.19557603 C7.11168893,3.17663632 7.05193979,3.13868632 7.13032432,3.11228836 C7.14833447,3.10621824 7.16663436,3.10058339 7.18496475,3.09507793 C7.20567413,3.08885488 7.21509858,3.07871449 7.21400058,3.06006888 C7.2113166,3.01407244 7.21148435,2.96798189 7.21008136,2.92192664 C7.20982211,2.91326848 7.20759562,2.90465738 7.20628413,2.89605805 C7.17753805,2.890682 7.14932571,2.89524635 7.11859714,2.88414133 L7.49337894,2.70562574 C7.51213633,2.69669702 7.53016172,2.6868272 7.54893436,2.67791024 C7.57821419,2.66400543 7.5768417,2.64452459 7.57790919,2.61812664 C7.58341441,2.48000792 7.58890438,2.34187744 7.5942876,2.2037352 C7.5945316,2.19755921 7.5934641,2.19134793 7.5928541,2.18316032 C7.49723717,2.1697496 7.39282103,2.15677413 7.29639585,2.16215019 C7.20373739,2.16731449 7.14116701,2.20581739 7.10609222,2.27089471 C7.08247011,2.31469131 7.03856561,2.33601907 6.98017371,2.34092458 C6.92844601,2.34525365 6.87656582,2.39382636 6.82471612,2.39710846 C6.77399492,2.40031998 6.72319747,2.24495554 6.67241527,2.24750828 C6.64861016,2.24871995 6.63114901,2.25773102 6.61708859,2.27208285 C6.5907215,2.29892783 6.56921912,2.32830202 6.56072492,2.36127594 C6.55070573,2.40003764 6.54422452,2.43954047 6.53986305,2.47896094 C6.5305606,2.56318971 6.48275213,2.63014923 6.39707814,2.6809453 C6.33687149,2.71663665 6.28127032,2.72660059 6.28198706,2.78599599 C6.28215481,2.80033605 6.27910483,2.81473494 6.27692409,2.82906324 C6.27305062,2.85446127 6.25316473,2.86960128 6.22321391,2.87696541 C6.18418939,2.8865882 6.10103163,2.88919976 6.06142761,2.8887645 C5.87284722,2.8867176 5.81805429,2.93674902 5.69297453,2.93313753 C5.62284019,2.93111416 5.56444828,2.91577417 5.526537,2.87567139 L5.50454663,2.84556784 C5.47862179,2.80772372 5.45954415,2.79052505 5.4512177,2.78409025 C5.41554816,2.77153828 5.37780463,2.79703043 5.3658182,2.79233667 C5.34963804,2.78603128 5.22297229,2.7523633 5.24453566,2.81335857 C5.26609904,2.87436561 5.13941803,2.87014241 5.13673405,2.91432722 C5.13405006,2.95850027 5.0423981,2.92484406 4.96155833,2.96422924 C4.8807033,3.00362619 4.81227695,2.95719449 4.81227695,2.95719449 C4.61248788,3.07351489 4.53239535,2.94710116 4.54131655,3.00860227 C4.55023775,3.07010339 4.41338505,3.0125902 4.42361774,3.06850352 C4.43383518,3.12441683 4.24963151,3.10046575 4.27009689,3.16835461 C4.29057752,3.2362317 4.18823537,3.2362317 4.11704879,3.29214502 C4.04586221,3.3480701 3.97331839,3.23225554 3.90679828,3.26818217 C3.84029342,3.30413233 3.73795127,3.31211994 3.69188129,3.28816886 C3.64584181,3.26420601 3.52998824,3.20749275 3.50767763,3.26021808 C3.48538226,3.31293165 3.33883062,3.24025492 3.33883062,3.3161314 C3.33883062,3.39200787 3.31324127,3.36803326 3.24159719,3.36803326 C3.16996836,3.36803326 3.16485964,3.40795958 3.11878966,3.48784751 C3.07273493,3.56772368 2.88766202,3.42424067 2.85781795,3.48385958 C2.82797387,3.54345497 2.65825762,3.60765 2.46151853,3.55961842 C2.42551349,3.5643357 2.38880695,3.56299463 2.35210042,3.55770092 C2.23932733,3.54144336 2.12603575,3.5299619 2.01106668,3.52850318 C1.94053584,3.52760914 1.88141194,3.54334909 1.8367907,3.58734569 C1.83322222,3.59086306 1.82864725,3.59376872 1.82485002,3.59716845 C1.76781536,3.64818803 1.69370079,3.66283396 1.61135128,3.65514044 C1.50990887,3.64565882 1.45284371,3.60993217 1.33221692,3.62274294 C1.18417079,3.63845937 1.03545366,3.64783512 0.886202789,3.65107016 C0.828527628,3.65232889 0.770654219,3.64970556 0.712918058,3.64795276 C0.694831664,3.64739986 0.67686727,3.64392954 0.6548464,3.64131798 C0.6548464,3.65542277 0.65480065,3.66697481 0.654861649,3.67852686 L0.692605178,10.7068884 C0.693733671,10.8750401 0.707336591,11.116739 0.779209418,11.2775971 C0.835908585,11.4045638 0.94555544,11.4894748 1.10781449,11.5342949 C1.23448024,11.5692804 1.36608697,11.5833734 1.49874594,11.5922198 C1.69603403,11.6053717 1.89394736,11.6084891 2.09187595,11.6089715 L10.365974,11.6256408 C10.6020274,11.6260407 10.8382028,11.626076 11.0736156,11.6091009 C11.1289118,11.6051129 11.183964,11.5991957 11.2358747,11.5823029 C11.3051855,11.559787 11.3011596,11.5204724 11.2948461,11.4710292 C11.2727795,11.2976426 11.2496149,11.1243266 11.228692,10.9508577 C11.2144791,10.8331021 11.2033924,10.7150995 11.1907197,10.5972381 C11.1889965,10.5813569 11.1861447,10.5655582 11.1841317,10.5519122 C11.1478827,10.5533003 11.1142261,10.5576176 11.0812863,10.5553472 C10.7584152,10.5331254 10.4365659,10.5084096 10.1151435,10.4756945 C9.6345121,10.4267689 9.35278526,10.3923598 8.87622556,10.2688517 C8.39269665,10.143532 7.91775344,10.0028841 7.47632954,9.80019391 C7.35196652,9.74309245 7.21985655,9.69626078 7.0913608,9.64460596 C7.01991497,9.61589053 6.94393992,9.60346797 6.86383214,9.60330327 C6.83038909,9.60323269 6.79694603,9.60015058 6.76356398,9.59784487 C6.75650327,9.59736256 6.74973231,9.59437455 6.73644964,9.59082189 C6.75275179,9.58479882 6.76266424,9.58061091 6.77307993,9.57736411 C6.81494093,9.56429453 6.85700018,9.55164845 6.89883069,9.53853182 C6.94758465,9.52325065 6.99392913,9.51219268 7.0316574,9.48250087 C7.05055204,9.46763143 7.04748681,9.45825568 7.02304121,9.45003279 Z M11.2579871,5.40676948 L11.2580176,5.40674595 C11.2838509,5.41059271 11.309364,5.41573349 11.3388421,5.42094485 C11.3020135,4.47972363 11.265307,3.54123161 11.2284937,2.6007868 C11.2170563,2.60246902 11.2093703,2.603516 11.2016996,2.60472767 C11.1088429,2.61949124 11.0165505,2.63690165 10.9230533,2.64853604 C10.6747542,2.67941601 10.4243507,2.69312083 10.1730932,2.69681466 C9.90446601,2.70076729 9.63622009,2.69282673 9.36853841,2.67539279 C9.26490002,2.66864037 9.16152088,2.65840587 9.05852299,2.64694793 C8.9117121,2.63061979 8.76958294,2.59781056 8.62608128,2.56969509 C8.47400917,2.53990916 8.3421127,2.48578394 8.23492108,2.39470865 C8.12539622,2.30165703 7.98223007,2.25415483 7.82924297,2.22201614 C7.823997,2.22089858 7.81824778,2.22115738 7.8092053,2.22055743 C7.80923508,2.2317095 7.80915883,2.24141464 7.80925033,2.25115506 C7.81016533,2.39025017 7.81152257,2.52933351 7.81147682,2.66842862 C7.81147682,2.68508616 7.81650929,2.69852041 7.83053921,2.7101548 C7.85193483,2.72791813 7.87311696,2.74589321 7.89562582,2.76275073 C7.94823802,2.80213591 8.0017652,2.84080351 8.05449939,2.88005929 C8.06287159,2.88628234 8.07604751,2.89111726 8.07289078,2.90363393 L8.00277169,2.90363393 L7.93173761,2.90363393 C7.92179467,2.93988995 7.91845494,3.04329371 7.92646114,3.06693893 C7.93939307,3.06902112 7.95310274,3.07069158 7.96644641,3.0734796 C7.98980927,3.07836158 8.01369063,3.08247891 8.0359555,3.08961953 C8.06384759,3.09854825 8.078945,3.11618218 8.08014974,3.14029796 C8.08246773,3.18722373 8.08475521,3.23414951 8.08727145,3.28107529 C8.08833894,3.30076788 8.08284897,3.31756658 8.06448808,3.33296539 C8.04165897,3.35214037 8.03359176,3.37520917 8.03865473,3.40285409 C8.06810231,3.56367693 8.10032537,3.72428802 8.11119856,3.88682837 C8.12211749,4.05005103 8.13352443,4.21323839 8.14340637,4.37649633 C8.14904883,4.46940678 8.15112282,4.5624584 8.15656704,4.65538061 C8.16150801,4.73923294 8.16888897,4.8229794 8.17512618,4.90678467 C8.1809059,4.98428455 8.18480987,5.06191383 8.19299908,5.13926078 C8.19920579,5.19769155 8.21085672,5.25575764 8.22014392,5.31398843 C8.23717807,5.42058017 8.25213823,5.52739543 8.27185636,5.63368131 C8.29671372,5.76764741 8.32440755,5.90130764 8.35287914,6.03485024 C8.37148403,6.12206702 8.39352015,6.20883677 8.41433627,6.29578297 C8.41653226,6.30478228 8.42101574,6.31346396 8.42444697,6.3222868 C8.42758845,6.32314556 8.43071468,6.32401608 8.43385616,6.32486307 C8.44494284,6.31454623 8.45468754,6.30306476 8.46739071,6.29415957 C8.4953133,6.27458462 8.51561093,6.27713736 8.53458182,6.30239423 C8.54374701,6.31461681 8.54983173,6.32826281 8.55953067,6.34512033 C8.56904662,6.33961487 8.57700707,6.33582693 8.58371703,6.33095672 C8.59547471,6.32246326 8.60517365,6.31187584 8.61809033,6.30478228 C8.63622247,6.29480658 8.64892565,6.29688877 8.66396206,6.3096172 C8.67155651,6.31602846 8.67782423,6.32340436 8.68445794,6.33009796 C8.71572025,6.32628649 8.74089785,6.31560497 8.76473346,6.30255892 C8.77704014,6.2958065 8.78920957,6.28891292 8.8017755,6.28247812 C8.81618666,6.27507869 8.82992683,6.27558454 8.84250801,6.28548965 C8.84984321,6.29127744 8.85716317,6.29707699 8.86509312,6.30233541 C8.87860454,6.31128766 8.89298521,6.31871061 8.91858981,6.31208759 C8.91499083,6.29898273 8.91046161,6.28713658 8.90899762,6.27506693 C8.90840287,6.27011437 8.91299309,6.26165621 8.91782731,6.26026808 C8.92360703,6.25859762 8.93345847,6.26145622 8.93911619,6.26482067 C8.94401141,6.26773809 8.94466716,6.27464343 8.94875413,6.27886664 C8.95471685,6.28503087 8.96122856,6.29438308 8.96902126,6.29540653 C9.00810678,6.30060613 9.02318894,6.31604023 9.01928497,6.34759073 C9.01675348,6.36814208 9.03474838,6.37400045 9.05838574,6.36426002 C9.07131766,6.35891926 9.07598413,6.35089635 9.07566389,6.3399325 C9.07523689,6.32460427 9.07397115,6.30913488 9.07593838,6.29393606 C9.07907987,6.2697144 9.09814225,6.25832705 9.12880982,6.26370311 C9.14874146,6.26719695 9.16829184,6.27385526 9.18639349,6.28143114 C9.21077809,6.29166565 9.23339371,6.30445289 9.25724457,6.31553439 C9.26746201,6.32031049 9.2778472,6.32750993 9.29305136,6.32162803 C9.2950796,6.28931289 9.24791162,6.27332589 9.25026011,6.23805803 C9.26242954,6.23975202 9.27328747,6.2406343 9.28364216,6.2428459 C9.29922757,6.24618681 9.31421823,6.25144523 9.32995614,6.25409209 C9.35351725,6.25803296 9.36797417,6.25858585 9.37954885,6.2362817 C9.396339,6.20395479 9.43133754,6.18883832 9.47432704,6.18488568 C9.50415587,6.18212119 9.53162096,6.18905006 9.55710356,6.20081386 C9.57599819,6.20955436 9.59438959,6.21896539 9.61322323,6.22776471 C9.6434943,6.24194009 9.67583936,6.24604565 9.70995341,6.23831684 C9.76215385,6.22648246 9.80916932,6.20966023 9.83626841,6.16886339 C9.85330256,6.14321832 9.87848017,6.13711291 9.91181647,6.14948842 C9.93022311,6.15631142 9.94716576,6.1666518 9.96224792,6.17752154 C9.98172206,6.19157928 9.99826821,6.20808388 10.0168884,6.22291803 C10.0338768,6.23643463 10.0508194,6.2502218 10.069775,6.26193854 C10.1073356,6.28516027 10.1344194,6.28574846 10.1741759,6.26483243 C10.1932993,6.25478615 10.2115382,6.24343409 10.2287554,6.23142325 C10.2895415,6.18899124 10.3594776,6.16069932 10.4386094,6.14566519 C10.4644275,6.14075969 10.4901388,6.13526599 10.5153317,6.12871356 C10.5360868,6.12332574 10.5564149,6.11664391 10.5761788,6.1093033 C10.6003499,6.10035105 10.6088441,6.08446993 10.6033084,6.06437737 C10.6003804,6.05382524 10.5959122,6.04353192 10.5919777,6.03316802 C10.581135,6.00462905 10.5706888,5.97599598 10.5591904,5.9476217 C10.536224,5.8908261 10.5479512,5.83927715 10.594067,5.79170437 C10.6240788,5.76075382 10.6525199,5.72886218 10.6807322,5.69688818 C10.6944724,5.68132468 10.7069468,5.66497301 10.7183995,5.64830371 C10.7310722,5.62992866 10.7292269,5.61196535 10.7116285,5.5953784 C10.7020516,5.5863438 10.6928559,5.57699159 10.6843007,5.56735704 C10.6262443,5.50205621 10.6601448,5.41846269 10.7571952,5.39429985 C10.796418,5.3845359 10.8383553,5.37951276 10.87953,5.37681885 C11.0078275,5.36840774 11.1329683,5.38818268 11.2579871,5.40676948 Z M8.9291275,6.83864681 L8.92914275,6.83865857 C8.94114443,6.83911736 8.95854457,6.83722339 8.95842258,6.8251655 C8.95833108,6.81730729 8.94742739,6.80868443 8.93920769,6.80201435 C8.93405322,6.79783821 8.92514727,6.79600305 8.91747657,6.79423849 C8.89981717,6.79016821 8.88200527,6.78641556 8.86404088,6.78322757 C8.8267701,6.77660456 8.79514179,6.76494664 8.7757439,6.73653707 C8.76348297,6.71859729 8.74280409,6.71833848 8.72497695,6.73338438 C8.71718424,6.73996034 8.71085553,6.74761857 8.70443532,6.75510034 C8.68817891,6.77404005 8.66933003,6.79040349 8.64253593,6.8010262 C8.62875001,6.80649636 8.61688558,6.81494276 8.60415191,6.8220481 C8.60547865,6.82441262 8.60680539,6.82677714 8.60813214,6.82915343 C8.63634447,6.8252949 8.6648618,6.82237748 8.69270814,6.81731905 C8.71744349,6.81281352 8.73380665,6.81630736 8.74640307,6.83547059 C8.75963999,6.85556315 8.7762624,6.8546691 8.79689553,6.83677637 C8.8014705,6.83282373 8.8093242,6.82956516 8.81601891,6.82909461 C8.82490961,6.82847113 8.83412056,6.83115327 8.8432705,6.83195321 C8.87184883,6.83443537 8.90042717,6.83755278 8.9291275,6.83864681 Z M9.10706345,6.92186389 L9.1070482,6.92187566 C9.12662909,6.90864139 9.13018232,6.89297201 9.13022807,6.87673798 C9.13025857,6.86057452 9.13951526,6.85237516 9.15976714,6.84884602 C9.21131184,6.83982319 9.2604623,6.83616465 9.29793133,6.87410289 C9.30416854,6.88038475 9.31296774,6.8852432 9.32108069,6.89028987 C9.33328062,6.89786575 9.34590755,6.9050299 9.3629722,6.91509971 C9.36620518,6.88765478 9.36396344,6.87669092 9.35266326,6.86257437 C9.3278669,6.83156501 9.2944696,6.81047252 9.24731688,6.80195553 C9.18454825,6.79060347 9.12161187,6.79089757 9.05817224,6.79463845 C9.03729511,6.79588542 9.02511043,6.80484943 9.01856822,6.82231866 C9.02838916,6.82602426 9.03702061,6.83123562 9.04655181,6.83252964 C9.0813521,6.83723516 9.09414678,6.85382211 9.09410103,6.87987891 C9.09405528,6.89358373 9.09477202,6.90786498 9.10706345,6.92186389 Z M9.04763455,6.72625552 L9.0476193,6.72626728 C9.05744024,6.73250209 9.06809993,6.73816048 9.07911037,6.74304245 C9.0988285,6.75175942 9.1073837,6.74999485 9.11815014,6.7342196 C9.12463135,6.72473799 9.12905382,6.71435056 9.1336898,6.70417487 C9.15144069,6.66503673 9.16184113,6.66251928 9.20455613,6.68654094 C9.21822005,6.6942227 9.22984048,6.7054336 9.25274584,6.70535125 C9.26977999,6.67967089 9.26139254,6.65846077 9.23999692,6.63954458 C9.21724405,6.61941673 9.18772023,6.60704122 9.15535992,6.5987948 C9.11137918,6.58759567 9.09437553,6.59263057 9.07590788,6.62506335 C9.0646077,6.64489711 9.04642981,6.65459048 9.01962047,6.65496692 C9.00229657,6.65522572 8.98451517,6.65599037 8.96777077,6.65337881 C8.95654684,6.651626 8.94294392,6.64622642 8.9371642,6.63909756 C8.928914,6.62891011 8.9380792,6.61841681 8.94837288,6.61034685 C8.95979507,6.6013946 8.97185775,6.59292467 8.98299018,6.58376067 C8.99352787,6.57506723 8.99770634,6.5647739 8.98697041,6.55459822 C8.97629547,6.54445783 8.96366854,6.54944568 8.95259711,6.55452764 C8.90614588,6.57583187 8.87366357,6.606853 8.85150545,6.644803 C8.84462774,6.65661385 8.84659498,6.66802473 8.85633968,6.67804748 C8.87241308,6.69456385 8.88804424,6.71151548 8.90629838,6.72650256 C8.93021024,6.74615986 8.93577646,6.74579518 8.96539178,6.73197272 C8.97133925,6.72919646 8.97742396,6.72657314 8.98340193,6.72383217 C9.0055143,6.7136212 9.02672692,6.71296243 9.04763455,6.72625552 Z M8.93577646,6.46196364 C8.95195661,6.45107355 8.97281849,6.44460945 8.99343637,6.43540775 C8.98390518,6.41898218 8.97155275,6.41183066 8.95352735,6.41171007 C8.93742345,6.41160153 8.92552852,6.40725997 8.91589058,6.39579101 C8.90442264,6.38216333 8.89550145,6.38189801 8.87805555,6.3901108 C8.85731567,6.39987931 8.83619454,6.40917749 8.81592741,6.41952488 C8.80500848,6.42509655 8.79128356,6.43005316 8.7927628,6.44459739 C8.81103219,6.4454657 8.82838659,6.44569484 8.84554274,6.44727469 C8.86591662,6.44913191 8.87970254,6.4571638 8.88263052,6.47494008 C8.88404876,6.48364732 8.88787649,6.49208925 8.89188722,6.50460742 C8.90860112,6.48794065 8.91982505,6.47269694 8.93577646,6.46196364 Z M9.56485904,7.10134411 L9.56488119,7.10134411 C9.56734004,7.09972071 9.56979889,7.09810907 9.57225774,7.0964739 C9.5495743,7.08027516 9.52059975,7.06553512 9.50597957,7.0474424 C9.49109356,7.02905559 9.49051761,7.00735139 9.48325182,6.98714119 C9.48201132,6.98368264 9.4798626,6.97997704 9.47605249,6.97721255 C9.46973923,6.97263643 9.46176458,6.96873085 9.44995767,6.96196667 C9.41591036,6.99067033 9.41340721,7.01957397 9.42882486,7.04646601 C9.44862857,7.08105157 9.511296,7.08915682 9.56485904,7.10134411 Z M9.34977795,6.50368827 C9.33771547,6.49989503 9.33225536,6.49702963 9.32622412,6.49648384 C9.29005951,6.49319545 9.26984113,6.48103796 9.25791572,6.45987492 C9.25076504,6.44719893 9.23235147,6.4368289 9.21898679,6.42540823 C9.21450905,6.42626785 9.210077,6.42710018 9.20559926,6.42793251 C9.20267502,6.43261267 9.19616402,6.43770217 9.19744337,6.44190476 C9.20601048,6.47034046 9.21231587,6.49941746 9.22723406,6.526707 C9.23858833,6.54756985 9.28053288,6.55139039 9.30817608,6.53608096 C9.32380249,6.52738924 9.33469985,6.51566838 9.34977795,6.50368827 Z M10.0425997,7.56987253 L10.0426302,7.56987253 C10.0552266,7.58045994 10.0678383,7.5910356 10.0807855,7.60132892 C10.1095011,7.62413891 10.1448351,7.63764375 10.1819229,7.64818411 C10.1846984,7.64484319 10.1858726,7.64406678 10.1858421,7.6433139 C10.1857811,7.64064352 10.1856591,7.63791432 10.1849119,7.63531452 C10.1599478,7.54905061 10.1529176,7.46243379 10.1754264,7.37507585 C10.1827769,7.34654865 10.1738709,7.31950369 10.1596428,7.29344688 C10.1532835,7.28182425 10.1454756,7.26799003 10.1269012,7.26878997 C10.1089673,7.26955461 10.1081286,7.28508282 10.1022269,7.29545849 C10.1017541,7.29627019 10.1015864,7.29718777 10.1011899,7.29803476 C10.0856654,7.33046754 10.0598168,7.33738465 10.0202128,7.32080947 C9.99366274,7.30968092 9.98495504,7.29127058 9.98135606,7.26971931 C9.97999882,7.26155523 9.97595759,7.25293237 9.96279692,7.25302648 C9.9488585,7.25314412 9.94317029,7.26090822 9.94155379,7.27087216 C9.94016605,7.27936562 9.93861056,7.28783555 9.93661282,7.29923467 C9.92136291,7.29612903 9.90992548,7.29498794 9.89979954,7.29149409 C9.88299414,7.28568278 9.86673773,7.27878919 9.85083208,7.27153093 C9.83924215,7.26626075 9.82881121,7.26308453 9.81468979,7.27395427 C9.82859771,7.28504753 9.84127038,7.29509381 9.85385156,7.30519891 C9.87687893,7.32365631 9.87384419,7.33283206 9.84171263,7.34027855 C9.82611197,7.34387827 9.81019107,7.34660747 9.79286717,7.3500425 C9.79610015,7.3530305 9.79664915,7.3540069 9.79757939,7.35433628 C9.80178837,7.35578323 9.80613459,7.35704195 9.81043507,7.35838303 C9.84159063,7.36815874 9.84578436,7.3760993 9.82873496,7.39870932 C9.81999676,7.41029665 9.80715634,7.41995473 9.79820464,7.43143619 C9.79123543,7.4404002 9.78469322,7.45052883 9.78274123,7.46069275 C9.78001149,7.47502105 9.79025943,7.48106764 9.80791883,7.47602097 C9.82402274,7.47142133 9.83905915,7.46441011 9.85421756,7.45796355 C9.87736692,7.44812902 9.90053154,7.43872975 9.93007061,7.44052961 C9.92752388,7.46228086 9.9068755,7.46996262 9.8901006,7.4800089 C9.8549343,7.50107786 9.8463486,7.52635825 9.86329126,7.56212019 C9.88392438,7.56397887 9.90013504,7.55440314 9.91662019,7.54695666 C9.93379159,7.53919255 9.95131374,7.53783972 9.97001013,7.54058068 C9.99794796,7.54469801 10.0228968,7.55328558 10.0425997,7.56987253 Z M9.99384574,7.00295173 C10.0024924,6.99403478 10.0079214,6.98323561 10.0191606,6.96696628 C9.99762772,6.96974254 9.98282005,6.96877791 9.97235861,6.97357754 C9.9487365,6.98442376 9.92718838,6.9980227 9.90498451,7.01071584 C9.89357758,7.01724474 9.88258239,7.02420891 9.86570074,7.03441988 C9.86278801,7.01795057 9.86130877,7.00755138 9.85906703,6.99726982 C9.85664229,6.98618832 9.85655079,6.97430689 9.84387812,6.96413121 C9.83143419,6.9861648 9.85025258,7.012351 9.82318399,7.03122013 C9.80331336,7.01273921 9.81508629,6.98328267 9.78556246,6.9703072 C9.78231423,6.97267172 9.78037749,6.9737187 9.77908125,6.97511859 C9.77775451,6.97654201 9.77682426,6.97828305 9.77612277,6.97997704 C9.7619251,7.01389206 9.76707957,7.04511317 9.79321792,7.07526378 C9.81908177,7.105085 9.81763302,7.10581435 9.78292423,7.12794205 C9.77397253,7.13362396 9.76486833,7.13939999 9.75739588,7.14617593 C9.75125016,7.15175197 9.74743769,7.1588926 9.73894349,7.1701976 C9.81208206,7.15204607 9.86731723,7.12371885 9.91209097,7.08368666 C9.94095905,7.05785336 9.96737189,7.03031432 9.99384574,7.00295173 Z M9.90249877,6.84564627 L9.90248352,6.8456345 C9.8819419,6.84425814 9.86196451,6.8429406 9.84119413,6.84155247 C9.84554036,6.82714182 9.84894109,6.81576623 9.85237232,6.80437888 C9.84913934,6.80273195 9.84590636,6.80108501 9.84265813,6.79941456 C9.8392879,6.80419066 9.83707666,6.80984904 9.83236444,6.81362522 C9.81145681,6.83042392 9.79134218,6.84814019 9.76810131,6.86277435 C9.74171897,6.87942012 9.72974779,6.87477342 9.72625556,6.84881073 C9.72334283,6.82728298 9.72250408,6.80556702 9.7197286,6.78401575 C9.71405563,6.73965448 9.67792859,6.71683272 9.6174932,6.71980896 C9.61519046,6.74216017 9.64506504,6.75966469 9.6353051,6.78433337 C9.60570502,6.78995646 9.5831199,6.77088735 9.5495091,6.77055797 C9.56114478,6.78303935 9.56890699,6.79269743 9.57831618,6.80126147 C9.59939156,6.82045998 9.62141243,6.83902325 9.64280805,6.85801002 C9.66786365,6.88025535 9.68463856,6.90548869 9.68768854,6.93558048 C9.69005227,6.95887279 9.69285826,6.98214158 9.69558799,7.00638676 C9.71992685,6.9749539 9.74347271,6.94515621 9.76622558,6.91499384 C9.78202448,6.89406605 9.8053721,6.88269046 9.83533817,6.87789083 C9.85112183,6.87534985 9.86676823,6.87190306 9.88195715,6.86769162 C9.89377583,6.86439776 9.90518276,6.85951578 9.90249877,6.84564627 Z M9.54804511,6.63873288 L9.54802986,6.63873288 C9.5747782,6.62603975 9.60158754,6.62213417 9.62842739,6.63880347 C9.63199587,6.64102682 9.63625059,6.64263846 9.64036807,6.64427363 C9.6683059,6.6553316 9.68186307,6.65028493 9.67805059,6.62649854 C9.67410087,6.60186515 9.66312093,6.57785524 9.65418448,6.55381005 C9.65035676,6.54352849 9.64195406,6.5341998 9.63902607,6.52385943 C9.62976938,6.49112079 9.63042512,6.49075611 9.58973836,6.48705051 C9.57181972,6.48541535 9.55595981,6.48248616 9.54677937,6.46832255 C9.53973391,6.45747633 9.52602424,6.45515887 9.51152157,6.45435893 C9.49425867,6.4533943 9.47682803,6.452712 9.45990063,6.45012396 C9.42086086,6.44417148 9.41119241,6.43321939 9.41485239,6.4018924 C9.41706363,6.38277624 9.41204641,6.37595323 9.38813455,6.37474156 C9.36655593,6.373624 9.34447406,6.37532975 9.32292593,6.37760017 C9.30914001,6.37905888 9.29628434,6.38408202 9.29236511,6.39978668 C9.30000532,6.40328053 9.30802677,6.40838602 9.31722247,6.41083289 C9.33913659,6.41665596 9.35193126,6.42645521 9.353685,6.44571254 C9.35461525,6.4560882 9.36089821,6.46651093 9.36676942,6.476169 C9.38415432,6.50487266 9.38305633,6.50917821 9.35045202,6.52751797 C9.34073783,6.5329999 9.32766865,6.53669373 9.3282024,6.5504456 C9.33477511,6.55115143 9.34043283,6.55284542 9.34551105,6.55209253 C9.37459263,6.54785757 9.39371602,6.55771563 9.40895068,6.57630242 C9.42484108,6.59571268 9.44567246,6.61098209 9.47595878,6.61647578 C9.4810065,6.61739336 9.48530698,6.62072251 9.4901107,6.62302822 C9.48762496,6.63638012 9.47980176,6.64936735 9.50157863,6.6614723 C9.51716404,6.65382583 9.53247495,6.64612055 9.54804511,6.63873288 Z M9.16994095,6.54944809 L9.16991624,6.54944809 C9.18058961,6.54692969 9.19136181,6.53989299 9.19593258,6.53333035 C9.23235052,6.4811551 9.17322696,6.43317224 9.08015617,6.43822385 C9.05927886,6.43934972 9.05075499,6.44474205 9.05567165,6.45930431 C9.06585089,6.4597191 9.07474536,6.46022278 9.08363984,6.46040055 C9.09478264,6.46063758 9.10629604,6.4596154 9.11706824,6.46088942 C9.14674119,6.46441517 9.15748869,6.47696271 9.14380108,6.49336192 C9.13725375,6.50121339 9.12618507,6.50771678 9.11677176,6.51464977 C9.10046522,6.52666401 9.0838622,6.53854491 9.0601436,6.55568482 C9.10676547,6.56055866 9.13913148,6.55669218 9.16994095,6.54944809 Z M8.69629187,6.49381469 L8.69632237,6.49380293 C8.67977621,6.48608588 8.66121707,6.48019222 8.65363787,6.46344058 C8.66133907,6.45973498 8.66850653,6.45687638 8.67478949,6.45313549 C8.69287589,6.44233633 8.69290639,6.4317842 8.67546049,6.42006747 C8.64886465,6.40222179 8.62955826,6.40086895 8.60099518,6.41707946 C8.58141429,6.42818448 8.5637244,6.44125406 8.54487551,6.45311196 C8.52773461,6.46389936 8.51741042,6.46347587 8.5035635,6.4506651 C8.49621304,6.44383033 8.48977758,6.43608975 8.48483661,6.42803155 C8.47396342,6.41025646 8.46432548,6.39202258 8.4529338,6.37176532 C8.43205667,6.38385851 8.42792394,6.39838679 8.42847294,6.41415028 C8.42946419,6.44388915 8.43300216,6.47363979 8.43185842,6.50330808 C8.43039443,6.54135219 8.46359349,6.56158592 8.49505405,6.58205492 C8.51472643,6.59486569 8.52334263,6.59052485 8.53938554,6.57394966 C8.55663319,6.55613928 8.57558883,6.5389759 8.59661845,6.52394177 C8.60645465,6.51691879 8.6229093,6.51326025 8.63648172,6.51306026 C8.64078219,6.51298968 8.64647041,6.52881198 8.64973389,6.53776423 C8.65322612,6.54731643 8.65822809,6.55468057 8.67233426,6.55492761 C8.68798067,6.55519818 8.71276177,6.53759954 8.71928873,6.52233013 C8.72653244,6.5053785 8.71001679,6.50020244 8.69629187,6.49381469 Z M7.44444198,8.77578187 C7.40300472,8.6950479 7.36147372,8.61767101 7.29194287,8.70372721 C7.3469113,8.80607758 7.39566101,8.78953776 7.44444198,8.77578187 Z M7.39435229,8.58821227 C7.39402337,8.55720672 7.37311318,8.54132177 7.34388592,8.54158763 C7.27556365,8.54281721 7.24102661,8.56704342 7.24187241,8.60319996 C7.24257725,8.63756196 7.27039484,8.6625525 7.3066235,8.66155554 C7.35441149,8.66025949 7.39482218,8.62622981 7.39435229,8.58821227 Z M7.34769539,8.82068873 C7.35139311,8.81580935 7.35149952,8.80871781 7.34671111,8.80425557 C7.33226607,8.79089415 7.31548003,8.77803836 7.29797573,8.76552387 C7.28156212,8.75385633 7.26677125,8.7409879 7.22841076,8.73428823 C7.21814228,8.74642348 7.20691611,8.75721881 7.20002612,8.76863353 C7.1939076,8.77880945 7.20077099,8.78842917 7.2231169,8.79238577 C7.26368538,8.79960372 7.28153552,8.81419131 7.28877134,8.83360773 C7.2907133,8.83866408 7.29981128,8.84310104 7.31356466,8.85428823 C7.32923341,8.83924556 7.34048617,8.83030845 7.34769539,8.82068873 Z M7.61599958,8.9345977 L7.61599958,8.93457496 C7.57748013,8.9204976 7.54370912,8.93348334 7.51350436,8.95524752 C7.49541697,8.968256 7.47892552,8.98847373 7.46804944,9.0098513 C7.4560897,9.03338937 7.47009856,9.05478968 7.49169309,9.0471256 C7.5241243,9.03557261 7.55606293,9.02035815 7.58611006,9.00202802 C7.60435508,8.99088439 7.61779255,8.97032553 7.61599958,8.9345977 Z M7.05971724,8.86439695 C7.00304776,8.86062351 6.95024368,8.88559481 6.90721814,8.9840372 C6.96167881,8.9712186 7.02067213,8.99241646 7.05971724,8.86439695 Z M7.23226998,8.90907469 L7.23228523,8.90902763 C7.20669588,8.90786302 7.19107997,8.92062674 7.17340532,8.93028481 C7.16233389,8.9363314 7.1506982,8.9434485 7.13805603,8.94570715 C7.09779627,8.95285953 7.09764377,8.95208312 7.08855482,8.98364538 C7.0841781,8.99884421 7.07833738,9.01330191 7.05056729,9.02034842 C7.04812731,9.00622011 7.04774606,8.99455042 7.04367433,8.98371597 C7.04105135,8.97672827 7.03478364,8.96832892 7.02706718,8.96522328 C7.0156755,8.9606354 7.00847754,8.96914063 7.00314007,8.9763636 C6.99173314,8.99180946 6.97541574,9.00291448 6.95463011,9.0099257 C6.93369198,9.01698398 6.92661602,9.01447829 6.90918537,9.00184397 C6.89242572,8.98969197 6.87417158,8.97843402 6.85483469,8.9689524 C6.84559325,8.96444687 6.83229533,8.96496448 6.81675567,8.96257643 C6.82056815,8.97338736 6.82232189,8.97943395 6.82482287,8.98530408 C6.83651955,9.01283136 6.82993159,9.02076016 6.79192881,9.02307762 C6.77580966,9.02405402 6.75949226,9.02330114 6.74335785,9.02426577 C6.72615595,9.02531275 6.70904555,9.02734788 6.69193515,9.02923009 C6.69028816,9.02940655 6.68894617,9.0315005 6.68627744,9.03368857 C6.69086766,9.0398528 6.69570188,9.04633465 6.70190859,9.05465165 C6.68949517,9.06065118 6.67947598,9.06686247 6.66814529,9.07069747 C6.64484343,9.07859097 6.62044357,9.08453169 6.59727896,9.09261342 C6.57955856,9.09881294 6.56301241,9.10697701 6.54603926,9.11441173 C6.52310339,9.12446977 6.50056403,9.13517482 6.47724691,9.14466821 C6.46231725,9.15075009 6.44627435,9.15514975 6.43073469,9.16029053 C6.43103969,9.16211391 6.43131418,9.16391378 6.43160393,9.16574893 C6.44262962,9.16714882 6.4536248,9.16938394 6.46469624,9.16976038 C6.50843298,9.17128967 6.54793025,9.18186533 6.58605502,9.19875814 C6.61289487,9.2106631 6.64286094,9.21833309 6.67177477,9.22722652 C6.67814923,9.22916754 6.68601819,9.22819115 6.69437514,9.22861465 C6.6838527,9.20335778 6.67952173,9.19840522 6.65637236,9.19012351 C6.64279994,9.18526506 6.62820578,9.18214766 6.61409961,9.17815973 C6.60401942,9.17530113 6.59247524,9.1714779 6.59546422,9.16180806 C6.59721796,9.15609085 6.60607816,9.15093831 6.61316937,9.14723271 C6.61858308,9.1444094 6.62620804,9.14396238 6.63296375,9.14286835 C6.66811479,9.13723349 6.70175609,9.14071557 6.7344824,9.15234997 C6.75227905,9.15869065 6.77048744,9.16500781 6.78935158,9.16868988 C6.803595,9.17146613 6.8203394,9.17374831 6.83595531,9.15999643 C6.82280988,9.15474978 6.81312619,9.15039718 6.8028935,9.14697391 C6.79122732,9.14309186 6.77887489,9.140445 6.76716296,9.13658648 C6.7427936,9.12857534 6.73829488,9.12031715 6.75154705,9.10338905 C6.77097544,9.07862626 6.79981302,9.06174522 6.83465906,9.05269886 C6.86421339,9.04502887 6.88483127,9.05354585 6.90070642,9.07540298 C6.9054034,9.08187307 6.91127461,9.08783731 6.91902157,9.09686015 C6.929971,9.08694327 6.93732146,9.08028496 6.94468717,9.07361489 C6.96050132,9.05932188 6.97466849,9.05578097 6.99681136,9.0636039 C7.00914854,9.06796827 7.02029622,9.07501478 7.03065091,9.08203776 C7.04361333,9.09079003 7.05553876,9.09035477 7.06779969,9.08221422 C7.07396066,9.07813218 7.08028937,9.07392075 7.08500159,9.06888584 C7.09765902,9.0554163 7.11513541,9.05241653 7.13430455,9.05539277 C7.1511862,9.05800433 7.16759511,9.06254516 7.18414126,9.06645074 C7.21163685,9.07293259 7.23916293,9.07707344 7.27063875,9.07001517 C7.26060431,9.05354585 7.24166392,9.05399288 7.22650551,9.04980497 C7.19283371,9.04048804 7.18671849,9.02993592 7.20213615,9.00485551 C7.21014236,8.99184475 7.22129004,8.97986921 7.2277255,8.96647024 C7.2363722,8.94844811 7.24690989,8.92966133 7.23226998,8.90907469 Z M6.86705899,8.93583732 L6.86707515,8.93583732 C6.88357071,8.90616634 6.89935539,8.87538133 6.9212633,8.83394521 C6.90578559,8.83394521 6.89853142,8.83011407 6.89449235,8.83459732 C6.86726902,8.86489324 6.83704063,8.87747352 6.80542279,8.88562489 C6.7894927,8.88972774 6.77702006,8.9069543 6.7687642,8.9361362 C6.79640759,8.95678634 6.82424486,8.95276499 6.85174284,8.9505913 C6.85702594,8.95012938 6.86314917,8.94290184 6.86705899,8.93583732 Z M6.66431756,8.70872395 L6.66431756,8.7087366 C6.67270502,8.68492373 6.69605263,8.68139356 6.71490152,8.67297934 C6.73367416,8.66459043 6.75481053,8.65861823 6.76957245,8.63801921 C6.7521723,8.63645024 6.73762388,8.6317813 6.7256832,8.63467883 C6.6836697,8.64483916 6.64133595,8.65523989 6.60157943,8.67015773 C6.5726961,8.68100131 6.54494127,8.69133878 6.5129622,8.69255347 C6.49101758,8.69337591 6.46908821,8.69510936 6.44729609,8.69736159 C6.42451272,8.69971504 6.40206486,8.70357419 6.37647551,8.71942835 C6.39355541,8.72608381 6.40427609,8.73223315 6.41603377,8.7343968 C6.43277818,8.73749678 6.45025457,8.7384584 6.46745647,8.73890126 C6.49943553,8.73971105 6.53232959,8.7337515 6.56156367,8.75078239 C6.56594039,8.75331298 6.5727571,8.75390767 6.57836907,8.75371787 C6.62047407,8.75223748 6.66090158,8.74375999 6.70566007,8.73434619 C6.68890042,8.72395811 6.67642599,8.71622715 6.66431756,8.70872395 Z M6.0259385,8.28729932 C5.92174385,8.30378 5.86677414,8.3467843 5.87950278,8.40729932 C5.9265875,8.38073279 5.96812455,8.3582006 6.00833806,8.33429503 C6.02807872,8.32257829 6.03573843,8.3065697 6.0259385,8.28729932 Z M6.29923471,8.73438923 L6.29923471,8.73437702 C6.25023675,8.7031984 6.19634357,8.70698281 6.14170314,8.72124147 C6.12765797,8.72491601 6.1144363,8.73154482 6.11321631,8.75198061 C6.13644192,8.7499297 6.1566328,8.74823282 6.17679318,8.74635283 C6.24427403,8.74010246 6.29969221,8.7557528 6.33748149,8.8039002 C6.34242246,8.8101872 6.34742443,8.81659627 6.35358539,8.82205314 C6.35753512,8.82554456 6.36369608,8.82741235 6.37005529,8.83058636 C6.38100473,8.80532851 6.37322728,8.7856374 6.3526704,8.76971848 C6.33609374,8.75690033 6.3173211,8.74590114 6.29923471,8.73438923 Z M5.76359686,8.67488106 L5.76361211,8.67488106 C5.76907158,8.66918739 5.77631529,8.66442305 5.78334549,8.65981164 C5.80737935,8.6441305 5.83711668,8.63934264 5.86648801,8.63467241 C5.89703358,8.6298022 5.92797564,8.62656716 5.95868896,8.62235572 C5.98642855,8.61854425 5.99104927,8.61501511 5.99638674,8.59455787 C5.99361126,8.5934756 5.99057653,8.59120519 5.98774004,8.59135812 C5.94635179,8.59340502 5.90493303,8.59509901 5.86371252,8.59849874 C5.85303758,8.59938103 5.84065466,8.60407478 5.8333347,8.61013314 C5.81213733,8.62761414 5.78894221,8.62717888 5.76371886,8.61835603 C5.74584597,8.61209769 5.72750032,8.61039194 5.71013068,8.61727376 C5.69186128,8.62449673 5.67322589,8.63223731 5.65791498,8.64260121 C5.62912315,8.66208205 5.60373205,8.68460972 5.57465047,8.70377294 C5.56225229,8.71194878 5.5447454,8.71771304 5.52858049,8.71968936 C5.46748935,8.72720642 5.42292911,8.75381613 5.38675633,8.79064857 C5.37977187,8.79776566 5.37117092,8.80616501 5.37722513,8.81977572 C5.3911788,8.81199985 5.40369898,8.80577681 5.41509066,8.79847149 C5.43206381,8.78758998 5.44795422,8.77572031 5.46475962,8.76469764 C5.4925907,8.74646375 5.52116904,8.74334635 5.5535751,8.75943922 C5.59057138,8.77781427 5.6292604,8.79411889 5.66741568,8.81104699 C5.67705362,8.81531725 5.68742356,8.81855229 5.6973665,8.82222259 C5.71609339,8.79278958 5.71196066,8.77942591 5.6809576,8.76686217 C5.66875767,8.76190962 5.65509375,8.75920394 5.64240582,8.75493369 C5.62654592,8.74961645 5.62241319,8.74047598 5.63173089,8.72925332 C5.63592461,8.72419489 5.64249732,8.71966583 5.64926828,8.7166543 C5.67911236,8.7033965 5.71209791,8.70317299 5.73802276,8.71833652 C5.76696709,8.73527639 5.79469143,8.73460585 5.82593849,8.72872395 C5.86464277,8.7214304 5.90115105,8.72572418 5.93640884,8.74077008 C5.95655398,8.74936941 5.97830035,8.75587479 5.99992472,8.76207431 C6.00846467,8.76452118 6.01859061,8.7636036 6.02799981,8.76422708 C6.0291588,8.76209784 6.03031779,8.75996859 6.03150729,8.75782758 C6.02243359,8.7518751 6.01445789,8.74428745 6.00417945,8.74026423 C5.94560454,8.71740718 5.88422365,8.70298477 5.81767304,8.70523165 C5.80396337,8.70571397 5.78965896,8.70556104 5.77646779,8.70307888 C5.75559066,8.69912624 5.75100043,8.68804475 5.76359686,8.67488106 Z M5.48447775,8.66843128 L5.484493,8.66845007 C5.47516006,8.65311789 5.47172883,8.64376075 5.46591861,8.6384997 C5.43872802,8.61386674 5.36389671,8.61313395 5.33705687,8.63915733 C5.31985497,8.65582357 5.30150933,8.66042698 5.28189794,8.65574841 C5.26863052,8.65259178 5.25632384,8.64315948 5.24355967,8.63663955 C5.2047944,8.61685426 5.15299045,8.65368157 5.14313901,8.71187248 C5.15652843,8.7093359 5.16872836,8.70694964 5.18092829,8.7047137 C5.20323891,8.70059881 5.22428378,8.70197044 5.24334617,8.72049683 C5.26832552,8.74473521 5.27851246,8.74753484 5.29919134,8.72117325 C5.32715968,8.68552968 5.36134998,8.68064442 5.39715677,8.67705564 C5.42347811,8.67440633 5.44979946,8.67185096 5.48447775,8.66843128 Z M5.82439837,8.09029105 L5.82441692,8.09029105 C5.83077723,8.07922132 5.83400374,8.06414013 5.82730965,8.05399974 C5.81555328,8.03621288 5.8241944,8.02711947 5.84652038,8.0187907 C5.85093366,8.01712024 5.85364097,8.01357934 5.85925955,8.00930908 C5.81432943,7.98320522 5.78983389,7.98636968 5.77965368,8.02010825 C5.76654365,8.06358723 5.74872366,8.10567809 5.71742277,8.14531031 C5.71167439,8.15260387 5.71019093,8.16127378 5.70676044,8.16929669 C5.70954192,8.17021427 5.71234194,8.17110832 5.71512342,8.17202589 C5.76137011,8.15045109 5.8037969,8.12614709 5.82439837,8.09029105 Z M5.64460181,8.04496514 L5.64461706,8.04497691 C5.61709097,8.04810608 5.60975577,8.04992947 5.58861939,8.06792807 C5.5606968,8.09169094 5.527147,8.10866609 5.49059297,8.12274736 C5.4678096,8.13152315 5.44548373,8.14101653 5.42273087,8.14988643 C5.36632145,8.17189649 5.33298514,8.21119933 5.29954209,8.25026689 C5.29400637,8.25673698 5.29144439,8.26531278 5.2899194,8.27320629 C5.28426168,8.30268636 5.26774603,8.32820203 5.24407817,8.35096497 C5.22224029,8.37196335 5.19906043,8.39210296 5.17659731,8.41271313 C5.16868261,8.4199361 5.16114915,8.42739435 5.15140446,8.43671127 C5.17877805,8.43652305 5.17868655,8.43638189 5.19712369,8.42714731 C5.21853457,8.41646578 5.2389237,8.40386676 5.26196631,8.39613795 C5.28917215,8.38699748 5.30475756,8.37288092 5.31097952,8.35102379 C5.31271801,8.34491838 5.31599674,8.33903649 5.31898573,8.33316635 C5.32853217,8.31443839 5.34475807,8.30141587 5.37053042,8.29640449 C5.38172386,8.29421643 5.39285629,8.29174603 5.40374473,8.28880508 C5.43750803,8.27969991 5.45530467,8.2591015 5.47275057,8.23351525 C5.43476304,8.23305646 5.41258967,8.26048963 5.37621864,8.25452538 C5.37859762,8.23157422 5.39570802,8.21742238 5.4169969,8.20645852 C5.43720303,8.19604756 5.4589189,8.1874247 5.48022303,8.17839011 C5.54337291,8.151651 5.59299611,8.11273637 5.63908134,8.07076315 C5.6469198,8.06361076 5.65701524,8.05534081 5.64460181,8.04496514 Z M5.79284619,7.86947285 C5.79825991,7.86427326 5.80170639,7.8578267 5.80731835,7.85026258 C5.77799278,7.84376896 5.75591091,7.85056844 5.73669602,7.8623087 C5.71864013,7.87335491 5.70201772,7.88601275 5.68614257,7.89902351 C5.65750323,7.92246875 5.6297789,7.946561 5.60200881,7.97062973 C5.59202012,7.97928788 5.58227543,7.98825189 5.57388798,7.99786291 C5.57024325,8.001992 5.57030425,8.00810918 5.56795576,8.01572035 C5.66872717,7.97302954 5.72024137,7.93943214 5.79284619,7.86947285 Z M5.86381927,8.47202619 C5.87091048,8.44936912 5.86563401,8.44247553 5.83670493,8.44407541 C5.79885465,8.44618113 5.76129412,8.45127485 5.72362685,8.45522749 C5.71202166,8.45646269 5.70049273,8.45819196 5.68255884,8.46050943 C5.69395052,8.44155796 5.70200247,8.42814723 5.71011543,8.41466592 C5.70473221,8.41141912 5.70091973,8.40940751 5.69753425,8.40701946 C5.66561619,8.38460943 5.66987091,8.36221116 5.70837694,8.34914159 C5.72955906,8.34194214 5.75107668,8.33527207 5.77154206,8.32702565 C5.78848471,8.32019089 5.80410062,8.31140333 5.82595374,8.30073357 C5.80376512,8.28951091 5.78880496,8.29074611 5.77501904,8.29514577 C5.75589566,8.30123941 5.73713827,8.30841533 5.71920437,8.31643824 C5.67978335,8.33407216 5.64046908,8.34956508 5.59237087,8.34710645 C5.56522603,8.34571832 5.53946893,8.35465881 5.52156553,8.37133987 C5.50625462,8.38558582 5.48732949,8.39129126 5.46518662,8.39478511 C5.4167224,8.40247863 5.3822576,8.42546509 5.35894049,8.4586037 C5.35308452,8.46690894 5.34972954,8.47726107 5.3495313,8.48674269 C5.34930255,8.49800065 5.36189897,8.50169448 5.37365665,8.49473031 C5.38004637,8.49095413 5.38553633,8.4861545 5.3910263,8.48153133 C5.43994801,8.44025218 5.50430264,8.41999492 5.57042625,8.40314917 C5.611845,8.39260881 5.64155183,8.41346602 5.63653461,8.44760455 C5.63523837,8.45629799 5.63073964,8.46503849 5.62566142,8.47296729 C5.60887127,8.49909468 5.58093343,8.51571692 5.54771913,8.52830418 C5.52967849,8.53511542 5.50805411,8.53886807 5.49739443,8.55549031 C5.50895386,8.56818344 5.52528651,8.56931277 5.54091767,8.56553659 C5.56496678,8.55973704 5.58903114,8.55296109 5.61150951,8.54416178 C5.64759079,8.52999817 5.68204034,8.5133524 5.71787763,8.49877706 C5.7314958,8.49323631 5.74702021,8.4905424 5.76695184,8.48511929 C5.75391317,8.51782264 5.71055767,8.52633963 5.70076723,8.55751368 C5.74058475,8.56306619 5.77901452,8.56401906 5.80946859,8.54310303 C5.83633893,8.5246574 5.85505057,8.50002402 5.86381927,8.47202619 Z M5.03045742,8.63797804 L5.03044217,8.63796628 C5.08691259,8.61166243 5.14300176,8.58486451 5.19915193,8.55813716 C5.20601439,8.55485507 5.21284635,8.55132593 5.21874806,8.54711449 C5.22855376,8.5400915 5.23398272,8.53165686 5.22919425,8.52051655 C5.21078761,8.51481111 5.19640695,8.52190468 5.18307852,8.52816301 C5.1365968,8.55000838 5.09038957,8.57226548 5.04489909,8.59533428 C5.02856643,8.60361599 5.01380452,8.61407401 4.9996831,8.62462613 C4.9909754,8.63110798 4.98152046,8.63869563 4.98745267,8.65412973 C5.00280933,8.64843605 5.01732725,8.64409521 5.03045742,8.63797804 Z M5.03687763,8.75263151 L5.03686238,8.75263151 C5.04929106,8.75046344 5.06158249,8.7471944 5.07390442,8.74441656 C5.07456016,8.74104589 5.07520066,8.73769215 5.0758564,8.73432148 C5.04915381,8.72341338 5.02275622,8.71118411 4.99550463,8.70235939 C4.98728493,8.69970012 4.97479525,8.70368056 4.96749054,8.70962581 C4.95175263,8.72244791 4.93743297,8.73777684 4.92383005,8.75349535 C4.91435985,8.76447121 4.90507266,8.77671741 4.89920144,8.79031867 C4.89145449,8.80834075 4.89952169,8.82050226 4.91737934,8.82145079 C4.93505398,8.82239933 4.94909915,8.81330359 4.95922509,8.79817792 C4.97886697,8.76885816 5.00634731,8.75795006 5.03687763,8.75263151 Z M4.62903403,8.77595559 L4.62901878,8.77596735 C4.66333108,8.75428668 4.70038836,8.73961723 4.74604659,8.74129945 C4.75499829,8.74161707 4.76427024,8.73897022 4.77316093,8.73702919 C4.7957613,8.73211192 4.81084346,8.71959525 4.8222809,8.7046317 C4.83266608,8.69103275 4.82580362,8.6819864 4.80524675,8.68144526 C4.78131964,8.68082178 4.75910052,8.68616254 4.74096837,8.69843218 C4.71858151,8.71358395 4.69224491,8.71797184 4.66394108,8.71921881 C4.6264873,8.72085397 4.59028401,8.71891295 4.55633771,8.70410233 C4.52931487,8.69232677 4.50400002,8.69412663 4.48046941,8.71216053 C4.46921497,8.72078339 4.45391931,8.72640648 4.43979789,8.73241778 C4.43414018,8.7348176 4.42378549,8.7372527 4.42046101,8.73509993 C4.39802839,8.7204893 4.37562627,8.72091279 4.35090617,8.73099436 C4.3456297,8.73313537 4.33730325,8.73071203 4.33037979,8.7304297 C4.32347158,8.73014737 4.31537388,8.72800636 4.30988391,8.73006502 C4.30012397,8.73374709 4.28952528,8.73882905 4.28415731,8.74566382 C4.28145808,8.74909884 4.28873228,8.75806286 4.29304801,8.76381535 C4.29747048,8.76968549 4.30382969,8.7746851 4.31003641,8.78074345 C4.28036008,8.80768254 4.23622684,8.82222259 4.22038218,8.85831391 C4.26079445,8.88112391 4.30265545,8.87908878 4.32980029,8.85107918 C4.3538189,8.82631639 4.38526422,8.81955221 4.421193,8.82110503 C4.44992383,8.82234023 4.47873092,8.82551646 4.506989,8.82989259 C4.5244959,8.8325865 4.53796157,8.83068076 4.55185424,8.82190497 C4.57698609,8.80602385 4.60388693,8.79183671 4.62903403,8.77595559 Z M4.22460641,8.71163988 L4.22460641,8.71162384 C4.21393147,8.71162384 4.20183829,8.7081268 4.19284085,8.71224945 C4.16011454,8.72724821 4.12741873,8.743033 4.09678166,8.76225065 C4.08381924,8.77039971 4.07488279,8.78708282 4.06638859,8.80140784 C4.06289636,8.80734317 4.06228636,8.81998383 4.06590059,8.82463586 C4.06975882,8.82954454 4.0809065,8.83137326 4.08767746,8.82954454 C4.09975539,8.82628812 4.11195532,8.8208982 4.12226426,8.81350309 C4.15198634,8.792184 4.18108317,8.7698543 4.2097225,8.74693107 C4.21740845,8.74077115 4.22253242,8.73105003 4.22884588,8.72293306 C4.22742764,8.71917936 4.22602465,8.71540962 4.22460641,8.71163988 Z M4.41059432,8.73041051 L4.41059432,8.73045062 C4.37370478,8.63427453 4.3288548,8.59773724 4.28711579,8.61430134 C4.26135869,8.62452858 4.25428274,8.64514347 4.2514005,8.7126031 C4.30443969,8.7184988 4.35750938,8.72447471 4.41059432,8.73041051 Z M4.26445768,8.61199182 C4.20375953,8.64051222 4.15190258,8.66910916 4.11863478,8.71803773 C4.12226194,8.72268059 4.12591743,8.72734896 4.12954458,8.73199182 C4.16765802,8.7159459 4.20681994,8.70166018 4.24345986,8.68326733 C4.27344055,8.66826733 4.27669932,8.64357345 4.26445768,8.61199182 Z M4.79175058,8.59431555 C4.79719479,8.59369766 4.80227301,8.58960411 4.81082821,8.58551056 C4.75664528,8.57109817 4.74694634,8.57074289 4.69399865,8.58348696 C4.677666,8.58742603 4.66101309,8.59182853 4.64983491,8.57509904 C4.63240426,8.54900845 4.60641841,8.55120198 4.58127131,8.55177353 C4.5747596,8.55191256 4.56440491,8.55815329 4.56268167,8.56379157 C4.55662746,8.58365688 4.54134705,8.58693172 4.52527364,8.59028379 C4.50540301,8.59442369 4.48551713,8.59850179 4.4639995,8.60295063 C4.49181534,8.62633793 4.51691669,8.64743902 4.54546452,8.67147511 C4.56490816,8.64967889 4.58955201,8.64549265 4.61538536,8.64400971 C4.63728423,8.64274302 4.65928985,8.64136821 4.68092948,8.63795434 C4.69299216,8.63606976 4.70651883,8.63264045 4.71572977,8.62519482 C4.73843689,8.60681247 4.76355349,8.59751316 4.79175058,8.59431555 Z M5.0251962,8.46233282 L5.02521145,8.46234458 C5.01385027,8.45565098 5.00459357,8.45056902 4.99584013,8.44498122 C4.97714374,8.43300568 4.9745055,8.42599446 4.98766617,8.41044272 C5.0002931,8.39551447 5.01552776,8.38188023 5.03007617,8.36797542 C5.04152886,8.35704686 5.05500978,8.34707116 5.05464378,8.32891962 C5.02730069,8.32880198 5.01237103,8.34128337 4.99673987,8.3512826 C4.96932053,8.36883418 4.9399797,8.37808052 4.90405091,8.37279858 C4.89406222,8.37133987 4.88323479,8.37208099 4.87304785,8.37318678 C4.86655139,8.37390437 4.85639494,8.3761042 4.8549767,8.37945689 C4.84806849,8.39584385 4.82900611,8.39726727 4.81303945,8.40189044 C4.81163646,8.40513725 4.80988272,8.40761941 4.80956247,8.41020744 C4.80671074,8.43247631 4.79324507,8.44622818 4.76361449,8.45126309 C4.73800989,8.45560393 4.72535247,8.47234381 4.7106668,8.49310691 C4.76918071,8.4914835 4.81665368,8.45959186 4.87451184,8.46933228 C4.86864062,8.49061298 4.83277283,8.49927113 4.84277678,8.52690429 C4.85273497,8.5246927 4.86138167,8.5235869 4.86912862,8.52086946 C4.87960531,8.51721092 4.888923,8.51129373 4.89964369,8.50827044 C4.90880889,8.5056824 4.92416555,8.50225914 4.92802377,8.50552947 C4.93433724,8.51087024 4.93648747,8.5216694 4.93505398,8.52956291 C4.93284275,8.54157374 4.92608704,8.55307873 4.91878233,8.57081853 C4.97314826,8.54092673 4.99573338,8.50071808 5.0251962,8.46233282 Z M4.59305949,8.52574611 L4.59304424,8.52574611 C4.60155369,8.52438918 4.60988014,8.52177112 4.62442856,8.51827504 C4.61299113,8.51074011 4.60776041,8.50488139 4.60175194,8.503732 C4.55986044,8.49578201 4.51792319,8.48759257 4.47566568,8.48227662 C4.4642435,8.48083987 4.44986284,8.48604408 4.44014864,8.4932278 C4.41619103,8.51094764 4.38961044,8.51580065 4.3617336,8.51859432 C4.31689887,8.52308015 4.27209463,8.52801297 4.22736664,8.53355242 C4.21444997,8.53516477 4.2000998,8.53526055 4.18667988,8.55282075 C4.21287923,8.55848791 4.23569309,8.56064303 4.25644822,8.56873669 C4.27756935,8.57695806 4.29666224,8.59100622 4.31578562,8.60203723 C4.33599175,8.5909264 4.35226341,8.57801167 4.3704718,8.57280746 C4.41126531,8.56110598 4.45352281,8.55740237 4.49411808,8.54199728 C4.52498389,8.5302958 4.55996719,8.53093435 4.59305949,8.52574611 Z M7.80994411,6.89913377 C7.81827718,6.85725026 7.81856619,6.81830503 7.81134099,6.77913377 L7.66399494,6.77913377 C7.66399494,6.80712566 7.66399494,6.83221404 7.66399494,6.85730242 C7.66399494,6.87034212 7.66399494,6.88341659 7.66399494,6.89913377 L7.80994411,6.89913377 Z M7.72269184,6.77922788 L7.57019274,6.77922788 L7.57019274,6.89922788 L7.72269184,6.89922788 L7.72269184,6.77922788 Z M7.71950014,6.65187304 L7.71944979,6.65187304 L7.57371342,6.65187304 C7.56605899,6.69359742 7.56344036,6.73272675 7.57401557,6.77187304 L7.71950014,6.77187304 L7.71950014,6.65187304 Z M7.62144895,5.25000515 L7.47901265,5.25000515 C7.47944523,5.29204482 7.47213072,5.33104787 7.48337776,5.37000515 L7.62738707,5.37000515 C7.62663989,5.32711095 7.63576336,5.28815367 7.62144895,5.25000515 Z M7.82005099,6.7712378 L7.82005099,6.6512378 L7.66969104,6.6512378 C7.67092056,6.69361948 7.66077703,6.73237809 7.67624848,6.7712378 L7.82005099,6.7712378 Z M7.29741243,3.07043278 L7.29743465,3.07044454 C7.35182072,3.08839609 7.42465405,3.06869174 7.42725445,3.03469437 C7.43018823,2.99601501 7.43009933,2.95719449 7.42685439,2.91853866 C7.42578756,2.90593964 7.4128967,2.89304652 7.40147274,2.88140036 C7.38558143,2.86517809 7.35566575,2.86476636 7.32630572,2.86674267 C7.29783471,2.86866017 7.29436752,2.88182386 7.29185602,2.89310534 C7.28547727,2.92169136 7.28169892,2.95043031 7.27687596,2.97909868 C7.27832063,2.97913397 7.27974307,2.9791575 7.28118773,2.97918102 C7.28118773,3.00349679 7.28009868,3.02780079 7.28189895,3.0520695 C7.28234346,3.05844547 7.28838883,3.06744478 7.29741243,3.07043278 Z M7.71573788,2.87518908 L7.71570738,2.87518908 C7.71538713,2.86287239 7.70608469,2.85731987 7.69147528,2.85682579 C7.67418188,2.85623761 7.65681223,2.85609644 7.63948833,2.8562729 C7.58866038,2.85682579 7.53774093,2.85634348 7.48705023,2.85882564 C7.45391217,2.86043728 7.44932195,2.865531 7.44895595,2.89089374 C7.44828495,2.93780776 7.44889495,2.98473354 7.44932195,3.03163579 C7.4493677,3.03675304 7.45157894,3.041835 7.45287518,3.0472581 C7.4653801,3.05024611 7.47620754,3.05475164 7.48727898,3.05517514 C7.55186235,3.05769259 7.61650672,3.05931599 7.68115109,3.06096293 C7.68664105,3.06110409 7.69219202,3.0592807 7.69666024,3.05853958 C7.69873423,3.05598684 7.70064047,3.05458695 7.70108272,3.05295178 C7.71662238,2.99423868 7.71721712,2.9347727 7.71573788,2.87518908 Z M7.94522506,2.90959818 L7.94522506,2.90958641 C7.93421774,2.88817631 7.88966813,2.8725187 7.8150185,2.85907268 C7.81017528,2.86656622 7.80601251,2.86989537 7.80617262,2.87321276 C7.8094548,2.92624395 7.8126169,2.97929866 7.81774031,3.03231809 C7.81854084,3.04022336 7.82610587,3.0483639 7.83575228,3.05579862 C7.84868088,3.0657155 7.87361746,3.07139741 7.91188289,3.07005634 C7.91836721,3.06699775 7.92605231,3.06493909 7.92737319,3.06257457 C7.95591217,3.01181379 7.97148252,2.96079421 7.94522506,2.90959818 Z M7.50693141,3.46800199 L7.50699035,3.46800199 C7.46136677,3.47029686 7.41480006,3.47265731 7.36328195,3.47528002 C7.36505031,3.51927605 7.36628816,3.5477325 7.36776179,3.58372926 C7.52650121,3.59441682 7.52650121,3.59441682 7.50693141,3.46800199 Z M7.88806187,3.42519354 L7.73556277,3.42519354 L7.73556277,3.54519354 L7.88806187,3.54519354 L7.88806187,3.42519354 Z M4.31593812,2.60860973 L4.31593812,2.60862149 C4.35967487,2.61123305 4.40373186,2.61264471 4.4475906,2.61215063 C4.54360403,2.61105659 4.63963272,2.60942143 4.73558516,2.60618638 C4.87496934,2.60149263 5.01263028,2.6077392 5.14907122,2.63286667 C5.23430297,2.64854781 5.32038872,2.65224164 5.40476647,2.62471436 C5.53605295,2.58187062 5.67380539,2.57569463 5.81379957,2.58350579 C5.85067385,2.58556445 5.88777688,2.58607029 5.92475791,2.5859056 C5.93947408,2.58583502 5.95484599,2.58355284 5.9687234,2.57964726 C5.98667255,2.57458883 5.99112552,2.56366027 5.97924584,2.55174354 C5.96806766,2.54054441 5.95414449,2.53041578 5.93932158,2.52213407 C5.910179,2.50586474 5.87967918,2.49107765 5.84954536,2.47591412 C5.83104721,2.46659719 5.81979278,2.45630387 5.82160752,2.43643483 C5.82377301,2.41261314 5.80916359,2.40286095 5.77759628,2.40043761 C5.76499985,2.39947298 5.75215943,2.39954356 5.739502,2.40015528 C5.71989062,2.40108462 5.70035548,2.40309623 5.6807441,2.40427261 C5.63609236,2.40694299 5.61027426,2.39309701 5.59836408,2.35978194 C5.59433811,2.3484887 5.59270637,2.33666608 5.58825339,2.32550224 C5.58242793,2.31093866 5.57666346,2.2960457 5.56762026,2.28263497 C5.55645733,2.26603626 5.54070417,2.26116605 5.5180428,2.26691854 C5.50291489,2.2707653 5.48824448,2.27697659 5.47523631,2.28419956 C5.4592849,2.29304593 5.44473649,2.30357453 5.43056932,2.31419723 C5.40020675,2.33694841 5.36635195,2.34126573 5.32876092,2.32697271 C5.30800579,2.31906744 5.28757091,2.3106328 5.26719703,2.30215111 C5.23567546,2.289058 5.22554952,2.28972854 5.19913668,2.30818593 C5.19227422,2.31298556 5.18606751,2.31840867 5.17992179,2.32380825 C5.16377214,2.33799539 5.15977666,2.35346478 5.1704821,2.37127517 C5.1787933,2.38514468 5.186525,2.39936711 5.19253347,2.41391892 C5.21065036,2.45779788 5.19029173,2.47573766 5.13180833,2.46900877 C5.09520854,2.4648091 5.05856301,2.46033886 5.02173447,2.45800962 C4.96444056,2.45436285 4.91236212,2.46310335 4.86796963,2.49548907 C4.81168221,2.53653295 4.74194437,2.55504917 4.66607606,2.55921355 C4.56047043,2.56498957 4.45582555,2.55540208 4.35133316,2.54506171 C4.28711579,2.53872102 4.22312717,2.53100397 4.1589098,2.52458094 C4.14590162,2.52329869 4.1324207,2.5250162 4.11707929,2.5254044 C4.12023602,2.53114514 4.12099852,2.53395668 4.12305726,2.53594477 C4.12665624,2.53945038 4.13071271,2.54274424 4.13516569,2.54559108 C4.18806762,2.57941199 4.24644428,2.60444534 4.31593812,2.60860973 Z M11.7804185,11.8567993 L11.7804185,11.8726804 L11.8760279,11.8726804 L11.8760279,11.9062073 L11.9030892,11.9062073 L11.9030892,11.8726804 L11.9329176,11.8726804 L11.9329176,11.8567993 L11.9030892,11.8567993 L11.9030892,11.7658299 L11.8809532,11.7658299 L11.7804185,11.8567993 Z" id="Combined-Shape" fill="#2B2926"></path>
    </g>
</svg>