<?xml version="1.0" encoding="UTF-8"?>
<svg width="12px" height="12px" viewBox="0 0 12 12" version="1.1" xmlns="http://www.w3.org/2000/svg" xmlns:xlink="http://www.w3.org/1999/xlink">
    <!-- Generator: Sketch 53.2 (72643) - https://sketchapp.com -->
    <title>Combined Shape</title>
    <desc>Created with Sketch.</desc>
    <g id="Page-1" stroke="none" stroke-width="1" fill="none" fill-rule="evenodd">
        <path d="M1,0 L11,0 L12,0 L12,11 L12,12 L1,12 L0,12 L0,0 L1,0 Z M10.5714851,1 L1,1 L1,1.65104114 L10.5672828,1.65104114 L10.5672675,1.65104114 C10.5714636,1.63026501 10.5725979,1.28511202 10.5714851,1 Z M11,11 L11,9.5078497 C10.9441187,9.51385157 10.8882242,9.51975129 10.8321928,9.52483084 C10.7138177,9.53555884 10.5952138,9.54482821 10.4765947,9.55382703 L10.4765642,9.55385056 C10.3337666,9.56469619 10.1908622,9.57482427 10.0479579,9.58482296 C9.93153535,9.59296307 9.81505183,9.60053855 9.69858355,9.60823165 C9.5717422,9.61663055 9.44491611,9.62511179 9.318029,9.63311074 C9.18769437,9.64133319 9.05728346,9.64906159 8.92690306,9.65691938 C8.78727843,9.66531828 8.6476843,9.67404654 8.5080139,9.68185728 C8.35793991,9.69025618 8.20783542,9.69860802 8.0576394,9.70543066 C7.89356176,9.7128885 7.72940786,9.71966408 7.56519293,9.72466342 C7.42974803,9.72878053 7.29453195,9.72159324 7.15919383,9.71617042 C6.91182651,9.70625408 6.66416935,9.70061952 6.41661897,9.69306757 C6.30326262,9.6896092 6.18998254,9.68508039 6.07775503,9.67125867 C5.99986544,9.6616717 5.92365385,9.64675601 5.84982197,9.62502945 C5.83865566,9.62173576 5.82510964,9.62039476 5.81867223,9.60736118 C5.83017414,9.60530263 5.83993703,9.6029147 5.849944,9.60190307 C5.87517498,9.59937399 5.900528,9.59744483 5.92581999,9.59526865 C6.13984093,9.57689459 6.35431951,9.56334343 6.56957606,9.55770887 C6.60997004,9.55665019 6.65022672,9.55247427 6.69045289,9.54909824 C6.70253447,9.54808661 6.71579065,9.54680442 6.72198399,9.53524124 C6.7054786,9.51899631 6.68212392,9.51629078 6.6596235,9.51462041 C6.6297399,9.51240894 6.59950543,9.51167962 6.56945403,9.51212662 C6.39451517,9.5146557 6.21988141,9.51104441 6.04572053,9.49758736 C5.95817483,9.49081178 5.87110202,9.48123656 5.78692757,9.46002758 C5.74815058,9.45026416 5.71102107,9.43784226 5.67961201,9.41695089 C5.65721837,9.40204696 5.63874515,9.38477864 5.63134671,9.36196987 C5.62169059,9.33212673 5.63523661,9.31496428 5.6740136,9.30869451 C5.68977152,9.30613014 5.70606335,9.30489501 5.72217213,9.3044833 C5.7510947,9.30374222 5.78006304,9.30398925 5.80900086,9.30398925 C5.90775864,9.30402454 6.00151293,9.28608572 6.09185021,9.25601908 C6.09851643,9.25379584 6.10458773,9.25040805 6.11091836,9.24758489 C6.09816558,9.24298549 6.08699927,9.24300902 6.07583296,9.24298549 C6.00287058,9.24297373 5.92983193,9.24492641 5.85706786,9.24226794 C5.80302109,9.24029173 5.74903534,9.23369259 5.69569028,9.22625828 C5.67624076,9.22354099 5.65717261,9.21411869 5.64075875,9.20475522 C5.62576355,9.19621516 5.62860089,9.18626353 5.64542663,9.17954676 C5.65454883,9.17588842 5.66484563,9.17380634 5.67486786,9.17174779 C5.69832931,9.16693665 5.7222484,9.16329007 5.74540476,9.15773786 C5.7590118,9.15445594 5.77153576,9.14840967 5.78691232,9.14272807 C5.76915605,9.11967227 5.76422884,9.11626095 5.73814361,9.10596819 C5.69488179,9.08888808 5.64800464,9.08328881 5.60051732,9.08090089 C5.44574494,9.07311368 5.29085053,9.06683215 5.13613917,9.0582921 C5.09359431,9.05593946 5.05098843,9.05325746 5.00870289,9.04892862 C4.96746992,9.0601742 4.91603167,9.06693802 4.84726429,9.06631457 C4.63531797,9.0644207 4.28666062,9.00041734 4.23879193,9.10709745 C4.190969,9.2137658 4.17727044,9.22977546 4.04737819,9.24044465 C3.91747068,9.25109031 4.02574728,9.22544662 3.61350908,9.31098833 C2.99513654,9.43931266 2.86759348,9.37392124 3.03964923,9.34177252 C3.26494326,9.2996604 3.03202197,9.24650268 2.70569724,9.31510543 C2.49698488,9.35897026 2.47726078,9.2629711 2.22519507,9.31098833 C1.9731446,9.35899379 2.47183017,9.49911657 1.91928089,9.5337826 C1.64146554,9.55121561 1.15550224,9.52311342 1.36743331,9.60311468 C1.57937963,9.6831277 1.57777791,9.78980781 1.31536963,9.78446734 C1.1862244,9.78184372 1.08625551,9.79128497 1,9.80589339 L1,11 L11,11 Z M11,4.6697012 L11,2.41622414 C10.8965576,2.40931045 10.7929644,2.40348679 10.6892885,2.39944876 C10.4916204,2.39177918 10.2937692,2.38668573 10.0959944,2.38055712 C9.78013423,2.37080546 9.46415206,2.36642956 9.14810888,2.37193472 C9.02430318,2.37408738 8.90075681,2.38087472 8.77855284,2.39827244 C8.67532549,2.41295287 8.58047288,2.43969053 8.50462739,2.50023552 C8.45968757,2.53607788 8.40402382,2.56098049 8.34326506,2.57779005 C8.28116391,2.59497602 8.21900173,2.61215024 8.15613785,2.6274894 C8.06062929,2.65079223 7.96919368,2.64738091 7.88556839,2.59864613 C7.85144403,2.57876639 7.81167549,2.56947349 7.76949674,2.56566223 C7.65772686,2.55556943 7.58310174,2.69164569 7.47072168,2.69253969 C7.37922506,2.69325724 7.27700451,2.92922626 7.23221723,2.98784209 C7.2135762,3.01225065 7.18948931,3.02689578 7.15643277,3.03563581 C7.12195755,3.04476403 7.08659757,3.05012803 7.05064266,3.04703432 C7.01053852,3.04358771 6.97090727,3.03689447 6.93098619,3.03202452 C6.91449605,3.03000126 6.89759404,3.02401381 6.87765638,3.03421247 C6.88214121,3.04488166 6.88586331,3.05597432 6.89141596,3.06646706 C6.90114835,3.08479406 6.9121316,3.10272112 6.92238264,3.12087168 C6.93327437,3.14021032 6.95903926,3.19657939 6.90712812,3.24178522 C6.87948692,3.26208843 6.78074441,3.25026646 6.7565965,3.27315757 C6.73310453,3.295437 6.77217136,3.43472459 6.53339234,3.38482526 C6.40882391,3.39178905 6.40104411,3.50097471 6.34411423,3.49896321 C6.29116579,3.50803261 6.23522746,3.50858548 6.18879269,3.47770718 C6.14083248,3.44581725 6.08266698,3.43080746 6.02366249,3.41707985 C6.00558589,3.41285687 5.99040764,3.41456253 5.97518362,3.4240554 C5.9379931,3.44725236 5.89436517,3.45941546 5.84754904,3.46282678 C5.7873547,3.4672262 5.72703832,3.46533234 5.6679423,3.45492194 C5.59771048,3.44254709 5.53289402,3.42459651 5.50037138,3.36628652 C5.48578806,3.34014877 5.46478258,3.33931359 5.43172603,3.3530412 C5.40838662,3.3627458 5.38474211,3.37433252 5.35946537,3.37841434 C5.26209575,3.39417697 5.21683559,3.36673352 5.19177241,3.3179164 C5.18538076,3.30547097 5.17699078,3.29319023 5.16657194,3.28260339 C5.15128691,3.26709954 5.1357578,3.2692522 5.1240881,3.28676755 C5.11881003,3.29469592 5.11543878,3.30397705 5.10797932,3.31032916 C5.07574652,3.33772556 4.99912305,3.34530104 4.95674599,3.32769158 C4.93035567,3.31670479 4.90268397,3.3073766 4.8749665,3.29848365 C4.85011689,3.29053176 4.82766223,3.29368428 4.80931104,3.31056442 C4.80037189,3.31879863 4.78981576,3.32598593 4.77971727,3.33342024 C4.73416727,3.36699231 4.68329344,3.37465012 4.62717205,3.3510297 C4.5946189,3.33733738 4.56296577,3.32232758 4.53076347,3.30809416 C4.52011582,3.30338889 4.50904104,3.29930708 4.49471704,3.29355489 C4.49128477,3.32386856 4.48001168,3.34804185 4.45555868,3.36732167 C4.36209423,3.44099435 4.25583123,3.49872795 4.12612203,3.52666546 C4.04280183,3.54461604 3.96215118,3.54401612 3.88424634,3.50902072 C3.85980859,3.49803392 3.83012329,3.49390505 3.80246684,3.48761176 C3.79442771,3.48577671 3.78513771,3.48731768 3.7771901,3.48731768 C3.77502396,3.49259934 3.77305613,3.49516371 3.77311715,3.49769279 C3.7741392,3.53612304 3.74410304,3.55442652 3.70189378,3.56473105 C3.66296424,3.57424745 3.62311943,3.58008197 3.58226782,3.57838808 C3.5447417,3.57683534 3.50845119,3.57932913 3.47335054,3.59045708 C3.45153657,3.59736206 3.43039381,3.59522116 3.41001377,3.58617529 C3.38993881,3.57722353 3.36936046,3.56895402 3.34936179,3.55988463 C3.32204094,3.54748625 3.29482687,3.5468981 3.26669753,3.55824955 C3.25232777,3.56403702 3.23736309,3.56895402 3.22252044,3.57396513 C3.17222628,3.59089232 3.11984225,3.60087924 3.0651853,3.60516103 C2.96079861,3.61333643 2.85700684,3.60868998 2.75353542,3.59806785 C2.66328967,3.58881024 2.58085424,3.56454284 2.51339874,3.51471409 C2.4565909,3.47274313 2.409668,3.42493764 2.37362156,3.3706977 C2.36829773,3.36268699 2.36292814,3.35468804 2.35772635,3.34663027 C2.34021416,3.31936327 2.29757777,3.30815297 2.27108067,3.34327777 C2.26058556,3.35714654 2.24665818,3.36955668 2.23332573,3.3820021 C2.21904749,3.39534152 2.20057427,3.40165834 2.17784503,3.3987646 C2.16757874,3.39745889 2.15731244,3.39610613 2.14696988,3.39522389 C2.10331144,3.39145968 2.0596835,3.38555457 2.01593354,3.38478997 C1.96582243,3.38393126 1.95461036,3.39392995 1.94695259,3.42717264 C1.93808971,3.46563818 1.91249262,3.49812803 1.87582075,3.52430106 C1.86087132,3.53498201 1.84230657,3.54428667 1.82328418,3.54948599 C1.77216628,3.56340181 1.72568575,3.55514407 1.68483414,3.5266537 C1.60999546,3.47444879 1.52519557,3.09527504 1.43411082,3.06310279 C1.30249481,3.01660302 1.16733975,3.01553257 1.03111687,3.04928108 C1.02026832,3.05196766 1.00989206,3.05503735 1,3.05849024 L1,8.40794618 C1.11627386,8.4157466 1.23262552,8.42302992 1.34876178,8.43197433 C1.44880093,8.4396792 1.54870279,8.44806634 1.64514188,8.47351005 C1.70960749,8.49050782 1.77555278,8.48469682 1.83953025,8.46805195 C1.85296948,8.46455829 1.86868164,8.46141752 1.87489023,8.44436094 C1.85762211,8.43618554 1.84073535,8.42719849 1.82273502,8.41991709 C1.7929887,8.40789514 1.76205253,8.39761414 1.73256554,8.38525105 C1.7201026,8.38002821 1.70570233,8.37377021 1.70750236,8.35640778 C1.7221467,8.35469036 1.73657748,8.35217304 1.75113029,8.35145549 C1.84007941,8.34709136 1.92908954,8.34376238 2.01796239,8.33888067 C2.10451654,8.33412835 2.19096392,8.32805856 2.27742655,8.32221227 C2.28631993,8.32161235 2.29495399,8.31847159 2.31049835,8.31498969 C2.28137747,8.30528508 2.25997537,8.29865066 2.23910719,8.291134 C2.07236001,8.23108306 1.98486008,8.12783779 1.9702615,7.9865387 C1.96052911,7.89229225 1.97576838,7.79897509 1.99479077,7.70612846 C2.02662696,7.55076062 2.07728722,7.39888645 2.13650528,7.24864735 C2.19363346,7.10368991 2.25431595,6.95966176 2.33202248,6.82042122 C2.35562123,6.77815618 2.38335395,6.73773796 2.41940038,6.70069577 C2.44376185,6.67567552 2.46554531,6.64891433 2.48598637,6.62178848 C2.547996,6.53944635 2.60880052,6.45656312 2.67492887,6.36736306 C2.68676638,6.3994412 2.69694115,6.42521429 2.70577352,6.45126969 C2.81729932,6.78050882 2.96894452,7.09770246 3.16862621,7.40093324 C3.25479901,7.53178664 3.33287165,7.66575729 3.3995034,7.80359801 C3.43623629,7.87958804 3.47327427,7.95550748 3.51109023,8.03116813 C3.53571102,8.08039696 3.56853875,8.12595569 3.61848206,8.16257441 C3.63248571,8.17284365 3.64950976,8.1806191 3.6651609,8.18951205 C3.67365766,8.19433495 3.6822307,8.19908726 3.69075798,8.20387487 C3.69019357,8.20598047 3.68961389,8.20808608 3.68904948,8.21019169 C3.67617466,8.21292074 3.66345239,8.21627324 3.65037926,8.21826122 C3.63338573,8.22084911 3.61584303,8.22149608 3.59900203,8.22451922 C3.55955384,8.23156535 3.53537542,8.2531978 3.51026648,8.28059421 C3.56130811,8.28065302 3.60380721,8.27313636 3.64368253,8.25791483 C3.67239154,8.24695157 3.70203107,8.24132877 3.73389777,8.24115233 C3.752371,8.24105822 3.77090524,8.2397878 3.78930219,8.23828212 C3.9021704,8.2290598 4.01511488,8.22340172 4.12880683,8.22437806 C4.23294945,8.22529559 4.33713783,8.22202543 4.4412957,8.22013156 C4.45555868,8.21987277 4.46974539,8.21694374 4.48542704,8.21508516 C4.47998117,8.1960406 4.45209591,8.18962968 4.45722143,8.16684444 C4.47032506,8.16490352 4.48461855,8.16063349 4.49857643,8.16117459 C4.52966515,8.16236267 4.56115048,8.16390365 4.59149172,8.16898533 C4.68109679,8.1839716 4.76862723,8.17678431 4.85553224,8.1577868 C4.86444088,8.15582235 4.87267832,8.15206991 4.88858879,8.1466118 C4.86456292,8.13538974 4.84805753,8.12747314 4.83127755,8.11989766 C4.80026511,8.10587597 4.76871876,8.09256007 4.73817921,8.0779267 C4.72730273,8.07269209 4.71343637,8.06723399 4.71665508,8.0506244 C4.7349605,8.04989509 4.7531744,8.04845998 4.77137304,8.04857761 C4.83620476,8.04897756 4.90103648,8.05100082 4.96582243,8.05023622 C5.00263159,8.04978922 5.03953228,8.04594266 5.0760211,8.04166087 C5.08566196,8.04051985 5.09978764,8.03288556 5.10113004,8.02678047 C5.10254871,8.02038131 5.09217564,8.01150013 5.08488397,8.00512449 C5.0789042,7.99991341 5.06964471,7.99705497 5.06229203,7.9927026 C5.05532071,7.98858549 5.04892907,7.98389199 5.04320862,7.98006896 C5.05111046,7.96408282 5.06448868,7.95882469 5.08236698,7.95822477 C5.10431824,7.95748369 5.12628475,7.95643677 5.14817499,7.95483698 C5.17360427,7.95295487 5.19120799,7.94222687 5.1999946,7.92358226 C5.20797271,7.90665507 5.20116919,7.89745628 5.17866877,7.89443315 C5.16959233,7.89320978 5.16019555,7.89329212 5.15095131,7.89324507 C5.12085414,7.89309215 5.09072646,7.89369207 5.06065979,7.89288041 C5.04796803,7.89253928 5.03539831,7.88938675 5.01948784,7.88699883 C5.02536083,7.88016443 5.02706934,7.87648256 5.03042533,7.87456517 C5.04828838,7.86434298 5.06732602,7.85530887 5.06294797,7.83377052 C5.06233779,7.83079444 5.07066676,7.82458349 5.07611262,7.82344247 C5.08589077,7.82139568 5.09672148,7.82105455 5.1069115,7.82172505 C5.22762053,7.82971223 5.34736853,7.82046639 5.46713178,7.81058533 C5.57064896,7.80203351 5.67387631,7.79172898 5.77836979,7.79105848 C5.89041425,7.7903174 5.99879762,7.77304908 6.10284872,7.73965347 C6.17067032,7.71789162 6.23313759,7.6890013 6.29375906,7.65717018 C6.36673669,7.6188458 6.43977534,7.57974505 6.52269892,7.55580702 C6.66346764,7.51517706 6.79415313,7.45954907 6.92218433,7.39948637 C6.93400659,7.39394592 6.94643902,7.38886423 6.95934435,7.38513531 C7.20944223,7.3129095 7.46854028,7.27364407 7.73354183,7.25461127 C7.80237023,7.24965898 7.8725868,7.24348332 7.93834904,7.22801476 C8.12367622,7.18437344 8.27625195,7.09967867 8.40143055,6.98524664 C8.44795685,6.94272281 8.47552177,6.89184714 8.49311023,6.83778365 C8.51114107,6.78235563 8.51908868,6.72578659 8.52061413,6.66886465 C8.52268875,6.59122779 8.52154466,6.51353211 8.52279553,6.43587171 C8.52357351,6.38621941 8.52456505,6.33652005 8.52869903,6.28699714 C8.5307889,6.26203572 8.53847718,6.2371331 8.54650106,6.21275983 C8.55534868,6.18577514 8.57821521,6.16721287 8.61188194,6.1570495 C8.62130923,6.15420282 8.6304772,6.15081502 8.63962991,6.14772131 C8.63125518,6.13626399 8.62246857,6.12662996 8.61680915,6.11597254 C8.60678693,6.09711619 8.61032597,6.09223448 8.63435185,6.0859059 C8.64146045,6.08402379 8.64863008,6.0822005 8.66127608,6.07893035 C8.63645697,6.06632024 8.61629049,6.05606276 8.59629181,6.04589939 C8.60527673,6.02888986 8.62190416,6.02605494 8.63639595,6.02106735 C8.65433527,6.01487993 8.67364749,6.01052756 8.69015289,6.00257566 C8.71350756,5.99134185 8.71391943,5.97834355 8.6945767,5.96282794 C8.68572908,5.95572299 8.67521871,5.94961791 8.66788128,5.94167778 C8.65215387,5.92472706 8.65961333,5.91319916 8.68669011,5.91091711 C8.7011514,5.90970551 8.71687881,5.91179935 8.7298299,5.89974211 C8.72497896,5.89194313 8.72047888,5.88383831 8.71501776,5.87614521 C8.69523264,5.84836062 8.69518688,5.84816065 8.72853326,5.82801035 C8.73126382,5.82635174 8.73397913,5.82464609 8.73681647,5.82310511 C8.76271865,5.809154 8.77568499,5.78995652 8.77388496,5.76539504 C8.77257307,5.74737388 8.76936962,5.72944682 8.76816451,5.71144918 C8.76737128,5.69986247 8.7674628,5.68808755 8.76938487,5.67661846 C8.77150525,5.66392601 8.78119187,5.65492719 8.79836846,5.65316272 C8.81302806,5.6516688 8.82747409,5.66037354 8.83368268,5.6748187 C8.83694715,5.68240594 8.8386404,5.69062839 8.83925058,5.69862734 C8.84030314,5.71214321 8.84102011,5.72576495 8.83996754,5.73924553 C8.83755733,5.77024146 8.85394069,5.79113284 8.89122274,5.80250782 C8.90078732,5.80541332 8.91326552,5.80650729 8.91741475,5.81674124 C8.89933814,5.82095245 8.88173442,5.82302277 8.8666477,5.82898669 C8.83665731,5.84085572 8.83528441,5.86031199 8.86297136,5.87496889 C8.87718858,5.88249731 8.89375499,5.88728492 8.90907053,5.89357821 C8.92081651,5.89838934 8.9322574,5.90361219 8.94970857,5.91122295 C8.93315742,5.91891606 8.92258603,5.9236919 8.91222821,5.92870301 C8.90130598,5.93398467 8.89061256,5.93951336 8.87785978,5.94591252 C8.89764489,5.95552302 8.91260958,5.96275736 8.92900819,5.97070926 C8.91610286,5.98502503 8.90586708,5.99636472 8.89236683,6.01136275 C8.92466065,6.01703259 8.95179844,6.02179667 8.98137696,6.02699599 C8.97785317,6.04082947 8.97461921,6.05116928 8.97271239,6.06166202 C8.96970725,6.07822456 8.97463446,6.08783506 8.99289412,6.09182277 C9.02283875,6.09838661 9.05345458,6.10370356 9.0842382,6.10707959 C9.10536571,6.10942046 9.11044547,6.10388001 9.10708947,6.08618822 C9.10408433,6.07015503 9.09776896,6.0544865 9.09505366,6.03842978 C9.08823488,5.99824682 9.08095848,5.95806386 9.07712959,5.91769269 C9.07459734,5.89080211 9.09066035,5.86836976 9.11393875,5.84752543 C9.13650019,5.86320573 9.14542409,5.88779074 9.17887725,5.88441471 C9.20491672,5.88175623 9.23333589,5.88445 9.25928384,5.86511136 C9.24375473,5.85841812 9.23310708,5.85368933 9.22230688,5.84923109 C9.20699134,5.84290251 9.19071476,5.83776201 9.17636026,5.83033946 C9.15312762,5.81835279 9.15419544,5.81108316 9.17686366,5.79827308 C9.19641995,5.78723923 9.21731865,5.77675826 9.23345793,5.76305417 C9.2584906,5.74183343 9.25685837,5.72061269 9.22907988,5.70140344 C9.20937104,5.68773465 9.1859401,5.67734778 9.16388206,5.66583164 C9.12356436,5.64482264 9.08252969,5.62462529 9.04292896,5.60281639 C9.03118297,5.59634665 9.02004717,5.59634665 9.00730965,5.59593494 C8.96696144,5.59464099 8.92612508,5.59514681 8.88643282,5.59018275 C8.80419569,5.57984293 8.7654187,5.54815298 8.75013367,5.48452604 C8.74657936,5.46970445 8.74322337,5.45484758 8.73966906,5.4394496 C8.71877037,5.44096705 8.70049545,5.44351966 8.68220528,5.44340203 C8.62683137,5.44304913 8.59597147,5.42413397 8.58279156,5.38233946 C8.57867284,5.36935292 8.57774232,5.35566061 8.57658297,5.34222707 C8.57478294,5.32137099 8.57353207,5.31966533 8.54747735,5.3158423 C8.53952974,5.31466599 8.53133806,5.31453659 8.52339046,5.3133838 C8.49391872,5.30901967 8.46932843,5.29807993 8.44987892,5.28010582 C8.43561594,5.26691932 8.43145145,5.2528741 8.4449212,5.23809957 C8.4581011,5.22365441 8.45771974,5.20851522 8.45483663,5.19167037 C8.44228216,5.11805651 8.45198404,5.04747754 8.50641217,4.98375649 C8.51344451,4.97552228 8.52026328,4.96693517 8.52515998,4.95783049 C8.55539444,4.90152023 8.6107531,4.88305207 8.68496635,4.89220381 C8.69295972,4.89318015 8.70109038,4.89362715 8.70897697,4.89496815 C8.83313352,4.91602421 8.94626105,4.95540728 9.04344761,5.02003408 C9.07863979,5.04343101 9.11204719,5.06856889 9.14472238,5.09411847 C9.16749738,5.11195143 9.19085205,5.11731543 9.22288655,5.11025753 C9.2706332,5.09975303 9.3195392,5.0922599 9.36826214,5.08474324 C9.46567751,5.06972168 9.55697583,5.08103784 9.64017399,5.12522027 C9.66026419,5.1358777 9.68097983,5.14582933 9.70157344,5.15587507 C9.7113821,5.16065092 9.72160263,5.16490918 9.73162485,5.16939094 C9.75229472,5.1786015 9.7712866,5.17760163 9.78820387,5.16373286 C9.79299379,5.15981573 9.79833287,5.15629855 9.80306177,5.15233436 C9.91300111,5.06036997 10.0165488,4.96455902 10.0984351,4.85551451 C10.1177015,4.82984729 10.1384019,4.80473294 10.1601854,4.78031262 C10.2076422,4.72704902 10.2726265,4.69292409 10.3526212,4.67566754 C10.4154698,4.66212814 10.4796761,4.65459971 10.5445383,4.65452913 C10.640535,4.6544115 10.7367453,4.65507024 10.8325284,4.65965787 C10.8884011,4.66234003 10.9442113,4.66586245 11,4.6697012 Z M3.46438088,8.46114697 L3.46441139,8.46115873 C3.46500632,8.46102934 3.46523513,8.45980597 3.46686737,8.45691223 C3.45972825,8.45499484 3.45266541,8.453348 3.44584664,8.45124239 C3.42452082,8.44460797 3.40121191,8.44022031 3.38247935,8.43050394 C3.35215336,8.41478835 3.32136974,8.41113001 3.2868335,8.41717627 C3.22036955,8.4288218 3.15357,8.43932631 3.08722809,8.45146589 C3.03557628,8.46093523 2.98458041,8.47254547 2.93305064,8.48246182 C2.8885532,8.49103716 2.85906621,8.51742194 2.82384351,8.53699584 C2.82254688,8.53771339 2.82288248,8.54024247 2.82123499,8.5467475 C2.83650477,8.54541826 2.84904398,8.54510065 2.86112557,8.54308915 C2.88142933,8.53971313 2.90174836,8.53600773 2.92151822,8.53110249 C2.95674091,8.5223507 2.99103307,8.52330352 3.0272168,8.52931449 C3.05598683,8.53407857 3.08825014,8.53717228 3.11619642,8.53197297 C3.2328325,8.51024641 3.34841601,8.48509677 3.46438088,8.46114697 Z M3.10136903,8.3862274 L3.10138428,8.38619211 C3.11192516,8.38427471 3.12199314,8.38079282 3.13228994,8.37802847 C3.13209163,8.37574642 3.13190858,8.3734526 3.13171027,8.37117055 C3.11785917,8.36993542 3.10382501,8.36694758 3.0901417,8.36771218 C3.02904734,8.37113526 2.96812078,8.37714624 2.90698066,8.37921655 C2.86452732,8.38065166 2.82172314,8.37791084 2.77922404,8.37560526 C2.76471699,8.37481713 2.74946247,8.37094705 2.74375728,8.35399633 C2.75342864,8.3494087 2.76334408,8.34370357 2.77429683,8.33975115 C2.78682079,8.33524586 2.80097699,8.33329317 2.81308908,8.32829383 C2.82021294,8.3253648 2.82480455,8.31867156 2.830525,8.31367222 C2.82230281,8.30987272 2.81455351,8.30481456 2.80566012,8.3026619 C2.79972612,8.30122679 2.79203784,8.30357942 2.78529534,8.30480279 C2.76279492,8.30887285 2.74005043,8.3124018 2.71796188,8.31760111 C2.64711988,8.33423422 2.57682704,8.3518672 2.50105784,8.3485147 C2.47594889,8.34740896 2.45265524,8.35551378 2.42702764,8.36841797 C2.47993032,8.37958121 2.53239062,8.36819447 2.57934404,8.3881095 C2.56582853,8.40836567 2.54406033,8.41369438 2.52361927,8.41832906 C2.45598072,8.43370352 2.38782352,8.44766639 2.31984937,8.46214684 C2.30895764,8.46448771 2.29802015,8.46666389 2.27916556,8.47054574 C2.29144545,8.47714487 2.29553366,8.48067382 2.30050664,8.48183837 C2.34392101,8.49190764 2.38762521,8.49870675 2.43355658,8.49329569 C2.47687942,8.48819048 2.52058362,8.48500266 2.56410477,8.48092085 C2.57786435,8.47963866 2.59183749,8.47906227 2.60527673,8.47662729 C2.77071202,8.44670181 2.93604052,8.41651754 3.10136903,8.3862274 Z M2.31685949,8.35163424 L2.31685949,8.35164889 C2.30352703,8.34788385 2.29301667,8.34196528 2.28296394,8.34259522 C2.25092944,8.34458762 2.2180712,8.34536406 2.1873486,8.35323108 C2.11376078,8.3721295 2.04117977,8.39473435 1.96827841,8.41602071 C1.9594613,8.4185698 1.95030858,8.42107494 1.94248301,8.42551387 C1.92834207,8.43354203 1.91677915,8.44395814 1.91979954,8.46235846 C1.96078844,8.46717829 2.28110289,8.37908822 2.31685949,8.35163424 Z M3.03966449,8.33691475 C3.0353322,8.30996101 3.0218167,8.30149943 3.00836221,8.29343012 C2.97632771,8.27419079 2.94465933,8.25381204 2.91181634,8.23694493 C2.89148206,8.22652207 2.86911893,8.21273699 2.84388796,8.24088619 C2.86069844,8.26968916 2.87651738,8.29892174 2.89442619,8.32606227 C2.89939916,8.33364593 2.91039767,8.33783002 2.9189402,8.3386519 C2.95103572,8.34173392 2.98326852,8.34328428 3.01547082,8.34421823 C3.02289977,8.34444237 3.03045076,8.33984735 3.03966449,8.33691475 Z M4.28922338,8.54446544 L4.28923863,8.54447721 C4.25099555,8.52015099 4.20860323,8.51576333 4.1619549,8.52537383 C3.99095171,8.5606045 3.81975022,8.5951882 3.64891483,8.6308541 C3.62342452,8.63618281 3.59910882,8.64534632 3.57503718,8.65403929 C3.5644658,8.65786232 3.55584699,8.66496727 3.5449095,8.67143701 C3.55188082,8.67531885 3.55441307,8.67775383 3.55749448,8.67825964 C3.56536581,8.67956535 3.57345071,8.68056522 3.58147459,8.68070638 C3.66037098,8.68225912 3.73894702,8.67921246 3.81619591,8.66596714 C3.99223309,8.6357711 4.16831604,8.60593972 4.3513703,8.58416611 C4.33520051,8.56432166 4.30922206,8.55719318 4.28922338,8.54446544 Z M3.56609803,8.57815514 L3.56608278,8.57817866 C3.57947625,8.57293229 3.58710351,8.56410992 3.57891183,8.54775913 C3.55078249,8.55060581 3.52103617,8.55215855 3.49215936,8.55691087 C3.45489257,8.56302771 3.4185563,8.57259116 3.38135052,8.5790609 C3.3532822,8.58391909 3.32461895,8.58714219 3.29597096,8.58944777 C3.2684518,8.59164748 3.24035297,8.59020061 3.21298636,8.59307083 C3.12533388,8.60224609 3.03937465,8.61791462 2.96400206,8.65539206 C2.90942138,8.68249438 2.85085927,8.70016265 2.78944457,8.71353736 C2.77794266,8.71603115 2.76551022,8.71599586 2.75234557,8.71724276 C2.7494167,8.70591483 2.74725056,8.69759828 2.74439797,8.68655267 C2.72295011,8.68882296 2.70331754,8.68941112 2.68469177,8.6931518 C2.6254127,8.70506789 2.56636244,8.71776034 2.5075105,8.73087626 C2.4619605,8.74102787 2.41683762,8.75229698 2.37147067,8.76300146 C2.34832956,8.76843604 2.3255088,8.76791846 2.30425925,8.75850793 C2.28590806,8.75037958 2.28441312,8.73831058 2.30180327,8.72861773 C2.31472385,8.72141868 2.32974956,8.71536065 2.34500408,8.7120552 C2.45151115,8.68895235 2.55243506,8.64933403 2.66562362,8.64589918 C2.67361698,8.64565216 2.68179341,8.64422882 2.68937491,8.64220555 C2.69599537,8.64044108 2.70191412,8.63704152 2.71565845,8.63115994 C2.69375295,8.62614884 2.68003914,8.62165531 2.66580667,8.61997318 C2.57293714,8.60902167 2.48089136,8.61317407 2.39122528,8.6346536 C2.2630873,8.66534369 2.13571204,8.69792765 2.00812322,8.7299705 C1.99386024,8.7335465 1.97994812,8.73822824 1.96649363,8.74336874 C1.95512901,8.74770935 1.9437949,8.75261458 1.93403201,8.75879024 C1.90759592,8.77549393 1.90602471,8.7929387 1.93119467,8.81125394 C1.94440508,8.82087621 1.96042233,8.83001619 1.97729383,8.83448619 C2.07017862,8.85909472 2.16535158,8.87234004 2.26374324,8.86131796 C2.33853616,8.85291906 2.40939341,8.83326282 2.47979303,8.81263023 C2.51899715,8.80112586 2.55481477,8.78532794 2.58866455,8.76578932 C2.6115921,8.75254401 2.63833328,8.74321582 2.6638846,8.73288776 C2.67431869,8.72867655 2.68600366,8.72701794 2.69593435,8.73494632 C2.71611608,8.75096774 2.74168266,8.7513324 2.76718822,8.74823869 C2.79566841,8.74476856 2.82384351,8.73966334 2.85200336,8.73467576 C2.89704996,8.72670034 2.94179148,8.71770152 2.98696012,8.71018486 C3.0142352,8.70564428 3.0412357,8.70564428 3.06912097,8.71203168 C3.08577891,8.7158547 3.10660133,8.71566649 3.1230457,8.71140823 C3.14899364,8.70470323 3.17488057,8.6952927 3.19704539,8.68291785 C3.22853072,8.66534369 3.26126692,8.65076913 3.29821338,8.64233495 C3.37141983,8.62565478 3.44487035,8.60972746 3.51803103,8.59296496 C3.53452117,8.58920075 3.55073673,8.58416611 3.56609803,8.57815514 Z M4.63408235,8.36465286 L4.6340671,8.3646328 C4.6340976,8.3613432 4.63411286,8.35803354 4.63415862,8.35474394 C4.58610688,8.32896871 4.53631612,8.3086494 4.485305,8.29845966 C4.44219572,8.28989466 4.39774404,8.2890522 4.35400933,8.29071706 C4.2709027,8.29392643 4.18776555,8.29964312 4.10481146,8.30774677 C4.06496665,8.31165819 4.02629644,8.32682245 3.98841946,8.34936825 C4.01101141,8.37197423 4.01508437,8.37578536 4.04923924,8.38328725 C4.15449544,8.40641476 4.26094149,8.41383642 4.36712822,8.40824008 C4.44773311,8.40402779 4.52792613,8.38631609 4.6082717,8.37406032 C4.61702779,8.37273646 4.6254788,8.36784217 4.63408235,8.36465286 Z M3.20250651,8.83687411 L3.202476,8.83688587 C3.27289087,8.83362748 3.34301591,8.82714597 3.41079175,8.81055992 C3.4280141,8.80632518 3.4467314,8.80384315 3.46439614,8.7871277 C3.44761616,8.78268122 3.43631256,8.77837591 3.42439878,8.77675259 C3.35381611,8.76716561 3.28326394,8.75744924 3.21242195,8.74926208 C3.15982435,8.74319229 3.11139125,8.75830795 3.06512428,8.77435291 C3.00195531,8.79627944 2.93576594,8.80661926 2.86838672,8.81573571 C2.79903966,8.82512271 2.7289909,8.83398037 2.66177948,8.84969595 C2.55450968,8.87476325 2.44922297,8.90510044 2.34335659,8.93375551 C2.32604271,8.93842548 2.30891188,8.94464819 2.29362685,8.95244717 C2.27407055,8.96242233 2.27509261,8.97343265 2.29704386,8.97946715 C2.32297655,8.98659563 2.35022113,8.99168908 2.37745045,8.99482984 C2.40823407,8.99838231 2.44075671,8.99537095 2.47048777,9.00137016 C2.51275805,9.00991021 2.55031469,9.00285232 2.58854252,8.99125384 C2.63592306,8.97686749 2.68336462,8.96263407 2.73098924,8.94874177 C2.77782062,8.93510827 2.82468251,8.93114408 2.87290206,8.94638914 C2.91314348,8.95909336 2.94932721,8.95214133 2.98175832,8.92917964 C3.00740117,8.91101732 3.03485931,8.89434892 3.06195134,8.87745702 C3.10298601,8.8518839 3.14969535,8.83932085 3.20250651,8.83687411 Z M5.16254474,8.28300902 L5.16254474,8.28304177 C5.15056995,8.26925541 5.141463,8.25356974 5.13116619,8.24797006 C5.10779627,8.23529709 5.08390769,8.22013537 5.06011063,8.21934945 C4.98275495,8.21692619 4.90523147,8.21551808 4.82802834,8.22393398 C4.78812251,8.22832204 4.74850652,8.25206339 4.70924138,8.27174416 C4.69607673,8.27835899 4.68448329,8.2995461 4.67215764,8.31408563 C4.67298138,8.320373 4.67378987,8.32669311 4.67459836,8.33301322 C4.69499365,8.33438858 4.71552624,8.3396608 4.73578425,8.33648437 C4.82680798,8.32237055 4.91758764,8.305506 5.00899273,8.32810122 C5.04206453,8.33628789 5.07586855,8.33304597 5.10930646,8.33104842 C5.12726104,8.32993503 5.14561223,8.32309097 5.16254474,8.28300902 Z M2.04795278,8.63595931 L2.04795278,8.63594755 C1.98975678,8.62877202 1.93163705,8.62107891 1.87322749,8.6152091 C1.84705073,8.61257415 1.82017226,8.61260944 1.79375143,8.61352696 C1.73883515,8.61544436 1.68698503,8.62827797 1.63620273,8.64367595 C1.56902181,8.66404974 1.49978154,8.67767148 1.42802427,8.68304725 C1.41039004,8.68437648 1.39197784,8.68782309 1.36827231,8.67785969 C1.38840828,8.67039009 1.40308313,8.66409679 1.4185207,8.65937977 C1.47767774,8.64134684 1.53782632,8.62517249 1.59609859,8.60555154 C1.63086365,8.59383543 1.66306594,8.57735524 1.6958174,8.56223958 C1.70573284,8.55766371 1.71689915,8.55217031 1.71668558,8.5373252 C1.70187344,8.54044244 1.68976135,8.542501 1.67806114,8.54555942 C1.56186744,8.57595543 1.44407203,8.60149325 1.32415623,8.62157297 C1.29666758,8.62618413 1.27013997,8.63721797 1.24554968,8.64846355 C1.22016616,8.66007379 1.21783222,8.6693314 1.2353139,8.68852888 C1.26809587,8.72448887 1.30270837,8.75948427 1.3378853,8.7940562 C1.35692294,8.81277139 1.38380141,8.82092326 1.41441724,8.82075858 C1.44471272,8.82058213 1.4699437,8.81010115 1.493756,8.79659704 C1.56720653,8.75489664 1.648086,8.72418302 1.73251978,8.69884517 C1.82198755,8.67200164 1.91346891,8.65539206 2.01044191,8.66519077 C2.02743545,8.66691995 2.04514595,8.66574364 2.06230728,8.66427324 C2.07432785,8.66322632 2.08595179,8.65940329 2.10440976,8.65536853 C2.0843043,8.63986468 2.06587684,8.63815902 2.04795278,8.63595931 Z M9.7201687,5.75603157 L9.72015345,5.75600804 C9.71362451,5.74795027 9.70689727,5.73999838 9.69910221,5.73058785 C9.71531776,5.724471 9.72828411,5.72062445 9.73978602,5.7149899 C9.75749651,5.70629692 9.7596474,5.69481607 9.74396575,5.68399397 C9.72941294,5.67393646 9.71194651,5.66644333 9.69574621,5.65787975 C9.68578501,5.65260985 9.67573228,5.64746935 9.66110319,5.63987035 C9.7167822,5.61163876 9.77484091,5.61080358 9.82852157,5.60709818 C9.83822344,5.59197075 9.83254876,5.58091338 9.82197738,5.57431425 C9.7915141,5.55528145 9.7601508,5.53682505 9.72718578,5.52056836 C9.71095497,5.51256941 9.70107004,5.51721586 9.69034611,5.53089642 C9.68735622,5.53471945 9.68473245,5.53880126 9.68261207,5.54296542 C9.66538971,5.57700801 9.6324552,5.59827581 9.59064256,5.61262687 C9.53748055,5.63085977 9.48216765,5.64321108 9.42491743,5.6505513 C9.40722219,5.65280982 9.38958796,5.65528009 9.36530276,5.65852672 C9.37697247,5.67170146 9.38374548,5.68070028 9.39222699,5.68859336 C9.40928155,5.70449716 9.42973786,5.71850708 9.44436695,5.73559895 C9.48422701,5.78212226 9.54106536,5.81267119 9.60103089,5.84018522 C9.6594557,5.8669817 9.66474902,5.87194576 9.71792629,5.82119948 C9.73980127,5.80031987 9.73887074,5.77919323 9.7201687,5.75603157 Z M9.45033147,5.37363472 L9.45031621,5.37363472 C9.46146727,5.36245971 9.44876025,5.35329621 9.44020246,5.34523844 C9.41474267,5.32122983 9.38202172,5.30449085 9.3477143,5.2890223 C9.32281892,5.27780024 9.2972981,5.26629587 9.27617059,5.25138018 C9.24727853,5.23099462 9.21570167,5.22263101 9.17777893,5.22611291 C9.16746687,5.22705396 9.15698701,5.22677165 9.14659868,5.22720688 C9.11650151,5.22851259 9.08915016,5.2219958 9.06524632,5.20809175 C9.04489679,5.19624624 9.02546253,5.18336558 9.00622658,5.17041434 C8.98699062,5.15742781 8.96847163,5.14379431 8.94967806,5.13041959 C8.93111331,5.1171978 8.90942138,5.11195143 8.88554805,5.11832706 C8.86162896,5.12470269 8.83716071,5.13113714 8.81546878,5.14097115 C8.77791215,5.15802773 8.74055383,5.16300355 8.69968696,5.1498641 C8.68603417,5.1454882 8.67143559,5.1414652 8.65694379,5.14842899 C8.65984215,5.19217619 8.69224276,5.21398509 8.74503866,5.20662135 C8.77797317,5.20203372 8.81035852,5.19515227 8.84292692,5.18905895 C8.88542602,5.18111882 8.92481319,5.18860019 8.95712227,5.20960919 C8.99333651,5.23314728 9.02573711,5.26029666 9.05932757,5.28624619 C9.06729043,5.29241009 9.07333122,5.30005614 9.07952455,5.30624356 C9.08609925,5.30544367 9.09008068,5.30579656 9.09275022,5.30451438 C9.12987973,5.28651674 9.16865672,5.28995159 9.2061981,5.30155006 C9.25659904,5.31711273 9.30594742,5.33479276 9.35552461,5.35196697 C9.37556906,5.35890724 9.39465246,5.36757669 9.4148647,5.37415229 C9.42615305,5.3778224 9.44070586,5.38322169 9.45033147,5.37363472 Z M2.55360966,7.49098024 L2.55364017,7.490992 C2.55145878,7.35290425 2.54798074,7.21479297 2.54885025,7.07672875 C2.54920111,7.02460618 2.55820127,6.97234245 2.56665228,6.92049044 C2.57539312,6.86681513 2.58880184,6.81363388 2.59919017,6.76013502 C2.60507842,6.72978606 2.60648183,6.69935477 2.5894883,6.66275957 C2.58109831,6.67416984 2.57565245,6.67971029 2.57269307,6.68598005 C2.56546243,6.70117806 2.55865891,6.71656427 2.55298423,6.73215046 C2.50232396,6.87112045 2.48150154,7.01343117 2.47738282,7.15731816 C2.47341664,7.29455897 2.47350817,7.43185859 2.49085256,7.56860534 C2.49860186,7.6295738 2.51019529,7.69037759 2.52355826,7.75075789 C2.54297726,7.83835816 2.6043462,7.91121918 2.66530327,7.98376259 C2.67386106,7.99393773 2.68807827,8.00152497 2.7008158,8.0091475 C2.70615488,8.0123706 2.71445334,8.01258234 2.72857903,8.01577016 C2.71909071,7.98849138 2.71242449,7.96590611 2.70330228,7.94396782 C2.69033594,7.91284249 2.69006136,7.88185833 2.70122767,7.85069771 C2.70348534,7.84440442 2.70891595,7.83879339 2.71425503,7.83085326 C2.71965513,7.83634665 2.72313316,7.83886397 2.72502472,7.84194592 C2.75284897,7.88753993 2.78071898,7.93311042 2.8079483,7.97891617 C2.82184517,8.00230134 2.84025738,8.02301626 2.86673923,8.03832014 C2.9076366,8.0619288 2.94838143,8.08592565 2.99155173,8.10675821 C3.01455554,8.1178744 3.04228827,8.12330898 3.06848028,8.12993164 C3.07574143,8.13175493 3.08506194,8.1286024 3.10068257,8.12696732 C3.08396362,8.10786395 3.07255324,8.09231305 3.05796991,8.0788207 C3.03859667,8.06090541 3.01759119,8.04397822 2.99591452,8.02774505 C2.91087056,7.96396519 2.84184385,7.89095125 2.78616485,7.80999717 C2.76046098,7.77261385 2.73446727,7.73535991 2.7078939,7.69835301 C2.69945814,7.68658985 2.68995458,7.67506195 2.67889505,7.66475742 C2.6628778,7.64985349 2.65122335,7.65001818 2.63162129,7.6622401 C2.62047023,7.66918037 2.6141091,7.68153169 2.59752743,7.68235511 C2.59517823,7.68028479 2.59269175,7.67910848 2.59231038,7.67760279 C2.57672026,7.61574033 2.55463172,7.5546307 2.55360966,7.49098024 Z M5.98761606,2.20265107 L5.98763131,2.2026393 C6.18328581,2.19395809 6.35738567,2.23028273 6.48193884,2.35988924 C6.50350873,2.38232159 6.51662762,2.38333323 6.54535188,2.36526501 C6.57146762,2.34886716 6.59596638,2.33089305 6.62095329,2.31340123 C6.68674604,2.26732493 6.76445258,2.24165771 6.85112877,2.23135318 C6.99972306,2.21368491 7.14734107,2.22057812 7.29154206,2.25117411 C7.39841524,2.27386525 7.50295448,2.30356723 7.60756999,2.33225758 C7.73279436,2.36660601 7.86042894,2.39057933 7.99352464,2.39340249 C8.16181253,2.39695497 8.32907836,2.38609757 8.49462043,2.36350054 C8.66997115,2.3395625 8.84458966,2.31229549 9.01914716,2.28506378 C9.09958425,2.27252425 9.17924336,2.25686748 9.25903976,2.24185768 C9.27505701,2.23882279 9.29356075,2.23742297 9.30576436,2.22150741 C9.2913641,2.21468478 9.27848928,2.20725046 9.26430257,2.20205115 C9.10011816,2.14192963 8.9278641,2.10513446 8.74624376,2.10100559 C8.65038435,2.0988294 8.5538995,2.10012335 8.45837568,2.10626372 C8.32708002,2.11470967 8.19631826,2.1287196 8.06551073,2.14142381 C8.00356212,2.14743479 7.94202538,2.15603366 7.88029033,2.1633974 C7.82963006,2.16945543 7.78362243,2.16176232 7.74402169,2.13516581 C7.72562473,2.12280273 7.70687693,2.11072196 7.68880032,2.09807656 C7.63777394,2.06238713 7.6150142,2.0182047 7.62377029,1.96468231 C7.62608898,1.95036654 7.62807207,1.93600372 7.62976532,1.92162914 C7.63090941,1.91192453 7.63126026,1.90217287 7.63249588,1.88529274 C7.61219211,1.89222124 7.59840202,1.89607955 7.58564924,1.90142003 C7.55204353,1.91553582 7.51930733,1.93092204 7.4854728,1.94466141 C7.43537695,1.96501168 7.38148272,1.97463395 7.32516303,1.97563382 C7.17043642,1.97839816 7.01746407,1.96749371 6.86824434,1.93454509 C6.74588782,1.90752511 6.6247059,1.87737613 6.50271549,1.84936804 C6.47515057,1.8430277 6.44663987,1.83776956 6.41811392,1.8357463 C6.38350141,1.83327604 6.36367053,1.84435693 6.35155844,1.86984771 C6.34354981,1.88669255 6.33729546,1.90424319 6.33281063,1.9218644 C6.32638848,1.94714344 6.30838814,1.96387065 6.27870284,1.97424576 C6.22024752,1.9947019 6.15988537,2.01105269 6.09575536,2.01364059 C6.01261822,2.01696956 5.929237,2.01702838 5.84597783,2.01843996 C5.83386574,2.0186517 5.82173839,2.01847525 5.81034326,2.01847525 C5.8097941,2.02298054 5.80921443,2.02407451 5.80968732,2.02461562 C5.81098395,2.02608601 5.81240262,2.02775638 5.81430944,2.0285798 C5.84634393,2.04235447 5.84751853,2.065175 5.83722173,2.08731327 C5.82960972,2.10372288 5.81543827,2.11912086 5.80041257,2.1323897 C5.76392375,2.16464429 5.71663474,2.18607677 5.66901012,2.2067917 C5.65859128,2.21132052 5.64849279,2.21622575 5.63557221,2.22218968 C5.64412999,2.22608328 5.64783684,2.22851826 5.6520776,2.22957694 C5.68350191,2.23745826 5.69494281,2.25502066 5.69346312,2.27952333 C5.69253259,2.29486249 5.69318854,2.3102487 5.69198343,2.32556434 C5.69091561,2.33942134 5.69784117,2.34765556 5.71512454,2.35149035 C5.75715075,2.36079501 5.80007697,2.36207719 5.84823549,2.36358288 C5.82751985,2.34035063 5.81022123,2.32031797 5.79205309,2.3007676 C5.77240527,2.27966448 5.76079658,2.25699687 5.7650831,2.22930639 C5.7709866,2.22808302 5.77632568,2.22656557 5.78183256,2.22593036 C5.85038638,2.21782554 5.91868088,2.20570949 5.98761606,2.20265107 Z M3.17250086,8.20376023 L3.17250086,8.20371153 C3.1419308,8.20220209 3.10989631,8.17376615 3.07447531,8.23292654 C3.10548775,8.29875769 3.13087127,8.31239136 3.21111006,8.31355996 C3.2237408,8.31375472 3.23836989,8.32748578 3.24947518,8.28035223 C3.22758494,8.20434453 3.19934882,8.20512359 3.17250086,8.20376023 Z M2.77948337,8.23498449 C2.73023925,8.16449149 2.68301907,8.15638507 2.62693815,8.20327086 C2.66666811,8.3109548 2.75132338,8.3239908 2.77948337,8.23498449 Z M2.35851958,7.69343601 C2.35203641,7.69351835 2.34326506,7.70024688 2.3400006,7.70570498 C2.336309,7.71184535 2.33690393,7.71982078 2.33691918,7.72700807 C2.33705647,7.76221521 2.3342954,7.79768114 2.33890227,7.83254715 C2.34381423,7.87001282 2.35279914,7.90753731 2.36539937,7.943909 C2.38222511,7.99244381 2.42599033,8.02608645 2.47870996,8.05292998 C2.48511686,8.05620014 2.4931865,8.05748233 2.50049342,8.0596938 C2.50302567,8.05828222 2.50554266,8.05687064 2.50805966,8.0554473 C2.50359009,8.04480164 2.5009358,8.03334432 2.49416279,8.023675 C2.4842321,8.00948863 2.4720895,7.99612568 2.45950452,7.98322149 C2.42159703,7.94428542 2.39992036,7.90013828 2.38704554,7.85269745 C2.37708434,7.81600815 2.37806063,7.77921298 2.38074542,7.74215902 C2.38166069,7.72965478 2.38166069,7.71670354 2.37828944,7.70461101 C2.37691654,7.69969401 2.3653231,7.6933419 2.35851958,7.69343601 Z M6.25807873,3.29703679 C6.26569074,3.29326081 6.27276883,3.28386204 6.27299765,3.27692178 C6.27376038,3.25277201 6.27583499,3.2267519 6.24604291,3.21067165 C6.2166627,3.19482668 6.18369768,3.19223878 6.15047333,3.20328439 C6.12515083,3.21171858 6.11808798,3.22244658 6.11970496,3.24638461 C6.14061891,3.25356014 6.16847367,3.2403854 6.18987576,3.26066509 C6.18238579,3.26709954 6.17582635,3.27406333 6.16763467,3.27946262 C6.15532427,3.28760273 6.14139689,3.29422539 6.12896446,3.30222434 C6.10699795,3.31638719 6.0919875,3.33384372 6.08826539,3.36204002 C6.10324533,3.36111073 6.11621168,3.36311046 6.12496777,3.35927567 C6.17004488,3.33951356 6.21443554,3.318681 6.25807873,3.29703679 Z M3.78483262,3.22064179 C3.78478685,3.21828871 3.7847716,3.21593563 3.78472584,3.21360608 C3.77337647,3.21041765 3.7623322,3.20609975 3.75061673,3.20424081 C3.70081071,3.19638152 3.65085215,3.18901638 3.60083258,3.18188654 C3.55214014,3.17495671 3.50244091,3.17225067 3.45798924,3.15155531 C3.44737209,3.14660208 3.42874632,3.14913164 3.41510878,3.15199063 C3.40223396,3.15470844 3.38999983,3.16134413 3.37935218,3.16803865 C3.3554941,3.18305131 3.3332225,3.1809806 3.30995936,3.1675445 C3.29327091,3.15790863 3.27642992,3.14816688 3.25846009,3.14010757 C3.21557963,3.12087113 3.17135677,3.11724738 3.12655424,3.13662501 C3.106342,3.14536671 3.08509245,3.15303776 3.06645143,3.16350897 C3.03333386,3.18209832 3.00340449,3.18752217 2.97202594,3.16095588 C2.96014267,3.15089645 2.94145588,3.14647266 2.92386741,3.15137883 C2.91291467,3.15443784 2.89848389,3.16072057 2.89576858,3.16787394 C2.89309904,3.17495671 2.90057376,3.18696919 2.90835356,3.19321663 C2.91755204,3.20057001 2.93114382,3.20586444 2.94404915,3.20884109 C2.9853889,3.21833577 3.02794901,3.22353608 3.07076846,3.21724159 C3.10124699,3.2127825 3.1314662,3.2062174 3.16089217,3.19844047 C3.19555044,3.18928698 3.22351198,3.19238128 3.24671411,3.21638272 C3.27520956,3.24586683 3.31461199,3.24861994 3.35610429,3.2383252 C3.37675891,3.23320725 3.39593384,3.22420671 3.41538336,3.21635919 C3.44119401,3.2059468 3.46756908,3.20235835 3.49568316,3.20975879 C3.50771898,3.21293545 3.51977005,3.21613564 3.53203468,3.21866521 C3.60185463,3.2330896 3.6724373,3.24152539 3.74457594,3.23160716 C3.75839653,3.22971292 3.77142389,3.22438319 3.78483262,3.22064179 Z M4.89287531,2.90306498 L4.89282955,2.90306498 C4.89196004,2.89800683 4.88135815,2.8930663 4.8737919,2.88986672 C4.86801044,2.88744351 4.86032216,2.88774935 4.85342712,2.88696122 C4.81252974,2.88224419 4.77292901,2.88877274 4.7331147,2.89493664 C4.70033274,2.90000656 4.66726093,2.90673509 4.63418913,2.90720562 C4.58870015,2.90787612 4.55361475,2.92106262 4.52592779,2.94791792 C4.48899659,2.98371322 4.44056349,2.9985348 4.38268783,2.99820543 C4.34102773,2.99798193 4.29936763,2.99931117 4.25772279,2.99951114 C4.2240103,2.99966407 4.20003019,3.01222712 4.18530958,3.03482416 C4.17383818,3.05244537 4.16306848,3.07067827 4.15565479,3.08952286 C4.1422003,3.12368308 4.11793035,3.14850335 4.07343291,3.16085467 C4.0590479,3.16485414 4.04678326,3.17350006 4.03088805,3.1813108 C4.07437869,3.21829418 4.13690698,3.21709434 4.16317526,3.18224009 C4.17080253,3.17212377 4.17951286,3.1625368 4.18788759,3.15278514 C4.20009121,3.13853995 4.21217279,3.12420066 4.22481879,3.11017897 C4.25250574,3.07947712 4.29131325,3.06123245 4.33843446,3.05943269 C4.38901846,3.05748 4.43995331,3.06058548 4.49068985,3.06209116 C4.50417484,3.06247935 4.51758357,3.06503195 4.53091602,3.06658469 C4.53514152,3.06077369 4.5391077,3.0571624 4.54054162,3.05301 C4.55016723,3.02550773 4.57454395,3.00863936 4.60590725,2.99664093 C4.6194075,2.99148867 4.63258741,2.98548946 4.64669784,2.98173701 C4.70243786,2.96691542 4.75854399,2.95297608 4.8143908,2.93842505 C4.83623527,2.93271991 4.85827805,2.92713241 4.87910048,2.91960399 C4.88594976,2.9171102 4.89374482,2.90818196 4.89287531,2.90306498 Z M5.766456,3.1355155 C5.74415389,3.13959345 5.7288231,3.14206412 5.7136601,3.14519896 C5.64745548,3.15888066 5.58151018,3.17373129 5.51503098,3.1862972 C5.45677396,3.19730898 5.40295601,3.18858191 5.35534664,3.15417841 C5.33676664,3.14074908 5.31498318,3.13058743 5.29390143,3.12010698 C5.28275038,3.1145546 5.26749585,3.11039696 5.25921265,3.1211165 C5.25413289,3.12770497 5.25510918,3.14062954 5.25849569,3.14911751 C5.27652653,3.1939749 5.31145939,3.22115234 5.36636041,3.22871048 C5.44507374,3.23956287 5.52300909,3.23325334 5.60106648,3.22447314 C5.64280285,3.21979745 5.68228155,3.20903805 5.71889241,3.19069394 C5.74030975,3.17996111 5.75769991,3.16612001 5.766456,3.1355155 Z" id="Combined-Shape" fill="#2B2926"></path>
    </g>
</svg>