<?xml version="1.0" encoding="UTF-8"?>
<svg width="12px" height="12px" viewBox="0 0 12 12" version="1.1" xmlns="http://www.w3.org/2000/svg" xmlns:xlink="http://www.w3.org/1999/xlink">
    <!-- Generator: Sketch 53.2 (72643) - https://sketchapp.com -->
    <title>Combined Shape</title>
    <desc>Created with Sketch.</desc>
    <g id="Page-1" stroke="none" stroke-width="1" fill="none" fill-rule="evenodd">
        <path d="M1,12 L0,12 L0,0 L1,0 L12,0 L12,1 L12,12 L11,12 L1,12 Z M11,7.58503413 L11,1.00000002 L1,1 L1,9.53582566 C1.02198198,9.57263271 1.05370359,9.60305618 1.0975387,9.62757258 C1.12385205,9.64229832 1.14929642,9.65807925 1.17402426,9.67438778 C1.19253203,9.68660451 1.20980493,9.70004058 1.22663571,9.71366423 C1.2739723,9.75196757 1.3204704,9.79088057 1.36809664,9.8289846 C1.37847868,9.83729714 1.38526282,9.84470691 1.38311324,9.85714641 C1.37309709,9.91524039 1.3674411,9.97393231 1.35376608,10.0314635 C1.33733167,10.1005666 1.31147568,10.1683097 1.29491931,10.2374011 C1.27441441,10.3230707 1.27052687,10.4096431 1.29109275,10.4959926 C1.31711643,10.6052633 1.39765724,10.6622317 1.53927062,10.6757264 C1.6339133,10.6847541 1.7239824,10.672807 1.81086524,10.6449149 C1.87722793,10.6235884 1.94464254,10.610973 2.01690516,10.6151234 C2.06765669,10.6180428 2.11567931,10.6080067 2.16161333,10.5917568 C2.18371899,10.583925 2.20600758,10.5761518 2.22695459,10.5666668 C2.27944408,10.5428782 2.3352418,10.5319746 2.39613144,10.5333229 C2.4714736,10.5349643 2.5463584,10.5303097 2.62055716,10.5186323 C2.6406047,10.5154902 2.66216153,10.5154902 2.68262069,10.517155 C2.70580876,10.5190426 2.71148,10.5288676 2.70286642,10.5457975 C2.70074732,10.5499597 2.69835382,10.5542625 2.69486265,10.5577446 C2.66809194,10.5843119 2.66671986,10.6160262 2.6641739,10.6475529 C2.66267987,10.6659131 2.67293994,10.6790209 2.69419185,10.6864659 C2.70571728,10.690499 2.71773056,10.6939108 2.72989629,10.6965136 C2.76570745,10.7042165 2.80159483,10.7010275 2.83615588,10.6929494 C2.88483405,10.6815768 2.93244505,10.6674959 2.98084881,10.6553964 C3.02260562,10.6449618 3.06416425,10.6328154 3.10704921,10.6267774 C3.14656497,10.6211849 3.1877882,10.62088 3.22818819,10.6214311 C3.35667539,10.6231897 3.4851016,10.6265898 3.61355831,10.629005 C3.66214501,10.6299195 3.71111284,10.633003 3.7591812,10.6293333 C3.81540578,10.6250773 3.87068516,10.6137868 3.92665057,10.6068343 L3.92662008,10.6067991 C4.01673492,10.5956024 4.10697171,10.5850505 4.19734572,10.5751318 C4.22129605,10.5725172 4.24588668,10.5734552 4.27014192,10.572271 C4.28238388,10.5716848 4.29567776,10.5713214 4.29860485,10.5579087 C4.27445633,10.5462782 4.2430968,10.5503817 4.22004594,10.5334635 C4.22551899,10.5287035 4.22913212,10.5241427 4.23430027,10.5213289 C4.25979038,10.5074121 4.28877165,10.5018196 4.31947564,10.5015265 C4.35650642,10.5011865 4.39359818,10.5022769 4.43056797,10.5010341 C4.4798712,10.4993692 4.52676567,10.489216 4.56873592,10.4688157 C4.58274633,10.4619921 4.59736655,10.4516747 4.60360187,10.440267 C4.61806964,10.4138404 4.63000669,10.3862413 4.63855929,10.3583023 C4.65467355,10.3057422 4.65267642,10.2525255 4.63828488,10.1998481 C4.63503763,10.1879597 4.62913771,10.1746174 4.6186947,10.1663401 C4.60703206,10.157113 4.6062698,10.1485425 4.60660519,10.1373927 C4.60719976,10.1167696 4.60977621,10.0955721 4.60489772,10.0756056 C4.58928656,10.0118253 4.57222709,9.94822089 4.55278936,9.8851089 C4.5292659,9.80881878 4.50487346,9.73263417 4.47694411,9.65727027 C4.44874034,9.58122636 4.45313098,9.51110323 4.52190243,9.44854229 C4.52487526,9.44582224 4.52746696,9.4427153 4.52947933,9.43949111 C4.54469412,9.41525695 4.56019857,9.39111659 4.5744529,9.36656587 C4.57766966,9.36099682 4.5764043,9.35386844 4.57776113,9.34303517 C4.54527344,9.36723416 4.51060568,9.37231079 4.4740475,9.37309631 C4.43241265,9.37398736 4.39065584,9.3738115 4.3491277,9.37623843 C4.19249772,9.3853834 4.04091393,9.41436591 3.89140349,9.45032438 C3.80723431,9.47057227 3.7251385,9.49527541 3.65109218,9.53347323 C3.57465236,9.57291382 3.52446491,9.62744362 3.49979805,9.69639432 C3.48891292,9.72679547 3.47743323,9.75706765 3.46532848,9.78717569 C3.45947429,9.80176074 3.45244622,9.81619337 3.44424426,9.83009841 C3.43514283,9.84560968 3.42970026,9.84633659 3.40855506,9.84063857 C3.38827885,9.83515159 3.37493923,9.82352107 3.36798738,9.80907671 C3.35303176,9.77792521 3.34016475,9.74615231 3.32732823,9.71441459 C3.3140191,9.68139892 3.31686997,9.64840669 3.33074317,9.61590689 C3.34391509,9.58510711 3.35763584,9.5544363 3.37092972,9.52365997 C3.38248564,9.49691681 3.39032171,9.46978674 3.38509258,9.44126149 C3.38169289,9.42279569 3.39193771,9.4101217 3.41262555,9.40149261 C3.4531475,9.38460959 3.49632213,9.37585153 3.54211894,9.37405771 C3.5897147,9.37219354 3.63705128,9.36759761 3.68121685,9.35315325 C3.75689441,9.3283915 3.83184019,9.30223455 3.9068622,9.27626519 C3.91835714,9.27227893 3.9294557,9.26686229 3.93925842,9.2606953 C3.96032739,9.24742338 3.959184,9.23201763 3.93512695,9.22208713 C3.92119276,9.21635394 3.90483458,9.21255526 3.8891167,9.21133593 C3.77686572,9.20258959 3.66484342,9.20766622 3.55295833,9.2162367 C3.52423623,9.21842914 3.50069752,9.22874654 3.47984198,9.24442195 C3.43154494,9.28075561 3.38251613,9.31650304 3.33335011,9.35210979 C3.29272145,9.38153782 3.24825097,9.40864444 3.24067407,9.45479135 C3.19333748,9.45909417 3.17732994,9.4492223 3.17444858,9.41621835 C3.17042383,9.36961419 3.17912888,9.32417075 3.19833793,9.28029836 C3.2052288,9.2645526 3.21762321,9.24954548 3.23108479,9.23641424 C3.25056825,9.21745603 3.27291783,9.20022128 3.29473382,9.18276378 C3.32344068,9.15981929 3.34636958,9.13495202 3.3563095,9.10271015 C3.36632565,9.0701869 3.39689243,9.05403079 3.43854253,9.04887209 C3.47926266,9.04380719 3.51693374,9.04801622 3.55047335,9.06779514 C3.58750413,9.08963754 3.62854442,9.09621488 3.67472236,9.0920762 C3.74021608,9.08620231 3.80601469,9.08071533 3.87182856,9.07926152 C4.00135243,9.07642423 4.13098303,9.07602561 4.26056788,9.07561526 C4.30779775,9.07548629 4.35141449,9.08743337 4.39224135,9.10593434 C4.40487968,9.11166753 4.41878337,9.11571242 4.43369326,9.12108215 C4.449838,9.10253429 4.4445174,9.08434987 4.44253552,9.06692754 C4.43633069,9.01281982 4.43497386,8.958759 4.44378563,8.90475681 C4.45092042,8.86090787 4.45887845,8.81711755 4.465998,8.77326861 C4.47054109,8.74513025 4.46868117,8.74313712 4.43590382,8.73291351 C4.43268707,8.73190522 4.42957703,8.73062727 4.42626881,8.7298183 C4.36178128,8.71397874 4.32598537,8.67681266 4.31644183,8.62760571 C4.30856002,8.58698096 4.31147187,8.54498446 4.31116696,8.5035859 C4.31102975,8.48392423 4.32052756,8.46661914 4.34156604,8.45406239 C4.35505811,8.44604296 4.35880845,8.43486969 4.35403668,8.42255916 C4.34362416,8.39560496 4.34900574,8.36897904 4.35484468,8.34217725 C4.37100467,8.26798578 4.41062715,8.20529587 4.4936072,8.16209176 C4.53205579,8.14209008 4.56840053,8.11954422 4.60543131,8.09784252 C4.62576851,8.08591889 4.64566359,8.07351456 4.6654977,8.06107506 C4.67772441,8.05341908 4.68499641,8.04408653 4.68508788,8.03096702 C4.68540803,7.98854845 4.68815218,7.94611815 4.68743565,7.9037113 C4.68615505,7.82760877 4.69632365,7.75242073 4.71057798,7.67725614 C4.71888666,7.63347755 4.73683035,7.59382592 4.76861676,7.55696467 C4.79113403,7.53087807 4.80881855,7.50223556 4.82810383,7.47448411 C4.83148828,7.46958334 4.83212858,7.46351015 4.83403424,7.45797627 C4.81596859,7.47069715 4.8031778,7.48546979 4.79038701,7.5002307 C4.77973056,7.51252951 4.76703125,7.5234214 4.74710567,7.52500418 C4.73885797,7.52567247 4.72682945,7.52404279 4.72242356,7.51976341 C4.71829209,7.5157537 4.71862749,7.50492043 4.72286568,7.50046519 C4.73643397,7.4861029 4.75142008,7.47217442 4.7682966,7.46019217 C4.78535607,7.44811612 4.80578474,7.43902978 4.82380466,7.42772754 C4.83661069,7.41970811 4.85022473,7.41151281 4.85626186,7.39447738 C4.83336345,7.39840502 4.81805719,7.40577962 4.80454987,7.41541701 C4.76956196,7.44041325 4.73475699,7.46557363 4.7003484,7.49106229 C4.69118599,7.49785067 4.68306026,7.50564734 4.67557483,7.5136316 C4.65790555,7.5324843 4.65346917,7.55281426 4.66543672,7.57493804 C4.6708183,7.58489199 4.67601694,7.59511559 4.67888305,7.6056323 C4.68254192,7.61913871 4.66973589,7.62732228 4.6541857,7.62094426 C4.64342254,7.61653591 4.63328443,7.60933718 4.62631734,7.60150534 C4.59491206,7.56609791 4.60111689,7.51862616 4.64041922,7.48734568 C4.66877543,7.46477637 4.69775671,7.44269949 4.72623488,7.42021225 C4.73477224,7.41347077 4.74250159,7.4061079 4.75235004,7.39751398 C4.73759262,7.39227321 4.72701239,7.3885097 4.71036455,7.38260065 C4.72495428,7.37513226 4.73414718,7.37036046 4.74341631,7.36570591 C4.7500785,7.36235275 4.75764016,7.3598203 4.76346385,7.35576369 C4.77703215,7.34627872 4.78927411,7.33564476 4.80297961,7.32630048 C4.83872979,7.30197253 4.87515075,7.27821907 4.91088568,7.25389111 C4.91786802,7.24911931 4.92305142,7.24276474 4.92908855,7.23713706 C4.89553369,7.24706756 4.86662864,7.26207468 4.83494896,7.27125482 C4.80273569,7.2805991 4.76828136,7.28134946 4.73670839,7.26460714 C4.74349254,7.24739584 4.75860061,7.24656341 4.77358672,7.24480477 C4.80215637,7.24148679 4.83084798,7.23843846 4.85900601,7.23357287 C4.8729097,7.23116939 4.88868856,7.2279452 4.89446652,7.21045252 C4.87912977,7.2090456 4.86498215,7.20731041 4.85072782,7.20650143 C4.82314911,7.20491865 4.79823833,7.19864614 4.78037086,7.1812707 C4.76895215,7.17015605 4.77255004,7.16027245 4.79018882,7.1492047 C4.8067147,7.13881695 4.8198104,7.13760935 4.82825628,7.14929849 C4.84613899,7.1740837 4.87370245,7.1705195 4.90128116,7.16717807 C4.91718198,7.16524356 4.93242726,7.15915864 4.94831284,7.15810345 C4.98854513,7.15545376 5.0289756,7.15424615 5.0693451,7.15312062 C5.10428727,7.15213578 5.11401376,7.14711777 5.12230719,7.12022219 C5.1274296,7.10359711 5.1305244,7.08656168 5.13390885,7.06963177 C5.14226326,7.02813942 5.16994868,6.99723412 5.21905372,6.98023386 C5.25166337,6.96894335 5.2864226,6.9615453 5.31990123,6.95173205 C5.40718045,6.92613787 5.47182042,6.95078238 5.52562101,7.00514803 C5.54955609,7.02932357 5.57673842,7.05192805 5.60543003,7.07277388 C5.65150126,7.10622336 5.69211468,7.14072802 5.68981264,7.19446056 C5.68920283,7.20896353 5.70214607,7.21454431 5.72007452,7.21388775 C5.74320161,7.21305532 5.76635918,7.21269187 5.78948627,7.21209393 C5.84008534,7.21076908 5.88679687,7.22133269 5.92510826,7.24665721 C5.96201707,7.27103206 5.99627321,7.29809178 6.02943169,7.3256322 C6.05191847,7.34433248 6.06495319,7.36813284 6.06938956,7.3936684 C6.07358201,7.41777359 6.07564013,7.44213672 6.07739333,7.4664295 C6.07939046,7.4942513 6.07013658,7.5204317 6.05178127,7.5440093 C6.02121448,7.58328576 5.99197404,7.62342981 5.93620682,7.64596395 C5.91833935,7.65318612 5.90176774,7.66410146 5.89652336,7.68148862 C5.89964864,7.68498247 5.90187445,7.68820666 5.90496924,7.69079773 C5.93035263,7.71211253 5.93058131,7.73600669 5.91695203,7.76126087 C5.91292728,7.76874098 5.90719505,7.77570522 5.90376487,7.78332603 C5.88914465,7.81577893 5.88576019,7.84783321 5.91123505,7.88050888 C5.95049164,7.86015547 5.9764696,7.83234539 5.99918506,7.80363254 C6.01287532,7.78636262 6.02372996,7.77120308 6.05290942,7.77177758 C6.05594323,7.7718362 6.06002896,7.77015962 6.06193462,7.76827201 C6.0692676,7.76102638 6.07657009,7.7525028 6.09001642,7.75647734 C6.10161808,7.75990084 6.1125337,7.765423 6.12258033,7.77124998 C6.13233731,7.77693628 6.14060025,7.7841819 6.15302515,7.79331514 C6.15672976,7.78067633 6.15744628,7.77136723 6.16229428,7.763594 C6.1669136,7.75618424 6.17450575,7.74634754 6.18308884,7.74467096 C6.21101819,7.73925433 6.2216289,7.72430582 6.22952596,7.70513657 C6.23961833,7.68067964 6.25756202,7.67093674 6.28960759,7.67516922 C6.30953317,7.67780719 6.32840683,7.68575627 6.34737195,7.69195844 C6.35927851,7.69585091 6.36970628,7.70429242 6.38694869,7.69743369 C6.37571292,7.68669422 6.36580349,7.6772327 6.35563489,7.66750151 C6.37033134,7.64659706 6.39108016,7.63663139 6.41922294,7.64077007 C6.45820512,7.64650326 6.48145417,7.62836575 6.50548072,7.61227999 C6.50381899,7.59572525 6.48990005,7.59036724 6.47694156,7.58443474 C6.46596496,7.57941673 6.45442429,7.57510218 6.44396603,7.56949796 C6.43241011,7.5632958 6.4296812,7.55472532 6.44100844,7.54692865 C6.46372391,7.53131186 6.48706443,7.51655095 6.52115287,7.52573109 C6.53182456,7.52861527 6.5434872,7.52922494 6.560257,7.53167532 C6.56438847,7.51823925 6.56812357,7.5070777 6.57121836,7.49583409 C6.57996915,7.46397912 6.613524,7.44360226 6.65604308,7.46871574 C6.66326934,7.47297167 6.67618209,7.47646552 6.683759,7.47436686 C6.72107944,7.46401429 6.75359761,7.44914786 6.75527459,7.41283766 C6.75591489,7.39842847 6.75814071,7.38406619 6.75939082,7.369657 C6.76710493,7.28139636 6.774133,7.19308881 6.78248741,7.10486334 C6.79501903,6.97251926 6.80846537,6.84023381 6.82153057,6.70792491 C6.83156196,6.6062282 6.84134943,6.50450804 6.85165524,6.40281132 C6.86443078,6.27684528 6.87778564,6.15089096 6.89062217,6.02490146 C6.90315378,5.90163201 6.91507559,5.77831566 6.92771393,5.65503448 C6.94277626,5.50836329 6.9584789,5.361739 6.97360221,5.21507954 C6.98631677,5.09181009 6.99874167,4.96852891 7.01099888,4.84522428 C7.02627464,4.69133092 7.04408113,4.53754307 7.05577426,4.38348556 C7.07277274,4.15908216 7.08481651,3.93446773 7.10036669,3.70999398 C7.10221137,3.68359082 7.0947107,3.66540641 7.06422014,3.65195862 C7.01695978,3.63110106 6.97110199,3.60827382 6.92483257,3.58606797 C6.90001326,3.57413261 6.89530247,3.56526903 6.91274306,3.54933569 C6.93539755,3.52863055 6.93676962,3.50586192 6.93588539,3.48098293 C6.93465053,3.44580998 6.93593113,3.41059014 6.93588539,3.37539374 C6.93587015,3.35337548 6.95033792,3.33989251 6.97631587,3.33349104 C7.00055586,3.32752336 7.02478061,3.32128602 7.0494932,3.31679561 C7.21563624,3.28661722 7.38415753,3.26965214 7.55450826,3.26442309 C7.70042081,3.25995613 7.84627238,3.25941681 7.99088908,3.27883228 C8.08226928,3.29111936 8.17171332,3.30899894 8.25801684,3.33597659 C8.29161743,3.34646985 8.31198512,3.36390391 8.31253395,3.39253469 C8.31384504,3.46021916 8.3141347,3.52795053 8.3149427,3.59565846 C8.3151104,3.60970419 8.30568882,3.61775879 8.28896475,3.62034987 C8.26746891,3.62366785 8.24582061,3.62764239 8.22408085,3.62850999 C8.19441354,3.62968242 8.17053943,3.63883911 8.15008027,3.65458487 C8.13855484,3.66346017 8.12808134,3.67315618 8.11654066,3.68201977 C8.10236255,3.69287648 8.09620346,3.70553874 8.09821584,3.72103829 C8.10111244,3.74350208 8.10452738,3.76595414 8.10556406,3.78847655 C8.11064074,3.89764165 8.11548874,4.00680675 8.11955923,4.1159953 C8.12637386,4.29915256 8.12692269,4.48247396 8.15347997,4.66498638 C8.1729177,4.79859668 8.18799528,4.93259388 8.20535965,5.06639177 C8.22272402,5.20018966 8.2400579,5.33398755 8.25823027,5.46772681 C8.27711917,5.60683582 8.29617576,5.7459331 8.31666542,5.88491313 C8.33784111,6.02834841 8.36014495,6.17170162 8.38324154,6.31496103 C8.40848772,6.47164478 8.43519745,6.62817612 8.46154129,6.78476607 C8.46277616,6.79212894 8.46658748,6.79921043 8.46997193,6.80862506 C8.48486656,6.80027734 8.49614807,6.79415725 8.50710942,6.78775577 C8.58315287,6.74342614 8.65873895,6.69865098 8.73540745,6.65498963 C8.75571416,6.64341773 8.77820095,6.63311205 8.80160245,6.62611264 C8.83924304,6.61484557 8.87269118,6.62686299 8.89124468,6.65480204 C8.89331804,6.6579207 8.89546762,6.66103937 8.89901977,6.66628014 C8.91014882,6.66455667 8.92115591,6.66272767 8.93219349,6.66113317 C9.03730968,6.64590328 9.13501666,6.65649034 9.21996335,6.71151255 C9.24133723,6.72535897 9.26252817,6.73938125 9.28446612,6.7526649 C9.31782279,6.77288934 9.35662202,6.78223362 9.39805868,6.77842322 C9.4149352,6.77687561 9.43165927,6.76767202 9.44623376,6.75954707 C9.46038138,6.75166833 9.45065489,6.73960401 9.44916085,6.72926316 C9.44452629,6.6973613 9.47573337,6.67496786 9.51601139,6.68258866 C9.53034195,6.68530871 9.54447433,6.69058465 9.55706693,6.69670474 C9.58257227,6.70909734 9.60804713,6.7218065 9.63163158,6.73626258 C9.74086399,6.80320842 9.84976101,6.87047082 9.95801772,6.93833116 C9.9868313,6.95641005 10.0135715,6.97656415 10.040144,6.99665963 C10.051639,7.00534735 10.0614569,7.01575854 10.0699333,7.02640422 C10.0777541,7.03626437 10.0788823,7.04834041 10.0662287,7.05616053 C10.0300059,7.07854225 10.0316067,7.10888478 10.0334971,7.14011835 C10.0350216,7.16531391 10.0369425,7.19080257 10.0339849,7.21581053 C10.029015,7.25756082 10.0320945,7.29830282 10.0412417,7.3396662 C10.0474465,7.36771077 10.0642163,7.38546138 10.0953014,7.39793605 C10.1230478,7.40907415 10.150093,7.42134951 10.1769094,7.43380073 C10.2047168,7.44669748 10.2266548,7.46456534 10.2341859,7.48944433 C10.2516418,7.5470459 10.3009297,7.58752996 10.352535,7.62677124 C10.3609199,7.63314927 10.3740156,7.63831969 10.3855868,7.63921074 C10.5110859,7.64894192 10.636646,7.65847379 10.7623586,7.6663877 C10.8072407,7.66922499 10.8525954,7.66829877 10.8977214,7.66775945 C10.9419479,7.66724358 10.9719049,7.64919986 10.9868605,7.61712213 C10.9917305,7.60665228 10.9966005,7.59590726 11,7.58503413 Z M11,10.3750025 L11,9.93922095 C10.9425539,9.89066293 10.8735147,9.85086406 10.7928339,9.81982791 C10.706195,9.78649568 10.6148757,9.76357464 10.5208581,9.74765302 C10.3920355,9.72581062 10.2622372,9.70738 10.1336891,9.68464655 C9.91714513,9.64636666 9.70137872,9.60542535 9.48504823,9.566442 C9.36092119,9.54407201 9.23603187,9.52395308 9.10784958,9.52482068 C9.03269036,9.52532483 8.95721099,9.52688416 8.88247864,9.53274632 C8.71336278,9.5459948 8.54496345,9.54125817 8.3764574,9.52764624 C8.2747409,9.51943922 8.17354275,9.51702401 8.07303064,9.53830364 C8.04121374,9.54504513 8.00662221,9.54414235 7.97321981,9.54610031 C7.94571733,9.54770655 7.9206236,9.54119955 7.89748127,9.52988559 C7.87690014,9.5198144 7.85651721,9.50948528 7.83589035,9.49947271 C7.78186109,9.47322197 7.72347167,9.46405355 7.65989887,9.46845017 C7.60352183,9.47235437 7.54662645,9.47508614 7.49011221,9.47390198 C7.42426786,9.47251851 7.35863694,9.46544875 7.29279258,9.4624356 C7.22001163,9.45910589 7.14681905,9.45509618 7.07452595,9.46540185 C7.01375827,9.4740544 6.95735075,9.46540185 6.90248299,9.44566983 C6.8898599,9.44114424 6.8769624,9.43706418 6.86470519,9.432011 C6.79762597,9.40440024 6.72643053,9.38598134 6.65200308,9.37553497 C6.60195284,9.36850038 6.55147572,9.36325961 6.50116631,9.35724504 C6.48703394,9.35556846 6.47177341,9.35642434 6.45751908,9.3447352 C6.47024889,9.33846269 6.47997537,9.33213156 6.49115016,9.32848529 C6.51348449,9.32118105 6.53626094,9.31439267 6.55949474,9.30909328 C6.61610046,9.29621998 6.67360564,9.28560947 6.72963204,9.2713996 C6.75544229,9.26483399 6.7804293,9.25388347 6.80247397,9.24135018 C6.82729328,9.22724583 6.85313403,9.21688153 6.88255741,9.21038626 C6.96225972,9.19272944 7.04258709,9.19404257 7.12349378,9.20343374 C7.2039736,9.2127663 7.28076406,9.20632965 7.34924585,9.16868287 C7.44681562,9.11503241 7.55031581,9.06896757 7.65341962,9.02229307 C7.67822369,9.0110729 7.70226549,8.99749614 7.7222368,8.98162142 C7.73687227,8.96997917 7.74746774,8.95362375 7.75409943,8.93790145 C7.76310939,8.91649285 7.75191936,8.90161469 7.72539258,8.8920242 C7.7170839,8.8890345 7.70804345,8.88692412 7.69904874,8.88544686 C7.63677178,8.87516463 7.57458629,8.87691156 7.5133765,8.88952692 C7.43266801,8.90618717 7.35688373,8.93073789 7.29738141,8.97985105 C7.29844858,8.97294543 7.30105553,8.96720051 7.30378443,8.96146732 C7.34584615,8.87345288 7.40420507,8.79288339 7.48559961,8.72325268 C7.51474858,8.69832678 7.52770706,8.67010636 7.51313258,8.63874381 C7.49825319,8.60673643 7.47919659,8.57556148 7.45786845,8.54581689 C7.44105291,8.52236826 7.41996869,8.51900338 7.39077398,8.53426844 C7.36706758,8.54666104 7.34572419,8.56244197 7.32610352,8.57873877 C7.28968255,8.60901095 7.25513675,8.64065488 7.22002688,8.671865 C7.16293331,8.72261957 7.1584512,8.71155181 7.17685225,8.78685709 C7.18609089,8.82462111 7.16398524,8.8392765 7.11553574,8.82843151 C7.097775,8.82445697 7.08013621,8.81990794 7.06298527,8.81456165 C7.04171811,8.80793741 7.02290544,8.80939122 7.00418424,8.82007208 C6.99512854,8.8252425 6.98410621,8.83007292 6.97329731,8.83128052 C6.93336992,8.83568886 6.89313764,8.83858477 6.85296633,8.84180896 C6.84993252,8.84205517 6.84667003,8.84040204 6.83833086,8.83838546 C6.84641086,8.8294867 6.85148754,8.82034174 6.86029931,8.81480786 C6.8872987,8.79786622 6.91515182,8.78168667 6.94366049,8.76631609 C6.9949456,8.73865843 7.0385166,8.70538482 7.06752837,8.66208692 C7.07694995,8.64801775 7.08413047,8.63199061 7.08656972,8.6163152 C7.09088413,8.58859891 7.07913002,8.57964154 7.04385245,8.5820802 C7.01166967,8.58430782 6.97982228,8.589361 6.94774622,8.59251484 C6.9173014,8.59552798 6.90658397,8.5870982 6.91121854,8.56335646 C6.91310895,8.55366045 6.91603604,8.54342513 6.92210366,8.53501879 C6.94129747,8.50836942 6.96174139,8.48225937 6.98271889,8.45643071 C6.99134771,8.4458202 7.00351345,8.43699179 7.01243193,8.4264868 C7.02872913,8.407341 7.03252521,8.38628413 7.02293593,8.3643831 C7.01401744,8.34406487 6.99084462,8.33414609 6.96504961,8.34201311 C6.9507038,8.34638628 6.93702879,8.3546871 6.92667725,8.36373827 C6.91374925,8.37507568 6.90420571,8.38885175 6.8937322,8.40183057 C6.84596875,8.46107353 6.79001858,8.51532194 6.72144532,8.56031987 C6.6782707,8.58863409 6.63070543,8.61312618 6.58332311,8.6371962 C6.53908131,8.65963654 6.48820782,8.65699857 6.43844724,8.65348128 C6.4188723,8.65209781 6.41478657,8.64564943 6.41913147,8.63129887 C6.4201834,8.62782847 6.4229123,8.62466291 6.42410143,8.62121596 C6.4312972,8.6004053 6.41899426,8.58485886 6.39153752,8.58277193 C6.37806069,8.58175191 6.36296787,8.58222089 6.35064968,8.58603129 C6.32612003,8.59361692 6.30253559,8.60333638 6.27939326,8.61337239 C6.24201184,8.6295754 6.20545366,8.64693911 6.1682247,8.66340005 C6.15877262,8.66758563 6.1481924,8.6702236 6.13649927,8.67411607 C6.13137686,8.65868687 6.14268886,8.65081986 6.15003708,8.64243697 C6.18496401,8.60245706 6.23022724,8.57020346 6.27776201,8.53973197 C6.31904622,8.51327019 6.35731187,8.4847332 6.38851895,8.4504982 C6.42472649,8.4107645 6.46282444,8.37208598 6.49936737,8.33255159 C6.51488706,8.31575064 6.52993415,8.29850418 6.54261822,8.28036666 C6.55196357,8.26704784 6.55859527,8.25226348 6.56367195,8.23753773 C6.56851994,8.22348028 6.56217791,8.21662156 6.54438667,8.21434704 C6.51956736,8.21115802 6.49576948,8.21308081 6.47624028,8.22749 C6.46953236,8.23244938 6.46322081,8.23779567 6.45608602,8.24237988 C6.41734777,8.26725887 6.35987308,8.25446765 6.34366735,8.2171257 C6.3396121,8.20779315 6.33822478,8.19775713 6.33540441,8.18807285 C6.33133392,8.17412091 6.33063264,8.15679237 6.30992955,8.15226679 C6.28875386,8.14763568 6.27756382,8.16284212 6.26562677,8.17354642 C6.24134105,8.1953302 6.21946407,8.21903676 6.19272386,8.23879224 C6.171289,8.25462006 6.14567693,8.2681382 6.11916539,8.27835008 C6.09004691,8.2895937 6.07899409,8.28475155 6.06275787,8.26317881 C6.05864164,8.25771528 6.05493704,8.25208761 6.05057689,8.2467765 C6.03177946,8.22391408 6.02525448,8.22281199 5.99552619,8.23697497 C5.93613059,8.26527747 5.8687922,8.26703611 5.80078302,8.27538383 C5.80303932,8.25668354 5.81541848,8.24575648 5.82697441,8.23486459 C5.84176232,8.220983 5.85901998,8.20862557 5.87280171,8.19419294 C5.88995265,8.17619612 5.90814026,8.15798825 5.91974192,8.13775209 C5.94988183,8.08503956 5.97730809,8.03136565 6.00464287,7.97771518 C6.02594052,7.93592972 6.01504015,7.92640957 5.954989,7.93379589 C5.95649828,7.93806354 5.95777889,7.94221395 5.95945587,7.94627056 C5.98621133,8.01093016 5.97053918,8.04279685 5.8970417,8.07818084 C5.88179642,8.08552026 5.86966118,8.09683422 5.8563673,8.10654196 C5.84673228,8.11356482 5.83755463,8.12097459 5.8260292,8.12986162 C5.82069335,8.12288565 5.81584535,8.11936836 5.8155252,8.11564003 C5.81378724,8.0947473 5.81398543,8.07539045 5.83865229,8.05946883 C5.86677982,8.04129614 5.85805953,8.01373228 5.82049516,8.00230107 C5.8171412,8.01823441 5.81392445,8.03367534 5.81064671,8.04942109 C5.79485261,8.05210596 5.78061352,8.05452117 5.77003329,8.05632671 C5.76317292,8.09492316 5.75658696,8.13044784 5.75054983,8.16603113 C5.74051844,8.2252741 5.71527226,8.27982734 5.67013099,8.32848325 C5.66404813,8.33503714 5.65773658,8.34179035 5.65369658,8.34917667 C5.64243032,8.36977629 5.6308744,8.39041108 5.62210837,8.41169072 C5.61261056,8.43482279 5.60826566,8.45931489 5.59785313,8.48216558 C5.55920635,8.56683858 5.54740651,8.65393852 5.55112636,8.74332471 C5.55347413,8.80010557 5.5511416,8.85703884 5.54992198,8.91387832 L5.54995247,8.9139135 C5.54894628,8.96011902 5.53313693,9.0034052 5.499018,9.04138026 C5.44265621,9.10414052 5.38579132,9.16668974 5.32691406,9.22799619 C5.30392418,9.25193724 5.28777943,9.27638244 5.2845017,9.30632634 C5.28088857,9.33959995 5.27599483,9.37280321 5.27061325,9.40593612 C5.26407303,9.4462326 5.25811212,9.48675183 5.23335379,9.52354273 C5.20853448,9.56045088 5.19856407,9.59972733 5.20080513,9.64121969 C5.20211622,9.66557109 5.2021772,9.68995767 5.20319863,9.71432079 C5.20475365,9.75161584 5.21853538,9.78504187 5.25218171,9.81293401 C5.28248932,9.8380475 5.29872554,9.86910521 5.30532675,9.90262503 C5.31198893,9.9364614 5.31493127,9.97071985 5.32046531,10.0047204 C5.32644146,10.0413237 5.3309693,10.078267 5.340833,10.1142724 C5.35025458,10.148566 5.36492054,10.1820389 5.37883947,10.2154884 C5.38859645,10.238937 5.38722438,10.2593608 5.36365518,10.2777914 C5.34212885,10.2946158 5.33516176,10.316212 5.33321036,10.3394965 C5.33025278,10.3746342 5.34025368,10.4075444 5.35749609,10.4396104 C5.37675087,10.4753813 5.39629532,10.5110701 5.41422376,10.5472396 C5.42692308,10.5728572 5.43329561,10.599319 5.41641908,10.6261325 C5.43465244,10.6405769 5.45593484,10.6496984 5.48022057,10.6527585 C5.5086835,10.6563461 5.53758855,10.6578703 5.56635639,10.6598634 C5.59645056,10.661962 5.62686489,10.6626538 5.64747651,10.6842734 C5.65061704,10.6875445 5.65689809,10.6898073 5.66227967,10.6908156 C5.7070703,10.6993157 5.74789715,10.716867 5.7945477,10.7221781 C5.88079023,10.7320148 5.96140726,10.7582187 6.04364029,10.7796624 C6.12469943,10.8008014 6.20585004,10.8222921 6.28855567,10.8388351 C6.38574431,10.8582623 6.48517401,10.8620258 6.58474092,10.8481676 C6.64788686,10.8393627 6.70729771,10.8215183 6.76472667,10.8000041 C6.88774081,10.7539393 7.01764582,10.7256016 7.15116396,10.7062917 C7.16438161,10.7043806 7.17866644,10.7043572 7.19196032,10.7059048 C7.32721642,10.7216623 7.46321954,10.73103 7.59987821,10.7334217 C7.84945865,10.7377949 8.09739259,10.7219085 8.34314646,10.6891038 C8.58592751,10.6566627 8.82759565,10.6192152 9.07019375,10.5858009 C9.25810703,10.5599253 9.44643195,10.5356091 9.63504652,10.5129929 C9.7928199,10.4940933 9.95120308,10.4781482 10.1094491,10.4617694 C10.2826049,10.4438546 10.455898,10.4265612 10.6292673,10.409772 C10.752779,10.3978026 10.8763972,10.3864679 11,10.3750025 Z M4.86704169,10.0997404 C4.87855429,10.1185014 4.91850978,10.1395072 4.95006785,10.1420728 C4.97051965,10.1437565 5.02293584,10.1083993 5.0173827,10.0994999 C5.00261948,10.0762491 4.96415386,10.0583701 4.91187311,10.022131 C4.88695172,10.061978 4.85796705,10.0850684 4.86704169,10.0997404 Z M4.85104797,10.1724953 L4.85103272,10.1724836 C4.84745008,10.218396 4.84412661,10.2643202 4.84069643,10.3102209 C4.83847062,10.3399185 4.83467454,10.3696045 4.83438488,10.3993257 C4.83409522,10.4289178 4.84334911,10.4567279 4.87374819,10.4773275 C4.88733173,10.4865311 4.89172237,10.4979271 4.88916116,10.511328 C4.88746894,10.5202385 4.88454184,10.5290435 4.88352041,10.5379891 C4.88182819,10.5529845 4.87784917,10.5684724 4.89303346,10.5841712 C4.96157623,10.5647088 5.02892987,10.5440272 5.08452939,10.5057473 C5.11831293,10.482451 5.13057013,10.4518154 5.12483791,10.4176625 C5.12076742,10.3936276 5.11259595,10.3700149 5.10611671,10.3462262 C5.10151263,10.3292729 5.09045981,10.3185803 5.06565574,10.3202334 C5.05066963,10.3212183 5.03885454,10.3168568 5.03161304,10.3056484 C5.00296716,10.2613422 4.97401638,10.2172353 4.96549427,10.1669966 C4.96325321,10.1536778 4.95854242,10.1404879 4.95323706,10.1276733 C4.94857201,10.1164296 4.94062922,10.1065695 4.92009383,10.1068978 C4.91643497,10.1355286 4.88829218,10.138741 4.85507272,10.1406404 C4.85345672,10.1530681 4.85181023,10.1627524 4.85104797,10.1724953 Z M7.33108872,4.8758269 L7.33107348,4.87584966 C7.33175951,4.87471179 7.33291816,4.87364219 7.33302487,4.87236778 C7.33345174,4.86724737 7.33372615,4.86208144 7.3337414,4.85693827 C7.33389385,4.80782784 7.33747649,4.80054548 7.36879029,4.78932609 C7.37885218,4.78570767 7.38918847,4.7838188 7.39937232,4.78097413 C7.41711782,4.77601302 7.43486333,4.77089261 7.45257834,4.76584047 C7.39954002,4.73445804 7.25507577,4.78279472 7.22644514,4.83072177 C7.28442293,4.83804965 7.28442293,4.83804965 7.33108872,4.8758269 Z M7.7488703,4.07360018 L7.74885506,4.07360018 C7.75091317,4.0676794 7.75251393,4.0651235 7.75255966,4.06255587 C7.75292555,4.04452388 7.75313898,4.0265036 7.75309325,4.00847161 C7.7529103,3.94013057 7.75269687,3.94029471 7.68055622,3.90189758 C7.66968633,3.89611749 7.66076785,3.89433539 7.64907472,3.89981065 C7.62532258,3.91094875 7.60153994,3.9221572 7.57685784,3.93191183 C7.5597069,3.93867676 7.55511807,3.94845484 7.55551445,3.96247712 C7.55639868,3.99311275 7.55562117,4.02377184 7.55597181,4.0544192 C7.55606328,4.06037515 7.55830434,4.0663311 7.55982886,4.07360018 L7.7488703,4.07360018 Z M7.9871235,3.89071311 L7.9871235,3.89067087 C7.98785527,3.88323711 7.98858705,3.87571888 7.98931882,3.86828513 C7.98131505,3.86114703 7.97347898,3.85101009 7.96529226,3.84741993 C7.90833591,3.822331 7.85131857,3.7981713 7.79427074,3.77456068 C7.75653868,3.75897514 7.72296858,3.79230032 7.68500784,3.84632176 C7.78998682,3.86173836 7.88856278,3.87622573 7.9871235,3.89071311 Z M8.03313476,3.70924267 L8.03315291,3.70924267 C8.07220381,3.69699905 8.11343328,3.67666697 8.14534936,3.63935116 C8.16083538,3.62127821 8.14663835,3.59366451 8.12232912,3.58977156 C8.08598328,3.58394223 8.0171041,3.6274101 8.00247136,3.66543189 C7.9932669,3.68925349 8.00475886,3.70910147 8.03313476,3.70924267 Z M8.25937366,3.54488663 C8.20104241,3.39511562 8.17192841,3.39066597 8.10692089,3.50301952 C8.16721373,3.51960456 8.2132937,3.53224559 8.25937366,3.54488663 Z M6.63657486,7.94709127 L6.63657486,7.94710299 C6.61991177,7.92123915 6.62738196,7.9083424 6.6614704,7.90493063 C6.70627627,7.90044021 6.74618841,7.90950311 6.77933164,7.93446418 C6.7931896,7.94491054 6.80755065,7.95495828 6.82601268,7.96831228 C6.82654627,7.93964633 6.81486838,7.92279848 6.78677134,7.91442732 C6.74576154,7.90221059 6.70444684,7.89063869 6.66328459,7.87876196 C6.6517744,7.87542053 6.64034045,7.87195013 6.62454634,7.8672604 C6.66394014,7.8429559 6.71694797,7.84539455 6.74635611,7.81416098 C6.74158433,7.8124844 6.73940426,7.81094851 6.73760532,7.811183 C6.686991,7.81780724 6.63829758,7.82787843 6.59958982,7.85669679 C6.57635602,7.87397843 6.56208644,7.87231358 6.54421897,7.85108085 C6.5397826,7.8458049 6.53623045,7.84007171 6.53159588,7.83491302 C6.52465928,7.82717497 6.51558834,7.81998796 6.50295001,7.82577977 C6.49052511,7.83148952 6.4921716,7.84195933 6.49901672,7.8496622 C6.51206668,7.8643645 6.52665641,7.87826953 6.5415358,7.89190491 C6.5512318,7.90078022 6.56402259,7.90773274 6.57288009,7.9170184 C6.59085428,7.9358711 6.58760703,7.94752507 6.56324508,7.96213356 C6.55890017,7.96474809 6.55499738,7.96774951 6.54504222,7.97456134 C6.58778998,7.97749242 6.6075631,7.95420793 6.63657486,7.94709127 Z M7.03828792,7.59272383 L7.03827268,7.59271211 C7.079999,7.59484593 7.10071733,7.6094427 7.11108412,7.64085214 C7.11427039,7.65040746 7.11526133,7.66047865 7.11928608,7.66978776 C7.12308216,7.67860444 7.12953091,7.68672939 7.13480577,7.69514745 C7.13837317,7.69436192 7.14191007,7.69358812 7.14546222,7.69280259 C7.15991475,7.65889587 7.15896954,7.62483673 7.13660472,7.5928059 C7.13049136,7.58404784 7.11363008,7.57487942 7.10137288,7.57458631 C7.0462612,7.57328491 6.99099707,7.57456286 6.93583966,7.57619254 C6.92437521,7.57653255 6.91062397,7.58029606 6.91161491,7.5978708 C6.93271438,7.59701493 6.95280765,7.5962294 6.97290093,7.59535008 C6.99471692,7.59440041 7.01667012,7.5915983 7.03828792,7.59272383 Z M7.39114319,7.45105432 C7.41874909,7.41010369 7.41721116,7.37724763 7.38314594,7.34585309 C7.37430282,7.33781474 7.33031793,7.3330367 7.30040512,7.33109737 C7.28840924,7.3302823 7.25772747,7.34124369 7.25795816,7.34675249 C7.25926541,7.38478007 7.27395267,7.42145857 7.39114319,7.45105432 Z M6.28712524,7.90647316 C6.25130807,7.90647316 6.21546411,7.90364052 6.17978088,7.90716972 C6.1380165,7.91134903 6.13271224,7.92653385 6.13517685,8.02539774 C6.17233348,7.91738581 6.24217295,7.97561752 6.28712524,7.90647316 Z M7.75795649,6.84833531 L7.75795649,6.81295133 C7.74356495,6.81147406 7.73254261,6.81033681 7.72043786,6.8090823 C7.7166113,6.74306268 7.7224045,6.67854378 7.71716013,6.61349727 L7.49259719,6.61349727 L7.49259719,6.80959817 C7.47741289,6.81108716 7.46625335,6.8122127 7.45369124,6.81345547 L7.45369124,6.84871049 C7.48730708,6.85426782 7.73153642,6.85370505 7.75795649,6.84833531 Z M8.17197249,6.40617012 C8.12100845,6.35903001 8.07297338,6.32058092 8.01951971,6.3501304 C8.06485363,6.46930171 8.13719913,6.49648723 8.17197249,6.40617012 Z M7.10117469,6.39704199 C7.05555305,6.30910292 6.98484585,6.32960655 6.94872192,6.43456421 C6.98348644,6.48190262 7.05495491,6.46651038 7.10117469,6.39704199 Z M7.9536603,4.02631601 L7.95363977,4.02630429 C7.9540298,4.04037347 7.95497409,4.05444265 7.95569257,4.06889873 L8.10591639,4.06889873 C8.10591639,4.04515699 8.10595745,4.02372494 8.10591639,4.00228117 C8.10591639,3.94968589 8.10591639,3.94967416 8.02688363,3.9225441 C8.0256109,3.92212202 8.02394813,3.92207513 8.01982201,3.92144201 C7.95361924,3.94601618 7.95361924,3.94601618 7.95359872,3.98855199 C7.95357819,4.00114391 7.95331132,4.0137241 7.9536603,4.02631601 Z M8.09274278,3.97901796 C8.08383668,3.90139504 8.05369295,3.85827119 8.01241659,3.85902775 C7.97236054,3.85978431 7.94437911,3.89134794 7.94029001,3.94040321 C8.0064221,3.9212774 8.0064221,3.9212774 8.09274278,3.97901796 Z M7.223053,3.97551033 L7.223053,3.97548524 C7.22877164,3.96821152 7.23415971,3.96031076 7.23964695,3.9525354 C7.26308343,3.91940235 7.27552889,3.91737072 7.30203954,3.9446848 C7.31544362,3.95847979 7.32759158,3.97530967 7.34117746,3.9886281 C7.34704484,3.99437184 7.35514348,3.99464773 7.36519241,3.99858558 C7.35352375,3.95103049 7.34608623,3.93555502 7.32446782,3.90997159 C7.2735786,3.84980037 7.22791219,3.87746559 7.21273963,3.98163028 C7.21850785,3.97834457 7.221268,3.97781785 7.223053,3.97551033 Z M7.23647653,4.08642658 L7.3889293,4.08642658 L7.3889293,3.96170331 L7.23647653,3.96170331 L7.23647653,4.08642658 Z M7.35034569,3.85137192 L7.35034569,3.8513434 C7.37732263,3.85662032 7.38072969,3.8494323 7.37725274,3.78742136 C7.36451557,3.79381071 7.35216279,3.79817487 7.34070109,3.80613303 C7.3238405,3.81788487 7.30884943,3.82387489 7.29406803,3.79760439 C7.28987472,3.79013113 7.27715502,3.78474012 7.27343346,3.78941803 C7.25903645,3.80758775 7.24514612,3.82826757 7.23422605,3.85199945 C7.22832048,3.8648352 7.22887958,3.88577173 7.2259268,3.90742136 C7.25578663,3.90505388 7.27850038,3.90422669 7.29324684,3.86329491 C7.29733531,3.8519424 7.31008995,3.845496 7.31931523,3.84389866 C7.32937916,3.84210166 7.33991484,3.84937525 7.35034569,3.85137192 Z M7.17197376,6.07327599 L7.17192803,6.07326426 L7.17192803,6.10023019 C7.17468742,6.10147297 7.17741633,6.10270402 7.18017572,6.1039468 C7.1875087,6.09674807 7.19671685,6.09026452 7.20177828,6.08218647 C7.2128311,6.06457654 7.22999729,6.05695574 7.25452694,6.05763575 C7.26836965,6.05803438 7.28230383,6.05720195 7.29608556,6.0579992 C7.31904495,6.05932405 7.32486865,6.06418964 7.32329839,6.08169404 C7.32209401,6.09515356 7.31834367,6.10844893 7.3166362,6.121885 C7.31509643,6.13416036 7.31363288,6.14683434 7.33031121,6.15613172 C7.33313159,6.15295443 7.33610442,6.15109027 7.33643981,6.14896817 C7.33881808,6.1347114 7.34108962,6.12041946 7.34256842,6.10609235 C7.3466389,6.0665345 7.3656955,6.04810388 7.41400779,6.03612163 C7.42506061,6.03337814 7.43846121,6.03350711 7.44798951,6.02453801 C7.35019105,6.00806534 7.1032633,6.03942789 7.04653562,6.07812985 C7.09173787,6.07638293 7.13093347,6.07487049 7.17197376,6.07327599 Z M8.07813781,5.01857061 C8.06386823,4.96488491 8.05491925,4.9442583 8.03424665,4.93044129 C7.99061467,4.90128148 7.94544291,4.8918441 7.89877712,4.90331589 C7.9559774,4.95070058 8.01470221,4.98808278 8.07813781,5.01857061 Z M8.22857078,3.59791445 L8.22859737,3.59791445 C8.24768616,3.5582957 8.2729961,3.52473468 8.26206923,3.47839593 C8.20387232,3.47605854 8.15471469,3.48145402 8.11225674,3.51193747 C8.13987966,3.54894614 8.18045,3.57191099 8.22857078,3.59791445 Z M7.57716274,5.38028687 L7.57716274,5.16630639 L7.35226441,5.16630639 C7.35197475,5.24021647 7.35139543,5.3117348 7.35258456,5.38270208 C7.4089616,5.3883532 7.55398992,5.38643041 7.57716274,5.38028687 Z M7.7340214,4.9464347 C7.70953749,4.91423102 7.70177764,4.90704677 7.67589116,4.90405904 C7.63786944,4.89970287 7.59968002,4.89860813 7.56159732,4.89603092 C7.54940109,4.89523267 7.53725061,4.89425197 7.52578616,4.8934081 C7.52060277,4.83251305 7.52060277,4.83251305 7.48968534,4.8412938 C7.48322135,4.89507302 7.48248957,4.89614496 7.44580943,4.89742216 C7.43539691,4.89776427 7.42493865,4.89646426 7.41455662,4.89742216 C7.40188779,4.89856252 7.3889598,4.89954322 7.37670259,4.90403623 C7.37133625,4.90599764 7.36386607,4.91621524 7.3636069,4.92323984 C7.36331724,4.93081181 7.3692629,4.94271713 7.37438531,4.94618382 C7.38365444,4.95236455 7.39431089,4.95594527 7.40449473,4.95651545 C7.42644793,4.95774704 7.44846211,4.95688036 7.4704458,4.95596808 C7.54330298,4.95302596 7.61612967,4.94958208 7.6890021,4.94650312 C7.70151847,4.94595575 7.71403485,4.9464347 7.7340214,4.9464347 Z M7.83201805,4.87030944 L7.83203329,4.87034067 C7.8342591,4.84960628 7.83616476,4.83190086 7.83851254,4.81026091 C7.85810272,4.81026091 7.87627509,4.80976128 7.89443221,4.81038581 C7.91056172,4.81094789 7.91443402,4.79396068 7.91018059,4.76054834 C7.86260007,4.7451849 7.76725611,4.74755812 7.74062261,4.76501372 C7.7408208,4.84392306 7.7755038,4.79136888 7.79007829,4.82250169 C7.7916638,4.83552314 7.79382863,4.85300997 7.79596297,4.87030944 L7.83201805,4.87030944 Z M7.20368394,9.38693522 L7.20368394,9.38695176 C7.2136391,9.37340653 7.22667382,9.36998301 7.24098913,9.3730096 C7.25548739,9.37606927 7.2696655,9.38109705 7.28395032,9.38529789 C7.29312798,9.3879937 7.30227515,9.39073913 7.31142231,9.3935011 C7.29852481,9.36030784 7.27210474,9.34901188 7.24864226,9.33478856 C7.22583533,9.32096217 7.20683971,9.29650136 7.17160787,9.29650136 C7.18756968,9.31487591 7.19973541,9.3289173 7.21447759,9.34588606 C7.19130477,9.36019207 7.17355927,9.36050631 7.1552192,9.34796994 C7.1495632,9.34409987 7.14256562,9.33740168 7.13751943,9.33864209 C7.11123658,9.34507566 7.08722526,9.33455702 7.06234497,9.32984347 C7.05383811,9.32823921 7.04485864,9.32959539 7.03124461,9.32959539 C7.04280053,9.36040707 7.05238981,9.38600905 7.0627261,9.41352953 C7.07900806,9.42211313 7.09062496,9.41053601 7.10367492,9.39871081 C7.12562812,9.37876508 7.1507066,9.3743327 7.16645497,9.3903422 C7.18223383,9.40638479 7.19264636,9.40200202 7.20368394,9.38693522 Z M7.70455228,9.24170571 C7.70415591,9.19416364 7.69032844,9.17627521 7.67137856,9.16598067 C7.64928815,9.15400156 7.62728922,9.14146094 7.60507685,9.13023053 C7.56432622,9.10950775 7.5476174,9.12349229 7.52180714,9.20646361 C7.55546872,9.18031281 7.58382493,9.18753235 7.61018402,9.2194588 C7.6128062,9.22264075 7.61727307,9.22504727 7.62003247,9.22338944 C7.64861736,9.20582188 7.67567773,9.2219188 7.70455228,9.24170571 Z M7.52372805,3.84250744 L7.5237128,3.84250744 C7.53636638,3.84163259 7.54911143,3.8433198 7.56178026,3.84242412 C7.58437376,3.84082023 7.6125013,3.81457479 7.62500243,3.78464249 C7.56888456,3.81299173 7.55557543,3.80353504 7.52471899,3.79564058 C7.52656367,3.77778951 7.52840835,3.75975098 7.53025303,3.74169161 C7.52650269,3.73781728 7.5227676,3.73396379 7.51901726,3.73008946 C7.49358813,3.77316531 7.46009426,3.80480565 7.43483283,3.85008946 C7.46722905,3.84727745 7.4954633,3.84444461 7.52372805,3.84250744 Z M6.78231972,8.13030715 L6.78231972,8.13029542 C6.77739549,8.13995626 6.77395006,8.15006262 6.76981859,8.15998139 C6.77227308,8.16157589 6.77474281,8.16318213 6.77722779,8.16478836 C6.78686281,8.16026277 6.7967265,8.15603029 6.80607186,8.15114125 C6.81662159,8.1456191 6.82694264,8.13979212 6.83689781,8.13363685 C6.84857569,8.12640295 6.86063471,8.12541811 6.87110821,8.13373065 C6.88711575,8.14647498 6.9060199,8.15843378 6.91640193,8.17374573 C6.94927075,8.22212026 7.00159254,8.25365867 7.05926543,8.28131633 C7.0637018,8.28345015 7.07004384,8.28320394 7.07550165,8.28408327 C7.06667463,8.27259344 7.05464611,8.26561747 7.04467569,8.25715251 C7.01978016,8.23600185 6.99506756,8.21464015 6.97194048,8.1922936 C6.96431784,8.18493073 6.96001867,8.17466023 6.95744222,8.16516354 C6.95358516,8.15087159 6.96360131,8.14456391 6.98113338,8.14918329 C6.99052447,8.15165712 6.99935148,8.1554089 7.00843767,8.15858619 C6.98691134,8.13369547 6.96210727,8.1118648 6.93587015,8.09113621 C6.93199785,8.08808788 6.92012178,8.0882872 6.91396269,8.09043275 C6.86979712,8.10593229 6.83549524,8.09370383 6.80573646,8.06819172 C6.78864651,8.0535246 6.77308108,8.0377085 6.75536606,8.02354553 C6.74592924,8.01597162 6.73428185,8.00905427 6.72193317,8.00495076 C6.70868503,8.00056587 6.69101575,7.99465681 6.67977998,8.0052087 C6.66785817,8.0163937 6.68003915,8.02798904 6.68964367,8.03647745 C6.70560548,8.05059352 6.7234577,8.06347855 6.74126418,8.07624633 C6.74884109,8.08168641 6.7584761,8.08533267 6.76692199,8.09005757 C6.79282371,8.10454882 6.79376892,8.10783163 6.78231972,8.13030715 Z M7.85926136,7.21960517 L7.85926136,7.21962595 C7.85845336,7.21401528 7.85764536,7.20844618 7.85683736,7.20285629 C7.84619616,7.20212898 7.83464024,7.19730797 7.82511194,7.20144324 C7.77812599,7.22182866 7.72961552,7.22191178 7.68136422,7.22621329 C7.67212558,7.22702372 7.66303939,7.2305148 7.65389223,7.23275907 C7.66137766,7.24491551 7.66864965,7.2507132 7.67572346,7.25029759 C7.69551183,7.24917546 7.7080587,7.25973182 7.71665703,7.28475124 C7.72097145,7.29730251 7.73027107,7.30659128 7.73888465,7.31978673 C7.75652343,7.26077084 7.75653868,7.26093708 7.80024689,7.25025603 C7.80930258,7.24807411 7.81844975,7.24528955 7.82698711,7.24073868 C7.83805518,7.23475397 7.84852868,7.22673279 7.85926136,7.21960517 Z M7.77121988,3.95210248 L7.77120464,3.95210248 C7.75284932,3.91992949 7.72944782,3.89270756 7.70584813,3.86573587 C7.67822369,3.83418847 7.64732151,3.83093542 7.61465088,3.85342077 C7.59682915,3.865718 7.57908365,3.87855145 7.56258826,3.89317228 C7.55315143,3.90153726 7.54411098,3.91279781 7.54641302,3.9325127 C7.57304652,3.92856257 7.59260621,3.9117075 7.61239458,3.89633596 C7.63568937,3.87826546 7.66003607,3.8749588 7.68436754,3.88968688 C7.70261613,3.90073294 7.71949266,3.91521078 7.73621672,3.92943839 C7.74624812,3.93796424 7.75480072,3.94899242 7.76403936,3.95889456 C7.76643286,3.95664245 7.76882637,3.95435459 7.77121988,3.95210248 Z M7.85730996,9.09020194 C7.86685351,9.08527463 7.87508596,9.08170565 7.88247992,9.07708464 C7.91714768,9.05537783 7.95195265,9.0338042 7.98591912,9.01125842 C7.99953316,9.00224278 8.00796379,8.98965816 8.00672893,8.97020194 C7.96869196,8.98652865 7.93275884,8.9998457 7.89944791,9.01714456 C7.88325743,9.02554762 7.87087826,9.04062253 7.85877351,9.05408608 C7.85032763,9.0634746 7.84398559,9.07516698 7.85730996,9.09020194 Z M8.29741063,8.79056388 C8.31741244,8.7505871 8.34993061,8.73466296 8.38497951,8.72324102 C8.40385316,8.71710961 8.42286402,8.71143368 8.4414785,8.70435628 C8.45276001,8.70004678 8.4634317,8.69340734 8.47437781,8.68783652 C8.47338687,8.68459563 8.47241117,8.68130219 8.47142023,8.67804379 C8.42673632,8.66411673 8.38229634,8.67159705 8.33861862,8.68450804 C8.32784021,8.68767885 8.31604036,8.69943364 8.3105978,8.71097821 C8.29937727,8.73483814 8.29544399,8.76192145 8.29741063,8.79056388 Z M7.54539159,8.81681272 C7.57278012,8.81877068 7.59422151,8.82029484 7.61707436,8.82192452 C7.60876424,8.78494603 7.6093986,8.78207357 7.63675541,8.75058206 C7.65055276,8.73473078 7.66553953,8.719454 7.67933688,8.703591 C7.68625142,8.69564192 7.69172278,8.68700109 7.69784436,8.67866511 C7.69535449,8.67729336 7.69286463,8.67590989 7.69037476,8.67453815 C7.62089639,8.70772968 7.58429377,8.75962151 7.54539159,8.81681272 Z M7.21269271,3.72263433 C7.21847627,3.7246433 7.2273486,3.72060304 7.23198175,3.71473238 C7.24588121,3.6971204 7.25837811,3.67725391 7.27071742,3.6593071 C7.23522811,3.5856225 7.17293269,3.5847073 7.11826465,3.65508826 C7.14669392,3.68816932 7.17795982,3.71055818 7.21269271,3.72263433 Z M7.68956618,9.38820896 L7.68958142,9.38819723 C7.68718791,9.37963848 7.68749282,9.37649637 7.68564814,9.37471427 C7.65084317,9.3413117 7.61625164,9.3078036 7.58040999,9.27510449 C7.5742509,9.26950026 7.56304562,9.26619401 7.55336487,9.26422432 C7.5237128,9.2581863 7.46110045,9.27260721 7.42955797,9.29444961 C7.44998664,9.29162405 7.46390558,9.28940815 7.47791599,9.28782537 C7.49831417,9.28555085 7.51874284,9.28334668 7.53926299,9.28186942 C7.55542298,9.28069698 7.56339626,9.28775502 7.56954011,9.29928002 C7.57685784,9.31304437 7.58541044,9.32754735 7.59830794,9.33808751 C7.61643458,9.35289532 7.6387994,9.36465481 7.6599446,9.37705913 C7.66680498,9.38108057 7.67563199,9.38306198 7.68956618,9.38820896 Z M7.36473505,8.10007014 L7.36475029,8.10007014 C7.38546863,8.08540302 7.39013368,8.06949312 7.39438711,8.05416944 C7.40109504,8.03013459 7.41781911,8.01416608 7.44727298,8.00507973 C7.46032294,8.00105829 7.47601033,7.99799824 7.48177304,7.98197111 C7.47036958,7.98066971 7.46055162,7.97920417 7.45067268,7.97845381 C7.41045564,7.97541721 7.39008795,8.00538456 7.3573106,8.01401366 C7.3419891,8.00410661 7.32775001,7.99487958 7.31256571,7.98504288 C7.30157386,8.00063622 7.30597975,8.01121155 7.31692586,8.02042686 C7.32942699,8.0309084 7.34695906,8.03923266 7.35449022,8.05142595 C7.36243301,8.0642758 7.36112192,8.0805726 7.36473505,8.10007014 Z M7.44812672,8.43857457 C7.45352354,8.44635952 7.45510905,8.4557038 7.45978935,8.46387565 C7.46599418,8.47466202 7.47413516,8.48432285 7.49654572,8.482998 C7.49491447,8.4727275 7.49412172,8.46324253 7.49174346,8.4540155 C7.48901455,8.44347534 7.48389214,8.43328691 7.48157486,8.42271157 C7.47617803,8.39804361 7.45847826,8.38218062 7.4283231,8.3743605 C7.41301684,8.3704094 7.3975124,8.36684521 7.38248055,8.36233135 C7.35290471,8.35345604 7.34979468,8.34415866 7.36978124,8.32427422 C7.37900463,8.31507063 7.39027089,8.30708637 7.39908266,8.29768347 C7.41271194,8.28314532 7.42490816,8.26783337 7.41740748,8.24647166 C7.41031843,8.24912136 7.40358002,8.25050483 7.39874726,8.25368212 C7.38374591,8.26350709 7.3687598,8.27347276 7.35506954,8.28436465 C7.33294865,8.30195112 7.30963862,8.31726308 7.27753206,8.3229142 C7.26881176,8.32446181 7.26132633,8.33033569 7.25373418,8.33398195 C7.26263743,8.35124015 7.27861448,8.35383122 7.294683,8.35592987 C7.34305626,8.36227273 7.38167255,8.38422065 7.41992295,8.40558235 C7.4328357,8.41281625 7.44003147,8.42689715 7.44812672,8.43857457 Z M8.1397267,8.03676862 L8.13970775,8.03676862 C8.13921481,8.01993403 8.14029548,8.0184907 8.11837874,8.01048672 C8.0901107,8.00012093 8.0745263,7.98619927 8.07393857,7.96313208 C8.0737869,7.95662394 8.06574823,7.94715038 8.05767165,7.94442116 C8.0337642,7.93633846 7.98805377,7.95714879 7.98731436,7.97625335 C7.98678351,7.99022749 7.99163704,8.00426725 7.99266084,8.01833324 C7.99370359,8.03178254 7.9929073,8.04525807 7.9929073,8.06263063 C8.02176308,8.05097894 8.04242852,8.0383038 8.06607054,8.03434118 C8.08906794,8.03048353 8.11509881,8.0355877 8.1397267,8.03676862 Z M7.74153733,3.70302859 L7.74152208,3.70299699 C7.78420886,3.70555679 7.82706333,3.70871704 7.86962815,3.70356584 C7.88847131,3.70129046 7.90713153,3.68157052 7.92515145,3.66608532 C7.93131054,3.66080771 7.93527431,3.64412161 7.94007657,3.63302915 C7.93646344,3.62487572 7.93521333,3.61959811 7.93336865,3.61833401 C7.87124415,3.57544947 7.80825066,3.57927337 7.74553159,3.60850564 C7.72955454,3.61596382 7.71392813,3.63637901 7.70811968,3.6838775 C7.72019394,3.69114607 7.73080465,3.70236494 7.74153733,3.70302859 Z M7.75515136,8.44475329 L7.7551666,8.44472984 C7.74618714,8.44870438 7.73955544,8.45407412 7.73272556,8.45423826 C7.70497915,8.45489482 7.69337749,8.46955021 7.68162339,8.48572977 C7.66227713,8.51234397 7.64142159,8.5383016 7.62170945,8.56479855 C7.61443745,8.57457663 7.60495489,8.58436644 7.61160183,8.59886941 C7.63172559,8.59571557 7.64495849,8.58565611 7.65648392,8.57482284 C7.67564724,8.55679085 7.69404829,8.53820781 7.71136692,8.51909717 C7.73851876,8.48915327 7.7745586,8.47551789 7.82149881,8.47869518 C7.83564642,8.47964485 7.84999223,8.4788476 7.86424656,8.4788476 C7.86630468,8.47606893 7.86834754,8.47329027 7.87040566,8.47051161 C7.86577109,8.46950332 7.86080113,8.46904607 7.85656294,8.46740466 C7.83456401,8.45883419 7.81543119,8.44850507 7.80526259,8.42932409 C7.80216779,8.4234971 7.78919406,8.4184791 7.77994018,8.41743563 C7.74470834,8.41351971 7.70912587,8.41135071 7.6736806,8.40853688 C7.701427,8.42196122 7.73755831,8.41636872 7.75515136,8.44475329 Z M7.20259025,3.52299115 L7.20259025,3.52297942 L7.20259025,3.39818581 C7.15113936,3.41229016 7.10554567,3.43167046 7.06046063,3.45160179 C7.05497336,3.45400528 7.05108911,3.46187229 7.05078084,3.46735927 C7.04967105,3.4878651 7.05033384,3.5084061 7.05033384,3.53422304 C7.10368061,3.5302954 7.15181756,3.52674293 7.20259025,3.52299115 Z M7.57993739,3.6895194 L7.57993739,3.68954149 C7.62035262,3.68616283 7.62776182,3.67068282 7.62344741,3.61172188 C7.62295956,3.60500873 7.6216942,3.59840599 7.61972756,3.5841847 C7.60622024,3.58155685 7.59388681,3.57725071 7.58156863,3.57718447 C7.52718873,3.57694156 7.47279358,3.57747154 7.41841367,3.57870818 C7.40228417,3.57908358 7.38601746,3.58140227 7.37005565,3.58502384 C7.3502063,3.58957289 7.34631875,3.59926721 7.35093807,3.62656149 C7.3590943,3.67476813 7.37499512,3.69647547 7.41361141,3.69702754 C7.46904324,3.69777835 7.52456654,3.69417886 7.57993739,3.6895194 Z M7.88760233,6.32173768 L7.88766331,6.32174941 C7.88860852,6.3202018 7.88955372,6.31865419 7.89051418,6.31710658 C7.88078769,6.31327273 7.87153381,6.30804368 7.861228,6.30589813 C7.8368508,6.30078633 7.82034017,6.29274345 7.81788568,6.27009207 C7.81623919,6.25504977 7.80070425,6.25278698 7.78507784,6.26329197 C7.77989444,6.26678581 7.7753666,6.27106519 7.77141807,6.27545008 C7.75913038,6.28906201 7.74207091,6.29588557 7.72123062,6.29593246 C7.69119742,6.29601453 7.66093554,6.29674144 7.63119201,6.29422071 C7.5716592,6.28915581 7.56754297,6.28494678 7.56031671,6.23878815 C7.55804517,6.22428517 7.55402041,6.21077876 7.53174706,6.20625317 C7.50878768,6.22865834 7.51862088,6.2558353 7.51028171,6.28049154 C7.50099734,6.28115982 7.493207,6.28202742 7.48541667,6.28225019 C7.44276038,6.28345779 7.39999738,6.28325848 7.35752403,6.28597852 C7.32188057,6.28827648 7.28620663,6.2931069 7.25480135,6.3080554 C7.24380951,6.31328445 7.22972287,6.31763417 7.23013449,6.33287578 C7.24132453,6.33416546 7.25132543,6.33647515 7.26125011,6.33626411 C7.47001894,6.33159783 7.67880301,6.32663844 7.88760233,6.32173768 Z M7.90171946,6.07961213 C7.94875114,6.07939226 7.9914684,6.08632573 8.01331489,6.13585678 C8.0211967,6.15368151 8.03252394,6.15407729 8.04406461,6.13817282 C8.06036181,6.11565737 8.0828486,6.10768315 8.10902474,6.10497133 C8.12510851,6.10330026 8.14131424,6.10208361 8.15715408,6.09910793 C8.16497491,6.09762742 8.1721097,6.09257024 8.18343694,6.08733716 C8.1572608,6.06325325 8.129179,6.05651035 8.10129538,6.05146783 C8.00329874,6.03374571 7.90389953,6.03214793 7.80466802,6.02978791 C7.77933037,6.02917226 7.753886,6.031415 7.7285331,6.03308607 C7.72005673,6.0336431 7.7117633,6.03648684 7.7033784,6.0383045 C7.72415771,6.04620543 7.74451016,6.04967949 7.7650303,6.0510867 C7.80003346,6.05353467 7.83369503,6.05665693 7.83585986,6.10522052 C7.86840853,6.08307154 7.87636656,6.0797294 7.90171946,6.07961213 Z M8.56638306,7.77088653 L8.56638306,7.7708748 C8.58761973,7.7842288 8.58917475,7.79119304 8.57784751,7.81065541 C8.57496615,7.81557962 8.57145974,7.82026935 8.56836495,7.82511149 C8.54325598,7.86437622 8.55048224,7.8890559 8.59617233,7.91965637 C8.6137044,7.91582252 8.61440569,7.90290232 8.62085444,7.89271389 C8.6243761,7.88714484 8.63244085,7.88333444 8.63843224,7.87872678 C8.64402726,7.88379169 8.65123828,7.88827038 8.65489714,7.89408564 C8.66062937,7.90316026 8.66396808,7.91312592 8.66845019,7.92305642 C8.70552671,7.90923345 8.71191448,7.89502358 8.69284264,7.87326325 C8.68508279,7.86442312 8.67462453,7.85700163 8.66503525,7.84918151 C8.63587104,7.82542804 8.6353527,7.81256647 8.66537065,7.78999716 C8.67944204,7.77939838 8.69651675,7.77120308 8.71078633,7.76072155 C8.71775342,7.75560975 8.72749515,7.74564408 8.72520836,7.74163436 C8.72130557,7.73482253 8.7097649,7.72886658 8.69985547,7.72631068 C8.6685874,7.71829125 8.64928688,7.73151628 8.63523073,7.75408558 C8.58717762,7.7473441 8.54819545,7.72244166 8.49822143,7.72850313 C8.50085886,7.73387286 8.5060575,7.7359129 8.51072255,7.73856259 C8.52939802,7.74919654 8.54837839,7.75957256 8.56638306,7.77088653 Z M7.72520963,7.68010515 L7.7251639,7.68009343 C7.72182518,7.66272972 7.72182518,7.66272972 7.70657991,7.65082954 C7.68779772,7.63619759 7.68703546,7.63013612 7.70456753,7.61443726 C7.72921914,7.59233693 7.76036524,7.58124572 7.79744176,7.58971068 C7.82717005,7.59647561 7.85583117,7.60642955 7.88437033,7.61605522 C7.90403674,7.6227029 7.92336775,7.62865886 7.95318751,7.62784988 C7.93760684,7.61730972 7.92838345,7.60923167 7.91707145,7.60382676 C7.89839599,7.594928 7.87807403,7.58815135 7.85903268,7.57969812 C7.84787314,7.57475045 7.83784174,7.56830208 7.82730726,7.56252199 C7.82788658,7.56034127 7.8284659,7.5581371 7.82902997,7.55594465 C7.84037246,7.55316599 7.85156249,7.54983628 7.86310317,7.54769073 C7.87877531,7.54477138 7.89540791,7.54420861 7.91039402,7.53998786 C7.93114284,7.53413742 7.94487884,7.51943513 7.93986314,7.51052465 C7.93231673,7.49715893 7.91536398,7.49793274 7.90083523,7.4985424 C7.8250662,7.50168452 7.74976978,7.50645632 7.69892678,7.55988402 C7.69689915,7.56202957 7.69418549,7.56385856 7.69145659,7.56549997 C7.65395321,7.58795203 7.63189329,7.61733317 7.62600861,7.65644548 C7.65945675,7.65895449 7.68573961,7.68085551 7.72520963,7.68010515 Z M7.95087023,9.4379904 L7.95088548,9.4379904 C7.967762,9.44727606 7.96962192,9.44606845 7.98410494,9.42705161 C7.96218223,9.4122438 7.95378208,9.39296903 7.9554743,9.36982523 C7.95596215,9.36324789 7.94800412,9.35559191 7.94196699,9.34963596 C7.93711899,9.34486416 7.9288408,9.34231999 7.92291039,9.33808751 C7.91284851,9.33093568 7.90671991,9.32176726 7.91290949,9.31149676 C7.91957168,9.30040556 7.9335211,9.30183593 7.94634238,9.30300836 C7.94977257,9.30331319 7.95370585,9.30354768 7.95635853,9.30497804 C7.97680245,9.31608097 7.99909104,9.31541268 8.02267549,9.31402921 C8.03836288,9.31310299 8.05452287,9.31704236 8.07046943,9.31884791 C8.08437313,9.32041897 8.09858172,9.32499145 8.11615953,9.31615131 C8.0834889,9.30249249 8.05729751,9.28671156 8.02316334,9.28264322 C8.01566266,9.28175217 8.00694236,9.27556173 8.00357315,9.27003958 C8.00186568,9.26719057 8.00948832,9.25927666 8.01505285,9.25566557 C8.04342431,9.23717632 8.04293646,9.22192299 8.00945783,9.20199165 C8.00125587,9.21410287 7.9926118,9.22558098 7.98556848,9.23763357 C7.9777629,9.25098757 7.96504834,9.25663869 7.94687597,9.25517315 C7.93891793,9.25451659 7.93080745,9.25357864 7.92323054,9.25165585 C7.90110965,9.2460868 7.87918694,9.23994326 7.8533157,9.23299074 C7.8576606,9.24072879 7.86022181,9.24545369 7.86293547,9.25014342 C7.87397305,9.26919543 7.8718692,9.27456517 7.84752249,9.28401497 C7.83410665,9.28923229 7.81973035,9.29291372 7.8061773,9.29793173 C7.78468146,9.30589254 7.76268253,9.31338438 7.73879318,9.33129913 C7.76666154,9.33337433 7.78673957,9.33573092 7.80689383,9.336153 C7.83907661,9.33683301 7.86308792,9.34602487 7.87316505,9.37124387 C7.88581863,9.40295815 7.91876368,9.42032186 7.95087023,9.4379904 Z M8.1650054,8.43560832 L8.16502064,8.43560832 C8.15149808,8.45749762 8.1461165,8.4787538 8.15945612,8.50291762 C8.17002109,8.52206342 8.16043181,8.54074026 8.13991167,8.55391839 C8.12033673,8.56648686 8.09870369,8.57712081 8.07844271,8.58906789 C8.07194822,8.59291346 8.06690204,8.59825975 8.06020936,8.60367638 C8.08002822,8.6158345 8.0942978,8.60919854 8.10780512,8.60242188 C8.13407273,8.58920858 8.1603251,8.5759601 8.1856475,8.56169161 C8.20322531,8.55179629 8.22028477,8.54105682 8.23563677,8.52916836 C8.25033322,8.51777232 8.26283434,8.50460592 8.27580807,8.49190848 C8.30143539,8.46683017 8.31693983,8.46675983 8.34351235,8.49183814 C8.34471673,8.49296367 8.34756759,8.49301057 8.35468714,8.49489818 C8.36311778,8.48631599 8.37589332,8.47769861 8.38141211,8.466795 C8.3935626,8.4427836 8.41385406,8.43610074 8.44425314,8.4423498 C8.44997012,8.44352223 8.45640363,8.44251394 8.46620634,8.44251394 C8.42400742,8.41274591 8.40600274,8.35347949 8.42548621,8.3131244 C8.44718024,8.2681851 8.48509524,8.23280111 8.53654805,8.20517862 C8.52706549,8.20431102 8.51832995,8.20402964 8.51249101,8.20708969 C8.48962309,8.21908366 8.46524589,8.23023349 8.44580816,8.24517026 C8.39151973,8.2868971 8.40156637,8.29309927 8.31111614,8.29064888 C8.28193668,8.28986335 8.25736129,8.2988559 8.2379388,8.32245695 C8.24960144,8.31924449 8.25688868,8.31713411 8.26425215,8.31522305 C8.28891901,8.3087864 8.313967,8.30698086 8.33944186,8.31195197 C8.36269091,8.31647755 8.37035928,8.32353559 8.3708014,8.34214208 C8.37107581,8.35475744 8.3702983,8.36743143 8.36936834,8.38003507 C8.36613634,8.42371987 8.34236896,8.4411422 8.28532113,8.44102496 C8.2683074,8.44098978 8.2513394,8.43923113 8.23327375,8.43818767 C8.22498032,8.4551762 8.23431043,8.4749434 8.21656493,8.49135744 C8.19223346,8.46768605 8.19381897,8.43905527 8.17855845,8.4098969 C8.17278049,8.42095293 8.16942653,8.42847994 8.1650054,8.43560832 Z M8.89211366,8.45870522 L8.89209841,8.45871695 C8.89590973,8.45612587 8.898288,8.45525827 8.89900452,8.4538748 C8.90113886,8.44971267 8.90347139,8.44544502 8.90429464,8.4410484 C8.91819833,8.3665521 8.94971032,8.29607724 8.98324993,8.22590721 C8.99072011,8.21029043 8.99509551,8.19262188 8.99436374,8.17607887 C8.99343377,8.15522132 9.00296207,8.14162111 9.02494576,8.13160854 C9.0438804,8.12297945 9.06293699,8.11443242 9.08112461,8.10488883 C9.08749713,8.1015474 9.09146091,8.09539213 9.09652234,8.09052654 C9.09495208,8.08854513 9.09339706,8.086552 9.09184204,8.08457059 C9.06310469,8.08962377 9.03439783,8.09480592 9.00561475,8.09974185 C8.93967892,8.11102065 8.8963366,8.14447012 8.86410808,8.18822526 C8.85108862,8.20590553 8.84427398,8.22492237 8.85755262,8.24485371 C8.86712665,8.25922772 8.86279699,8.27269896 8.85369556,8.28606468 C8.8461339,8.2971676 8.83773375,8.30809467 8.83207776,8.31980726 C8.82474478,8.3349668 8.82477527,8.35063048 8.84230734,8.36201479 C8.86526673,8.37689295 8.87147155,8.39515943 8.86756876,8.41754115 C8.86456544,8.43483452 8.87513042,8.44816506 8.89211366,8.45870522 Z M7.6888344,3.51100818 C7.74347348,3.51821792 8.02455066,3.51611142 8.0491108,3.50905215 L8.0491108,3.41257953 C8.00656123,3.39965215 7.72431016,3.3892952 7.68881916,3.39982769 C7.68637991,3.4381459 7.6839864,3.47505978 7.6888344,3.51100818 Z M7.47692505,3.51119649 L7.47692505,3.51120821 C7.51377288,3.50902749 7.55042253,3.50475984 7.58707218,3.50094944 C7.59850613,3.49976528 7.61167805,3.4981356 7.61294341,3.48662232 C7.61611443,3.4579212 7.61878235,3.42914973 7.62029163,3.40035481 C7.6208862,3.38899395 7.61163232,3.38213522 7.59660047,3.38109176 C7.58852048,3.38052899 7.58042523,3.37961449 7.57237573,3.37984898 C7.48681923,3.38226419 7.40127798,3.3847263 7.31578246,3.38769255 C7.30320511,3.38811462 7.2904753,3.39040087 7.27837055,3.39322643 C7.25344452,3.39902996 7.24377902,3.40840941 7.24455653,3.4287042 C7.2452883,3.44758035 7.24871849,3.46639788 7.25161509,3.48518023 C7.25480135,3.50579158 7.25922248,3.51031716 7.28622187,3.51136063 C7.3219568,3.51273237 7.35787467,3.51168891 7.39371632,3.51168891 C7.39371632,3.51164201 7.39371632,3.51157167 7.39371632,3.51152477 C7.42144748,3.51152477 7.44934634,3.51282617 7.47692505,3.51119649 Z M8.26391676,9.27902041 L8.26388627,9.27902041 C8.27253034,9.27277135 8.27989381,9.26724919 8.28756218,9.26197325 C8.30129818,9.25251173 8.31453108,9.24538335 8.33308458,9.25733042 C8.34550948,9.26533813 8.35741604,9.26039047 8.36447461,9.25016687 C8.37429257,9.23598044 8.38938539,9.22726928 8.40735957,9.21985951 C8.41932712,9.2149353 8.42931277,9.20681035 8.43942039,9.19947093 C8.45294295,9.1896225 8.46494099,9.1784375 8.4789514,9.16906978 C8.51401553,9.14564459 8.55037552,9.13685136 8.58060691,9.17426365 C8.59071452,9.1867266 8.6074081,9.19679778 8.6234004,9.20530964 C8.64216734,9.2153222 8.65887616,9.20885038 8.65872371,9.19124046 C8.65864748,9.18055961 8.65248839,9.16820218 8.64401201,9.15965515 C8.62638847,9.14188109 8.60534999,9.12614706 8.5857903,9.10952198 C8.56571227,9.0924631 8.56499574,9.08841821 8.58742154,9.07531042 C8.61509172,9.05914259 8.63106877,9.03916436 8.63434651,9.01196395 C8.63661805,8.99316987 8.64982047,8.98554907 8.67366408,8.9849863 C8.69442815,8.98451733 8.70872822,8.99300573 8.7195981,9.00562109 C8.73315115,9.02133168 8.74581998,9.03755813 8.75960171,9.05315147 C8.76345876,9.05753636 8.76990752,9.06054951 8.77891747,9.06679857 C8.7781857,9.02810833 8.76643159,8.99821133 8.73115402,8.97588823 C8.72215931,8.97021366 8.71430799,8.96336666 8.70490165,8.95818451 C8.66558408,8.93658832 8.63573383,8.91047827 8.63189202,8.87082664 C8.63146515,8.86654726 8.62864477,8.86202168 8.62553474,8.85834024 C8.61617414,8.84729594 8.59170547,8.84227793 8.57946351,8.85102427 C8.56165703,8.8637217 8.54555801,8.87817778 8.53096828,8.89320836 C8.52214127,8.90230642 8.52990111,8.91149829 8.5447805,8.91075966 C8.55501008,8.91025551 8.56502623,8.90723064 8.57521008,8.90563613 C8.59452584,8.90259953 8.60428282,8.90803962 8.60367301,8.92342192 C8.60330712,8.93217998 8.59873354,8.94085597 8.5957912,8.94952024 C8.59254396,8.95905211 8.58768071,8.96836122 8.5857903,8.97803378 C8.57670411,9.02493104 8.5459239,9.04821553 8.48576603,9.05285836 C8.47488091,9.05370251 8.464072,9.05491012 8.45466567,9.05580116 C8.45368997,9.05974053 8.45294295,9.06085434 8.45336982,9.06140539 C8.45625118,9.06518062 8.45910204,9.06902619 8.4624865,9.07252004 C8.47875321,9.08934443 8.47905811,9.09369415 8.46427019,9.11085855 C8.46105344,9.11458688 8.45719638,9.11799866 8.4537662,9.12162147 C8.43193496,9.14478872 8.41011897,9.16795597 8.38834871,9.19117011 C8.3782106,9.20197993 8.36889574,9.21350493 8.34913786,9.2170574 C8.34028035,9.20962418 8.33192594,9.20260132 8.32186406,9.19414809 C8.3017098,9.2084752 8.26327646,9.26492778 8.26391676,9.27902041 Z" id="Combined-Shape" fill="#2B2926"></path>
    </g>
</svg>